<?xml version="1.0" encoding="utf-8" standalone="no"?>
<!DOCTYPE svg PUBLIC "-//W3C//DTD SVG 1.1//EN"
  "http://www.w3.org/Graphics/SVG/1.1/DTD/svg11.dtd">
<svg xmlns:xlink="http://www.w3.org/1999/xlink" width="288.525934pt" height="571.8212pt" viewBox="0 0 288.525934 571.8212" xmlns="http://www.w3.org/2000/svg" version="1.1">
 <metadata>
  <rdf:RDF xmlns:dc="http://purl.org/dc/elements/1.1/" xmlns:cc="http://creativecommons.org/ns#" xmlns:rdf="http://www.w3.org/1999/02/22-rdf-syntax-ns#">
   <cc:Work>
    <dc:type rdf:resource="http://purl.org/dc/dcmitype/StillImage"/>
    <dc:date>2023-03-10T13:54:52.500567</dc:date>
    <dc:format>image/svg+xml</dc:format>
    <dc:creator>
     <cc:Agent>
      <dc:title>Matplotlib v3.5.1, https://matplotlib.org/</dc:title>
     </cc:Agent>
    </dc:creator>
   </cc:Work>
  </rdf:RDF>
 </metadata>
 <defs>
  <style type="text/css">*{stroke-linejoin: round; stroke-linecap: butt}</style>
 </defs>
 <g id="figure_1">
  <g id="patch_1">
   <path d="M 0 571.8212 
L 288.525934 571.8212 
L 288.525934 0 
L 0 0 
z
" style="fill: #ffffff"/>
  </g>
  <g id="axes_1">
   <g id="patch_2">
    <path d="M 92.419491 50.050774 
C 80.477238 56.318552 69.77291 64.704857 60.829294 74.800113 
C 51.885678 84.895369 44.850782 96.532508 40.068182 109.143186 
C 35.285583 121.753864 32.834428 135.129386 32.834428 148.616508 
C 32.834428 162.10363 35.285583 175.479152 40.068182 188.08983 
C 44.850782 200.700508 51.885678 212.337647 60.829294 222.432903 
C 69.77291 232.528159 80.477238 240.914464 92.419491 247.182242 
C 104.361745 253.45002 117.34429 257.495545 130.733076 259.121238 
C 144.121861 260.746931 157.695315 259.925888 170.790526 256.698209 
C 183.885737 253.470529 196.285991 247.889628 207.385675 240.228069 
C 218.485358 232.566511 228.100782 222.951087 235.762341 211.851403 
C 243.423899 200.751719 249.004801 188.351465 252.23248 175.256255 
C 255.46016 162.161044 256.281202 148.58759 254.65551 135.198804 
C 253.029817 121.810019 248.984292 108.827473 242.716514 96.88522 
C 236.448736 84.942967 228.06243 74.238638 217.967174 65.295022 
C 207.871919 56.351406 196.23478 49.31651 183.624102 44.533911 
C 171.013424 39.751312 157.637901 37.300156 144.150779 37.300156 
L 144.150779 148.616508 
C 144.150779 148.616508 144.150779 148.616508 144.150779 148.616508 
C 144.150779 148.616508 144.150779 148.616508 144.150779 148.616508 
C 144.150779 148.616508 144.150779 148.616508 144.150779 148.616508 
C 144.150779 148.616508 144.150779 148.616508 144.150779 148.616508 
C 144.150779 148.616508 144.150779 148.616508 144.150779 148.616508 
C 144.150779 148.616508 144.150779 148.616508 144.150779 148.616508 
C 144.150779 148.616508 144.150779 148.616508 144.150779 148.616508 
C 144.150779 148.616508 144.150779 148.616508 144.150779 148.616508 
C 144.150779 148.616508 144.150779 148.616508 144.150779 148.616508 
C 144.150779 148.616508 144.150779 148.616508 144.150779 148.616508 
C 144.150779 148.616508 144.150779 148.616508 144.150779 148.616508 
C 144.150779 148.616508 144.150779 148.616508 144.150779 148.616508 
C 144.150779 148.616508 144.150779 148.616508 144.150779 148.616508 
C 144.150779 148.616508 144.150779 148.616508 144.150779 148.616508 
C 144.150779 148.616508 144.150779 148.616508 144.150779 148.616508 
C 144.150779 148.616508 144.150779 148.616508 144.150779 148.616508 
L 92.419491 50.050774 
z
" style="fill: #808080; opacity: 0.05"/>
   </g>
   <g id="matplotlib.axis_1">
    <g id="xtick_1">
     <g id="line2d_1">
      <path d="M 144.150779 148.616508 
L 144.150779 37.300156 
" clip-path="url(#p58e6040cbb)" style="fill: none; stroke: #b0b0b0; stroke-width: 0.8; stroke-linecap: square"/>
     </g>
     <g id="text_1">
      <!-- Jan '19 -->
      <g style="fill: #808080" transform="translate(131.378279 25.368281)scale(0.08 -0.08)">
       <defs>
        <path id="ArialMT-4a" d="M 184 1300 
L 731 1375 
Q 753 850 928 656 
Q 1103 463 1413 463 
Q 1641 463 1806 567 
Q 1972 672 2034 851 
Q 2097 1031 2097 1425 
L 2097 4581 
L 2703 4581 
L 2703 1459 
Q 2703 884 2564 568 
Q 2425 253 2123 87 
Q 1822 -78 1416 -78 
Q 813 -78 492 269 
Q 172 616 184 1300 
z
" transform="scale(0.015625)"/>
        <path id="ArialMT-61" d="M 2588 409 
Q 2275 144 1986 34 
Q 1697 -75 1366 -75 
Q 819 -75 525 192 
Q 231 459 231 875 
Q 231 1119 342 1320 
Q 453 1522 633 1644 
Q 813 1766 1038 1828 
Q 1203 1872 1538 1913 
Q 2219 1994 2541 2106 
Q 2544 2222 2544 2253 
Q 2544 2597 2384 2738 
Q 2169 2928 1744 2928 
Q 1347 2928 1158 2789 
Q 969 2650 878 2297 
L 328 2372 
Q 403 2725 575 2942 
Q 747 3159 1072 3276 
Q 1397 3394 1825 3394 
Q 2250 3394 2515 3294 
Q 2781 3194 2906 3042 
Q 3031 2891 3081 2659 
Q 3109 2516 3109 2141 
L 3109 1391 
Q 3109 606 3145 398 
Q 3181 191 3288 0 
L 2700 0 
Q 2613 175 2588 409 
z
M 2541 1666 
Q 2234 1541 1622 1453 
Q 1275 1403 1131 1340 
Q 988 1278 909 1158 
Q 831 1038 831 891 
Q 831 666 1001 516 
Q 1172 366 1500 366 
Q 1825 366 2078 508 
Q 2331 650 2450 897 
Q 2541 1088 2541 1459 
L 2541 1666 
z
" transform="scale(0.015625)"/>
        <path id="ArialMT-6e" d="M 422 0 
L 422 3319 
L 928 3319 
L 928 2847 
Q 1294 3394 1984 3394 
Q 2284 3394 2536 3286 
Q 2788 3178 2913 3003 
Q 3038 2828 3088 2588 
Q 3119 2431 3119 2041 
L 3119 0 
L 2556 0 
L 2556 2019 
Q 2556 2363 2490 2533 
Q 2425 2703 2258 2804 
Q 2091 2906 1866 2906 
Q 1506 2906 1245 2678 
Q 984 2450 984 1813 
L 984 0 
L 422 0 
z
" transform="scale(0.015625)"/>
        <path id="ArialMT-20" transform="scale(0.015625)"/>
        <path id="ArialMT-27" d="M 425 2959 
L 281 3816 
L 281 4581 
L 922 4581 
L 922 3816 
L 772 2959 
L 425 2959 
z
" transform="scale(0.015625)"/>
        <path id="ArialMT-31" d="M 2384 0 
L 1822 0 
L 1822 3584 
Q 1619 3391 1289 3197 
Q 959 3003 697 2906 
L 697 3450 
Q 1169 3672 1522 3987 
Q 1875 4303 2022 4600 
L 2384 4600 
L 2384 0 
z
" transform="scale(0.015625)"/>
        <path id="ArialMT-39" d="M 350 1059 
L 891 1109 
Q 959 728 1153 556 
Q 1347 384 1650 384 
Q 1909 384 2104 503 
Q 2300 622 2425 820 
Q 2550 1019 2634 1356 
Q 2719 1694 2719 2044 
Q 2719 2081 2716 2156 
Q 2547 1888 2255 1720 
Q 1963 1553 1622 1553 
Q 1053 1553 659 1965 
Q 266 2378 266 3053 
Q 266 3750 677 4175 
Q 1088 4600 1706 4600 
Q 2153 4600 2523 4359 
Q 2894 4119 3086 3673 
Q 3278 3228 3278 2384 
Q 3278 1506 3087 986 
Q 2897 466 2520 194 
Q 2144 -78 1638 -78 
Q 1100 -78 759 220 
Q 419 519 350 1059 
z
M 2653 3081 
Q 2653 3566 2395 3850 
Q 2138 4134 1775 4134 
Q 1400 4134 1122 3828 
Q 844 3522 844 3034 
Q 844 2597 1108 2323 
Q 1372 2050 1759 2050 
Q 2150 2050 2401 2323 
Q 2653 2597 2653 3081 
z
" transform="scale(0.015625)"/>
       </defs>
       <use xlink:href="#ArialMT-4a"/>
       <use xlink:href="#ArialMT-61" x="50"/>
       <use xlink:href="#ArialMT-6e" x="105.615234"/>
       <use xlink:href="#ArialMT-20" x="161.230469"/>
       <use xlink:href="#ArialMT-27" x="189.013672"/>
       <use xlink:href="#ArialMT-31" x="208.105469"/>
       <use xlink:href="#ArialMT-39" x="263.720703"/>
      </g>
     </g>
    </g>
    <g id="xtick_2">
     <g id="line2d_2">
      <path d="M 144.150779 148.616508 
L 195.882067 50.050774 
" clip-path="url(#p58e6040cbb)" style="fill: none; stroke: #b0b0b0; stroke-width: 0.8; stroke-linecap: square"/>
     </g>
     <g id="text_2">
      <!-- Apr '19 -->
      <g style="fill: #808080" transform="translate(189.840067 39.734389)scale(0.08 -0.08)">
       <defs>
        <path id="ArialMT-41" d="M -9 0 
L 1750 4581 
L 2403 4581 
L 4278 0 
L 3588 0 
L 3053 1388 
L 1138 1388 
L 634 0 
L -9 0 
z
M 1313 1881 
L 2866 1881 
L 2388 3150 
Q 2169 3728 2063 4100 
Q 1975 3659 1816 3225 
L 1313 1881 
z
" transform="scale(0.015625)"/>
        <path id="ArialMT-70" d="M 422 -1272 
L 422 3319 
L 934 3319 
L 934 2888 
Q 1116 3141 1344 3267 
Q 1572 3394 1897 3394 
Q 2322 3394 2647 3175 
Q 2972 2956 3137 2557 
Q 3303 2159 3303 1684 
Q 3303 1175 3120 767 
Q 2938 359 2589 142 
Q 2241 -75 1856 -75 
Q 1575 -75 1351 44 
Q 1128 163 984 344 
L 984 -1272 
L 422 -1272 
z
M 931 1641 
Q 931 1000 1190 694 
Q 1450 388 1819 388 
Q 2194 388 2461 705 
Q 2728 1022 2728 1688 
Q 2728 2322 2467 2637 
Q 2206 2953 1844 2953 
Q 1484 2953 1207 2617 
Q 931 2281 931 1641 
z
" transform="scale(0.015625)"/>
        <path id="ArialMT-72" d="M 416 0 
L 416 3319 
L 922 3319 
L 922 2816 
Q 1116 3169 1280 3281 
Q 1444 3394 1641 3394 
Q 1925 3394 2219 3213 
L 2025 2691 
Q 1819 2813 1613 2813 
Q 1428 2813 1281 2702 
Q 1134 2591 1072 2394 
Q 978 2094 978 1738 
L 978 0 
L 416 0 
z
" transform="scale(0.015625)"/>
       </defs>
       <use xlink:href="#ArialMT-41"/>
       <use xlink:href="#ArialMT-70" x="66.699219"/>
       <use xlink:href="#ArialMT-72" x="122.314453"/>
       <use xlink:href="#ArialMT-20" x="155.615234"/>
       <use xlink:href="#ArialMT-27" x="183.398438"/>
       <use xlink:href="#ArialMT-31" x="202.490234"/>
       <use xlink:href="#ArialMT-39" x="258.105469"/>
      </g>
     </g>
    </g>
    <g id="xtick_3">
     <g id="line2d_3">
      <path d="M 144.150779 148.616508 
L 235.762341 85.381613 
" clip-path="url(#p58e6040cbb)" style="fill: none; stroke: #b0b0b0; stroke-width: 0.8; stroke-linecap: square"/>
     </g>
     <g id="text_3">
      <!-- Aug '19 -->
      <g style="fill: #808080" transform="translate(233.84349 79.461831)scale(0.08 -0.08)">
       <defs>
        <path id="ArialMT-75" d="M 2597 0 
L 2597 488 
Q 2209 -75 1544 -75 
Q 1250 -75 995 37 
Q 741 150 617 320 
Q 494 491 444 738 
Q 409 903 409 1263 
L 409 3319 
L 972 3319 
L 972 1478 
Q 972 1038 1006 884 
Q 1059 663 1231 536 
Q 1403 409 1656 409 
Q 1909 409 2131 539 
Q 2353 669 2445 892 
Q 2538 1116 2538 1541 
L 2538 3319 
L 3100 3319 
L 3100 0 
L 2597 0 
z
" transform="scale(0.015625)"/>
        <path id="ArialMT-67" d="M 319 -275 
L 866 -356 
Q 900 -609 1056 -725 
Q 1266 -881 1628 -881 
Q 2019 -881 2231 -725 
Q 2444 -569 2519 -288 
Q 2563 -116 2559 434 
Q 2191 0 1641 0 
Q 956 0 581 494 
Q 206 988 206 1678 
Q 206 2153 378 2554 
Q 550 2956 876 3175 
Q 1203 3394 1644 3394 
Q 2231 3394 2613 2919 
L 2613 3319 
L 3131 3319 
L 3131 450 
Q 3131 -325 2973 -648 
Q 2816 -972 2473 -1159 
Q 2131 -1347 1631 -1347 
Q 1038 -1347 672 -1080 
Q 306 -813 319 -275 
z
M 784 1719 
Q 784 1066 1043 766 
Q 1303 466 1694 466 
Q 2081 466 2343 764 
Q 2606 1063 2606 1700 
Q 2606 2309 2336 2618 
Q 2066 2928 1684 2928 
Q 1309 2928 1046 2623 
Q 784 2319 784 1719 
z
" transform="scale(0.015625)"/>
       </defs>
       <use xlink:href="#ArialMT-41"/>
       <use xlink:href="#ArialMT-75" x="66.699219"/>
       <use xlink:href="#ArialMT-67" x="122.314453"/>
       <use xlink:href="#ArialMT-20" x="177.929688"/>
       <use xlink:href="#ArialMT-27" x="205.712891"/>
       <use xlink:href="#ArialMT-31" x="224.804688"/>
       <use xlink:href="#ArialMT-39" x="280.419922"/>
      </g>
     </g>
    </g>
    <g id="xtick_4">
     <g id="line2d_4">
      <path d="M 144.150779 148.616508 
L 254.65551 135.198804 
" clip-path="url(#p58e6040cbb)" style="fill: none; stroke: #b0b0b0; stroke-width: 0.8; stroke-linecap: square"/>
     </g>
     <g id="text_4">
      <!-- Jan '20 -->
      <g style="fill: #808080" transform="translate(255.780934 135.579416)scale(0.08 -0.08)">
       <defs>
        <path id="ArialMT-32" d="M 3222 541 
L 3222 0 
L 194 0 
Q 188 203 259 391 
Q 375 700 629 1000 
Q 884 1300 1366 1694 
Q 2113 2306 2375 2664 
Q 2638 3022 2638 3341 
Q 2638 3675 2398 3904 
Q 2159 4134 1775 4134 
Q 1369 4134 1125 3890 
Q 881 3647 878 3216 
L 300 3275 
Q 359 3922 746 4261 
Q 1134 4600 1788 4600 
Q 2447 4600 2831 4234 
Q 3216 3869 3216 3328 
Q 3216 3053 3103 2787 
Q 2991 2522 2730 2228 
Q 2469 1934 1863 1422 
Q 1356 997 1212 845 
Q 1069 694 975 541 
L 3222 541 
z
" transform="scale(0.015625)"/>
        <path id="ArialMT-30" d="M 266 2259 
Q 266 3072 433 3567 
Q 600 4063 929 4331 
Q 1259 4600 1759 4600 
Q 2128 4600 2406 4451 
Q 2684 4303 2865 4023 
Q 3047 3744 3150 3342 
Q 3253 2941 3253 2259 
Q 3253 1453 3087 958 
Q 2922 463 2592 192 
Q 2263 -78 1759 -78 
Q 1097 -78 719 397 
Q 266 969 266 2259 
z
M 844 2259 
Q 844 1131 1108 757 
Q 1372 384 1759 384 
Q 2147 384 2411 759 
Q 2675 1134 2675 2259 
Q 2675 3391 2411 3762 
Q 2147 4134 1753 4134 
Q 1366 4134 1134 3806 
Q 844 3388 844 2259 
z
" transform="scale(0.015625)"/>
       </defs>
       <use xlink:href="#ArialMT-4a"/>
       <use xlink:href="#ArialMT-61" x="50"/>
       <use xlink:href="#ArialMT-6e" x="105.615234"/>
       <use xlink:href="#ArialMT-20" x="161.230469"/>
       <use xlink:href="#ArialMT-27" x="189.013672"/>
       <use xlink:href="#ArialMT-32" x="208.105469"/>
       <use xlink:href="#ArialMT-30" x="263.720703"/>
      </g>
     </g>
    </g>
    <g id="xtick_5">
     <g id="line2d_5">
      <path d="M 144.150779 148.616508 
L 248.233376 188.08983 
" clip-path="url(#p58e6040cbb)" style="fill: none; stroke: #b0b0b0; stroke-width: 0.8; stroke-linecap: square"/>
     </g>
     <g id="text_5">
      <!-- Apr '20 -->
      <g style="fill: #808080" transform="translate(248.775479 195.134299)scale(0.08 -0.08)">
       <use xlink:href="#ArialMT-41"/>
       <use xlink:href="#ArialMT-70" x="66.699219"/>
       <use xlink:href="#ArialMT-72" x="122.314453"/>
       <use xlink:href="#ArialMT-20" x="155.615234"/>
       <use xlink:href="#ArialMT-27" x="183.398438"/>
       <use xlink:href="#ArialMT-32" x="202.490234"/>
       <use xlink:href="#ArialMT-30" x="258.105469"/>
      </g>
     </g>
    </g>
    <g id="xtick_6">
     <g id="line2d_6">
      <path d="M 144.150779 148.616508 
L 217.967174 231.937994 
" clip-path="url(#p58e6040cbb)" style="fill: none; stroke: #b0b0b0; stroke-width: 0.8; stroke-linecap: square"/>
     </g>
     <g id="text_6">
      <!-- Aug '20 -->
      <g style="fill: #808080" transform="translate(213.810267 244.450269)scale(0.08 -0.08)">
       <use xlink:href="#ArialMT-41"/>
       <use xlink:href="#ArialMT-75" x="66.699219"/>
       <use xlink:href="#ArialMT-67" x="122.314453"/>
       <use xlink:href="#ArialMT-20" x="177.929688"/>
       <use xlink:href="#ArialMT-27" x="205.712891"/>
       <use xlink:href="#ArialMT-32" x="224.804688"/>
       <use xlink:href="#ArialMT-30" x="280.419922"/>
      </g>
     </g>
    </g>
    <g id="xtick_7">
     <g id="line2d_7">
      <path d="M 144.150779 148.616508 
L 170.790526 256.698209 
" clip-path="url(#p58e6040cbb)" style="fill: none; stroke: #b0b0b0; stroke-width: 0.8; stroke-linecap: square"/>
     </g>
     <g id="text_7">
      <!-- Jan '21 -->
      <g style="fill: #808080" transform="translate(161.368445 272.359519)scale(0.08 -0.08)">
       <use xlink:href="#ArialMT-4a"/>
       <use xlink:href="#ArialMT-61" x="50"/>
       <use xlink:href="#ArialMT-6e" x="105.615234"/>
       <use xlink:href="#ArialMT-20" x="161.230469"/>
       <use xlink:href="#ArialMT-27" x="189.013672"/>
       <use xlink:href="#ArialMT-32" x="208.105469"/>
       <use xlink:href="#ArialMT-31" x="263.720703"/>
      </g>
     </g>
    </g>
    <g id="xtick_8">
     <g id="line2d_8">
      <path d="M 144.150779 148.616508 
L 117.511033 256.698209 
" clip-path="url(#p58e6040cbb)" style="fill: none; stroke: #b0b0b0; stroke-width: 0.8; stroke-linecap: square"/>
     </g>
     <g id="text_8">
      <!-- Apr '21 -->
      <g style="fill: #808080" transform="translate(101.612488 272.371394)scale(0.08 -0.08)">
       <use xlink:href="#ArialMT-41"/>
       <use xlink:href="#ArialMT-70" x="66.699219"/>
       <use xlink:href="#ArialMT-72" x="122.314453"/>
       <use xlink:href="#ArialMT-20" x="155.615234"/>
       <use xlink:href="#ArialMT-27" x="183.398438"/>
       <use xlink:href="#ArialMT-32" x="202.490234"/>
       <use xlink:href="#ArialMT-31" x="258.105469"/>
      </g>
     </g>
    </g>
    <g id="xtick_9">
     <g id="line2d_9">
      <path d="M 144.150779 148.616508 
L 70.334384 231.937994 
" clip-path="url(#p58e6040cbb)" style="fill: none; stroke: #b0b0b0; stroke-width: 0.8; stroke-linecap: square"/>
     </g>
     <g id="text_9">
      <!-- Aug '21 -->
      <g style="fill: #808080" transform="translate(47.610042 244.450269)scale(0.08 -0.08)">
       <use xlink:href="#ArialMT-41"/>
       <use xlink:href="#ArialMT-75" x="66.699219"/>
       <use xlink:href="#ArialMT-67" x="122.314453"/>
       <use xlink:href="#ArialMT-20" x="177.929688"/>
       <use xlink:href="#ArialMT-27" x="205.712891"/>
       <use xlink:href="#ArialMT-32" x="224.804688"/>
       <use xlink:href="#ArialMT-31" x="280.419922"/>
      </g>
     </g>
    </g>
    <g id="xtick_10">
     <g id="line2d_10">
      <path d="M 144.150779 148.616508 
L 40.068182 188.08983 
" clip-path="url(#p58e6040cbb)" style="fill: none; stroke: #b0b0b0; stroke-width: 0.8; stroke-linecap: square"/>
     </g>
     <g id="text_10">
      <!-- Jan '22 -->
      <g style="fill: #808080" transform="translate(14.205455 195.122424)scale(0.08 -0.08)">
       <use xlink:href="#ArialMT-4a"/>
       <use xlink:href="#ArialMT-61" x="50"/>
       <use xlink:href="#ArialMT-6e" x="105.615234"/>
       <use xlink:href="#ArialMT-20" x="161.230469"/>
       <use xlink:href="#ArialMT-27" x="189.013672"/>
       <use xlink:href="#ArialMT-32" x="208.105469"/>
       <use xlink:href="#ArialMT-32" x="263.720703"/>
      </g>
     </g>
    </g>
    <g id="xtick_11">
     <g id="line2d_11">
      <path d="M 144.150779 148.616508 
L 33.646049 135.198804 
" clip-path="url(#p58e6040cbb)" style="fill: none; stroke: #b0b0b0; stroke-width: 0.8; stroke-linecap: square"/>
     </g>
     <g id="text_11">
      <!-- Apr '22 -->
      <g style="fill: #808080" transform="translate(7.2 135.591291)scale(0.08 -0.08)">
       <use xlink:href="#ArialMT-41"/>
       <use xlink:href="#ArialMT-70" x="66.699219"/>
       <use xlink:href="#ArialMT-72" x="122.314453"/>
       <use xlink:href="#ArialMT-20" x="155.615234"/>
       <use xlink:href="#ArialMT-27" x="183.398438"/>
       <use xlink:href="#ArialMT-32" x="202.490234"/>
       <use xlink:href="#ArialMT-32" x="258.105469"/>
      </g>
     </g>
    </g>
    <g id="xtick_12">
     <g id="line2d_12">
      <path d="M 144.150779 148.616508 
L 52.539218 85.381613 
" clip-path="url(#p58e6040cbb)" style="fill: none; stroke: #b0b0b0; stroke-width: 0.8; stroke-linecap: square"/>
     </g>
     <g id="text_12">
      <!-- Aug '22 -->
      <g style="fill: #808080" transform="translate(27.576819 79.461831)scale(0.08 -0.08)">
       <use xlink:href="#ArialMT-41"/>
       <use xlink:href="#ArialMT-75" x="66.699219"/>
       <use xlink:href="#ArialMT-67" x="122.314453"/>
       <use xlink:href="#ArialMT-20" x="177.929688"/>
       <use xlink:href="#ArialMT-27" x="205.712891"/>
       <use xlink:href="#ArialMT-32" x="224.804688"/>
       <use xlink:href="#ArialMT-32" x="280.419922"/>
      </g>
     </g>
    </g>
    <g id="xtick_13">
     <g id="line2d_13">
      <path d="M 144.150779 148.616508 
L 92.419491 50.050774 
" clip-path="url(#p58e6040cbb)" style="fill: none; stroke: #b0b0b0; stroke-width: 0.8; stroke-linecap: square"/>
     </g>
     <g id="text_13">
      <!-- Nov '22 -->
      <g style="fill: #808080" transform="translate(72.476492 39.722514)scale(0.08 -0.08)">
       <defs>
        <path id="ArialMT-4e" d="M 488 0 
L 488 4581 
L 1109 4581 
L 3516 984 
L 3516 4581 
L 4097 4581 
L 4097 0 
L 3475 0 
L 1069 3600 
L 1069 0 
L 488 0 
z
" transform="scale(0.015625)"/>
        <path id="ArialMT-6f" d="M 213 1659 
Q 213 2581 725 3025 
Q 1153 3394 1769 3394 
Q 2453 3394 2887 2945 
Q 3322 2497 3322 1706 
Q 3322 1066 3130 698 
Q 2938 331 2570 128 
Q 2203 -75 1769 -75 
Q 1072 -75 642 372 
Q 213 819 213 1659 
z
M 791 1659 
Q 791 1022 1069 705 
Q 1347 388 1769 388 
Q 2188 388 2466 706 
Q 2744 1025 2744 1678 
Q 2744 2294 2464 2611 
Q 2184 2928 1769 2928 
Q 1347 2928 1069 2612 
Q 791 2297 791 1659 
z
" transform="scale(0.015625)"/>
        <path id="ArialMT-76" d="M 1344 0 
L 81 3319 
L 675 3319 
L 1388 1331 
Q 1503 1009 1600 663 
Q 1675 925 1809 1294 
L 2547 3319 
L 3125 3319 
L 1869 0 
L 1344 0 
z
" transform="scale(0.015625)"/>
       </defs>
       <use xlink:href="#ArialMT-4e"/>
       <use xlink:href="#ArialMT-6f" x="72.216797"/>
       <use xlink:href="#ArialMT-76" x="127.832031"/>
       <use xlink:href="#ArialMT-20" x="177.832031"/>
       <use xlink:href="#ArialMT-27" x="205.615234"/>
       <use xlink:href="#ArialMT-32" x="224.707031"/>
       <use xlink:href="#ArialMT-32" x="280.322266"/>
      </g>
     </g>
    </g>
   </g>
   <g id="matplotlib.axis_2">
    <g id="ytick_1">
     <g id="line2d_14">
      <path d="M 144.150779 123.879541 
C 147.147918 123.879541 150.120256 124.424242 152.922629 125.487042 
C 155.725002 126.549842 158.311033 128.113152 160.554423 130.100622 
C 162.797813 132.088092 164.661436 134.466832 166.054276 137.120666 
C 167.447115 139.7745 168.346121 142.65951 168.707386 145.634796 
C 169.068651 148.610082 168.886197 151.626405 168.168935 154.536452 
C 167.451673 157.446498 166.211473 160.20211 164.508904 162.668707 
C 162.806336 165.135303 160.669575 167.272064 158.202978 168.974633 
C 155.736382 170.677201 152.98077 171.917402 150.070723 172.634664 
C 147.160676 173.351926 144.144353 173.53438 141.169068 173.173115 
C 138.193782 172.81185 135.308772 171.912844 132.654938 170.520004 
C 130.001104 169.127165 127.622364 167.263541 125.634894 165.020151 
C 123.647423 162.776761 122.084113 160.19073 121.021313 157.388357 
C 119.958514 154.585984 119.413812 151.613646 119.413812 148.616508 
C 119.413812 145.61937 119.958514 142.647031 121.021313 139.844659 
C 122.084113 137.042286 123.647423 134.456255 125.634894 132.212865 
C 127.622364 129.969474 130.001104 128.105851 132.654938 126.713011 
" clip-path="url(#p58e6040cbb)" style="fill: none; stroke: #b0b0b0; stroke-width: 0.8; stroke-linecap: square"/>
     </g>
     <g id="text_14">
      <!-- 0 -->
      <g transform="translate(132.702029 125.947666)scale(0.08 -0.08)">
       <use xlink:href="#ArialMT-30"/>
      </g>
     </g>
    </g>
    <g id="ytick_2">
     <g id="line2d_15">
      <path d="M 144.150779 99.142574 
C 150.145056 99.142574 156.089732 100.231976 161.694478 102.357576 
C 167.299224 104.483176 172.471286 107.609796 176.958066 111.584737 
C 181.444846 115.559677 185.172093 120.317156 187.957772 125.624824 
C 190.743452 130.932493 192.541463 136.702513 193.263993 142.653084 
C 193.986523 148.603656 193.621615 154.636302 192.187091 160.456395 
C 190.752567 166.276489 188.272166 171.787713 184.867029 176.720906 
C 181.461892 181.654099 177.18837 185.92762 172.255177 189.332757 
C 167.321984 192.737895 161.81076 195.218295 155.990667 196.652819 
C 150.170573 198.087344 144.137927 198.452252 138.187356 197.729721 
C 132.236784 197.007191 126.466764 195.20918 121.159096 192.423501 
C 115.851428 189.637822 111.093948 185.910575 107.119008 181.423795 
C 103.144067 176.937014 100.017447 171.764953 97.891847 166.160207 
C 95.766248 160.555461 94.676845 154.610784 94.676845 148.616508 
C 94.676845 142.622232 95.766248 136.677555 97.891847 131.072809 
C 100.017447 125.468063 103.144067 120.296002 107.119008 115.809221 
C 111.093948 111.322441 115.851428 107.595194 121.159096 104.809515 
" clip-path="url(#p58e6040cbb)" style="fill: none; stroke: #b0b0b0; stroke-width: 0.8; stroke-linecap: square"/>
     </g>
     <g id="text_15">
      <!-- 1 -->
      <g transform="translate(132.702029 101.210699)scale(0.08 -0.08)">
       <use xlink:href="#ArialMT-31"/>
      </g>
     </g>
    </g>
    <g id="ytick_3">
     <g id="line2d_16">
      <path d="M 144.150779 74.405607 
C 153.142194 74.405607 162.059209 76.03971 170.466328 79.22811 
C 178.873446 82.41651 186.631539 87.10644 193.361709 93.068851 
C 200.09188 99.031262 205.68275 106.16748 209.861269 114.128983 
C 214.039788 122.090485 216.736804 130.745515 217.8206 139.671372 
C 218.904395 148.597229 218.357033 157.646199 216.205247 166.376339 
C 214.05346 175.106479 210.332859 183.373316 205.225154 190.773105 
C 200.117448 198.172894 193.707165 204.583177 186.307376 209.690882 
C 178.907587 214.798588 170.640751 218.519189 161.910611 220.670975 
C 153.18047 222.822762 144.131501 223.370123 135.205644 222.286328 
C 126.279787 221.202533 117.624756 218.505516 109.663254 214.326998 
C 101.701752 210.148479 94.565533 204.557608 88.603122 197.827438 
C 82.640712 191.097268 77.950781 183.339175 74.762381 174.932056 
C 71.573982 166.524937 69.939878 157.607923 69.939878 148.616508 
C 69.939878 139.625093 71.573982 130.708078 74.762381 122.30096 
C 77.950781 113.893841 82.640712 106.135748 88.603122 99.405578 
C 94.565533 92.675407 101.701752 87.084537 109.663254 82.906018 
" clip-path="url(#p58e6040cbb)" style="fill: none; stroke: #b0b0b0; stroke-width: 0.8; stroke-linecap: square"/>
     </g>
     <g id="text_16">
      <!-- 2 -->
      <g transform="translate(132.702029 76.473732)scale(0.08 -0.08)">
       <use xlink:href="#ArialMT-32"/>
      </g>
     </g>
    </g>
    <g id="ytick_4">
     <g id="line2d_17">
      <path d="M 144.150779 49.66864 
C 156.139332 49.66864 168.028685 51.847445 179.238177 56.098644 
C 190.447669 60.349843 200.791792 66.603084 209.765353 74.552965 
C 218.738913 82.502846 226.193407 92.017805 231.764766 102.633141 
C 237.336124 113.248477 240.932146 124.788518 242.377206 136.68966 
C 243.822267 148.590803 243.092451 160.656096 240.223402 172.296283 
C 237.354354 183.93647 232.393553 194.958918 225.583278 204.825304 
C 218.773004 214.691689 210.225961 223.238733 200.359575 230.049007 
C 190.49319 236.859281 179.470741 241.820082 167.830554 244.689131 
C 156.190367 247.558179 144.125075 248.287995 132.223932 246.842935 
C 120.322789 245.397874 108.782749 241.801852 98.167412 236.230494 
C 87.552076 230.659136 78.037118 223.204642 70.087237 214.231081 
C 62.137356 205.257521 55.884115 194.913397 51.632915 183.703906 
C 47.381716 172.494414 45.202911 160.605061 45.202911 148.616508 
C 45.202911 136.627955 47.381716 124.738602 51.632915 113.52911 
C 55.884115 102.319619 62.137356 91.975495 70.087237 83.001935 
C 78.037118 74.028374 87.552076 66.57388 98.167412 61.002522 
" clip-path="url(#p58e6040cbb)" style="fill: none; stroke: #b0b0b0; stroke-width: 0.8; stroke-linecap: square"/>
     </g>
     <g id="text_17">
      <!-- 3 -->
      <g transform="translate(132.702029 51.736765)scale(0.08 -0.08)">
       <defs>
        <path id="ArialMT-33" d="M 269 1209 
L 831 1284 
Q 928 806 1161 595 
Q 1394 384 1728 384 
Q 2125 384 2398 659 
Q 2672 934 2672 1341 
Q 2672 1728 2419 1979 
Q 2166 2231 1775 2231 
Q 1616 2231 1378 2169 
L 1441 2663 
Q 1497 2656 1531 2656 
Q 1891 2656 2178 2843 
Q 2466 3031 2466 3422 
Q 2466 3731 2256 3934 
Q 2047 4138 1716 4138 
Q 1388 4138 1169 3931 
Q 950 3725 888 3313 
L 325 3413 
Q 428 3978 793 4289 
Q 1159 4600 1703 4600 
Q 2078 4600 2393 4439 
Q 2709 4278 2876 4000 
Q 3044 3722 3044 3409 
Q 3044 3113 2884 2869 
Q 2725 2625 2413 2481 
Q 2819 2388 3044 2092 
Q 3269 1797 3269 1353 
Q 3269 753 2831 336 
Q 2394 -81 1725 -81 
Q 1122 -81 723 278 
Q 325 638 269 1209 
z
" transform="scale(0.015625)"/>
       </defs>
       <use xlink:href="#ArialMT-33"/>
      </g>
     </g>
    </g>
   </g>
   <g id="line2d_18">
    <path d="M 144.150779 115.810904 
L 158.173804 121.897866 
L 167.856372 132.253719 
L 172.690345 145.151177 
L 169.471195 158.219275 
L 162.650644 169.498539 
L 151.993739 180.436645 
L 136.339562 180.307864 
L 116.437801 179.897994 
L 91.815547 168.464643 
L 84.263243 141.344845 
L 60.081607 90.587748 
L 114.307177 91.754274 
" clip-path="url(#p58e6040cbb)" style="fill: none; stroke: #000000; stroke-width: 2; stroke-linecap: square"/>
   </g>
   <g id="patch_3">
    <path d="M 92.419491 50.050774 
C 80.477238 56.318552 69.77291 64.704857 60.829294 74.800113 
C 51.885678 84.895369 44.850782 96.532508 40.068182 109.143186 
C 35.285583 121.753864 32.834428 135.129386 32.834428 148.616508 
C 32.834428 162.10363 35.285583 175.479152 40.068182 188.08983 
C 44.850782 200.700508 51.885678 212.337647 60.829294 222.432903 
C 69.77291 232.528159 80.477238 240.914464 92.419491 247.182242 
C 104.361745 253.45002 117.34429 257.495545 130.733076 259.121238 
C 144.121861 260.746931 157.695315 259.925888 170.790526 256.698209 
C 183.885737 253.470529 196.285991 247.889628 207.385675 240.228069 
C 218.485358 232.566511 228.100782 222.951087 235.762341 211.851403 
C 243.423899 200.751719 249.004801 188.351465 252.23248 175.256255 
C 255.46016 162.161044 256.281202 148.58759 254.65551 135.198804 
C 253.029817 121.810019 248.984292 108.827473 242.716514 96.88522 
C 236.448736 84.942967 228.06243 74.238638 217.967174 65.295022 
C 207.871919 56.351406 196.23478 49.31651 183.624102 44.533911 
C 171.013424 39.751312 157.637901 37.300156 144.150779 37.300156 
" style="fill: none; stroke: #000000; stroke-width: 0.8; stroke-linejoin: miter; stroke-linecap: square"/>
   </g>
   <g id="patch_4">
    <path d="M 144.150779 148.616508 
L 144.150779 37.300156 
" style="fill: none; stroke: #000000; stroke-width: 0.8; stroke-linejoin: miter; stroke-linecap: square"/>
   </g>
   <g id="patch_5">
    <path d="M 144.150779 148.616508 
L 92.419491 50.050774 
" style="fill: none; stroke: #000000; stroke-width: 0.8; stroke-linejoin: miter; stroke-linecap: square"/>
   </g>
   <g id="PathCollection_1">
    <defs>
     <path id="m5538041ec4" d="M 0 2.236068 
C 0.593012 2.236068 1.161816 2.000462 1.581139 1.581139 
C 2.000462 1.161816 2.236068 0.593012 2.236068 0 
C 2.236068 -0.593012 2.000462 -1.161816 1.581139 -1.581139 
C 1.161816 -2.000462 0.593012 -2.236068 0 -2.236068 
C -0.593012 -2.236068 -1.161816 -2.000462 -1.581139 -1.581139 
C -2.000462 -1.161816 -2.236068 -0.593012 -2.236068 0 
C -2.236068 0.593012 -2.000462 1.161816 -1.581139 1.581139 
C -1.161816 2.000462 -0.593012 2.236068 0 2.236068 
z
" style="stroke: #000000"/>
    </defs>
    <g>
     <use xlink:href="#m5538041ec4" x="144.150779" y="115.810904" style="stroke: #000000"/>
     <use xlink:href="#m5538041ec4" x="158.173804" y="121.897866" style="stroke: #000000"/>
     <use xlink:href="#m5538041ec4" x="167.856372" y="132.253719" style="stroke: #000000"/>
     <use xlink:href="#m5538041ec4" x="172.690345" y="145.151177" style="stroke: #000000"/>
     <use xlink:href="#m5538041ec4" x="169.471195" y="158.219275" style="stroke: #000000"/>
     <use xlink:href="#m5538041ec4" x="162.650644" y="169.498539" style="stroke: #000000"/>
     <use xlink:href="#m5538041ec4" x="151.993739" y="180.436645" style="stroke: #000000"/>
     <use xlink:href="#m5538041ec4" x="136.339562" y="180.307864" style="stroke: #000000"/>
     <use xlink:href="#m5538041ec4" x="116.437801" y="179.897994" style="stroke: #000000"/>
     <use xlink:href="#m5538041ec4" x="91.815547" y="168.464643" style="stroke: #000000"/>
     <use xlink:href="#m5538041ec4" x="84.263243" y="141.344845" style="stroke: #000000"/>
     <use xlink:href="#m5538041ec4" x="60.081607" y="90.587748" style="stroke: #000000"/>
     <use xlink:href="#m5538041ec4" x="114.307177" y="91.754274" style="stroke: #000000"/>
    </g>
   </g>
   <g id="text_18">
    <!-- a Ammonia -->
    <g transform="translate(120.471565 13.642031)scale(0.09 -0.09)">
     <defs>
      <path id="Arial-BoldMT-61" d="M 1116 2306 
L 319 2450 
Q 453 2931 781 3162 
Q 1109 3394 1756 3394 
Q 2344 3394 2631 3255 
Q 2919 3116 3036 2902 
Q 3153 2688 3153 2116 
L 3144 1091 
Q 3144 653 3186 445 
Q 3228 238 3344 0 
L 2475 0 
Q 2441 88 2391 259 
Q 2369 338 2359 363 
Q 2134 144 1878 34 
Q 1622 -75 1331 -75 
Q 819 -75 523 203 
Q 228 481 228 906 
Q 228 1188 362 1408 
Q 497 1628 739 1745 
Q 981 1863 1438 1950 
Q 2053 2066 2291 2166 
L 2291 2253 
Q 2291 2506 2166 2614 
Q 2041 2722 1694 2722 
Q 1459 2722 1328 2630 
Q 1197 2538 1116 2306 
z
M 2291 1594 
Q 2122 1538 1756 1459 
Q 1391 1381 1278 1306 
Q 1106 1184 1106 997 
Q 1106 813 1243 678 
Q 1381 544 1594 544 
Q 1831 544 2047 700 
Q 2206 819 2256 991 
Q 2291 1103 2291 1419 
L 2291 1594 
z
" transform="scale(0.015625)"/>
      <path id="Arial-BoldMT-20" transform="scale(0.015625)"/>
      <path id="Arial-BoldMT-41" d="M 4597 0 
L 3591 0 
L 3191 1041 
L 1359 1041 
L 981 0 
L 0 0 
L 1784 4581 
L 2763 4581 
L 4597 0 
z
M 2894 1813 
L 2263 3513 
L 1644 1813 
L 2894 1813 
z
" transform="scale(0.015625)"/>
      <path id="Arial-BoldMT-6d" d="M 394 3319 
L 1203 3319 
L 1203 2866 
Q 1638 3394 2238 3394 
Q 2556 3394 2790 3262 
Q 3025 3131 3175 2866 
Q 3394 3131 3647 3262 
Q 3900 3394 4188 3394 
Q 4553 3394 4806 3245 
Q 5059 3097 5184 2809 
Q 5275 2597 5275 2122 
L 5275 0 
L 4397 0 
L 4397 1897 
Q 4397 2391 4306 2534 
Q 4184 2722 3931 2722 
Q 3747 2722 3584 2609 
Q 3422 2497 3350 2280 
Q 3278 2063 3278 1594 
L 3278 0 
L 2400 0 
L 2400 1819 
Q 2400 2303 2353 2443 
Q 2306 2584 2207 2653 
Q 2109 2722 1941 2722 
Q 1738 2722 1575 2612 
Q 1413 2503 1342 2297 
Q 1272 2091 1272 1613 
L 1272 0 
L 394 0 
L 394 3319 
z
" transform="scale(0.015625)"/>
      <path id="Arial-BoldMT-6f" d="M 256 1706 
Q 256 2144 472 2553 
Q 688 2963 1083 3178 
Q 1478 3394 1966 3394 
Q 2719 3394 3200 2905 
Q 3681 2416 3681 1669 
Q 3681 916 3195 420 
Q 2709 -75 1972 -75 
Q 1516 -75 1102 131 
Q 688 338 472 736 
Q 256 1134 256 1706 
z
M 1156 1659 
Q 1156 1166 1390 903 
Q 1625 641 1969 641 
Q 2313 641 2545 903 
Q 2778 1166 2778 1666 
Q 2778 2153 2545 2415 
Q 2313 2678 1969 2678 
Q 1625 2678 1390 2415 
Q 1156 2153 1156 1659 
z
" transform="scale(0.015625)"/>
      <path id="Arial-BoldMT-6e" d="M 3478 0 
L 2600 0 
L 2600 1694 
Q 2600 2231 2544 2389 
Q 2488 2547 2361 2634 
Q 2234 2722 2056 2722 
Q 1828 2722 1647 2597 
Q 1466 2472 1398 2265 
Q 1331 2059 1331 1503 
L 1331 0 
L 453 0 
L 453 3319 
L 1269 3319 
L 1269 2831 
Q 1703 3394 2363 3394 
Q 2653 3394 2893 3289 
Q 3134 3184 3257 3021 
Q 3381 2859 3429 2653 
Q 3478 2447 3478 2063 
L 3478 0 
z
" transform="scale(0.015625)"/>
      <path id="Arial-BoldMT-69" d="M 459 3769 
L 459 4581 
L 1338 4581 
L 1338 3769 
L 459 3769 
z
M 459 0 
L 459 3319 
L 1338 3319 
L 1338 0 
L 459 0 
z
" transform="scale(0.015625)"/>
     </defs>
     <use xlink:href="#Arial-BoldMT-61"/>
     <use xlink:href="#Arial-BoldMT-20" x="55.615234"/>
     <use xlink:href="#Arial-BoldMT-41" x="79.648438"/>
     <use xlink:href="#Arial-BoldMT-6d" x="151.865234"/>
     <use xlink:href="#Arial-BoldMT-6d" x="240.78125"/>
     <use xlink:href="#Arial-BoldMT-6f" x="329.697266"/>
     <use xlink:href="#Arial-BoldMT-6e" x="390.78125"/>
     <use xlink:href="#Arial-BoldMT-69" x="451.865234"/>
     <use xlink:href="#Arial-BoldMT-61" x="479.648438"/>
    </g>
   </g>
   <g id="line2d_19">
    <path d="M 144.150779 112.251566 
L 160.272725 117.898707 
L 172.104354 129.321549 
L 177.682967 144.544963 
L 174.524313 160.13567 
L 166.251403 173.562955 
L 153.114854 184.985188 
L 135.198606 184.936902 
L 115.701262 180.729375 
L 94.161334 167.575004 
L 88.842752 141.900898 
L 74.392074 100.46555 
L 117.205112 97.275829 
" clip-path="url(#p58e6040cbb)" style="fill: none; stroke: #808080; stroke-width: 2; stroke-linecap: square"/>
   </g>
   <g id="PathCollection_2">
    <defs>
     <path id="m6ddd0a1047" d="M -2.236068 2.236068 
L 2.236068 2.236068 
L 2.236068 -2.236068 
L -2.236068 -2.236068 
z
" style="stroke: #808080"/>
    </defs>
    <g>
     <use xlink:href="#m6ddd0a1047" x="144.150779" y="112.251566" style="fill: #ffffff; stroke: #808080"/>
     <use xlink:href="#m6ddd0a1047" x="160.272725" y="117.898707" style="fill: #ffffff; stroke: #808080"/>
     <use xlink:href="#m6ddd0a1047" x="172.104354" y="129.321549" style="fill: #ffffff; stroke: #808080"/>
     <use xlink:href="#m6ddd0a1047" x="177.682967" y="144.544963" style="fill: #ffffff; stroke: #808080"/>
     <use xlink:href="#m6ddd0a1047" x="174.524313" y="160.13567" style="fill: #ffffff; stroke: #808080"/>
     <use xlink:href="#m6ddd0a1047" x="166.251403" y="173.562955" style="fill: #ffffff; stroke: #808080"/>
     <use xlink:href="#m6ddd0a1047" x="153.114854" y="184.985188" style="fill: #ffffff; stroke: #808080"/>
     <use xlink:href="#m6ddd0a1047" x="135.198606" y="184.936902" style="fill: #ffffff; stroke: #808080"/>
     <use xlink:href="#m6ddd0a1047" x="115.701262" y="180.729375" style="fill: #ffffff; stroke: #808080"/>
     <use xlink:href="#m6ddd0a1047" x="94.161334" y="167.575004" style="fill: #ffffff; stroke: #808080"/>
     <use xlink:href="#m6ddd0a1047" x="88.842752" y="141.900898" style="fill: #ffffff; stroke: #808080"/>
     <use xlink:href="#m6ddd0a1047" x="74.392074" y="100.46555" style="fill: #ffffff; stroke: #808080"/>
     <use xlink:href="#m6ddd0a1047" x="117.205112" y="97.275829" style="fill: #ffffff; stroke: #808080"/>
    </g>
   </g>
   <g id="PolyCollection_1">
    <defs>
     <path id="m5b0494a1b2" d="M 144.150779 -446.95218 
L 144.150779 -423.204692 
L 144.150779 -423.204692 
L 144.150779 -423.204692 
L 144.150779 -423.204692 
L 144.150779 -423.204692 
L 144.150779 -423.204692 
L 144.150779 -423.204692 
L 144.150779 -423.204692 
L 144.150779 -423.204692 
L 144.150779 -423.204692 
L 144.150779 -423.204692 
L 144.150779 -423.204692 
L 144.150779 -423.204692 
L 144.150779 -423.204692 
L 144.150779 -423.204692 
L 144.150779 -423.204692 
L 144.150779 -423.204692 
L 144.150779 -423.204692 
L 144.150779 -423.204692 
L 144.150779 -423.204692 
L 144.150779 -423.204692 
L 144.150779 -423.204692 
L 144.150779 -423.204692 
L 144.150779 -423.204692 
L 144.150779 -423.204692 
L 144.150779 -423.204692 
L 144.150779 -423.204692 
L 144.150779 -423.204692 
L 144.150779 -423.204692 
L 144.150779 -423.204692 
L 144.150779 -423.204692 
L 144.150779 -423.204692 
L 144.150779 -423.204692 
L 144.150779 -423.204692 
L 144.150779 -423.204692 
L 144.150779 -423.204692 
L 144.150779 -423.204692 
L 144.150779 -423.204692 
L 144.150779 -423.204692 
L 144.150779 -423.204692 
L 144.150779 -423.204692 
L 144.150779 -423.204692 
L 144.150779 -423.204692 
L 144.150779 -423.204692 
L 144.150779 -423.204692 
L 144.150779 -423.204692 
L 144.150779 -423.204692 
L 133.114771 -444.232049 
L 133.114771 -444.232049 
L 129.884659 -442.18945 
L 127.024033 -439.655156 
L 124.60698 -436.694803 
L 123.123423 -434.2407 
L 121.946492 -431.625667 
L 121.09335 -428.887838 
L 120.576437 -426.067135 
L 120.42255 -422.248477 
L 120.883212 -418.454584 
L 121.946492 -414.783717 
L 122.862891 -412.680006 
L 123.978049 -410.674561 
L 125.281555 -408.786107 
L 126.761238 -407.032276 
L 128.403282 -405.429442 
L 130.660668 -403.660892 
L 133.114771 -402.177335 
L 135.729804 -401.000405 
L 138.467633 -400.147263 
L 142.2399 -399.534209 
L 146.061658 -399.534209 
L 149.833925 -400.147263 
L 152.032757 -400.803406 
L 154.157997 -401.668704 
L 156.189803 -402.735077 
L 158.109203 -403.99257 
L 159.898277 -405.429442 
L 161.92603 -407.457194 
L 163.694579 -409.714581 
L 165.178136 -412.168684 
L 166.355067 -414.783717 
L 167.418347 -418.454584 
L 167.879009 -422.248477 
L 167.725122 -426.067135 
L 167.338803 -428.329025 
L 166.735983 -430.54307 
L 165.922291 -432.688598 
L 164.905325 -434.745578 
L 163.694579 -436.694803 
L 161.92603 -438.95219 
L 159.898277 -440.979942 
L 157.64089 -442.748492 
L 155.186788 -444.232049 
L 151.670849 -445.73005 
L 147.960144 -446.644657 
L 144.150779 -446.95218 
z
" style="stroke: #ffffff"/>
    </defs>
    <g>
     <use xlink:href="#m5b0494a1b2" x="0" y="571.8212" style="fill: #ffffff; stroke: #ffffff"/>
    </g>
   </g>
  </g>
  <g id="axes_2">
   <g id="patch_6">
    <path d="M 92.419491 325.450774 
C 80.477238 331.718552 69.77291 340.104857 60.829294 350.200113 
C 51.885678 360.295369 44.850782 371.932508 40.068182 384.543186 
C 35.285583 397.153864 32.834428 410.529386 32.834428 424.016508 
C 32.834428 437.50363 35.285583 450.879152 40.068182 463.48983 
C 44.850782 476.100508 51.885678 487.737647 60.829294 497.832903 
C 69.77291 507.928159 80.477238 516.314464 92.419491 522.582242 
C 104.361745 528.85002 117.34429 532.895545 130.733076 534.521238 
C 144.121861 536.146931 157.695315 535.325888 170.790526 532.098209 
C 183.885737 528.870529 196.285991 523.289628 207.385675 515.628069 
C 218.485358 507.966511 228.100782 498.351087 235.762341 487.251403 
C 243.423899 476.151719 249.004801 463.751465 252.23248 450.656255 
C 255.46016 437.561044 256.281202 423.98759 254.65551 410.598804 
C 253.029817 397.210019 248.984292 384.227473 242.716514 372.28522 
C 236.448736 360.342967 228.06243 349.638638 217.967174 340.695022 
C 207.871919 331.751406 196.23478 324.71651 183.624102 319.933911 
C 171.013424 315.151312 157.637901 312.700156 144.150779 312.700156 
L 144.150779 424.016508 
C 144.150779 424.016508 144.150779 424.016508 144.150779 424.016508 
C 144.150779 424.016508 144.150779 424.016508 144.150779 424.016508 
C 144.150779 424.016508 144.150779 424.016508 144.150779 424.016508 
C 144.150779 424.016508 144.150779 424.016508 144.150779 424.016508 
C 144.150779 424.016508 144.150779 424.016508 144.150779 424.016508 
C 144.150779 424.016508 144.150779 424.016508 144.150779 424.016508 
C 144.150779 424.016508 144.150779 424.016508 144.150779 424.016508 
C 144.150779 424.016508 144.150779 424.016508 144.150779 424.016508 
C 144.150779 424.016508 144.150779 424.016508 144.150779 424.016508 
C 144.150779 424.016508 144.150779 424.016508 144.150779 424.016508 
C 144.150779 424.016508 144.150779 424.016508 144.150779 424.016508 
C 144.150779 424.016508 144.150779 424.016508 144.150779 424.016508 
C 144.150779 424.016508 144.150779 424.016508 144.150779 424.016508 
C 144.150779 424.016508 144.150779 424.016508 144.150779 424.016508 
C 144.150779 424.016508 144.150779 424.016508 144.150779 424.016508 
C 144.150779 424.016508 144.150779 424.016508 144.150779 424.016508 
L 92.419491 325.450774 
z
" style="fill: #808080; opacity: 0.05"/>
   </g>
   <g id="matplotlib.axis_3">
    <g id="xtick_14">
     <g id="line2d_20">
      <path d="M 144.150779 424.016508 
L 144.150779 312.700156 
" clip-path="url(#p89dcae2c01)" style="fill: none; stroke: #b0b0b0; stroke-width: 0.8; stroke-linecap: square"/>
     </g>
     <g id="text_19">
      <!-- Jan '19 -->
      <g style="fill: #808080" transform="translate(131.378279 300.768281)scale(0.08 -0.08)">
       <use xlink:href="#ArialMT-4a"/>
       <use xlink:href="#ArialMT-61" x="50"/>
       <use xlink:href="#ArialMT-6e" x="105.615234"/>
       <use xlink:href="#ArialMT-20" x="161.230469"/>
       <use xlink:href="#ArialMT-27" x="189.013672"/>
       <use xlink:href="#ArialMT-31" x="208.105469"/>
       <use xlink:href="#ArialMT-39" x="263.720703"/>
      </g>
     </g>
    </g>
    <g id="xtick_15">
     <g id="line2d_21">
      <path d="M 144.150779 424.016508 
L 195.882067 325.450774 
" clip-path="url(#p89dcae2c01)" style="fill: none; stroke: #b0b0b0; stroke-width: 0.8; stroke-linecap: square"/>
     </g>
     <g id="text_20">
      <!-- Apr '19 -->
      <g style="fill: #808080" transform="translate(189.840067 315.134389)scale(0.08 -0.08)">
       <use xlink:href="#ArialMT-41"/>
       <use xlink:href="#ArialMT-70" x="66.699219"/>
       <use xlink:href="#ArialMT-72" x="122.314453"/>
       <use xlink:href="#ArialMT-20" x="155.615234"/>
       <use xlink:href="#ArialMT-27" x="183.398438"/>
       <use xlink:href="#ArialMT-31" x="202.490234"/>
       <use xlink:href="#ArialMT-39" x="258.105469"/>
      </g>
     </g>
    </g>
    <g id="xtick_16">
     <g id="line2d_22">
      <path d="M 144.150779 424.016508 
L 235.762341 360.781613 
" clip-path="url(#p89dcae2c01)" style="fill: none; stroke: #b0b0b0; stroke-width: 0.8; stroke-linecap: square"/>
     </g>
     <g id="text_21">
      <!-- Aug '19 -->
      <g style="fill: #808080" transform="translate(233.84349 354.861831)scale(0.08 -0.08)">
       <use xlink:href="#ArialMT-41"/>
       <use xlink:href="#ArialMT-75" x="66.699219"/>
       <use xlink:href="#ArialMT-67" x="122.314453"/>
       <use xlink:href="#ArialMT-20" x="177.929688"/>
       <use xlink:href="#ArialMT-27" x="205.712891"/>
       <use xlink:href="#ArialMT-31" x="224.804688"/>
       <use xlink:href="#ArialMT-39" x="280.419922"/>
      </g>
     </g>
    </g>
    <g id="xtick_17">
     <g id="line2d_23">
      <path d="M 144.150779 424.016508 
L 254.65551 410.598804 
" clip-path="url(#p89dcae2c01)" style="fill: none; stroke: #b0b0b0; stroke-width: 0.8; stroke-linecap: square"/>
     </g>
     <g id="text_22">
      <!-- Jan '20 -->
      <g style="fill: #808080" transform="translate(255.780934 410.979416)scale(0.08 -0.08)">
       <use xlink:href="#ArialMT-4a"/>
       <use xlink:href="#ArialMT-61" x="50"/>
       <use xlink:href="#ArialMT-6e" x="105.615234"/>
       <use xlink:href="#ArialMT-20" x="161.230469"/>
       <use xlink:href="#ArialMT-27" x="189.013672"/>
       <use xlink:href="#ArialMT-32" x="208.105469"/>
       <use xlink:href="#ArialMT-30" x="263.720703"/>
      </g>
     </g>
    </g>
    <g id="xtick_18">
     <g id="line2d_24">
      <path d="M 144.150779 424.016508 
L 248.233376 463.48983 
" clip-path="url(#p89dcae2c01)" style="fill: none; stroke: #b0b0b0; stroke-width: 0.8; stroke-linecap: square"/>
     </g>
     <g id="text_23">
      <!-- Apr '20 -->
      <g style="fill: #808080" transform="translate(248.775479 470.534299)scale(0.08 -0.08)">
       <use xlink:href="#ArialMT-41"/>
       <use xlink:href="#ArialMT-70" x="66.699219"/>
       <use xlink:href="#ArialMT-72" x="122.314453"/>
       <use xlink:href="#ArialMT-20" x="155.615234"/>
       <use xlink:href="#ArialMT-27" x="183.398438"/>
       <use xlink:href="#ArialMT-32" x="202.490234"/>
       <use xlink:href="#ArialMT-30" x="258.105469"/>
      </g>
     </g>
    </g>
    <g id="xtick_19">
     <g id="line2d_25">
      <path d="M 144.150779 424.016508 
L 217.967174 507.337994 
" clip-path="url(#p89dcae2c01)" style="fill: none; stroke: #b0b0b0; stroke-width: 0.8; stroke-linecap: square"/>
     </g>
     <g id="text_24">
      <!-- Aug '20 -->
      <g style="fill: #808080" transform="translate(213.810267 519.850269)scale(0.08 -0.08)">
       <use xlink:href="#ArialMT-41"/>
       <use xlink:href="#ArialMT-75" x="66.699219"/>
       <use xlink:href="#ArialMT-67" x="122.314453"/>
       <use xlink:href="#ArialMT-20" x="177.929688"/>
       <use xlink:href="#ArialMT-27" x="205.712891"/>
       <use xlink:href="#ArialMT-32" x="224.804688"/>
       <use xlink:href="#ArialMT-30" x="280.419922"/>
      </g>
     </g>
    </g>
    <g id="xtick_20">
     <g id="line2d_26">
      <path d="M 144.150779 424.016508 
L 170.790526 532.098209 
" clip-path="url(#p89dcae2c01)" style="fill: none; stroke: #b0b0b0; stroke-width: 0.8; stroke-linecap: square"/>
     </g>
     <g id="text_25">
      <!-- Jan '21 -->
      <g style="fill: #808080" transform="translate(161.368445 547.759519)scale(0.08 -0.08)">
       <use xlink:href="#ArialMT-4a"/>
       <use xlink:href="#ArialMT-61" x="50"/>
       <use xlink:href="#ArialMT-6e" x="105.615234"/>
       <use xlink:href="#ArialMT-20" x="161.230469"/>
       <use xlink:href="#ArialMT-27" x="189.013672"/>
       <use xlink:href="#ArialMT-32" x="208.105469"/>
       <use xlink:href="#ArialMT-31" x="263.720703"/>
      </g>
     </g>
    </g>
    <g id="xtick_21">
     <g id="line2d_27">
      <path d="M 144.150779 424.016508 
L 117.511033 532.098209 
" clip-path="url(#p89dcae2c01)" style="fill: none; stroke: #b0b0b0; stroke-width: 0.8; stroke-linecap: square"/>
     </g>
     <g id="text_26">
      <!-- Apr '21 -->
      <g style="fill: #808080" transform="translate(101.612488 547.771394)scale(0.08 -0.08)">
       <use xlink:href="#ArialMT-41"/>
       <use xlink:href="#ArialMT-70" x="66.699219"/>
       <use xlink:href="#ArialMT-72" x="122.314453"/>
       <use xlink:href="#ArialMT-20" x="155.615234"/>
       <use xlink:href="#ArialMT-27" x="183.398438"/>
       <use xlink:href="#ArialMT-32" x="202.490234"/>
       <use xlink:href="#ArialMT-31" x="258.105469"/>
      </g>
     </g>
    </g>
    <g id="xtick_22">
     <g id="line2d_28">
      <path d="M 144.150779 424.016508 
L 70.334384 507.337994 
" clip-path="url(#p89dcae2c01)" style="fill: none; stroke: #b0b0b0; stroke-width: 0.8; stroke-linecap: square"/>
     </g>
     <g id="text_27">
      <!-- Aug '21 -->
      <g style="fill: #808080" transform="translate(47.610042 519.850269)scale(0.08 -0.08)">
       <use xlink:href="#ArialMT-41"/>
       <use xlink:href="#ArialMT-75" x="66.699219"/>
       <use xlink:href="#ArialMT-67" x="122.314453"/>
       <use xlink:href="#ArialMT-20" x="177.929688"/>
       <use xlink:href="#ArialMT-27" x="205.712891"/>
       <use xlink:href="#ArialMT-32" x="224.804688"/>
       <use xlink:href="#ArialMT-31" x="280.419922"/>
      </g>
     </g>
    </g>
    <g id="xtick_23">
     <g id="line2d_29">
      <path d="M 144.150779 424.016508 
L 40.068182 463.48983 
" clip-path="url(#p89dcae2c01)" style="fill: none; stroke: #b0b0b0; stroke-width: 0.8; stroke-linecap: square"/>
     </g>
     <g id="text_28">
      <!-- Jan '22 -->
      <g style="fill: #808080" transform="translate(14.205455 470.522424)scale(0.08 -0.08)">
       <use xlink:href="#ArialMT-4a"/>
       <use xlink:href="#ArialMT-61" x="50"/>
       <use xlink:href="#ArialMT-6e" x="105.615234"/>
       <use xlink:href="#ArialMT-20" x="161.230469"/>
       <use xlink:href="#ArialMT-27" x="189.013672"/>
       <use xlink:href="#ArialMT-32" x="208.105469"/>
       <use xlink:href="#ArialMT-32" x="263.720703"/>
      </g>
     </g>
    </g>
    <g id="xtick_24">
     <g id="line2d_30">
      <path d="M 144.150779 424.016508 
L 33.646049 410.598804 
" clip-path="url(#p89dcae2c01)" style="fill: none; stroke: #b0b0b0; stroke-width: 0.8; stroke-linecap: square"/>
     </g>
     <g id="text_29">
      <!-- Apr '22 -->
      <g style="fill: #808080" transform="translate(7.2 410.991291)scale(0.08 -0.08)">
       <use xlink:href="#ArialMT-41"/>
       <use xlink:href="#ArialMT-70" x="66.699219"/>
       <use xlink:href="#ArialMT-72" x="122.314453"/>
       <use xlink:href="#ArialMT-20" x="155.615234"/>
       <use xlink:href="#ArialMT-27" x="183.398438"/>
       <use xlink:href="#ArialMT-32" x="202.490234"/>
       <use xlink:href="#ArialMT-32" x="258.105469"/>
      </g>
     </g>
    </g>
    <g id="xtick_25">
     <g id="line2d_31">
      <path d="M 144.150779 424.016508 
L 52.539218 360.781613 
" clip-path="url(#p89dcae2c01)" style="fill: none; stroke: #b0b0b0; stroke-width: 0.8; stroke-linecap: square"/>
     </g>
     <g id="text_30">
      <!-- Aug '22 -->
      <g style="fill: #808080" transform="translate(27.576819 354.861831)scale(0.08 -0.08)">
       <use xlink:href="#ArialMT-41"/>
       <use xlink:href="#ArialMT-75" x="66.699219"/>
       <use xlink:href="#ArialMT-67" x="122.314453"/>
       <use xlink:href="#ArialMT-20" x="177.929688"/>
       <use xlink:href="#ArialMT-27" x="205.712891"/>
       <use xlink:href="#ArialMT-32" x="224.804688"/>
       <use xlink:href="#ArialMT-32" x="280.419922"/>
      </g>
     </g>
    </g>
    <g id="xtick_26">
     <g id="line2d_32">
      <path d="M 144.150779 424.016508 
L 92.419491 325.450774 
" clip-path="url(#p89dcae2c01)" style="fill: none; stroke: #b0b0b0; stroke-width: 0.8; stroke-linecap: square"/>
     </g>
     <g id="text_31">
      <!-- Nov '22 -->
      <g style="fill: #808080" transform="translate(72.476492 315.122514)scale(0.08 -0.08)">
       <use xlink:href="#ArialMT-4e"/>
       <use xlink:href="#ArialMT-6f" x="72.216797"/>
       <use xlink:href="#ArialMT-76" x="127.832031"/>
       <use xlink:href="#ArialMT-20" x="177.832031"/>
       <use xlink:href="#ArialMT-27" x="205.615234"/>
       <use xlink:href="#ArialMT-32" x="224.707031"/>
       <use xlink:href="#ArialMT-32" x="280.322266"/>
      </g>
     </g>
    </g>
   </g>
   <g id="matplotlib.axis_4">
    <g id="ytick_5">
     <g id="line2d_33">
      <path d="M 144.150779 399.279541 
C 147.147918 399.279541 150.120256 399.824242 152.922629 400.887042 
C 155.725002 401.949842 158.311033 403.513152 160.554423 405.500622 
C 162.797813 407.488092 164.661436 409.866832 166.054276 412.520666 
C 167.447115 415.1745 168.346121 418.05951 168.707386 421.034796 
C 169.068651 424.010082 168.886197 427.026405 168.168935 429.936452 
C 167.451673 432.846498 166.211473 435.60211 164.508904 438.068707 
C 162.806336 440.535303 160.669575 442.672064 158.202978 444.374633 
C 155.736382 446.077201 152.98077 447.317402 150.070723 448.034664 
C 147.160676 448.751926 144.144353 448.93438 141.169068 448.573115 
C 138.193782 448.21185 135.308772 447.312844 132.654938 445.920004 
C 130.001104 444.527165 127.622364 442.663541 125.634894 440.420151 
C 123.647423 438.176761 122.084113 435.59073 121.021313 432.788357 
C 119.958514 429.985984 119.413812 427.013646 119.413812 424.016508 
C 119.413812 421.01937 119.958514 418.047031 121.021313 415.244659 
C 122.084113 412.442286 123.647423 409.856255 125.634894 407.612865 
C 127.622364 405.369474 130.001104 403.505851 132.654938 402.113011 
" clip-path="url(#p89dcae2c01)" style="fill: none; stroke: #b0b0b0; stroke-width: 0.8; stroke-linecap: square"/>
     </g>
     <g id="text_32">
      <!-- 0 -->
      <g transform="translate(132.702029 401.347666)scale(0.08 -0.08)">
       <use xlink:href="#ArialMT-30"/>
      </g>
     </g>
    </g>
    <g id="ytick_6">
     <g id="line2d_34">
      <path d="M 144.150779 374.542574 
C 150.145056 374.542574 156.089732 375.631976 161.694478 377.757576 
C 167.299224 379.883176 172.471286 383.009796 176.958066 386.984737 
C 181.444846 390.959677 185.172093 395.717156 187.957772 401.024824 
C 190.743452 406.332493 192.541463 412.102513 193.263993 418.053084 
C 193.986523 424.003656 193.621615 430.036302 192.187091 435.856395 
C 190.752567 441.676489 188.272166 447.187713 184.867029 452.120906 
C 181.461892 457.054099 177.18837 461.32762 172.255177 464.732757 
C 167.321984 468.137895 161.81076 470.618295 155.990667 472.052819 
C 150.170573 473.487344 144.137927 473.852252 138.187356 473.129721 
C 132.236784 472.407191 126.466764 470.60918 121.159096 467.823501 
C 115.851428 465.037822 111.093948 461.310575 107.119008 456.823795 
C 103.144067 452.337014 100.017447 447.164953 97.891847 441.560207 
C 95.766248 435.955461 94.676845 430.010784 94.676845 424.016508 
C 94.676845 418.022232 95.766248 412.077555 97.891847 406.472809 
C 100.017447 400.868063 103.144067 395.696002 107.119008 391.209221 
C 111.093948 386.722441 115.851428 382.995194 121.159096 380.209515 
" clip-path="url(#p89dcae2c01)" style="fill: none; stroke: #b0b0b0; stroke-width: 0.8; stroke-linecap: square"/>
     </g>
     <g id="text_33">
      <!-- 1 -->
      <g transform="translate(132.702029 376.610699)scale(0.08 -0.08)">
       <use xlink:href="#ArialMT-31"/>
      </g>
     </g>
    </g>
    <g id="ytick_7">
     <g id="line2d_35">
      <path d="M 144.150779 349.805607 
C 153.142194 349.805607 162.059209 351.43971 170.466328 354.62811 
C 178.873446 357.81651 186.631539 362.50644 193.361709 368.468851 
C 200.09188 374.431262 205.68275 381.56748 209.861269 389.528983 
C 214.039788 397.490485 216.736804 406.145515 217.8206 415.071372 
C 218.904395 423.997229 218.357033 433.046199 216.205247 441.776339 
C 214.05346 450.506479 210.332859 458.773316 205.225154 466.173105 
C 200.117448 473.572894 193.707165 479.983177 186.307376 485.090882 
C 178.907587 490.198588 170.640751 493.919189 161.910611 496.070975 
C 153.18047 498.222762 144.131501 498.770123 135.205644 497.686328 
C 126.279787 496.602533 117.624756 493.905516 109.663254 489.726998 
C 101.701752 485.548479 94.565533 479.957608 88.603122 473.227438 
C 82.640712 466.497268 77.950781 458.739175 74.762381 450.332056 
C 71.573982 441.924937 69.939878 433.007923 69.939878 424.016508 
C 69.939878 415.025093 71.573982 406.108078 74.762381 397.70096 
C 77.950781 389.293841 82.640712 381.535748 88.603122 374.805578 
C 94.565533 368.075407 101.701752 362.484537 109.663254 358.306018 
" clip-path="url(#p89dcae2c01)" style="fill: none; stroke: #b0b0b0; stroke-width: 0.8; stroke-linecap: square"/>
     </g>
     <g id="text_34">
      <!-- 2 -->
      <g transform="translate(132.702029 351.873732)scale(0.08 -0.08)">
       <use xlink:href="#ArialMT-32"/>
      </g>
     </g>
    </g>
    <g id="ytick_8">
     <g id="line2d_36">
      <path d="M 144.150779 325.06864 
C 156.139332 325.06864 168.028685 327.247445 179.238177 331.498644 
C 190.447669 335.749843 200.791792 342.003084 209.765353 349.952965 
C 218.738913 357.902846 226.193407 367.417805 231.764766 378.033141 
C 237.336124 388.648477 240.932146 400.188518 242.377206 412.08966 
C 243.822267 423.990803 243.092451 436.056096 240.223402 447.696283 
C 237.354354 459.33647 232.393553 470.358918 225.583278 480.225304 
C 218.773004 490.091689 210.225961 498.638733 200.359575 505.449007 
C 190.49319 512.259281 179.470741 517.220082 167.830554 520.089131 
C 156.190367 522.958179 144.125075 523.687995 132.223932 522.242935 
C 120.322789 520.797874 108.782749 517.201852 98.167412 511.630494 
C 87.552076 506.059136 78.037118 498.604642 70.087237 489.631081 
C 62.137356 480.657521 55.884115 470.313397 51.632915 459.103906 
C 47.381716 447.894414 45.202911 436.005061 45.202911 424.016508 
C 45.202911 412.027955 47.381716 400.138602 51.632915 388.92911 
C 55.884115 377.719619 62.137356 367.375495 70.087237 358.401935 
C 78.037118 349.428374 87.552076 341.97388 98.167412 336.402522 
" clip-path="url(#p89dcae2c01)" style="fill: none; stroke: #b0b0b0; stroke-width: 0.8; stroke-linecap: square"/>
     </g>
     <g id="text_35">
      <!-- 3 -->
      <g transform="translate(132.702029 327.136765)scale(0.08 -0.08)">
       <use xlink:href="#ArialMT-33"/>
      </g>
     </g>
    </g>
   </g>
   <g id="line2d_37">
    <path d="M 144.150779 391.210904 
L 158.173804 397.297866 
L 167.856372 407.653719 
L 172.690345 420.551177 
L 169.471195 433.619275 
L 162.650644 444.898539 
L 151.993739 455.836645 
L 136.339562 455.707864 
L 116.437801 455.297994 
L 91.815547 443.864643 
L 84.263243 416.744845 
L 60.081607 365.987748 
L 114.307177 367.154274 
" clip-path="url(#p89dcae2c01)" style="fill: none; stroke: #000000; stroke-width: 2; stroke-linecap: square"/>
   </g>
   <g id="patch_7">
    <path d="M 92.419491 325.450774 
C 80.477238 331.718552 69.77291 340.104857 60.829294 350.200113 
C 51.885678 360.295369 44.850782 371.932508 40.068182 384.543186 
C 35.285583 397.153864 32.834428 410.529386 32.834428 424.016508 
C 32.834428 437.50363 35.285583 450.879152 40.068182 463.48983 
C 44.850782 476.100508 51.885678 487.737647 60.829294 497.832903 
C 69.77291 507.928159 80.477238 516.314464 92.419491 522.582242 
C 104.361745 528.85002 117.34429 532.895545 130.733076 534.521238 
C 144.121861 536.146931 157.695315 535.325888 170.790526 532.098209 
C 183.885737 528.870529 196.285991 523.289628 207.385675 515.628069 
C 218.485358 507.966511 228.100782 498.351087 235.762341 487.251403 
C 243.423899 476.151719 249.004801 463.751465 252.23248 450.656255 
C 255.46016 437.561044 256.281202 423.98759 254.65551 410.598804 
C 253.029817 397.210019 248.984292 384.227473 242.716514 372.28522 
C 236.448736 360.342967 228.06243 349.638638 217.967174 340.695022 
C 207.871919 331.751406 196.23478 324.71651 183.624102 319.933911 
C 171.013424 315.151312 157.637901 312.700156 144.150779 312.700156 
" style="fill: none; stroke: #000000; stroke-width: 0.8; stroke-linejoin: miter; stroke-linecap: square"/>
   </g>
   <g id="patch_8">
    <path d="M 144.150779 424.016508 
L 144.150779 312.700156 
" style="fill: none; stroke: #000000; stroke-width: 0.8; stroke-linejoin: miter; stroke-linecap: square"/>
   </g>
   <g id="patch_9">
    <path d="M 144.150779 424.016508 
L 92.419491 325.450774 
" style="fill: none; stroke: #000000; stroke-width: 0.8; stroke-linejoin: miter; stroke-linecap: square"/>
   </g>
   <g id="PathCollection_3">
    <g>
     <use xlink:href="#m5538041ec4" x="144.150779" y="391.210904" style="stroke: #000000"/>
     <use xlink:href="#m5538041ec4" x="158.173804" y="397.297866" style="stroke: #000000"/>
     <use xlink:href="#m5538041ec4" x="167.856372" y="407.653719" style="stroke: #000000"/>
     <use xlink:href="#m5538041ec4" x="172.690345" y="420.551177" style="stroke: #000000"/>
     <use xlink:href="#m5538041ec4" x="169.471195" y="433.619275" style="stroke: #000000"/>
     <use xlink:href="#m5538041ec4" x="162.650644" y="444.898539" style="stroke: #000000"/>
     <use xlink:href="#m5538041ec4" x="151.993739" y="455.836645" style="stroke: #000000"/>
     <use xlink:href="#m5538041ec4" x="136.339562" y="455.707864" style="stroke: #000000"/>
     <use xlink:href="#m5538041ec4" x="116.437801" y="455.297994" style="stroke: #000000"/>
     <use xlink:href="#m5538041ec4" x="91.815547" y="443.864643" style="stroke: #000000"/>
     <use xlink:href="#m5538041ec4" x="84.263243" y="416.744845" style="stroke: #000000"/>
     <use xlink:href="#m5538041ec4" x="60.081607" y="365.987748" style="stroke: #000000"/>
     <use xlink:href="#m5538041ec4" x="114.307177" y="367.154274" style="stroke: #000000"/>
    </g>
   </g>
   <g id="text_36">
    <!-- b Methanol -->
    <g transform="translate(120.811878 289.042031)scale(0.09 -0.09)">
     <defs>
      <path id="Arial-BoldMT-62" d="M 422 0 
L 422 4581 
L 1300 4581 
L 1300 2931 
Q 1706 3394 2263 3394 
Q 2869 3394 3266 2955 
Q 3663 2516 3663 1694 
Q 3663 844 3258 384 
Q 2853 -75 2275 -75 
Q 1991 -75 1714 67 
Q 1438 209 1238 488 
L 1238 0 
L 422 0 
z
M 1294 1731 
Q 1294 1216 1456 969 
Q 1684 619 2063 619 
Q 2353 619 2558 867 
Q 2763 1116 2763 1650 
Q 2763 2219 2556 2470 
Q 2350 2722 2028 2722 
Q 1713 2722 1503 2476 
Q 1294 2231 1294 1731 
z
" transform="scale(0.015625)"/>
      <path id="Arial-BoldMT-4d" d="M 453 0 
L 453 4581 
L 1838 4581 
L 2669 1456 
L 3491 4581 
L 4878 4581 
L 4878 0 
L 4019 0 
L 4019 3606 
L 3109 0 
L 2219 0 
L 1313 3606 
L 1313 0 
L 453 0 
z
" transform="scale(0.015625)"/>
      <path id="Arial-BoldMT-65" d="M 2381 1056 
L 3256 909 
Q 3088 428 2723 176 
Q 2359 -75 1813 -75 
Q 947 -75 531 491 
Q 203 944 203 1634 
Q 203 2459 634 2926 
Q 1066 3394 1725 3394 
Q 2466 3394 2894 2905 
Q 3322 2416 3303 1406 
L 1103 1406 
Q 1113 1016 1316 798 
Q 1519 581 1822 581 
Q 2028 581 2168 693 
Q 2309 806 2381 1056 
z
M 2431 1944 
Q 2422 2325 2234 2523 
Q 2047 2722 1778 2722 
Q 1491 2722 1303 2513 
Q 1116 2303 1119 1944 
L 2431 1944 
z
" transform="scale(0.015625)"/>
      <path id="Arial-BoldMT-74" d="M 1981 3319 
L 1981 2619 
L 1381 2619 
L 1381 1281 
Q 1381 875 1398 808 
Q 1416 741 1477 697 
Q 1538 653 1625 653 
Q 1747 653 1978 738 
L 2053 56 
Q 1747 -75 1359 -75 
Q 1122 -75 931 4 
Q 741 84 652 211 
Q 563 338 528 553 
Q 500 706 500 1172 
L 500 2619 
L 97 2619 
L 97 3319 
L 500 3319 
L 500 3978 
L 1381 4491 
L 1381 3319 
L 1981 3319 
z
" transform="scale(0.015625)"/>
      <path id="Arial-BoldMT-68" d="M 1334 4581 
L 1334 2897 
Q 1759 3394 2350 3394 
Q 2653 3394 2897 3281 
Q 3141 3169 3264 2994 
Q 3388 2819 3433 2606 
Q 3478 2394 3478 1947 
L 3478 0 
L 2600 0 
L 2600 1753 
Q 2600 2275 2550 2415 
Q 2500 2556 2373 2639 
Q 2247 2722 2056 2722 
Q 1838 2722 1666 2615 
Q 1494 2509 1414 2295 
Q 1334 2081 1334 1663 
L 1334 0 
L 456 0 
L 456 4581 
L 1334 4581 
z
" transform="scale(0.015625)"/>
      <path id="Arial-BoldMT-6c" d="M 459 0 
L 459 4581 
L 1338 4581 
L 1338 0 
L 459 0 
z
" transform="scale(0.015625)"/>
     </defs>
     <use xlink:href="#Arial-BoldMT-62"/>
     <use xlink:href="#Arial-BoldMT-20" x="61.083984"/>
     <use xlink:href="#Arial-BoldMT-4d" x="88.867188"/>
     <use xlink:href="#Arial-BoldMT-65" x="172.167969"/>
     <use xlink:href="#Arial-BoldMT-74" x="227.783203"/>
     <use xlink:href="#Arial-BoldMT-68" x="261.083984"/>
     <use xlink:href="#Arial-BoldMT-61" x="322.167969"/>
     <use xlink:href="#Arial-BoldMT-6e" x="377.783203"/>
     <use xlink:href="#Arial-BoldMT-6f" x="438.867188"/>
     <use xlink:href="#Arial-BoldMT-6c" x="499.951172"/>
    </g>
   </g>
   <g id="line2d_38">
    <path d="M 144.150779 391.626505 
L 158.393522 396.879229 
L 168.635938 407.115623 
L 173.604079 420.44023 
L 170.841662 434.139025 
L 163.456384 445.808031 
L 151.989119 455.817903 
L 136.332806 455.735274 
L 118.485752 452.986336 
L 98.764565 441.229229 
L 93.14183 417.8229 
L 78.907578 378.982377 
L 119.081791 376.251542 
" clip-path="url(#p89dcae2c01)" style="fill: none; stroke: #808080; stroke-width: 2; stroke-linecap: square"/>
   </g>
   <g id="PathCollection_4">
    <defs>
     <path id="md681fe7e51" d="M 0 3.162278 
L 3.162278 0 
L 0 -3.162278 
L -3.162278 0 
z
" style="stroke: #808080"/>
    </defs>
    <g>
     <use xlink:href="#md681fe7e51" x="144.150779" y="391.626505" style="fill: #ffffff; stroke: #808080"/>
     <use xlink:href="#md681fe7e51" x="158.393522" y="396.879229" style="fill: #ffffff; stroke: #808080"/>
     <use xlink:href="#md681fe7e51" x="168.635938" y="407.115623" style="fill: #ffffff; stroke: #808080"/>
     <use xlink:href="#md681fe7e51" x="173.604079" y="420.44023" style="fill: #ffffff; stroke: #808080"/>
     <use xlink:href="#md681fe7e51" x="170.841662" y="434.139025" style="fill: #ffffff; stroke: #808080"/>
     <use xlink:href="#md681fe7e51" x="163.456384" y="445.808031" style="fill: #ffffff; stroke: #808080"/>
     <use xlink:href="#md681fe7e51" x="151.989119" y="455.817903" style="fill: #ffffff; stroke: #808080"/>
     <use xlink:href="#md681fe7e51" x="136.332806" y="455.735274" style="fill: #ffffff; stroke: #808080"/>
     <use xlink:href="#md681fe7e51" x="118.485752" y="452.986336" style="fill: #ffffff; stroke: #808080"/>
     <use xlink:href="#md681fe7e51" x="98.764565" y="441.229229" style="fill: #ffffff; stroke: #808080"/>
     <use xlink:href="#md681fe7e51" x="93.14183" y="417.8229" style="fill: #ffffff; stroke: #808080"/>
     <use xlink:href="#md681fe7e51" x="78.907578" y="378.982377" style="fill: #ffffff; stroke: #808080"/>
     <use xlink:href="#md681fe7e51" x="119.081791" y="376.251542" style="fill: #ffffff; stroke: #808080"/>
    </g>
   </g>
   <g id="PolyCollection_2">
    <defs>
     <path id="mf7d91132d0" d="M 144.150779 -171.55218 
L 144.150779 -147.804692 
L 144.150779 -147.804692 
L 144.150779 -147.804692 
L 144.150779 -147.804692 
L 144.150779 -147.804692 
L 144.150779 -147.804692 
L 144.150779 -147.804692 
L 144.150779 -147.804692 
L 144.150779 -147.804692 
L 144.150779 -147.804692 
L 144.150779 -147.804692 
L 144.150779 -147.804692 
L 144.150779 -147.804692 
L 144.150779 -147.804692 
L 144.150779 -147.804692 
L 144.150779 -147.804692 
L 144.150779 -147.804692 
L 144.150779 -147.804692 
L 144.150779 -147.804692 
L 144.150779 -147.804692 
L 144.150779 -147.804692 
L 144.150779 -147.804692 
L 144.150779 -147.804692 
L 144.150779 -147.804692 
L 144.150779 -147.804692 
L 144.150779 -147.804692 
L 144.150779 -147.804692 
L 144.150779 -147.804692 
L 144.150779 -147.804692 
L 144.150779 -147.804692 
L 144.150779 -147.804692 
L 144.150779 -147.804692 
L 144.150779 -147.804692 
L 144.150779 -147.804692 
L 144.150779 -147.804692 
L 144.150779 -147.804692 
L 144.150779 -147.804692 
L 144.150779 -147.804692 
L 144.150779 -147.804692 
L 144.150779 -147.804692 
L 144.150779 -147.804692 
L 144.150779 -147.804692 
L 144.150779 -147.804692 
L 144.150779 -147.804692 
L 144.150779 -147.804692 
L 144.150779 -147.804692 
L 144.150779 -147.804692 
L 133.114771 -168.832049 
L 133.114771 -168.832049 
L 129.884659 -166.78945 
L 127.024033 -164.255156 
L 124.60698 -161.294803 
L 123.123423 -158.8407 
L 121.946492 -156.225667 
L 121.09335 -153.487838 
L 120.576437 -150.667135 
L 120.42255 -146.848477 
L 120.883212 -143.054584 
L 121.946492 -139.383717 
L 122.862891 -137.280006 
L 123.978049 -135.274561 
L 125.281555 -133.386107 
L 126.761238 -131.632276 
L 128.403282 -130.029442 
L 130.660668 -128.260892 
L 133.114771 -126.777335 
L 135.729804 -125.600405 
L 138.467633 -124.747263 
L 142.2399 -124.134209 
L 146.061658 -124.134209 
L 149.833925 -124.747263 
L 152.032757 -125.403406 
L 154.157997 -126.268704 
L 156.189803 -127.335077 
L 158.109203 -128.59257 
L 159.898277 -130.029442 
L 161.92603 -132.057194 
L 163.694579 -134.314581 
L 165.178136 -136.768684 
L 166.355067 -139.383717 
L 167.418347 -143.054584 
L 167.879009 -146.848477 
L 167.725122 -150.667135 
L 167.338803 -152.929025 
L 166.735983 -155.14307 
L 165.922291 -157.288598 
L 164.905325 -159.345578 
L 163.694579 -161.294803 
L 161.92603 -163.55219 
L 159.898277 -165.579942 
L 157.64089 -167.348492 
L 155.186788 -168.832049 
L 151.670849 -170.33005 
L 147.960144 -171.244657 
L 144.150779 -171.55218 
z
" style="stroke: #ffffff"/>
    </defs>
    <g>
     <use xlink:href="#mf7d91132d0" x="0" y="571.8212" style="fill: #ffffff; stroke: #ffffff"/>
    </g>
   </g>
  </g>
  <g id="legend_1">
   <g id="line2d_39">
    <path d="M 15.90719 556.93745 
L 23.90719 556.93745 
L 31.90719 556.93745 
" style="fill: none; stroke: #000000; stroke-opacity: 0; stroke-width: 1.5; stroke-linecap: square"/>
    <defs>
     <path id="mbdb0020837" d="M 0 2.5 
C 0.663008 2.5 1.29895 2.236584 1.767767 1.767767 
C 2.236584 1.29895 2.5 0.663008 2.5 0 
C 2.5 -0.663008 2.236584 -1.29895 1.767767 -1.767767 
C 1.29895 -2.236584 0.663008 -2.5 0 -2.5 
C -0.663008 -2.5 -1.29895 -2.236584 -1.767767 -1.767767 
C -2.236584 -1.29895 -2.5 -0.663008 -2.5 0 
C -2.5 0.663008 -2.236584 1.29895 -1.767767 1.767767 
C -1.29895 2.236584 -0.663008 2.5 0 2.5 
z
" style="stroke: #000000; stroke-opacity: 0"/>
    </defs>
    <g>
     <use xlink:href="#mbdb0020837" x="23.90719" y="556.93745" style="stroke: #000000; stroke-opacity: 0"/>
    </g>
   </g>
   <g id="text_37">
    <!-- Natural gas price -->
    <g transform="translate(33.50719 559.73745)scale(0.08 -0.08)">
     <defs>
      <path id="ArialMT-74" d="M 1650 503 
L 1731 6 
Q 1494 -44 1306 -44 
Q 1000 -44 831 53 
Q 663 150 594 308 
Q 525 466 525 972 
L 525 2881 
L 113 2881 
L 113 3319 
L 525 3319 
L 525 4141 
L 1084 4478 
L 1084 3319 
L 1650 3319 
L 1650 2881 
L 1084 2881 
L 1084 941 
Q 1084 700 1114 631 
Q 1144 563 1211 522 
Q 1278 481 1403 481 
Q 1497 481 1650 503 
z
" transform="scale(0.015625)"/>
      <path id="ArialMT-6c" d="M 409 0 
L 409 4581 
L 972 4581 
L 972 0 
L 409 0 
z
" transform="scale(0.015625)"/>
      <path id="ArialMT-73" d="M 197 991 
L 753 1078 
Q 800 744 1014 566 
Q 1228 388 1613 388 
Q 2000 388 2187 545 
Q 2375 703 2375 916 
Q 2375 1106 2209 1216 
Q 2094 1291 1634 1406 
Q 1016 1563 777 1677 
Q 538 1791 414 1992 
Q 291 2194 291 2438 
Q 291 2659 392 2848 
Q 494 3038 669 3163 
Q 800 3259 1026 3326 
Q 1253 3394 1513 3394 
Q 1903 3394 2198 3281 
Q 2494 3169 2634 2976 
Q 2775 2784 2828 2463 
L 2278 2388 
Q 2241 2644 2061 2787 
Q 1881 2931 1553 2931 
Q 1166 2931 1000 2803 
Q 834 2675 834 2503 
Q 834 2394 903 2306 
Q 972 2216 1119 2156 
Q 1203 2125 1616 2013 
Q 2213 1853 2448 1751 
Q 2684 1650 2818 1456 
Q 2953 1263 2953 975 
Q 2953 694 2789 445 
Q 2625 197 2315 61 
Q 2006 -75 1616 -75 
Q 969 -75 630 194 
Q 291 463 197 991 
z
" transform="scale(0.015625)"/>
      <path id="ArialMT-69" d="M 425 3934 
L 425 4581 
L 988 4581 
L 988 3934 
L 425 3934 
z
M 425 0 
L 425 3319 
L 988 3319 
L 988 0 
L 425 0 
z
" transform="scale(0.015625)"/>
      <path id="ArialMT-63" d="M 2588 1216 
L 3141 1144 
Q 3050 572 2676 248 
Q 2303 -75 1759 -75 
Q 1078 -75 664 370 
Q 250 816 250 1647 
Q 250 2184 428 2587 
Q 606 2991 970 3192 
Q 1334 3394 1763 3394 
Q 2303 3394 2647 3120 
Q 2991 2847 3088 2344 
L 2541 2259 
Q 2463 2594 2264 2762 
Q 2066 2931 1784 2931 
Q 1359 2931 1093 2626 
Q 828 2322 828 1663 
Q 828 994 1084 691 
Q 1341 388 1753 388 
Q 2084 388 2306 591 
Q 2528 794 2588 1216 
z
" transform="scale(0.015625)"/>
      <path id="ArialMT-65" d="M 2694 1069 
L 3275 997 
Q 3138 488 2766 206 
Q 2394 -75 1816 -75 
Q 1088 -75 661 373 
Q 234 822 234 1631 
Q 234 2469 665 2931 
Q 1097 3394 1784 3394 
Q 2450 3394 2872 2941 
Q 3294 2488 3294 1666 
Q 3294 1616 3291 1516 
L 816 1516 
Q 847 969 1125 678 
Q 1403 388 1819 388 
Q 2128 388 2347 550 
Q 2566 713 2694 1069 
z
M 847 1978 
L 2700 1978 
Q 2663 2397 2488 2606 
Q 2219 2931 1791 2931 
Q 1403 2931 1139 2672 
Q 875 2413 847 1978 
z
" transform="scale(0.015625)"/>
     </defs>
     <use xlink:href="#ArialMT-4e"/>
     <use xlink:href="#ArialMT-61" x="72.216797"/>
     <use xlink:href="#ArialMT-74" x="127.832031"/>
     <use xlink:href="#ArialMT-75" x="155.615234"/>
     <use xlink:href="#ArialMT-72" x="211.230469"/>
     <use xlink:href="#ArialMT-61" x="244.53125"/>
     <use xlink:href="#ArialMT-6c" x="300.146484"/>
     <use xlink:href="#ArialMT-20" x="322.363281"/>
     <use xlink:href="#ArialMT-67" x="350.146484"/>
     <use xlink:href="#ArialMT-61" x="405.761719"/>
     <use xlink:href="#ArialMT-73" x="461.376953"/>
     <use xlink:href="#ArialMT-20" x="511.376953"/>
     <use xlink:href="#ArialMT-70" x="539.160156"/>
     <use xlink:href="#ArialMT-72" x="594.775391"/>
     <use xlink:href="#ArialMT-69" x="628.076172"/>
     <use xlink:href="#ArialMT-63" x="650.292969"/>
     <use xlink:href="#ArialMT-65" x="700.292969"/>
    </g>
   </g>
   <g id="line2d_40">
    <path d="M 109.97594 556.93745 
L 117.97594 556.93745 
L 125.97594 556.93745 
" style="fill: none; stroke: #000000; stroke-opacity: 0; stroke-width: 1.5; stroke-linecap: square"/>
    <defs>
     <path id="ma0f0c67922" d="M -2.5 2.5 
L 2.5 2.5 
L 2.5 -2.5 
L -2.5 -2.5 
z
" style="stroke: #808080; stroke-linejoin: miter"/>
    </defs>
    <g>
     <use xlink:href="#ma0f0c67922" x="117.97594" y="556.93745" style="fill: #ffffff; stroke: #808080; stroke-linejoin: miter"/>
    </g>
   </g>
   <g id="text_38">
    <!-- Fossil ammonia -->
    <g transform="translate(127.57594 559.73745)scale(0.08 -0.08)">
     <defs>
      <path id="ArialMT-46" d="M 525 0 
L 525 4581 
L 3616 4581 
L 3616 4041 
L 1131 4041 
L 1131 2622 
L 3281 2622 
L 3281 2081 
L 1131 2081 
L 1131 0 
L 525 0 
z
" transform="scale(0.015625)"/>
      <path id="ArialMT-6d" d="M 422 0 
L 422 3319 
L 925 3319 
L 925 2853 
Q 1081 3097 1340 3245 
Q 1600 3394 1931 3394 
Q 2300 3394 2536 3241 
Q 2772 3088 2869 2813 
Q 3263 3394 3894 3394 
Q 4388 3394 4653 3120 
Q 4919 2847 4919 2278 
L 4919 0 
L 4359 0 
L 4359 2091 
Q 4359 2428 4304 2576 
Q 4250 2725 4106 2815 
Q 3963 2906 3769 2906 
Q 3419 2906 3187 2673 
Q 2956 2441 2956 1928 
L 2956 0 
L 2394 0 
L 2394 2156 
Q 2394 2531 2256 2718 
Q 2119 2906 1806 2906 
Q 1569 2906 1367 2781 
Q 1166 2656 1075 2415 
Q 984 2175 984 1722 
L 984 0 
L 422 0 
z
" transform="scale(0.015625)"/>
     </defs>
     <use xlink:href="#ArialMT-46"/>
     <use xlink:href="#ArialMT-6f" x="61.083984"/>
     <use xlink:href="#ArialMT-73" x="116.699219"/>
     <use xlink:href="#ArialMT-73" x="166.699219"/>
     <use xlink:href="#ArialMT-69" x="216.699219"/>
     <use xlink:href="#ArialMT-6c" x="238.916016"/>
     <use xlink:href="#ArialMT-20" x="261.132812"/>
     <use xlink:href="#ArialMT-61" x="288.916016"/>
     <use xlink:href="#ArialMT-6d" x="344.53125"/>
     <use xlink:href="#ArialMT-6d" x="427.832031"/>
     <use xlink:href="#ArialMT-6f" x="511.132812"/>
     <use xlink:href="#ArialMT-6e" x="566.748047"/>
     <use xlink:href="#ArialMT-69" x="622.363281"/>
     <use xlink:href="#ArialMT-61" x="644.580078"/>
    </g>
   </g>
   <g id="line2d_41">
    <path d="M 199.58844 556.93745 
L 207.58844 556.93745 
L 215.58844 556.93745 
" style="fill: none; stroke: #000000; stroke-opacity: 0; stroke-width: 1.5; stroke-linecap: square"/>
    <defs>
     <path id="md9f8f1efe7" d="M 0 3.535534 
L 3.535534 0 
L 0 -3.535534 
L -3.535534 0 
z
" style="stroke: #808080; stroke-linejoin: miter"/>
    </defs>
    <g>
     <use xlink:href="#md9f8f1efe7" x="207.58844" y="556.93745" style="fill: #ffffff; stroke: #808080; stroke-linejoin: miter"/>
    </g>
   </g>
   <g id="text_39">
    <!-- Fossil methanol -->
    <g transform="translate(217.18844 559.73745)scale(0.08 -0.08)">
     <defs>
      <path id="ArialMT-68" d="M 422 0 
L 422 4581 
L 984 4581 
L 984 2938 
Q 1378 3394 1978 3394 
Q 2347 3394 2619 3248 
Q 2891 3103 3008 2847 
Q 3125 2591 3125 2103 
L 3125 0 
L 2563 0 
L 2563 2103 
Q 2563 2525 2380 2717 
Q 2197 2909 1863 2909 
Q 1613 2909 1392 2779 
Q 1172 2650 1078 2428 
Q 984 2206 984 1816 
L 984 0 
L 422 0 
z
" transform="scale(0.015625)"/>
     </defs>
     <use xlink:href="#ArialMT-46"/>
     <use xlink:href="#ArialMT-6f" x="61.083984"/>
     <use xlink:href="#ArialMT-73" x="116.699219"/>
     <use xlink:href="#ArialMT-73" x="166.699219"/>
     <use xlink:href="#ArialMT-69" x="216.699219"/>
     <use xlink:href="#ArialMT-6c" x="238.916016"/>
     <use xlink:href="#ArialMT-20" x="261.132812"/>
     <use xlink:href="#ArialMT-6d" x="288.916016"/>
     <use xlink:href="#ArialMT-65" x="372.216797"/>
     <use xlink:href="#ArialMT-74" x="427.832031"/>
     <use xlink:href="#ArialMT-68" x="455.615234"/>
     <use xlink:href="#ArialMT-61" x="511.230469"/>
     <use xlink:href="#ArialMT-6e" x="566.845703"/>
     <use xlink:href="#ArialMT-6f" x="622.460938"/>
     <use xlink:href="#ArialMT-6c" x="678.076172"/>
    </g>
   </g>
  </g>
 </g>
 <defs>
  <clipPath id="p58e6040cbb">
   <path d="M 92.419491 50.050774 
C 80.477238 56.318552 69.77291 64.704857 60.829294 74.800113 
C 51.885678 84.895369 44.850782 96.532508 40.068182 109.143186 
C 35.285583 121.753864 32.834428 135.129386 32.834428 148.616508 
C 32.834428 162.10363 35.285583 175.479152 40.068182 188.08983 
C 44.850782 200.700508 51.885678 212.337647 60.829294 222.432903 
C 69.77291 232.528159 80.477238 240.914464 92.419491 247.182242 
C 104.361745 253.45002 117.34429 257.495545 130.733076 259.121238 
C 144.121861 260.746931 157.695315 259.925888 170.790526 256.698209 
C 183.885737 253.470529 196.285991 247.889628 207.385675 240.228069 
C 218.485358 232.566511 228.100782 222.951087 235.762341 211.851403 
C 243.423899 200.751719 249.004801 188.351465 252.23248 175.256255 
C 255.46016 162.161044 256.281202 148.58759 254.65551 135.198804 
C 253.029817 121.810019 248.984292 108.827473 242.716514 96.88522 
C 236.448736 84.942967 228.06243 74.238638 217.967174 65.295022 
C 207.871919 56.351406 196.23478 49.31651 183.624102 44.533911 
C 171.013424 39.751312 157.637901 37.300156 144.150779 37.300156 
L 144.150779 148.616508 
C 144.150779 148.616508 144.150779 148.616508 144.150779 148.616508 
C 144.150779 148.616508 144.150779 148.616508 144.150779 148.616508 
C 144.150779 148.616508 144.150779 148.616508 144.150779 148.616508 
C 144.150779 148.616508 144.150779 148.616508 144.150779 148.616508 
C 144.150779 148.616508 144.150779 148.616508 144.150779 148.616508 
C 144.150779 148.616508 144.150779 148.616508 144.150779 148.616508 
C 144.150779 148.616508 144.150779 148.616508 144.150779 148.616508 
C 144.150779 148.616508 144.150779 148.616508 144.150779 148.616508 
C 144.150779 148.616508 144.150779 148.616508 144.150779 148.616508 
C 144.150779 148.616508 144.150779 148.616508 144.150779 148.616508 
C 144.150779 148.616508 144.150779 148.616508 144.150779 148.616508 
C 144.150779 148.616508 144.150779 148.616508 144.150779 148.616508 
C 144.150779 148.616508 144.150779 148.616508 144.150779 148.616508 
C 144.150779 148.616508 144.150779 148.616508 144.150779 148.616508 
C 144.150779 148.616508 144.150779 148.616508 144.150779 148.616508 
C 144.150779 148.616508 144.150779 148.616508 144.150779 148.616508 
L 92.419491 50.050774 
z
"/>
  </clipPath>
  <clipPath id="p89dcae2c01">
   <path d="M 92.419491 325.450774 
C 80.477238 331.718552 69.77291 340.104857 60.829294 350.200113 
C 51.885678 360.295369 44.850782 371.932508 40.068182 384.543186 
C 35.285583 397.153864 32.834428 410.529386 32.834428 424.016508 
C 32.834428 437.50363 35.285583 450.879152 40.068182 463.48983 
C 44.850782 476.100508 51.885678 487.737647 60.829294 497.832903 
C 69.77291 507.928159 80.477238 516.314464 92.419491 522.582242 
C 104.361745 528.85002 117.34429 532.895545 130.733076 534.521238 
C 144.121861 536.146931 157.695315 535.325888 170.790526 532.098209 
C 183.885737 528.870529 196.285991 523.289628 207.385675 515.628069 
C 218.485358 507.966511 228.100782 498.351087 235.762341 487.251403 
C 243.423899 476.151719 249.004801 463.751465 252.23248 450.656255 
C 255.46016 437.561044 256.281202 423.98759 254.65551 410.598804 
C 253.029817 397.210019 248.984292 384.227473 242.716514 372.28522 
C 236.448736 360.342967 228.06243 349.638638 217.967174 340.695022 
C 207.871919 331.751406 196.23478 324.71651 183.624102 319.933911 
C 171.013424 315.151312 157.637901 312.700156 144.150779 312.700156 
L 144.150779 424.016508 
C 144.150779 424.016508 144.150779 424.016508 144.150779 424.016508 
C 144.150779 424.016508 144.150779 424.016508 144.150779 424.016508 
C 144.150779 424.016508 144.150779 424.016508 144.150779 424.016508 
C 144.150779 424.016508 144.150779 424.016508 144.150779 424.016508 
C 144.150779 424.016508 144.150779 424.016508 144.150779 424.016508 
C 144.150779 424.016508 144.150779 424.016508 144.150779 424.016508 
C 144.150779 424.016508 144.150779 424.016508 144.150779 424.016508 
C 144.150779 424.016508 144.150779 424.016508 144.150779 424.016508 
C 144.150779 424.016508 144.150779 424.016508 144.150779 424.016508 
C 144.150779 424.016508 144.150779 424.016508 144.150779 424.016508 
C 144.150779 424.016508 144.150779 424.016508 144.150779 424.016508 
C 144.150779 424.016508 144.150779 424.016508 144.150779 424.016508 
C 144.150779 424.016508 144.150779 424.016508 144.150779 424.016508 
C 144.150779 424.016508 144.150779 424.016508 144.150779 424.016508 
C 144.150779 424.016508 144.150779 424.016508 144.150779 424.016508 
C 144.150779 424.016508 144.150779 424.016508 144.150779 424.016508 
L 92.419491 325.450774 
z
"/>
  </clipPath>
 </defs>
</svg>
