<?xml version="1.0" encoding="utf-8" standalone="no"?>
<!DOCTYPE svg PUBLIC "-//W3C//DTD SVG 1.1//EN"
  "http://www.w3.org/Graphics/SVG/1.1/DTD/svg11.dtd">
<svg xmlns:xlink="http://www.w3.org/1999/xlink" width="515.429776pt" height="252.255052pt" viewBox="0 0 515.429776 252.255052" xmlns="http://www.w3.org/2000/svg" version="1.1">
 <metadata>
  <rdf:RDF xmlns:dc="http://purl.org/dc/elements/1.1/" xmlns:cc="http://creativecommons.org/ns#" xmlns:rdf="http://www.w3.org/1999/02/22-rdf-syntax-ns#">
   <cc:Work>
    <dc:type rdf:resource="http://purl.org/dc/dcmitype/StillImage"/>
    <dc:date>2023-03-20T11:38:57.691664</dc:date>
    <dc:format>image/svg+xml</dc:format>
    <dc:creator>
     <cc:Agent>
      <dc:title>Matplotlib v3.5.1, https://matplotlib.org/</dc:title>
     </cc:Agent>
    </dc:creator>
   </cc:Work>
  </rdf:RDF>
 </metadata>
 <defs>
  <style type="text/css">*{stroke-linejoin: round; stroke-linecap: butt}</style>
 </defs>
 <g id="figure_1">
  <g id="patch_1">
   <path d="M 0 252.255052 
L 515.429776 252.255052 
L 515.429776 0 
L 0 0 
z
" style="fill: #ffffff"/>
  </g>
  <g id="axes_1">
   <g id="patch_2">
    <path d="M 85.515664 42.973157 
C 76.002272 48.465716 67.557753 55.630357 60.588868 64.121968 
C 53.619983 72.61358 48.240452 82.293592 44.709402 92.695731 
C 41.178351 103.09787 39.553402 114.052391 39.912825 125.031628 
C 40.272248 136.010864 42.610178 146.835654 46.814001 156.98458 
C 51.017823 167.133505 57.018939 176.440954 64.528281 184.458597 
C 72.037623 192.47624 80.932652 199.073243 90.784905 203.931837 
C 100.637158 208.79043 111.285863 211.83133 122.218085 212.90806 
C 133.150307 213.98479 144.18765 213.079779 154.798459 210.236621 
C 165.409268 207.393464 175.420393 202.658554 184.34961 196.259968 
C 193.278827 189.861382 200.980426 181.903533 207.08343 172.769741 
C 213.186435 163.635949 217.591254 153.475262 220.085714 142.777109 
C 222.580174 132.078955 223.123568 121.01791 221.689722 110.126771 
C 220.255877 99.235633 216.868189 88.692124 211.68984 79.004115 
C 206.511491 69.316106 199.626983 60.641688 191.367934 53.398696 
C 183.108885 46.155704 173.610069 40.462333 163.329032 36.592825 
C 153.047995 32.723316 142.152506 30.740815 131.167388 30.740815 
L 131.167388 122.044263 
C 131.167388 122.044263 131.167388 122.044263 131.167388 122.044263 
C 131.167388 122.044263 131.167388 122.044263 131.167388 122.044263 
C 131.167388 122.044263 131.167388 122.044263 131.167388 122.044263 
C 131.167388 122.044263 131.167388 122.044263 131.167388 122.044263 
C 131.167388 122.044263 131.167388 122.044263 131.167388 122.044263 
C 131.167388 122.044263 131.167388 122.044263 131.167388 122.044263 
C 131.167388 122.044263 131.167388 122.044263 131.167388 122.044263 
C 131.167388 122.044263 131.167388 122.044263 131.167388 122.044263 
C 131.167388 122.044263 131.167388 122.044263 131.167388 122.044263 
C 131.167388 122.044263 131.167388 122.044263 131.167388 122.044263 
C 131.167388 122.044263 131.167388 122.044263 131.167388 122.044263 
C 131.167388 122.044263 131.167388 122.044263 131.167388 122.044263 
C 131.167388 122.044263 131.167388 122.044263 131.167388 122.044263 
C 131.167388 122.044263 131.167388 122.044263 131.167388 122.044263 
C 131.167388 122.044263 131.167388 122.044263 131.167388 122.044263 
C 131.167388 122.044263 131.167388 122.044263 131.167388 122.044263 
L 85.515664 42.973157 
z
" style="fill: #ffffff; opacity: 0.05"/>
   </g>
   <g id="matplotlib.axis_1">
    <g id="xtick_1">
     <g id="line2d_1">
      <path d="M 131.167388 122.044263 
L 131.167388 30.740815 
" clip-path="url(#p1233cdc12e)" style="fill: none; stroke: #b0b0b0; stroke-width: 0.8; stroke-linecap: square"/>
     </g>
     <g id="text_1">
      <!-- Jul '20 -->
      <g style="fill: #808080" transform="translate(119.730513 27.02625)scale(0.08 -0.08)">
       <defs>
        <path id="ArialMT-4a" d="M 184 1300 
L 731 1375 
Q 753 850 928 656 
Q 1103 463 1413 463 
Q 1641 463 1806 567 
Q 1972 672 2034 851 
Q 2097 1031 2097 1425 
L 2097 4581 
L 2703 4581 
L 2703 1459 
Q 2703 884 2564 568 
Q 2425 253 2123 87 
Q 1822 -78 1416 -78 
Q 813 -78 492 269 
Q 172 616 184 1300 
z
" transform="scale(0.015625)"/>
        <path id="ArialMT-75" d="M 2597 0 
L 2597 488 
Q 2209 -75 1544 -75 
Q 1250 -75 995 37 
Q 741 150 617 320 
Q 494 491 444 738 
Q 409 903 409 1263 
L 409 3319 
L 972 3319 
L 972 1478 
Q 972 1038 1006 884 
Q 1059 663 1231 536 
Q 1403 409 1656 409 
Q 1909 409 2131 539 
Q 2353 669 2445 892 
Q 2538 1116 2538 1541 
L 2538 3319 
L 3100 3319 
L 3100 0 
L 2597 0 
z
" transform="scale(0.015625)"/>
        <path id="ArialMT-6c" d="M 409 0 
L 409 4581 
L 972 4581 
L 972 0 
L 409 0 
z
" transform="scale(0.015625)"/>
        <path id="ArialMT-20" transform="scale(0.015625)"/>
        <path id="ArialMT-27" d="M 425 2959 
L 281 3816 
L 281 4581 
L 922 4581 
L 922 3816 
L 772 2959 
L 425 2959 
z
" transform="scale(0.015625)"/>
        <path id="ArialMT-32" d="M 3222 541 
L 3222 0 
L 194 0 
Q 188 203 259 391 
Q 375 700 629 1000 
Q 884 1300 1366 1694 
Q 2113 2306 2375 2664 
Q 2638 3022 2638 3341 
Q 2638 3675 2398 3904 
Q 2159 4134 1775 4134 
Q 1369 4134 1125 3890 
Q 881 3647 878 3216 
L 300 3275 
Q 359 3922 746 4261 
Q 1134 4600 1788 4600 
Q 2447 4600 2831 4234 
Q 3216 3869 3216 3328 
Q 3216 3053 3103 2787 
Q 2991 2522 2730 2228 
Q 2469 1934 1863 1422 
Q 1356 997 1212 845 
Q 1069 694 975 541 
L 3222 541 
z
" transform="scale(0.015625)"/>
        <path id="ArialMT-30" d="M 266 2259 
Q 266 3072 433 3567 
Q 600 4063 929 4331 
Q 1259 4600 1759 4600 
Q 2128 4600 2406 4451 
Q 2684 4303 2865 4023 
Q 3047 3744 3150 3342 
Q 3253 2941 3253 2259 
Q 3253 1453 3087 958 
Q 2922 463 2592 192 
Q 2263 -78 1759 -78 
Q 1097 -78 719 397 
Q 266 969 266 2259 
z
M 844 2259 
Q 844 1131 1108 757 
Q 1372 384 1759 384 
Q 2147 384 2411 759 
Q 2675 1134 2675 2259 
Q 2675 3391 2411 3762 
Q 2147 4134 1753 4134 
Q 1366 4134 1134 3806 
Q 844 3388 844 2259 
z
" transform="scale(0.015625)"/>
       </defs>
       <use xlink:href="#ArialMT-4a"/>
       <use xlink:href="#ArialMT-75" x="50"/>
       <use xlink:href="#ArialMT-6c" x="105.615234"/>
       <use xlink:href="#ArialMT-20" x="127.832031"/>
       <use xlink:href="#ArialMT-27" x="155.615234"/>
       <use xlink:href="#ArialMT-32" x="174.707031"/>
       <use xlink:href="#ArialMT-30" x="230.322266"/>
      </g>
     </g>
    </g>
    <g id="xtick_2">
     <g id="line2d_2">
      <path d="M 131.167388 122.044263 
L 176.819112 42.973157 
" clip-path="url(#p1233cdc12e)" style="fill: none; stroke: #b0b0b0; stroke-width: 0.8; stroke-linecap: square"/>
     </g>
     <g id="text_2">
      <!-- Oct '20 -->
      <g style="fill: #808080" transform="translate(179.710457 40.033326)scale(0.08 -0.08)">
       <defs>
        <path id="ArialMT-4f" d="M 309 2231 
Q 309 3372 921 4017 
Q 1534 4663 2503 4663 
Q 3138 4663 3647 4359 
Q 4156 4056 4423 3514 
Q 4691 2972 4691 2284 
Q 4691 1588 4409 1038 
Q 4128 488 3612 205 
Q 3097 -78 2500 -78 
Q 1853 -78 1343 234 
Q 834 547 571 1087 
Q 309 1628 309 2231 
z
M 934 2222 
Q 934 1394 1379 917 
Q 1825 441 2497 441 
Q 3181 441 3623 922 
Q 4066 1403 4066 2288 
Q 4066 2847 3877 3264 
Q 3688 3681 3323 3911 
Q 2959 4141 2506 4141 
Q 1863 4141 1398 3698 
Q 934 3256 934 2222 
z
" transform="scale(0.015625)"/>
        <path id="ArialMT-63" d="M 2588 1216 
L 3141 1144 
Q 3050 572 2676 248 
Q 2303 -75 1759 -75 
Q 1078 -75 664 370 
Q 250 816 250 1647 
Q 250 2184 428 2587 
Q 606 2991 970 3192 
Q 1334 3394 1763 3394 
Q 2303 3394 2647 3120 
Q 2991 2847 3088 2344 
L 2541 2259 
Q 2463 2594 2264 2762 
Q 2066 2931 1784 2931 
Q 1359 2931 1093 2626 
Q 828 2322 828 1663 
Q 828 994 1084 691 
Q 1341 388 1753 388 
Q 2084 388 2306 591 
Q 2528 794 2588 1216 
z
" transform="scale(0.015625)"/>
        <path id="ArialMT-74" d="M 1650 503 
L 1731 6 
Q 1494 -44 1306 -44 
Q 1000 -44 831 53 
Q 663 150 594 308 
Q 525 466 525 972 
L 525 2881 
L 113 2881 
L 113 3319 
L 525 3319 
L 525 4141 
L 1084 4478 
L 1084 3319 
L 1650 3319 
L 1650 2881 
L 1084 2881 
L 1084 941 
Q 1084 700 1114 631 
Q 1144 563 1211 522 
Q 1278 481 1403 481 
Q 1497 481 1650 503 
z
" transform="scale(0.015625)"/>
       </defs>
       <use xlink:href="#ArialMT-4f"/>
       <use xlink:href="#ArialMT-63" x="77.783203"/>
       <use xlink:href="#ArialMT-74" x="127.783203"/>
       <use xlink:href="#ArialMT-20" x="155.566406"/>
       <use xlink:href="#ArialMT-27" x="183.349609"/>
       <use xlink:href="#ArialMT-32" x="202.441406"/>
       <use xlink:href="#ArialMT-30" x="258.056641"/>
      </g>
     </g>
    </g>
    <g id="xtick_3">
     <g id="line2d_3">
      <path d="M 131.167388 122.044263 
L 210.238493 76.392539 
" clip-path="url(#p1233cdc12e)" style="fill: none; stroke: #b0b0b0; stroke-width: 0.8; stroke-linecap: square"/>
     </g>
     <g id="text_3">
      <!-- Jan '21 -->
      <g style="fill: #808080" transform="translate(215.246449 75.569319)scale(0.08 -0.08)">
       <defs>
        <path id="ArialMT-61" d="M 2588 409 
Q 2275 144 1986 34 
Q 1697 -75 1366 -75 
Q 819 -75 525 192 
Q 231 459 231 875 
Q 231 1119 342 1320 
Q 453 1522 633 1644 
Q 813 1766 1038 1828 
Q 1203 1872 1538 1913 
Q 2219 1994 2541 2106 
Q 2544 2222 2544 2253 
Q 2544 2597 2384 2738 
Q 2169 2928 1744 2928 
Q 1347 2928 1158 2789 
Q 969 2650 878 2297 
L 328 2372 
Q 403 2725 575 2942 
Q 747 3159 1072 3276 
Q 1397 3394 1825 3394 
Q 2250 3394 2515 3294 
Q 2781 3194 2906 3042 
Q 3031 2891 3081 2659 
Q 3109 2516 3109 2141 
L 3109 1391 
Q 3109 606 3145 398 
Q 3181 191 3288 0 
L 2700 0 
Q 2613 175 2588 409 
z
M 2541 1666 
Q 2234 1541 1622 1453 
Q 1275 1403 1131 1340 
Q 988 1278 909 1158 
Q 831 1038 831 891 
Q 831 666 1001 516 
Q 1172 366 1500 366 
Q 1825 366 2078 508 
Q 2331 650 2450 897 
Q 2541 1088 2541 1459 
L 2541 1666 
z
" transform="scale(0.015625)"/>
        <path id="ArialMT-6e" d="M 422 0 
L 422 3319 
L 928 3319 
L 928 2847 
Q 1294 3394 1984 3394 
Q 2284 3394 2536 3286 
Q 2788 3178 2913 3003 
Q 3038 2828 3088 2588 
Q 3119 2431 3119 2041 
L 3119 0 
L 2556 0 
L 2556 2019 
Q 2556 2363 2490 2533 
Q 2425 2703 2258 2804 
Q 2091 2906 1866 2906 
Q 1506 2906 1245 2678 
Q 984 2450 984 1813 
L 984 0 
L 422 0 
z
" transform="scale(0.015625)"/>
        <path id="ArialMT-31" d="M 2384 0 
L 1822 0 
L 1822 3584 
Q 1619 3391 1289 3197 
Q 959 3003 697 2906 
L 697 3450 
Q 1169 3672 1522 3987 
Q 1875 4303 2022 4600 
L 2384 4600 
L 2384 0 
z
" transform="scale(0.015625)"/>
       </defs>
       <use xlink:href="#ArialMT-4a"/>
       <use xlink:href="#ArialMT-61" x="50"/>
       <use xlink:href="#ArialMT-6e" x="105.615234"/>
       <use xlink:href="#ArialMT-20" x="161.230469"/>
       <use xlink:href="#ArialMT-27" x="189.013672"/>
       <use xlink:href="#ArialMT-32" x="208.105469"/>
       <use xlink:href="#ArialMT-31" x="263.720703"/>
      </g>
     </g>
    </g>
    <g id="xtick_4">
     <g id="line2d_4">
      <path d="M 131.167388 122.044263 
L 222.470836 122.044263 
" clip-path="url(#p1233cdc12e)" style="fill: none; stroke: #b0b0b0; stroke-width: 0.8; stroke-linecap: square"/>
     </g>
     <g id="text_4">
      <!-- Apr '21 -->
      <g style="fill: #808080" transform="translate(228.253526 124.124263)scale(0.08 -0.08)">
       <defs>
        <path id="ArialMT-41" d="M -9 0 
L 1750 4581 
L 2403 4581 
L 4278 0 
L 3588 0 
L 3053 1388 
L 1138 1388 
L 634 0 
L -9 0 
z
M 1313 1881 
L 2866 1881 
L 2388 3150 
Q 2169 3728 2063 4100 
Q 1975 3659 1816 3225 
L 1313 1881 
z
" transform="scale(0.015625)"/>
        <path id="ArialMT-70" d="M 422 -1272 
L 422 3319 
L 934 3319 
L 934 2888 
Q 1116 3141 1344 3267 
Q 1572 3394 1897 3394 
Q 2322 3394 2647 3175 
Q 2972 2956 3137 2557 
Q 3303 2159 3303 1684 
Q 3303 1175 3120 767 
Q 2938 359 2589 142 
Q 2241 -75 1856 -75 
Q 1575 -75 1351 44 
Q 1128 163 984 344 
L 984 -1272 
L 422 -1272 
z
M 931 1641 
Q 931 1000 1190 694 
Q 1450 388 1819 388 
Q 2194 388 2461 705 
Q 2728 1022 2728 1688 
Q 2728 2322 2467 2637 
Q 2206 2953 1844 2953 
Q 1484 2953 1207 2617 
Q 931 2281 931 1641 
z
" transform="scale(0.015625)"/>
        <path id="ArialMT-72" d="M 416 0 
L 416 3319 
L 922 3319 
L 922 2816 
Q 1116 3169 1280 3281 
Q 1444 3394 1641 3394 
Q 1925 3394 2219 3213 
L 2025 2691 
Q 1819 2813 1613 2813 
Q 1428 2813 1281 2702 
Q 1134 2591 1072 2394 
Q 978 2094 978 1738 
L 978 0 
L 416 0 
z
" transform="scale(0.015625)"/>
       </defs>
       <use xlink:href="#ArialMT-41"/>
       <use xlink:href="#ArialMT-70" x="66.699219"/>
       <use xlink:href="#ArialMT-72" x="122.314453"/>
       <use xlink:href="#ArialMT-20" x="155.615234"/>
       <use xlink:href="#ArialMT-27" x="183.398438"/>
       <use xlink:href="#ArialMT-32" x="202.490234"/>
       <use xlink:href="#ArialMT-31" x="258.105469"/>
      </g>
     </g>
    </g>
    <g id="xtick_5">
     <g id="line2d_5">
      <path d="M 131.167388 122.044263 
L 210.238493 167.695987 
" clip-path="url(#p1233cdc12e)" style="fill: none; stroke: #b0b0b0; stroke-width: 0.8; stroke-linecap: square"/>
     </g>
     <g id="text_5">
      <!-- Jul '21 -->
      <g style="fill: #808080" transform="translate(215.246449 172.655457)scale(0.08 -0.08)">
       <use xlink:href="#ArialMT-4a"/>
       <use xlink:href="#ArialMT-75" x="50"/>
       <use xlink:href="#ArialMT-6c" x="105.615234"/>
       <use xlink:href="#ArialMT-20" x="127.832031"/>
       <use xlink:href="#ArialMT-27" x="155.615234"/>
       <use xlink:href="#ArialMT-32" x="174.707031"/>
       <use xlink:href="#ArialMT-31" x="230.322266"/>
      </g>
     </g>
    </g>
    <g id="xtick_6">
     <g id="line2d_6">
      <path d="M 131.167388 122.044263 
L 176.819112 201.115368 
" clip-path="url(#p1233cdc12e)" style="fill: none; stroke: #b0b0b0; stroke-width: 0.8; stroke-linecap: square"/>
     </g>
     <g id="text_6">
      <!-- Oct '21 -->
      <g style="fill: #808080" transform="translate(179.710457 208.191449)scale(0.08 -0.08)">
       <use xlink:href="#ArialMT-4f"/>
       <use xlink:href="#ArialMT-63" x="77.783203"/>
       <use xlink:href="#ArialMT-74" x="127.783203"/>
       <use xlink:href="#ArialMT-20" x="155.566406"/>
       <use xlink:href="#ArialMT-27" x="183.349609"/>
       <use xlink:href="#ArialMT-32" x="202.441406"/>
       <use xlink:href="#ArialMT-31" x="258.056641"/>
      </g>
     </g>
    </g>
    <g id="xtick_7">
     <g id="line2d_7">
      <path d="M 131.167388 122.044263 
L 131.167388 213.347711 
" clip-path="url(#p1233cdc12e)" style="fill: none; stroke: #b0b0b0; stroke-width: 0.8; stroke-linecap: square"/>
     </g>
     <g id="text_7">
      <!-- Jan '22 -->
      <g style="fill: #808080" transform="translate(118.394888 221.198526)scale(0.08 -0.08)">
       <use xlink:href="#ArialMT-4a"/>
       <use xlink:href="#ArialMT-61" x="50"/>
       <use xlink:href="#ArialMT-6e" x="105.615234"/>
       <use xlink:href="#ArialMT-20" x="161.230469"/>
       <use xlink:href="#ArialMT-27" x="189.013672"/>
       <use xlink:href="#ArialMT-32" x="208.105469"/>
       <use xlink:href="#ArialMT-32" x="263.720703"/>
      </g>
     </g>
    </g>
    <g id="xtick_8">
     <g id="line2d_8">
      <path d="M 131.167388 122.044263 
L 85.515664 201.115368 
" clip-path="url(#p1233cdc12e)" style="fill: none; stroke: #b0b0b0; stroke-width: 0.8; stroke-linecap: square"/>
     </g>
     <g id="text_8">
      <!-- Apr '22 -->
      <g style="fill: #808080" transform="translate(57.528069 208.203324)scale(0.08 -0.08)">
       <use xlink:href="#ArialMT-41"/>
       <use xlink:href="#ArialMT-70" x="66.699219"/>
       <use xlink:href="#ArialMT-72" x="122.314453"/>
       <use xlink:href="#ArialMT-20" x="155.615234"/>
       <use xlink:href="#ArialMT-27" x="183.398438"/>
       <use xlink:href="#ArialMT-32" x="202.490234"/>
       <use xlink:href="#ArialMT-32" x="258.105469"/>
      </g>
     </g>
    </g>
    <g id="xtick_9">
     <g id="line2d_9">
      <path d="M 131.167388 122.044263 
L 52.096282 167.695987 
" clip-path="url(#p1233cdc12e)" style="fill: none; stroke: #b0b0b0; stroke-width: 0.8; stroke-linecap: square"/>
     </g>
     <g id="text_9">
      <!-- Jul '22 -->
      <g style="fill: #808080" transform="translate(24.214576 172.655457)scale(0.08 -0.08)">
       <use xlink:href="#ArialMT-4a"/>
       <use xlink:href="#ArialMT-75" x="50"/>
       <use xlink:href="#ArialMT-6c" x="105.615234"/>
       <use xlink:href="#ArialMT-20" x="127.832031"/>
       <use xlink:href="#ArialMT-27" x="155.615234"/>
       <use xlink:href="#ArialMT-32" x="174.707031"/>
       <use xlink:href="#ArialMT-32" x="230.322266"/>
      </g>
     </g>
    </g>
    <g id="xtick_10">
     <g id="line2d_10">
      <path d="M 131.167388 122.044263 
L 39.86394 122.044263 
" clip-path="url(#p1233cdc12e)" style="fill: none; stroke: #b0b0b0; stroke-width: 0.8; stroke-linecap: square"/>
     </g>
     <g id="text_10">
      <!-- Aug '22 -->
      <g style="fill: #808080" transform="translate(7.2 124.077388)scale(0.08 -0.08)">
       <defs>
        <path id="ArialMT-67" d="M 319 -275 
L 866 -356 
Q 900 -609 1056 -725 
Q 1266 -881 1628 -881 
Q 2019 -881 2231 -725 
Q 2444 -569 2519 -288 
Q 2563 -116 2559 434 
Q 2191 0 1641 0 
Q 956 0 581 494 
Q 206 988 206 1678 
Q 206 2153 378 2554 
Q 550 2956 876 3175 
Q 1203 3394 1644 3394 
Q 2231 3394 2613 2919 
L 2613 3319 
L 3131 3319 
L 3131 450 
Q 3131 -325 2973 -648 
Q 2816 -972 2473 -1159 
Q 2131 -1347 1631 -1347 
Q 1038 -1347 672 -1080 
Q 306 -813 319 -275 
z
M 784 1719 
Q 784 1066 1043 766 
Q 1303 466 1694 466 
Q 2081 466 2343 764 
Q 2606 1063 2606 1700 
Q 2606 2309 2336 2618 
Q 2066 2928 1684 2928 
Q 1309 2928 1046 2623 
Q 784 2319 784 1719 
z
" transform="scale(0.015625)"/>
       </defs>
       <use xlink:href="#ArialMT-41"/>
       <use xlink:href="#ArialMT-75" x="66.699219"/>
       <use xlink:href="#ArialMT-67" x="122.314453"/>
       <use xlink:href="#ArialMT-20" x="177.929688"/>
       <use xlink:href="#ArialMT-27" x="205.712891"/>
       <use xlink:href="#ArialMT-32" x="224.804688"/>
       <use xlink:href="#ArialMT-32" x="280.419922"/>
      </g>
     </g>
    </g>
    <g id="xtick_11">
     <g id="line2d_11">
      <path d="M 131.167388 122.044263 
L 52.096282 76.392539 
" clip-path="url(#p1233cdc12e)" style="fill: none; stroke: #b0b0b0; stroke-width: 0.8; stroke-linecap: square"/>
     </g>
     <g id="text_11">
      <!-- Sep '22 -->
      <g style="fill: #808080" transform="translate(20.207076 75.618069)scale(0.08 -0.08)">
       <defs>
        <path id="ArialMT-53" d="M 288 1472 
L 859 1522 
Q 900 1178 1048 958 
Q 1197 738 1509 602 
Q 1822 466 2213 466 
Q 2559 466 2825 569 
Q 3091 672 3220 851 
Q 3350 1031 3350 1244 
Q 3350 1459 3225 1620 
Q 3100 1781 2813 1891 
Q 2628 1963 1997 2114 
Q 1366 2266 1113 2400 
Q 784 2572 623 2826 
Q 463 3081 463 3397 
Q 463 3744 659 4045 
Q 856 4347 1234 4503 
Q 1613 4659 2075 4659 
Q 2584 4659 2973 4495 
Q 3363 4331 3572 4012 
Q 3781 3694 3797 3291 
L 3216 3247 
Q 3169 3681 2898 3903 
Q 2628 4125 2100 4125 
Q 1550 4125 1298 3923 
Q 1047 3722 1047 3438 
Q 1047 3191 1225 3031 
Q 1400 2872 2139 2705 
Q 2878 2538 3153 2413 
Q 3553 2228 3743 1945 
Q 3934 1663 3934 1294 
Q 3934 928 3725 604 
Q 3516 281 3123 101 
Q 2731 -78 2241 -78 
Q 1619 -78 1198 103 
Q 778 284 539 648 
Q 300 1013 288 1472 
z
" transform="scale(0.015625)"/>
        <path id="ArialMT-65" d="M 2694 1069 
L 3275 997 
Q 3138 488 2766 206 
Q 2394 -75 1816 -75 
Q 1088 -75 661 373 
Q 234 822 234 1631 
Q 234 2469 665 2931 
Q 1097 3394 1784 3394 
Q 2450 3394 2872 2941 
Q 3294 2488 3294 1666 
Q 3294 1616 3291 1516 
L 816 1516 
Q 847 969 1125 678 
Q 1403 388 1819 388 
Q 2128 388 2347 550 
Q 2566 713 2694 1069 
z
M 847 1978 
L 2700 1978 
Q 2663 2397 2488 2606 
Q 2219 2931 1791 2931 
Q 1403 2931 1139 2672 
Q 875 2413 847 1978 
z
" transform="scale(0.015625)"/>
       </defs>
       <use xlink:href="#ArialMT-53"/>
       <use xlink:href="#ArialMT-65" x="66.699219"/>
       <use xlink:href="#ArialMT-70" x="122.314453"/>
       <use xlink:href="#ArialMT-20" x="177.929688"/>
       <use xlink:href="#ArialMT-27" x="205.712891"/>
       <use xlink:href="#ArialMT-32" x="224.804688"/>
       <use xlink:href="#ArialMT-32" x="280.419922"/>
      </g>
     </g>
    </g>
    <g id="xtick_12">
     <g id="line2d_12">
      <path d="M 131.167388 122.044263 
L 85.515664 42.973157 
" clip-path="url(#p1233cdc12e)" style="fill: none; stroke: #b0b0b0; stroke-width: 0.8; stroke-linecap: square"/>
     </g>
     <g id="text_12">
      <!-- Nov '22 -->
      <g style="fill: #808080" transform="translate(55.750569 40.033326)scale(0.08 -0.08)">
       <defs>
        <path id="ArialMT-4e" d="M 488 0 
L 488 4581 
L 1109 4581 
L 3516 984 
L 3516 4581 
L 4097 4581 
L 4097 0 
L 3475 0 
L 1069 3600 
L 1069 0 
L 488 0 
z
" transform="scale(0.015625)"/>
        <path id="ArialMT-6f" d="M 213 1659 
Q 213 2581 725 3025 
Q 1153 3394 1769 3394 
Q 2453 3394 2887 2945 
Q 3322 2497 3322 1706 
Q 3322 1066 3130 698 
Q 2938 331 2570 128 
Q 2203 -75 1769 -75 
Q 1072 -75 642 372 
Q 213 819 213 1659 
z
M 791 1659 
Q 791 1022 1069 705 
Q 1347 388 1769 388 
Q 2188 388 2466 706 
Q 2744 1025 2744 1678 
Q 2744 2294 2464 2611 
Q 2184 2928 1769 2928 
Q 1347 2928 1069 2612 
Q 791 2297 791 1659 
z
" transform="scale(0.015625)"/>
        <path id="ArialMT-76" d="M 1344 0 
L 81 3319 
L 675 3319 
L 1388 1331 
Q 1503 1009 1600 663 
Q 1675 925 1809 1294 
L 2547 3319 
L 3125 3319 
L 1869 0 
L 1344 0 
z
" transform="scale(0.015625)"/>
       </defs>
       <use xlink:href="#ArialMT-4e"/>
       <use xlink:href="#ArialMT-6f" x="72.216797"/>
       <use xlink:href="#ArialMT-76" x="127.832031"/>
       <use xlink:href="#ArialMT-20" x="177.832031"/>
       <use xlink:href="#ArialMT-27" x="205.615234"/>
       <use xlink:href="#ArialMT-32" x="224.707031"/>
       <use xlink:href="#ArialMT-32" x="280.322266"/>
      </g>
     </g>
    </g>
   </g>
   <g id="matplotlib.axis_2">
    <g id="ytick_1">
     <g id="line2d_13">
      <path d="M 131.167388 85.522884 
C 135.561435 85.522884 139.919631 86.315884 144.032045 87.863687 
C 148.14446 89.411491 151.943987 91.688839 155.247606 94.586036 
C 158.551226 97.483233 161.305029 100.953 163.376369 104.828204 
C 165.447708 108.703407 166.802783 112.920811 167.376322 117.277266 
C 167.94986 121.633722 167.732502 126.05814 166.734718 130.337401 
C 165.736934 134.616663 163.975007 138.680937 161.533805 142.334454 
C 159.092603 145.987971 156.011963 149.17111 152.440277 151.730545 
C 148.86859 154.289979 144.86414 156.183943 140.619816 157.321206 
C 136.375493 158.458469 131.960555 158.820474 127.587667 158.389782 
C 123.214778 157.95909 118.955296 156.74273 115.014395 154.799292 
C 111.073494 152.855855 107.515482 150.217054 104.511745 147.009996 
C 101.508008 143.802939 99.107562 140.07996 97.426033 136.02039 
C 95.744504 131.960819 94.809332 127.630903 94.665563 123.239209 
C 94.521793 118.847514 95.171773 114.465706 96.584193 110.30485 
C 97.996614 106.143994 100.148426 102.271989 102.93598 98.875345 
C 105.723534 95.478701 109.101342 92.612844 112.906698 90.415821 
" clip-path="url(#p1233cdc12e)" style="fill: none; stroke: #b0b0b0; stroke-width: 0.8; stroke-linecap: square"/>
     </g>
     <g id="text_13">
      <!-- 0 -->
      <g transform="translate(119.718638 87.591009)scale(0.08 -0.08)">
       <use xlink:href="#ArialMT-30"/>
      </g>
     </g>
    </g>
    <g id="ytick_2">
     <g id="line2d_14">
      <path d="M 131.167388 67.262194 
C 137.758459 67.262194 144.295752 68.451695 150.464374 70.7734 
C 156.632996 73.095105 162.332286 76.511128 167.287716 80.856923 
C 172.243145 85.202718 176.37385 90.407369 179.480859 96.220174 
C 182.587868 102.03298 184.620481 108.359085 185.480788 114.893768 
C 186.341096 121.428451 186.015059 128.065078 184.518384 134.48397 
C 183.021708 140.902862 180.378816 146.999274 176.717013 152.47955 
C 173.055211 157.959825 168.434251 162.734534 163.076721 166.573686 
C 157.719191 170.412838 151.712516 173.253783 145.346031 174.959678 
C 138.979545 176.665573 132.357139 177.208579 125.797806 176.562541 
C 119.238473 175.916503 112.84925 174.091963 106.937898 171.176807 
C 101.026547 168.261651 95.689529 164.303449 91.183924 159.492863 
C 86.678319 154.682278 83.077649 149.097808 80.555356 143.008453 
C 78.033062 136.919097 76.630304 130.424224 76.41465 123.836682 
C 76.198996 117.24914 77.173966 110.676427 79.292596 104.435144 
C 81.411226 98.19386 84.638945 92.385853 88.820276 87.290886 
C 93.001607 82.19592 98.068319 77.897135 103.776353 74.601599 
" clip-path="url(#p1233cdc12e)" style="fill: none; stroke: #b0b0b0; stroke-width: 0.8; stroke-linecap: square"/>
     </g>
     <g id="text_14">
      <!-- 0.5 -->
      <g transform="translate(113.047388 69.330319)scale(0.08 -0.08)">
       <defs>
        <path id="ArialMT-2e" d="M 581 0 
L 581 641 
L 1222 641 
L 1222 0 
L 581 0 
z
" transform="scale(0.015625)"/>
        <path id="ArialMT-35" d="M 266 1200 
L 856 1250 
Q 922 819 1161 601 
Q 1400 384 1738 384 
Q 2144 384 2425 690 
Q 2706 997 2706 1503 
Q 2706 1984 2436 2262 
Q 2166 2541 1728 2541 
Q 1456 2541 1237 2417 
Q 1019 2294 894 2097 
L 366 2166 
L 809 4519 
L 3088 4519 
L 3088 3981 
L 1259 3981 
L 1013 2750 
Q 1425 3038 1878 3038 
Q 2478 3038 2890 2622 
Q 3303 2206 3303 1553 
Q 3303 931 2941 478 
Q 2500 -78 1738 -78 
Q 1113 -78 717 272 
Q 322 622 266 1200 
z
" transform="scale(0.015625)"/>
       </defs>
       <use xlink:href="#ArialMT-30"/>
       <use xlink:href="#ArialMT-2e" x="55.615234"/>
       <use xlink:href="#ArialMT-35" x="83.398438"/>
      </g>
     </g>
    </g>
    <g id="ytick_3">
     <g id="line2d_15">
      <path d="M 131.167388 49.001504 
C 139.955482 49.001504 148.671873 50.587506 156.896703 53.683112 
C 165.121533 56.778719 172.720586 61.333416 179.327825 67.127809 
C 185.935064 72.922203 191.442671 79.861737 195.58535 87.612145 
C 199.728029 95.362552 202.438179 103.797359 203.585255 112.51027 
C 204.732332 121.223181 204.297616 130.072017 202.302049 138.630539 
C 200.306481 147.189062 196.782626 155.317612 191.900222 162.624645 
C 187.017818 169.931679 180.856539 176.297958 173.713166 181.416827 
C 166.569792 186.535696 158.560892 190.323623 150.072245 192.59815 
C 141.583597 194.872676 132.753723 195.596684 124.007945 194.7353 
C 115.262168 193.873917 106.743204 191.441197 98.861402 187.554322 
C 90.979599 183.667447 83.863576 178.389845 77.856103 171.97573 
C 71.848629 165.561616 67.047736 158.115657 63.684678 149.996516 
C 60.32162 141.877376 58.451276 133.217544 58.163737 124.434155 
C 57.876199 115.650766 59.176159 106.887149 62.000999 98.565438 
C 64.825839 90.243726 69.129464 82.499716 74.704572 75.706427 
C 80.27968 68.913138 87.035296 63.181426 94.646009 58.787378 
" clip-path="url(#p1233cdc12e)" style="fill: none; stroke: #b0b0b0; stroke-width: 0.8; stroke-linecap: square"/>
     </g>
     <g id="text_15">
      <!-- 1 -->
      <g transform="translate(119.718638 51.069629)scale(0.08 -0.08)">
       <use xlink:href="#ArialMT-31"/>
      </g>
     </g>
    </g>
    <g id="ytick_4">
     <g id="line2d_16">
      <path d="M 131.167388 30.740815 
C 142.152506 30.740815 153.047995 32.723316 163.329032 36.592825 
C 173.610069 40.462333 183.108885 46.155704 191.367934 53.398696 
C 199.626983 60.641688 206.511491 69.316106 211.68984 79.004115 
C 216.868189 88.692124 220.255877 99.235633 221.689722 110.126771 
C 223.123568 121.01791 222.580174 132.078955 220.085714 142.777109 
C 217.591254 153.475262 213.186435 163.635949 207.08343 172.769741 
C 200.980426 181.903533 193.278827 189.861382 184.34961 196.259968 
C 175.420393 202.658554 165.409268 207.393464 154.798459 210.236621 
C 144.18765 213.079779 133.150307 213.98479 122.218085 212.90806 
C 111.285863 211.83133 100.637158 208.79043 90.784905 203.931837 
C 80.932652 199.073243 72.037623 192.47624 64.528281 184.458597 
C 57.018939 176.440954 51.017823 167.133505 46.814001 156.98458 
C 42.610178 146.835654 40.272248 136.010864 39.912825 125.031628 
C 39.553402 114.052391 41.178351 103.09787 44.709402 92.695731 
C 48.240452 82.293592 53.619983 72.61358 60.588868 64.121968 
C 67.557753 55.630357 76.002272 48.465716 85.515664 42.973157 
" clip-path="url(#p1233cdc12e)" style="fill: none; stroke: #b0b0b0; stroke-width: 0.8; stroke-linecap: square"/>
     </g>
     <g id="text_16">
      <!-- 1.5 -->
      <g transform="translate(113.047388 32.80894)scale(0.08 -0.08)">
       <use xlink:href="#ArialMT-31"/>
       <use xlink:href="#ArialMT-2e" x="55.615234"/>
       <use xlink:href="#ArialMT-35" x="83.398438"/>
      </g>
     </g>
    </g>
   </g>
   <g id="patch_3">
    <path d="M 85.515664 42.973157 
C 76.002272 48.465716 67.557753 55.630357 60.588868 64.121968 
C 53.619983 72.61358 48.240452 82.293592 44.709402 92.695731 
C 41.178351 103.09787 39.553402 114.052391 39.912825 125.031628 
C 40.272248 136.010864 42.610178 146.835654 46.814001 156.98458 
C 51.017823 167.133505 57.018939 176.440954 64.528281 184.458597 
C 72.037623 192.47624 80.932652 199.073243 90.784905 203.931837 
C 100.637158 208.79043 111.285863 211.83133 122.218085 212.90806 
C 133.150307 213.98479 144.18765 213.079779 154.798459 210.236621 
C 165.409268 207.393464 175.420393 202.658554 184.34961 196.259968 
C 193.278827 189.861382 200.980426 181.903533 207.08343 172.769741 
C 213.186435 163.635949 217.591254 153.475262 220.085714 142.777109 
C 222.580174 132.078955 223.123568 121.01791 221.689722 110.126771 
C 220.255877 99.235633 216.868189 88.692124 211.68984 79.004115 
C 206.511491 69.316106 199.626983 60.641688 191.367934 53.398696 
C 183.108885 46.155704 173.610069 40.462333 163.329032 36.592825 
C 153.047995 32.723316 142.152506 30.740815 131.167388 30.740815 
" style="fill: none; stroke: #000000; stroke-width: 0.8; stroke-linejoin: miter; stroke-linecap: square"/>
   </g>
   <g id="patch_4">
    <path d="M 131.167388 122.044263 
L 131.167388 30.740815 
" style="fill: none; stroke: #000000; stroke-width: 0.8; stroke-linejoin: miter; stroke-linecap: square"/>
   </g>
   <g id="patch_5">
    <path d="M 131.167388 122.044263 
L 85.515664 42.973157 
" style="fill: none; stroke: #000000; stroke-width: 0.8; stroke-linejoin: miter; stroke-linecap: square"/>
   </g>
   <g id="text_17">
    <!-- a Ammonia [USD kg$^\mathrm{-1}$ CO$_\mathrm{2}$-eq] -->
    <g transform="translate(65.098485 15.3)scale(0.09 -0.09)">
     <defs>
      <path id="Arial-BoldMT-61" d="M 1116 2306 
L 319 2450 
Q 453 2931 781 3162 
Q 1109 3394 1756 3394 
Q 2344 3394 2631 3255 
Q 2919 3116 3036 2902 
Q 3153 2688 3153 2116 
L 3144 1091 
Q 3144 653 3186 445 
Q 3228 238 3344 0 
L 2475 0 
Q 2441 88 2391 259 
Q 2369 338 2359 363 
Q 2134 144 1878 34 
Q 1622 -75 1331 -75 
Q 819 -75 523 203 
Q 228 481 228 906 
Q 228 1188 362 1408 
Q 497 1628 739 1745 
Q 981 1863 1438 1950 
Q 2053 2066 2291 2166 
L 2291 2253 
Q 2291 2506 2166 2614 
Q 2041 2722 1694 2722 
Q 1459 2722 1328 2630 
Q 1197 2538 1116 2306 
z
M 2291 1594 
Q 2122 1538 1756 1459 
Q 1391 1381 1278 1306 
Q 1106 1184 1106 997 
Q 1106 813 1243 678 
Q 1381 544 1594 544 
Q 1831 544 2047 700 
Q 2206 819 2256 991 
Q 2291 1103 2291 1419 
L 2291 1594 
z
" transform="scale(0.015625)"/>
      <path id="Arial-BoldMT-20" transform="scale(0.015625)"/>
      <path id="Arial-BoldMT-41" d="M 4597 0 
L 3591 0 
L 3191 1041 
L 1359 1041 
L 981 0 
L 0 0 
L 1784 4581 
L 2763 4581 
L 4597 0 
z
M 2894 1813 
L 2263 3513 
L 1644 1813 
L 2894 1813 
z
" transform="scale(0.015625)"/>
      <path id="Arial-BoldMT-6d" d="M 394 3319 
L 1203 3319 
L 1203 2866 
Q 1638 3394 2238 3394 
Q 2556 3394 2790 3262 
Q 3025 3131 3175 2866 
Q 3394 3131 3647 3262 
Q 3900 3394 4188 3394 
Q 4553 3394 4806 3245 
Q 5059 3097 5184 2809 
Q 5275 2597 5275 2122 
L 5275 0 
L 4397 0 
L 4397 1897 
Q 4397 2391 4306 2534 
Q 4184 2722 3931 2722 
Q 3747 2722 3584 2609 
Q 3422 2497 3350 2280 
Q 3278 2063 3278 1594 
L 3278 0 
L 2400 0 
L 2400 1819 
Q 2400 2303 2353 2443 
Q 2306 2584 2207 2653 
Q 2109 2722 1941 2722 
Q 1738 2722 1575 2612 
Q 1413 2503 1342 2297 
Q 1272 2091 1272 1613 
L 1272 0 
L 394 0 
L 394 3319 
z
" transform="scale(0.015625)"/>
      <path id="Arial-BoldMT-6f" d="M 256 1706 
Q 256 2144 472 2553 
Q 688 2963 1083 3178 
Q 1478 3394 1966 3394 
Q 2719 3394 3200 2905 
Q 3681 2416 3681 1669 
Q 3681 916 3195 420 
Q 2709 -75 1972 -75 
Q 1516 -75 1102 131 
Q 688 338 472 736 
Q 256 1134 256 1706 
z
M 1156 1659 
Q 1156 1166 1390 903 
Q 1625 641 1969 641 
Q 2313 641 2545 903 
Q 2778 1166 2778 1666 
Q 2778 2153 2545 2415 
Q 2313 2678 1969 2678 
Q 1625 2678 1390 2415 
Q 1156 2153 1156 1659 
z
" transform="scale(0.015625)"/>
      <path id="Arial-BoldMT-6e" d="M 3478 0 
L 2600 0 
L 2600 1694 
Q 2600 2231 2544 2389 
Q 2488 2547 2361 2634 
Q 2234 2722 2056 2722 
Q 1828 2722 1647 2597 
Q 1466 2472 1398 2265 
Q 1331 2059 1331 1503 
L 1331 0 
L 453 0 
L 453 3319 
L 1269 3319 
L 1269 2831 
Q 1703 3394 2363 3394 
Q 2653 3394 2893 3289 
Q 3134 3184 3257 3021 
Q 3381 2859 3429 2653 
Q 3478 2447 3478 2063 
L 3478 0 
z
" transform="scale(0.015625)"/>
      <path id="Arial-BoldMT-69" d="M 459 3769 
L 459 4581 
L 1338 4581 
L 1338 3769 
L 459 3769 
z
M 459 0 
L 459 3319 
L 1338 3319 
L 1338 0 
L 459 0 
z
" transform="scale(0.015625)"/>
      <path id="Arial-BoldMT-5b" d="M 456 -1291 
L 456 4581 
L 2013 4581 
L 2013 3891 
L 1291 3891 
L 1291 -600 
L 2013 -600 
L 2013 -1291 
L 456 -1291 
z
" transform="scale(0.015625)"/>
      <path id="Arial-BoldMT-55" d="M 459 4581 
L 1384 4581 
L 1384 2100 
Q 1384 1509 1419 1334 
Q 1478 1053 1701 883 
Q 1925 713 2313 713 
Q 2706 713 2906 873 
Q 3106 1034 3147 1268 
Q 3188 1503 3188 2047 
L 3188 4581 
L 4113 4581 
L 4113 2175 
Q 4113 1350 4038 1009 
Q 3963 669 3761 434 
Q 3559 200 3221 61 
Q 2884 -78 2341 -78 
Q 1684 -78 1345 73 
Q 1006 225 809 467 
Q 613 709 550 975 
Q 459 1369 459 2138 
L 459 4581 
z
" transform="scale(0.015625)"/>
      <path id="Arial-BoldMT-53" d="M 231 1491 
L 1131 1578 
Q 1213 1125 1461 912 
Q 1709 700 2131 700 
Q 2578 700 2804 889 
Q 3031 1078 3031 1331 
Q 3031 1494 2936 1608 
Q 2841 1722 2603 1806 
Q 2441 1863 1863 2006 
Q 1119 2191 819 2459 
Q 397 2838 397 3381 
Q 397 3731 595 4036 
Q 794 4341 1167 4500 
Q 1541 4659 2069 4659 
Q 2931 4659 3367 4281 
Q 3803 3903 3825 3272 
L 2900 3231 
Q 2841 3584 2645 3739 
Q 2450 3894 2059 3894 
Q 1656 3894 1428 3728 
Q 1281 3622 1281 3444 
Q 1281 3281 1419 3166 
Q 1594 3019 2269 2859 
Q 2944 2700 3267 2529 
Q 3591 2359 3773 2064 
Q 3956 1769 3956 1334 
Q 3956 941 3737 597 
Q 3519 253 3119 86 
Q 2719 -81 2122 -81 
Q 1253 -81 787 320 
Q 322 722 231 1491 
z
" transform="scale(0.015625)"/>
      <path id="Arial-BoldMT-44" d="M 463 4581 
L 2153 4581 
Q 2725 4581 3025 4494 
Q 3428 4375 3715 4072 
Q 4003 3769 4153 3330 
Q 4303 2891 4303 2247 
Q 4303 1681 4163 1272 
Q 3991 772 3672 463 
Q 3431 228 3022 97 
Q 2716 0 2203 0 
L 463 0 
L 463 4581 
z
M 1388 3806 
L 1388 772 
L 2078 772 
Q 2466 772 2638 816 
Q 2863 872 3011 1006 
Q 3159 1141 3253 1448 
Q 3347 1756 3347 2288 
Q 3347 2819 3253 3103 
Q 3159 3388 2990 3547 
Q 2822 3706 2563 3763 
Q 2369 3806 1803 3806 
L 1388 3806 
z
" transform="scale(0.015625)"/>
      <path id="Arial-BoldMT-6b" d="M 428 0 
L 428 4581 
L 1306 4581 
L 1306 2150 
L 2334 3319 
L 3416 3319 
L 2281 2106 
L 3497 0 
L 2550 0 
L 1716 1491 
L 1306 1063 
L 1306 0 
L 428 0 
z
" transform="scale(0.015625)"/>
      <path id="Arial-BoldMT-67" d="M 378 -219 
L 1381 -341 
Q 1406 -516 1497 -581 
Q 1622 -675 1891 -675 
Q 2234 -675 2406 -572 
Q 2522 -503 2581 -350 
Q 2622 -241 2622 53 
L 2622 538 
Q 2228 0 1628 0 
Q 959 0 569 566 
Q 263 1013 263 1678 
Q 263 2513 664 2953 
Q 1066 3394 1663 3394 
Q 2278 3394 2678 2853 
L 2678 3319 
L 3500 3319 
L 3500 341 
Q 3500 -247 3403 -537 
Q 3306 -828 3131 -993 
Q 2956 -1159 2664 -1253 
Q 2372 -1347 1925 -1347 
Q 1081 -1347 728 -1058 
Q 375 -769 375 -325 
Q 375 -281 378 -219 
z
M 1163 1728 
Q 1163 1200 1367 954 
Q 1572 709 1872 709 
Q 2194 709 2416 961 
Q 2638 1213 2638 1706 
Q 2638 2222 2425 2472 
Q 2213 2722 1888 2722 
Q 1572 2722 1367 2476 
Q 1163 2231 1163 1728 
z
" transform="scale(0.015625)"/>
      <path id="DejaVuSans-2212" d="M 678 2272 
L 4684 2272 
L 4684 1741 
L 678 1741 
L 678 2272 
z
" transform="scale(0.015625)"/>
      <path id="DejaVuSans-31" d="M 794 531 
L 1825 531 
L 1825 4091 
L 703 3866 
L 703 4441 
L 1819 4666 
L 2450 4666 
L 2450 531 
L 3481 531 
L 3481 0 
L 794 0 
L 794 531 
z
" transform="scale(0.015625)"/>
      <path id="Arial-BoldMT-43" d="M 3397 1684 
L 4294 1400 
Q 4088 650 3608 286 
Q 3128 -78 2391 -78 
Q 1478 -78 890 545 
Q 303 1169 303 2250 
Q 303 3394 893 4026 
Q 1484 4659 2447 4659 
Q 3288 4659 3813 4163 
Q 4125 3869 4281 3319 
L 3366 3100 
Q 3284 3456 3026 3662 
Q 2769 3869 2400 3869 
Q 1891 3869 1573 3503 
Q 1256 3138 1256 2319 
Q 1256 1450 1568 1081 
Q 1881 713 2381 713 
Q 2750 713 3015 947 
Q 3281 1181 3397 1684 
z
" transform="scale(0.015625)"/>
      <path id="Arial-BoldMT-4f" d="M 278 2263 
Q 278 2963 488 3438 
Q 644 3788 914 4066 
Q 1184 4344 1506 4478 
Q 1934 4659 2494 4659 
Q 3506 4659 4114 4031 
Q 4722 3403 4722 2284 
Q 4722 1175 4119 548 
Q 3516 -78 2506 -78 
Q 1484 -78 881 545 
Q 278 1169 278 2263 
z
M 1231 2294 
Q 1231 1516 1590 1114 
Q 1950 713 2503 713 
Q 3056 713 3411 1111 
Q 3766 1509 3766 2306 
Q 3766 3094 3420 3481 
Q 3075 3869 2503 3869 
Q 1931 3869 1581 3476 
Q 1231 3084 1231 2294 
z
" transform="scale(0.015625)"/>
      <path id="DejaVuSans-32" d="M 1228 531 
L 3431 531 
L 3431 0 
L 469 0 
L 469 531 
Q 828 903 1448 1529 
Q 2069 2156 2228 2338 
Q 2531 2678 2651 2914 
Q 2772 3150 2772 3378 
Q 2772 3750 2511 3984 
Q 2250 4219 1831 4219 
Q 1534 4219 1204 4116 
Q 875 4013 500 3803 
L 500 4441 
Q 881 4594 1212 4672 
Q 1544 4750 1819 4750 
Q 2544 4750 2975 4387 
Q 3406 4025 3406 3419 
Q 3406 3131 3298 2873 
Q 3191 2616 2906 2266 
Q 2828 2175 2409 1742 
Q 1991 1309 1228 531 
z
" transform="scale(0.015625)"/>
      <path id="Arial-BoldMT-2d" d="M 359 1222 
L 359 2100 
L 2084 2100 
L 2084 1222 
L 359 1222 
z
" transform="scale(0.015625)"/>
      <path id="Arial-BoldMT-65" d="M 2381 1056 
L 3256 909 
Q 3088 428 2723 176 
Q 2359 -75 1813 -75 
Q 947 -75 531 491 
Q 203 944 203 1634 
Q 203 2459 634 2926 
Q 1066 3394 1725 3394 
Q 2466 3394 2894 2905 
Q 3322 2416 3303 1406 
L 1103 1406 
Q 1113 1016 1316 798 
Q 1519 581 1822 581 
Q 2028 581 2168 693 
Q 2309 806 2381 1056 
z
M 2431 1944 
Q 2422 2325 2234 2523 
Q 2047 2722 1778 2722 
Q 1491 2722 1303 2513 
Q 1116 2303 1119 1944 
L 2431 1944 
z
" transform="scale(0.015625)"/>
      <path id="Arial-BoldMT-71" d="M 2628 -1263 
L 2628 406 
Q 2456 184 2200 54 
Q 1944 -75 1647 -75 
Q 1081 -75 716 350 
Q 284 847 284 1697 
Q 284 2497 689 2945 
Q 1094 3394 1694 3394 
Q 2025 3394 2267 3253 
Q 2509 3113 2697 2828 
L 2697 3319 
L 3506 3319 
L 3506 -1263 
L 2628 -1263 
z
M 2656 1700 
Q 2656 2209 2448 2457 
Q 2241 2706 1928 2706 
Q 1609 2706 1395 2453 
Q 1181 2200 1181 1650 
Q 1181 1103 1387 861 
Q 1594 619 1897 619 
Q 2200 619 2428 891 
Q 2656 1163 2656 1700 
z
" transform="scale(0.015625)"/>
      <path id="Arial-BoldMT-5d" d="M 1675 4581 
L 1675 -1291 
L 119 -1291 
L 119 -600 
L 841 -600 
L 841 3897 
L 119 3897 
L 119 4581 
L 1675 4581 
z
" transform="scale(0.015625)"/>
     </defs>
     <use xlink:href="#Arial-BoldMT-61" transform="translate(0 0.684375)"/>
     <use xlink:href="#Arial-BoldMT-20" transform="translate(55.615234 0.684375)"/>
     <use xlink:href="#Arial-BoldMT-41" transform="translate(83.398438 0.684375)"/>
     <use xlink:href="#Arial-BoldMT-6d" transform="translate(155.615234 0.684375)"/>
     <use xlink:href="#Arial-BoldMT-6d" transform="translate(244.53125 0.684375)"/>
     <use xlink:href="#Arial-BoldMT-6f" transform="translate(333.447266 0.684375)"/>
     <use xlink:href="#Arial-BoldMT-6e" transform="translate(394.53125 0.684375)"/>
     <use xlink:href="#Arial-BoldMT-69" transform="translate(455.615234 0.684375)"/>
     <use xlink:href="#Arial-BoldMT-61" transform="translate(483.398438 0.684375)"/>
     <use xlink:href="#Arial-BoldMT-20" transform="translate(539.013672 0.684375)"/>
     <use xlink:href="#Arial-BoldMT-5b" transform="translate(566.796875 0.684375)"/>
     <use xlink:href="#Arial-BoldMT-55" transform="translate(600.097656 0.684375)"/>
     <use xlink:href="#Arial-BoldMT-53" transform="translate(672.314453 0.684375)"/>
     <use xlink:href="#Arial-BoldMT-44" transform="translate(739.013672 0.684375)"/>
     <use xlink:href="#Arial-BoldMT-20" transform="translate(811.230469 0.684375)"/>
     <use xlink:href="#Arial-BoldMT-6b" transform="translate(839.013672 0.684375)"/>
     <use xlink:href="#Arial-BoldMT-67" transform="translate(894.628906 0.684375)"/>
     <use xlink:href="#DejaVuSans-2212" transform="translate(956.669922 38.965625)scale(0.7)"/>
     <use xlink:href="#DejaVuSans-31" transform="translate(1015.322266 38.965625)scale(0.7)"/>
     <use xlink:href="#Arial-BoldMT-20" transform="translate(1062.592773 0.684375)"/>
     <use xlink:href="#Arial-BoldMT-43" transform="translate(1090.375977 0.684375)"/>
     <use xlink:href="#Arial-BoldMT-4f" transform="translate(1162.592773 0.684375)"/>
     <use xlink:href="#DejaVuSans-32" transform="translate(1241.333008 -15.721875)scale(0.7)"/>
     <use xlink:href="#Arial-BoldMT-2d" transform="translate(1288.603516 0.684375)"/>
     <use xlink:href="#Arial-BoldMT-65" transform="translate(1321.904297 0.684375)"/>
     <use xlink:href="#Arial-BoldMT-71" transform="translate(1377.519531 0.684375)"/>
     <use xlink:href="#Arial-BoldMT-5d" transform="translate(1438.603516 0.684375)"/>
    </g>
   </g>
   <g id="PolyCollection_1">
    <defs>
     <path id="m2b2921d344" d="M 131.167388 -165.271313 
L 131.167388 -130.210789 
L 131.167388 -130.210789 
L 131.167388 -130.210789 
L 131.167388 -130.210789 
L 131.167388 -130.210789 
L 131.167388 -130.210789 
L 131.167388 -130.210789 
L 131.167388 -130.210789 
L 131.167388 -130.210789 
L 131.167388 -130.210789 
L 131.167388 -130.210789 
L 131.167388 -130.210789 
L 131.167388 -130.210789 
L 131.167388 -130.210789 
L 131.167388 -130.210789 
L 131.167388 -130.210789 
L 131.167388 -130.210789 
L 131.167388 -130.210789 
L 131.167388 -130.210789 
L 131.167388 -130.210789 
L 131.167388 -130.210789 
L 131.167388 -130.210789 
L 131.167388 -130.210789 
L 131.167388 -130.210789 
L 131.167388 -130.210789 
L 131.167388 -130.210789 
L 131.167388 -130.210789 
L 131.167388 -130.210789 
L 131.167388 -130.210789 
L 131.167388 -130.210789 
L 131.167388 -130.210789 
L 131.167388 -130.210789 
L 131.167388 -130.210789 
L 131.167388 -130.210789 
L 131.167388 -130.210789 
L 131.167388 -130.210789 
L 131.167388 -130.210789 
L 131.167388 -130.210789 
L 131.167388 -130.210789 
L 131.167388 -130.210789 
L 131.167388 -130.210789 
L 131.167388 -130.210789 
L 131.167388 -130.210789 
L 131.167388 -130.210789 
L 131.167388 -130.210789 
L 131.167388 -130.210789 
L 131.167388 -130.210789 
L 131.167388 -165.271313 
L 131.167388 -165.271313 
L 125.079192 -164.738665 
L 119.175982 -163.156905 
L 113.637126 -160.574094 
L 109.823893 -158.026173 
L 106.375853 -155.002324 
L 103.352004 -151.554284 
L 100.804083 -147.741051 
L 98.221272 -142.202195 
L 96.639512 -136.298986 
L 96.106864 -130.210789 
L 96.298929 -126.545967 
L 96.87302 -122.921297 
L 97.822848 -119.376492 
L 99.138005 -115.95039 
L 100.804083 -112.680527 
L 103.352004 -108.867295 
L 106.375853 -105.419255 
L 109.823893 -102.395406 
L 113.637126 -99.847485 
L 119.175982 -97.264674 
L 125.079192 -95.682913 
L 131.167388 -95.150265 
L 134.83221 -95.342331 
L 138.456881 -95.916422 
L 142.001686 -96.86625 
L 145.427788 -98.181407 
L 148.69765 -99.847485 
L 152.510883 -102.395406 
L 155.958922 -105.419255 
L 158.982772 -108.867295 
L 161.530692 -112.680527 
L 164.113504 -118.219384 
L 165.695264 -124.122593 
L 166.227912 -130.210789 
L 166.035847 -133.875612 
L 165.461755 -137.500282 
L 164.511928 -141.045087 
L 163.19677 -144.471189 
L 161.530692 -147.741051 
L 158.982772 -151.554284 
L 155.958922 -155.002324 
L 152.510883 -158.026173 
L 148.69765 -160.574094 
L 143.158793 -163.156905 
L 137.255584 -164.738665 
L 131.167388 -165.271313 
z
" style="stroke: #ffffff"/>
    </defs>
    <g>
     <use xlink:href="#m2b2921d344" x="0" y="252.255052" style="fill: #ffffff; stroke: #ffffff"/>
    </g>
   </g>
   <g id="line2d_17">
    <path d="M 131.167388 82.594465 
L 151.13478 87.459725 
L 166.40972 101.697093 
L 171.832302 122.044263 
L 166.925216 142.689055 
L 153.086087 160.008563 
L 131.167388 165.652398 
L 109.018699 160.406917 
L 91.328924 145.04501 
L 83.583279 122.044263 
L 90.588424 98.615987 
L 108.768489 83.248232 
" clip-path="url(#p1233cdc12e)" style="fill: none; stroke: #52318e; stroke-width: 1.5; stroke-linecap: square"/>
   </g>
   <g id="line2d_18">
    <path d="M 131.167388 33.64899 
L 174.0688 47.736837 
L 198.827166 82.980871 
L 209.378316 122.044263 
L 194.712771 158.732207 
L 159.795372 171.629386 
L 131.167388 188.612771 
L 99.480632 176.927334 
L 91.938971 144.6928 
L 103.681144 122.044263 
L 98.077187 102.939627 
L 100.997865 69.789117 
" clip-path="url(#p1233cdc12e)" style="fill: none; stroke: #b71205; stroke-width: 1.5; stroke-linecap: square"/>
   </g>
   <g id="line2d_19">
    <path d="M 131.167388 63.81736 
L 159.372271 73.191972 
L 177.510182 95.288238 
L 184.738418 122.044263 
L 174.626261 147.135255 
L 150.608875 155.717906 
L 131.167388 165.572185 
L 110.523168 157.8011 
L 106.383439 136.353282 
L 115.033576 122.044263 
L 110.685927 110.219286 
L 111.58665 88.12943 
" clip-path="url(#p1233cdc12e)" style="fill: none; stroke: #167f99; stroke-width: 1.5; stroke-linecap: square"/>
   </g>
   <g id="PathCollection_1">
    <defs>
     <path id="mce75486c75" d="M 0 2.738613 
L 1.643168 0 
L 0 -2.738613 
L -1.643168 0 
z
" style="stroke: #52318e"/>
    </defs>
    <g>
     <use xlink:href="#mce75486c75" x="131.167388" y="82.594465" style="fill: #a78dd8; stroke: #52318e"/>
     <use xlink:href="#mce75486c75" x="151.13478" y="87.459725" style="fill: #a78dd8; stroke: #52318e"/>
     <use xlink:href="#mce75486c75" x="166.40972" y="101.697093" style="fill: #a78dd8; stroke: #52318e"/>
     <use xlink:href="#mce75486c75" x="171.832302" y="122.044263" style="fill: #a78dd8; stroke: #52318e"/>
     <use xlink:href="#mce75486c75" x="166.925216" y="142.689055" style="fill: #a78dd8; stroke: #52318e"/>
     <use xlink:href="#mce75486c75" x="153.086087" y="160.008563" style="fill: #a78dd8; stroke: #52318e"/>
     <use xlink:href="#mce75486c75" x="131.167388" y="165.652398" style="fill: #a78dd8; stroke: #52318e"/>
     <use xlink:href="#mce75486c75" x="109.018699" y="160.406917" style="fill: #a78dd8; stroke: #52318e"/>
     <use xlink:href="#mce75486c75" x="91.328924" y="145.04501" style="fill: #a78dd8; stroke: #52318e"/>
     <use xlink:href="#mce75486c75" x="83.583279" y="122.044263" style="fill: #a78dd8; stroke: #52318e"/>
     <use xlink:href="#mce75486c75" x="90.588424" y="98.615987" style="fill: #a78dd8; stroke: #52318e"/>
     <use xlink:href="#mce75486c75" x="108.768489" y="83.248232" style="fill: #a78dd8; stroke: #52318e"/>
    </g>
   </g>
   <g id="PathCollection_2">
    <defs>
     <path id="m01e44b574c" d="M 0 -1.936492 
L -1.677051 -0.968246 
L -1.677051 0.968246 
L -0 1.936492 
L 1.677051 0.968246 
L 1.677051 -0.968246 
z
" style="stroke: #b71205"/>
    </defs>
    <g>
     <use xlink:href="#m01e44b574c" x="131.167388" y="33.64899" style="fill: #fb7b71; stroke: #b71205"/>
     <use xlink:href="#m01e44b574c" x="174.0688" y="47.736837" style="fill: #fb7b71; stroke: #b71205"/>
     <use xlink:href="#m01e44b574c" x="198.827166" y="82.980871" style="fill: #fb7b71; stroke: #b71205"/>
     <use xlink:href="#m01e44b574c" x="209.378316" y="122.044263" style="fill: #fb7b71; stroke: #b71205"/>
     <use xlink:href="#m01e44b574c" x="194.712771" y="158.732207" style="fill: #fb7b71; stroke: #b71205"/>
     <use xlink:href="#m01e44b574c" x="159.795372" y="171.629386" style="fill: #fb7b71; stroke: #b71205"/>
     <use xlink:href="#m01e44b574c" x="131.167388" y="188.612771" style="fill: #fb7b71; stroke: #b71205"/>
     <use xlink:href="#m01e44b574c" x="99.480632" y="176.927334" style="fill: #fb7b71; stroke: #b71205"/>
     <use xlink:href="#m01e44b574c" x="91.938971" y="144.6928" style="fill: #fb7b71; stroke: #b71205"/>
     <use xlink:href="#m01e44b574c" x="103.681144" y="122.044263" style="fill: #fb7b71; stroke: #b71205"/>
     <use xlink:href="#m01e44b574c" x="98.077187" y="102.939627" style="fill: #fb7b71; stroke: #b71205"/>
     <use xlink:href="#m01e44b574c" x="100.997865" y="69.789117" style="fill: #fb7b71; stroke: #b71205"/>
    </g>
   </g>
   <g id="PathCollection_3">
    <defs>
     <path id="m816a4ba86d" d="M 0 -1.936492 
L -1.936492 1.936492 
L 1.936492 1.936492 
z
" style="stroke: #167f99"/>
    </defs>
    <g>
     <use xlink:href="#m816a4ba86d" x="131.167388" y="63.81736" style="fill: #6dd2ea; stroke: #167f99"/>
     <use xlink:href="#m816a4ba86d" x="159.372271" y="73.191972" style="fill: #6dd2ea; stroke: #167f99"/>
     <use xlink:href="#m816a4ba86d" x="177.510182" y="95.288238" style="fill: #6dd2ea; stroke: #167f99"/>
     <use xlink:href="#m816a4ba86d" x="184.738418" y="122.044263" style="fill: #6dd2ea; stroke: #167f99"/>
     <use xlink:href="#m816a4ba86d" x="174.626261" y="147.135255" style="fill: #6dd2ea; stroke: #167f99"/>
     <use xlink:href="#m816a4ba86d" x="150.608875" y="155.717906" style="fill: #6dd2ea; stroke: #167f99"/>
     <use xlink:href="#m816a4ba86d" x="131.167388" y="165.572185" style="fill: #6dd2ea; stroke: #167f99"/>
     <use xlink:href="#m816a4ba86d" x="110.523168" y="157.8011" style="fill: #6dd2ea; stroke: #167f99"/>
     <use xlink:href="#m816a4ba86d" x="106.383439" y="136.353282" style="fill: #6dd2ea; stroke: #167f99"/>
     <use xlink:href="#m816a4ba86d" x="115.033576" y="122.044263" style="fill: #6dd2ea; stroke: #167f99"/>
     <use xlink:href="#m816a4ba86d" x="110.685927" y="110.219286" style="fill: #6dd2ea; stroke: #167f99"/>
     <use xlink:href="#m816a4ba86d" x="111.58665" y="88.12943" style="fill: #6dd2ea; stroke: #167f99"/>
    </g>
   </g>
  </g>
  <g id="axes_2">
   <g id="patch_6">
    <path d="M 340.395664 42.973157 
C 330.882272 48.465716 322.437753 55.630357 315.468868 64.121968 
C 308.499983 72.61358 303.120452 82.293592 299.589402 92.695731 
C 296.058351 103.09787 294.433402 114.052391 294.792825 125.031628 
C 295.152248 136.010864 297.490178 146.835654 301.694001 156.98458 
C 305.897823 167.133505 311.898939 176.440954 319.408281 184.458597 
C 326.917623 192.47624 335.812652 199.073243 345.664905 203.931837 
C 355.517158 208.79043 366.165863 211.83133 377.098085 212.90806 
C 388.030307 213.98479 399.06765 213.079779 409.678459 210.236621 
C 420.289268 207.393464 430.300393 202.658554 439.22961 196.259968 
C 448.158827 189.861382 455.860426 181.903533 461.96343 172.769741 
C 468.066435 163.635949 472.471254 153.475262 474.965714 142.777109 
C 477.460174 132.078955 478.003568 121.01791 476.569722 110.126771 
C 475.135877 99.235633 471.748189 88.692124 466.56984 79.004115 
C 461.391491 69.316106 454.506983 60.641688 446.247934 53.398696 
C 437.988885 46.155704 428.490069 40.462333 418.209032 36.592825 
C 407.927995 32.723316 397.032506 30.740815 386.047388 30.740815 
L 386.047388 122.044263 
C 386.047388 122.044263 386.047388 122.044263 386.047388 122.044263 
C 386.047388 122.044263 386.047388 122.044263 386.047388 122.044263 
C 386.047388 122.044263 386.047388 122.044263 386.047388 122.044263 
C 386.047388 122.044263 386.047388 122.044263 386.047388 122.044263 
C 386.047388 122.044263 386.047388 122.044263 386.047388 122.044263 
C 386.047388 122.044263 386.047388 122.044263 386.047388 122.044263 
C 386.047388 122.044263 386.047388 122.044263 386.047388 122.044263 
C 386.047388 122.044263 386.047388 122.044263 386.047388 122.044263 
C 386.047388 122.044263 386.047388 122.044263 386.047388 122.044263 
C 386.047388 122.044263 386.047388 122.044263 386.047388 122.044263 
C 386.047388 122.044263 386.047388 122.044263 386.047388 122.044263 
C 386.047388 122.044263 386.047388 122.044263 386.047388 122.044263 
C 386.047388 122.044263 386.047388 122.044263 386.047388 122.044263 
C 386.047388 122.044263 386.047388 122.044263 386.047388 122.044263 
C 386.047388 122.044263 386.047388 122.044263 386.047388 122.044263 
C 386.047388 122.044263 386.047388 122.044263 386.047388 122.044263 
L 340.395664 42.973157 
z
" style="fill: #ffffff; opacity: 0.05"/>
   </g>
   <g id="matplotlib.axis_3">
    <g id="xtick_13">
     <g id="line2d_20">
      <path d="M 386.047388 122.044263 
L 386.047388 30.740815 
" clip-path="url(#p537d7969fd)" style="fill: none; stroke: #b0b0b0; stroke-width: 0.8; stroke-linecap: square"/>
     </g>
     <g id="text_18">
      <!-- Jul '20 -->
      <g style="fill: #808080" transform="translate(374.610513 27.02625)scale(0.08 -0.08)">
       <use xlink:href="#ArialMT-4a"/>
       <use xlink:href="#ArialMT-75" x="50"/>
       <use xlink:href="#ArialMT-6c" x="105.615234"/>
       <use xlink:href="#ArialMT-20" x="127.832031"/>
       <use xlink:href="#ArialMT-27" x="155.615234"/>
       <use xlink:href="#ArialMT-32" x="174.707031"/>
       <use xlink:href="#ArialMT-30" x="230.322266"/>
      </g>
     </g>
    </g>
    <g id="xtick_14">
     <g id="line2d_21">
      <path d="M 386.047388 122.044263 
L 431.699112 42.973157 
" clip-path="url(#p537d7969fd)" style="fill: none; stroke: #b0b0b0; stroke-width: 0.8; stroke-linecap: square"/>
     </g>
     <g id="text_19">
      <!-- Oct '20 -->
      <g style="fill: #808080" transform="translate(434.590457 40.033326)scale(0.08 -0.08)">
       <use xlink:href="#ArialMT-4f"/>
       <use xlink:href="#ArialMT-63" x="77.783203"/>
       <use xlink:href="#ArialMT-74" x="127.783203"/>
       <use xlink:href="#ArialMT-20" x="155.566406"/>
       <use xlink:href="#ArialMT-27" x="183.349609"/>
       <use xlink:href="#ArialMT-32" x="202.441406"/>
       <use xlink:href="#ArialMT-30" x="258.056641"/>
      </g>
     </g>
    </g>
    <g id="xtick_15">
     <g id="line2d_22">
      <path d="M 386.047388 122.044263 
L 465.118493 76.392539 
" clip-path="url(#p537d7969fd)" style="fill: none; stroke: #b0b0b0; stroke-width: 0.8; stroke-linecap: square"/>
     </g>
     <g id="text_20">
      <!-- Jan '21 -->
      <g style="fill: #808080" transform="translate(470.126449 75.569319)scale(0.08 -0.08)">
       <use xlink:href="#ArialMT-4a"/>
       <use xlink:href="#ArialMT-61" x="50"/>
       <use xlink:href="#ArialMT-6e" x="105.615234"/>
       <use xlink:href="#ArialMT-20" x="161.230469"/>
       <use xlink:href="#ArialMT-27" x="189.013672"/>
       <use xlink:href="#ArialMT-32" x="208.105469"/>
       <use xlink:href="#ArialMT-31" x="263.720703"/>
      </g>
     </g>
    </g>
    <g id="xtick_16">
     <g id="line2d_23">
      <path d="M 386.047388 122.044263 
L 477.350836 122.044263 
" clip-path="url(#p537d7969fd)" style="fill: none; stroke: #b0b0b0; stroke-width: 0.8; stroke-linecap: square"/>
     </g>
     <g id="text_21">
      <!-- Apr '21 -->
      <g style="fill: #808080" transform="translate(483.133526 124.124263)scale(0.08 -0.08)">
       <use xlink:href="#ArialMT-41"/>
       <use xlink:href="#ArialMT-70" x="66.699219"/>
       <use xlink:href="#ArialMT-72" x="122.314453"/>
       <use xlink:href="#ArialMT-20" x="155.615234"/>
       <use xlink:href="#ArialMT-27" x="183.398438"/>
       <use xlink:href="#ArialMT-32" x="202.490234"/>
       <use xlink:href="#ArialMT-31" x="258.105469"/>
      </g>
     </g>
    </g>
    <g id="xtick_17">
     <g id="line2d_24">
      <path d="M 386.047388 122.044263 
L 465.118493 167.695987 
" clip-path="url(#p537d7969fd)" style="fill: none; stroke: #b0b0b0; stroke-width: 0.8; stroke-linecap: square"/>
     </g>
     <g id="text_22">
      <!-- Jul '21 -->
      <g style="fill: #808080" transform="translate(470.126449 172.655457)scale(0.08 -0.08)">
       <use xlink:href="#ArialMT-4a"/>
       <use xlink:href="#ArialMT-75" x="50"/>
       <use xlink:href="#ArialMT-6c" x="105.615234"/>
       <use xlink:href="#ArialMT-20" x="127.832031"/>
       <use xlink:href="#ArialMT-27" x="155.615234"/>
       <use xlink:href="#ArialMT-32" x="174.707031"/>
       <use xlink:href="#ArialMT-31" x="230.322266"/>
      </g>
     </g>
    </g>
    <g id="xtick_18">
     <g id="line2d_25">
      <path d="M 386.047388 122.044263 
L 431.699112 201.115368 
" clip-path="url(#p537d7969fd)" style="fill: none; stroke: #b0b0b0; stroke-width: 0.8; stroke-linecap: square"/>
     </g>
     <g id="text_23">
      <!-- Oct '21 -->
      <g style="fill: #808080" transform="translate(434.590457 208.191449)scale(0.08 -0.08)">
       <use xlink:href="#ArialMT-4f"/>
       <use xlink:href="#ArialMT-63" x="77.783203"/>
       <use xlink:href="#ArialMT-74" x="127.783203"/>
       <use xlink:href="#ArialMT-20" x="155.566406"/>
       <use xlink:href="#ArialMT-27" x="183.349609"/>
       <use xlink:href="#ArialMT-32" x="202.441406"/>
       <use xlink:href="#ArialMT-31" x="258.056641"/>
      </g>
     </g>
    </g>
    <g id="xtick_19">
     <g id="line2d_26">
      <path d="M 386.047388 122.044263 
L 386.047388 213.347711 
" clip-path="url(#p537d7969fd)" style="fill: none; stroke: #b0b0b0; stroke-width: 0.8; stroke-linecap: square"/>
     </g>
     <g id="text_24">
      <!-- Jan '22 -->
      <g style="fill: #808080" transform="translate(373.274888 221.198526)scale(0.08 -0.08)">
       <use xlink:href="#ArialMT-4a"/>
       <use xlink:href="#ArialMT-61" x="50"/>
       <use xlink:href="#ArialMT-6e" x="105.615234"/>
       <use xlink:href="#ArialMT-20" x="161.230469"/>
       <use xlink:href="#ArialMT-27" x="189.013672"/>
       <use xlink:href="#ArialMT-32" x="208.105469"/>
       <use xlink:href="#ArialMT-32" x="263.720703"/>
      </g>
     </g>
    </g>
    <g id="xtick_20">
     <g id="line2d_27">
      <path d="M 386.047388 122.044263 
L 340.395664 201.115368 
" clip-path="url(#p537d7969fd)" style="fill: none; stroke: #b0b0b0; stroke-width: 0.8; stroke-linecap: square"/>
     </g>
     <g id="text_25">
      <!-- Apr '22 -->
      <g style="fill: #808080" transform="translate(312.408069 208.203324)scale(0.08 -0.08)">
       <use xlink:href="#ArialMT-41"/>
       <use xlink:href="#ArialMT-70" x="66.699219"/>
       <use xlink:href="#ArialMT-72" x="122.314453"/>
       <use xlink:href="#ArialMT-20" x="155.615234"/>
       <use xlink:href="#ArialMT-27" x="183.398438"/>
       <use xlink:href="#ArialMT-32" x="202.490234"/>
       <use xlink:href="#ArialMT-32" x="258.105469"/>
      </g>
     </g>
    </g>
    <g id="xtick_21">
     <g id="line2d_28">
      <path d="M 386.047388 122.044263 
L 306.976282 167.695987 
" clip-path="url(#p537d7969fd)" style="fill: none; stroke: #b0b0b0; stroke-width: 0.8; stroke-linecap: square"/>
     </g>
     <g id="text_26">
      <!-- Jul '22 -->
      <g style="fill: #808080" transform="translate(279.094576 172.655457)scale(0.08 -0.08)">
       <use xlink:href="#ArialMT-4a"/>
       <use xlink:href="#ArialMT-75" x="50"/>
       <use xlink:href="#ArialMT-6c" x="105.615234"/>
       <use xlink:href="#ArialMT-20" x="127.832031"/>
       <use xlink:href="#ArialMT-27" x="155.615234"/>
       <use xlink:href="#ArialMT-32" x="174.707031"/>
       <use xlink:href="#ArialMT-32" x="230.322266"/>
      </g>
     </g>
    </g>
    <g id="xtick_22">
     <g id="line2d_29">
      <path d="M 386.047388 122.044263 
L 294.74394 122.044263 
" clip-path="url(#p537d7969fd)" style="fill: none; stroke: #b0b0b0; stroke-width: 0.8; stroke-linecap: square"/>
     </g>
     <g id="text_27">
      <!-- Aug '22 -->
      <g style="fill: #808080" transform="translate(262.08 124.077388)scale(0.08 -0.08)">
       <use xlink:href="#ArialMT-41"/>
       <use xlink:href="#ArialMT-75" x="66.699219"/>
       <use xlink:href="#ArialMT-67" x="122.314453"/>
       <use xlink:href="#ArialMT-20" x="177.929688"/>
       <use xlink:href="#ArialMT-27" x="205.712891"/>
       <use xlink:href="#ArialMT-32" x="224.804688"/>
       <use xlink:href="#ArialMT-32" x="280.419922"/>
      </g>
     </g>
    </g>
    <g id="xtick_23">
     <g id="line2d_30">
      <path d="M 386.047388 122.044263 
L 306.976282 76.392539 
" clip-path="url(#p537d7969fd)" style="fill: none; stroke: #b0b0b0; stroke-width: 0.8; stroke-linecap: square"/>
     </g>
     <g id="text_28">
      <!-- Sep '22 -->
      <g style="fill: #808080" transform="translate(275.087076 75.618069)scale(0.08 -0.08)">
       <use xlink:href="#ArialMT-53"/>
       <use xlink:href="#ArialMT-65" x="66.699219"/>
       <use xlink:href="#ArialMT-70" x="122.314453"/>
       <use xlink:href="#ArialMT-20" x="177.929688"/>
       <use xlink:href="#ArialMT-27" x="205.712891"/>
       <use xlink:href="#ArialMT-32" x="224.804688"/>
       <use xlink:href="#ArialMT-32" x="280.419922"/>
      </g>
     </g>
    </g>
    <g id="xtick_24">
     <g id="line2d_31">
      <path d="M 386.047388 122.044263 
L 340.395664 42.973157 
" clip-path="url(#p537d7969fd)" style="fill: none; stroke: #b0b0b0; stroke-width: 0.8; stroke-linecap: square"/>
     </g>
     <g id="text_29">
      <!-- Nov '22 -->
      <g style="fill: #808080" transform="translate(310.630569 40.033326)scale(0.08 -0.08)">
       <use xlink:href="#ArialMT-4e"/>
       <use xlink:href="#ArialMT-6f" x="72.216797"/>
       <use xlink:href="#ArialMT-76" x="127.832031"/>
       <use xlink:href="#ArialMT-20" x="177.832031"/>
       <use xlink:href="#ArialMT-27" x="205.615234"/>
       <use xlink:href="#ArialMT-32" x="224.707031"/>
       <use xlink:href="#ArialMT-32" x="280.322266"/>
      </g>
     </g>
    </g>
   </g>
   <g id="matplotlib.axis_4">
    <g id="ytick_5">
     <g id="line2d_32">
      <path d="M 386.047388 85.522884 
C 390.441435 85.522884 394.799631 86.315884 398.912045 87.863687 
C 403.02446 89.411491 406.823987 91.688839 410.127606 94.586036 
C 413.431226 97.483233 416.185029 100.953 418.256369 104.828204 
C 420.327708 108.703407 421.682783 112.920811 422.256322 117.277266 
C 422.82986 121.633722 422.612502 126.05814 421.614718 130.337401 
C 420.616934 134.616663 418.855007 138.680937 416.413805 142.334454 
C 413.972603 145.987971 410.891963 149.17111 407.320277 151.730545 
C 403.74859 154.289979 399.74414 156.183943 395.499816 157.321206 
C 391.255493 158.458469 386.840555 158.820474 382.467667 158.389782 
C 378.094778 157.95909 373.835296 156.74273 369.894395 154.799292 
C 365.953494 152.855855 362.395482 150.217054 359.391745 147.009996 
C 356.388008 143.802939 353.987562 140.07996 352.306033 136.02039 
C 350.624504 131.960819 349.689332 127.630903 349.545563 123.239209 
C 349.401793 118.847514 350.051773 114.465706 351.464193 110.30485 
C 352.876614 106.143994 355.028426 102.271989 357.81598 98.875345 
C 360.603534 95.478701 363.981342 92.612844 367.786698 90.415821 
" clip-path="url(#p537d7969fd)" style="fill: none; stroke: #b0b0b0; stroke-width: 0.8; stroke-linecap: square"/>
     </g>
     <g id="text_30">
      <!-- 0 -->
      <g transform="translate(374.598638 87.591009)scale(0.08 -0.08)">
       <use xlink:href="#ArialMT-30"/>
      </g>
     </g>
    </g>
    <g id="ytick_6">
     <g id="line2d_33">
      <path d="M 386.047388 67.262194 
C 392.638459 67.262194 399.175752 68.451695 405.344374 70.7734 
C 411.512996 73.095105 417.212286 76.511128 422.167716 80.856923 
C 427.123145 85.202718 431.25385 90.407369 434.360859 96.220174 
C 437.467868 102.03298 439.500481 108.359085 440.360788 114.893768 
C 441.221096 121.428451 440.895059 128.065078 439.398384 134.48397 
C 437.901708 140.902862 435.258816 146.999274 431.597013 152.47955 
C 427.935211 157.959825 423.314251 162.734534 417.956721 166.573686 
C 412.599191 170.412838 406.592516 173.253783 400.226031 174.959678 
C 393.859545 176.665573 387.237139 177.208579 380.677806 176.562541 
C 374.118473 175.916503 367.72925 174.091963 361.817898 171.176807 
C 355.906547 168.261651 350.569529 164.303449 346.063924 159.492863 
C 341.558319 154.682278 337.957649 149.097808 335.435356 143.008453 
C 332.913062 136.919097 331.510304 130.424224 331.29465 123.836682 
C 331.078996 117.24914 332.053966 110.676427 334.172596 104.435144 
C 336.291226 98.19386 339.518945 92.385853 343.700276 87.290886 
C 347.881607 82.19592 352.948319 77.897135 358.656353 74.601599 
" clip-path="url(#p537d7969fd)" style="fill: none; stroke: #b0b0b0; stroke-width: 0.8; stroke-linecap: square"/>
     </g>
     <g id="text_31">
      <!-- 3 -->
      <g transform="translate(374.598638 69.330319)scale(0.08 -0.08)">
       <defs>
        <path id="ArialMT-33" d="M 269 1209 
L 831 1284 
Q 928 806 1161 595 
Q 1394 384 1728 384 
Q 2125 384 2398 659 
Q 2672 934 2672 1341 
Q 2672 1728 2419 1979 
Q 2166 2231 1775 2231 
Q 1616 2231 1378 2169 
L 1441 2663 
Q 1497 2656 1531 2656 
Q 1891 2656 2178 2843 
Q 2466 3031 2466 3422 
Q 2466 3731 2256 3934 
Q 2047 4138 1716 4138 
Q 1388 4138 1169 3931 
Q 950 3725 888 3313 
L 325 3413 
Q 428 3978 793 4289 
Q 1159 4600 1703 4600 
Q 2078 4600 2393 4439 
Q 2709 4278 2876 4000 
Q 3044 3722 3044 3409 
Q 3044 3113 2884 2869 
Q 2725 2625 2413 2481 
Q 2819 2388 3044 2092 
Q 3269 1797 3269 1353 
Q 3269 753 2831 336 
Q 2394 -81 1725 -81 
Q 1122 -81 723 278 
Q 325 638 269 1209 
z
" transform="scale(0.015625)"/>
       </defs>
       <use xlink:href="#ArialMT-33"/>
      </g>
     </g>
    </g>
    <g id="ytick_7">
     <g id="line2d_34">
      <path d="M 386.047388 49.001504 
C 394.835482 49.001504 403.551873 50.587506 411.776703 53.683112 
C 420.001533 56.778719 427.600586 61.333416 434.207825 67.127809 
C 440.815064 72.922203 446.322671 79.861737 450.46535 87.612145 
C 454.608029 95.362552 457.318179 103.797359 458.465255 112.51027 
C 459.612332 121.223181 459.177616 130.072017 457.182049 138.630539 
C 455.186481 147.189062 451.662626 155.317612 446.780222 162.624645 
C 441.897818 169.931679 435.736539 176.297958 428.593166 181.416827 
C 421.449792 186.535696 413.440892 190.323623 404.952245 192.59815 
C 396.463597 194.872676 387.633723 195.596684 378.887945 194.7353 
C 370.142168 193.873917 361.623204 191.441197 353.741402 187.554322 
C 345.859599 183.667447 338.743576 178.389845 332.736103 171.97573 
C 326.728629 165.561616 321.927736 158.115657 318.564678 149.996516 
C 315.20162 141.877376 313.331276 133.217544 313.043737 124.434155 
C 312.756199 115.650766 314.056159 106.887149 316.880999 98.565438 
C 319.705839 90.243726 324.009464 82.499716 329.584572 75.706427 
C 335.15968 68.913138 341.915296 63.181426 349.526009 58.787378 
" clip-path="url(#p537d7969fd)" style="fill: none; stroke: #b0b0b0; stroke-width: 0.8; stroke-linecap: square"/>
     </g>
     <g id="text_32">
      <!-- 6 -->
      <g transform="translate(374.598638 51.069629)scale(0.08 -0.08)">
       <defs>
        <path id="ArialMT-36" d="M 3184 3459 
L 2625 3416 
Q 2550 3747 2413 3897 
Q 2184 4138 1850 4138 
Q 1581 4138 1378 3988 
Q 1113 3794 959 3422 
Q 806 3050 800 2363 
Q 1003 2672 1297 2822 
Q 1591 2972 1913 2972 
Q 2475 2972 2870 2558 
Q 3266 2144 3266 1488 
Q 3266 1056 3080 686 
Q 2894 316 2569 119 
Q 2244 -78 1831 -78 
Q 1128 -78 684 439 
Q 241 956 241 2144 
Q 241 3472 731 4075 
Q 1159 4600 1884 4600 
Q 2425 4600 2770 4297 
Q 3116 3994 3184 3459 
z
M 888 1484 
Q 888 1194 1011 928 
Q 1134 663 1356 523 
Q 1578 384 1822 384 
Q 2178 384 2434 671 
Q 2691 959 2691 1453 
Q 2691 1928 2437 2201 
Q 2184 2475 1800 2475 
Q 1419 2475 1153 2201 
Q 888 1928 888 1484 
z
" transform="scale(0.015625)"/>
       </defs>
       <use xlink:href="#ArialMT-36"/>
      </g>
     </g>
    </g>
    <g id="ytick_8">
     <g id="line2d_35">
      <path d="M 386.047388 30.740815 
C 397.032506 30.740815 407.927995 32.723316 418.209032 36.592825 
C 428.490069 40.462333 437.988885 46.155704 446.247934 53.398696 
C 454.506983 60.641688 461.391491 69.316106 466.56984 79.004115 
C 471.748189 88.692124 475.135877 99.235633 476.569722 110.126771 
C 478.003568 121.01791 477.460174 132.078955 474.965714 142.777109 
C 472.471254 153.475262 468.066435 163.635949 461.96343 172.769741 
C 455.860426 181.903533 448.158827 189.861382 439.22961 196.259968 
C 430.300393 202.658554 420.289268 207.393464 409.678459 210.236621 
C 399.06765 213.079779 388.030307 213.98479 377.098085 212.90806 
C 366.165863 211.83133 355.517158 208.79043 345.664905 203.931837 
C 335.812652 199.073243 326.917623 192.47624 319.408281 184.458597 
C 311.898939 176.440954 305.897823 167.133505 301.694001 156.98458 
C 297.490178 146.835654 295.152248 136.010864 294.792825 125.031628 
C 294.433402 114.052391 296.058351 103.09787 299.589402 92.695731 
C 303.120452 82.293592 308.499983 72.61358 315.468868 64.121968 
C 322.437753 55.630357 330.882272 48.465716 340.395664 42.973157 
" clip-path="url(#p537d7969fd)" style="fill: none; stroke: #b0b0b0; stroke-width: 0.8; stroke-linecap: square"/>
     </g>
     <g id="text_33">
      <!-- 9 -->
      <g transform="translate(374.598638 32.80894)scale(0.08 -0.08)">
       <defs>
        <path id="ArialMT-39" d="M 350 1059 
L 891 1109 
Q 959 728 1153 556 
Q 1347 384 1650 384 
Q 1909 384 2104 503 
Q 2300 622 2425 820 
Q 2550 1019 2634 1356 
Q 2719 1694 2719 2044 
Q 2719 2081 2716 2156 
Q 2547 1888 2255 1720 
Q 1963 1553 1622 1553 
Q 1053 1553 659 1965 
Q 266 2378 266 3053 
Q 266 3750 677 4175 
Q 1088 4600 1706 4600 
Q 2153 4600 2523 4359 
Q 2894 4119 3086 3673 
Q 3278 3228 3278 2384 
Q 3278 1506 3087 986 
Q 2897 466 2520 194 
Q 2144 -78 1638 -78 
Q 1100 -78 759 220 
Q 419 519 350 1059 
z
M 2653 3081 
Q 2653 3566 2395 3850 
Q 2138 4134 1775 4134 
Q 1400 4134 1122 3828 
Q 844 3522 844 3034 
Q 844 2597 1108 2323 
Q 1372 2050 1759 2050 
Q 2150 2050 2401 2323 
Q 2653 2597 2653 3081 
z
" transform="scale(0.015625)"/>
       </defs>
       <use xlink:href="#ArialMT-39"/>
      </g>
     </g>
    </g>
   </g>
   <g id="patch_7">
    <path d="M 340.395664 42.973157 
C 330.882272 48.465716 322.437753 55.630357 315.468868 64.121968 
C 308.499983 72.61358 303.120452 82.293592 299.589402 92.695731 
C 296.058351 103.09787 294.433402 114.052391 294.792825 125.031628 
C 295.152248 136.010864 297.490178 146.835654 301.694001 156.98458 
C 305.897823 167.133505 311.898939 176.440954 319.408281 184.458597 
C 326.917623 192.47624 335.812652 199.073243 345.664905 203.931837 
C 355.517158 208.79043 366.165863 211.83133 377.098085 212.90806 
C 388.030307 213.98479 399.06765 213.079779 409.678459 210.236621 
C 420.289268 207.393464 430.300393 202.658554 439.22961 196.259968 
C 448.158827 189.861382 455.860426 181.903533 461.96343 172.769741 
C 468.066435 163.635949 472.471254 153.475262 474.965714 142.777109 
C 477.460174 132.078955 478.003568 121.01791 476.569722 110.126771 
C 475.135877 99.235633 471.748189 88.692124 466.56984 79.004115 
C 461.391491 69.316106 454.506983 60.641688 446.247934 53.398696 
C 437.988885 46.155704 428.490069 40.462333 418.209032 36.592825 
C 407.927995 32.723316 397.032506 30.740815 386.047388 30.740815 
" style="fill: none; stroke: #000000; stroke-width: 0.8; stroke-linejoin: miter; stroke-linecap: square"/>
   </g>
   <g id="patch_8">
    <path d="M 386.047388 122.044263 
L 386.047388 30.740815 
" style="fill: none; stroke: #000000; stroke-width: 0.8; stroke-linejoin: miter; stroke-linecap: square"/>
   </g>
   <g id="patch_9">
    <path d="M 386.047388 122.044263 
L 340.395664 42.973157 
" style="fill: none; stroke: #000000; stroke-width: 0.8; stroke-linejoin: miter; stroke-linecap: square"/>
   </g>
   <g id="text_34">
    <!-- b Methanol [USD kg$^\mathrm{-1}$ CO$_\mathrm{2}$-eq] -->
    <g transform="translate(320.473485 15.3)scale(0.09 -0.09)">
     <defs>
      <path id="Arial-BoldMT-62" d="M 422 0 
L 422 4581 
L 1300 4581 
L 1300 2931 
Q 1706 3394 2263 3394 
Q 2869 3394 3266 2955 
Q 3663 2516 3663 1694 
Q 3663 844 3258 384 
Q 2853 -75 2275 -75 
Q 1991 -75 1714 67 
Q 1438 209 1238 488 
L 1238 0 
L 422 0 
z
M 1294 1731 
Q 1294 1216 1456 969 
Q 1684 619 2063 619 
Q 2353 619 2558 867 
Q 2763 1116 2763 1650 
Q 2763 2219 2556 2470 
Q 2350 2722 2028 2722 
Q 1713 2722 1503 2476 
Q 1294 2231 1294 1731 
z
" transform="scale(0.015625)"/>
      <path id="Arial-BoldMT-4d" d="M 453 0 
L 453 4581 
L 1838 4581 
L 2669 1456 
L 3491 4581 
L 4878 4581 
L 4878 0 
L 4019 0 
L 4019 3606 
L 3109 0 
L 2219 0 
L 1313 3606 
L 1313 0 
L 453 0 
z
" transform="scale(0.015625)"/>
      <path id="Arial-BoldMT-74" d="M 1981 3319 
L 1981 2619 
L 1381 2619 
L 1381 1281 
Q 1381 875 1398 808 
Q 1416 741 1477 697 
Q 1538 653 1625 653 
Q 1747 653 1978 738 
L 2053 56 
Q 1747 -75 1359 -75 
Q 1122 -75 931 4 
Q 741 84 652 211 
Q 563 338 528 553 
Q 500 706 500 1172 
L 500 2619 
L 97 2619 
L 97 3319 
L 500 3319 
L 500 3978 
L 1381 4491 
L 1381 3319 
L 1981 3319 
z
" transform="scale(0.015625)"/>
      <path id="Arial-BoldMT-68" d="M 1334 4581 
L 1334 2897 
Q 1759 3394 2350 3394 
Q 2653 3394 2897 3281 
Q 3141 3169 3264 2994 
Q 3388 2819 3433 2606 
Q 3478 2394 3478 1947 
L 3478 0 
L 2600 0 
L 2600 1753 
Q 2600 2275 2550 2415 
Q 2500 2556 2373 2639 
Q 2247 2722 2056 2722 
Q 1838 2722 1666 2615 
Q 1494 2509 1414 2295 
Q 1334 2081 1334 1663 
L 1334 0 
L 456 0 
L 456 4581 
L 1334 4581 
z
" transform="scale(0.015625)"/>
      <path id="Arial-BoldMT-6c" d="M 459 0 
L 459 4581 
L 1338 4581 
L 1338 0 
L 459 0 
z
" transform="scale(0.015625)"/>
     </defs>
     <use xlink:href="#Arial-BoldMT-62" transform="translate(0 0.684375)"/>
     <use xlink:href="#Arial-BoldMT-20" transform="translate(61.083984 0.684375)"/>
     <use xlink:href="#Arial-BoldMT-4d" transform="translate(88.867188 0.684375)"/>
     <use xlink:href="#Arial-BoldMT-65" transform="translate(172.167969 0.684375)"/>
     <use xlink:href="#Arial-BoldMT-74" transform="translate(227.783203 0.684375)"/>
     <use xlink:href="#Arial-BoldMT-68" transform="translate(261.083984 0.684375)"/>
     <use xlink:href="#Arial-BoldMT-61" transform="translate(322.167969 0.684375)"/>
     <use xlink:href="#Arial-BoldMT-6e" transform="translate(377.783203 0.684375)"/>
     <use xlink:href="#Arial-BoldMT-6f" transform="translate(438.867188 0.684375)"/>
     <use xlink:href="#Arial-BoldMT-6c" transform="translate(499.951172 0.684375)"/>
     <use xlink:href="#Arial-BoldMT-20" transform="translate(527.734375 0.684375)"/>
     <use xlink:href="#Arial-BoldMT-5b" transform="translate(555.517578 0.684375)"/>
     <use xlink:href="#Arial-BoldMT-55" transform="translate(588.818359 0.684375)"/>
     <use xlink:href="#Arial-BoldMT-53" transform="translate(661.035156 0.684375)"/>
     <use xlink:href="#Arial-BoldMT-44" transform="translate(727.734375 0.684375)"/>
     <use xlink:href="#Arial-BoldMT-20" transform="translate(799.951172 0.684375)"/>
     <use xlink:href="#Arial-BoldMT-6b" transform="translate(827.734375 0.684375)"/>
     <use xlink:href="#Arial-BoldMT-67" transform="translate(883.349609 0.684375)"/>
     <use xlink:href="#DejaVuSans-2212" transform="translate(945.390625 38.965625)scale(0.7)"/>
     <use xlink:href="#DejaVuSans-31" transform="translate(1004.042969 38.965625)scale(0.7)"/>
     <use xlink:href="#Arial-BoldMT-20" transform="translate(1051.313477 0.684375)"/>
     <use xlink:href="#Arial-BoldMT-43" transform="translate(1079.09668 0.684375)"/>
     <use xlink:href="#Arial-BoldMT-4f" transform="translate(1151.313477 0.684375)"/>
     <use xlink:href="#DejaVuSans-32" transform="translate(1230.053711 -15.721875)scale(0.7)"/>
     <use xlink:href="#Arial-BoldMT-2d" transform="translate(1277.324219 0.684375)"/>
     <use xlink:href="#Arial-BoldMT-65" transform="translate(1310.625 0.684375)"/>
     <use xlink:href="#Arial-BoldMT-71" transform="translate(1366.240234 0.684375)"/>
     <use xlink:href="#Arial-BoldMT-5d" transform="translate(1427.324219 0.684375)"/>
    </g>
   </g>
   <g id="PolyCollection_2">
    <defs>
     <path id="mabdb65bea2" d="M 386.047388 -165.271313 
L 386.047388 -130.210789 
L 386.047388 -130.210789 
L 386.047388 -130.210789 
L 386.047388 -130.210789 
L 386.047388 -130.210789 
L 386.047388 -130.210789 
L 386.047388 -130.210789 
L 386.047388 -130.210789 
L 386.047388 -130.210789 
L 386.047388 -130.210789 
L 386.047388 -130.210789 
L 386.047388 -130.210789 
L 386.047388 -130.210789 
L 386.047388 -130.210789 
L 386.047388 -130.210789 
L 386.047388 -130.210789 
L 386.047388 -130.210789 
L 386.047388 -130.210789 
L 386.047388 -130.210789 
L 386.047388 -130.210789 
L 386.047388 -130.210789 
L 386.047388 -130.210789 
L 386.047388 -130.210789 
L 386.047388 -130.210789 
L 386.047388 -130.210789 
L 386.047388 -130.210789 
L 386.047388 -130.210789 
L 386.047388 -130.210789 
L 386.047388 -130.210789 
L 386.047388 -130.210789 
L 386.047388 -130.210789 
L 386.047388 -130.210789 
L 386.047388 -130.210789 
L 386.047388 -130.210789 
L 386.047388 -130.210789 
L 386.047388 -130.210789 
L 386.047388 -130.210789 
L 386.047388 -130.210789 
L 386.047388 -130.210789 
L 386.047388 -130.210789 
L 386.047388 -130.210789 
L 386.047388 -130.210789 
L 386.047388 -130.210789 
L 386.047388 -130.210789 
L 386.047388 -130.210789 
L 386.047388 -130.210789 
L 386.047388 -130.210789 
L 386.047388 -165.271313 
L 386.047388 -165.271313 
L 379.959192 -164.738665 
L 374.055982 -163.156905 
L 368.517126 -160.574094 
L 364.703893 -158.026173 
L 361.255853 -155.002324 
L 358.232004 -151.554284 
L 355.684083 -147.741051 
L 353.101272 -142.202195 
L 351.519512 -136.298986 
L 350.986864 -130.210789 
L 351.178929 -126.545967 
L 351.75302 -122.921297 
L 352.702848 -119.376492 
L 354.018005 -115.95039 
L 355.684083 -112.680527 
L 358.232004 -108.867295 
L 361.255853 -105.419255 
L 364.703893 -102.395406 
L 368.517126 -99.847485 
L 374.055982 -97.264674 
L 379.959192 -95.682913 
L 386.047388 -95.150265 
L 389.71221 -95.342331 
L 393.336881 -95.916422 
L 396.881686 -96.86625 
L 400.307788 -98.181407 
L 403.57765 -99.847485 
L 407.390883 -102.395406 
L 410.838922 -105.419255 
L 413.862772 -108.867295 
L 416.410692 -112.680527 
L 418.993504 -118.219384 
L 420.575264 -124.122593 
L 421.107912 -130.210789 
L 420.915847 -133.875612 
L 420.341755 -137.500282 
L 419.391928 -141.045087 
L 418.07677 -144.471189 
L 416.410692 -147.741051 
L 413.862772 -151.554284 
L 410.838922 -155.002324 
L 407.390883 -158.026173 
L 403.57765 -160.574094 
L 398.038793 -163.156905 
L 392.135584 -164.738665 
L 386.047388 -165.271313 
z
" style="stroke: #ffffff"/>
    </defs>
    <g>
     <use xlink:href="#mabdb65bea2" x="0" y="252.255052" style="fill: #ffffff; stroke: #ffffff"/>
    </g>
   </g>
   <g id="line2d_36">
    <path d="M 386.047388 69.574299 
L 412.898723 75.536386 
L 435.922005 93.249139 
L 443.597654 122.044263 
L 437.878956 151.969233 
L 419.805376 180.514814 
L 386.047388 191.451118 
L 350.584452 183.46787 
L 317.17681 161.80671 
L 298.049611 122.044263 
L 314.257196 80.596176 
L 349.862935 59.370951 
" clip-path="url(#p537d7969fd)" style="fill: none; stroke: #52318e; stroke-width: 1.5; stroke-linecap: square"/>
   </g>
   <g id="line2d_37">
    <path d="M 386.047388 37.89296 
L 427.287804 50.613767 
L 454.04129 82.787965 
L 464.630542 122.044263 
L 451.693681 159.945168 
L 419.034094 179.178914 
L 386.047388 196.767972 
L 349.769546 184.879329 
L 331.564809 153.499794 
L 332.524048 122.044263 
L 335.033073 92.591134 
L 350.707036 60.832977 
" clip-path="url(#p537d7969fd)" style="fill: none; stroke: #b71205; stroke-width: 1.5; stroke-linecap: square"/>
   </g>
   <g id="line2d_38">
    <path d="M 386.047388 76.565835 
L 408.550286 83.068099 
L 424.714235 99.719948 
L 430.715981 122.044263 
L 424.050021 143.985093 
L 406.597832 157.638676 
L 386.047388 165.040385 
L 364.856029 158.748773 
L 351.706067 141.871234 
L 349.049537 122.044263 
L 352.687351 102.783837 
L 365.121275 85.799173 
" clip-path="url(#p537d7969fd)" style="fill: none; stroke: #167f99; stroke-width: 1.5; stroke-linecap: square"/>
   </g>
   <g id="PathCollection_4">
    <defs>
     <path id="md2d7b63045" d="M 0 3.162278 
L 1.897367 0 
L 0 -3.162278 
L -1.897367 0 
z
" style="stroke: #52318e"/>
    </defs>
    <g>
     <use xlink:href="#md2d7b63045" x="386.047388" y="69.574299" style="fill: #a78dd8; stroke: #52318e"/>
     <use xlink:href="#md2d7b63045" x="412.898723" y="75.536386" style="fill: #a78dd8; stroke: #52318e"/>
     <use xlink:href="#md2d7b63045" x="435.922005" y="93.249139" style="fill: #a78dd8; stroke: #52318e"/>
     <use xlink:href="#md2d7b63045" x="443.597654" y="122.044263" style="fill: #a78dd8; stroke: #52318e"/>
     <use xlink:href="#md2d7b63045" x="437.878956" y="151.969233" style="fill: #a78dd8; stroke: #52318e"/>
     <use xlink:href="#md2d7b63045" x="419.805376" y="180.514814" style="fill: #a78dd8; stroke: #52318e"/>
     <use xlink:href="#md2d7b63045" x="386.047388" y="191.451118" style="fill: #a78dd8; stroke: #52318e"/>
     <use xlink:href="#md2d7b63045" x="350.584452" y="183.46787" style="fill: #a78dd8; stroke: #52318e"/>
     <use xlink:href="#md2d7b63045" x="317.17681" y="161.80671" style="fill: #a78dd8; stroke: #52318e"/>
     <use xlink:href="#md2d7b63045" x="298.049611" y="122.044263" style="fill: #a78dd8; stroke: #52318e"/>
     <use xlink:href="#md2d7b63045" x="314.257196" y="80.596176" style="fill: #a78dd8; stroke: #52318e"/>
     <use xlink:href="#md2d7b63045" x="349.862935" y="59.370951" style="fill: #a78dd8; stroke: #52318e"/>
    </g>
   </g>
   <g id="PathCollection_5">
    <defs>
     <path id="mf0e380ef7a" d="M 0 -2.236068 
L -1.936492 -1.118034 
L -1.936492 1.118034 
L -0 2.236068 
L 1.936492 1.118034 
L 1.936492 -1.118034 
z
" style="stroke: #b71205"/>
    </defs>
    <g>
     <use xlink:href="#mf0e380ef7a" x="386.047388" y="37.89296" style="fill: #fb7b71; stroke: #b71205"/>
     <use xlink:href="#mf0e380ef7a" x="427.287804" y="50.613767" style="fill: #fb7b71; stroke: #b71205"/>
     <use xlink:href="#mf0e380ef7a" x="454.04129" y="82.787965" style="fill: #fb7b71; stroke: #b71205"/>
     <use xlink:href="#mf0e380ef7a" x="464.630542" y="122.044263" style="fill: #fb7b71; stroke: #b71205"/>
     <use xlink:href="#mf0e380ef7a" x="451.693681" y="159.945168" style="fill: #fb7b71; stroke: #b71205"/>
     <use xlink:href="#mf0e380ef7a" x="419.034094" y="179.178914" style="fill: #fb7b71; stroke: #b71205"/>
     <use xlink:href="#mf0e380ef7a" x="386.047388" y="196.767972" style="fill: #fb7b71; stroke: #b71205"/>
     <use xlink:href="#mf0e380ef7a" x="349.769546" y="184.879329" style="fill: #fb7b71; stroke: #b71205"/>
     <use xlink:href="#mf0e380ef7a" x="331.564809" y="153.499794" style="fill: #fb7b71; stroke: #b71205"/>
     <use xlink:href="#mf0e380ef7a" x="332.524048" y="122.044263" style="fill: #fb7b71; stroke: #b71205"/>
     <use xlink:href="#mf0e380ef7a" x="335.033073" y="92.591134" style="fill: #fb7b71; stroke: #b71205"/>
     <use xlink:href="#mf0e380ef7a" x="350.707036" y="60.832977" style="fill: #fb7b71; stroke: #b71205"/>
    </g>
   </g>
   <g id="PathCollection_6">
    <defs>
     <path id="mf65595aa7a" d="M 0 -2.236068 
L -2.236068 2.236068 
L 2.236068 2.236068 
z
" style="stroke: #167f99"/>
    </defs>
    <g>
     <use xlink:href="#mf65595aa7a" x="386.047388" y="76.565835" style="fill: #6dd2ea; stroke: #167f99"/>
     <use xlink:href="#mf65595aa7a" x="408.550286" y="83.068099" style="fill: #6dd2ea; stroke: #167f99"/>
     <use xlink:href="#mf65595aa7a" x="424.714235" y="99.719948" style="fill: #6dd2ea; stroke: #167f99"/>
     <use xlink:href="#mf65595aa7a" x="430.715981" y="122.044263" style="fill: #6dd2ea; stroke: #167f99"/>
     <use xlink:href="#mf65595aa7a" x="424.050021" y="143.985093" style="fill: #6dd2ea; stroke: #167f99"/>
     <use xlink:href="#mf65595aa7a" x="406.597832" y="157.638676" style="fill: #6dd2ea; stroke: #167f99"/>
     <use xlink:href="#mf65595aa7a" x="386.047388" y="165.040385" style="fill: #6dd2ea; stroke: #167f99"/>
     <use xlink:href="#mf65595aa7a" x="364.856029" y="158.748773" style="fill: #6dd2ea; stroke: #167f99"/>
     <use xlink:href="#mf65595aa7a" x="351.706067" y="141.871234" style="fill: #6dd2ea; stroke: #167f99"/>
     <use xlink:href="#mf65595aa7a" x="349.049537" y="122.044263" style="fill: #6dd2ea; stroke: #167f99"/>
     <use xlink:href="#mf65595aa7a" x="352.687351" y="102.783837" style="fill: #6dd2ea; stroke: #167f99"/>
     <use xlink:href="#mf65595aa7a" x="365.121275" y="85.799173" style="fill: #6dd2ea; stroke: #167f99"/>
    </g>
   </g>
  </g>
  <g id="legend_1">
   <g id="line2d_39">
    <path d="M 167.075775 237.465052 
L 175.075775 237.465052 
L 183.075775 237.465052 
" style="fill: none; stroke: #000000; stroke-opacity: 0; stroke-width: 1.5; stroke-linecap: square"/>
    <defs>
     <path id="m99b005a9ac" d="M 0 3.535534 
L 2.12132 0 
L 0 -3.535534 
L -2.12132 0 
z
" style="stroke: #52318e; stroke-linejoin: miter"/>
    </defs>
    <g>
     <use xlink:href="#m99b005a9ac" x="175.075775" y="237.465052" style="fill: #a78dd8; stroke: #52318e; stroke-linejoin: miter"/>
    </g>
   </g>
   <g id="text_35">
    <!-- H$_\mathrm{2}$ SMR$_\mathrm{CCS}$ -->
    <g transform="translate(183.875775 240.265052)scale(0.08 -0.08)">
     <defs>
      <path id="ArialMT-48" d="M 513 0 
L 513 4581 
L 1119 4581 
L 1119 2700 
L 3500 2700 
L 3500 4581 
L 4106 4581 
L 4106 0 
L 3500 0 
L 3500 2159 
L 1119 2159 
L 1119 0 
L 513 0 
z
" transform="scale(0.015625)"/>
      <path id="ArialMT-4d" d="M 475 0 
L 475 4581 
L 1388 4581 
L 2472 1338 
Q 2622 884 2691 659 
Q 2769 909 2934 1394 
L 4031 4581 
L 4847 4581 
L 4847 0 
L 4263 0 
L 4263 3834 
L 2931 0 
L 2384 0 
L 1059 3900 
L 1059 0 
L 475 0 
z
" transform="scale(0.015625)"/>
      <path id="ArialMT-52" d="M 503 0 
L 503 4581 
L 2534 4581 
Q 3147 4581 3465 4457 
Q 3784 4334 3975 4021 
Q 4166 3709 4166 3331 
Q 4166 2844 3850 2509 
Q 3534 2175 2875 2084 
Q 3116 1969 3241 1856 
Q 3506 1613 3744 1247 
L 4541 0 
L 3778 0 
L 3172 953 
Q 2906 1366 2734 1584 
Q 2563 1803 2427 1890 
Q 2291 1978 2150 2013 
Q 2047 2034 1813 2034 
L 1109 2034 
L 1109 0 
L 503 0 
z
M 1109 2559 
L 2413 2559 
Q 2828 2559 3062 2645 
Q 3297 2731 3419 2920 
Q 3541 3109 3541 3331 
Q 3541 3656 3305 3865 
Q 3069 4075 2559 4075 
L 1109 4075 
L 1109 2559 
z
" transform="scale(0.015625)"/>
      <path id="DejaVuSans-43" d="M 4122 4306 
L 4122 3641 
Q 3803 3938 3442 4084 
Q 3081 4231 2675 4231 
Q 1875 4231 1450 3742 
Q 1025 3253 1025 2328 
Q 1025 1406 1450 917 
Q 1875 428 2675 428 
Q 3081 428 3442 575 
Q 3803 722 4122 1019 
L 4122 359 
Q 3791 134 3420 21 
Q 3050 -91 2638 -91 
Q 1578 -91 968 557 
Q 359 1206 359 2328 
Q 359 3453 968 4101 
Q 1578 4750 2638 4750 
Q 3056 4750 3426 4639 
Q 3797 4528 4122 4306 
z
" transform="scale(0.015625)"/>
      <path id="DejaVuSans-53" d="M 3425 4513 
L 3425 3897 
Q 3066 4069 2747 4153 
Q 2428 4238 2131 4238 
Q 1616 4238 1336 4038 
Q 1056 3838 1056 3469 
Q 1056 3159 1242 3001 
Q 1428 2844 1947 2747 
L 2328 2669 
Q 3034 2534 3370 2195 
Q 3706 1856 3706 1288 
Q 3706 609 3251 259 
Q 2797 -91 1919 -91 
Q 1588 -91 1214 -16 
Q 841 59 441 206 
L 441 856 
Q 825 641 1194 531 
Q 1563 422 1919 422 
Q 2459 422 2753 634 
Q 3047 847 3047 1241 
Q 3047 1584 2836 1778 
Q 2625 1972 2144 2069 
L 1759 2144 
Q 1053 2284 737 2584 
Q 422 2884 422 3419 
Q 422 4038 858 4394 
Q 1294 4750 2059 4750 
Q 2388 4750 2728 4690 
Q 3069 4631 3425 4513 
z
" transform="scale(0.015625)"/>
     </defs>
     <use xlink:href="#ArialMT-48" transform="translate(0 0.203125)"/>
     <use xlink:href="#DejaVuSans-32" transform="translate(73.173828 -16.203125)scale(0.7)"/>
     <use xlink:href="#ArialMT-20" transform="translate(120.444336 0.203125)"/>
     <use xlink:href="#ArialMT-53" transform="translate(148.227539 0.203125)"/>
     <use xlink:href="#ArialMT-4d" transform="translate(214.926758 0.203125)"/>
     <use xlink:href="#ArialMT-52" transform="translate(298.227539 0.203125)"/>
     <use xlink:href="#DejaVuSans-43" transform="translate(371.401367 -16.203125)scale(0.7)"/>
     <use xlink:href="#DejaVuSans-43" transform="translate(420.27832 -16.203125)scale(0.7)"/>
     <use xlink:href="#DejaVuSans-53" transform="translate(469.155273 -16.203125)scale(0.7)"/>
    </g>
   </g>
   <g id="line2d_40">
    <path d="M 241.235775 237.465052 
L 249.235775 237.465052 
L 257.235775 237.465052 
" style="fill: none; stroke: #000000; stroke-opacity: 0; stroke-width: 1.5; stroke-linecap: square"/>
    <defs>
     <path id="mf8d1cbb7bb" d="M 0 -2.5 
L -2.165064 -1.25 
L -2.165064 1.25 
L -0 2.5 
L 2.165064 1.25 
L 2.165064 -1.25 
z
" style="stroke: #b71205; stroke-linejoin: miter"/>
    </defs>
    <g>
     <use xlink:href="#mf8d1cbb7bb" x="249.235775" y="237.465052" style="fill: #fb7b71; stroke: #b71205; stroke-linejoin: miter"/>
    </g>
   </g>
   <g id="text_36">
    <!-- H$_\mathrm{2}$ solar -->
    <g transform="translate(258.035775 240.265052)scale(0.08 -0.08)">
     <defs>
      <path id="ArialMT-73" d="M 197 991 
L 753 1078 
Q 800 744 1014 566 
Q 1228 388 1613 388 
Q 2000 388 2187 545 
Q 2375 703 2375 916 
Q 2375 1106 2209 1216 
Q 2094 1291 1634 1406 
Q 1016 1563 777 1677 
Q 538 1791 414 1992 
Q 291 2194 291 2438 
Q 291 2659 392 2848 
Q 494 3038 669 3163 
Q 800 3259 1026 3326 
Q 1253 3394 1513 3394 
Q 1903 3394 2198 3281 
Q 2494 3169 2634 2976 
Q 2775 2784 2828 2463 
L 2278 2388 
Q 2241 2644 2061 2787 
Q 1881 2931 1553 2931 
Q 1166 2931 1000 2803 
Q 834 2675 834 2503 
Q 834 2394 903 2306 
Q 972 2216 1119 2156 
Q 1203 2125 1616 2013 
Q 2213 1853 2448 1751 
Q 2684 1650 2818 1456 
Q 2953 1263 2953 975 
Q 2953 694 2789 445 
Q 2625 197 2315 61 
Q 2006 -75 1616 -75 
Q 969 -75 630 194 
Q 291 463 197 991 
z
" transform="scale(0.015625)"/>
     </defs>
     <use xlink:href="#ArialMT-48" transform="translate(0 0.421875)"/>
     <use xlink:href="#DejaVuSans-32" transform="translate(73.173828 -15.984375)scale(0.7)"/>
     <use xlink:href="#ArialMT-20" transform="translate(120.444336 0.421875)"/>
     <use xlink:href="#ArialMT-73" transform="translate(148.227539 0.421875)"/>
     <use xlink:href="#ArialMT-6f" transform="translate(198.227539 0.421875)"/>
     <use xlink:href="#ArialMT-6c" transform="translate(253.842773 0.421875)"/>
     <use xlink:href="#ArialMT-61" transform="translate(276.05957 0.421875)"/>
     <use xlink:href="#ArialMT-72" transform="translate(331.674805 0.421875)"/>
    </g>
   </g>
   <g id="line2d_41">
    <path d="M 303.235775 237.465052 
L 311.235775 237.465052 
L 319.235775 237.465052 
" style="fill: none; stroke: #000000; stroke-opacity: 0; stroke-width: 1.5; stroke-linecap: square"/>
    <defs>
     <path id="m1fb5c85e85" d="M 0 -2.5 
L -2.5 2.5 
L 2.5 2.5 
z
" style="stroke: #167f99; stroke-linejoin: miter"/>
    </defs>
    <g>
     <use xlink:href="#m1fb5c85e85" x="311.235775" y="237.465052" style="fill: #6dd2ea; stroke: #167f99; stroke-linejoin: miter"/>
    </g>
   </g>
   <g id="text_37">
    <!-- H$_\mathrm{2}$ wind -->
    <g transform="translate(320.035775 240.265052)scale(0.08 -0.08)">
     <defs>
      <path id="ArialMT-77" d="M 1034 0 
L 19 3319 
L 600 3319 
L 1128 1403 
L 1325 691 
Q 1338 744 1497 1375 
L 2025 3319 
L 2603 3319 
L 3100 1394 
L 3266 759 
L 3456 1400 
L 4025 3319 
L 4572 3319 
L 3534 0 
L 2950 0 
L 2422 1988 
L 2294 2553 
L 1622 0 
L 1034 0 
z
" transform="scale(0.015625)"/>
      <path id="ArialMT-69" d="M 425 3934 
L 425 4581 
L 988 4581 
L 988 3934 
L 425 3934 
z
M 425 0 
L 425 3319 
L 988 3319 
L 988 0 
L 425 0 
z
" transform="scale(0.015625)"/>
      <path id="ArialMT-64" d="M 2575 0 
L 2575 419 
Q 2259 -75 1647 -75 
Q 1250 -75 917 144 
Q 584 363 401 755 
Q 219 1147 219 1656 
Q 219 2153 384 2558 
Q 550 2963 881 3178 
Q 1213 3394 1622 3394 
Q 1922 3394 2156 3267 
Q 2391 3141 2538 2938 
L 2538 4581 
L 3097 4581 
L 3097 0 
L 2575 0 
z
M 797 1656 
Q 797 1019 1065 703 
Q 1334 388 1700 388 
Q 2069 388 2326 689 
Q 2584 991 2584 1609 
Q 2584 2291 2321 2609 
Q 2059 2928 1675 2928 
Q 1300 2928 1048 2622 
Q 797 2316 797 1656 
z
" transform="scale(0.015625)"/>
     </defs>
     <use xlink:href="#ArialMT-48" transform="translate(0 0.421875)"/>
     <use xlink:href="#DejaVuSans-32" transform="translate(73.173828 -15.984375)scale(0.7)"/>
     <use xlink:href="#ArialMT-20" transform="translate(120.444336 0.421875)"/>
     <use xlink:href="#ArialMT-77" transform="translate(148.227539 0.421875)"/>
     <use xlink:href="#ArialMT-69" transform="translate(220.444336 0.421875)"/>
     <use xlink:href="#ArialMT-6e" transform="translate(242.661133 0.421875)"/>
     <use xlink:href="#ArialMT-64" transform="translate(298.276367 0.421875)"/>
    </g>
   </g>
  </g>
 </g>
 <defs>
  <clipPath id="p1233cdc12e">
   <path d="M 85.515664 42.973157 
C 76.002272 48.465716 67.557753 55.630357 60.588868 64.121968 
C 53.619983 72.61358 48.240452 82.293592 44.709402 92.695731 
C 41.178351 103.09787 39.553402 114.052391 39.912825 125.031628 
C 40.272248 136.010864 42.610178 146.835654 46.814001 156.98458 
C 51.017823 167.133505 57.018939 176.440954 64.528281 184.458597 
C 72.037623 192.47624 80.932652 199.073243 90.784905 203.931837 
C 100.637158 208.79043 111.285863 211.83133 122.218085 212.90806 
C 133.150307 213.98479 144.18765 213.079779 154.798459 210.236621 
C 165.409268 207.393464 175.420393 202.658554 184.34961 196.259968 
C 193.278827 189.861382 200.980426 181.903533 207.08343 172.769741 
C 213.186435 163.635949 217.591254 153.475262 220.085714 142.777109 
C 222.580174 132.078955 223.123568 121.01791 221.689722 110.126771 
C 220.255877 99.235633 216.868189 88.692124 211.68984 79.004115 
C 206.511491 69.316106 199.626983 60.641688 191.367934 53.398696 
C 183.108885 46.155704 173.610069 40.462333 163.329032 36.592825 
C 153.047995 32.723316 142.152506 30.740815 131.167388 30.740815 
L 131.167388 122.044263 
C 131.167388 122.044263 131.167388 122.044263 131.167388 122.044263 
C 131.167388 122.044263 131.167388 122.044263 131.167388 122.044263 
C 131.167388 122.044263 131.167388 122.044263 131.167388 122.044263 
C 131.167388 122.044263 131.167388 122.044263 131.167388 122.044263 
C 131.167388 122.044263 131.167388 122.044263 131.167388 122.044263 
C 131.167388 122.044263 131.167388 122.044263 131.167388 122.044263 
C 131.167388 122.044263 131.167388 122.044263 131.167388 122.044263 
C 131.167388 122.044263 131.167388 122.044263 131.167388 122.044263 
C 131.167388 122.044263 131.167388 122.044263 131.167388 122.044263 
C 131.167388 122.044263 131.167388 122.044263 131.167388 122.044263 
C 131.167388 122.044263 131.167388 122.044263 131.167388 122.044263 
C 131.167388 122.044263 131.167388 122.044263 131.167388 122.044263 
C 131.167388 122.044263 131.167388 122.044263 131.167388 122.044263 
C 131.167388 122.044263 131.167388 122.044263 131.167388 122.044263 
C 131.167388 122.044263 131.167388 122.044263 131.167388 122.044263 
C 131.167388 122.044263 131.167388 122.044263 131.167388 122.044263 
L 85.515664 42.973157 
z
"/>
  </clipPath>
  <clipPath id="p537d7969fd">
   <path d="M 340.395664 42.973157 
C 330.882272 48.465716 322.437753 55.630357 315.468868 64.121968 
C 308.499983 72.61358 303.120452 82.293592 299.589402 92.695731 
C 296.058351 103.09787 294.433402 114.052391 294.792825 125.031628 
C 295.152248 136.010864 297.490178 146.835654 301.694001 156.98458 
C 305.897823 167.133505 311.898939 176.440954 319.408281 184.458597 
C 326.917623 192.47624 335.812652 199.073243 345.664905 203.931837 
C 355.517158 208.79043 366.165863 211.83133 377.098085 212.90806 
C 388.030307 213.98479 399.06765 213.079779 409.678459 210.236621 
C 420.289268 207.393464 430.300393 202.658554 439.22961 196.259968 
C 448.158827 189.861382 455.860426 181.903533 461.96343 172.769741 
C 468.066435 163.635949 472.471254 153.475262 474.965714 142.777109 
C 477.460174 132.078955 478.003568 121.01791 476.569722 110.126771 
C 475.135877 99.235633 471.748189 88.692124 466.56984 79.004115 
C 461.391491 69.316106 454.506983 60.641688 446.247934 53.398696 
C 437.988885 46.155704 428.490069 40.462333 418.209032 36.592825 
C 407.927995 32.723316 397.032506 30.740815 386.047388 30.740815 
L 386.047388 122.044263 
C 386.047388 122.044263 386.047388 122.044263 386.047388 122.044263 
C 386.047388 122.044263 386.047388 122.044263 386.047388 122.044263 
C 386.047388 122.044263 386.047388 122.044263 386.047388 122.044263 
C 386.047388 122.044263 386.047388 122.044263 386.047388 122.044263 
C 386.047388 122.044263 386.047388 122.044263 386.047388 122.044263 
C 386.047388 122.044263 386.047388 122.044263 386.047388 122.044263 
C 386.047388 122.044263 386.047388 122.044263 386.047388 122.044263 
C 386.047388 122.044263 386.047388 122.044263 386.047388 122.044263 
C 386.047388 122.044263 386.047388 122.044263 386.047388 122.044263 
C 386.047388 122.044263 386.047388 122.044263 386.047388 122.044263 
C 386.047388 122.044263 386.047388 122.044263 386.047388 122.044263 
C 386.047388 122.044263 386.047388 122.044263 386.047388 122.044263 
C 386.047388 122.044263 386.047388 122.044263 386.047388 122.044263 
C 386.047388 122.044263 386.047388 122.044263 386.047388 122.044263 
C 386.047388 122.044263 386.047388 122.044263 386.047388 122.044263 
C 386.047388 122.044263 386.047388 122.044263 386.047388 122.044263 
L 340.395664 42.973157 
z
"/>
  </clipPath>
 </defs>
</svg>
