<?xml version="1.0" standalone="no"?>
<!DOCTYPE svg PUBLIC "-//W3C//DTD SVG 20010904//EN"
 "http://www.w3.org/TR/2001/REC-SVG-20010904/DTD/svg10.dtd">
<svg version="1.0" xmlns="http://www.w3.org/2000/svg"
 width="512.000000pt" height="512.000000pt" viewBox="0 0 512.000000 512.000000"
 preserveAspectRatio="xMidYMid meet">

<g transform="translate(0.000000,512.000000) scale(0.100000,-0.100000)"
fill="#000000" stroke="none">
<path d="M2487 5110 c-118 -20 -250 -116 -301 -218 -59 -120 -62 -260 -8 -376
18 -38 32 -70 32 -71 0 -2 -24 -8 -52 -15 -479 -111 -903 -413 -1180 -840
-160 -247 -268 -536 -315 -847 -17 -108 -18 -212 -18 -1248 0 -1239 -3 -1178
61 -1285 52 -88 132 -152 233 -188 42 -15 186 -17 1588 -19 1685 -4 1631 -5
1731 53 110 65 183 164 208 284 22 109 15 2277 -9 2415 -34 197 -73 340 -136
498 -145 363 -422 700 -751 917 -171 112 -408 213 -607 260 -29 7 -53 13 -53
15 0 1 14 33 32 71 38 80 49 201 28 282 -45 164 -179 285 -346 312 -66 11 -69
11 -137 0z m134 -211 c150 -45 202 -244 93 -353 -107 -107 -293 -74 -351 63
-21 49 -18 132 5 177 51 98 151 143 253 113z m40 -660 c200 -102 392 -514 478
-1029 56 -336 54 -274 58 -1688 l4 -1312 -268 2 -268 3 0 425 0 425 180 5 c99
3 188 9 198 14 24 11 47 58 47 95 0 20 -11 42 -29 63 l-29 33 -444 3 c-290 2
-455 0 -479 -7 -47 -14 -69 -40 -76 -89 -4 -33 -1 -44 25 -73 l30 -34 184 -5
183 -5 0 -425 0 -425 -267 -3 -268 -2 0 1222 c0 723 4 1278 10 1358 40 541
166 1003 343 1265 130 191 257 251 388 184z m-585 -107 c-144 -221 -263 -598
-321 -1007 -37 -268 -38 -300 -42 -1613 l-4 -1303 -352 3 c-384 3 -379 2 -441
64 -65 66 -61 -18 -64 1139 -3 1093 1 1239 38 1420 119 566 473 1031 967 1267
96 46 223 96 250 97 7 1 -7 -30 -31 -67z m1013 43 c569 -193 1014 -719 1140
-1345 37 -184 41 -315 41 -1381 0 -1156 3 -1103 -68 -1172 -65 -63 -91 -67
-464 -67 l-328 0 0 1223 c0 1268 -4 1401 -45 1692 -57 409 -189 819 -329 1023
-20 28 -33 52 -28 52 5 0 41 -11 81 -25z"/>
</g>
</svg>
