<?xml version="1.0" encoding="UTF-8" standalone="no"?>
<!-- Created with Inkscape (http://www.inkscape.org/) -->

<svg
   width="210mm"
   height="297mm"
   viewBox="0 0 210 297"
   version="1.1"
   id="svg13956"
   xml:space="preserve"
   inkscape:export-filename="capture.svg"
   inkscape:export-xdpi="600"
   inkscape:export-ydpi="600"
   inkscape:version="1.2.2 (732a01da63, 2022-12-09)"
   sodipodi:docname="capture.svg"
   xmlns:inkscape="http://www.inkscape.org/namespaces/inkscape"
   xmlns:sodipodi="http://sodipodi.sourceforge.net/DTD/sodipodi-0.dtd"
   xmlns="http://www.w3.org/2000/svg"
   xmlns:svg="http://www.w3.org/2000/svg"><sodipodi:namedview
     id="namedview13958"
     pagecolor="#ffffff"
     bordercolor="#000000"
     borderopacity="0.25"
     inkscape:showpageshadow="2"
     inkscape:pageopacity="0.0"
     inkscape:pagecheckerboard="0"
     inkscape:deskcolor="#d1d1d1"
     inkscape:document-units="mm"
     showgrid="false"
     inkscape:zoom="0.914906"
     inkscape:cx="294.56578"
     inkscape:cy="507.70243"
     inkscape:window-width="2560"
     inkscape:window-height="1361"
     inkscape:window-x="-9"
     inkscape:window-y="-9"
     inkscape:window-maximized="1"
     inkscape:current-layer="layer1" /><defs
     id="defs13953" /><g
     inkscape:label="Layer 1"
     inkscape:groupmode="layer"
     id="layer1"><g
       transform="matrix(0.01952822,0,0,-0.01971944,58.012964,180.83882)"
       fill="#000000"
       stroke="none"
       id="g14085"
       style="fill:#808080;fill-opacity:1;stroke:#808080;stroke-opacity:1;stroke-width:1.01918112;stroke-dasharray:none"
       inkscape:label="g14085" /><g
       transform="matrix(0.03055145,-0.01763889,-0.01763889,-0.03055145,86.479359,325.06559)"
       fill="#000000"
       stroke="none"
       id="g41603"><path
         d="m 2481.9426,5148.3037 c -102.2775,82.1654 -210.1773,195.572 -280.6882,293.7601 -36.6076,50.3127 -43.0998,74.4473 -28.3031,99.6047 10.3576,17.61 9.0133,25.1729 -12.3491,64.8256 -22.222,41.005 -25.7859,44.7941 -40.8016,41.7749 -38.8942,-8.4445 -61.8612,27.0731 -107.3429,166.4091 -18.8773,59.3539 -16.877,85.2655 6.647,102.7503 8.1278,5.3774 451.1131,211.2536 985.2037,456.6604 533.4757,245.7683 973.6269,448.2324 978.6756,451.1885 4.6786,2.3272 18.2509,32.4373 30.2287,66.8711 l 22.4708,62.1225 -202.3921,121.5796 c -194.3997,116.8789 -203.2519,122.932 -219.4613,150.2424 -20.5078,34.0711 -33.5966,97.6389 -28.6266,137.041 2.48,15.4715 14.0827,45.0471 26.29,65.8018 38.2264,66.3996 103.9789,102.2188 177.5576,97.8816 l 41.5879,-2.4514 925.9032,-544.5847 925.9031,-544.5846 22.3522,-35.1559 c 39.5462,-62.1991 40.1932,-137.0722 0.7372,-202.7486 -12.2073,-20.7548 -32.4174,-45.2677 -44.7343,-54.9535 -32.0216,-23.4913 -93.9395,-42.9427 -133.683,-41.5761 -31.7459,0.8952 -41.338,5.6904 -237.9572,118.7955 l -204.6116,117.8062 -43.3745,-49.8277 c -24.274,-27.2016 -43.9943,-53.6956 -43.7546,-58.9157 -0.1302,-5.849 36.8111,-488.9224 81.8709,-1074.9657 44.4455,-585.682 79.657,-1074.5101 77.7972,-1086.1138 -5.5746,-30.5814 -26.0143,-41.4153 -113.0297,-57.1098 -255.5083,-46.1081 -527.7791,-13.7902 -785.9307,93.1809 -41.4475,16.7595 -98.7549,44.5403 -127.0361,61.1743 -59.0217,34.7145 -70.9326,55.2642 -52.0667,87.3398 5.9186,10.063 103.7339,103.2094 217.93,208.7305 113.8263,104.892 206.343,191.8433 206.098,192.8339 -0.2449,0.9905 -73.7358,77.2291 -162.3418,169.9765 -88.6061,92.7474 -167.3803,175.4795 -173.7681,184.3156 -11.6712,15.3296 -13.4793,46.0209 -3.4917,63.002 2.5895,4.4026 84.483,57.8165 181.7673,119.108 97.2843,61.2916 175.9786,114.8939 174.6292,118.2272 -0.9796,3.9621 -46.5695,54.4787 -100.5169,113.297 -100.277,108.0768 -118.3308,136.4721 -102.4243,163.5163 3.3292,5.6604 63.9286,53.8219 134.2554,107.2669 70.3267,53.4449 127.477,98.5561 127.6021,100.1756 -0.8597,1.3521 -48.3934,72.4817 -105.1388,157.4942 l -103.0497,155.419 -99.1092,56.5997 -99.1093,56.5997 -182.0971,13.9876 c -99.6611,7.8269 -183.3267,14.7109 -184.9262,14.8052 -1.3547,-0.8963 -13.009,-72.7667 -25.5437,-160.2029 -12.5348,-87.4362 -25.1789,-163.8034 -28.5083,-169.4639 -15.9064,-27.0442 -49.4967,-25.0641 -192.6841,10.0565 -77.622,18.5664 -143.9274,33.8629 -147.8663,32.7936 -3.569,-0.4404 -12.1751,-95.2664 -18.4675,-210.0762 -6.2926,-114.8098 -14.289,-214.2268 -17.6183,-219.8873 -3.3292,-5.6603 -16.5057,-13.9941 -29.4322,-19.0888 -20.4344,-6.6042 -59.3078,1.8692 -260.308,54.0632 -129.7765,34.0047 -237.1645,62.4599 -238.1492,62.1926 -0.9847,-0.2675 -32.0205,-123.3797 -68.3807,-273.8347 -36.7302,-151.0838 -70.6054,-281.8376 -76.524,-291.9006 -5.5487,-9.434 -18.8502,-19.3871 -29.6823,-22.3278 -16.7404,-4.5444 -27.0722,-1.007 -78.9611,30.3587 -32.8298,20.1558 -83.4839,55.028 -111.265,78.1399 z m 1962.7049,1054.9852 c 23.2482,-6.9017 71.229,-13.9597 106.4189,-16.0341 70.0096,-4.7775 90.9184,-12.8427 98.2702,-38.3295 4.9031,-15.5814 8.717,-16.1317 55.244,-4.558 44.5575,11.039 49.9762,14.6241 50.8565,30.19 1.2657,28.8832 17.5317,48.0973 59.3956,70.0323 51.5911,27.2182 97.0394,62.2821 137.9443,105.0973 17.8655,19.1197 33.6366,36.0854 35.1163,38.6011 1.8496,3.1447 -22.8628,20.2191 -54.8328,39.0228 l -58.4069,34.353 -31.2921,-30.6925 c -69.7275,-66.4948 -165.3865,-106.7333 -260.0144,-108.6388 -51.1902,-1.2122 -142.5881,22.0705 -185.6247,47.3831 -42.4218,24.9512 -107.8004,93.879 -131.6169,139.2076 -44.9339,83.991 -55.762,185.1685 -31.4054,280.0421 l 11.6181,42.2638 -58.4067,34.353 c -31.9701,18.8037 -59.2719,31.4756 -60.7514,28.9599 -1.8497,-3.1448 -10.3733,-30.2987 -19.7617,-60.33 -48.8073,-165.9897 -13.0942,-344.445 94.2951,-472.7888 64.1386,-76.6634 147.9924,-131.0623 242.954,-158.1343 z m 14.8653,384.0357 51.7884,88.0506 -82.9992,48.8173 c -94.6806,55.688 -92.7113,56.2228 -98.0873,-13.4148 -5.2511,-68.0181 15.7053,-137.9063 57.4814,-187.8728 9.7069,-11.6347 17.9389,-21.5556 18.7987,-22.9079 0.6148,-0.3615 24.5343,38.8997 53.018,87.3276 z m 126.1828,-155.4811 c 48.2362,0.4104 101.9063,17.0943 142.9156,44.611 58.2497,38.539 58.7395,36.5578 -35.9411,92.2458 l -82.9994,48.8174 -51.4185,-87.4219 -51.7884,-88.0506 22.3883,-5.5496 c 12.3014,-3.0026 37.5241,-5.1402 56.8435,-4.6521 z"
         id="path44180"
         style="fill:#808080;fill-opacity:1;stroke:none;stroke-width:0.721415" /></g><g
       transform="matrix(0.03527778,0,0,-0.03527778,14.08713,298.30776)"
       fill="#000000"
       stroke="none"
       id="g43802"
       style="fill:#808080;fill-opacity:1"><path
         d="m 1723,4865 c -178,-48 -318,-196 -355,-376 -7,-32 -15,-59 -18,-59 -4,0 -33,9 -66,21 -317,111 -644,-124 -644,-462 v -66 l -83,-5 c -98,-6 -163,-34 -222,-93 -65,-65 -89,-125 -89,-225 -1,-78 2,-90 33,-148 62,-114 145,-163 292,-170 l 96,-5 -13,-56 c -28,-118 -7,-219 63,-300 69,-81 164,-121 286,-121 100,0 144,-16 202,-75 70,-70 75,-92 75,-349 v -216 h 240 240 v 136 c 0,78 5,154 12,178 16,55 99,138 154,154 28,8 123,12 286,12 187,0 258,4 303,15 187,49 328,205 358,395 l 11,70 h 78 c 76,0 78,-1 78,-24 0,-59 -32,-183 -64,-249 -83,-171 -198,-268 -411,-346 -17,-7 -14,-13 33,-60 31,-31 79,-65 120,-84 67,-32 68,-32 267,-37 228,-6 248,-12 314,-86 51,-59 61,-99 61,-258 v -136 h 240 240 v 136 c 0,170 9,204 75,269 66,67 97,75 286,75 98,0 173,5 205,14 121,32 223,115 277,226 29,59 32,73 32,160 0,104 -18,158 -85,256 -18,25 -28,49 -24,53 5,4 29,16 54,26 109,46 172,112 206,214 45,138 -28,301 -168,378 -27,14 -48,29 -48,33 0,4 15,39 33,76 29,63 32,78 32,164 0,86 -3,101 -32,162 -44,93 -100,151 -191,196 -72,35 -81,37 -171,36 -76,0 -108,-5 -150,-22 l -54,-23 -16,23 c -66,95 -166,161 -277,182 l -66,12 -22,60 c -32,88 -67,142 -128,201 -240,226 -624,151 -764,-151 -19,-41 -34,-80 -34,-86 0,-8 -7,-9 -17,-5 -106,43 -131,48 -233,48 -102,0 -127,-5 -232,-48 -11,-4 -18,-3 -18,5 0,6 -15,45 -34,86 -98,211 -336,327 -553,269 z m 1698,-180 c 25,-13 60,-35 76,-49 39,-33 90,-129 98,-188 l 7,-48 h -79 -79 l -12,44 c -14,52 -66,102 -117,112 l -35,6 v 80 80 l 47,-7 c 26,-4 68,-17 94,-30 z M 1120,4241 v -79 l -35,-6 c -51,-10 -103,-60 -117,-112 l -12,-44 h -79 -79 l 7,47 c 22,146 151,266 293,272 21,1 22,-2 22,-78 z m 938,-35 c 27,-14 63,-36 79,-50 39,-33 90,-129 98,-188 l 7,-48 h -79 -79 l -12,44 c -37,141 -242,154 -298,19 -20,-46 -20,-400 0,-446 56,-135 261,-122 298,19 l 12,44 h 79 79 l -7,-47 c -8,-60 -59,-156 -98,-189 -16,-14 -53,-37 -81,-52 -43,-22 -64,-26 -136,-26 -72,0 -93,4 -136,26 -75,39 -107,70 -145,140 l -34,63 v 245 c 0,241 0,246 25,295 42,86 123,152 215,176 54,15 159,2 213,-25 z m 800,0 c 73,-37 105,-68 143,-138 l 34,-63 v -245 -245 l -34,-63 c -38,-70 -70,-101 -145,-140 -43,-22 -64,-26 -136,-26 -72,0 -93,4 -136,26 -75,39 -107,70 -145,140 l -34,63 v 245 c 0,241 0,246 25,295 42,86 123,152 215,176 54,15 159,2 213,-25 z m 656,-458 c 59,-18 138,-99 155,-161 16,-57 10,-141 -14,-188 -10,-19 -72,-89 -138,-156 l -121,-123 h 102 102 v -80 -80 h -200 -200 v 97 97 l 160,161 c 149,151 160,164 160,199 0,47 -36,86 -80,86 -51,0 -80,-38 -80,-105 v -55 h -80 -80 v 56 c 0,87 18,133 75,189 70,71 145,90 239,63 z"
         id="path43790"
         style="fill:#808080;fill-opacity:1" /><path
         d="m 2655,4066 c -41,-18 -83,-69 -90,-109 -4,-18 -5,-118 -3,-224 3,-210 5,-218 72,-267 39,-29 133,-29 172,0 68,51 69,53 69,294 0,205 -1,220 -21,246 -11,15 -32,37 -46,47 -33,25 -113,32 -153,13 z"
         id="path43792"
         style="fill:#808080;fill-opacity:1" /><path
         d="m 880,1920 v -80 h 640 640 v 80 80 H 1520 880 Z"
         id="path43794"
         style="fill:#808080;fill-opacity:1" /><path
         d="m 870,1646 c 0,-18 -3,-54 -6,-80 l -7,-46 h 663 663 l -7,46 c -3,26 -6,62 -6,80 v 34 H 1520 870 Z"
         id="path43796"
         style="fill:#808080;fill-opacity:1" /><path
         d="m 2960,1653 c 0,-16 -3,-52 -6,-80 l -7,-53 h 652 c 627,0 651,1 651,19 0,10 -3,46 -6,80 l -7,61 h -638 -639 z"
         id="path43798"
         style="fill:#808080;fill-opacity:1" /><path
         d="M 830,1344 C 830,1301 773,1078 725,935 695,847 620,656 557,510 L 443,245 261,242 80,240 V 160 80 h 2480 2480 v 80 80 h -190 -190 l -21,33 c -39,61 -167,332 -202,427 -72,194 -138,444 -162,613 l -6,47 h -668 -668 l -12,-72 C 2885,1066 2806,794 2719,592 l -49,-114 46,-106 c 25,-59 48,-113 51,-120 4,-10 -14,-12 -82,-10 l -88,3 -114,265 c -63,146 -138,337 -168,425 -48,143 -105,366 -105,409 0,15 -59,16 -690,16 -631,0 -690,-1 -690,-16 z"
         id="path43800"
         style="fill:#808080;fill-opacity:1" /></g></g></svg>
