<?xml version="1.0" standalone="no"?>
<!DOCTYPE svg PUBLIC "-//W3C//DTD SVG 20010904//EN"
 "http://www.w3.org/TR/2001/REC-SVG-20010904/DTD/svg10.dtd">
<svg version="1.0" xmlns="http://www.w3.org/2000/svg"
 width="512.000000pt" height="512.000000pt" viewBox="0 0 512.000000 512.000000"
 preserveAspectRatio="xMidYMid meet">

<g transform="translate(0.000000,512.000000) scale(0.100000,-0.100000)"
fill="#000000" stroke="none">
<path d="M1723 4865 c-178 -48 -318 -196 -355 -376 -7 -32 -15 -59 -18 -59 -4
0 -33 9 -66 21 -317 111 -644 -124 -644 -462 l0 -66 -83 -5 c-98 -6 -163 -34
-222 -93 -65 -65 -89 -125 -89 -225 -1 -78 2 -90 33 -148 62 -114 145 -163
292 -170 l96 -5 -13 -56 c-28 -118 -7 -219 63 -300 69 -81 164 -121 286 -121
100 0 144 -16 202 -75 70 -70 75 -92 75 -349 l0 -216 240 0 240 0 0 136 c0 78
5 154 12 178 16 55 99 138 154 154 28 8 123 12 286 12 187 0 258 4 303 15 187
49 328 205 358 395 l11 70 78 0 c76 0 78 -1 78 -24 0 -59 -32 -183 -64 -249
-83 -171 -198 -268 -411 -346 -17 -7 -14 -13 33 -60 31 -31 79 -65 120 -84 67
-32 68 -32 267 -37 228 -6 248 -12 314 -86 51 -59 61 -99 61 -258 l0 -136 240
0 240 0 0 136 c0 170 9 204 75 269 66 67 97 75 286 75 98 0 173 5 205 14 121
32 223 115 277 226 29 59 32 73 32 160 0 104 -18 158 -85 256 -18 25 -28 49
-24 53 5 4 29 16 54 26 109 46 172 112 206 214 45 138 -28 301 -168 378 -27
14 -48 29 -48 33 0 4 15 39 33 76 29 63 32 78 32 164 0 86 -3 101 -32 162 -44
93 -100 151 -191 196 -72 35 -81 37 -171 36 -76 0 -108 -5 -150 -22 l-54 -23
-16 23 c-66 95 -166 161 -277 182 l-66 12 -22 60 c-32 88 -67 142 -128 201
-240 226 -624 151 -764 -151 -19 -41 -34 -80 -34 -86 0 -8 -7 -9 -17 -5 -106
43 -131 48 -233 48 -102 0 -127 -5 -232 -48 -11 -4 -18 -3 -18 5 0 6 -15 45
-34 86 -98 211 -336 327 -553 269z m1698 -180 c25 -13 60 -35 76 -49 39 -33
90 -129 98 -188 l7 -48 -79 0 -79 0 -12 44 c-14 52 -66 102 -117 112 l-35 6 0
80 0 80 47 -7 c26 -4 68 -17 94 -30z m-2301 -444 l0 -79 -35 -6 c-51 -10 -103
-60 -117 -112 l-12 -44 -79 0 -79 0 7 47 c22 146 151 266 293 272 21 1 22 -2
22 -78z m938 -35 c27 -14 63 -36 79 -50 39 -33 90 -129 98 -188 l7 -48 -79 0
-79 0 -12 44 c-37 141 -242 154 -298 19 -20 -46 -20 -400 0 -446 56 -135 261
-122 298 19 l12 44 79 0 79 0 -7 -47 c-8 -60 -59 -156 -98 -189 -16 -14 -53
-37 -81 -52 -43 -22 -64 -26 -136 -26 -72 0 -93 4 -136 26 -75 39 -107 70
-145 140 l-34 63 0 245 c0 241 0 246 25 295 42 86 123 152 215 176 54 15 159
2 213 -25z m800 0 c73 -37 105 -68 143 -138 l34 -63 0 -245 0 -245 -34 -63
c-38 -70 -70 -101 -145 -140 -43 -22 -64 -26 -136 -26 -72 0 -93 4 -136 26
-75 39 -107 70 -145 140 l-34 63 0 245 c0 241 0 246 25 295 42 86 123 152 215
176 54 15 159 2 213 -25z m656 -458 c59 -18 138 -99 155 -161 16 -57 10 -141
-14 -188 -10 -19 -72 -89 -138 -156 l-121 -123 102 0 102 0 0 -80 0 -80 -200
0 -200 0 0 97 0 97 160 161 c149 151 160 164 160 199 0 47 -36 86 -80 86 -51
0 -80 -38 -80 -105 l0 -55 -80 0 -80 0 0 56 c0 87 18 133 75 189 70 71 145 90
239 63z"/>
<path d="M2655 4066 c-41 -18 -83 -69 -90 -109 -4 -18 -5 -118 -3 -224 3 -210
5 -218 72 -267 39 -29 133 -29 172 0 68 51 69 53 69 294 0 205 -1 220 -21 246
-11 15 -32 37 -46 47 -33 25 -113 32 -153 13z"/>
<path d="M880 1920 l0 -80 640 0 640 0 0 80 0 80 -640 0 -640 0 0 -80z"/>
<path d="M870 1646 c0 -18 -3 -54 -6 -80 l-7 -46 663 0 663 0 -7 46 c-3 26 -6
62 -6 80 l0 34 -650 0 -650 0 0 -34z"/>
<path d="M2960 1653 c0 -16 -3 -52 -6 -80 l-7 -53 652 0 c627 0 651 1 651 19
0 10 -3 46 -6 80 l-7 61 -638 0 -639 0 0 -27z"/>
<path d="M830 1344 c0 -43 -57 -266 -105 -409 -30 -88 -105 -279 -168 -425
l-114 -265 -182 -3 -181 -2 0 -80 0 -80 2480 0 2480 0 0 80 0 80 -190 0 -190
0 -21 33 c-39 61 -167 332 -202 427 -72 194 -138 444 -162 613 l-6 47 -668 0
-668 0 -12 -72 c-36 -222 -115 -494 -202 -696 l-49 -114 46 -106 c25 -59 48
-113 51 -120 4 -10 -14 -12 -82 -10 l-88 3 -114 265 c-63 146 -138 337 -168
425 -48 143 -105 366 -105 409 0 15 -59 16 -690 16 -631 0 -690 -1 -690 -16z"/>
</g>
</svg>
