<?xml version="1.0" standalone="no"?>
<!DOCTYPE svg PUBLIC "-//W3C//DTD SVG 20010904//EN"
 "http://www.w3.org/TR/2001/REC-SVG-20010904/DTD/svg10.dtd">
<svg version="1.0" xmlns="http://www.w3.org/2000/svg"
 width="512.000000pt" height="512.000000pt" viewBox="0 0 512.000000 512.000000"
 preserveAspectRatio="xMidYMid meet">

<g transform="translate(0.000000,512.000000) scale(0.100000,-0.100000)"
fill="#000000" stroke="none">
<path d="M2493 4748 c-82 -83 -113 -141 -113 -213 0 -71 28 -124 114 -214 123
-129 125 -214 7 -355 -26 -30 -41 -58 -41 -75 0 -36 38 -71 77 -71 41 0 119
84 165 178 30 61 33 75 33 157 -1 78 -4 97 -28 143 -15 29 -59 85 -97 125
-103 106 -103 122 -4 228 50 53 64 75 64 99 0 40 -31 70 -73 70 -27 0 -44 -12
-104 -72z"/>
<path d="M1433 4408 c-93 -96 -107 -126 -107 -213 0 -88 14 -117 109 -215 88
-91 104 -133 85 -218 -8 -38 -26 -71 -66 -120 -69 -86 -70 -135 -3 -161 40
-15 81 10 134 80 77 102 90 139 90 249 0 84 -3 101 -27 145 -14 28 -43 66 -63
85 -62 58 -115 130 -115 156 0 15 26 53 70 105 77 89 87 120 47 157 -43 41
-76 30 -154 -50z"/>
<path d="M3553 4408 c-40 -40 -81 -93 -92 -118 -45 -100 -16 -203 83 -300 81
-78 99 -111 99 -179 0 -65 -23 -116 -83 -186 -55 -64 -54 -116 3 -140 42 -17
75 -4 118 48 90 108 125 198 117 302 -8 88 -37 145 -122 234 -78 81 -96 117
-79 154 6 12 38 52 72 90 68 76 77 108 38 145 -43 40 -75 30 -154 -50z"/>
<path d="M2195 3495 c-82 -29 -124 -121 -91 -199 9 -21 52 -75 96 -121 l80
-82 -72 -12 c-606 -104 -1147 -509 -1426 -1066 -120 -240 -188 -487 -208 -752
-6 -89 -6 -92 19 -117 32 -32 71 -33 101 -2 20 19 25 38 31 102 22 262 80 472
191 696 311 624 947 1018 1644 1018 697 0 1333 -394 1644 -1018 108 -218 162
-404 186 -651 14 -136 15 -140 56 -157 30 -13 38 -12 63 1 39 20 44 41 36 138
-55 687 -449 1284 -1065 1615 -152 81 -390 162 -568 193 l-72 12 80 82 c44 46
87 100 96 121 34 82 -14 179 -101 203 -63 17 -669 14 -720 -4z m560 -265
l-120 -120 -75 0 -75 0 -120 120 -120 120 315 0 315 0 -120 -120z"/>
<path d="M43 910 c-40 -16 -45 -44 -41 -194 3 -133 5 -145 34 -206 56 -117
158 -192 285 -210 85 -13 4393 -13 4478 0 127 18 229 93 285 210 29 62 31 72
34 210 4 134 2 147 -16 170 l-20 25 -2509 2 c-1433 1 -2517 -2 -2530 -7z
m4925 -222 c-7 -120 -46 -187 -130 -223 -33 -13 -278 -15 -2278 -15 -2000 0
-2245 2 -2278 15 -84 36 -123 103 -130 223 l-5 82 2413 0 2413 0 -5 -82z"/>
</g>
</svg>
