<?xml version="1.0" encoding="UTF-8" standalone="no"?>
<svg
   version="1.0"
   width="512.000000pt"
   height="512.000000pt"
   viewBox="0 0 512.000000 512.000000"
   preserveAspectRatio="xMidYMid meet"
   id="svg24"
   sodipodi:docname="factory.svg"
   inkscape:version="1.2.2 (732a01da63, 2022-12-09)"
   xml:space="preserve"
   xmlns:inkscape="http://www.inkscape.org/namespaces/inkscape"
   xmlns:sodipodi="http://sodipodi.sourceforge.net/DTD/sodipodi-0.dtd"
   xmlns="http://www.w3.org/2000/svg"
   xmlns:svg="http://www.w3.org/2000/svg"><defs
     id="defs28" /><sodipodi:namedview
     id="namedview26"
     pagecolor="#ffffff"
     bordercolor="#000000"
     borderopacity="0.25"
     inkscape:showpageshadow="2"
     inkscape:pageopacity="0.0"
     inkscape:pagecheckerboard="0"
     inkscape:deskcolor="#d1d1d1"
     inkscape:document-units="pt"
     showgrid="false"
     inkscape:zoom="0.70710678"
     inkscape:cx="36.062446"
     inkscape:cy="353.55339"
     inkscape:window-width="1920"
     inkscape:window-height="1017"
     inkscape:window-x="-8"
     inkscape:window-y="-8"
     inkscape:window-maximized="1"
     inkscape:current-layer="g45399" /><g
     transform="matrix(0.05519184,0,0,-0.05539069,0.04480816,512)"
     fill="#000000"
     stroke="none"
     id="g22"><g
       transform="matrix(0.79945059,0,0,0.66480795,2229.1675,-3444.2589)"
       fill="#000000"
       stroke="none"
       id="g2802"
       style="fill:#808080;fill-opacity:1;stroke-width:1.002;stroke-dasharray:none"><g
         transform="matrix(2.266384,0,0,2.7156076,-3299.3113,5445.8351)"
         fill="#000000"
         stroke="none"
         id="g45399"><path
           d="m 3840,4757 c -342,-150 -564,-420 -644,-781 -16,-76 -30,-114 -46,-131 -31,-33 -84,-47 -135,-35 -62,15 -224,12 -290,-5 -33,-8 -98,-34 -144,-57 -197,-99 -332,-305 -348,-534 -4,-53 -12,-94 -23,-112 -18,-30 -74,-62 -107,-62 -29,0 -131,-37 -177,-64 -98,-57 -187,-181 -217,-298 -11,-46 -13,-48 -47,-48 -20,0 -72,5 -117,12 -95,13 -123,8 -170,-33 -25,-22 -39,-47 -51,-88 -30,-108 -36,-121 -80,-181 l -44,-60 H 954 708 l -35,37 c -137,148 -131,374 13,516 65,64 131,95 234,108 149,18 190,65 190,217 0,163 52,294 160,402 143,143 332,192 536,140 91,-24 134,-20 182,16 45,35 59,68 73,170 29,224 130,424 293,584 56,54 68,84 44,108 -7,7 -24,12 -39,12 -21,0 -46,-20 -116,-94 -168,-178 -252,-365 -288,-639 -10,-73 -32,-83 -131,-57 -238,62 -484,-11 -647,-191 -107,-118 -167,-275 -167,-439 0,-109 -8,-119 -113,-130 -181,-21 -329,-138 -397,-315 -46,-120 -26,-298 44,-405 l 23,-35 -20,-27 c -19,-26 -19,-28 -3,-52 10,-16 26,-26 41,-26 25,0 25,-1 19,-72 -3,-40 -39,-521 -79,-1068 C 461,169 454,42 466,22 c 16,-25 42,-28 68,-9 17,12 23,73 62,603 24,324 44,592 44,597 0,4 130,7 289,7 h 288 l 6,-67 c 3,-38 22,-302 43,-588 39,-546 42,-565 87,-565 34,0 47,19 47,70 0,25 -34,509 -75,1074 -42,566 -74,1030 -73,1030 2,1 17,6 33,12 26,8 30,15 33,49 2,22 9,47 17,55 23,27 63,115 79,175 22,86 31,92 116,77 39,-7 93,-12 120,-12 42,0 50,-3 50,-19 0,-35 40,-148 65,-186 24,-35 25,-39 10,-55 -26,-29 -16,-73 20,-84 17,-6 31,-11 33,-12 1,-1 -31,-465 -73,-1031 -41,-567 -75,-1050 -75,-1075 0,-49 13,-68 47,-68 46,0 48,18 87,565 21,286 40,550 43,588 l 6,67 h 288 c 159,0 289,-3 289,-7 0,-5 20,-273 44,-597 39,-529 45,-591 62,-603 26,-19 52,-16 68,10 12,19 5,145 -59,1017 -40,547 -76,1028 -79,1068 -6,71 -6,72 19,72 28,0 59,39 49,63 -3,9 4,29 15,46 12,17 37,63 55,103 55,119 86,138 234,138 53,0 129,7 167,15 144,30 300,132 390,256 70,94 166,115 266,59 171,-97 304,-142 473,-161 339,-38 708,111 920,370 56,68 66,97 44,119 -29,29 -59,13 -146,-79 -102,-108 -179,-165 -303,-223 -169,-78 -328,-105 -506,-86 -138,15 -240,48 -391,126 -113,59 -129,64 -186,64 -98,0 -152,-23 -216,-93 -111,-122 -160,-164 -229,-201 -89,-46 -178,-66 -306,-66 -84,0 -108,-4 -150,-24 -47,-21 -135,-106 -135,-128 0,-22 -52,-117 -85,-156 l -37,-42 h -243 -243 l -37,41 c -21,23 -49,67 -64,98 -22,48 -26,69 -26,151 0,82 4,103 27,152 52,112 159,195 280,217 138,25 218,111 218,237 0,22 7,71 15,109 40,189 170,338 355,406 67,25 141,28 345,18 54,-3 78,1 105,15 81,42 121,102 140,207 60,336 304,631 617,745 59,22 75,32 80,52 16,65 -40,76 -147,29 z M 1150,2162 c 0,-24 18,-271 25,-344 l 6,-58 H 930 c -231,0 -250,1 -250,18 0,9 7,98 15,197 8,99 15,186 15,193 0,9 51,12 220,12 205,0 220,-1 220,-18 z m 1220,6 c 0,-7 7,-94 15,-193 8,-99 15,-188 15,-197 0,-17 -19,-18 -250,-18 h -251 l 6,58 c 7,73 25,320 25,344 0,17 15,18 220,18 169,0 220,-3 220,-12 z M 1183,1628 c 3,-18 9,-85 12,-148 4,-63 9,-123 11,-132 5,-17 -13,-18 -276,-18 H 648 l 5,33 c 3,17 9,88 13,157 3,69 8,128 11,133 2,4 116,7 252,7 h 249 z m 1229,-73 c 3,-55 9,-128 13,-162 l 6,-63 h -281 c -263,0 -281,1 -276,18 2,9 7,69 11,132 3,63 9,130 12,148 l 5,32 252,-2 251,-3 z"
           id="path45385"
           style="stroke:#808080;stroke-opacity:1;fill:#808080;fill-opacity:1;stroke-width:60.00000064;stroke-dasharray:none" /><path
           d="m 3750,4072 c -19,-9 -45,-32 -57,-51 -22,-32 -23,-43 -23,-221 0,-178 1,-189 23,-221 31,-47 80,-69 150,-69 107,0 181,56 175,133 -3,46 -23,63 -60,54 -17,-5 -28,-16 -33,-34 -10,-43 -24,-53 -72,-53 -84,0 -83,-2 -83,190 0,194 0,194 87,188 43,-3 48,-6 67,-43 35,-67 96,-58 96,15 0,46 -37,96 -87,116 -46,20 -141,18 -183,-4 z"
           id="path45389"
           style="stroke:#808080;stroke-opacity:1;fill:#808080;fill-opacity:1;stroke-width:60.00000064;stroke-dasharray:none" /><path
           d="m 4185,4076 c -17,-7 -43,-28 -58,-45 l -27,-33 v -198 -198 l 27,-33 c 35,-42 79,-59 150,-59 70,0 119,22 150,69 22,32 23,43 23,221 0,178 -1,189 -23,221 -12,19 -38,42 -57,51 -42,21 -141,23 -185,4 z m 146,-96 c 18,-10 19,-23 19,-180 0,-157 -1,-170 -19,-180 -27,-14 -104,-13 -119,2 -17,17 -17,339 0,356 15,15 92,16 119,2 z"
           id="path45391"
           style="stroke:#808080;stroke-opacity:1;fill:#808080;fill-opacity:1;stroke-width:60.00000064;stroke-dasharray:none" /><path
           d="m 4532,3638 c -7,-7 -12,-22 -12,-34 0,-37 26,-54 81,-54 42,0 49,-3 49,-20 0,-17 -7,-20 -40,-20 -30,0 -47,-7 -65,-25 -23,-22 -25,-32 -25,-109 0,-110 6,-116 108,-116 86,0 122,16 122,54 0,34 -19,46 -77,46 -49,0 -53,2 -53,24 0,20 6,24 42,29 66,9 88,41 88,128 0,106 -3,109 -113,109 -59,0 -97,-4 -105,-12 z"
           id="path45393"
           style="stroke:#808080;stroke-opacity:1;fill:#808080;fill-opacity:1;stroke-width:60.00000064;stroke-dasharray:none" /><path
           d="m 3585,2440 c -375,-53 -671,-319 -762,-687 -25,-102 -22,-313 6,-418 43,-163 142,-329 259,-436 501,-459 1296,-224 1475,436 30,113 30,325 -1,440 -49,182 -177,377 -319,484 -183,140 -444,211 -658,181 z m 285,-116 c 44,-9 118,-36 179,-66 91,-44 116,-61 196,-141 143,-143 213,-285 237,-479 32,-257 -80,-531 -285,-698 -72,-59 -213,-131 -307,-156 -90,-25 -300,-25 -390,0 -281,77 -496,293 -571,572 -30,110 -30,288 -1,397 71,264 278,477 539,557 134,40 251,44 403,14 z"
           id="path45395"
           style="stroke:#808080;stroke-opacity:1;fill:#808080;fill-opacity:1;stroke-width:60.00000064;stroke-dasharray:none" /><path
           d="m 3620,2048 c -72,-50 -75,-57 -78,-279 -3,-183 -5,-200 -20,-193 -9,3 -39,9 -67,11 -38,3 -58,-1 -83,-16 -66,-42 -90,-125 -57,-195 9,-18 80,-96 158,-173 216,-214 228,-214 445,1 79,77 150,153 158,168 20,39 18,107 -6,146 -39,64 -128,91 -192,58 l -27,-14 -3,203 c -3,188 -5,206 -24,232 -34,46 -82,73 -129,73 -27,0 -54,-8 -75,-22 z m 117,-108 c 9,-18 13,-92 13,-262 0,-202 2,-239 16,-252 26,-27 63,-19 111,24 63,55 113,51 113,-9 0,-36 -255,-291 -290,-291 -18,0 -61,36 -162,137 -76,76 -138,145 -138,155 0,22 27,48 51,48 11,0 39,-18 63,-40 41,-38 76,-49 102,-32 30,20 34,55 34,289 0,177 3,242 12,251 20,20 61,10 75,-18 z"
           id="path45397"
           style="stroke:#808080;stroke-opacity:1;fill:#808080;fill-opacity:1;stroke-width:60.00000064;stroke-dasharray:none" /><path
           style="fill:#808080;fill-opacity:1;stroke:#808080;stroke-width:100.00000105;stroke-linejoin:round;stroke-dasharray:none;stroke-opacity:1"
           d="M 309.84621,-15.724863 H 5210.0962"
           id="path49137"
           sodipodi:nodetypes="cc" /></g></g></g></svg>
