<?xml version="1.0" standalone="no"?>
<!DOCTYPE svg PUBLIC "-//W3C//DTD SVG 20010904//EN"
 "http://www.w3.org/TR/2001/REC-SVG-20010904/DTD/svg10.dtd">
<svg version="1.0" xmlns="http://www.w3.org/2000/svg"
 width="512.000000pt" height="512.000000pt" viewBox="0 0 512.000000 512.000000"
 preserveAspectRatio="xMidYMid meet">

<g transform="translate(0.000000,512.000000) scale(0.100000,-0.100000)"
fill="#000000" stroke="none">
<path d="M761 5105 c-303 -57 -534 -265 -607 -548 -8 -33 -22 -110 -30 -171
-8 -61 -21 -156 -30 -211 -21 -139 -30 -759 -15 -1021 24 -410 71 -842 95
-879 29 -44 99 -35 123 15 9 19 9 48 -1 125 -8 55 -12 101 -11 103 1 1 29 -44
61 -100 113 -200 247 -387 394 -549 l69 -76 -6 -354 -6 -353 -83 87 c-85 89
-198 240 -252 337 -25 45 -38 92 -66 245 -19 105 -38 215 -42 245 -12 91 -81
131 -132 77 -28 -29 -27 -37 3 -220 146 -860 367 -1485 610 -1723 333 -327
796 -47 1407 851 174 256 403 639 563 940 32 61 60 112 62 115 2 2 105 -97
228 -220 l225 -225 0 -53 c0 -33 7 -67 19 -90 11 -20 284 -301 613 -628 566
-565 596 -593 653 -614 121 -44 261 -15 350 75 69 68 90 124 90 235 0 131 -17
163 -164 313 -94 94 -122 117 -144 117 -61 0 -96 -45 -76 -97 5 -15 57 -75
113 -133 57 -58 109 -115 115 -127 20 -39 13 -122 -14 -169 -41 -70 -142 -103
-222 -73 -15 5 -287 269 -605 587 -513 512 -578 580 -578 607 0 26 17 48 104
133 57 56 111 102 122 102 11 0 169 -150 394 -374 206 -206 385 -379 397 -385
48 -25 103 14 103 73 0 26 -48 79 -372 404 -205 205 -393 385 -417 400 -34 20
-59 26 -103 27 l-59 1 -264 264 -264 264 14 27 c60 114 89 349 66 524 -59 449
-346 955 -787 1386 -379 370 -824 626 -1224 704 -118 23 -326 28 -419 10z
m404 -160 c544 -113 1176 -588 1557 -1170 143 -218 241 -434 295 -653 35 -138
39 -366 10 -472 -47 -166 -156 -306 -294 -378 -117 -60 -185 -76 -343 -76
-156 -1 -243 15 -425 75 -616 205 -1283 834 -1558 1469 -94 217 -131 377 -131
565 0 206 47 341 164 468 87 94 216 162 354 187 72 13 276 5 371 -15z m-816
-1430 c103 -194 253 -405 424 -596 l86 -96 -14 -234 c-7 -129 -17 -312 -21
-407 -6 -150 -9 -171 -22 -160 -27 23 -197 256 -261 360 -80 128 -195 356
-255 507 -45 110 -46 118 -56 270 -5 86 -10 264 -10 396 l1 240 37 -90 c21
-50 62 -135 91 -190z m1012 -1104 c149 -100 326 -196 454 -246 39 -15 72 -29
73 -30 10 -9 -103 -455 -162 -640 -28 -92 -37 -109 -53 -107 -37 7 -273 131
-369 194 -103 68 -176 124 -282 217 l-63 54 6 131 c4 72 13 254 21 405 8 151
14 280 14 288 0 7 48 -28 108 -78 59 -49 173 -134 253 -188z m1916 -333 l243
-243 -52 -52 c-29 -29 -57 -53 -63 -53 -5 0 -118 107 -249 239 l-239 239 54
55 c30 31 56 56 59 56 3 1 114 -108 247 -241z m-576 -30 c-190 -346 -325 -580
-426 -739 l-46 -71 -52 6 c-55 7 -282 61 -323 76 -23 9 -23 10 -8 52 28 78
111 380 149 543 21 88 41 163 44 166 3 4 47 -2 96 -12 184 -39 383 -35 522 10
32 11 61 19 66 20 4 1 -6 -23 -22 -51z m-1496 -579 c66 -45 190 -115 275 -157
85 -41 156 -76 158 -77 4 -4 -123 -314 -171 -417 l-46 -97 -57 19 c-84 29
-249 110 -330 162 -63 41 -72 50 -77 84 -9 51 -9 557 -1 617 l7 47 61 -50 c33
-28 115 -86 181 -131z m715 -322 c52 -14 121 -31 153 -37 31 -6 57 -15 57 -19
0 -10 -144 -212 -243 -340 -65 -84 -82 -101 -105 -101 -32 0 -202 27 -208 33
-2 2 18 51 45 108 41 85 125 289 155 373 7 21 4 21 146 -17z m-1103 -442 c6
-93 17 -208 23 -254 6 -46 9 -85 7 -88 -6 -5 -42 58 -91 154 -63 127 -141 338
-205 556 l-20 68 137 -133 137 -133 12 -170z m201 31 c56 -35 147 -79 240
-116 45 -18 82 -36 82 -40 0 -23 -172 -276 -240 -353 l-43 -49 -14 33 c-30 71
-53 227 -77 507 -2 23 0 42 5 42 5 0 26 -11 47 -24z m576 -211 c44 -9 81 -17
83 -19 8 -7 -188 -186 -257 -235 -74 -52 -149 -95 -155 -89 -2 2 21 37 51 78
30 41 83 121 116 178 34 56 66 102 72 102 6 0 47 -7 90 -15z"/>
<path d="M855 4704 c-51 -8 -128 -36 -165 -59 -118 -75 -174 -233 -151 -424
43 -353 276 -765 636 -1126 563 -563 1266 -806 1519 -524 70 78 90 140 90 284
1 131 -12 200 -65 351 -194 559 -785 1172 -1350 1401 -184 75 -397 115 -514
97z m276 -174 c47 -12 91 -25 98 -29 9 -6 9 -60 1 -252 -6 -134 -14 -408 -18
-609 l-7 -365 -82 98 c-273 325 -433 665 -436 928 -1 82 2 102 24 144 13 27
36 58 51 68 69 51 209 57 369 17z m312 -121 c214 -108 503 -334 680 -532 l68
-76 -46 -150 c-82 -270 -169 -499 -277 -723 -34 -71 -66 -128 -71 -128 -20 0
-235 151 -333 233 l-99 82 -3 240 c-5 359 18 1075 35 1075 2 0 23 -10 46 -21z
m960 -897 c203 -328 287 -657 205 -805 -58 -106 -202 -132 -416 -76 -73 20
-213 70 -239 87 -9 6 8 53 66 178 90 196 169 397 237 608 l48 148 22 -25 c12
-14 47 -66 77 -115z"/>
</g>
</svg>
