<?xml version="1.0" standalone="no"?>
<!DOCTYPE svg PUBLIC "-//W3C//DTD SVG 20010904//EN"
 "http://www.w3.org/TR/2001/REC-SVG-20010904/DTD/svg10.dtd">
<svg version="1.0" xmlns="http://www.w3.org/2000/svg"
 width="512.000000pt" height="512.000000pt" viewBox="0 0 512.000000 512.000000"
 preserveAspectRatio="xMidYMid meet">

<g transform="translate(0.000000,512.000000) scale(0.100000,-0.100000)"
fill="#000000" stroke="none">
<path d="M1775 4158 l-779 -140 -498 -490 -497 -490 32 -47 c17 -25 70 -85
117 -132 69 -69 103 -94 170 -128 47 -23 108 -47 136 -53 l52 -12 -34 -42 -34
-42 64 -80 c104 -128 208 -202 351 -249 68 -23 98 -27 205 -27 105 -1 137 3
200 22 157 50 198 79 438 309 l183 176 437 93 c240 52 449 96 465 100 l27 6 0
-149 0 -148 -235 -330 c-253 -356 -304 -442 -336 -562 -28 -101 -30 -279 -6
-372 42 -157 101 -263 207 -370 80 -81 235 -190 249 -175 4 5 133 178 286 384
152 206 307 406 344 443 124 128 262 201 473 251 190 45 310 97 448 194 91 65
158 129 272 265 l99 117 255 0 254 0 0 910 0 910 -1282 -1 -1283 -1 -780 -140z
m3045 -768 l0 -610 -175 0 -174 0 -151 -180 c-212 -252 -336 -341 -547 -391
-233 -55 -351 -102 -490 -195 -136 -91 -222 -184 -450 -492 l-211 -283 -21 30
c-95 133 -112 327 -42 476 16 33 146 225 289 426 l260 366 3 384 3 384 -36 17
c-177 84 -677 301 -691 300 -31 -2 -1051 -192 -1069 -200 -9 -4 -81 -64 -160
-133 -285 -252 -342 -298 -388 -313 -70 -23 -131 -29 -193 -17 -59 11 -157 48
-157 60 0 7 478 483 641 639 l85 82 720 129 719 129 1118 1 1117 1 0 -610z
m-2349 -126 c57 -25 113 -51 124 -57 16 -8 -67 -29 -414 -103 -238 -51 -437
-95 -441 -96 -5 -2 -103 -94 -218 -204 -116 -111 -231 -214 -256 -229 -57 -33
-136 -55 -202 -55 -55 0 -166 30 -198 53 -19 14 -16 18 45 87 35 40 89 91 120
114 31 22 138 115 238 206 l181 164 433 82 c237 45 444 82 458 83 15 0 73 -20
130 -45z"/>
</g>
</svg>
