<?xml version="1.0" standalone="no"?>
<!DOCTYPE svg PUBLIC "-//W3C//DTD SVG 20010904//EN"
 "http://www.w3.org/TR/2001/REC-SVG-20010904/DTD/svg10.dtd">
<svg version="1.0" xmlns="http://www.w3.org/2000/svg"
 width="512.000000pt" height="512.000000pt" viewBox="0 0 512.000000 512.000000"
 preserveAspectRatio="xMidYMid meet">

<g transform="translate(0.000000,512.000000) scale(0.100000,-0.100000)"
fill="#000000" stroke="none">
<path d="M2260 5098 c-34 -17 -58 -43 -100 -103 -79 -114 -171 -204 -257 -249
-80 -42 -104 -70 -111 -131 -7 -66 26 -116 103 -154 l38 -18 -59 -41 c-100
-70 -113 -82 -125 -122 -17 -55 -4 -104 37 -145 l35 -35 -48 -32 c-69 -47
-121 -100 -128 -131 -16 -64 23 -141 85 -167 16 -7 27 -17 24 -22 -4 -6 -37
-30 -74 -54 -79 -51 -107 -82 -116 -130 -8 -46 19 -118 55 -143 51 -37 325
-92 529 -107 l92 -7 0 -128 c0 -71 -2 -129 -4 -129 -3 0 -41 23 -87 51 -164
102 -71 94 -1064 97 -668 2 -880 0 -915 -10 -59 -16 -141 -96 -158 -154 -17
-60 -17 -2808 0 -2868 16 -55 99 -138 154 -154 60 -18 4728 -18 4788 0 55 16
138 99 154 154 18 63 16 1974 -2 2027 -21 57 -62 105 -116 132 l-49 25 -461 0
-460 0 0 179 0 180 53 5 c210 22 266 30 377 52 69 14 141 33 160 43 50 26 80
74 80 130 0 62 -26 102 -97 147 -32 20 -68 45 -81 55 l-24 18 34 14 c19 8 46
29 61 46 22 27 27 42 27 86 0 65 -18 90 -114 155 l-66 45 25 19 c54 39 73 123
41 184 -9 18 -45 50 -85 76 -38 24 -71 49 -75 54 -3 6 14 21 39 33 70 35 103
101 85 169 -12 44 -48 80 -116 113 -74 37 -156 116 -233 226 -78 110 -121 141
-195 141 -78 0 -123 -35 -207 -160 -60 -90 -132 -158 -219 -205 -88 -47 -120
-88 -120 -150 0 -56 33 -103 94 -136 l48 -26 -80 -52 c-85 -55 -112 -92 -112
-149 0 -45 16 -79 50 -111 l31 -28 -76 -52 c-41 -29 -82 -65 -90 -81 -35 -68
-5 -157 63 -192 19 -9 36 -18 39 -21 2 -3 -32 -29 -77 -58 -112 -73 -140 -131
-106 -212 24 -58 65 -83 183 -111 101 -24 260 -47 416 -61 l67 -7 -2 -176 -3
-177 -135 -3 c-158 -3 -305 10 -373 33 -27 9 -160 86 -295 172 -136 85 -320
201 -409 257 l-162 101 -1 198 0 197 33 0 c58 0 287 30 386 50 150 31 173 40
213 80 34 34 38 43 38 89 0 71 -20 104 -90 150 -33 22 -70 48 -83 57 l-23 18
40 20 c53 27 91 97 80 150 -9 50 -33 77 -114 131 l-69 46 34 30 c49 44 63 95
41 154 -15 38 -30 54 -91 95 -41 27 -76 54 -79 59 -3 5 8 14 25 22 105 43 139
150 73 229 -14 16 -56 46 -94 66 -79 41 -168 130 -247 245 -78 115 -157 145
-253 97z m123 -257 c40 -63 131 -162 187 -204 l35 -27 -38 0 c-44 0 -92 -22
-107 -49 -5 -11 -10 -38 -10 -61 0 -38 6 -47 93 -136 51 -52 91 -97 88 -99 -2
-3 -12 -5 -22 -5 -26 0 -58 -31 -67 -65 -16 -57 2 -88 103 -176 52 -46 95 -86
95 -90 0 -3 -19 -9 -41 -13 -59 -9 -79 -23 -95 -63 -28 -65 7 -113 184 -253
23 -18 39 -37 35 -41 -10 -8 -198 -36 -305 -45 l-78 -7 0 171 c0 94 -4 182
-10 196 -13 35 -56 60 -98 59 -27 -1 -43 -9 -64 -32 l-28 -31 0 -181 0 -182
-82 7 c-115 10 -291 36 -301 45 -4 4 21 30 56 58 34 28 86 76 115 107 42 44
52 61 52 90 0 50 -39 92 -93 101 -23 4 -45 9 -49 12 -4 2 18 26 50 52 103 87
152 146 152 185 0 39 -41 96 -69 96 -35 0 -29 13 26 64 83 75 133 142 133 177
0 67 -47 109 -122 109 -28 0 -26 3 49 74 43 40 101 105 128 144 28 39 52 71
55 71 3 1 22 -26 43 -58z m1571 -586 c43 -69 121 -157 171 -195 25 -19 45 -37
45 -42 0 -4 -18 -8 -39 -8 -74 0 -126 -70 -101 -135 6 -16 50 -68 98 -116 85
-84 87 -88 63 -94 -36 -9 -69 -42 -76 -76 -10 -45 18 -88 115 -174 49 -43 88
-81 85 -83 -2 -2 -23 -8 -47 -13 -24 -6 -53 -20 -65 -31 -29 -27 -39 -78 -21
-111 13 -26 121 -128 192 -182 35 -27 37 -29 17 -37 -22 -8 -203 -33 -308 -42
l-62 -6 -3 184 c-3 179 -4 185 -27 210 -45 48 -132 40 -161 -13 -6 -12 -10
-96 -10 -201 l0 -181 -62 6 c-102 10 -302 37 -321 44 -15 6 -11 12 25 38 24
17 78 64 121 105 82 78 92 103 66 162 -12 26 -63 56 -96 56 -48 1 -42 17 27
74 101 85 140 130 140 166 0 47 -20 79 -61 97 l-38 17 74 72 c80 78 115 126
115 161 0 60 -48 103 -115 103 -44 0 -44 9 1 39 45 31 125 118 175 193 22 32
43 58 47 58 4 0 20 -20 36 -45z m-2021 -1269 c26 -8 295 -171 627 -381 320
-202 605 -378 635 -391 124 -57 126 -57 950 -61 572 -3 761 -7 767 -16 4 -7 8
-58 8 -114 l0 -103 -762 0 c-768 0 -893 5 -981 35 -27 9 -245 140 -485 292
-240 152 -508 320 -595 375 -252 158 -135 143 -1084 146 l-813 3 0 102 c0 67
4 107 12 115 19 19 1658 17 1721 -2z m-130 -430 c26 -8 295 -171 627 -381 320
-202 605 -378 635 -391 125 -58 118 -57 1023 -61 l832 -4 0 -425 0 -425 -837
4 c-739 3 -845 5 -899 20 -34 9 -327 142 -652 296 -324 154 -613 288 -643 298
-50 16 -113 18 -871 21 l-818 3 0 529 0 530 778 0 c634 0 787 -3 825 -14z m5
-1256 c23 -6 300 -132 615 -282 315 -149 594 -279 621 -290 132 -51 122 -51
1029 -55 l847 -4 0 -223 c0 -159 -3 -225 -12 -234 -17 -17 -4679 -17 -4696 0
-8 8 -12 45 -12 100 l0 88 275 0 275 0 32 29 c27 24 33 36 33 71 0 35 -6 47
-33 71 l-32 29 -275 0 -275 0 0 355 0 355 783 0 c479 0 799 -4 825 -10z"/>
<path d="M683 2266 c-23 -20 -28 -32 -28 -71 0 -39 5 -51 28 -71 64 -55 167
-11 167 71 0 82 -103 126 -167 71z"/>
<path d="M1373 1966 c-23 -20 -28 -32 -28 -71 0 -39 5 -51 28 -71 64 -55 167
-11 167 71 0 82 -103 126 -167 71z"/>
<path d="M2233 1966 c-23 -20 -28 -32 -28 -71 0 -39 5 -51 28 -71 64 -55 167
-11 167 71 0 82 -103 126 -167 71z"/>
<path d="M3651 1506 c-59 -33 -67 -102 -17 -152 50 -50 121 -42 152 17 46 91
-47 184 -135 135z"/>
<path d="M2853 1426 c-23 -20 -28 -32 -28 -71 0 -39 5 -51 28 -71 64 -55 167
-11 167 71 0 82 -103 126 -167 71z"/>
<path d="M4413 1256 c-23 -20 -28 -32 -28 -71 0 -39 5 -51 28 -71 64 -55 167
-11 167 71 0 82 -103 126 -167 71z"/>
<path d="M1124 590 c-31 -12 -54 -49 -54 -88 0 -44 14 -68 50 -87 43 -22 76
-18 112 14 84 75 -2 204 -108 161z"/>
</g>
</svg>
