<?xml version="1.0" standalone="no"?>
<!DOCTYPE svg PUBLIC "-//W3C//DTD SVG 20010904//EN"
 "http://www.w3.org/TR/2001/REC-SVG-20010904/DTD/svg10.dtd">
<svg version="1.0" xmlns="http://www.w3.org/2000/svg"
 width="512.000000pt" height="512.000000pt" viewBox="0 0 512.000000 512.000000"
 preserveAspectRatio="xMidYMid meet">

<g transform="translate(0.000000,512.000000) scale(0.100000,-0.100000)"
fill="#000000" stroke="none">
<path d="M3000 3729 c-1310 -193 -1580 -237 -1680 -276 -119 -47 -215 -119
-320 -243 l-95 -112 -3 191 -2 191 -450 0 -450 0 0 -1080 0 -1080 450 0 450 0
0 128 0 127 258 212 259 211 764 5 c767 5 934 11 1304 47 339 33 485 66 652
145 248 117 516 368 723 675 76 114 175 286 223 390 37 80 38 87 27 125 -48
160 -149 243 -284 233 -116 -10 -220 -86 -399 -293 -235 -272 -430 -435 -647
-539 l-85 -41 -630 -3 -631 -2 -71 52 c-40 29 -72 56 -73 60 -1 22 129 60 634
187 507 127 566 144 654 187 122 61 229 161 255 238 25 74 22 133 -10 197 -47
91 -150 140 -293 138 -36 -1 -274 -32 -530 -70z m658 -116 c54 -40 34 -118
-48 -183 -94 -74 -180 -102 -750 -244 -300 -75 -566 -146 -592 -158 -93 -42
-158 -127 -158 -207 0 -35 5 -40 132 -135 l132 -99 651 -5 650 -5 87 30 c235
81 491 279 767 591 147 167 206 222 271 251 51 23 83 17 115 -21 44 -52 42
-68 -20 -185 -273 -517 -618 -858 -970 -961 -320 -93 -1096 -136 -2259 -123
l-300 3 -233 -191 -233 -191 0 536 0 535 151 175 c161 187 198 220 297 265 91
43 234 67 1587 269 579 86 669 93 723 53z m-2918 -1213 l0 -920 -290 0 -290 0
0 920 0 920 290 0 290 0 0 -920z"/>
<path d="M370 3035 l0 -105 80 0 80 0 0 105 0 105 -80 0 -80 0 0 -105z"/>
</g>
</svg>
