<?xml version="1.0" standalone="no"?>
<!DOCTYPE svg PUBLIC "-//W3C//DTD SVG 20010904//EN"
 "http://www.w3.org/TR/2001/REC-SVG-20010904/DTD/svg10.dtd">
<svg version="1.0" xmlns="http://www.w3.org/2000/svg"
 width="512.000000pt" height="513.000000pt" viewBox="0 0 512.000000 513.000000"
 preserveAspectRatio="xMidYMid meet">

<g transform="translate(0.000000,513.000000) scale(0.100000,-0.100000)"
fill="#000000" stroke="none">
<path d="M2477 5109 c-50 -38 -57 -65 -57 -219 0 -162 10 -196 68 -232 47 -29
121 -30 159 -2 62 47 68 63 71 220 3 132 2 147 -18 182 -30 53 -66 72 -137 72
-43 -1 -65 -6 -86 -21z"/>
<path d="M1805 4830 c-87 -19 -136 -92 -120 -177 5 -30 28 -59 103 -136 54
-54 109 -105 124 -113 67 -35 163 -1 198 71 38 78 21 125 -82 232 -111 114
-154 138 -223 123z"/>
<path d="M3275 4830 c-48 -10 -65 -23 -162 -122 -71 -73 -93 -102 -98 -131
-22 -117 65 -204 182 -182 29 5 58 27 131 98 108 106 122 128 122 194 0 95
-83 163 -175 143z"/>
<path d="M2430 4575 c-232 -52 -431 -247 -484 -475 -22 -92 -20 -220 4 -315
29 -112 79 -196 174 -290 126 -125 267 -185 437 -185 113 0 184 16 288 67 336
162 460 577 269 901 -42 72 -148 178 -220 220 -136 80 -319 111 -468 77z"/>
<path d="M1460 4082 c-103 -51 -108 -201 -8 -262 29 -17 51 -20 178 -20 127 0
149 3 178 20 100 61 95 211 -8 262 -28 15 -61 18 -170 18 -109 0 -142 -3 -170
-18z"/>
<path d="M3334 4081 c-77 -47 -101 -123 -62 -198 37 -73 66 -83 233 -83 162 0
195 11 232 76 28 48 29 86 3 139 -35 71 -73 85 -236 85 -118 0 -144 -3 -170
-19z"/>
<path d="M1915 3497 c-48 -23 -221 -208 -230 -246 -25 -113 80 -214 190 -181
48 15 206 164 237 224 47 91 -18 202 -123 212 -25 3 -57 -2 -74 -9z"/>
<path d="M3086 3487 c-67 -38 -96 -130 -62 -195 8 -15 59 -70 113 -123 115
-113 147 -126 227 -90 59 26 86 69 86 137 0 61 -22 95 -128 197 -104 99 -161
117 -236 74z"/>
<path d="M2510 3253 c-8 -3 -26 -15 -38 -27 -46 -41 -52 -66 -52 -218 0 -160
9 -189 72 -229 43 -26 122 -22 165 9 53 37 63 74 63 224 0 151 -11 186 -69
225 -33 22 -102 30 -141 16z"/>
<path d="M915 2498 c-34 -18 -67 -52 -77 -78 -8 -20 -128 -524 -128 -536 0 -2
258 -4 574 -4 l575 0 5 53 c3 28 13 151 21 272 8 121 18 239 21 263 l5 42
-488 0 c-337 -1 -494 -4 -508 -12z"/>
<path d="M2210 2483 c0 -16 -9 -143 -20 -283 -11 -140 -20 -270 -20 -287 l0
-33 401 0 402 0 -6 63 c-3 34 -14 176 -23 315 l-18 252 -358 0 -358 0 0 -27z"/>
<path d="M3233 2458 c3 -29 14 -167 24 -306 9 -139 20 -257 23 -262 4 -7 213
-9 576 -8 l570 3 -59 255 c-32 140 -66 271 -75 290 -9 19 -32 45 -51 57 l-34
23 -490 0 -490 0 6 -52z"/>
<path d="M636 1563 c-3 -10 -26 -108 -51 -218 -25 -110 -48 -208 -51 -218 -5
-16 28 -17 633 -15 l638 3 16 225 c9 124 15 228 12 233 -2 4 -271 7 -598 7
-557 0 -594 -1 -599 -17z"/>
<path d="M2145 1568 c-3 -11 -35 -414 -35 -447 0 -8 132 -11 461 -11 l460 0
-6 78 c-4 42 -12 147 -18 232 l-12 155 -423 3 c-333 2 -423 0 -427 -10z"/>
<path d="M3306 1572 c-3 -5 3 -110 12 -235 l16 -227 633 0 c519 0 633 2 633
13 0 20 -97 434 -105 446 -7 13 -1181 16 -1189 3z"/>
<path d="M456 783 c-26 -88 -136 -593 -136 -627 0 -53 30 -101 80 -127 33 -18
71 -19 677 -19 l642 0 5 33 c3 17 14 165 26 327 11 162 23 325 26 363 l7 67
-661 0 c-621 0 -661 -1 -666 -17z"/>
<path d="M2086 778 c-5 -22 -56 -714 -56 -750 0 -17 32 -18 540 -18 425 0 540
3 540 13 1 27 -52 734 -56 755 l-4 22 -480 0 -480 0 -4 -22z"/>
<path d="M3360 793 c-1 -22 52 -723 56 -751 l5 -32 640 0 c621 0 641 1 679 20
43 22 80 80 80 125 0 15 -31 163 -70 330 -38 167 -70 306 -70 309 0 9 -1320 7
-1320 -1z"/>
</g>
</svg>
