<?xml version="1.0" standalone="no"?>
<!DOCTYPE svg PUBLIC "-//W3C//DTD SVG 20010904//EN"
 "http://www.w3.org/TR/2001/REC-SVG-20010904/DTD/svg10.dtd">
<svg version="1.0" xmlns="http://www.w3.org/2000/svg"
 width="512.000000pt" height="512.000000pt" viewBox="0 0 512.000000 512.000000"
 preserveAspectRatio="xMidYMid meet">

<g transform="translate(0.000000,512.000000) scale(0.100000,-0.100000)"
fill="#000000" stroke="none">
<path d="M1113 4424 c-182 -26 -393 -85 -548 -152 -80 -34 -105 -58 -105 -98
0 -28 -7 -36 -61 -68 -56 -33 -63 -35 -79 -21 -41 37 -94 11 -248 -122 -65
-57 -81 -89 -65 -126 6 -12 395 -563 866 -1224 470 -661 858 -1206 862 -1213
4 -6 -1 -51 -11 -100 l-17 -89 -331 -3 c-318 -3 -333 -4 -372 -25 -49 -26
-110 -92 -132 -142 -8 -20 -15 -63 -15 -96 -1 -105 53 -193 145 -239 l52 -26
1506 0 1506 0 52 26 c92 46 146 134 145 239 0 33 -7 76 -15 96 -22 50 -83 116
-132 142 -39 21 -54 22 -372 25 l-331 3 -17 89 c-10 49 -15 94 -11 100 4 7
392 552 863 1213 470 661 860 1214 866 1229 15 40 -2 67 -96 146 -276 232
-628 383 -1016 436 -62 9 -151 16 -197 16 -96 0 -125 -16 -125 -67 0 -16 52
-194 115 -398 63 -203 113 -370 112 -371 -1 -1 -144 -40 -317 -88 -173 -48
-327 -91 -341 -97 -25 -10 -49 -45 -49 -72 0 -7 61 -127 135 -267 74 -140 131
-258 127 -261 -4 -4 -95 -32 -202 -64 -198 -58 -240 -79 -240 -122 0 -9 39
-108 86 -220 47 -112 84 -205 83 -207 -2 -1 -110 -52 -239 -113 l-235 -112
-160 2 -160 2 -230 110 c-126 60 -232 110 -234 111 -1 2 36 95 83 207 47 112
86 211 86 220 0 43 -42 64 -240 122 -107 32 -198 60 -202 64 -4 3 53 121 127
261 74 140 135 263 135 272 0 9 -10 28 -22 43 -20 22 -73 39 -353 117 -181 50
-331 91 -332 92 -1 1 49 168 112 371 63 204 115 382 115 398 0 15 -9 36 -20
47 -17 17 -32 20 -117 19 -54 -1 -140 -7 -190 -15z m1622 -2610 c33 -8 96 -33
140 -55 88 -43 119 -48 146 -23 17 15 22 13 70 -33 46 -44 50 -52 40 -71 -19
-35 -13 -69 22 -124 43 -68 73 -141 92 -220 8 -35 15 -66 15 -70 0 -5 -42 -8
-94 -8 l-95 0 -16 58 c-37 127 -124 241 -237 309 -61 37 -188 73 -258 73 -69
0 -197 -36 -258 -73 -114 -68 -199 -180 -237 -309 l-16 -58 -95 0 c-52 0 -94
4 -94 8 0 5 9 43 19 85 59 230 229 416 450 493 132 46 272 52 406 18z m-255
-464 l0 -140 -135 0 c-154 0 -152 -2 -109 84 42 84 117 152 203 182 20 7 37
13 39 14 1 0 2 -63 2 -140z m263 96 c58 -34 111 -91 141 -152 43 -86 45 -84
-109 -84 l-135 0 0 139 0 140 31 -9 c17 -5 49 -20 72 -34z"/>
</g>
</svg>
