<?xml version="1.0" standalone="no"?>
<!DOCTYPE svg PUBLIC "-//W3C//DTD SVG 20010904//EN"
 "http://www.w3.org/TR/2001/REC-SVG-20010904/DTD/svg10.dtd">
<svg version="1.0" xmlns="http://www.w3.org/2000/svg"
 width="512.000000pt" height="512.000000pt" viewBox="0 0 512.000000 512.000000"
 preserveAspectRatio="xMidYMid meet">

<g transform="translate(0.000000,512.000000) scale(0.100000,-0.100000)"
fill="#000000" stroke="none">
<path d="M2602 4968 c-18 -23 -80 -180 -106 -273 -45 -159 -67 -315 -73 -521
-8 -277 18 -489 88 -718 17 -54 29 -99 27 -100 -2 -1 -27 -13 -56 -26 -94 -42
-182 -162 -182 -247 0 -23 -2 -23 -109 -23 -472 0 -1055 -220 -1371 -517 -95
-89 -97 -85 55 -97 415 -32 1056 178 1386 455 l47 38 33 -57 c30 -50 95 -112
130 -124 9 -3 -17 -322 -105 -1268 -64 -696 -120 -1286 -123 -1312 l-6 -48
376 0 376 0 -5 47 c-3 27 -61 615 -128 1308 l-122 1260 30 16 c41 22 102 83
121 119 9 17 18 30 22 30 3 0 35 -22 72 -49 363 -267 936 -445 1341 -416 147
11 145 9 49 99 -313 290 -905 516 -1355 516 -77 0 -84 2 -84 20 0 10 -10 45
-22 77 -28 75 -105 154 -175 179 l-51 18 20 55 c31 92 66 239 84 361 25 160
25 501 1 660 -30 194 -88 394 -147 510 -23 45 -23 45 -38 28z m75 -1824 c54
-34 74 -116 40 -164 -55 -79 -159 -77 -207 3 -44 71 -7 153 80 180 20 7 60 -2
87 -19z"/>
<path d="M1031 2949 c-25 -56 -53 -151 -47 -156 7 -7 126 70 126 81 0 6 -13
38 -28 70 l-28 60 -23 -55z"/>
<path d="M4057 2940 c-15 -34 -27 -67 -27 -74 0 -10 95 -78 132 -94 12 -5 -31
136 -56 185 l-22 45 -27 -62z"/>
<path d="M1100 2363 c-144 -14 -140 -12 -140 -42 0 -16 11 -73 25 -127 14 -54
25 -101 25 -104 0 -4 -15 -14 -34 -23 -41 -19 -84 -72 -92 -114 l-6 -30 -102
-6 c-166 -10 -314 -49 -472 -122 -82 -37 -234 -138 -277 -183 l-28 -29 58 -7
c117 -13 304 17 473 76 107 38 152 61 267 136 83 55 93 59 98 42 3 -11 24 -35
47 -54 l40 -35 -66 -709 c-36 -390 -66 -721 -66 -735 l0 -27 205 0 205 0 -1
43 c0 23 -31 353 -68 732 l-67 690 50 48 c28 26 52 47 54 47 1 0 37 -23 79
-51 125 -85 279 -148 453 -184 78 -17 303 -26 316 -12 12 11 -33 53 -128 118
-184 126 -392 197 -626 215 -86 6 -92 8 -92 29 0 32 -55 103 -96 122 -27 13
-34 22 -31 38 2 11 14 56 25 100 29 114 35 165 20 163 -7 0 -29 -3 -48 -5z
m-15 -395 c49 -22 44 -104 -7 -122 -74 -26 -126 88 -56 122 30 14 33 14 63 0z"/>
<path d="M3992 2303 c5 -32 18 -94 30 -137 12 -44 17 -81 12 -83 -53 -18 -109
-80 -120 -134 -6 -26 -8 -26 -108 -32 -231 -14 -446 -88 -634 -216 -95 -65
-140 -107 -128 -118 13 -14 218 -6 308 11 100 19 264 74 349 117 32 16 94 53
138 83 72 49 81 53 86 36 3 -11 24 -35 47 -54 l40 -35 -66 -713 c-37 -392 -66
-723 -66 -735 l0 -23 205 0 205 0 0 43 c-1 23 -31 353 -68 732 l-68 690 50 48
c28 26 51 47 53 47 1 0 41 -25 88 -56 98 -64 178 -102 291 -138 151 -49 331
-74 433 -60 l52 7 -28 29 c-43 45 -195 146 -277 183 -151 70 -298 108 -464
121 -86 6 -92 8 -92 29 0 32 -55 103 -95 122 -19 9 -35 19 -35 23 0 3 9 37 20
76 10 39 23 96 28 126 l9 55 -66 7 c-36 3 -82 6 -102 6 l-36 0 9 -57z m146
-350 c31 -41 -1 -113 -51 -113 -47 0 -85 68 -59 106 24 35 85 39 110 7z"/>
</g>
</svg>
