<?xml version="1.0" encoding="utf-8" standalone="no"?>
<!DOCTYPE svg PUBLIC "-//W3C//DTD SVG 1.1//EN"
  "http://www.w3.org/Graphics/SVG/1.1/DTD/svg11.dtd">
<svg xmlns:xlink="http://www.w3.org/1999/xlink" width="446.353054pt" height="247.946031pt" viewBox="0 0 446.353054 247.946031" xmlns="http://www.w3.org/2000/svg" version="1.1">
 <metadata>
  <rdf:RDF xmlns:dc="http://purl.org/dc/elements/1.1/" xmlns:cc="http://creativecommons.org/ns#" xmlns:rdf="http://www.w3.org/1999/02/22-rdf-syntax-ns#">
   <cc:Work>
    <dc:type rdf:resource="http://purl.org/dc/dcmitype/StillImage"/>
    <dc:date>2023-05-12T21:19:36.510720</dc:date>
    <dc:format>image/svg+xml</dc:format>
    <dc:creator>
     <cc:Agent>
      <dc:title>Matplotlib v3.5.1, https://matplotlib.org/</dc:title>
     </cc:Agent>
    </dc:creator>
   </cc:Work>
  </rdf:RDF>
 </metadata>
 <defs>
  <style type="text/css">*{stroke-linejoin: round; stroke-linecap: butt}</style>
 </defs>
 <g id="figure_1">
  <g id="patch_1">
   <path d="M 0 247.946031 
L 446.353054 247.946031 
L 446.353054 -0 
L 0 -0 
z
" style="fill: #ffffff"/>
  </g>
  <g id="axes_1">
   <g id="patch_2">
    <path d="M 31.60875 208.138031 
L 222.923036 208.138031 
L 222.923036 19.642031 
L 31.60875 19.642031 
z
" style="fill: #ffffff"/>
   </g>
   <g id="line2d_1">
    <path d="M 39.261321 192.215596 
L 50.740179 194.507072 
L 66.045321 195.500346 
L 85.17675 195.757307 
L 96.655607 197.529171 
L 111.96075 196.373999 
L 131.092179 190.72006 
L 142.571036 190.788158 
L 157.876179 183.26379 
L 177.007607 168.801876 
L 188.486464 165.72018 
L 203.791607 125.942895 
L 215.270464 162.614638 
" clip-path="url(#p1195bfd24d)" style="fill: none; stroke: #000000; stroke-width: 2; stroke-linecap: square"/>
   </g>
   <g id="PathCollection_1">
    <defs>
     <path id="m5c6cc61117" d="M -1.936492 1.936492 
L 1.936492 1.936492 
L 1.936492 -1.936492 
L -1.936492 -1.936492 
z
" style="stroke: #000000"/>
    </defs>
    <g clip-path="url(#p1195bfd24d)">
     <use xlink:href="#m5c6cc61117" x="39.261321" y="192.215596" style="fill: #ffffff; stroke: #000000"/>
     <use xlink:href="#m5c6cc61117" x="50.740179" y="194.507072" style="fill: #ffffff; stroke: #000000"/>
     <use xlink:href="#m5c6cc61117" x="66.045321" y="195.500346" style="fill: #ffffff; stroke: #000000"/>
     <use xlink:href="#m5c6cc61117" x="85.17675" y="195.757307" style="fill: #ffffff; stroke: #000000"/>
     <use xlink:href="#m5c6cc61117" x="96.655607" y="197.529171" style="fill: #ffffff; stroke: #000000"/>
     <use xlink:href="#m5c6cc61117" x="111.96075" y="196.373999" style="fill: #ffffff; stroke: #000000"/>
     <use xlink:href="#m5c6cc61117" x="131.092179" y="190.72006" style="fill: #ffffff; stroke: #000000"/>
     <use xlink:href="#m5c6cc61117" x="142.571036" y="190.788158" style="fill: #ffffff; stroke: #000000"/>
     <use xlink:href="#m5c6cc61117" x="157.876179" y="183.26379" style="fill: #ffffff; stroke: #000000"/>
     <use xlink:href="#m5c6cc61117" x="177.007607" y="168.801876" style="fill: #ffffff; stroke: #000000"/>
     <use xlink:href="#m5c6cc61117" x="188.486464" y="165.72018" style="fill: #ffffff; stroke: #000000"/>
     <use xlink:href="#m5c6cc61117" x="203.791607" y="125.942895" style="fill: #ffffff; stroke: #000000"/>
     <use xlink:href="#m5c6cc61117" x="215.270464" y="162.614638" style="fill: #ffffff; stroke: #000000"/>
    </g>
   </g>
   <g id="line2d_2">
    <path d="M 39.261321 171.662501 
L 50.740179 175.944344 
L 66.045321 175.995974 
L 85.17675 176.758248 
L 96.655607 182.929747 
L 111.96075 176.789226 
L 131.092179 169.352285 
L 142.571036 169.052831 
L 157.876179 159.019412 
L 177.007607 128.492268 
L 188.486464 129.135922 
L 203.791607 24.72296 
L 215.270464 125.883235 
" clip-path="url(#p1195bfd24d)" style="fill: none; stroke: #808080; stroke-width: 1.5; stroke-linecap: square"/>
   </g>
   <g id="PathCollection_2">
    <defs>
     <path id="m22d4aee58d" d="M 0 1.936492 
C 0.513564 1.936492 1.006162 1.732451 1.369306 1.369306 
C 1.732451 1.006162 1.936492 0.513564 1.936492 0 
C 1.936492 -0.513564 1.732451 -1.006162 1.369306 -1.369306 
C 1.006162 -1.732451 0.513564 -1.936492 0 -1.936492 
C -0.513564 -1.936492 -1.006162 -1.732451 -1.369306 -1.369306 
C -1.732451 -1.006162 -1.936492 -0.513564 -1.936492 0 
C -1.936492 0.513564 -1.732451 1.006162 -1.369306 1.369306 
C -1.006162 1.732451 -0.513564 1.936492 0 1.936492 
z
" style="stroke: #808080"/>
    </defs>
    <g clip-path="url(#p1195bfd24d)">
     <use xlink:href="#m22d4aee58d" x="39.261321" y="171.662501" style="fill: #d3d3d3; stroke: #808080"/>
     <use xlink:href="#m22d4aee58d" x="50.740179" y="175.944344" style="fill: #d3d3d3; stroke: #808080"/>
     <use xlink:href="#m22d4aee58d" x="66.045321" y="175.995974" style="fill: #d3d3d3; stroke: #808080"/>
     <use xlink:href="#m22d4aee58d" x="85.17675" y="176.758248" style="fill: #d3d3d3; stroke: #808080"/>
     <use xlink:href="#m22d4aee58d" x="96.655607" y="182.929747" style="fill: #d3d3d3; stroke: #808080"/>
     <use xlink:href="#m22d4aee58d" x="111.96075" y="176.789226" style="fill: #d3d3d3; stroke: #808080"/>
     <use xlink:href="#m22d4aee58d" x="131.092179" y="169.352285" style="fill: #d3d3d3; stroke: #808080"/>
     <use xlink:href="#m22d4aee58d" x="142.571036" y="169.052831" style="fill: #d3d3d3; stroke: #808080"/>
     <use xlink:href="#m22d4aee58d" x="157.876179" y="159.019412" style="fill: #d3d3d3; stroke: #808080"/>
     <use xlink:href="#m22d4aee58d" x="177.007607" y="128.492268" style="fill: #d3d3d3; stroke: #808080"/>
     <use xlink:href="#m22d4aee58d" x="188.486464" y="129.135922" style="fill: #d3d3d3; stroke: #808080"/>
     <use xlink:href="#m22d4aee58d" x="203.791607" y="24.72296" style="fill: #d3d3d3; stroke: #808080"/>
     <use xlink:href="#m22d4aee58d" x="215.270464" y="125.883235" style="fill: #d3d3d3; stroke: #808080"/>
    </g>
   </g>
   <g id="matplotlib.axis_1">
    <g id="xtick_1">
     <g id="line2d_3">
      <defs>
       <path id="m50bd43451d" d="M 0 0 
L 0 3.5 
" style="stroke: #000000; stroke-width: 0.8"/>
      </defs>
      <g>
       <use xlink:href="#m50bd43451d" x="39.261321" y="208.138031" style="stroke: #000000; stroke-width: 0.8"/>
      </g>
     </g>
     <g id="text_1">
      <!-- Jan '19 -->
      <g transform="translate(26.488821 220.864281)scale(0.08 -0.08)">
       <defs>
        <path id="ArialMT-4a" d="M 184 1300 
L 731 1375 
Q 753 850 928 656 
Q 1103 463 1413 463 
Q 1641 463 1806 567 
Q 1972 672 2034 851 
Q 2097 1031 2097 1425 
L 2097 4581 
L 2703 4581 
L 2703 1459 
Q 2703 884 2564 568 
Q 2425 253 2123 87 
Q 1822 -78 1416 -78 
Q 813 -78 492 269 
Q 172 616 184 1300 
z
" transform="scale(0.015625)"/>
        <path id="ArialMT-61" d="M 2588 409 
Q 2275 144 1986 34 
Q 1697 -75 1366 -75 
Q 819 -75 525 192 
Q 231 459 231 875 
Q 231 1119 342 1320 
Q 453 1522 633 1644 
Q 813 1766 1038 1828 
Q 1203 1872 1538 1913 
Q 2219 1994 2541 2106 
Q 2544 2222 2544 2253 
Q 2544 2597 2384 2738 
Q 2169 2928 1744 2928 
Q 1347 2928 1158 2789 
Q 969 2650 878 2297 
L 328 2372 
Q 403 2725 575 2942 
Q 747 3159 1072 3276 
Q 1397 3394 1825 3394 
Q 2250 3394 2515 3294 
Q 2781 3194 2906 3042 
Q 3031 2891 3081 2659 
Q 3109 2516 3109 2141 
L 3109 1391 
Q 3109 606 3145 398 
Q 3181 191 3288 0 
L 2700 0 
Q 2613 175 2588 409 
z
M 2541 1666 
Q 2234 1541 1622 1453 
Q 1275 1403 1131 1340 
Q 988 1278 909 1158 
Q 831 1038 831 891 
Q 831 666 1001 516 
Q 1172 366 1500 366 
Q 1825 366 2078 508 
Q 2331 650 2450 897 
Q 2541 1088 2541 1459 
L 2541 1666 
z
" transform="scale(0.015625)"/>
        <path id="ArialMT-6e" d="M 422 0 
L 422 3319 
L 928 3319 
L 928 2847 
Q 1294 3394 1984 3394 
Q 2284 3394 2536 3286 
Q 2788 3178 2913 3003 
Q 3038 2828 3088 2588 
Q 3119 2431 3119 2041 
L 3119 0 
L 2556 0 
L 2556 2019 
Q 2556 2363 2490 2533 
Q 2425 2703 2258 2804 
Q 2091 2906 1866 2906 
Q 1506 2906 1245 2678 
Q 984 2450 984 1813 
L 984 0 
L 422 0 
z
" transform="scale(0.015625)"/>
        <path id="ArialMT-20" transform="scale(0.015625)"/>
        <path id="ArialMT-27" d="M 425 2959 
L 281 3816 
L 281 4581 
L 922 4581 
L 922 3816 
L 772 2959 
L 425 2959 
z
" transform="scale(0.015625)"/>
        <path id="ArialMT-31" d="M 2384 0 
L 1822 0 
L 1822 3584 
Q 1619 3391 1289 3197 
Q 959 3003 697 2906 
L 697 3450 
Q 1169 3672 1522 3987 
Q 1875 4303 2022 4600 
L 2384 4600 
L 2384 0 
z
" transform="scale(0.015625)"/>
        <path id="ArialMT-39" d="M 350 1059 
L 891 1109 
Q 959 728 1153 556 
Q 1347 384 1650 384 
Q 1909 384 2104 503 
Q 2300 622 2425 820 
Q 2550 1019 2634 1356 
Q 2719 1694 2719 2044 
Q 2719 2081 2716 2156 
Q 2547 1888 2255 1720 
Q 1963 1553 1622 1553 
Q 1053 1553 659 1965 
Q 266 2378 266 3053 
Q 266 3750 677 4175 
Q 1088 4600 1706 4600 
Q 2153 4600 2523 4359 
Q 2894 4119 3086 3673 
Q 3278 3228 3278 2384 
Q 3278 1506 3087 986 
Q 2897 466 2520 194 
Q 2144 -78 1638 -78 
Q 1100 -78 759 220 
Q 419 519 350 1059 
z
M 2653 3081 
Q 2653 3566 2395 3850 
Q 2138 4134 1775 4134 
Q 1400 4134 1122 3828 
Q 844 3522 844 3034 
Q 844 2597 1108 2323 
Q 1372 2050 1759 2050 
Q 2150 2050 2401 2323 
Q 2653 2597 2653 3081 
z
" transform="scale(0.015625)"/>
       </defs>
       <use xlink:href="#ArialMT-4a"/>
       <use xlink:href="#ArialMT-61" x="50"/>
       <use xlink:href="#ArialMT-6e" x="105.615234"/>
       <use xlink:href="#ArialMT-20" x="161.230469"/>
       <use xlink:href="#ArialMT-27" x="189.013672"/>
       <use xlink:href="#ArialMT-31" x="208.105469"/>
       <use xlink:href="#ArialMT-39" x="263.720703"/>
      </g>
     </g>
    </g>
    <g id="xtick_2">
     <g id="line2d_4">
      <g>
       <use xlink:href="#m50bd43451d" x="85.17675" y="208.138031" style="stroke: #000000; stroke-width: 0.8"/>
      </g>
     </g>
     <g id="text_2">
      <!-- Jan '20 -->
      <g transform="translate(72.40425 220.864281)scale(0.08 -0.08)">
       <defs>
        <path id="ArialMT-32" d="M 3222 541 
L 3222 0 
L 194 0 
Q 188 203 259 391 
Q 375 700 629 1000 
Q 884 1300 1366 1694 
Q 2113 2306 2375 2664 
Q 2638 3022 2638 3341 
Q 2638 3675 2398 3904 
Q 2159 4134 1775 4134 
Q 1369 4134 1125 3890 
Q 881 3647 878 3216 
L 300 3275 
Q 359 3922 746 4261 
Q 1134 4600 1788 4600 
Q 2447 4600 2831 4234 
Q 3216 3869 3216 3328 
Q 3216 3053 3103 2787 
Q 2991 2522 2730 2228 
Q 2469 1934 1863 1422 
Q 1356 997 1212 845 
Q 1069 694 975 541 
L 3222 541 
z
" transform="scale(0.015625)"/>
        <path id="ArialMT-30" d="M 266 2259 
Q 266 3072 433 3567 
Q 600 4063 929 4331 
Q 1259 4600 1759 4600 
Q 2128 4600 2406 4451 
Q 2684 4303 2865 4023 
Q 3047 3744 3150 3342 
Q 3253 2941 3253 2259 
Q 3253 1453 3087 958 
Q 2922 463 2592 192 
Q 2263 -78 1759 -78 
Q 1097 -78 719 397 
Q 266 969 266 2259 
z
M 844 2259 
Q 844 1131 1108 757 
Q 1372 384 1759 384 
Q 2147 384 2411 759 
Q 2675 1134 2675 2259 
Q 2675 3391 2411 3762 
Q 2147 4134 1753 4134 
Q 1366 4134 1134 3806 
Q 844 3388 844 2259 
z
" transform="scale(0.015625)"/>
       </defs>
       <use xlink:href="#ArialMT-4a"/>
       <use xlink:href="#ArialMT-61" x="50"/>
       <use xlink:href="#ArialMT-6e" x="105.615234"/>
       <use xlink:href="#ArialMT-20" x="161.230469"/>
       <use xlink:href="#ArialMT-27" x="189.013672"/>
       <use xlink:href="#ArialMT-32" x="208.105469"/>
       <use xlink:href="#ArialMT-30" x="263.720703"/>
      </g>
     </g>
    </g>
    <g id="xtick_3">
     <g id="line2d_5">
      <g>
       <use xlink:href="#m50bd43451d" x="131.092179" y="208.138031" style="stroke: #000000; stroke-width: 0.8"/>
      </g>
     </g>
     <g id="text_3">
      <!-- Jan '21 -->
      <g transform="translate(118.319679 220.864281)scale(0.08 -0.08)">
       <use xlink:href="#ArialMT-4a"/>
       <use xlink:href="#ArialMT-61" x="50"/>
       <use xlink:href="#ArialMT-6e" x="105.615234"/>
       <use xlink:href="#ArialMT-20" x="161.230469"/>
       <use xlink:href="#ArialMT-27" x="189.013672"/>
       <use xlink:href="#ArialMT-32" x="208.105469"/>
       <use xlink:href="#ArialMT-31" x="263.720703"/>
      </g>
     </g>
    </g>
    <g id="xtick_4">
     <g id="line2d_6">
      <g>
       <use xlink:href="#m50bd43451d" x="177.007607" y="208.138031" style="stroke: #000000; stroke-width: 0.8"/>
      </g>
     </g>
     <g id="text_4">
      <!-- Jan '22 -->
      <g transform="translate(164.235107 220.864281)scale(0.08 -0.08)">
       <use xlink:href="#ArialMT-4a"/>
       <use xlink:href="#ArialMT-61" x="50"/>
       <use xlink:href="#ArialMT-6e" x="105.615234"/>
       <use xlink:href="#ArialMT-20" x="161.230469"/>
       <use xlink:href="#ArialMT-27" x="189.013672"/>
       <use xlink:href="#ArialMT-32" x="208.105469"/>
       <use xlink:href="#ArialMT-32" x="263.720703"/>
      </g>
     </g>
    </g>
    <g id="xtick_5">
     <g id="line2d_7">
      <g>
       <use xlink:href="#m50bd43451d" x="215.270464" y="208.138031" style="stroke: #000000; stroke-width: 0.8"/>
      </g>
     </g>
     <g id="text_5">
      <!-- Nov '22 -->
      <g transform="translate(201.833589 220.864281)scale(0.08 -0.08)">
       <defs>
        <path id="ArialMT-4e" d="M 488 0 
L 488 4581 
L 1109 4581 
L 3516 984 
L 3516 4581 
L 4097 4581 
L 4097 0 
L 3475 0 
L 1069 3600 
L 1069 0 
L 488 0 
z
" transform="scale(0.015625)"/>
        <path id="ArialMT-6f" d="M 213 1659 
Q 213 2581 725 3025 
Q 1153 3394 1769 3394 
Q 2453 3394 2887 2945 
Q 3322 2497 3322 1706 
Q 3322 1066 3130 698 
Q 2938 331 2570 128 
Q 2203 -75 1769 -75 
Q 1072 -75 642 372 
Q 213 819 213 1659 
z
M 791 1659 
Q 791 1022 1069 705 
Q 1347 388 1769 388 
Q 2188 388 2466 706 
Q 2744 1025 2744 1678 
Q 2744 2294 2464 2611 
Q 2184 2928 1769 2928 
Q 1347 2928 1069 2612 
Q 791 2297 791 1659 
z
" transform="scale(0.015625)"/>
        <path id="ArialMT-76" d="M 1344 0 
L 81 3319 
L 675 3319 
L 1388 1331 
Q 1503 1009 1600 663 
Q 1675 925 1809 1294 
L 2547 3319 
L 3125 3319 
L 1869 0 
L 1344 0 
z
" transform="scale(0.015625)"/>
       </defs>
       <use xlink:href="#ArialMT-4e"/>
       <use xlink:href="#ArialMT-6f" x="72.216797"/>
       <use xlink:href="#ArialMT-76" x="127.832031"/>
       <use xlink:href="#ArialMT-20" x="177.832031"/>
       <use xlink:href="#ArialMT-27" x="205.615234"/>
       <use xlink:href="#ArialMT-32" x="224.707031"/>
       <use xlink:href="#ArialMT-32" x="280.322266"/>
      </g>
     </g>
    </g>
    <g id="xtick_6">
     <g id="line2d_8">
      <defs>
       <path id="m5208d05744" d="M 0 0 
L 0 2 
" style="stroke: #000000; stroke-width: 0.6"/>
      </defs>
      <g>
       <use xlink:href="#m5208d05744" x="46.913893" y="208.138031" style="stroke: #000000; stroke-width: 0.6"/>
      </g>
     </g>
    </g>
    <g id="xtick_7">
     <g id="line2d_9">
      <g>
       <use xlink:href="#m5208d05744" x="54.566464" y="208.138031" style="stroke: #000000; stroke-width: 0.6"/>
      </g>
     </g>
    </g>
    <g id="xtick_8">
     <g id="line2d_10">
      <g>
       <use xlink:href="#m5208d05744" x="62.219036" y="208.138031" style="stroke: #000000; stroke-width: 0.6"/>
      </g>
     </g>
    </g>
    <g id="xtick_9">
     <g id="line2d_11">
      <g>
       <use xlink:href="#m5208d05744" x="69.871607" y="208.138031" style="stroke: #000000; stroke-width: 0.6"/>
      </g>
     </g>
    </g>
    <g id="xtick_10">
     <g id="line2d_12">
      <g>
       <use xlink:href="#m5208d05744" x="77.524179" y="208.138031" style="stroke: #000000; stroke-width: 0.6"/>
      </g>
     </g>
    </g>
    <g id="xtick_11">
     <g id="line2d_13">
      <g>
       <use xlink:href="#m5208d05744" x="92.829321" y="208.138031" style="stroke: #000000; stroke-width: 0.6"/>
      </g>
     </g>
    </g>
    <g id="xtick_12">
     <g id="line2d_14">
      <g>
       <use xlink:href="#m5208d05744" x="100.481893" y="208.138031" style="stroke: #000000; stroke-width: 0.6"/>
      </g>
     </g>
    </g>
    <g id="xtick_13">
     <g id="line2d_15">
      <g>
       <use xlink:href="#m5208d05744" x="108.134464" y="208.138031" style="stroke: #000000; stroke-width: 0.6"/>
      </g>
     </g>
    </g>
    <g id="xtick_14">
     <g id="line2d_16">
      <g>
       <use xlink:href="#m5208d05744" x="115.787036" y="208.138031" style="stroke: #000000; stroke-width: 0.6"/>
      </g>
     </g>
    </g>
    <g id="xtick_15">
     <g id="line2d_17">
      <g>
       <use xlink:href="#m5208d05744" x="123.439607" y="208.138031" style="stroke: #000000; stroke-width: 0.6"/>
      </g>
     </g>
    </g>
    <g id="xtick_16">
     <g id="line2d_18">
      <g>
       <use xlink:href="#m5208d05744" x="138.74475" y="208.138031" style="stroke: #000000; stroke-width: 0.6"/>
      </g>
     </g>
    </g>
    <g id="xtick_17">
     <g id="line2d_19">
      <g>
       <use xlink:href="#m5208d05744" x="146.397321" y="208.138031" style="stroke: #000000; stroke-width: 0.6"/>
      </g>
     </g>
    </g>
    <g id="xtick_18">
     <g id="line2d_20">
      <g>
       <use xlink:href="#m5208d05744" x="154.049893" y="208.138031" style="stroke: #000000; stroke-width: 0.6"/>
      </g>
     </g>
    </g>
    <g id="xtick_19">
     <g id="line2d_21">
      <g>
       <use xlink:href="#m5208d05744" x="161.702464" y="208.138031" style="stroke: #000000; stroke-width: 0.6"/>
      </g>
     </g>
    </g>
    <g id="xtick_20">
     <g id="line2d_22">
      <g>
       <use xlink:href="#m5208d05744" x="169.355036" y="208.138031" style="stroke: #000000; stroke-width: 0.6"/>
      </g>
     </g>
    </g>
    <g id="xtick_21">
     <g id="line2d_23">
      <g>
       <use xlink:href="#m5208d05744" x="184.660179" y="208.138031" style="stroke: #000000; stroke-width: 0.6"/>
      </g>
     </g>
    </g>
    <g id="xtick_22">
     <g id="line2d_24">
      <g>
       <use xlink:href="#m5208d05744" x="192.31275" y="208.138031" style="stroke: #000000; stroke-width: 0.6"/>
      </g>
     </g>
    </g>
    <g id="xtick_23">
     <g id="line2d_25">
      <g>
       <use xlink:href="#m5208d05744" x="199.965321" y="208.138031" style="stroke: #000000; stroke-width: 0.6"/>
      </g>
     </g>
    </g>
    <g id="xtick_24">
     <g id="line2d_26">
      <g>
       <use xlink:href="#m5208d05744" x="207.617893" y="208.138031" style="stroke: #000000; stroke-width: 0.6"/>
      </g>
     </g>
    </g>
   </g>
   <g id="matplotlib.axis_2">
    <g id="ytick_1">
     <g id="line2d_27">
      <defs>
       <path id="m20bda863c2" d="M 0 0 
L -3.5 0 
" style="stroke: #000000; stroke-width: 0.8"/>
      </defs>
      <g>
       <use xlink:href="#m20bda863c2" x="31.60875" y="208.138031" style="stroke: #000000; stroke-width: 0.8"/>
      </g>
     </g>
     <g id="text_6">
      <!-- 0 -->
      <g transform="translate(20.16 211.001156)scale(0.08 -0.08)">
       <use xlink:href="#ArialMT-30"/>
      </g>
     </g>
    </g>
    <g id="ytick_2">
     <g id="line2d_28">
      <g>
       <use xlink:href="#m20bda863c2" x="31.60875" y="174.265174" style="stroke: #000000; stroke-width: 0.8"/>
      </g>
     </g>
     <g id="text_7">
      <!-- 1 -->
      <g transform="translate(20.16 177.128299)scale(0.08 -0.08)">
       <use xlink:href="#ArialMT-31"/>
      </g>
     </g>
    </g>
    <g id="ytick_3">
     <g id="line2d_29">
      <g>
       <use xlink:href="#m20bda863c2" x="31.60875" y="140.392317" style="stroke: #000000; stroke-width: 0.8"/>
      </g>
     </g>
     <g id="text_8">
      <!-- 2 -->
      <g transform="translate(20.16 143.255442)scale(0.08 -0.08)">
       <use xlink:href="#ArialMT-32"/>
      </g>
     </g>
    </g>
    <g id="ytick_4">
     <g id="line2d_30">
      <g>
       <use xlink:href="#m20bda863c2" x="31.60875" y="106.519459" style="stroke: #000000; stroke-width: 0.8"/>
      </g>
     </g>
     <g id="text_9">
      <!-- 3 -->
      <g transform="translate(20.16 109.382584)scale(0.08 -0.08)">
       <defs>
        <path id="ArialMT-33" d="M 269 1209 
L 831 1284 
Q 928 806 1161 595 
Q 1394 384 1728 384 
Q 2125 384 2398 659 
Q 2672 934 2672 1341 
Q 2672 1728 2419 1979 
Q 2166 2231 1775 2231 
Q 1616 2231 1378 2169 
L 1441 2663 
Q 1497 2656 1531 2656 
Q 1891 2656 2178 2843 
Q 2466 3031 2466 3422 
Q 2466 3731 2256 3934 
Q 2047 4138 1716 4138 
Q 1388 4138 1169 3931 
Q 950 3725 888 3313 
L 325 3413 
Q 428 3978 793 4289 
Q 1159 4600 1703 4600 
Q 2078 4600 2393 4439 
Q 2709 4278 2876 4000 
Q 3044 3722 3044 3409 
Q 3044 3113 2884 2869 
Q 2725 2625 2413 2481 
Q 2819 2388 3044 2092 
Q 3269 1797 3269 1353 
Q 3269 753 2831 336 
Q 2394 -81 1725 -81 
Q 1122 -81 723 278 
Q 325 638 269 1209 
z
" transform="scale(0.015625)"/>
       </defs>
       <use xlink:href="#ArialMT-33"/>
      </g>
     </g>
    </g>
    <g id="ytick_5">
     <g id="line2d_31">
      <g>
       <use xlink:href="#m20bda863c2" x="31.60875" y="72.646602" style="stroke: #000000; stroke-width: 0.8"/>
      </g>
     </g>
     <g id="text_10">
      <!-- 4 -->
      <g transform="translate(20.16 75.509727)scale(0.08 -0.08)">
       <defs>
        <path id="ArialMT-34" d="M 2069 0 
L 2069 1097 
L 81 1097 
L 81 1613 
L 2172 4581 
L 2631 4581 
L 2631 1613 
L 3250 1613 
L 3250 1097 
L 2631 1097 
L 2631 0 
L 2069 0 
z
M 2069 1613 
L 2069 3678 
L 634 1613 
L 2069 1613 
z
" transform="scale(0.015625)"/>
       </defs>
       <use xlink:href="#ArialMT-34"/>
      </g>
     </g>
    </g>
    <g id="ytick_6">
     <g id="line2d_32">
      <g>
       <use xlink:href="#m20bda863c2" x="31.60875" y="38.773744" style="stroke: #000000; stroke-width: 0.8"/>
      </g>
     </g>
     <g id="text_11">
      <!-- 5 -->
      <g transform="translate(20.16 41.636869)scale(0.08 -0.08)">
       <defs>
        <path id="ArialMT-35" d="M 266 1200 
L 856 1250 
Q 922 819 1161 601 
Q 1400 384 1738 384 
Q 2144 384 2425 690 
Q 2706 997 2706 1503 
Q 2706 1984 2436 2262 
Q 2166 2541 1728 2541 
Q 1456 2541 1237 2417 
Q 1019 2294 894 2097 
L 366 2166 
L 809 4519 
L 3088 4519 
L 3088 3981 
L 1259 3981 
L 1013 2750 
Q 1425 3038 1878 3038 
Q 2478 3038 2890 2622 
Q 3303 2206 3303 1553 
Q 3303 931 2941 478 
Q 2500 -78 1738 -78 
Q 1113 -78 717 272 
Q 322 622 266 1200 
z
" transform="scale(0.015625)"/>
       </defs>
       <use xlink:href="#ArialMT-35"/>
      </g>
     </g>
    </g>
    <g id="ytick_7">
     <g id="line2d_33">
      <defs>
       <path id="m6d8756e2b0" d="M 0 0 
L -2 0 
" style="stroke: #000000; stroke-width: 0.6"/>
      </defs>
      <g>
       <use xlink:href="#m6d8756e2b0" x="31.60875" y="191.201603" style="stroke: #000000; stroke-width: 0.6"/>
      </g>
     </g>
    </g>
    <g id="ytick_8">
     <g id="line2d_34">
      <g>
       <use xlink:href="#m6d8756e2b0" x="31.60875" y="157.328745" style="stroke: #000000; stroke-width: 0.6"/>
      </g>
     </g>
    </g>
    <g id="ytick_9">
     <g id="line2d_35">
      <g>
       <use xlink:href="#m6d8756e2b0" x="31.60875" y="123.455888" style="stroke: #000000; stroke-width: 0.6"/>
      </g>
     </g>
    </g>
    <g id="ytick_10">
     <g id="line2d_36">
      <g>
       <use xlink:href="#m6d8756e2b0" x="31.60875" y="89.583031" style="stroke: #000000; stroke-width: 0.6"/>
      </g>
     </g>
    </g>
    <g id="ytick_11">
     <g id="line2d_37">
      <g>
       <use xlink:href="#m6d8756e2b0" x="31.60875" y="55.710173" style="stroke: #000000; stroke-width: 0.6"/>
      </g>
     </g>
    </g>
    <g id="ytick_12">
     <g id="line2d_38">
      <g>
       <use xlink:href="#m6d8756e2b0" x="31.60875" y="21.837316" style="stroke: #000000; stroke-width: 0.6"/>
      </g>
     </g>
    </g>
    <g id="text_12">
     <!-- Production cost [USD kg$^\mathrm{-1}$] -->
     <g transform="translate(14.4 162.890031)rotate(-90)scale(0.08 -0.08)">
      <defs>
       <path id="ArialMT-50" d="M 494 0 
L 494 4581 
L 2222 4581 
Q 2678 4581 2919 4538 
Q 3256 4481 3484 4323 
Q 3713 4166 3852 3881 
Q 3991 3597 3991 3256 
Q 3991 2672 3619 2267 
Q 3247 1863 2275 1863 
L 1100 1863 
L 1100 0 
L 494 0 
z
M 1100 2403 
L 2284 2403 
Q 2872 2403 3119 2622 
Q 3366 2841 3366 3238 
Q 3366 3525 3220 3729 
Q 3075 3934 2838 4000 
Q 2684 4041 2272 4041 
L 1100 4041 
L 1100 2403 
z
" transform="scale(0.015625)"/>
       <path id="ArialMT-72" d="M 416 0 
L 416 3319 
L 922 3319 
L 922 2816 
Q 1116 3169 1280 3281 
Q 1444 3394 1641 3394 
Q 1925 3394 2219 3213 
L 2025 2691 
Q 1819 2813 1613 2813 
Q 1428 2813 1281 2702 
Q 1134 2591 1072 2394 
Q 978 2094 978 1738 
L 978 0 
L 416 0 
z
" transform="scale(0.015625)"/>
       <path id="ArialMT-64" d="M 2575 0 
L 2575 419 
Q 2259 -75 1647 -75 
Q 1250 -75 917 144 
Q 584 363 401 755 
Q 219 1147 219 1656 
Q 219 2153 384 2558 
Q 550 2963 881 3178 
Q 1213 3394 1622 3394 
Q 1922 3394 2156 3267 
Q 2391 3141 2538 2938 
L 2538 4581 
L 3097 4581 
L 3097 0 
L 2575 0 
z
M 797 1656 
Q 797 1019 1065 703 
Q 1334 388 1700 388 
Q 2069 388 2326 689 
Q 2584 991 2584 1609 
Q 2584 2291 2321 2609 
Q 2059 2928 1675 2928 
Q 1300 2928 1048 2622 
Q 797 2316 797 1656 
z
" transform="scale(0.015625)"/>
       <path id="ArialMT-75" d="M 2597 0 
L 2597 488 
Q 2209 -75 1544 -75 
Q 1250 -75 995 37 
Q 741 150 617 320 
Q 494 491 444 738 
Q 409 903 409 1263 
L 409 3319 
L 972 3319 
L 972 1478 
Q 972 1038 1006 884 
Q 1059 663 1231 536 
Q 1403 409 1656 409 
Q 1909 409 2131 539 
Q 2353 669 2445 892 
Q 2538 1116 2538 1541 
L 2538 3319 
L 3100 3319 
L 3100 0 
L 2597 0 
z
" transform="scale(0.015625)"/>
       <path id="ArialMT-63" d="M 2588 1216 
L 3141 1144 
Q 3050 572 2676 248 
Q 2303 -75 1759 -75 
Q 1078 -75 664 370 
Q 250 816 250 1647 
Q 250 2184 428 2587 
Q 606 2991 970 3192 
Q 1334 3394 1763 3394 
Q 2303 3394 2647 3120 
Q 2991 2847 3088 2344 
L 2541 2259 
Q 2463 2594 2264 2762 
Q 2066 2931 1784 2931 
Q 1359 2931 1093 2626 
Q 828 2322 828 1663 
Q 828 994 1084 691 
Q 1341 388 1753 388 
Q 2084 388 2306 591 
Q 2528 794 2588 1216 
z
" transform="scale(0.015625)"/>
       <path id="ArialMT-74" d="M 1650 503 
L 1731 6 
Q 1494 -44 1306 -44 
Q 1000 -44 831 53 
Q 663 150 594 308 
Q 525 466 525 972 
L 525 2881 
L 113 2881 
L 113 3319 
L 525 3319 
L 525 4141 
L 1084 4478 
L 1084 3319 
L 1650 3319 
L 1650 2881 
L 1084 2881 
L 1084 941 
Q 1084 700 1114 631 
Q 1144 563 1211 522 
Q 1278 481 1403 481 
Q 1497 481 1650 503 
z
" transform="scale(0.015625)"/>
       <path id="ArialMT-69" d="M 425 3934 
L 425 4581 
L 988 4581 
L 988 3934 
L 425 3934 
z
M 425 0 
L 425 3319 
L 988 3319 
L 988 0 
L 425 0 
z
" transform="scale(0.015625)"/>
       <path id="ArialMT-73" d="M 197 991 
L 753 1078 
Q 800 744 1014 566 
Q 1228 388 1613 388 
Q 2000 388 2187 545 
Q 2375 703 2375 916 
Q 2375 1106 2209 1216 
Q 2094 1291 1634 1406 
Q 1016 1563 777 1677 
Q 538 1791 414 1992 
Q 291 2194 291 2438 
Q 291 2659 392 2848 
Q 494 3038 669 3163 
Q 800 3259 1026 3326 
Q 1253 3394 1513 3394 
Q 1903 3394 2198 3281 
Q 2494 3169 2634 2976 
Q 2775 2784 2828 2463 
L 2278 2388 
Q 2241 2644 2061 2787 
Q 1881 2931 1553 2931 
Q 1166 2931 1000 2803 
Q 834 2675 834 2503 
Q 834 2394 903 2306 
Q 972 2216 1119 2156 
Q 1203 2125 1616 2013 
Q 2213 1853 2448 1751 
Q 2684 1650 2818 1456 
Q 2953 1263 2953 975 
Q 2953 694 2789 445 
Q 2625 197 2315 61 
Q 2006 -75 1616 -75 
Q 969 -75 630 194 
Q 291 463 197 991 
z
" transform="scale(0.015625)"/>
       <path id="ArialMT-5b" d="M 434 -1272 
L 434 4581 
L 1675 4581 
L 1675 4116 
L 997 4116 
L 997 -806 
L 1675 -806 
L 1675 -1272 
L 434 -1272 
z
" transform="scale(0.015625)"/>
       <path id="ArialMT-55" d="M 3500 4581 
L 4106 4581 
L 4106 1934 
Q 4106 1244 3950 837 
Q 3794 431 3386 176 
Q 2978 -78 2316 -78 
Q 1672 -78 1262 144 
Q 853 366 678 786 
Q 503 1206 503 1934 
L 503 4581 
L 1109 4581 
L 1109 1938 
Q 1109 1341 1220 1058 
Q 1331 775 1601 622 
Q 1872 469 2263 469 
Q 2931 469 3215 772 
Q 3500 1075 3500 1938 
L 3500 4581 
z
" transform="scale(0.015625)"/>
       <path id="ArialMT-53" d="M 288 1472 
L 859 1522 
Q 900 1178 1048 958 
Q 1197 738 1509 602 
Q 1822 466 2213 466 
Q 2559 466 2825 569 
Q 3091 672 3220 851 
Q 3350 1031 3350 1244 
Q 3350 1459 3225 1620 
Q 3100 1781 2813 1891 
Q 2628 1963 1997 2114 
Q 1366 2266 1113 2400 
Q 784 2572 623 2826 
Q 463 3081 463 3397 
Q 463 3744 659 4045 
Q 856 4347 1234 4503 
Q 1613 4659 2075 4659 
Q 2584 4659 2973 4495 
Q 3363 4331 3572 4012 
Q 3781 3694 3797 3291 
L 3216 3247 
Q 3169 3681 2898 3903 
Q 2628 4125 2100 4125 
Q 1550 4125 1298 3923 
Q 1047 3722 1047 3438 
Q 1047 3191 1225 3031 
Q 1400 2872 2139 2705 
Q 2878 2538 3153 2413 
Q 3553 2228 3743 1945 
Q 3934 1663 3934 1294 
Q 3934 928 3725 604 
Q 3516 281 3123 101 
Q 2731 -78 2241 -78 
Q 1619 -78 1198 103 
Q 778 284 539 648 
Q 300 1013 288 1472 
z
" transform="scale(0.015625)"/>
       <path id="ArialMT-44" d="M 494 0 
L 494 4581 
L 2072 4581 
Q 2606 4581 2888 4516 
Q 3281 4425 3559 4188 
Q 3922 3881 4101 3404 
Q 4281 2928 4281 2316 
Q 4281 1794 4159 1391 
Q 4038 988 3847 723 
Q 3656 459 3429 307 
Q 3203 156 2883 78 
Q 2563 0 2147 0 
L 494 0 
z
M 1100 541 
L 2078 541 
Q 2531 541 2789 625 
Q 3047 709 3200 863 
Q 3416 1078 3536 1442 
Q 3656 1806 3656 2325 
Q 3656 3044 3420 3430 
Q 3184 3816 2847 3947 
Q 2603 4041 2063 4041 
L 1100 4041 
L 1100 541 
z
" transform="scale(0.015625)"/>
       <path id="ArialMT-6b" d="M 425 0 
L 425 4581 
L 988 4581 
L 988 1969 
L 2319 3319 
L 3047 3319 
L 1778 2088 
L 3175 0 
L 2481 0 
L 1384 1697 
L 988 1316 
L 988 0 
L 425 0 
z
" transform="scale(0.015625)"/>
       <path id="ArialMT-67" d="M 319 -275 
L 866 -356 
Q 900 -609 1056 -725 
Q 1266 -881 1628 -881 
Q 2019 -881 2231 -725 
Q 2444 -569 2519 -288 
Q 2563 -116 2559 434 
Q 2191 0 1641 0 
Q 956 0 581 494 
Q 206 988 206 1678 
Q 206 2153 378 2554 
Q 550 2956 876 3175 
Q 1203 3394 1644 3394 
Q 2231 3394 2613 2919 
L 2613 3319 
L 3131 3319 
L 3131 450 
Q 3131 -325 2973 -648 
Q 2816 -972 2473 -1159 
Q 2131 -1347 1631 -1347 
Q 1038 -1347 672 -1080 
Q 306 -813 319 -275 
z
M 784 1719 
Q 784 1066 1043 766 
Q 1303 466 1694 466 
Q 2081 466 2343 764 
Q 2606 1063 2606 1700 
Q 2606 2309 2336 2618 
Q 2066 2928 1684 2928 
Q 1309 2928 1046 2623 
Q 784 2319 784 1719 
z
" transform="scale(0.015625)"/>
       <path id="DejaVuSans-2212" d="M 678 2272 
L 4684 2272 
L 4684 1741 
L 678 1741 
L 678 2272 
z
" transform="scale(0.015625)"/>
       <path id="DejaVuSans-31" d="M 794 531 
L 1825 531 
L 1825 4091 
L 703 3866 
L 703 4441 
L 1819 4666 
L 2450 4666 
L 2450 531 
L 3481 531 
L 3481 0 
L 794 0 
L 794 531 
z
" transform="scale(0.015625)"/>
       <path id="ArialMT-5d" d="M 1363 -1272 
L 122 -1272 
L 122 -806 
L 800 -806 
L 800 4116 
L 122 4116 
L 122 4581 
L 1363 4581 
L 1363 -1272 
z
" transform="scale(0.015625)"/>
      </defs>
      <use xlink:href="#ArialMT-50" transform="translate(0 0.684375)"/>
      <use xlink:href="#ArialMT-72" transform="translate(66.699219 0.684375)"/>
      <use xlink:href="#ArialMT-6f" transform="translate(100 0.684375)"/>
      <use xlink:href="#ArialMT-64" transform="translate(155.615234 0.684375)"/>
      <use xlink:href="#ArialMT-75" transform="translate(211.230469 0.684375)"/>
      <use xlink:href="#ArialMT-63" transform="translate(266.845703 0.684375)"/>
      <use xlink:href="#ArialMT-74" transform="translate(316.845703 0.684375)"/>
      <use xlink:href="#ArialMT-69" transform="translate(344.628906 0.684375)"/>
      <use xlink:href="#ArialMT-6f" transform="translate(366.845703 0.684375)"/>
      <use xlink:href="#ArialMT-6e" transform="translate(422.460938 0.684375)"/>
      <use xlink:href="#ArialMT-20" transform="translate(478.076172 0.684375)"/>
      <use xlink:href="#ArialMT-63" transform="translate(505.859375 0.684375)"/>
      <use xlink:href="#ArialMT-6f" transform="translate(555.859375 0.684375)"/>
      <use xlink:href="#ArialMT-73" transform="translate(611.474609 0.684375)"/>
      <use xlink:href="#ArialMT-74" transform="translate(661.474609 0.684375)"/>
      <use xlink:href="#ArialMT-20" transform="translate(689.257812 0.684375)"/>
      <use xlink:href="#ArialMT-5b" transform="translate(717.041016 0.684375)"/>
      <use xlink:href="#ArialMT-55" transform="translate(744.824219 0.684375)"/>
      <use xlink:href="#ArialMT-53" transform="translate(817.041016 0.684375)"/>
      <use xlink:href="#ArialMT-44" transform="translate(883.740234 0.684375)"/>
      <use xlink:href="#ArialMT-20" transform="translate(955.957031 0.684375)"/>
      <use xlink:href="#ArialMT-6b" transform="translate(983.740234 0.684375)"/>
      <use xlink:href="#ArialMT-67" transform="translate(1033.740234 0.684375)"/>
      <use xlink:href="#DejaVuSans-2212" transform="translate(1090.3125 38.965625)scale(0.7)"/>
      <use xlink:href="#DejaVuSans-31" transform="translate(1148.964844 38.965625)scale(0.7)"/>
      <use xlink:href="#ArialMT-5d" transform="translate(1196.235352 0.684375)"/>
     </g>
    </g>
   </g>
   <g id="line2d_39">
    <path d="M 39.261321 186.562967 
L 50.740179 189.273383 
L 66.045321 190.584759 
L 85.17675 190.910173 
L 96.655607 192.789568 
L 111.96075 191.724445 
L 131.092179 184.376575 
L 142.571036 184.489404 
L 157.876179 175.284769 
L 177.007607 158.029014 
L 188.486464 153.899573 
L 203.791607 109.125997 
L 215.270464 150.033323 
" clip-path="url(#p1195bfd24d)" style="fill: none; stroke: #52318e; stroke-width: 1.5; stroke-linecap: square"/>
   </g>
   <g id="PathCollection_3">
    <defs>
     <path id="mcef809076b" d="M 0 2.738613 
L 1.643168 0 
L 0 -2.738613 
L -1.643168 0 
z
" style="stroke: #52318e"/>
    </defs>
    <g clip-path="url(#p1195bfd24d)">
     <use xlink:href="#mcef809076b" x="39.261321" y="186.562967" style="fill: #a78dd8; stroke: #52318e"/>
     <use xlink:href="#mcef809076b" x="50.740179" y="189.273383" style="fill: #a78dd8; stroke: #52318e"/>
     <use xlink:href="#mcef809076b" x="66.045321" y="190.584759" style="fill: #a78dd8; stroke: #52318e"/>
     <use xlink:href="#mcef809076b" x="85.17675" y="190.910173" style="fill: #a78dd8; stroke: #52318e"/>
     <use xlink:href="#mcef809076b" x="96.655607" y="192.789568" style="fill: #a78dd8; stroke: #52318e"/>
     <use xlink:href="#mcef809076b" x="111.96075" y="191.724445" style="fill: #a78dd8; stroke: #52318e"/>
     <use xlink:href="#mcef809076b" x="131.092179" y="184.376575" style="fill: #a78dd8; stroke: #52318e"/>
     <use xlink:href="#mcef809076b" x="142.571036" y="184.489404" style="fill: #a78dd8; stroke: #52318e"/>
     <use xlink:href="#mcef809076b" x="157.876179" y="175.284769" style="fill: #a78dd8; stroke: #52318e"/>
     <use xlink:href="#mcef809076b" x="177.007607" y="158.029014" style="fill: #a78dd8; stroke: #52318e"/>
     <use xlink:href="#mcef809076b" x="188.486464" y="153.899573" style="fill: #a78dd8; stroke: #52318e"/>
     <use xlink:href="#mcef809076b" x="203.791607" y="109.125997" style="fill: #a78dd8; stroke: #52318e"/>
     <use xlink:href="#mcef809076b" x="215.270464" y="150.033323" style="fill: #a78dd8; stroke: #52318e"/>
    </g>
   </g>
   <g id="patch_3">
    <path d="M 31.60875 208.138031 
L 31.60875 19.642031 
" style="fill: none; stroke: #000000; stroke-width: 0.8; stroke-linejoin: miter; stroke-linecap: square"/>
   </g>
   <g id="patch_4">
    <path d="M 222.923036 208.138031 
L 222.923036 19.642031 
" style="fill: none; stroke: #000000; stroke-width: 0.8; stroke-linejoin: miter; stroke-linecap: square"/>
   </g>
   <g id="patch_5">
    <path d="M 31.60875 208.138031 
L 222.923036 208.138031 
" style="fill: none; stroke: #000000; stroke-width: 0.8; stroke-linejoin: miter; stroke-linecap: square"/>
   </g>
   <g id="patch_6">
    <path d="M 31.60875 19.642031 
L 222.923036 19.642031 
" style="fill: none; stroke: #000000; stroke-width: 0.8; stroke-linejoin: miter; stroke-linecap: square"/>
   </g>
   <g id="line2d_40">
    <path d="M 39.261321 145.408037 
L 50.740179 145.60604 
L 66.045321 145.608427 
L 85.17675 146.775981 
L 96.655607 147.061366 
L 111.96075 146.777413 
L 131.092179 150.202462 
L 142.571036 150.188614 
L 157.876179 149.724644 
L 177.007607 139.540352 
L 188.486464 139.570116 
L 203.791607 134.7418 
L 215.270464 139.419704 
" clip-path="url(#p1195bfd24d)" style="fill: none; stroke: #b71205; stroke-width: 1.5; stroke-linecap: square"/>
   </g>
   <g id="PathCollection_4">
    <defs>
     <path id="m3c197b8c2a" d="M 0 -1.936492 
L -1.936492 1.936492 
L 1.936492 1.936492 
z
" style="stroke: #b71205"/>
    </defs>
    <g clip-path="url(#p1195bfd24d)">
     <use xlink:href="#m3c197b8c2a" x="39.261321" y="145.408037" style="fill: #fb7b71; stroke: #b71205"/>
     <use xlink:href="#m3c197b8c2a" x="50.740179" y="145.60604" style="fill: #fb7b71; stroke: #b71205"/>
     <use xlink:href="#m3c197b8c2a" x="66.045321" y="145.608427" style="fill: #fb7b71; stroke: #b71205"/>
     <use xlink:href="#m3c197b8c2a" x="85.17675" y="146.775981" style="fill: #fb7b71; stroke: #b71205"/>
     <use xlink:href="#m3c197b8c2a" x="96.655607" y="147.061366" style="fill: #fb7b71; stroke: #b71205"/>
     <use xlink:href="#m3c197b8c2a" x="111.96075" y="146.777413" style="fill: #fb7b71; stroke: #b71205"/>
     <use xlink:href="#m3c197b8c2a" x="131.092179" y="150.202462" style="fill: #fb7b71; stroke: #b71205"/>
     <use xlink:href="#m3c197b8c2a" x="142.571036" y="150.188614" style="fill: #fb7b71; stroke: #b71205"/>
     <use xlink:href="#m3c197b8c2a" x="157.876179" y="149.724644" style="fill: #fb7b71; stroke: #b71205"/>
     <use xlink:href="#m3c197b8c2a" x="177.007607" y="139.540352" style="fill: #fb7b71; stroke: #b71205"/>
     <use xlink:href="#m3c197b8c2a" x="188.486464" y="139.570116" style="fill: #fb7b71; stroke: #b71205"/>
     <use xlink:href="#m3c197b8c2a" x="203.791607" y="134.7418" style="fill: #fb7b71; stroke: #b71205"/>
     <use xlink:href="#m3c197b8c2a" x="215.270464" y="139.419704" style="fill: #fb7b71; stroke: #b71205"/>
    </g>
   </g>
   <g id="text_13">
    <!-- a Ammonia -->
    <g transform="translate(103.179643 13.642031)scale(0.09 -0.09)">
     <defs>
      <path id="Arial-BoldMT-61" d="M 1116 2306 
L 319 2450 
Q 453 2931 781 3162 
Q 1109 3394 1756 3394 
Q 2344 3394 2631 3255 
Q 2919 3116 3036 2902 
Q 3153 2688 3153 2116 
L 3144 1091 
Q 3144 653 3186 445 
Q 3228 238 3344 0 
L 2475 0 
Q 2441 88 2391 259 
Q 2369 338 2359 363 
Q 2134 144 1878 34 
Q 1622 -75 1331 -75 
Q 819 -75 523 203 
Q 228 481 228 906 
Q 228 1188 362 1408 
Q 497 1628 739 1745 
Q 981 1863 1438 1950 
Q 2053 2066 2291 2166 
L 2291 2253 
Q 2291 2506 2166 2614 
Q 2041 2722 1694 2722 
Q 1459 2722 1328 2630 
Q 1197 2538 1116 2306 
z
M 2291 1594 
Q 2122 1538 1756 1459 
Q 1391 1381 1278 1306 
Q 1106 1184 1106 997 
Q 1106 813 1243 678 
Q 1381 544 1594 544 
Q 1831 544 2047 700 
Q 2206 819 2256 991 
Q 2291 1103 2291 1419 
L 2291 1594 
z
" transform="scale(0.015625)"/>
      <path id="Arial-BoldMT-20" transform="scale(0.015625)"/>
      <path id="Arial-BoldMT-41" d="M 4597 0 
L 3591 0 
L 3191 1041 
L 1359 1041 
L 981 0 
L 0 0 
L 1784 4581 
L 2763 4581 
L 4597 0 
z
M 2894 1813 
L 2263 3513 
L 1644 1813 
L 2894 1813 
z
" transform="scale(0.015625)"/>
      <path id="Arial-BoldMT-6d" d="M 394 3319 
L 1203 3319 
L 1203 2866 
Q 1638 3394 2238 3394 
Q 2556 3394 2790 3262 
Q 3025 3131 3175 2866 
Q 3394 3131 3647 3262 
Q 3900 3394 4188 3394 
Q 4553 3394 4806 3245 
Q 5059 3097 5184 2809 
Q 5275 2597 5275 2122 
L 5275 0 
L 4397 0 
L 4397 1897 
Q 4397 2391 4306 2534 
Q 4184 2722 3931 2722 
Q 3747 2722 3584 2609 
Q 3422 2497 3350 2280 
Q 3278 2063 3278 1594 
L 3278 0 
L 2400 0 
L 2400 1819 
Q 2400 2303 2353 2443 
Q 2306 2584 2207 2653 
Q 2109 2722 1941 2722 
Q 1738 2722 1575 2612 
Q 1413 2503 1342 2297 
Q 1272 2091 1272 1613 
L 1272 0 
L 394 0 
L 394 3319 
z
" transform="scale(0.015625)"/>
      <path id="Arial-BoldMT-6f" d="M 256 1706 
Q 256 2144 472 2553 
Q 688 2963 1083 3178 
Q 1478 3394 1966 3394 
Q 2719 3394 3200 2905 
Q 3681 2416 3681 1669 
Q 3681 916 3195 420 
Q 2709 -75 1972 -75 
Q 1516 -75 1102 131 
Q 688 338 472 736 
Q 256 1134 256 1706 
z
M 1156 1659 
Q 1156 1166 1390 903 
Q 1625 641 1969 641 
Q 2313 641 2545 903 
Q 2778 1166 2778 1666 
Q 2778 2153 2545 2415 
Q 2313 2678 1969 2678 
Q 1625 2678 1390 2415 
Q 1156 2153 1156 1659 
z
" transform="scale(0.015625)"/>
      <path id="Arial-BoldMT-6e" d="M 3478 0 
L 2600 0 
L 2600 1694 
Q 2600 2231 2544 2389 
Q 2488 2547 2361 2634 
Q 2234 2722 2056 2722 
Q 1828 2722 1647 2597 
Q 1466 2472 1398 2265 
Q 1331 2059 1331 1503 
L 1331 0 
L 453 0 
L 453 3319 
L 1269 3319 
L 1269 2831 
Q 1703 3394 2363 3394 
Q 2653 3394 2893 3289 
Q 3134 3184 3257 3021 
Q 3381 2859 3429 2653 
Q 3478 2447 3478 2063 
L 3478 0 
z
" transform="scale(0.015625)"/>
      <path id="Arial-BoldMT-69" d="M 459 3769 
L 459 4581 
L 1338 4581 
L 1338 3769 
L 459 3769 
z
M 459 0 
L 459 3319 
L 1338 3319 
L 1338 0 
L 459 0 
z
" transform="scale(0.015625)"/>
     </defs>
     <use xlink:href="#Arial-BoldMT-61"/>
     <use xlink:href="#Arial-BoldMT-20" x="55.615234"/>
     <use xlink:href="#Arial-BoldMT-41" x="79.648438"/>
     <use xlink:href="#Arial-BoldMT-6d" x="151.865234"/>
     <use xlink:href="#Arial-BoldMT-6d" x="240.78125"/>
     <use xlink:href="#Arial-BoldMT-6f" x="329.697266"/>
     <use xlink:href="#Arial-BoldMT-6e" x="390.78125"/>
     <use xlink:href="#Arial-BoldMT-69" x="451.865234"/>
     <use xlink:href="#Arial-BoldMT-61" x="479.648438"/>
    </g>
   </g>
   <g id="line2d_41">
    <path d="M 39.261321 159.343351 
L 50.740179 159.541354 
L 66.045321 159.543742 
L 85.17675 167.136689 
L 96.655607 167.422075 
L 111.96075 167.138122 
L 131.092179 167.113811 
L 142.571036 167.099963 
L 157.876179 166.635993 
L 177.007607 159.067227 
L 188.486464 159.096991 
L 203.791607 154.268675 
L 215.270464 158.946579 
" clip-path="url(#p1195bfd24d)" style="fill: none; stroke: #167f99; stroke-width: 1.5; stroke-linecap: square"/>
   </g>
   <g id="PathCollection_5">
    <defs>
     <path id="mb74c49c18e" d="M 0 -1.936492 
L -1.677051 -0.968246 
L -1.677051 0.968246 
L -0 1.936492 
L 1.677051 0.968246 
L 1.677051 -0.968246 
z
" style="stroke: #167f99"/>
    </defs>
    <g clip-path="url(#p1195bfd24d)">
     <use xlink:href="#mb74c49c18e" x="39.261321" y="159.343351" style="fill: #6dd2ea; stroke: #167f99"/>
     <use xlink:href="#mb74c49c18e" x="50.740179" y="159.541354" style="fill: #6dd2ea; stroke: #167f99"/>
     <use xlink:href="#mb74c49c18e" x="66.045321" y="159.543742" style="fill: #6dd2ea; stroke: #167f99"/>
     <use xlink:href="#mb74c49c18e" x="85.17675" y="167.136689" style="fill: #6dd2ea; stroke: #167f99"/>
     <use xlink:href="#mb74c49c18e" x="96.655607" y="167.422075" style="fill: #6dd2ea; stroke: #167f99"/>
     <use xlink:href="#mb74c49c18e" x="111.96075" y="167.138122" style="fill: #6dd2ea; stroke: #167f99"/>
     <use xlink:href="#mb74c49c18e" x="131.092179" y="167.113811" style="fill: #6dd2ea; stroke: #167f99"/>
     <use xlink:href="#mb74c49c18e" x="142.571036" y="167.099963" style="fill: #6dd2ea; stroke: #167f99"/>
     <use xlink:href="#mb74c49c18e" x="157.876179" y="166.635993" style="fill: #6dd2ea; stroke: #167f99"/>
     <use xlink:href="#mb74c49c18e" x="177.007607" y="159.067227" style="fill: #6dd2ea; stroke: #167f99"/>
     <use xlink:href="#mb74c49c18e" x="188.486464" y="159.096991" style="fill: #6dd2ea; stroke: #167f99"/>
     <use xlink:href="#mb74c49c18e" x="203.791607" y="154.268675" style="fill: #6dd2ea; stroke: #167f99"/>
     <use xlink:href="#mb74c49c18e" x="215.270464" y="158.946579" style="fill: #6dd2ea; stroke: #167f99"/>
    </g>
   </g>
  </g>
  <g id="axes_2">
   <g id="patch_7">
    <path d="M 242.054464 208.138031 
L 433.36875 208.138031 
L 433.36875 19.642031 
L 242.054464 19.642031 
z
" style="fill: #ffffff"/>
   </g>
   <g id="line2d_42">
    <path d="M 249.707036 199.230504 
L 261.185893 201.258291 
L 276.491036 202.301295 
L 295.622464 202.396809 
L 307.101321 203.704732 
L 322.406464 203.044474 
L 341.537893 198.807839 
L 353.01675 198.906891 
L 368.321893 191.88234 
L 387.453321 180.432534 
L 398.932179 177.123471 
L 414.237321 144.658451 
L 425.716179 174.143457 
" clip-path="url(#p9b85888fa3)" style="fill: none; stroke: #000000; stroke-width: 2; stroke-linecap: square"/>
   </g>
   <g id="PathCollection_6">
    <defs>
     <path id="m384681283b" d="M 0 2.738613 
L 2.738613 0 
L 0 -2.738613 
L -2.738613 0 
z
" style="stroke: #000000"/>
    </defs>
    <g clip-path="url(#p9b85888fa3)">
     <use xlink:href="#m384681283b" x="249.707036" y="199.230504" style="fill: #ffffff; stroke: #000000"/>
     <use xlink:href="#m384681283b" x="261.185893" y="201.258291" style="fill: #ffffff; stroke: #000000"/>
     <use xlink:href="#m384681283b" x="276.491036" y="202.301295" style="fill: #ffffff; stroke: #000000"/>
     <use xlink:href="#m384681283b" x="295.622464" y="202.396809" style="fill: #ffffff; stroke: #000000"/>
     <use xlink:href="#m384681283b" x="307.101321" y="203.704732" style="fill: #ffffff; stroke: #000000"/>
     <use xlink:href="#m384681283b" x="322.406464" y="203.044474" style="fill: #ffffff; stroke: #000000"/>
     <use xlink:href="#m384681283b" x="341.537893" y="198.807839" style="fill: #ffffff; stroke: #000000"/>
     <use xlink:href="#m384681283b" x="353.01675" y="198.906891" style="fill: #ffffff; stroke: #000000"/>
     <use xlink:href="#m384681283b" x="368.321893" y="191.88234" style="fill: #ffffff; stroke: #000000"/>
     <use xlink:href="#m384681283b" x="387.453321" y="180.432534" style="fill: #ffffff; stroke: #000000"/>
     <use xlink:href="#m384681283b" x="398.932179" y="177.123471" style="fill: #ffffff; stroke: #000000"/>
     <use xlink:href="#m384681283b" x="414.237321" y="144.658451" style="fill: #ffffff; stroke: #000000"/>
     <use xlink:href="#m384681283b" x="425.716179" y="174.143457" style="fill: #ffffff; stroke: #000000"/>
    </g>
   </g>
   <g id="line2d_43">
    <path d="M 249.707036 169.978115 
L 261.185893 174.306998 
L 276.491036 174.602751 
L 295.622464 175.366631 
L 307.101321 181.219807 
L 322.406464 175.549311 
L 341.537893 167.298664 
L 353.01675 167.053517 
L 368.321893 156.366366 
L 387.453321 125.673364 
L 398.932179 125.459937 
L 414.237321 23.960811 
L 425.716179 121.827277 
" clip-path="url(#p9b85888fa3)" style="fill: none; stroke: #808080; stroke-width: 1.5; stroke-linecap: square"/>
   </g>
   <g id="PathCollection_7">
    <g clip-path="url(#p9b85888fa3)">
     <use xlink:href="#m22d4aee58d" x="249.707036" y="169.978115" style="fill: #d3d3d3; stroke: #808080"/>
     <use xlink:href="#m22d4aee58d" x="261.185893" y="174.306998" style="fill: #d3d3d3; stroke: #808080"/>
     <use xlink:href="#m22d4aee58d" x="276.491036" y="174.602751" style="fill: #d3d3d3; stroke: #808080"/>
     <use xlink:href="#m22d4aee58d" x="295.622464" y="175.366631" style="fill: #d3d3d3; stroke: #808080"/>
     <use xlink:href="#m22d4aee58d" x="307.101321" y="181.219807" style="fill: #d3d3d3; stroke: #808080"/>
     <use xlink:href="#m22d4aee58d" x="322.406464" y="175.549311" style="fill: #d3d3d3; stroke: #808080"/>
     <use xlink:href="#m22d4aee58d" x="341.537893" y="167.298664" style="fill: #d3d3d3; stroke: #808080"/>
     <use xlink:href="#m22d4aee58d" x="353.01675" y="167.053517" style="fill: #d3d3d3; stroke: #808080"/>
     <use xlink:href="#m22d4aee58d" x="368.321893" y="156.366366" style="fill: #d3d3d3; stroke: #808080"/>
     <use xlink:href="#m22d4aee58d" x="387.453321" y="125.673364" style="fill: #d3d3d3; stroke: #808080"/>
     <use xlink:href="#m22d4aee58d" x="398.932179" y="125.459937" style="fill: #d3d3d3; stroke: #808080"/>
     <use xlink:href="#m22d4aee58d" x="414.237321" y="23.960811" style="fill: #d3d3d3; stroke: #808080"/>
     <use xlink:href="#m22d4aee58d" x="425.716179" y="121.827277" style="fill: #d3d3d3; stroke: #808080"/>
    </g>
   </g>
   <g id="matplotlib.axis_3">
    <g id="xtick_25">
     <g id="line2d_44">
      <g>
       <use xlink:href="#m50bd43451d" x="249.707036" y="208.138031" style="stroke: #000000; stroke-width: 0.8"/>
      </g>
     </g>
     <g id="text_14">
      <!-- Jan '19 -->
      <g transform="translate(236.934536 220.864281)scale(0.08 -0.08)">
       <use xlink:href="#ArialMT-4a"/>
       <use xlink:href="#ArialMT-61" x="50"/>
       <use xlink:href="#ArialMT-6e" x="105.615234"/>
       <use xlink:href="#ArialMT-20" x="161.230469"/>
       <use xlink:href="#ArialMT-27" x="189.013672"/>
       <use xlink:href="#ArialMT-31" x="208.105469"/>
       <use xlink:href="#ArialMT-39" x="263.720703"/>
      </g>
     </g>
    </g>
    <g id="xtick_26">
     <g id="line2d_45">
      <g>
       <use xlink:href="#m50bd43451d" x="295.622464" y="208.138031" style="stroke: #000000; stroke-width: 0.8"/>
      </g>
     </g>
     <g id="text_15">
      <!-- Jan '20 -->
      <g transform="translate(282.849964 220.864281)scale(0.08 -0.08)">
       <use xlink:href="#ArialMT-4a"/>
       <use xlink:href="#ArialMT-61" x="50"/>
       <use xlink:href="#ArialMT-6e" x="105.615234"/>
       <use xlink:href="#ArialMT-20" x="161.230469"/>
       <use xlink:href="#ArialMT-27" x="189.013672"/>
       <use xlink:href="#ArialMT-32" x="208.105469"/>
       <use xlink:href="#ArialMT-30" x="263.720703"/>
      </g>
     </g>
    </g>
    <g id="xtick_27">
     <g id="line2d_46">
      <g>
       <use xlink:href="#m50bd43451d" x="341.537893" y="208.138031" style="stroke: #000000; stroke-width: 0.8"/>
      </g>
     </g>
     <g id="text_16">
      <!-- Jan '21 -->
      <g transform="translate(328.765393 220.864281)scale(0.08 -0.08)">
       <use xlink:href="#ArialMT-4a"/>
       <use xlink:href="#ArialMT-61" x="50"/>
       <use xlink:href="#ArialMT-6e" x="105.615234"/>
       <use xlink:href="#ArialMT-20" x="161.230469"/>
       <use xlink:href="#ArialMT-27" x="189.013672"/>
       <use xlink:href="#ArialMT-32" x="208.105469"/>
       <use xlink:href="#ArialMT-31" x="263.720703"/>
      </g>
     </g>
    </g>
    <g id="xtick_28">
     <g id="line2d_47">
      <g>
       <use xlink:href="#m50bd43451d" x="387.453321" y="208.138031" style="stroke: #000000; stroke-width: 0.8"/>
      </g>
     </g>
     <g id="text_17">
      <!-- Jan '22 -->
      <g transform="translate(374.680821 220.864281)scale(0.08 -0.08)">
       <use xlink:href="#ArialMT-4a"/>
       <use xlink:href="#ArialMT-61" x="50"/>
       <use xlink:href="#ArialMT-6e" x="105.615234"/>
       <use xlink:href="#ArialMT-20" x="161.230469"/>
       <use xlink:href="#ArialMT-27" x="189.013672"/>
       <use xlink:href="#ArialMT-32" x="208.105469"/>
       <use xlink:href="#ArialMT-32" x="263.720703"/>
      </g>
     </g>
    </g>
    <g id="xtick_29">
     <g id="line2d_48">
      <g>
       <use xlink:href="#m50bd43451d" x="425.716179" y="208.138031" style="stroke: #000000; stroke-width: 0.8"/>
      </g>
     </g>
     <g id="text_18">
      <!-- Nov '22 -->
      <g transform="translate(412.279304 220.864281)scale(0.08 -0.08)">
       <use xlink:href="#ArialMT-4e"/>
       <use xlink:href="#ArialMT-6f" x="72.216797"/>
       <use xlink:href="#ArialMT-76" x="127.832031"/>
       <use xlink:href="#ArialMT-20" x="177.832031"/>
       <use xlink:href="#ArialMT-27" x="205.615234"/>
       <use xlink:href="#ArialMT-32" x="224.707031"/>
       <use xlink:href="#ArialMT-32" x="280.322266"/>
      </g>
     </g>
    </g>
    <g id="xtick_30">
     <g id="line2d_49">
      <g>
       <use xlink:href="#m5208d05744" x="257.359607" y="208.138031" style="stroke: #000000; stroke-width: 0.6"/>
      </g>
     </g>
    </g>
    <g id="xtick_31">
     <g id="line2d_50">
      <g>
       <use xlink:href="#m5208d05744" x="265.012179" y="208.138031" style="stroke: #000000; stroke-width: 0.6"/>
      </g>
     </g>
    </g>
    <g id="xtick_32">
     <g id="line2d_51">
      <g>
       <use xlink:href="#m5208d05744" x="272.66475" y="208.138031" style="stroke: #000000; stroke-width: 0.6"/>
      </g>
     </g>
    </g>
    <g id="xtick_33">
     <g id="line2d_52">
      <g>
       <use xlink:href="#m5208d05744" x="280.317321" y="208.138031" style="stroke: #000000; stroke-width: 0.6"/>
      </g>
     </g>
    </g>
    <g id="xtick_34">
     <g id="line2d_53">
      <g>
       <use xlink:href="#m5208d05744" x="287.969893" y="208.138031" style="stroke: #000000; stroke-width: 0.6"/>
      </g>
     </g>
    </g>
    <g id="xtick_35">
     <g id="line2d_54">
      <g>
       <use xlink:href="#m5208d05744" x="303.275036" y="208.138031" style="stroke: #000000; stroke-width: 0.6"/>
      </g>
     </g>
    </g>
    <g id="xtick_36">
     <g id="line2d_55">
      <g>
       <use xlink:href="#m5208d05744" x="310.927607" y="208.138031" style="stroke: #000000; stroke-width: 0.6"/>
      </g>
     </g>
    </g>
    <g id="xtick_37">
     <g id="line2d_56">
      <g>
       <use xlink:href="#m5208d05744" x="318.580179" y="208.138031" style="stroke: #000000; stroke-width: 0.6"/>
      </g>
     </g>
    </g>
    <g id="xtick_38">
     <g id="line2d_57">
      <g>
       <use xlink:href="#m5208d05744" x="326.23275" y="208.138031" style="stroke: #000000; stroke-width: 0.6"/>
      </g>
     </g>
    </g>
    <g id="xtick_39">
     <g id="line2d_58">
      <g>
       <use xlink:href="#m5208d05744" x="333.885321" y="208.138031" style="stroke: #000000; stroke-width: 0.6"/>
      </g>
     </g>
    </g>
    <g id="xtick_40">
     <g id="line2d_59">
      <g>
       <use xlink:href="#m5208d05744" x="349.190464" y="208.138031" style="stroke: #000000; stroke-width: 0.6"/>
      </g>
     </g>
    </g>
    <g id="xtick_41">
     <g id="line2d_60">
      <g>
       <use xlink:href="#m5208d05744" x="356.843036" y="208.138031" style="stroke: #000000; stroke-width: 0.6"/>
      </g>
     </g>
    </g>
    <g id="xtick_42">
     <g id="line2d_61">
      <g>
       <use xlink:href="#m5208d05744" x="364.495607" y="208.138031" style="stroke: #000000; stroke-width: 0.6"/>
      </g>
     </g>
    </g>
    <g id="xtick_43">
     <g id="line2d_62">
      <g>
       <use xlink:href="#m5208d05744" x="372.148179" y="208.138031" style="stroke: #000000; stroke-width: 0.6"/>
      </g>
     </g>
    </g>
    <g id="xtick_44">
     <g id="line2d_63">
      <g>
       <use xlink:href="#m5208d05744" x="379.80075" y="208.138031" style="stroke: #000000; stroke-width: 0.6"/>
      </g>
     </g>
    </g>
    <g id="xtick_45">
     <g id="line2d_64">
      <g>
       <use xlink:href="#m5208d05744" x="395.105893" y="208.138031" style="stroke: #000000; stroke-width: 0.6"/>
      </g>
     </g>
    </g>
    <g id="xtick_46">
     <g id="line2d_65">
      <g>
       <use xlink:href="#m5208d05744" x="402.758464" y="208.138031" style="stroke: #000000; stroke-width: 0.6"/>
      </g>
     </g>
    </g>
    <g id="xtick_47">
     <g id="line2d_66">
      <g>
       <use xlink:href="#m5208d05744" x="410.411036" y="208.138031" style="stroke: #000000; stroke-width: 0.6"/>
      </g>
     </g>
    </g>
    <g id="xtick_48">
     <g id="line2d_67">
      <g>
       <use xlink:href="#m5208d05744" x="418.063607" y="208.138031" style="stroke: #000000; stroke-width: 0.6"/>
      </g>
     </g>
    </g>
   </g>
   <g id="matplotlib.axis_4">
    <g id="ytick_13">
     <g id="line2d_68">
      <g>
       <use xlink:href="#m20bda863c2" x="242.054464" y="208.138031" style="stroke: #000000; stroke-width: 0.8"/>
      </g>
     </g>
     <g id="text_19">
      <!-- 0 -->
      <g transform="translate(230.605714 211.001156)scale(0.08 -0.08)">
       <use xlink:href="#ArialMT-30"/>
      </g>
     </g>
    </g>
    <g id="ytick_14">
     <g id="line2d_69">
      <g>
       <use xlink:href="#m20bda863c2" x="242.054464" y="179.346163" style="stroke: #000000; stroke-width: 0.8"/>
      </g>
     </g>
     <g id="text_20">
      <!-- 1 -->
      <g transform="translate(230.605714 182.209288)scale(0.08 -0.08)">
       <use xlink:href="#ArialMT-31"/>
      </g>
     </g>
    </g>
    <g id="ytick_15">
     <g id="line2d_70">
      <g>
       <use xlink:href="#m20bda863c2" x="242.054464" y="150.554295" style="stroke: #000000; stroke-width: 0.8"/>
      </g>
     </g>
     <g id="text_21">
      <!-- 2 -->
      <g transform="translate(230.605714 153.41742)scale(0.08 -0.08)">
       <use xlink:href="#ArialMT-32"/>
      </g>
     </g>
    </g>
    <g id="ytick_16">
     <g id="line2d_71">
      <g>
       <use xlink:href="#m20bda863c2" x="242.054464" y="121.762426" style="stroke: #000000; stroke-width: 0.8"/>
      </g>
     </g>
     <g id="text_22">
      <!-- 3 -->
      <g transform="translate(230.605714 124.625551)scale(0.08 -0.08)">
       <use xlink:href="#ArialMT-33"/>
      </g>
     </g>
    </g>
    <g id="ytick_17">
     <g id="line2d_72">
      <g>
       <use xlink:href="#m20bda863c2" x="242.054464" y="92.970558" style="stroke: #000000; stroke-width: 0.8"/>
      </g>
     </g>
     <g id="text_23">
      <!-- 4 -->
      <g transform="translate(230.605714 95.833683)scale(0.08 -0.08)">
       <use xlink:href="#ArialMT-34"/>
      </g>
     </g>
    </g>
    <g id="ytick_18">
     <g id="line2d_73">
      <g>
       <use xlink:href="#m20bda863c2" x="242.054464" y="64.17869" style="stroke: #000000; stroke-width: 0.8"/>
      </g>
     </g>
     <g id="text_24">
      <!-- 5 -->
      <g transform="translate(230.605714 67.041815)scale(0.08 -0.08)">
       <use xlink:href="#ArialMT-35"/>
      </g>
     </g>
    </g>
    <g id="ytick_19">
     <g id="line2d_74">
      <g>
       <use xlink:href="#m20bda863c2" x="242.054464" y="35.386821" style="stroke: #000000; stroke-width: 0.8"/>
      </g>
     </g>
     <g id="text_25">
      <!-- 6 -->
      <g transform="translate(230.605714 38.249946)scale(0.08 -0.08)">
       <defs>
        <path id="ArialMT-36" d="M 3184 3459 
L 2625 3416 
Q 2550 3747 2413 3897 
Q 2184 4138 1850 4138 
Q 1581 4138 1378 3988 
Q 1113 3794 959 3422 
Q 806 3050 800 2363 
Q 1003 2672 1297 2822 
Q 1591 2972 1913 2972 
Q 2475 2972 2870 2558 
Q 3266 2144 3266 1488 
Q 3266 1056 3080 686 
Q 2894 316 2569 119 
Q 2244 -78 1831 -78 
Q 1128 -78 684 439 
Q 241 956 241 2144 
Q 241 3472 731 4075 
Q 1159 4600 1884 4600 
Q 2425 4600 2770 4297 
Q 3116 3994 3184 3459 
z
M 888 1484 
Q 888 1194 1011 928 
Q 1134 663 1356 523 
Q 1578 384 1822 384 
Q 2178 384 2434 671 
Q 2691 959 2691 1453 
Q 2691 1928 2437 2201 
Q 2184 2475 1800 2475 
Q 1419 2475 1153 2201 
Q 888 1928 888 1484 
z
" transform="scale(0.015625)"/>
       </defs>
       <use xlink:href="#ArialMT-36"/>
      </g>
     </g>
    </g>
    <g id="ytick_20">
     <g id="line2d_75">
      <g>
       <use xlink:href="#m6d8756e2b0" x="242.054464" y="193.742097" style="stroke: #000000; stroke-width: 0.6"/>
      </g>
     </g>
    </g>
    <g id="ytick_21">
     <g id="line2d_76">
      <g>
       <use xlink:href="#m6d8756e2b0" x="242.054464" y="164.950229" style="stroke: #000000; stroke-width: 0.6"/>
      </g>
     </g>
    </g>
    <g id="ytick_22">
     <g id="line2d_77">
      <g>
       <use xlink:href="#m6d8756e2b0" x="242.054464" y="136.15836" style="stroke: #000000; stroke-width: 0.6"/>
      </g>
     </g>
    </g>
    <g id="ytick_23">
     <g id="line2d_78">
      <g>
       <use xlink:href="#m6d8756e2b0" x="242.054464" y="107.366492" style="stroke: #000000; stroke-width: 0.6"/>
      </g>
     </g>
    </g>
    <g id="ytick_24">
     <g id="line2d_79">
      <g>
       <use xlink:href="#m6d8756e2b0" x="242.054464" y="78.574624" style="stroke: #000000; stroke-width: 0.6"/>
      </g>
     </g>
    </g>
    <g id="ytick_25">
     <g id="line2d_80">
      <g>
       <use xlink:href="#m6d8756e2b0" x="242.054464" y="49.782756" style="stroke: #000000; stroke-width: 0.6"/>
      </g>
     </g>
    </g>
    <g id="ytick_26">
     <g id="line2d_81">
      <g>
       <use xlink:href="#m6d8756e2b0" x="242.054464" y="20.990887" style="stroke: #000000; stroke-width: 0.6"/>
      </g>
     </g>
    </g>
   </g>
   <g id="line2d_82">
    <path d="M 249.707036 183.634558 
L 261.185893 186.523211 
L 276.491036 187.973535 
L 295.622464 188.337028 
L 307.101321 190.256443 
L 322.406464 189.237605 
L 341.537893 181.068594 
L 353.01675 181.201308 
L 368.321893 171.273748 
L 387.453321 152.744121 
L 398.932179 148.1561 
L 414.237321 101.317136 
L 425.716179 143.961102 
" clip-path="url(#p9b85888fa3)" style="fill: none; stroke: #52318e; stroke-width: 1.5; stroke-linecap: square"/>
   </g>
   <g id="PathCollection_8">
    <g clip-path="url(#p9b85888fa3)">
     <use xlink:href="#mcef809076b" x="249.707036" y="183.634558" style="fill: #a78dd8; stroke: #52318e"/>
     <use xlink:href="#mcef809076b" x="261.185893" y="186.523211" style="fill: #a78dd8; stroke: #52318e"/>
     <use xlink:href="#mcef809076b" x="276.491036" y="187.973535" style="fill: #a78dd8; stroke: #52318e"/>
     <use xlink:href="#mcef809076b" x="295.622464" y="188.337028" style="fill: #a78dd8; stroke: #52318e"/>
     <use xlink:href="#mcef809076b" x="307.101321" y="190.256443" style="fill: #a78dd8; stroke: #52318e"/>
     <use xlink:href="#mcef809076b" x="322.406464" y="189.237605" style="fill: #a78dd8; stroke: #52318e"/>
     <use xlink:href="#mcef809076b" x="341.537893" y="181.068594" style="fill: #a78dd8; stroke: #52318e"/>
     <use xlink:href="#mcef809076b" x="353.01675" y="181.201308" style="fill: #a78dd8; stroke: #52318e"/>
     <use xlink:href="#mcef809076b" x="368.321893" y="171.273748" style="fill: #a78dd8; stroke: #52318e"/>
     <use xlink:href="#mcef809076b" x="387.453321" y="152.744121" style="fill: #a78dd8; stroke: #52318e"/>
     <use xlink:href="#mcef809076b" x="398.932179" y="148.1561" style="fill: #a78dd8; stroke: #52318e"/>
     <use xlink:href="#mcef809076b" x="414.237321" y="101.317136" style="fill: #a78dd8; stroke: #52318e"/>
     <use xlink:href="#mcef809076b" x="425.716179" y="143.961102" style="fill: #a78dd8; stroke: #52318e"/>
    </g>
   </g>
   <g id="patch_8">
    <path d="M 242.054464 208.138031 
L 242.054464 19.642031 
" style="fill: none; stroke: #000000; stroke-width: 0.8; stroke-linejoin: miter; stroke-linecap: square"/>
   </g>
   <g id="patch_9">
    <path d="M 433.36875 208.138031 
L 433.36875 19.642031 
" style="fill: none; stroke: #000000; stroke-width: 0.8; stroke-linejoin: miter; stroke-linecap: square"/>
   </g>
   <g id="patch_10">
    <path d="M 242.054464 208.138031 
L 433.36875 208.138031 
" style="fill: none; stroke: #000000; stroke-width: 0.8; stroke-linejoin: miter; stroke-linecap: square"/>
   </g>
   <g id="patch_11">
    <path d="M 242.054464 19.642031 
L 433.36875 19.642031 
" style="fill: none; stroke: #000000; stroke-width: 0.8; stroke-linejoin: miter; stroke-linecap: square"/>
   </g>
   <g id="line2d_83">
    <path d="M 249.707036 145.915606 
L 261.185893 146.501603 
L 276.491036 146.752226 
L 295.622464 147.887549 
L 307.101321 148.346036 
L 322.406464 148.04315 
L 341.537893 149.747638 
L 353.01675 149.764251 
L 368.321893 147.847608 
L 387.453321 135.799055 
L 398.932179 135.022992 
L 414.237321 124.794305 
L 425.716179 134.233602 
" clip-path="url(#p9b85888fa3)" style="fill: none; stroke: #b71205; stroke-width: 1.5; stroke-linecap: square"/>
   </g>
   <g id="PathCollection_9">
    <g clip-path="url(#p9b85888fa3)">
     <use xlink:href="#m3c197b8c2a" x="249.707036" y="145.915606" style="fill: #fb7b71; stroke: #b71205"/>
     <use xlink:href="#m3c197b8c2a" x="261.185893" y="146.501603" style="fill: #fb7b71; stroke: #b71205"/>
     <use xlink:href="#m3c197b8c2a" x="276.491036" y="146.752226" style="fill: #fb7b71; stroke: #b71205"/>
     <use xlink:href="#m3c197b8c2a" x="295.622464" y="147.887549" style="fill: #fb7b71; stroke: #b71205"/>
     <use xlink:href="#m3c197b8c2a" x="307.101321" y="148.346036" style="fill: #fb7b71; stroke: #b71205"/>
     <use xlink:href="#m3c197b8c2a" x="322.406464" y="148.04315" style="fill: #fb7b71; stroke: #b71205"/>
     <use xlink:href="#m3c197b8c2a" x="341.537893" y="149.747638" style="fill: #fb7b71; stroke: #b71205"/>
     <use xlink:href="#m3c197b8c2a" x="353.01675" y="149.764251" style="fill: #fb7b71; stroke: #b71205"/>
     <use xlink:href="#m3c197b8c2a" x="368.321893" y="147.847608" style="fill: #fb7b71; stroke: #b71205"/>
     <use xlink:href="#m3c197b8c2a" x="387.453321" y="135.799055" style="fill: #fb7b71; stroke: #b71205"/>
     <use xlink:href="#m3c197b8c2a" x="398.932179" y="135.022992" style="fill: #fb7b71; stroke: #b71205"/>
     <use xlink:href="#m3c197b8c2a" x="414.237321" y="124.794305" style="fill: #fb7b71; stroke: #b71205"/>
     <use xlink:href="#m3c197b8c2a" x="425.716179" y="134.233602" style="fill: #fb7b71; stroke: #b71205"/>
    </g>
   </g>
   <g id="text_26">
    <!-- b Methanol -->
    <g transform="translate(313.96567 13.642031)scale(0.09 -0.09)">
     <defs>
      <path id="Arial-BoldMT-62" d="M 422 0 
L 422 4581 
L 1300 4581 
L 1300 2931 
Q 1706 3394 2263 3394 
Q 2869 3394 3266 2955 
Q 3663 2516 3663 1694 
Q 3663 844 3258 384 
Q 2853 -75 2275 -75 
Q 1991 -75 1714 67 
Q 1438 209 1238 488 
L 1238 0 
L 422 0 
z
M 1294 1731 
Q 1294 1216 1456 969 
Q 1684 619 2063 619 
Q 2353 619 2558 867 
Q 2763 1116 2763 1650 
Q 2763 2219 2556 2470 
Q 2350 2722 2028 2722 
Q 1713 2722 1503 2476 
Q 1294 2231 1294 1731 
z
" transform="scale(0.015625)"/>
      <path id="Arial-BoldMT-4d" d="M 453 0 
L 453 4581 
L 1838 4581 
L 2669 1456 
L 3491 4581 
L 4878 4581 
L 4878 0 
L 4019 0 
L 4019 3606 
L 3109 0 
L 2219 0 
L 1313 3606 
L 1313 0 
L 453 0 
z
" transform="scale(0.015625)"/>
      <path id="Arial-BoldMT-65" d="M 2381 1056 
L 3256 909 
Q 3088 428 2723 176 
Q 2359 -75 1813 -75 
Q 947 -75 531 491 
Q 203 944 203 1634 
Q 203 2459 634 2926 
Q 1066 3394 1725 3394 
Q 2466 3394 2894 2905 
Q 3322 2416 3303 1406 
L 1103 1406 
Q 1113 1016 1316 798 
Q 1519 581 1822 581 
Q 2028 581 2168 693 
Q 2309 806 2381 1056 
z
M 2431 1944 
Q 2422 2325 2234 2523 
Q 2047 2722 1778 2722 
Q 1491 2722 1303 2513 
Q 1116 2303 1119 1944 
L 2431 1944 
z
" transform="scale(0.015625)"/>
      <path id="Arial-BoldMT-74" d="M 1981 3319 
L 1981 2619 
L 1381 2619 
L 1381 1281 
Q 1381 875 1398 808 
Q 1416 741 1477 697 
Q 1538 653 1625 653 
Q 1747 653 1978 738 
L 2053 56 
Q 1747 -75 1359 -75 
Q 1122 -75 931 4 
Q 741 84 652 211 
Q 563 338 528 553 
Q 500 706 500 1172 
L 500 2619 
L 97 2619 
L 97 3319 
L 500 3319 
L 500 3978 
L 1381 4491 
L 1381 3319 
L 1981 3319 
z
" transform="scale(0.015625)"/>
      <path id="Arial-BoldMT-68" d="M 1334 4581 
L 1334 2897 
Q 1759 3394 2350 3394 
Q 2653 3394 2897 3281 
Q 3141 3169 3264 2994 
Q 3388 2819 3433 2606 
Q 3478 2394 3478 1947 
L 3478 0 
L 2600 0 
L 2600 1753 
Q 2600 2275 2550 2415 
Q 2500 2556 2373 2639 
Q 2247 2722 2056 2722 
Q 1838 2722 1666 2615 
Q 1494 2509 1414 2295 
Q 1334 2081 1334 1663 
L 1334 0 
L 456 0 
L 456 4581 
L 1334 4581 
z
" transform="scale(0.015625)"/>
      <path id="Arial-BoldMT-6c" d="M 459 0 
L 459 4581 
L 1338 4581 
L 1338 0 
L 459 0 
z
" transform="scale(0.015625)"/>
     </defs>
     <use xlink:href="#Arial-BoldMT-62"/>
     <use xlink:href="#Arial-BoldMT-20" x="61.083984"/>
     <use xlink:href="#Arial-BoldMT-4d" x="88.867188"/>
     <use xlink:href="#Arial-BoldMT-65" x="172.167969"/>
     <use xlink:href="#Arial-BoldMT-74" x="227.783203"/>
     <use xlink:href="#Arial-BoldMT-68" x="261.083984"/>
     <use xlink:href="#Arial-BoldMT-61" x="322.167969"/>
     <use xlink:href="#Arial-BoldMT-6e" x="377.783203"/>
     <use xlink:href="#Arial-BoldMT-6f" x="438.867188"/>
     <use xlink:href="#Arial-BoldMT-6c" x="499.951172"/>
    </g>
   </g>
   <g id="line2d_84">
    <path d="M 249.707036 158.687477 
L 261.185893 159.273475 
L 276.491036 159.524097 
L 295.622464 166.548365 
L 307.101321 167.006852 
L 322.406464 166.703966 
L 341.537893 165.247078 
L 353.01675 165.263691 
L 368.321893 163.347048 
L 387.453321 153.695655 
L 398.932179 152.919592 
L 414.237321 142.690904 
L 425.716179 152.130201 
" clip-path="url(#p9b85888fa3)" style="fill: none; stroke: #167f99; stroke-width: 1.5; stroke-linecap: square"/>
   </g>
   <g id="PathCollection_10">
    <g clip-path="url(#p9b85888fa3)">
     <use xlink:href="#mb74c49c18e" x="249.707036" y="158.687477" style="fill: #6dd2ea; stroke: #167f99"/>
     <use xlink:href="#mb74c49c18e" x="261.185893" y="159.273475" style="fill: #6dd2ea; stroke: #167f99"/>
     <use xlink:href="#mb74c49c18e" x="276.491036" y="159.524097" style="fill: #6dd2ea; stroke: #167f99"/>
     <use xlink:href="#mb74c49c18e" x="295.622464" y="166.548365" style="fill: #6dd2ea; stroke: #167f99"/>
     <use xlink:href="#mb74c49c18e" x="307.101321" y="167.006852" style="fill: #6dd2ea; stroke: #167f99"/>
     <use xlink:href="#mb74c49c18e" x="322.406464" y="166.703966" style="fill: #6dd2ea; stroke: #167f99"/>
     <use xlink:href="#mb74c49c18e" x="341.537893" y="165.247078" style="fill: #6dd2ea; stroke: #167f99"/>
     <use xlink:href="#mb74c49c18e" x="353.01675" y="165.263691" style="fill: #6dd2ea; stroke: #167f99"/>
     <use xlink:href="#mb74c49c18e" x="368.321893" y="163.347048" style="fill: #6dd2ea; stroke: #167f99"/>
     <use xlink:href="#mb74c49c18e" x="387.453321" y="153.695655" style="fill: #6dd2ea; stroke: #167f99"/>
     <use xlink:href="#mb74c49c18e" x="398.932179" y="152.919592" style="fill: #6dd2ea; stroke: #167f99"/>
     <use xlink:href="#mb74c49c18e" x="414.237321" y="142.690904" style="fill: #6dd2ea; stroke: #167f99"/>
     <use xlink:href="#mb74c49c18e" x="425.716179" y="152.130201" style="fill: #6dd2ea; stroke: #167f99"/>
    </g>
   </g>
  </g>
  <g id="legend_1">
   <g id="line2d_85">
    <path d="M 17.5525 232.986031 
L 25.5525 232.986031 
L 33.5525 232.986031 
" style="fill: none; stroke: #000000; stroke-opacity: 0; stroke-width: 1.5; stroke-linecap: square"/>
    <defs>
     <path id="m9df33a1b56" d="M -2.5 2.5 
L 2.5 2.5 
L 2.5 -2.5 
L -2.5 -2.5 
z
" style="stroke: #000000; stroke-linejoin: miter"/>
    </defs>
    <g>
     <use xlink:href="#m9df33a1b56" x="25.5525" y="232.986031" style="fill: #ffffff; stroke: #000000; stroke-linejoin: miter"/>
    </g>
   </g>
   <g id="text_27">
    <!-- Fossil ammonia -->
    <g transform="translate(34.3525 235.786031)scale(0.08 -0.08)">
     <defs>
      <path id="ArialMT-46" d="M 525 0 
L 525 4581 
L 3616 4581 
L 3616 4041 
L 1131 4041 
L 1131 2622 
L 3281 2622 
L 3281 2081 
L 1131 2081 
L 1131 0 
L 525 0 
z
" transform="scale(0.015625)"/>
      <path id="ArialMT-6c" d="M 409 0 
L 409 4581 
L 972 4581 
L 972 0 
L 409 0 
z
" transform="scale(0.015625)"/>
      <path id="ArialMT-6d" d="M 422 0 
L 422 3319 
L 925 3319 
L 925 2853 
Q 1081 3097 1340 3245 
Q 1600 3394 1931 3394 
Q 2300 3394 2536 3241 
Q 2772 3088 2869 2813 
Q 3263 3394 3894 3394 
Q 4388 3394 4653 3120 
Q 4919 2847 4919 2278 
L 4919 0 
L 4359 0 
L 4359 2091 
Q 4359 2428 4304 2576 
Q 4250 2725 4106 2815 
Q 3963 2906 3769 2906 
Q 3419 2906 3187 2673 
Q 2956 2441 2956 1928 
L 2956 0 
L 2394 0 
L 2394 2156 
Q 2394 2531 2256 2718 
Q 2119 2906 1806 2906 
Q 1569 2906 1367 2781 
Q 1166 2656 1075 2415 
Q 984 2175 984 1722 
L 984 0 
L 422 0 
z
" transform="scale(0.015625)"/>
     </defs>
     <use xlink:href="#ArialMT-46"/>
     <use xlink:href="#ArialMT-6f" x="61.083984"/>
     <use xlink:href="#ArialMT-73" x="116.699219"/>
     <use xlink:href="#ArialMT-73" x="166.699219"/>
     <use xlink:href="#ArialMT-69" x="216.699219"/>
     <use xlink:href="#ArialMT-6c" x="238.916016"/>
     <use xlink:href="#ArialMT-20" x="261.132812"/>
     <use xlink:href="#ArialMT-61" x="288.916016"/>
     <use xlink:href="#ArialMT-6d" x="344.53125"/>
     <use xlink:href="#ArialMT-6d" x="427.832031"/>
     <use xlink:href="#ArialMT-6f" x="511.132812"/>
     <use xlink:href="#ArialMT-6e" x="566.748047"/>
     <use xlink:href="#ArialMT-69" x="622.363281"/>
     <use xlink:href="#ArialMT-61" x="644.580078"/>
    </g>
   </g>
   <g id="line2d_86">
    <path d="M 106.365 232.986031 
L 114.365 232.986031 
L 122.365 232.986031 
" style="fill: none; stroke: #000000; stroke-opacity: 0; stroke-width: 1.5; stroke-linecap: square"/>
    <defs>
     <path id="mf6d1182848" d="M 0 3.535534 
L 3.535534 0 
L 0 -3.535534 
L -3.535534 0 
z
" style="stroke: #000000; stroke-linejoin: miter"/>
    </defs>
    <g>
     <use xlink:href="#mf6d1182848" x="114.365" y="232.986031" style="fill: #ffffff; stroke: #000000; stroke-linejoin: miter"/>
    </g>
   </g>
   <g id="text_28">
    <!-- Fossil methanol -->
    <g transform="translate(123.165 235.786031)scale(0.08 -0.08)">
     <defs>
      <path id="ArialMT-65" d="M 2694 1069 
L 3275 997 
Q 3138 488 2766 206 
Q 2394 -75 1816 -75 
Q 1088 -75 661 373 
Q 234 822 234 1631 
Q 234 2469 665 2931 
Q 1097 3394 1784 3394 
Q 2450 3394 2872 2941 
Q 3294 2488 3294 1666 
Q 3294 1616 3291 1516 
L 816 1516 
Q 847 969 1125 678 
Q 1403 388 1819 388 
Q 2128 388 2347 550 
Q 2566 713 2694 1069 
z
M 847 1978 
L 2700 1978 
Q 2663 2397 2488 2606 
Q 2219 2931 1791 2931 
Q 1403 2931 1139 2672 
Q 875 2413 847 1978 
z
" transform="scale(0.015625)"/>
      <path id="ArialMT-68" d="M 422 0 
L 422 4581 
L 984 4581 
L 984 2938 
Q 1378 3394 1978 3394 
Q 2347 3394 2619 3248 
Q 2891 3103 3008 2847 
Q 3125 2591 3125 2103 
L 3125 0 
L 2563 0 
L 2563 2103 
Q 2563 2525 2380 2717 
Q 2197 2909 1863 2909 
Q 1613 2909 1392 2779 
Q 1172 2650 1078 2428 
Q 984 2206 984 1816 
L 984 0 
L 422 0 
z
" transform="scale(0.015625)"/>
     </defs>
     <use xlink:href="#ArialMT-46"/>
     <use xlink:href="#ArialMT-6f" x="61.083984"/>
     <use xlink:href="#ArialMT-73" x="116.699219"/>
     <use xlink:href="#ArialMT-73" x="166.699219"/>
     <use xlink:href="#ArialMT-69" x="216.699219"/>
     <use xlink:href="#ArialMT-6c" x="238.916016"/>
     <use xlink:href="#ArialMT-20" x="261.132812"/>
     <use xlink:href="#ArialMT-6d" x="288.916016"/>
     <use xlink:href="#ArialMT-65" x="372.216797"/>
     <use xlink:href="#ArialMT-74" x="427.832031"/>
     <use xlink:href="#ArialMT-68" x="455.615234"/>
     <use xlink:href="#ArialMT-61" x="511.230469"/>
     <use xlink:href="#ArialMT-6e" x="566.845703"/>
     <use xlink:href="#ArialMT-6f" x="622.460938"/>
     <use xlink:href="#ArialMT-6c" x="678.076172"/>
    </g>
   </g>
   <g id="line2d_87">
    <path d="M 195.185 232.986031 
L 203.185 232.986031 
L 211.185 232.986031 
" style="fill: none; stroke: #000000; stroke-opacity: 0; stroke-width: 1.5; stroke-linecap: square"/>
    <defs>
     <path id="m5d237b3a05" d="M 0 3.535534 
L 2.12132 0 
L 0 -3.535534 
L -2.12132 0 
z
" style="stroke: #52318e; stroke-linejoin: miter"/>
    </defs>
    <g>
     <use xlink:href="#m5d237b3a05" x="203.185" y="232.986031" style="fill: #a78dd8; stroke: #52318e; stroke-linejoin: miter"/>
    </g>
   </g>
   <g id="text_29">
    <!-- H$_\mathrm{2}$ SMR$_\mathrm{CCS}$ -->
    <g transform="translate(211.985 235.786031)scale(0.08 -0.08)">
     <defs>
      <path id="ArialMT-48" d="M 513 0 
L 513 4581 
L 1119 4581 
L 1119 2700 
L 3500 2700 
L 3500 4581 
L 4106 4581 
L 4106 0 
L 3500 0 
L 3500 2159 
L 1119 2159 
L 1119 0 
L 513 0 
z
" transform="scale(0.015625)"/>
      <path id="DejaVuSans-32" d="M 1228 531 
L 3431 531 
L 3431 0 
L 469 0 
L 469 531 
Q 828 903 1448 1529 
Q 2069 2156 2228 2338 
Q 2531 2678 2651 2914 
Q 2772 3150 2772 3378 
Q 2772 3750 2511 3984 
Q 2250 4219 1831 4219 
Q 1534 4219 1204 4116 
Q 875 4013 500 3803 
L 500 4441 
Q 881 4594 1212 4672 
Q 1544 4750 1819 4750 
Q 2544 4750 2975 4387 
Q 3406 4025 3406 3419 
Q 3406 3131 3298 2873 
Q 3191 2616 2906 2266 
Q 2828 2175 2409 1742 
Q 1991 1309 1228 531 
z
" transform="scale(0.015625)"/>
      <path id="ArialMT-4d" d="M 475 0 
L 475 4581 
L 1388 4581 
L 2472 1338 
Q 2622 884 2691 659 
Q 2769 909 2934 1394 
L 4031 4581 
L 4847 4581 
L 4847 0 
L 4263 0 
L 4263 3834 
L 2931 0 
L 2384 0 
L 1059 3900 
L 1059 0 
L 475 0 
z
" transform="scale(0.015625)"/>
      <path id="ArialMT-52" d="M 503 0 
L 503 4581 
L 2534 4581 
Q 3147 4581 3465 4457 
Q 3784 4334 3975 4021 
Q 4166 3709 4166 3331 
Q 4166 2844 3850 2509 
Q 3534 2175 2875 2084 
Q 3116 1969 3241 1856 
Q 3506 1613 3744 1247 
L 4541 0 
L 3778 0 
L 3172 953 
Q 2906 1366 2734 1584 
Q 2563 1803 2427 1890 
Q 2291 1978 2150 2013 
Q 2047 2034 1813 2034 
L 1109 2034 
L 1109 0 
L 503 0 
z
M 1109 2559 
L 2413 2559 
Q 2828 2559 3062 2645 
Q 3297 2731 3419 2920 
Q 3541 3109 3541 3331 
Q 3541 3656 3305 3865 
Q 3069 4075 2559 4075 
L 1109 4075 
L 1109 2559 
z
" transform="scale(0.015625)"/>
      <path id="DejaVuSans-43" d="M 4122 4306 
L 4122 3641 
Q 3803 3938 3442 4084 
Q 3081 4231 2675 4231 
Q 1875 4231 1450 3742 
Q 1025 3253 1025 2328 
Q 1025 1406 1450 917 
Q 1875 428 2675 428 
Q 3081 428 3442 575 
Q 3803 722 4122 1019 
L 4122 359 
Q 3791 134 3420 21 
Q 3050 -91 2638 -91 
Q 1578 -91 968 557 
Q 359 1206 359 2328 
Q 359 3453 968 4101 
Q 1578 4750 2638 4750 
Q 3056 4750 3426 4639 
Q 3797 4528 4122 4306 
z
" transform="scale(0.015625)"/>
      <path id="DejaVuSans-53" d="M 3425 4513 
L 3425 3897 
Q 3066 4069 2747 4153 
Q 2428 4238 2131 4238 
Q 1616 4238 1336 4038 
Q 1056 3838 1056 3469 
Q 1056 3159 1242 3001 
Q 1428 2844 1947 2747 
L 2328 2669 
Q 3034 2534 3370 2195 
Q 3706 1856 3706 1288 
Q 3706 609 3251 259 
Q 2797 -91 1919 -91 
Q 1588 -91 1214 -16 
Q 841 59 441 206 
L 441 856 
Q 825 641 1194 531 
Q 1563 422 1919 422 
Q 2459 422 2753 634 
Q 3047 847 3047 1241 
Q 3047 1584 2836 1778 
Q 2625 1972 2144 2069 
L 1759 2144 
Q 1053 2284 737 2584 
Q 422 2884 422 3419 
Q 422 4038 858 4394 
Q 1294 4750 2059 4750 
Q 2388 4750 2728 4690 
Q 3069 4631 3425 4513 
z
" transform="scale(0.015625)"/>
     </defs>
     <use xlink:href="#ArialMT-48" transform="translate(0 0.203125)"/>
     <use xlink:href="#DejaVuSans-32" transform="translate(73.173828 -16.203125)scale(0.7)"/>
     <use xlink:href="#ArialMT-20" transform="translate(120.444336 0.203125)"/>
     <use xlink:href="#ArialMT-53" transform="translate(148.227539 0.203125)"/>
     <use xlink:href="#ArialMT-4d" transform="translate(214.926758 0.203125)"/>
     <use xlink:href="#ArialMT-52" transform="translate(298.227539 0.203125)"/>
     <use xlink:href="#DejaVuSans-43" transform="translate(371.401367 -16.203125)scale(0.7)"/>
     <use xlink:href="#DejaVuSans-43" transform="translate(420.27832 -16.203125)scale(0.7)"/>
     <use xlink:href="#DejaVuSans-53" transform="translate(469.155273 -16.203125)scale(0.7)"/>
    </g>
   </g>
   <g id="line2d_88">
    <path d="M 269.345 232.986031 
L 277.345 232.986031 
L 285.345 232.986031 
" style="fill: none; stroke: #000000; stroke-opacity: 0; stroke-width: 1.5; stroke-linecap: square"/>
    <defs>
     <path id="md2bdf69322" d="M 0 -2.5 
L -2.165064 -1.25 
L -2.165064 1.25 
L -0 2.5 
L 2.165064 1.25 
L 2.165064 -1.25 
z
" style="stroke: #b71205; stroke-linejoin: miter"/>
    </defs>
    <g>
     <use xlink:href="#md2bdf69322" x="277.345" y="232.986031" style="fill: #fb7b71; stroke: #b71205; stroke-linejoin: miter"/>
    </g>
   </g>
   <g id="text_30">
    <!-- H$_\mathrm{2}$ solar -->
    <g transform="translate(286.145 235.786031)scale(0.08 -0.08)">
     <use xlink:href="#ArialMT-48" transform="translate(0 0.421875)"/>
     <use xlink:href="#DejaVuSans-32" transform="translate(73.173828 -15.984375)scale(0.7)"/>
     <use xlink:href="#ArialMT-20" transform="translate(120.444336 0.421875)"/>
     <use xlink:href="#ArialMT-73" transform="translate(148.227539 0.421875)"/>
     <use xlink:href="#ArialMT-6f" transform="translate(198.227539 0.421875)"/>
     <use xlink:href="#ArialMT-6c" transform="translate(253.842773 0.421875)"/>
     <use xlink:href="#ArialMT-61" transform="translate(276.05957 0.421875)"/>
     <use xlink:href="#ArialMT-72" transform="translate(331.674805 0.421875)"/>
    </g>
   </g>
   <g id="line2d_89">
    <path d="M 331.345 232.986031 
L 339.345 232.986031 
L 347.345 232.986031 
" style="fill: none; stroke: #000000; stroke-opacity: 0; stroke-width: 1.5; stroke-linecap: square"/>
    <defs>
     <path id="mc0698077f2" d="M 0 -2.5 
L -2.5 2.5 
L 2.5 2.5 
z
" style="stroke: #167f99; stroke-linejoin: miter"/>
    </defs>
    <g>
     <use xlink:href="#mc0698077f2" x="339.345" y="232.986031" style="fill: #6dd2ea; stroke: #167f99; stroke-linejoin: miter"/>
    </g>
   </g>
   <g id="text_31">
    <!-- H$_\mathrm{2}$ wind -->
    <g transform="translate(348.145 235.786031)scale(0.08 -0.08)">
     <defs>
      <path id="ArialMT-77" d="M 1034 0 
L 19 3319 
L 600 3319 
L 1128 1403 
L 1325 691 
Q 1338 744 1497 1375 
L 2025 3319 
L 2603 3319 
L 3100 1394 
L 3266 759 
L 3456 1400 
L 4025 3319 
L 4572 3319 
L 3534 0 
L 2950 0 
L 2422 1988 
L 2294 2553 
L 1622 0 
L 1034 0 
z
" transform="scale(0.015625)"/>
     </defs>
     <use xlink:href="#ArialMT-48" transform="translate(0 0.421875)"/>
     <use xlink:href="#DejaVuSans-32" transform="translate(73.173828 -15.984375)scale(0.7)"/>
     <use xlink:href="#ArialMT-20" transform="translate(120.444336 0.421875)"/>
     <use xlink:href="#ArialMT-77" transform="translate(148.227539 0.421875)"/>
     <use xlink:href="#ArialMT-69" transform="translate(220.444336 0.421875)"/>
     <use xlink:href="#ArialMT-6e" transform="translate(242.661133 0.421875)"/>
     <use xlink:href="#ArialMT-64" transform="translate(298.276367 0.421875)"/>
    </g>
   </g>
   <g id="line2d_90">
    <path d="M 392.465 232.986031 
L 400.465 232.986031 
L 408.465 232.986031 
" style="fill: none; stroke: #000000; stroke-opacity: 0; stroke-width: 1.5; stroke-linecap: square"/>
    <defs>
     <path id="m8156ecbd75" d="M 0 2.5 
C 0.663008 2.5 1.29895 2.236584 1.767767 1.767767 
C 2.236584 1.29895 2.5 0.663008 2.5 0 
C 2.5 -0.663008 2.236584 -1.29895 1.767767 -1.767767 
C 1.29895 -2.236584 0.663008 -2.5 0 -2.5 
C -0.663008 -2.5 -1.29895 -2.236584 -1.767767 -1.767767 
C -2.236584 -1.29895 -2.5 -0.663008 -2.5 0 
C -2.5 0.663008 -2.236584 1.29895 -1.767767 1.767767 
C -1.29895 2.236584 -0.663008 2.5 0 2.5 
z
" style="stroke: #808080"/>
    </defs>
    <g>
     <use xlink:href="#m8156ecbd75" x="400.465" y="232.986031" style="fill: #d3d3d3; stroke: #808080"/>
    </g>
   </g>
   <g id="text_32">
    <!-- H$_\mathrm{2}$ grid -->
    <g transform="translate(409.265 235.786031)scale(0.08 -0.08)">
     <use xlink:href="#ArialMT-48" transform="translate(0 0.421875)"/>
     <use xlink:href="#DejaVuSans-32" transform="translate(73.173828 -15.984375)scale(0.7)"/>
     <use xlink:href="#ArialMT-20" transform="translate(120.444336 0.421875)"/>
     <use xlink:href="#ArialMT-67" transform="translate(148.227539 0.421875)"/>
     <use xlink:href="#ArialMT-72" transform="translate(203.842773 0.421875)"/>
     <use xlink:href="#ArialMT-69" transform="translate(237.143555 0.421875)"/>
     <use xlink:href="#ArialMT-64" transform="translate(259.360352 0.421875)"/>
    </g>
   </g>
  </g>
 </g>
 <defs>
  <clipPath id="p1195bfd24d">
   <rect x="31.60875" y="19.642031" width="191.314286" height="188.496"/>
  </clipPath>
  <clipPath id="p9b85888fa3">
   <rect x="242.054464" y="19.642031" width="191.314286" height="188.496"/>
  </clipPath>
 </defs>
</svg>
