<?xml version="1.0" encoding="UTF-8" standalone="no"?>
<!-- Created with Inkscape (http://www.inkscape.org/) -->

<svg
   width="210mm"
   height="297mm"
   viewBox="0 0 210 297"
   version="1.1"
   id="svg437"
   xml:space="preserve"
   inkscape:version="1.2.2 (732a01da63, 2022-12-09)"
   sodipodi:docname="naturalGas.svg"
   inkscape:export-filename="naturalGas.png"
   inkscape:export-xdpi="600"
   inkscape:export-ydpi="600"
   xmlns:inkscape="http://www.inkscape.org/namespaces/inkscape"
   xmlns:sodipodi="http://sodipodi.sourceforge.net/DTD/sodipodi-0.dtd"
   xmlns="http://www.w3.org/2000/svg"
   xmlns:svg="http://www.w3.org/2000/svg"><sodipodi:namedview
     id="namedview439"
     pagecolor="#ffffff"
     bordercolor="#000000"
     borderopacity="0.25"
     inkscape:showpageshadow="2"
     inkscape:pageopacity="0.0"
     inkscape:pagecheckerboard="0"
     inkscape:deskcolor="#d1d1d1"
     inkscape:document-units="mm"
     showgrid="false"
     inkscape:zoom="0.93806818"
     inkscape:cx="452.52574"
     inkscape:cy="582.58026"
     inkscape:window-width="2560"
     inkscape:window-height="1361"
     inkscape:window-x="-9"
     inkscape:window-y="-9"
     inkscape:window-maximized="1"
     inkscape:current-layer="layer2" /><defs
     id="defs434" /><g
     inkscape:label="Layer 1"
     inkscape:groupmode="layer"
     id="layer1" /><g
     inkscape:groupmode="layer"
     id="layer2"
     inkscape:label="Layer 2"><path
       d="m 84.376007,70.94936 c -1.375833,1.058333 -1.411111,3.245555 0,4.303889 0.3175,0.246944 1.446389,0.493889 2.469445,0.493889 h 1.834444 v 9.101666 9.101667 l -1.305278,0.458611 c -4.056944,1.446389 -8.643055,5.573889 -10.548055,9.560278 -2.187222,4.58611 -2.081389,0.9525 -2.081389,62.79444 0,51.39973 0.07056,56.79723 0.564444,58.38473 1.058334,3.24555 2.469445,5.75027 4.480278,7.97277 2.469445,2.71639 5.256389,4.55084 8.501945,5.60917 1.375833,0.42333 2.504722,0.98778 2.504722,1.19944 0,0.21167 -0.388056,1.905 -0.881945,3.73945 -0.881944,3.38667 -1.093611,5.50333 -0.599722,6.20889 0.740833,1.16416 1.763889,1.19944 24.765004,1.19944 23.0011,0 24.02416,-0.0353 24.76499,-1.19944 0.49389,-0.70556 0.28222,-2.82222 -0.59972,-6.20889 -0.49389,-1.83445 -0.88195,-3.52778 -0.88195,-3.73945 0,-0.21166 1.12889,-0.77611 2.50473,-1.19944 6.13833,-1.97556 10.75972,-6.84389 12.98222,-13.58194 0.49389,-1.5875 0.56444,-6.985 0.56444,-58.38473 0,-61.84194 0.10584,-58.20833 -2.08139,-62.79444 -1.905,-3.986389 -6.49111,-8.113889 -10.51277,-9.560278 l -1.34056,-0.458611 v -9.101667 -9.101666 h 1.86972 c 0.98778,0 2.11667,-0.246945 2.43417,-0.493889 1.41111,-1.058334 1.37583,-3.245556 0,-4.303889 -0.88194,-0.705556 -58.525828,-0.705556 -59.407773,0 z m 49.812213,13.440833 v 8.643056 h -8.64305 -8.64305 v -2.998611 -2.998611 h 2.57528 c 2.11666,0 2.71638,-0.141112 3.35138,-0.705556 1.12889,-1.058333 1.05833,-2.892778 -0.14111,-3.845278 -0.88194,-0.705555 -1.37583,-0.740833 -8.60777,-0.740833 -7.23195,0 -7.72584,0.03528 -8.60778,0.740833 -1.19945,0.9525 -1.27,2.786945 -0.14111,3.845278 0.635,0.564444 1.23472,0.705556 3.35139,0.705556 h 2.57527 v 2.998611 2.998611 h -8.64305 -8.643057 v -8.643056 -8.643055 h 20.108337 20.10832 z m 4.62139,14.9225 c 3.91584,1.587497 6.91445,4.550837 8.50195,8.431387 l 0.81139,2.04611 v 26.9875 26.9875 l 1.73624,18.5249 c -4.48027,0.14111 5.65452,25.177 -0.18899,2.4422 -0.56445,0.81139 1.75829,-3.46767 2.25217,-2.55044 0.56445,1.02305 1.12383,-0.44967 -0.4418,-4.5721 l -2.98179,-10.96922 -0.19944,27.88688 c -0.0997,13.93437 -0.14112,26.31723 -0.3175,27.51667 -0.91723,6.13833 -5.53862,10.97139 -11.64167,12.10028 -1.02306,0.17639 -7.33778,0.35278 -13.93472,0.35278 -11.67694,0 -12.10028,0.0353 -12.84111,0.70555 -1.02306,0.9525 -1.02306,2.82222 -0.0353,3.73945 0.67028,0.635 1.55222,0.67027 11.53583,0.84666 l 10.795,0.17639 0.635,2.46945 c 0.3175,1.34055 0.635,2.68111 0.635,2.89277 0,0.35278 -4.05694,0.45862 -19.05,0.45862 -14.993051,0 -19.049996,-0.10584 -19.049996,-0.45862 0,-0.21166 0.282222,-1.55222 0.635,-2.89277 l 0.635,-2.46945 2.328333,-0.17639 c 1.622773,-0.10583 2.540003,-0.38805 3.069163,-0.84666 0.98778,-0.88195 0.9525,-2.57528 -0.0353,-3.63361 -0.70555,-0.74084 -1.05833,-0.81139 -4.339162,-0.81139 -1.975556,0 -4.480278,-0.17639 -5.503334,-0.35278 -6.103055,-1.12889 -10.724444,-5.96195 -11.641666,-12.10028 -0.176389,-1.19944 -0.3175,-13.58194 -0.3175,-27.48139 v -25.29416 l -2.86361,14.25387 c 7.845394,-19.40583 -4.471819,-13.77129 0.868834,-8.75373 0.9525,-0.88194 -0.572463,16.71071 -1.489683,15.89932 -1.529456,0.80086 1.88557,37.57769 2.392762,35.82732 l 1.26809,-62.73012 -0.105834,-25.22361 c -0.03528,-14.11111 0.07056,-26.28194 0.246945,-27.58722 0.846666,-6.13833 5.3975,-11.077222 11.324166,-12.241389 0.881945,-0.176389 11.430002,-0.3175 23.459722,-0.282222 l 21.87222,0.07055 z"
       id="path2045"
       style="fill:#ffffff;stroke:#ffffff;stroke-width:0;stroke-dasharray:none;stroke-opacity:1;fill-opacity:1"
       sodipodi:nodetypes="ccscccccscccsccsccsccscccccscccccccccsccsccsccccccccccccccccccscsccscccccssscccccsccscccccccccccc" /><path
       d="m 120.48728,144.66335 c -0.56117,0.24455 -2.00977,1.15427 -3.27568,2.04442 -3.27568,2.29874 -5.80748,4.88116 -7.81727,7.94289 -2.30995,3.51169 -3.24959,7.00383 -3.5367,13.02946 l -0.0914,1.79987 -0.53506,-0.11739 c -0.79609,-0.18585 -1.42252,-0.44996 -2.20555,-0.93905 -1.78793,-1.11514 -3.066876,-2.88566 -3.941262,-5.42895 -0.495922,-1.44772 -0.743882,-1.71183 -1.618269,-1.71183 -0.991841,0 -3.171281,1.40859 -4.489386,2.915 -2.531805,2.88567 -3.758555,6.52451 -3.797707,11.26873 -0.01305,2.36722 0.130506,3.33562 0.769982,5.15506 2.061985,5.84956 7.882527,10.69159 15.373532,12.78491 3.04078,0.85103 5.48124,1.17383 8.83521,1.17383 3.35399,0 5.79445,-0.3228 8.83523,-1.17383 6.62967,-1.85855 12.09785,-5.95717 14.57744,-10.92636 1.34421,-2.68023 1.81403,-5.27243 1.52692,-8.18744 -0.43067,-4.19643 -1.65743,-7.27771 -4.37193,-10.9557 -1.031,-1.37925 -2.54486,-3.06173 -5.54649,-6.15281 -2.72755,-2.81718 -3.6411,-3.87362 -4.59378,-5.29199 -1.23981,-1.85856 -1.84013,-3.5117 -2.04894,-5.65393 -0.10441,-0.99775 -0.1566,-1.1347 -0.44372,-1.34991 -0.37846,-0.28367 -1.20065,-0.40105 -1.60522,-0.22498 z m -0.32626,4.02036 c 0.36542,1.37924 0.95269,2.62154 1.95759,4.13773 1.10929,1.68249 2.00978,2.72915 5.07666,5.86914 3.73245,3.82471 5.14191,5.49741 6.51221,7.74725 1.53996,2.52372 2.36216,5.06701 2.62316,8.15808 0.27406,3.04217 -0.39151,5.73219 -2.06198,8.36351 -1.76182,2.75849 -4.37193,5.05724 -7.72592,6.76906 -0.63948,0.32281 -3.26264,1.38904 -3.43229,1.38904 -0.0522,0 0.0262,-0.12717 0.18271,-0.29346 0.45677,-0.47932 1.3964,-2.06398 1.64436,-2.78784 0.19576,-0.54778 0.24795,-1.01732 0.23491,-2.34765 -0.013,-1.5162 -0.0522,-1.76074 -0.40457,-2.78784 -0.56117,-1.58466 -1.42251,-2.88566 -3.35399,-5.03766 -2.37519,-2.64112 -2.71451,-3.17912 -2.94942,-4.76378 -0.1044,-0.65539 -0.1827,-0.84125 -0.46981,-1.06623 -0.46982,-0.36193 -0.96575,-0.44019 -1.56607,-0.22498 -0.76998,0.27389 -2.64926,1.75096 -3.615,2.83674 -1.80097,2.02485 -2.5318,3.7269 -2.80586,6.44627 l -0.0914,0.97819 -0.35236,-0.39128 c -0.31322,-0.35215 -0.75693,-1.25208 -0.93964,-1.91726 -0.20881,-0.76298 -1.4225,-1.01731 -2.38825,-0.48909 -1.30506,0.7043 -2.28385,2.04442 -2.85807,3.88341 -0.35236,1.10535 -0.35236,3.90296 0,4.88116 0.24796,0.72386 1.1876,2.30852 1.64437,2.78784 0.15661,0.16629 0.24796,0.29346 0.19576,0.29346 -0.35237,0 -3.22349,-1.24231 -4.33278,-1.87813 -4.398036,-2.50416 -7.347457,-5.96695 -8.508955,-9.96774 -1.017943,-3.5606 -0.313214,-8.84282 1.644367,-12.14909 0.587275,-1.00753 2.244693,-2.90522 2.531805,-2.90522 0.05221,0 0.182708,0.27389 0.313214,0.60647 0.300161,0.82168 1.331155,2.40634 2.140288,3.31607 1.879281,2.11288 4.554641,3.36496 7.451861,3.48235 l 1.25285,0.0587 0.40457,-0.30323 0.40457,-0.30325 0.0783,-2.03463 c 0.28711,-7.13099 1.03099,-10.05577 3.41923,-13.64572 1.04405,-1.57488 2.12724,-2.85631 3.69331,-4.38228 0.84828,-0.83146 4.05872,-3.36497 4.16312,-3.28671 0.026,0.0293 0.15661,0.44996 0.28711,0.95862 z m -3.22348,27.80989 c 0.1827,0.27389 1.07014,1.32056 1.99674,2.34765 1.82706,2.04441 2.6362,3.21824 3.04076,4.40184 0.80914,2.36722 0.67863,3.93233 -0.46981,5.72241 -0.49592,0.77277 -0.76998,1.05644 -1.65742,1.71183 -1.70962,1.28142 -3.44535,1.83899 -5.69004,1.83899 -2.24469,0 -3.98041,-0.55757 -5.69003,-1.83899 -0.88744,-0.64561 -1.16149,-0.93906 -1.65741,-1.71183 -0.80914,-1.25208 -1.07015,-2.24006 -0.96575,-3.67799 0.0783,-1.06623 0.36541,-2.24005 0.67863,-2.8074 l 0.15661,-0.28367 0.32626,0.4304 c 0.88744,1.11513 2.24469,1.85856 3.66721,1.98572 0.82218,0.0782 1.55301,-0.1076 1.80097,-0.45974 0.1044,-0.13695 0.2088,-0.87059 0.261,-1.93682 0.10442,-1.83899 0.24797,-2.68024 0.66559,-3.76603 0.31321,-0.82168 1.27895,-2.24983 2.06198,-3.02259 l 0.56117,-0.55758 0.28712,0.56736 c 0.16965,0.31301 0.44371,0.79232 0.62642,1.05644 z"
       id="path3514"
       style="fill:#ffffff;stroke:#ffffff;stroke-width:1.27;stroke-dasharray:none;stroke-opacity:1;fill-opacity:1" /></g></svg>
