<?xml version="1.0" encoding="utf-8" standalone="no"?>
<!DOCTYPE svg PUBLIC "-//W3C//DTD SVG 1.1//EN"
  "http://www.w3.org/Graphics/SVG/1.1/DTD/svg11.dtd">
<svg xmlns:xlink="http://www.w3.org/1999/xlink" width="766.08pt" height="407.658828pt" viewBox="0 0 766.08 407.658828" xmlns="http://www.w3.org/2000/svg" version="1.1">
 <metadata>
  <rdf:RDF xmlns:dc="http://purl.org/dc/elements/1.1/" xmlns:cc="http://creativecommons.org/ns#" xmlns:rdf="http://www.w3.org/1999/02/22-rdf-syntax-ns#">
   <cc:Work>
    <dc:type rdf:resource="http://purl.org/dc/dcmitype/StillImage"/>
    <dc:date>2023-03-24T07:54:37.829893</dc:date>
    <dc:format>image/svg+xml</dc:format>
    <dc:creator>
     <cc:Agent>
      <dc:title>Matplotlib v3.5.1, https://matplotlib.org/</dc:title>
     </cc:Agent>
    </dc:creator>
   </cc:Work>
  </rdf:RDF>
 </metadata>
 <defs>
  <style type="text/css">*{stroke-linejoin: round; stroke-linecap: butt}</style>
 </defs>
 <g id="figure_1">
  <g id="patch_1">
   <path d="M 0 407.658828 
L 766.08 407.658828 
L 766.08 0 
L 0 0 
z
" style="fill: #ffffff"/>
  </g>
  <g id="axes_1">
   <g id="patch_2">
    <path d="M 48.32 324.60348 
L 758.88 324.60348 
L 758.88 7.2 
L 48.32 7.2 
z
" style="fill: #ffffff"/>
   </g>
   <g id="patch_3">
    <path d="M 57.352542 324.60348 
L 75.417627 324.60348 
L 75.417627 310.511094 
L 57.352542 310.511094 
z
" clip-path="url(#p7f04fbd5f7)" style="fill: #808080"/>
   </g>
   <g id="patch_4">
    <path d="M 81.439322 324.60348 
L 99.504407 324.60348 
L 99.504407 324.60348 
L 81.439322 324.60348 
z
" clip-path="url(#p7f04fbd5f7)" style="fill: #808080"/>
   </g>
   <g id="patch_5">
    <path d="M 105.526102 324.60348 
L 123.591186 324.60348 
L 123.591186 324.60348 
L 105.526102 324.60348 
z
" clip-path="url(#p7f04fbd5f7)" style="fill: #808080"/>
   </g>
   <g id="patch_6">
    <path d="M 129.612881 324.60348 
L 147.677966 324.60348 
L 147.677966 315.096983 
L 129.612881 315.096983 
z
" clip-path="url(#p7f04fbd5f7)" style="fill: #808080"/>
   </g>
   <g id="patch_7">
    <path d="M 153.699661 324.60348 
L 171.764746 324.60348 
L 171.764746 324.60348 
L 153.699661 324.60348 
z
" clip-path="url(#p7f04fbd5f7)" style="fill: #808080"/>
   </g>
   <g id="patch_8">
    <path d="M 177.786441 324.60348 
L 195.851525 324.60348 
L 195.851525 324.60348 
L 177.786441 324.60348 
z
" clip-path="url(#p7f04fbd5f7)" style="fill: #808080"/>
   </g>
   <g id="patch_9">
    <path d="M 201.87322 324.60348 
L 219.938305 324.60348 
L 219.938305 287.926141 
L 201.87322 287.926141 
z
" clip-path="url(#p7f04fbd5f7)" style="fill: #808080"/>
   </g>
   <g id="patch_10">
    <path d="M 225.96 324.60348 
L 244.025085 324.60348 
L 244.025085 324.60348 
L 225.96 324.60348 
z
" clip-path="url(#p7f04fbd5f7)" style="fill: #808080"/>
   </g>
   <g id="patch_11">
    <path d="M 250.04678 324.60348 
L 268.111864 324.60348 
L 268.111864 324.60348 
L 250.04678 324.60348 
z
" clip-path="url(#p7f04fbd5f7)" style="fill: #808080"/>
   </g>
   <g id="patch_12">
    <path d="M 274.133559 324.60348 
L 292.198644 324.60348 
L 292.198644 233.569797 
L 274.133559 233.569797 
z
" clip-path="url(#p7f04fbd5f7)" style="fill: #808080"/>
   </g>
   <g id="patch_13">
    <path d="M 298.220339 324.60348 
L 316.285424 324.60348 
L 316.285424 324.60348 
L 298.220339 324.60348 
z
" clip-path="url(#p7f04fbd5f7)" style="fill: #808080"/>
   </g>
   <g id="patch_14">
    <path d="M 322.307119 324.60348 
L 340.372203 324.60348 
L 340.372203 324.60348 
L 322.307119 324.60348 
z
" clip-path="url(#p7f04fbd5f7)" style="fill: #808080"/>
   </g>
   <g id="patch_15">
    <path d="M 346.393898 324.60348 
L 364.458983 324.60348 
L 364.458983 241.749635 
L 346.393898 241.749635 
z
" clip-path="url(#p7f04fbd5f7)" style="fill: #808080"/>
   </g>
   <g id="patch_16">
    <path d="M 370.480678 324.60348 
L 388.545763 324.60348 
L 388.545763 324.60348 
L 370.480678 324.60348 
z
" clip-path="url(#p7f04fbd5f7)" style="fill: #808080"/>
   </g>
   <g id="patch_17">
    <path d="M 394.567458 324.60348 
L 412.632542 324.60348 
L 412.632542 324.60348 
L 394.567458 324.60348 
z
" clip-path="url(#p7f04fbd5f7)" style="fill: #808080"/>
   </g>
   <g id="patch_18">
    <path d="M 418.654237 324.60348 
L 436.719322 324.60348 
L 436.719322 230.198179 
L 418.654237 230.198179 
z
" clip-path="url(#p7f04fbd5f7)" style="fill: #808080"/>
   </g>
   <g id="patch_19">
    <path d="M 442.741017 324.60348 
L 460.806102 324.60348 
L 460.806102 324.60348 
L 442.741017 324.60348 
z
" clip-path="url(#p7f04fbd5f7)" style="fill: #808080"/>
   </g>
   <g id="patch_20">
    <path d="M 466.827797 324.60348 
L 484.892881 324.60348 
L 484.892881 324.60348 
L 466.827797 324.60348 
z
" clip-path="url(#p7f04fbd5f7)" style="fill: #808080"/>
   </g>
   <g id="patch_21">
    <path d="M 490.914576 324.60348 
L 508.979661 324.60348 
L 508.979661 174.112048 
L 490.914576 174.112048 
z
" clip-path="url(#p7f04fbd5f7)" style="fill: #808080"/>
   </g>
   <g id="patch_22">
    <path d="M 515.001356 324.60348 
L 533.066441 324.60348 
L 533.066441 324.60348 
L 515.001356 324.60348 
z
" clip-path="url(#p7f04fbd5f7)" style="fill: #808080"/>
   </g>
   <g id="patch_23">
    <path d="M 539.088136 324.60348 
L 557.15322 324.60348 
L 557.15322 324.60348 
L 539.088136 324.60348 
z
" clip-path="url(#p7f04fbd5f7)" style="fill: #808080"/>
   </g>
   <g id="patch_24">
    <path d="M 563.174915 324.60348 
L 581.24 324.60348 
L 581.24 119.257291 
L 563.174915 119.257291 
z
" clip-path="url(#p7f04fbd5f7)" style="fill: #808080"/>
   </g>
   <g id="patch_25">
    <path d="M 587.261695 324.60348 
L 605.32678 324.60348 
L 605.32678 324.60348 
L 587.261695 324.60348 
z
" clip-path="url(#p7f04fbd5f7)" style="fill: #808080"/>
   </g>
   <g id="patch_26">
    <path d="M 611.348475 324.60348 
L 629.413559 324.60348 
L 629.413559 324.60348 
L 611.348475 324.60348 
z
" clip-path="url(#p7f04fbd5f7)" style="fill: #808080"/>
   </g>
   <g id="patch_27">
    <path d="M 635.435254 324.60348 
L 653.500339 324.60348 
L 653.500339 151.331638 
L 635.435254 151.331638 
z
" clip-path="url(#p7f04fbd5f7)" style="fill: #808080"/>
   </g>
   <g id="patch_28">
    <path d="M 659.522034 324.60348 
L 677.587119 324.60348 
L 677.587119 324.60348 
L 659.522034 324.60348 
z
" clip-path="url(#p7f04fbd5f7)" style="fill: #808080"/>
   </g>
   <g id="patch_29">
    <path d="M 683.608814 324.60348 
L 701.673898 324.60348 
L 701.673898 324.60348 
L 683.608814 324.60348 
z
" clip-path="url(#p7f04fbd5f7)" style="fill: #808080"/>
   </g>
   <g id="patch_30">
    <path d="M 707.695593 324.60348 
L 725.760678 324.60348 
L 725.760678 219.878096 
L 707.695593 219.878096 
z
" clip-path="url(#p7f04fbd5f7)" style="fill: #808080"/>
   </g>
   <g id="patch_31">
    <path d="M 731.782373 324.60348 
L 749.847458 324.60348 
L 749.847458 324.60348 
L 731.782373 324.60348 
z
" clip-path="url(#p7f04fbd5f7)" style="fill: #808080"/>
   </g>
   <g id="patch_32">
    <path d="M 755.869153 324.60348 
L 773.934237 324.60348 
L 773.934237 324.60348 
L 755.869153 324.60348 
z
" clip-path="url(#p7f04fbd5f7)" style="fill: #808080"/>
   </g>
   <g id="patch_33">
    <path d="M 57.352542 310.511094 
L 75.417627 310.511094 
L 75.417627 310.492746 
L 57.352542 310.492746 
z
" clip-path="url(#p7f04fbd5f7)" style="fill: #167f99"/>
   </g>
   <g id="patch_34">
    <path d="M 81.439322 324.60348 
L 99.504407 324.60348 
L 99.504407 324.60348 
L 81.439322 324.60348 
z
" clip-path="url(#p7f04fbd5f7)" style="fill: #167f99"/>
   </g>
   <g id="patch_35">
    <path d="M 105.526102 324.60348 
L 123.591186 324.60348 
L 123.591186 324.60348 
L 105.526102 324.60348 
z
" clip-path="url(#p7f04fbd5f7)" style="fill: #167f99"/>
   </g>
   <g id="patch_36">
    <path d="M 129.612881 315.096983 
L 147.677966 315.096983 
L 147.677966 315.078976 
L 129.612881 315.078976 
z
" clip-path="url(#p7f04fbd5f7)" style="fill: #167f99"/>
   </g>
   <g id="patch_37">
    <path d="M 153.699661 324.60348 
L 171.764746 324.60348 
L 171.764746 324.60348 
L 153.699661 324.60348 
z
" clip-path="url(#p7f04fbd5f7)" style="fill: #167f99"/>
   </g>
   <g id="patch_38">
    <path d="M 177.786441 324.60348 
L 195.851525 324.60348 
L 195.851525 324.60348 
L 177.786441 324.60348 
z
" clip-path="url(#p7f04fbd5f7)" style="fill: #167f99"/>
   </g>
   <g id="patch_39">
    <path d="M 201.87322 287.926141 
L 219.938305 287.926141 
L 219.938305 287.904757 
L 201.87322 287.904757 
z
" clip-path="url(#p7f04fbd5f7)" style="fill: #167f99"/>
   </g>
   <g id="patch_40">
    <path d="M 225.96 324.60348 
L 244.025085 324.60348 
L 244.025085 324.60348 
L 225.96 324.60348 
z
" clip-path="url(#p7f04fbd5f7)" style="fill: #167f99"/>
   </g>
   <g id="patch_41">
    <path d="M 250.04678 324.60348 
L 268.111864 324.60348 
L 268.111864 324.60348 
L 250.04678 324.60348 
z
" clip-path="url(#p7f04fbd5f7)" style="fill: #167f99"/>
   </g>
   <g id="patch_42">
    <path d="M 274.133559 233.569797 
L 292.198644 233.569797 
L 292.198644 233.548413 
L 274.133559 233.548413 
z
" clip-path="url(#p7f04fbd5f7)" style="fill: #167f99"/>
   </g>
   <g id="patch_43">
    <path d="M 298.220339 324.60348 
L 316.285424 324.60348 
L 316.285424 324.60348 
L 298.220339 324.60348 
z
" clip-path="url(#p7f04fbd5f7)" style="fill: #167f99"/>
   </g>
   <g id="patch_44">
    <path d="M 322.307119 324.60348 
L 340.372203 324.60348 
L 340.372203 324.60348 
L 322.307119 324.60348 
z
" clip-path="url(#p7f04fbd5f7)" style="fill: #167f99"/>
   </g>
   <g id="patch_45">
    <path d="M 346.393898 241.749635 
L 364.458983 241.749635 
L 364.458983 241.724944 
L 346.393898 241.724944 
z
" clip-path="url(#p7f04fbd5f7)" style="fill: #167f99"/>
   </g>
   <g id="patch_46">
    <path d="M 370.480678 324.60348 
L 388.545763 324.60348 
L 388.545763 324.60348 
L 370.480678 324.60348 
z
" clip-path="url(#p7f04fbd5f7)" style="fill: #167f99"/>
   </g>
   <g id="patch_47">
    <path d="M 394.567458 324.60348 
L 412.632542 324.60348 
L 412.632542 324.60348 
L 394.567458 324.60348 
z
" clip-path="url(#p7f04fbd5f7)" style="fill: #167f99"/>
   </g>
   <g id="patch_48">
    <path d="M 418.654237 230.198179 
L 436.719322 230.198179 
L 436.719322 230.173488 
L 418.654237 230.173488 
z
" clip-path="url(#p7f04fbd5f7)" style="fill: #167f99"/>
   </g>
   <g id="patch_49">
    <path d="M 442.741017 324.60348 
L 460.806102 324.60348 
L 460.806102 324.60348 
L 442.741017 324.60348 
z
" clip-path="url(#p7f04fbd5f7)" style="fill: #167f99"/>
   </g>
   <g id="patch_50">
    <path d="M 466.827797 324.60348 
L 484.892881 324.60348 
L 484.892881 324.60348 
L 466.827797 324.60348 
z
" clip-path="url(#p7f04fbd5f7)" style="fill: #167f99"/>
   </g>
   <g id="patch_51">
    <path d="M 490.914576 174.112048 
L 508.979661 174.112048 
L 508.979661 174.087357 
L 490.914576 174.087357 
z
" clip-path="url(#p7f04fbd5f7)" style="fill: #167f99"/>
   </g>
   <g id="patch_52">
    <path d="M 515.001356 324.60348 
L 533.066441 324.60348 
L 533.066441 324.60348 
L 515.001356 324.60348 
z
" clip-path="url(#p7f04fbd5f7)" style="fill: #167f99"/>
   </g>
   <g id="patch_53">
    <path d="M 539.088136 324.60348 
L 557.15322 324.60348 
L 557.15322 324.60348 
L 539.088136 324.60348 
z
" clip-path="url(#p7f04fbd5f7)" style="fill: #167f99"/>
   </g>
   <g id="patch_54">
    <path d="M 563.174915 119.257291 
L 581.24 119.257291 
L 581.24 119.2326 
L 563.174915 119.2326 
z
" clip-path="url(#p7f04fbd5f7)" style="fill: #167f99"/>
   </g>
   <g id="patch_55">
    <path d="M 587.261695 324.60348 
L 605.32678 324.60348 
L 605.32678 324.60348 
L 587.261695 324.60348 
z
" clip-path="url(#p7f04fbd5f7)" style="fill: #167f99"/>
   </g>
   <g id="patch_56">
    <path d="M 611.348475 324.60348 
L 629.413559 324.60348 
L 629.413559 324.60348 
L 611.348475 324.60348 
z
" clip-path="url(#p7f04fbd5f7)" style="fill: #167f99"/>
   </g>
   <g id="patch_57">
    <path d="M 635.435254 151.331638 
L 653.500339 151.331638 
L 653.500339 151.306947 
L 635.435254 151.306947 
z
" clip-path="url(#p7f04fbd5f7)" style="fill: #167f99"/>
   </g>
   <g id="patch_58">
    <path d="M 659.522034 324.60348 
L 677.587119 324.60348 
L 677.587119 324.60348 
L 659.522034 324.60348 
z
" clip-path="url(#p7f04fbd5f7)" style="fill: #167f99"/>
   </g>
   <g id="patch_59">
    <path d="M 683.608814 324.60348 
L 701.673898 324.60348 
L 701.673898 324.60348 
L 683.608814 324.60348 
z
" clip-path="url(#p7f04fbd5f7)" style="fill: #167f99"/>
   </g>
   <g id="patch_60">
    <path d="M 707.695593 219.878096 
L 725.760678 219.878096 
L 725.760678 219.853405 
L 707.695593 219.853405 
z
" clip-path="url(#p7f04fbd5f7)" style="fill: #167f99"/>
   </g>
   <g id="patch_61">
    <path d="M 731.782373 324.60348 
L 749.847458 324.60348 
L 749.847458 324.60348 
L 731.782373 324.60348 
z
" clip-path="url(#p7f04fbd5f7)" style="fill: #167f99"/>
   </g>
   <g id="patch_62">
    <path d="M 755.869153 324.60348 
L 773.934237 324.60348 
L 773.934237 324.60348 
L 755.869153 324.60348 
z
" clip-path="url(#p7f04fbd5f7)" style="fill: #167f99"/>
   </g>
   <g id="patch_63">
    <path d="M 57.352542 310.492746 
L 75.417627 310.492746 
L 75.417627 310.492746 
L 57.352542 310.492746 
z
" clip-path="url(#p7f04fbd5f7)" style="fill: #a9d898"/>
   </g>
   <g id="patch_64">
    <path d="M 81.439322 324.60348 
L 99.504407 324.60348 
L 99.504407 173.538427 
L 81.439322 173.538427 
z
" clip-path="url(#p7f04fbd5f7)" style="fill: #a9d898"/>
   </g>
   <g id="patch_65">
    <path d="M 105.526102 324.60348 
L 123.591186 324.60348 
L 123.591186 324.60348 
L 105.526102 324.60348 
z
" clip-path="url(#p7f04fbd5f7)" style="fill: #a9d898"/>
   </g>
   <g id="patch_66">
    <path d="M 129.612881 315.078976 
L 147.677966 315.078976 
L 147.677966 315.078976 
L 129.612881 315.078976 
z
" clip-path="url(#p7f04fbd5f7)" style="fill: #a9d898"/>
   </g>
   <g id="patch_67">
    <path d="M 153.699661 324.60348 
L 171.764746 324.60348 
L 171.764746 200.881074 
L 153.699661 200.881074 
z
" clip-path="url(#p7f04fbd5f7)" style="fill: #a9d898"/>
   </g>
   <g id="patch_68">
    <path d="M 177.786441 324.60348 
L 195.851525 324.60348 
L 195.851525 324.60348 
L 177.786441 324.60348 
z
" clip-path="url(#p7f04fbd5f7)" style="fill: #a9d898"/>
   </g>
   <g id="patch_69">
    <path d="M 201.87322 287.904757 
L 219.938305 287.904757 
L 219.938305 287.904757 
L 201.87322 287.904757 
z
" clip-path="url(#p7f04fbd5f7)" style="fill: #a9d898"/>
   </g>
   <g id="patch_70">
    <path d="M 225.96 324.60348 
L 244.025085 324.60348 
L 244.025085 206.531361 
L 225.96 206.531361 
z
" clip-path="url(#p7f04fbd5f7)" style="fill: #a9d898"/>
   </g>
   <g id="patch_71">
    <path d="M 250.04678 324.60348 
L 268.111864 324.60348 
L 268.111864 324.60348 
L 250.04678 324.60348 
z
" clip-path="url(#p7f04fbd5f7)" style="fill: #a9d898"/>
   </g>
   <g id="patch_72">
    <path d="M 274.133559 233.548413 
L 292.198644 233.548413 
L 292.198644 233.548413 
L 274.133559 233.548413 
z
" clip-path="url(#p7f04fbd5f7)" style="fill: #a9d898"/>
   </g>
   <g id="patch_73">
    <path d="M 298.220339 324.60348 
L 316.285424 324.60348 
L 316.285424 206.531361 
L 298.220339 206.531361 
z
" clip-path="url(#p7f04fbd5f7)" style="fill: #a9d898"/>
   </g>
   <g id="patch_74">
    <path d="M 322.307119 324.60348 
L 340.372203 324.60348 
L 340.372203 324.60348 
L 322.307119 324.60348 
z
" clip-path="url(#p7f04fbd5f7)" style="fill: #a9d898"/>
   </g>
   <g id="patch_75">
    <path d="M 346.393898 241.724944 
L 364.458983 241.724944 
L 364.458983 241.724944 
L 346.393898 241.724944 
z
" clip-path="url(#p7f04fbd5f7)" style="fill: #a9d898"/>
   </g>
   <g id="patch_76">
    <path d="M 370.480678 324.60348 
L 388.545763 324.60348 
L 388.545763 188.270207 
L 370.480678 188.270207 
z
" clip-path="url(#p7f04fbd5f7)" style="fill: #a9d898"/>
   </g>
   <g id="patch_77">
    <path d="M 394.567458 324.60348 
L 412.632542 324.60348 
L 412.632542 324.60348 
L 394.567458 324.60348 
z
" clip-path="url(#p7f04fbd5f7)" style="fill: #a9d898"/>
   </g>
   <g id="patch_78">
    <path d="M 418.654237 230.173488 
L 436.719322 230.173488 
L 436.719322 230.173488 
L 418.654237 230.173488 
z
" clip-path="url(#p7f04fbd5f7)" style="fill: #a9d898"/>
   </g>
   <g id="patch_79">
    <path d="M 442.741017 324.60348 
L 460.806102 324.60348 
L 460.806102 188.270207 
L 442.741017 188.270207 
z
" clip-path="url(#p7f04fbd5f7)" style="fill: #a9d898"/>
   </g>
   <g id="patch_80">
    <path d="M 466.827797 324.60348 
L 484.892881 324.60348 
L 484.892881 324.60348 
L 466.827797 324.60348 
z
" clip-path="url(#p7f04fbd5f7)" style="fill: #a9d898"/>
   </g>
   <g id="patch_81">
    <path d="M 490.914576 174.087357 
L 508.979661 174.087357 
L 508.979661 174.087357 
L 490.914576 174.087357 
z
" clip-path="url(#p7f04fbd5f7)" style="fill: #a9d898"/>
   </g>
   <g id="patch_82">
    <path d="M 515.001356 324.60348 
L 533.066441 324.60348 
L 533.066441 188.270207 
L 515.001356 188.270207 
z
" clip-path="url(#p7f04fbd5f7)" style="fill: #a9d898"/>
   </g>
   <g id="patch_83">
    <path d="M 539.088136 324.60348 
L 557.15322 324.60348 
L 557.15322 324.60348 
L 539.088136 324.60348 
z
" clip-path="url(#p7f04fbd5f7)" style="fill: #a9d898"/>
   </g>
   <g id="patch_84">
    <path d="M 563.174915 119.2326 
L 581.24 119.2326 
L 581.24 119.2326 
L 563.174915 119.2326 
z
" clip-path="url(#p7f04fbd5f7)" style="fill: #a9d898"/>
   </g>
   <g id="patch_85">
    <path d="M 587.261695 324.60348 
L 605.32678 324.60348 
L 605.32678 188.270207 
L 587.261695 188.270207 
z
" clip-path="url(#p7f04fbd5f7)" style="fill: #a9d898"/>
   </g>
   <g id="patch_86">
    <path d="M 611.348475 324.60348 
L 629.413559 324.60348 
L 629.413559 324.60348 
L 611.348475 324.60348 
z
" clip-path="url(#p7f04fbd5f7)" style="fill: #a9d898"/>
   </g>
   <g id="patch_87">
    <path d="M 635.435254 151.306947 
L 653.500339 151.306947 
L 653.500339 151.306947 
L 635.435254 151.306947 
z
" clip-path="url(#p7f04fbd5f7)" style="fill: #a9d898"/>
   </g>
   <g id="patch_88">
    <path d="M 659.522034 324.60348 
L 677.587119 324.60348 
L 677.587119 188.270207 
L 659.522034 188.270207 
z
" clip-path="url(#p7f04fbd5f7)" style="fill: #a9d898"/>
   </g>
   <g id="patch_89">
    <path d="M 683.608814 324.60348 
L 701.673898 324.60348 
L 701.673898 324.60348 
L 683.608814 324.60348 
z
" clip-path="url(#p7f04fbd5f7)" style="fill: #a9d898"/>
   </g>
   <g id="patch_90">
    <path d="M 707.695593 219.853405 
L 725.760678 219.853405 
L 725.760678 219.853405 
L 707.695593 219.853405 
z
" clip-path="url(#p7f04fbd5f7)" style="fill: #a9d898"/>
   </g>
   <g id="patch_91">
    <path d="M 731.782373 324.60348 
L 749.847458 324.60348 
L 749.847458 188.270207 
L 731.782373 188.270207 
z
" clip-path="url(#p7f04fbd5f7)" style="fill: #a9d898"/>
   </g>
   <g id="patch_92">
    <path d="M 755.869153 324.60348 
L 773.934237 324.60348 
L 773.934237 324.60348 
L 755.869153 324.60348 
z
" clip-path="url(#p7f04fbd5f7)" style="fill: #a9d898"/>
   </g>
   <g id="patch_93">
    <path d="M 57.352542 310.492746 
L 75.417627 310.492746 
L 75.417627 310.492746 
L 57.352542 310.492746 
z
" clip-path="url(#p7f04fbd5f7)" style="fill: #6dd2ea"/>
   </g>
   <g id="patch_94">
    <path d="M 81.439322 173.538427 
L 99.504407 173.538427 
L 99.504407 164.288911 
L 81.439322 164.288911 
z
" clip-path="url(#p7f04fbd5f7)" style="fill: #6dd2ea"/>
   </g>
   <g id="patch_95">
    <path d="M 105.526102 324.60348 
L 123.591186 324.60348 
L 123.591186 324.60348 
L 105.526102 324.60348 
z
" clip-path="url(#p7f04fbd5f7)" style="fill: #6dd2ea"/>
   </g>
   <g id="patch_96">
    <path d="M 129.612881 315.078976 
L 147.677966 315.078976 
L 147.677966 315.078976 
L 129.612881 315.078976 
z
" clip-path="url(#p7f04fbd5f7)" style="fill: #6dd2ea"/>
   </g>
   <g id="patch_97">
    <path d="M 153.699661 200.881074 
L 171.764746 200.881074 
L 171.764746 191.803607 
L 153.699661 191.803607 
z
" clip-path="url(#p7f04fbd5f7)" style="fill: #6dd2ea"/>
   </g>
   <g id="patch_98">
    <path d="M 177.786441 324.60348 
L 195.851525 324.60348 
L 195.851525 324.60348 
L 177.786441 324.60348 
z
" clip-path="url(#p7f04fbd5f7)" style="fill: #6dd2ea"/>
   </g>
   <g id="patch_99">
    <path d="M 201.87322 287.904757 
L 219.938305 287.904757 
L 219.938305 287.904757 
L 201.87322 287.904757 
z
" clip-path="url(#p7f04fbd5f7)" style="fill: #6dd2ea"/>
   </g>
   <g id="patch_100">
    <path d="M 225.96 206.531361 
L 244.025085 206.531361 
L 244.025085 195.751678 
L 225.96 195.751678 
z
" clip-path="url(#p7f04fbd5f7)" style="fill: #6dd2ea"/>
   </g>
   <g id="patch_101">
    <path d="M 250.04678 324.60348 
L 268.111864 324.60348 
L 268.111864 324.60348 
L 250.04678 324.60348 
z
" clip-path="url(#p7f04fbd5f7)" style="fill: #6dd2ea"/>
   </g>
   <g id="patch_102">
    <path d="M 274.133559 233.548413 
L 292.198644 233.548413 
L 292.198644 233.548413 
L 274.133559 233.548413 
z
" clip-path="url(#p7f04fbd5f7)" style="fill: #6dd2ea"/>
   </g>
   <g id="patch_103">
    <path d="M 298.220339 206.531361 
L 316.285424 206.531361 
L 316.285424 195.751678 
L 298.220339 195.751678 
z
" clip-path="url(#p7f04fbd5f7)" style="fill: #6dd2ea"/>
   </g>
   <g id="patch_104">
    <path d="M 322.307119 324.60348 
L 340.372203 324.60348 
L 340.372203 324.60348 
L 322.307119 324.60348 
z
" clip-path="url(#p7f04fbd5f7)" style="fill: #6dd2ea"/>
   </g>
   <g id="patch_105">
    <path d="M 346.393898 241.724944 
L 364.458983 241.724944 
L 364.458983 241.724944 
L 346.393898 241.724944 
z
" clip-path="url(#p7f04fbd5f7)" style="fill: #6dd2ea"/>
   </g>
   <g id="patch_106">
    <path d="M 370.480678 188.270207 
L 388.545763 188.270207 
L 388.545763 175.823327 
L 370.480678 175.823327 
z
" clip-path="url(#p7f04fbd5f7)" style="fill: #6dd2ea"/>
   </g>
   <g id="patch_107">
    <path d="M 394.567458 324.60348 
L 412.632542 324.60348 
L 412.632542 324.60348 
L 394.567458 324.60348 
z
" clip-path="url(#p7f04fbd5f7)" style="fill: #6dd2ea"/>
   </g>
   <g id="patch_108">
    <path d="M 418.654237 230.173488 
L 436.719322 230.173488 
L 436.719322 230.173488 
L 418.654237 230.173488 
z
" clip-path="url(#p7f04fbd5f7)" style="fill: #6dd2ea"/>
   </g>
   <g id="patch_109">
    <path d="M 442.741017 188.270207 
L 460.806102 188.270207 
L 460.806102 175.823327 
L 442.741017 175.823327 
z
" clip-path="url(#p7f04fbd5f7)" style="fill: #6dd2ea"/>
   </g>
   <g id="patch_110">
    <path d="M 466.827797 324.60348 
L 484.892881 324.60348 
L 484.892881 324.60348 
L 466.827797 324.60348 
z
" clip-path="url(#p7f04fbd5f7)" style="fill: #6dd2ea"/>
   </g>
   <g id="patch_111">
    <path d="M 490.914576 174.087357 
L 508.979661 174.087357 
L 508.979661 174.087357 
L 490.914576 174.087357 
z
" clip-path="url(#p7f04fbd5f7)" style="fill: #6dd2ea"/>
   </g>
   <g id="patch_112">
    <path d="M 515.001356 188.270207 
L 533.066441 188.270207 
L 533.066441 175.823327 
L 515.001356 175.823327 
z
" clip-path="url(#p7f04fbd5f7)" style="fill: #6dd2ea"/>
   </g>
   <g id="patch_113">
    <path d="M 539.088136 324.60348 
L 557.15322 324.60348 
L 557.15322 324.60348 
L 539.088136 324.60348 
z
" clip-path="url(#p7f04fbd5f7)" style="fill: #6dd2ea"/>
   </g>
   <g id="patch_114">
    <path d="M 563.174915 119.2326 
L 581.24 119.2326 
L 581.24 119.2326 
L 563.174915 119.2326 
z
" clip-path="url(#p7f04fbd5f7)" style="fill: #6dd2ea"/>
   </g>
   <g id="patch_115">
    <path d="M 587.261695 188.270207 
L 605.32678 188.270207 
L 605.32678 175.823327 
L 587.261695 175.823327 
z
" clip-path="url(#p7f04fbd5f7)" style="fill: #6dd2ea"/>
   </g>
   <g id="patch_116">
    <path d="M 611.348475 324.60348 
L 629.413559 324.60348 
L 629.413559 324.60348 
L 611.348475 324.60348 
z
" clip-path="url(#p7f04fbd5f7)" style="fill: #6dd2ea"/>
   </g>
   <g id="patch_117">
    <path d="M 635.435254 151.306947 
L 653.500339 151.306947 
L 653.500339 151.306947 
L 635.435254 151.306947 
z
" clip-path="url(#p7f04fbd5f7)" style="fill: #6dd2ea"/>
   </g>
   <g id="patch_118">
    <path d="M 659.522034 188.270207 
L 677.587119 188.270207 
L 677.587119 175.823327 
L 659.522034 175.823327 
z
" clip-path="url(#p7f04fbd5f7)" style="fill: #6dd2ea"/>
   </g>
   <g id="patch_119">
    <path d="M 683.608814 324.60348 
L 701.673898 324.60348 
L 701.673898 324.60348 
L 683.608814 324.60348 
z
" clip-path="url(#p7f04fbd5f7)" style="fill: #6dd2ea"/>
   </g>
   <g id="patch_120">
    <path d="M 707.695593 219.853405 
L 725.760678 219.853405 
L 725.760678 219.853405 
L 707.695593 219.853405 
z
" clip-path="url(#p7f04fbd5f7)" style="fill: #6dd2ea"/>
   </g>
   <g id="patch_121">
    <path d="M 731.782373 188.270207 
L 749.847458 188.270207 
L 749.847458 175.823327 
L 731.782373 175.823327 
z
" clip-path="url(#p7f04fbd5f7)" style="fill: #6dd2ea"/>
   </g>
   <g id="patch_122">
    <path d="M 755.869153 324.60348 
L 773.934237 324.60348 
L 773.934237 324.60348 
L 755.869153 324.60348 
z
" clip-path="url(#p7f04fbd5f7)" style="fill: #6dd2ea"/>
   </g>
   <g id="patch_123">
    <path d="M 57.352542 310.492746 
L 75.417627 310.492746 
L 75.417627 306.100219 
L 57.352542 306.100219 
z
" clip-path="url(#p7f04fbd5f7)" style="fill: #fb7b71"/>
   </g>
   <g id="patch_124">
    <path d="M 81.439322 164.288911 
L 99.504407 164.288911 
L 99.504407 162.082322 
L 81.439322 162.082322 
z
" clip-path="url(#p7f04fbd5f7)" style="fill: #fb7b71"/>
   </g>
   <g id="patch_125">
    <path d="M 105.526102 324.60348 
L 123.591186 324.60348 
L 123.591186 324.60348 
L 105.526102 324.60348 
z
" clip-path="url(#p7f04fbd5f7)" style="fill: #fb7b71"/>
   </g>
   <g id="patch_126">
    <path d="M 129.612881 315.078976 
L 147.677966 315.078976 
L 147.677966 311.532328 
L 129.612881 311.532328 
z
" clip-path="url(#p7f04fbd5f7)" style="fill: #fb7b71"/>
   </g>
   <g id="patch_127">
    <path d="M 153.699661 191.803607 
L 171.764746 191.803607 
L 171.764746 190.021946 
L 153.699661 190.021946 
z
" clip-path="url(#p7f04fbd5f7)" style="fill: #fb7b71"/>
   </g>
   <g id="patch_128">
    <path d="M 177.786441 324.60348 
L 195.851525 324.60348 
L 195.851525 324.60348 
L 177.786441 324.60348 
z
" clip-path="url(#p7f04fbd5f7)" style="fill: #fb7b71"/>
   </g>
   <g id="patch_129">
    <path d="M 201.87322 287.904757 
L 219.938305 287.904757 
L 219.938305 278.432397 
L 201.87322 278.432397 
z
" clip-path="url(#p7f04fbd5f7)" style="fill: #fb7b71"/>
   </g>
   <g id="patch_130">
    <path d="M 225.96 195.751678 
L 244.025085 195.751678 
L 244.025085 190.993233 
L 225.96 190.993233 
z
" clip-path="url(#p7f04fbd5f7)" style="fill: #fb7b71"/>
   </g>
   <g id="patch_131">
    <path d="M 250.04678 324.60348 
L 268.111864 324.60348 
L 268.111864 324.60348 
L 250.04678 324.60348 
z
" clip-path="url(#p7f04fbd5f7)" style="fill: #fb7b71"/>
   </g>
   <g id="patch_132">
    <path d="M 274.133559 233.548413 
L 292.198644 233.548413 
L 292.198644 217.28844 
L 274.133559 217.28844 
z
" clip-path="url(#p7f04fbd5f7)" style="fill: #fb7b71"/>
   </g>
   <g id="patch_133">
    <path d="M 298.220339 195.751678 
L 316.285424 195.751678 
L 316.285424 187.583472 
L 298.220339 187.583472 
z
" clip-path="url(#p7f04fbd5f7)" style="fill: #fb7b71"/>
   </g>
   <g id="patch_134">
    <path d="M 322.307119 324.60348 
L 340.372203 324.60348 
L 340.372203 324.60348 
L 322.307119 324.60348 
z
" clip-path="url(#p7f04fbd5f7)" style="fill: #fb7b71"/>
   </g>
   <g id="patch_135">
    <path d="M 346.393898 241.724944 
L 364.458983 241.724944 
L 364.458983 222.163803 
L 346.393898 222.163803 
z
" clip-path="url(#p7f04fbd5f7)" style="fill: #fb7b71"/>
   </g>
   <g id="patch_136">
    <path d="M 370.480678 175.823327 
L 388.545763 175.823327 
L 388.545763 165.996778 
L 370.480678 165.996778 
z
" clip-path="url(#p7f04fbd5f7)" style="fill: #fb7b71"/>
   </g>
   <g id="patch_137">
    <path d="M 394.567458 324.60348 
L 412.632542 324.60348 
L 412.632542 324.60348 
L 394.567458 324.60348 
z
" clip-path="url(#p7f04fbd5f7)" style="fill: #fb7b71"/>
   </g>
   <g id="patch_138">
    <path d="M 418.654237 230.173488 
L 436.719322 230.173488 
L 436.719322 210.83025 
L 418.654237 210.83025 
z
" clip-path="url(#p7f04fbd5f7)" style="fill: #fb7b71"/>
   </g>
   <g id="patch_139">
    <path d="M 442.741017 175.823327 
L 460.806102 175.823327 
L 460.806102 166.106241 
L 442.741017 166.106241 
z
" clip-path="url(#p7f04fbd5f7)" style="fill: #fb7b71"/>
   </g>
   <g id="patch_140">
    <path d="M 466.827797 324.60348 
L 484.892881 324.60348 
L 484.892881 324.60348 
L 466.827797 324.60348 
z
" clip-path="url(#p7f04fbd5f7)" style="fill: #fb7b71"/>
   </g>
   <g id="patch_141">
    <path d="M 490.914576 174.087357 
L 508.979661 174.087357 
L 508.979661 137.351518 
L 490.914576 137.351518 
z
" clip-path="url(#p7f04fbd5f7)" style="fill: #fb7b71"/>
   </g>
   <g id="patch_142">
    <path d="M 515.001356 175.823327 
L 533.066441 175.823327 
L 533.066441 157.369059 
L 515.001356 157.369059 
z
" clip-path="url(#p7f04fbd5f7)" style="fill: #fb7b71"/>
   </g>
   <g id="patch_143">
    <path d="M 539.088136 324.60348 
L 557.15322 324.60348 
L 557.15322 324.60348 
L 539.088136 324.60348 
z
" clip-path="url(#p7f04fbd5f7)" style="fill: #fb7b71"/>
   </g>
   <g id="patch_144">
    <path d="M 563.174915 119.2326 
L 581.24 119.2326 
L 581.24 64.541342 
L 563.174915 64.541342 
z
" clip-path="url(#p7f04fbd5f7)" style="fill: #fb7b71"/>
   </g>
   <g id="patch_145">
    <path d="M 587.261695 175.823327 
L 605.32678 175.823327 
L 605.32678 148.349145 
L 587.261695 148.349145 
z
" clip-path="url(#p7f04fbd5f7)" style="fill: #fb7b71"/>
   </g>
   <g id="patch_146">
    <path d="M 611.348475 324.60348 
L 629.413559 324.60348 
L 629.413559 324.60348 
L 611.348475 324.60348 
z
" clip-path="url(#p7f04fbd5f7)" style="fill: #fb7b71"/>
   </g>
   <g id="patch_147">
    <path d="M 635.435254 151.306947 
L 653.500339 151.306947 
L 653.500339 109.336782 
L 635.435254 109.336782 
z
" clip-path="url(#p7f04fbd5f7)" style="fill: #fb7b71"/>
   </g>
   <g id="patch_148">
    <path d="M 659.522034 175.823327 
L 677.587119 175.823327 
L 677.587119 154.739592 
L 659.522034 154.739592 
z
" clip-path="url(#p7f04fbd5f7)" style="fill: #fb7b71"/>
   </g>
   <g id="patch_149">
    <path d="M 683.608814 324.60348 
L 701.673898 324.60348 
L 701.673898 324.60348 
L 683.608814 324.60348 
z
" clip-path="url(#p7f04fbd5f7)" style="fill: #fb7b71"/>
   </g>
   <g id="patch_150">
    <path d="M 707.695593 219.853405 
L 725.760678 219.853405 
L 725.760678 199.409001 
L 707.695593 199.409001 
z
" clip-path="url(#p7f04fbd5f7)" style="fill: #fb7b71"/>
   </g>
   <g id="patch_151">
    <path d="M 731.782373 175.823327 
L 749.847458 175.823327 
L 749.847458 165.55307 
L 731.782373 165.55307 
z
" clip-path="url(#p7f04fbd5f7)" style="fill: #fb7b71"/>
   </g>
   <g id="patch_152">
    <path d="M 755.869153 324.60348 
L 773.934237 324.60348 
L 773.934237 324.60348 
L 755.869153 324.60348 
z
" clip-path="url(#p7f04fbd5f7)" style="fill: #fb7b71"/>
   </g>
   <g id="patch_153">
    <path d="M 57.352542 306.100219 
L 75.417627 306.100219 
L 75.417627 299.791682 
L 57.352542 299.791682 
z
" clip-path="url(#p7f04fbd5f7)" style="fill: #b71205"/>
   </g>
   <g id="patch_154">
    <path d="M 81.439322 162.082322 
L 99.504407 162.082322 
L 99.504407 161.914838 
L 81.439322 161.914838 
z
" clip-path="url(#p7f04fbd5f7)" style="fill: #b71205"/>
   </g>
   <g id="patch_155">
    <path d="M 105.526102 324.60348 
L 123.591186 324.60348 
L 123.591186 324.60348 
L 105.526102 324.60348 
z
" clip-path="url(#p7f04fbd5f7)" style="fill: #b71205"/>
   </g>
   <g id="patch_156">
    <path d="M 129.612881 311.532328 
L 147.677966 311.532328 
L 147.677966 305.341135 
L 129.612881 305.341135 
z
" clip-path="url(#p7f04fbd5f7)" style="fill: #b71205"/>
   </g>
   <g id="patch_157">
    <path d="M 153.699661 190.021946 
L 171.764746 190.021946 
L 171.764746 189.857577 
L 153.699661 189.857577 
z
" clip-path="url(#p7f04fbd5f7)" style="fill: #b71205"/>
   </g>
   <g id="patch_158">
    <path d="M 177.786441 324.60348 
L 195.851525 324.60348 
L 195.851525 324.60348 
L 177.786441 324.60348 
z
" clip-path="url(#p7f04fbd5f7)" style="fill: #b71205"/>
   </g>
   <g id="patch_159">
    <path d="M 201.87322 278.432397 
L 219.938305 278.432397 
L 219.938305 271.080225 
L 201.87322 271.080225 
z
" clip-path="url(#p7f04fbd5f7)" style="fill: #b71205"/>
   </g>
   <g id="patch_160">
    <path d="M 225.96 190.993233 
L 244.025085 190.993233 
L 244.025085 190.798042 
L 225.96 190.798042 
z
" clip-path="url(#p7f04fbd5f7)" style="fill: #b71205"/>
   </g>
   <g id="patch_161">
    <path d="M 250.04678 324.60348 
L 268.111864 324.60348 
L 268.111864 324.60348 
L 250.04678 324.60348 
z
" clip-path="url(#p7f04fbd5f7)" style="fill: #b71205"/>
   </g>
   <g id="patch_162">
    <path d="M 274.133559 217.28844 
L 292.198644 217.28844 
L 292.198644 209.936269 
L 274.133559 209.936269 
z
" clip-path="url(#p7f04fbd5f7)" style="fill: #b71205"/>
   </g>
   <g id="patch_163">
    <path d="M 298.220339 187.583472 
L 316.285424 187.583472 
L 316.285424 187.388281 
L 298.220339 187.388281 
z
" clip-path="url(#p7f04fbd5f7)" style="fill: #b71205"/>
   </g>
   <g id="patch_164">
    <path d="M 322.307119 324.60348 
L 340.372203 324.60348 
L 340.372203 324.60348 
L 322.307119 324.60348 
z
" clip-path="url(#p7f04fbd5f7)" style="fill: #b71205"/>
   </g>
   <g id="patch_165">
    <path d="M 346.393898 222.163803 
L 364.458983 222.163803 
L 364.458983 213.674537 
L 346.393898 213.674537 
z
" clip-path="url(#p7f04fbd5f7)" style="fill: #b71205"/>
   </g>
   <g id="patch_166">
    <path d="M 370.480678 165.996778 
L 388.545763 165.996778 
L 388.545763 165.771398 
L 370.480678 165.771398 
z
" clip-path="url(#p7f04fbd5f7)" style="fill: #b71205"/>
   </g>
   <g id="patch_167">
    <path d="M 394.567458 324.60348 
L 412.632542 324.60348 
L 412.632542 324.60348 
L 394.567458 324.60348 
z
" clip-path="url(#p7f04fbd5f7)" style="fill: #b71205"/>
   </g>
   <g id="patch_168">
    <path d="M 418.654237 210.83025 
L 436.719322 210.83025 
L 436.719322 202.340984 
L 418.654237 202.340984 
z
" clip-path="url(#p7f04fbd5f7)" style="fill: #b71205"/>
   </g>
   <g id="patch_169">
    <path d="M 442.741017 166.106241 
L 460.806102 166.106241 
L 460.806102 165.880862 
L 442.741017 165.880862 
z
" clip-path="url(#p7f04fbd5f7)" style="fill: #b71205"/>
   </g>
   <g id="patch_170">
    <path d="M 466.827797 324.60348 
L 484.892881 324.60348 
L 484.892881 324.60348 
L 466.827797 324.60348 
z
" clip-path="url(#p7f04fbd5f7)" style="fill: #b71205"/>
   </g>
   <g id="patch_171">
    <path d="M 490.914576 137.351518 
L 508.979661 137.351518 
L 508.979661 128.862252 
L 490.914576 128.862252 
z
" clip-path="url(#p7f04fbd5f7)" style="fill: #b71205"/>
   </g>
   <g id="patch_172">
    <path d="M 515.001356 157.369059 
L 533.066441 157.369059 
L 533.066441 157.143679 
L 515.001356 157.143679 
z
" clip-path="url(#p7f04fbd5f7)" style="fill: #b71205"/>
   </g>
   <g id="patch_173">
    <path d="M 539.088136 324.60348 
L 557.15322 324.60348 
L 557.15322 324.60348 
L 539.088136 324.60348 
z
" clip-path="url(#p7f04fbd5f7)" style="fill: #b71205"/>
   </g>
   <g id="patch_174">
    <path d="M 563.174915 64.541342 
L 581.24 64.541342 
L 581.24 56.052076 
L 563.174915 56.052076 
z
" clip-path="url(#p7f04fbd5f7)" style="fill: #b71205"/>
   </g>
   <g id="patch_175">
    <path d="M 587.261695 148.349145 
L 605.32678 148.349145 
L 605.32678 148.123765 
L 587.261695 148.123765 
z
" clip-path="url(#p7f04fbd5f7)" style="fill: #b71205"/>
   </g>
   <g id="patch_176">
    <path d="M 611.348475 324.60348 
L 629.413559 324.60348 
L 629.413559 324.60348 
L 611.348475 324.60348 
z
" clip-path="url(#p7f04fbd5f7)" style="fill: #b71205"/>
   </g>
   <g id="patch_177">
    <path d="M 635.435254 109.336782 
L 653.500339 109.336782 
L 653.500339 100.847516 
L 635.435254 100.847516 
z
" clip-path="url(#p7f04fbd5f7)" style="fill: #b71205"/>
   </g>
   <g id="patch_178">
    <path d="M 659.522034 154.739592 
L 677.587119 154.739592 
L 677.587119 154.514213 
L 659.522034 154.514213 
z
" clip-path="url(#p7f04fbd5f7)" style="fill: #b71205"/>
   </g>
   <g id="patch_179">
    <path d="M 683.608814 324.60348 
L 701.673898 324.60348 
L 701.673898 324.60348 
L 683.608814 324.60348 
z
" clip-path="url(#p7f04fbd5f7)" style="fill: #b71205"/>
   </g>
   <g id="patch_180">
    <path d="M 707.695593 199.409001 
L 725.760678 199.409001 
L 725.760678 190.919735 
L 707.695593 190.919735 
z
" clip-path="url(#p7f04fbd5f7)" style="fill: #b71205"/>
   </g>
   <g id="patch_181">
    <path d="M 731.782373 165.55307 
L 749.847458 165.55307 
L 749.847458 165.32769 
L 731.782373 165.32769 
z
" clip-path="url(#p7f04fbd5f7)" style="fill: #b71205"/>
   </g>
   <g id="patch_182">
    <path d="M 755.869153 324.60348 
L 773.934237 324.60348 
L 773.934237 324.60348 
L 755.869153 324.60348 
z
" clip-path="url(#p7f04fbd5f7)" style="fill: #b71205"/>
   </g>
   <g id="patch_183">
    <path d="M 57.352542 299.791682 
L 75.417627 299.791682 
L 75.417627 291.295745 
L 57.352542 291.295745 
z
" clip-path="url(#p7f04fbd5f7)" style="fill: #52318e"/>
   </g>
   <g id="patch_184">
    <path d="M 81.439322 161.914838 
L 99.504407 161.914838 
L 99.504407 155.79399 
L 81.439322 155.79399 
z
" clip-path="url(#p7f04fbd5f7)" style="fill: #52318e"/>
   </g>
   <g id="patch_185">
    <path d="M 105.526102 324.60348 
L 123.591186 324.60348 
L 123.591186 324.60348 
L 105.526102 324.60348 
z
" clip-path="url(#p7f04fbd5f7)" style="fill: #52318e"/>
   </g>
   <g id="patch_186">
    <path d="M 129.612881 305.341135 
L 147.677966 305.341135 
L 147.677966 297.003228 
L 129.612881 297.003228 
z
" clip-path="url(#p7f04fbd5f7)" style="fill: #52318e"/>
   </g>
   <g id="patch_187">
    <path d="M 153.699661 189.857577 
L 171.764746 189.857577 
L 171.764746 183.850581 
L 153.699661 183.850581 
z
" clip-path="url(#p7f04fbd5f7)" style="fill: #52318e"/>
   </g>
   <g id="patch_188">
    <path d="M 177.786441 324.60348 
L 195.851525 324.60348 
L 195.851525 324.60348 
L 177.786441 324.60348 
z
" clip-path="url(#p7f04fbd5f7)" style="fill: #52318e"/>
   </g>
   <g id="patch_189">
    <path d="M 201.87322 271.080225 
L 219.938305 271.080225 
L 219.938305 261.178787 
L 201.87322 261.178787 
z
" clip-path="url(#p7f04fbd5f7)" style="fill: #52318e"/>
   </g>
   <g id="patch_190">
    <path d="M 225.96 190.798042 
L 244.025085 190.798042 
L 244.025085 183.664608 
L 225.96 183.664608 
z
" clip-path="url(#p7f04fbd5f7)" style="fill: #52318e"/>
   </g>
   <g id="patch_191">
    <path d="M 250.04678 324.60348 
L 268.111864 324.60348 
L 268.111864 324.60348 
L 250.04678 324.60348 
z
" clip-path="url(#p7f04fbd5f7)" style="fill: #52318e"/>
   </g>
   <g id="patch_192">
    <path d="M 274.133559 209.936269 
L 292.198644 209.936269 
L 292.198644 200.03483 
L 274.133559 200.03483 
z
" clip-path="url(#p7f04fbd5f7)" style="fill: #52318e"/>
   </g>
   <g id="patch_193">
    <path d="M 298.220339 187.388281 
L 316.285424 187.388281 
L 316.285424 180.254847 
L 298.220339 180.254847 
z
" clip-path="url(#p7f04fbd5f7)" style="fill: #52318e"/>
   </g>
   <g id="patch_194">
    <path d="M 322.307119 324.60348 
L 340.372203 324.60348 
L 340.372203 324.60348 
L 322.307119 324.60348 
z
" clip-path="url(#p7f04fbd5f7)" style="fill: #52318e"/>
   </g>
   <g id="patch_195">
    <path d="M 346.393898 213.674537 
L 364.458983 213.674537 
L 364.458983 202.241732 
L 346.393898 202.241732 
z
" clip-path="url(#p7f04fbd5f7)" style="fill: #52318e"/>
   </g>
   <g id="patch_196">
    <path d="M 370.480678 165.771398 
L 388.545763 165.771398 
L 388.545763 157.534701 
L 370.480678 157.534701 
z
" clip-path="url(#p7f04fbd5f7)" style="fill: #52318e"/>
   </g>
   <g id="patch_197">
    <path d="M 394.567458 324.60348 
L 412.632542 324.60348 
L 412.632542 324.60348 
L 394.567458 324.60348 
z
" clip-path="url(#p7f04fbd5f7)" style="fill: #52318e"/>
   </g>
   <g id="patch_198">
    <path d="M 418.654237 202.340984 
L 436.719322 202.340984 
L 436.719322 190.908179 
L 418.654237 190.908179 
z
" clip-path="url(#p7f04fbd5f7)" style="fill: #52318e"/>
   </g>
   <g id="patch_199">
    <path d="M 442.741017 165.880862 
L 460.806102 165.880862 
L 460.806102 157.644164 
L 442.741017 157.644164 
z
" clip-path="url(#p7f04fbd5f7)" style="fill: #52318e"/>
   </g>
   <g id="patch_200">
    <path d="M 466.827797 324.60348 
L 484.892881 324.60348 
L 484.892881 324.60348 
L 466.827797 324.60348 
z
" clip-path="url(#p7f04fbd5f7)" style="fill: #52318e"/>
   </g>
   <g id="patch_201">
    <path d="M 490.914576 128.862252 
L 508.979661 128.862252 
L 508.979661 117.429447 
L 490.914576 117.429447 
z
" clip-path="url(#p7f04fbd5f7)" style="fill: #52318e"/>
   </g>
   <g id="patch_202">
    <path d="M 515.001356 157.143679 
L 533.066441 157.143679 
L 533.066441 148.906982 
L 515.001356 148.906982 
z
" clip-path="url(#p7f04fbd5f7)" style="fill: #52318e"/>
   </g>
   <g id="patch_203">
    <path d="M 539.088136 324.60348 
L 557.15322 324.60348 
L 557.15322 324.60348 
L 539.088136 324.60348 
z
" clip-path="url(#p7f04fbd5f7)" style="fill: #52318e"/>
   </g>
   <g id="patch_204">
    <path d="M 563.174915 56.052076 
L 581.24 56.052076 
L 581.24 44.619271 
L 563.174915 44.619271 
z
" clip-path="url(#p7f04fbd5f7)" style="fill: #52318e"/>
   </g>
   <g id="patch_205">
    <path d="M 587.261695 148.123765 
L 605.32678 148.123765 
L 605.32678 139.887068 
L 587.261695 139.887068 
z
" clip-path="url(#p7f04fbd5f7)" style="fill: #52318e"/>
   </g>
   <g id="patch_206">
    <path d="M 611.348475 324.60348 
L 629.413559 324.60348 
L 629.413559 324.60348 
L 611.348475 324.60348 
z
" clip-path="url(#p7f04fbd5f7)" style="fill: #52318e"/>
   </g>
   <g id="patch_207">
    <path d="M 635.435254 100.847516 
L 653.500339 100.847516 
L 653.500339 89.414711 
L 635.435254 89.414711 
z
" clip-path="url(#p7f04fbd5f7)" style="fill: #52318e"/>
   </g>
   <g id="patch_208">
    <path d="M 659.522034 154.514213 
L 677.587119 154.514213 
L 677.587119 146.277515 
L 659.522034 146.277515 
z
" clip-path="url(#p7f04fbd5f7)" style="fill: #52318e"/>
   </g>
   <g id="patch_209">
    <path d="M 683.608814 324.60348 
L 701.673898 324.60348 
L 701.673898 324.60348 
L 683.608814 324.60348 
z
" clip-path="url(#p7f04fbd5f7)" style="fill: #52318e"/>
   </g>
   <g id="patch_210">
    <path d="M 707.695593 190.919735 
L 725.760678 190.919735 
L 725.760678 179.48693 
L 707.695593 179.48693 
z
" clip-path="url(#p7f04fbd5f7)" style="fill: #52318e"/>
   </g>
   <g id="patch_211">
    <path d="M 731.782373 165.32769 
L 749.847458 165.32769 
L 749.847458 157.090993 
L 731.782373 157.090993 
z
" clip-path="url(#p7f04fbd5f7)" style="fill: #52318e"/>
   </g>
   <g id="patch_212">
    <path d="M 755.869153 324.60348 
L 773.934237 324.60348 
L 773.934237 324.60348 
L 755.869153 324.60348 
z
" clip-path="url(#p7f04fbd5f7)" style="fill: #52318e"/>
   </g>
   <g id="patch_213">
    <path d="M 57.352542 291.295745 
L 75.417627 291.295745 
L 75.417627 274.720603 
L 57.352542 274.720603 
z
" clip-path="url(#p7f04fbd5f7)" style="fill: #a78dd8"/>
   </g>
   <g id="patch_214">
    <path d="M 81.439322 155.79399 
L 99.504407 155.79399 
L 99.504407 145.837008 
L 81.439322 145.837008 
z
" clip-path="url(#p7f04fbd5f7)" style="fill: #a78dd8"/>
   </g>
   <g id="patch_215">
    <path d="M 105.526102 324.60348 
L 123.591186 324.60348 
L 123.591186 324.60348 
L 105.526102 324.60348 
z
" clip-path="url(#p7f04fbd5f7)" style="fill: #a78dd8"/>
   </g>
   <g id="patch_216">
    <path d="M 129.612881 297.003228 
L 147.677966 297.003228 
L 147.677966 280.736399 
L 129.612881 280.736399 
z
" clip-path="url(#p7f04fbd5f7)" style="fill: #a78dd8"/>
   </g>
   <g id="patch_217">
    <path d="M 153.699661 183.850581 
L 171.764746 183.850581 
L 171.764746 174.078807 
L 153.699661 174.078807 
z
" clip-path="url(#p7f04fbd5f7)" style="fill: #a78dd8"/>
   </g>
   <g id="patch_218">
    <path d="M 177.786441 324.60348 
L 195.851525 324.60348 
L 195.851525 324.60348 
L 177.786441 324.60348 
z
" clip-path="url(#p7f04fbd5f7)" style="fill: #a78dd8"/>
   </g>
   <g id="patch_219">
    <path d="M 201.87322 261.178787 
L 219.938305 261.178787 
L 219.938305 241.861585 
L 201.87322 241.861585 
z
" clip-path="url(#p7f04fbd5f7)" style="fill: #a78dd8"/>
   </g>
   <g id="patch_220">
    <path d="M 225.96 183.664608 
L 244.025085 183.664608 
L 244.025085 172.060421 
L 225.96 172.060421 
z
" clip-path="url(#p7f04fbd5f7)" style="fill: #a78dd8"/>
   </g>
   <g id="patch_221">
    <path d="M 250.04678 324.60348 
L 268.111864 324.60348 
L 268.111864 324.60348 
L 250.04678 324.60348 
z
" clip-path="url(#p7f04fbd5f7)" style="fill: #a78dd8"/>
   </g>
   <g id="patch_222">
    <path d="M 274.133559 200.03483 
L 292.198644 200.03483 
L 292.198644 180.717629 
L 274.133559 180.717629 
z
" clip-path="url(#p7f04fbd5f7)" style="fill: #a78dd8"/>
   </g>
   <g id="patch_223">
    <path d="M 298.220339 180.254847 
L 316.285424 180.254847 
L 316.285424 168.650661 
L 298.220339 168.650661 
z
" clip-path="url(#p7f04fbd5f7)" style="fill: #a78dd8"/>
   </g>
   <g id="patch_224">
    <path d="M 322.307119 324.60348 
L 340.372203 324.60348 
L 340.372203 324.60348 
L 322.307119 324.60348 
z
" clip-path="url(#p7f04fbd5f7)" style="fill: #a78dd8"/>
   </g>
   <g id="patch_225">
    <path d="M 346.393898 202.241732 
L 364.458983 202.241732 
L 364.458983 179.936913 
L 346.393898 179.936913 
z
" clip-path="url(#p7f04fbd5f7)" style="fill: #a78dd8"/>
   </g>
   <g id="patch_226">
    <path d="M 370.480678 157.534701 
L 388.545763 157.534701 
L 388.545763 144.135799 
L 370.480678 144.135799 
z
" clip-path="url(#p7f04fbd5f7)" style="fill: #a78dd8"/>
   </g>
   <g id="patch_227">
    <path d="M 394.567458 324.60348 
L 412.632542 324.60348 
L 412.632542 324.60348 
L 394.567458 324.60348 
z
" clip-path="url(#p7f04fbd5f7)" style="fill: #a78dd8"/>
   </g>
   <g id="patch_228">
    <path d="M 418.654237 190.908179 
L 436.719322 190.908179 
L 436.719322 168.603359 
L 418.654237 168.603359 
z
" clip-path="url(#p7f04fbd5f7)" style="fill: #a78dd8"/>
   </g>
   <g id="patch_229">
    <path d="M 442.741017 157.644164 
L 460.806102 157.644164 
L 460.806102 144.245262 
L 442.741017 144.245262 
z
" clip-path="url(#p7f04fbd5f7)" style="fill: #a78dd8"/>
   </g>
   <g id="patch_230">
    <path d="M 466.827797 324.60348 
L 484.892881 324.60348 
L 484.892881 324.60348 
L 466.827797 324.60348 
z
" clip-path="url(#p7f04fbd5f7)" style="fill: #a78dd8"/>
   </g>
   <g id="patch_231">
    <path d="M 490.914576 117.429447 
L 508.979661 117.429447 
L 508.979661 95.124628 
L 490.914576 95.124628 
z
" clip-path="url(#p7f04fbd5f7)" style="fill: #a78dd8"/>
   </g>
   <g id="patch_232">
    <path d="M 515.001356 148.906982 
L 533.066441 148.906982 
L 533.066441 135.50808 
L 515.001356 135.50808 
z
" clip-path="url(#p7f04fbd5f7)" style="fill: #a78dd8"/>
   </g>
   <g id="patch_233">
    <path d="M 539.088136 324.60348 
L 557.15322 324.60348 
L 557.15322 324.60348 
L 539.088136 324.60348 
z
" clip-path="url(#p7f04fbd5f7)" style="fill: #a78dd8"/>
   </g>
   <g id="patch_234">
    <path d="M 563.174915 44.619271 
L 581.24 44.619271 
L 581.24 22.314451 
L 563.174915 22.314451 
z
" clip-path="url(#p7f04fbd5f7)" style="fill: #a78dd8"/>
   </g>
   <g id="patch_235">
    <path d="M 587.261695 139.887068 
L 605.32678 139.887068 
L 605.32678 126.488166 
L 587.261695 126.488166 
z
" clip-path="url(#p7f04fbd5f7)" style="fill: #a78dd8"/>
   </g>
   <g id="patch_236">
    <path d="M 611.348475 324.60348 
L 629.413559 324.60348 
L 629.413559 324.60348 
L 611.348475 324.60348 
z
" clip-path="url(#p7f04fbd5f7)" style="fill: #a78dd8"/>
   </g>
   <g id="patch_237">
    <path d="M 635.435254 89.414711 
L 653.500339 89.414711 
L 653.500339 67.109891 
L 635.435254 67.109891 
z
" clip-path="url(#p7f04fbd5f7)" style="fill: #a78dd8"/>
   </g>
   <g id="patch_238">
    <path d="M 659.522034 146.277515 
L 677.587119 146.277515 
L 677.587119 132.878613 
L 659.522034 132.878613 
z
" clip-path="url(#p7f04fbd5f7)" style="fill: #a78dd8"/>
   </g>
   <g id="patch_239">
    <path d="M 683.608814 324.60348 
L 701.673898 324.60348 
L 701.673898 324.60348 
L 683.608814 324.60348 
z
" clip-path="url(#p7f04fbd5f7)" style="fill: #a78dd8"/>
   </g>
   <g id="patch_240">
    <path d="M 707.695593 179.48693 
L 725.760678 179.48693 
L 725.760678 157.182111 
L 707.695593 157.182111 
z
" clip-path="url(#p7f04fbd5f7)" style="fill: #a78dd8"/>
   </g>
   <g id="patch_241">
    <path d="M 731.782373 157.090993 
L 749.847458 157.090993 
L 749.847458 143.692091 
L 731.782373 143.692091 
z
" clip-path="url(#p7f04fbd5f7)" style="fill: #a78dd8"/>
   </g>
   <g id="patch_242">
    <path d="M 755.869153 324.60348 
L 773.934237 324.60348 
L 773.934237 324.60348 
L 755.869153 324.60348 
z
" clip-path="url(#p7f04fbd5f7)" style="fill: #a78dd8"/>
   </g>
   <g id="matplotlib.axis_1">
    <g id="xtick_1">
     <g id="line2d_1">
      <defs>
       <path id="mdd92fd2f2b" d="M 0 0 
L 0 3.5 
" style="stroke: #000000; stroke-width: 0.8"/>
      </defs>
      <g>
       <use xlink:href="#mdd92fd2f2b" x="78.428475" y="324.60348" style="stroke: #000000; stroke-width: 0.8"/>
      </g>
     </g>
     <g id="text_1">
      <!-- Avg 19 -->
      <g transform="translate(59.854725 340.22848)scale(0.12 -0.12)">
       <defs>
        <path id="ArialMT-41" d="M -9 0 
L 1750 4581 
L 2403 4581 
L 4278 0 
L 3588 0 
L 3053 1388 
L 1138 1388 
L 634 0 
L -9 0 
z
M 1313 1881 
L 2866 1881 
L 2388 3150 
Q 2169 3728 2063 4100 
Q 1975 3659 1816 3225 
L 1313 1881 
z
" transform="scale(0.015625)"/>
        <path id="ArialMT-76" d="M 1344 0 
L 81 3319 
L 675 3319 
L 1388 1331 
Q 1503 1009 1600 663 
Q 1675 925 1809 1294 
L 2547 3319 
L 3125 3319 
L 1869 0 
L 1344 0 
z
" transform="scale(0.015625)"/>
        <path id="ArialMT-67" d="M 319 -275 
L 866 -356 
Q 900 -609 1056 -725 
Q 1266 -881 1628 -881 
Q 2019 -881 2231 -725 
Q 2444 -569 2519 -288 
Q 2563 -116 2559 434 
Q 2191 0 1641 0 
Q 956 0 581 494 
Q 206 988 206 1678 
Q 206 2153 378 2554 
Q 550 2956 876 3175 
Q 1203 3394 1644 3394 
Q 2231 3394 2613 2919 
L 2613 3319 
L 3131 3319 
L 3131 450 
Q 3131 -325 2973 -648 
Q 2816 -972 2473 -1159 
Q 2131 -1347 1631 -1347 
Q 1038 -1347 672 -1080 
Q 306 -813 319 -275 
z
M 784 1719 
Q 784 1066 1043 766 
Q 1303 466 1694 466 
Q 2081 466 2343 764 
Q 2606 1063 2606 1700 
Q 2606 2309 2336 2618 
Q 2066 2928 1684 2928 
Q 1309 2928 1046 2623 
Q 784 2319 784 1719 
z
" transform="scale(0.015625)"/>
        <path id="ArialMT-20" transform="scale(0.015625)"/>
        <path id="ArialMT-31" d="M 2384 0 
L 1822 0 
L 1822 3584 
Q 1619 3391 1289 3197 
Q 959 3003 697 2906 
L 697 3450 
Q 1169 3672 1522 3987 
Q 1875 4303 2022 4600 
L 2384 4600 
L 2384 0 
z
" transform="scale(0.015625)"/>
        <path id="ArialMT-39" d="M 350 1059 
L 891 1109 
Q 959 728 1153 556 
Q 1347 384 1650 384 
Q 1909 384 2104 503 
Q 2300 622 2425 820 
Q 2550 1019 2634 1356 
Q 2719 1694 2719 2044 
Q 2719 2081 2716 2156 
Q 2547 1888 2255 1720 
Q 1963 1553 1622 1553 
Q 1053 1553 659 1965 
Q 266 2378 266 3053 
Q 266 3750 677 4175 
Q 1088 4600 1706 4600 
Q 2153 4600 2523 4359 
Q 2894 4119 3086 3673 
Q 3278 3228 3278 2384 
Q 3278 1506 3087 986 
Q 2897 466 2520 194 
Q 2144 -78 1638 -78 
Q 1100 -78 759 220 
Q 419 519 350 1059 
z
M 2653 3081 
Q 2653 3566 2395 3850 
Q 2138 4134 1775 4134 
Q 1400 4134 1122 3828 
Q 844 3522 844 3034 
Q 844 2597 1108 2323 
Q 1372 2050 1759 2050 
Q 2150 2050 2401 2323 
Q 2653 2597 2653 3081 
z
" transform="scale(0.015625)"/>
       </defs>
       <use xlink:href="#ArialMT-41"/>
       <use xlink:href="#ArialMT-76" x="64.949219"/>
       <use xlink:href="#ArialMT-67" x="114.949219"/>
       <use xlink:href="#ArialMT-20" x="170.564453"/>
       <use xlink:href="#ArialMT-31" x="198.347656"/>
       <use xlink:href="#ArialMT-39" x="253.962891"/>
      </g>
     </g>
    </g>
    <g id="xtick_2">
     <g id="line2d_2">
      <g>
       <use xlink:href="#mdd92fd2f2b" x="150.688814" y="324.60348" style="stroke: #000000; stroke-width: 0.8"/>
      </g>
     </g>
     <g id="text_2">
      <!-- Avg 20 -->
      <g transform="translate(132.115064 340.22848)scale(0.12 -0.12)">
       <defs>
        <path id="ArialMT-32" d="M 3222 541 
L 3222 0 
L 194 0 
Q 188 203 259 391 
Q 375 700 629 1000 
Q 884 1300 1366 1694 
Q 2113 2306 2375 2664 
Q 2638 3022 2638 3341 
Q 2638 3675 2398 3904 
Q 2159 4134 1775 4134 
Q 1369 4134 1125 3890 
Q 881 3647 878 3216 
L 300 3275 
Q 359 3922 746 4261 
Q 1134 4600 1788 4600 
Q 2447 4600 2831 4234 
Q 3216 3869 3216 3328 
Q 3216 3053 3103 2787 
Q 2991 2522 2730 2228 
Q 2469 1934 1863 1422 
Q 1356 997 1212 845 
Q 1069 694 975 541 
L 3222 541 
z
" transform="scale(0.015625)"/>
        <path id="ArialMT-30" d="M 266 2259 
Q 266 3072 433 3567 
Q 600 4063 929 4331 
Q 1259 4600 1759 4600 
Q 2128 4600 2406 4451 
Q 2684 4303 2865 4023 
Q 3047 3744 3150 3342 
Q 3253 2941 3253 2259 
Q 3253 1453 3087 958 
Q 2922 463 2592 192 
Q 2263 -78 1759 -78 
Q 1097 -78 719 397 
Q 266 969 266 2259 
z
M 844 2259 
Q 844 1131 1108 757 
Q 1372 384 1759 384 
Q 2147 384 2411 759 
Q 2675 1134 2675 2259 
Q 2675 3391 2411 3762 
Q 2147 4134 1753 4134 
Q 1366 4134 1134 3806 
Q 844 3388 844 2259 
z
" transform="scale(0.015625)"/>
       </defs>
       <use xlink:href="#ArialMT-41"/>
       <use xlink:href="#ArialMT-76" x="64.949219"/>
       <use xlink:href="#ArialMT-67" x="114.949219"/>
       <use xlink:href="#ArialMT-20" x="170.564453"/>
       <use xlink:href="#ArialMT-32" x="198.347656"/>
       <use xlink:href="#ArialMT-30" x="253.962891"/>
      </g>
     </g>
    </g>
    <g id="xtick_3">
     <g id="line2d_3">
      <g>
       <use xlink:href="#mdd92fd2f2b" x="222.949153" y="324.60348" style="stroke: #000000; stroke-width: 0.8"/>
      </g>
     </g>
     <g id="text_3">
      <!-- Jul '21 -->
      <g transform="translate(205.79384 340.192855)scale(0.12 -0.12)">
       <defs>
        <path id="ArialMT-4a" d="M 184 1300 
L 731 1375 
Q 753 850 928 656 
Q 1103 463 1413 463 
Q 1641 463 1806 567 
Q 1972 672 2034 851 
Q 2097 1031 2097 1425 
L 2097 4581 
L 2703 4581 
L 2703 1459 
Q 2703 884 2564 568 
Q 2425 253 2123 87 
Q 1822 -78 1416 -78 
Q 813 -78 492 269 
Q 172 616 184 1300 
z
" transform="scale(0.015625)"/>
        <path id="ArialMT-75" d="M 2597 0 
L 2597 488 
Q 2209 -75 1544 -75 
Q 1250 -75 995 37 
Q 741 150 617 320 
Q 494 491 444 738 
Q 409 903 409 1263 
L 409 3319 
L 972 3319 
L 972 1478 
Q 972 1038 1006 884 
Q 1059 663 1231 536 
Q 1403 409 1656 409 
Q 1909 409 2131 539 
Q 2353 669 2445 892 
Q 2538 1116 2538 1541 
L 2538 3319 
L 3100 3319 
L 3100 0 
L 2597 0 
z
" transform="scale(0.015625)"/>
        <path id="ArialMT-6c" d="M 409 0 
L 409 4581 
L 972 4581 
L 972 0 
L 409 0 
z
" transform="scale(0.015625)"/>
        <path id="ArialMT-27" d="M 425 2959 
L 281 3816 
L 281 4581 
L 922 4581 
L 922 3816 
L 772 2959 
L 425 2959 
z
" transform="scale(0.015625)"/>
       </defs>
       <use xlink:href="#ArialMT-4a"/>
       <use xlink:href="#ArialMT-75" x="50"/>
       <use xlink:href="#ArialMT-6c" x="105.615234"/>
       <use xlink:href="#ArialMT-20" x="127.832031"/>
       <use xlink:href="#ArialMT-27" x="155.615234"/>
       <use xlink:href="#ArialMT-32" x="174.707031"/>
       <use xlink:href="#ArialMT-31" x="230.322266"/>
      </g>
     </g>
    </g>
    <g id="xtick_4">
     <g id="line2d_4">
      <g>
       <use xlink:href="#mdd92fd2f2b" x="295.209492" y="324.60348" style="stroke: #000000; stroke-width: 0.8"/>
      </g>
     </g>
     <g id="text_4">
      <!-- Oct '21 -->
      <g transform="translate(276.390117 340.192855)scale(0.12 -0.12)">
       <defs>
        <path id="ArialMT-4f" d="M 309 2231 
Q 309 3372 921 4017 
Q 1534 4663 2503 4663 
Q 3138 4663 3647 4359 
Q 4156 4056 4423 3514 
Q 4691 2972 4691 2284 
Q 4691 1588 4409 1038 
Q 4128 488 3612 205 
Q 3097 -78 2500 -78 
Q 1853 -78 1343 234 
Q 834 547 571 1087 
Q 309 1628 309 2231 
z
M 934 2222 
Q 934 1394 1379 917 
Q 1825 441 2497 441 
Q 3181 441 3623 922 
Q 4066 1403 4066 2288 
Q 4066 2847 3877 3264 
Q 3688 3681 3323 3911 
Q 2959 4141 2506 4141 
Q 1863 4141 1398 3698 
Q 934 3256 934 2222 
z
" transform="scale(0.015625)"/>
        <path id="ArialMT-63" d="M 2588 1216 
L 3141 1144 
Q 3050 572 2676 248 
Q 2303 -75 1759 -75 
Q 1078 -75 664 370 
Q 250 816 250 1647 
Q 250 2184 428 2587 
Q 606 2991 970 3192 
Q 1334 3394 1763 3394 
Q 2303 3394 2647 3120 
Q 2991 2847 3088 2344 
L 2541 2259 
Q 2463 2594 2264 2762 
Q 2066 2931 1784 2931 
Q 1359 2931 1093 2626 
Q 828 2322 828 1663 
Q 828 994 1084 691 
Q 1341 388 1753 388 
Q 2084 388 2306 591 
Q 2528 794 2588 1216 
z
" transform="scale(0.015625)"/>
        <path id="ArialMT-74" d="M 1650 503 
L 1731 6 
Q 1494 -44 1306 -44 
Q 1000 -44 831 53 
Q 663 150 594 308 
Q 525 466 525 972 
L 525 2881 
L 113 2881 
L 113 3319 
L 525 3319 
L 525 4141 
L 1084 4478 
L 1084 3319 
L 1650 3319 
L 1650 2881 
L 1084 2881 
L 1084 941 
Q 1084 700 1114 631 
Q 1144 563 1211 522 
Q 1278 481 1403 481 
Q 1497 481 1650 503 
z
" transform="scale(0.015625)"/>
       </defs>
       <use xlink:href="#ArialMT-4f"/>
       <use xlink:href="#ArialMT-63" x="77.783203"/>
       <use xlink:href="#ArialMT-74" x="127.783203"/>
       <use xlink:href="#ArialMT-20" x="155.566406"/>
       <use xlink:href="#ArialMT-27" x="183.349609"/>
       <use xlink:href="#ArialMT-32" x="202.441406"/>
       <use xlink:href="#ArialMT-31" x="258.056641"/>
      </g>
     </g>
    </g>
    <g id="xtick_5">
     <g id="line2d_5">
      <g>
       <use xlink:href="#mdd92fd2f2b" x="367.469831" y="324.60348" style="stroke: #000000; stroke-width: 0.8"/>
      </g>
     </g>
     <g id="text_5">
      <!-- Jan '22 -->
      <g transform="translate(348.311081 340.192855)scale(0.12 -0.12)">
       <defs>
        <path id="ArialMT-61" d="M 2588 409 
Q 2275 144 1986 34 
Q 1697 -75 1366 -75 
Q 819 -75 525 192 
Q 231 459 231 875 
Q 231 1119 342 1320 
Q 453 1522 633 1644 
Q 813 1766 1038 1828 
Q 1203 1872 1538 1913 
Q 2219 1994 2541 2106 
Q 2544 2222 2544 2253 
Q 2544 2597 2384 2738 
Q 2169 2928 1744 2928 
Q 1347 2928 1158 2789 
Q 969 2650 878 2297 
L 328 2372 
Q 403 2725 575 2942 
Q 747 3159 1072 3276 
Q 1397 3394 1825 3394 
Q 2250 3394 2515 3294 
Q 2781 3194 2906 3042 
Q 3031 2891 3081 2659 
Q 3109 2516 3109 2141 
L 3109 1391 
Q 3109 606 3145 398 
Q 3181 191 3288 0 
L 2700 0 
Q 2613 175 2588 409 
z
M 2541 1666 
Q 2234 1541 1622 1453 
Q 1275 1403 1131 1340 
Q 988 1278 909 1158 
Q 831 1038 831 891 
Q 831 666 1001 516 
Q 1172 366 1500 366 
Q 1825 366 2078 508 
Q 2331 650 2450 897 
Q 2541 1088 2541 1459 
L 2541 1666 
z
" transform="scale(0.015625)"/>
        <path id="ArialMT-6e" d="M 422 0 
L 422 3319 
L 928 3319 
L 928 2847 
Q 1294 3394 1984 3394 
Q 2284 3394 2536 3286 
Q 2788 3178 2913 3003 
Q 3038 2828 3088 2588 
Q 3119 2431 3119 2041 
L 3119 0 
L 2556 0 
L 2556 2019 
Q 2556 2363 2490 2533 
Q 2425 2703 2258 2804 
Q 2091 2906 1866 2906 
Q 1506 2906 1245 2678 
Q 984 2450 984 1813 
L 984 0 
L 422 0 
z
" transform="scale(0.015625)"/>
       </defs>
       <use xlink:href="#ArialMT-4a"/>
       <use xlink:href="#ArialMT-61" x="50"/>
       <use xlink:href="#ArialMT-6e" x="105.615234"/>
       <use xlink:href="#ArialMT-20" x="161.230469"/>
       <use xlink:href="#ArialMT-27" x="189.013672"/>
       <use xlink:href="#ArialMT-32" x="208.105469"/>
       <use xlink:href="#ArialMT-32" x="263.720703"/>
      </g>
     </g>
    </g>
    <g id="xtick_6">
     <g id="line2d_6">
      <g>
       <use xlink:href="#mdd92fd2f2b" x="439.730169" y="324.60348" style="stroke: #000000; stroke-width: 0.8"/>
      </g>
     </g>
     <g id="text_6">
      <!-- Apr '22 -->
      <g transform="translate(420.907982 340.22848)scale(0.12 -0.12)">
       <defs>
        <path id="ArialMT-70" d="M 422 -1272 
L 422 3319 
L 934 3319 
L 934 2888 
Q 1116 3141 1344 3267 
Q 1572 3394 1897 3394 
Q 2322 3394 2647 3175 
Q 2972 2956 3137 2557 
Q 3303 2159 3303 1684 
Q 3303 1175 3120 767 
Q 2938 359 2589 142 
Q 2241 -75 1856 -75 
Q 1575 -75 1351 44 
Q 1128 163 984 344 
L 984 -1272 
L 422 -1272 
z
M 931 1641 
Q 931 1000 1190 694 
Q 1450 388 1819 388 
Q 2194 388 2461 705 
Q 2728 1022 2728 1688 
Q 2728 2322 2467 2637 
Q 2206 2953 1844 2953 
Q 1484 2953 1207 2617 
Q 931 2281 931 1641 
z
" transform="scale(0.015625)"/>
        <path id="ArialMT-72" d="M 416 0 
L 416 3319 
L 922 3319 
L 922 2816 
Q 1116 3169 1280 3281 
Q 1444 3394 1641 3394 
Q 1925 3394 2219 3213 
L 2025 2691 
Q 1819 2813 1613 2813 
Q 1428 2813 1281 2702 
Q 1134 2591 1072 2394 
Q 978 2094 978 1738 
L 978 0 
L 416 0 
z
" transform="scale(0.015625)"/>
       </defs>
       <use xlink:href="#ArialMT-41"/>
       <use xlink:href="#ArialMT-70" x="66.699219"/>
       <use xlink:href="#ArialMT-72" x="122.314453"/>
       <use xlink:href="#ArialMT-20" x="155.615234"/>
       <use xlink:href="#ArialMT-27" x="183.398438"/>
       <use xlink:href="#ArialMT-32" x="202.490234"/>
       <use xlink:href="#ArialMT-32" x="258.105469"/>
      </g>
     </g>
    </g>
    <g id="xtick_7">
     <g id="line2d_7">
      <g>
       <use xlink:href="#mdd92fd2f2b" x="511.990508" y="324.60348" style="stroke: #000000; stroke-width: 0.8"/>
      </g>
     </g>
     <g id="text_7">
      <!-- Jul '22 -->
      <g transform="translate(494.835196 340.192855)scale(0.12 -0.12)">
       <use xlink:href="#ArialMT-4a"/>
       <use xlink:href="#ArialMT-75" x="50"/>
       <use xlink:href="#ArialMT-6c" x="105.615234"/>
       <use xlink:href="#ArialMT-20" x="127.832031"/>
       <use xlink:href="#ArialMT-27" x="155.615234"/>
       <use xlink:href="#ArialMT-32" x="174.707031"/>
       <use xlink:href="#ArialMT-32" x="230.322266"/>
      </g>
     </g>
    </g>
    <g id="xtick_8">
     <g id="line2d_8">
      <g>
       <use xlink:href="#mdd92fd2f2b" x="584.250847" y="324.60348" style="stroke: #000000; stroke-width: 0.8"/>
      </g>
     </g>
     <g id="text_8">
      <!-- Aug '22 -->
      <g transform="translate(564.08991 340.22848)scale(0.12 -0.12)">
       <use xlink:href="#ArialMT-41"/>
       <use xlink:href="#ArialMT-75" x="66.699219"/>
       <use xlink:href="#ArialMT-67" x="122.314453"/>
       <use xlink:href="#ArialMT-20" x="177.929688"/>
       <use xlink:href="#ArialMT-27" x="205.712891"/>
       <use xlink:href="#ArialMT-32" x="224.804688"/>
       <use xlink:href="#ArialMT-32" x="280.419922"/>
      </g>
     </g>
    </g>
    <g id="xtick_9">
     <g id="line2d_9">
      <g>
       <use xlink:href="#mdd92fd2f2b" x="656.511186" y="324.60348" style="stroke: #000000; stroke-width: 0.8"/>
      </g>
     </g>
     <g id="text_9">
      <!-- Sep '22 -->
      <g transform="translate(636.350249 340.339105)scale(0.12 -0.12)">
       <defs>
        <path id="ArialMT-53" d="M 288 1472 
L 859 1522 
Q 900 1178 1048 958 
Q 1197 738 1509 602 
Q 1822 466 2213 466 
Q 2559 466 2825 569 
Q 3091 672 3220 851 
Q 3350 1031 3350 1244 
Q 3350 1459 3225 1620 
Q 3100 1781 2813 1891 
Q 2628 1963 1997 2114 
Q 1366 2266 1113 2400 
Q 784 2572 623 2826 
Q 463 3081 463 3397 
Q 463 3744 659 4045 
Q 856 4347 1234 4503 
Q 1613 4659 2075 4659 
Q 2584 4659 2973 4495 
Q 3363 4331 3572 4012 
Q 3781 3694 3797 3291 
L 3216 3247 
Q 3169 3681 2898 3903 
Q 2628 4125 2100 4125 
Q 1550 4125 1298 3923 
Q 1047 3722 1047 3438 
Q 1047 3191 1225 3031 
Q 1400 2872 2139 2705 
Q 2878 2538 3153 2413 
Q 3553 2228 3743 1945 
Q 3934 1663 3934 1294 
Q 3934 928 3725 604 
Q 3516 281 3123 101 
Q 2731 -78 2241 -78 
Q 1619 -78 1198 103 
Q 778 284 539 648 
Q 300 1013 288 1472 
z
" transform="scale(0.015625)"/>
        <path id="ArialMT-65" d="M 2694 1069 
L 3275 997 
Q 3138 488 2766 206 
Q 2394 -75 1816 -75 
Q 1088 -75 661 373 
Q 234 822 234 1631 
Q 234 2469 665 2931 
Q 1097 3394 1784 3394 
Q 2450 3394 2872 2941 
Q 3294 2488 3294 1666 
Q 3294 1616 3291 1516 
L 816 1516 
Q 847 969 1125 678 
Q 1403 388 1819 388 
Q 2128 388 2347 550 
Q 2566 713 2694 1069 
z
M 847 1978 
L 2700 1978 
Q 2663 2397 2488 2606 
Q 2219 2931 1791 2931 
Q 1403 2931 1139 2672 
Q 875 2413 847 1978 
z
" transform="scale(0.015625)"/>
       </defs>
       <use xlink:href="#ArialMT-53"/>
       <use xlink:href="#ArialMT-65" x="66.699219"/>
       <use xlink:href="#ArialMT-70" x="122.314453"/>
       <use xlink:href="#ArialMT-20" x="177.929688"/>
       <use xlink:href="#ArialMT-27" x="205.712891"/>
       <use xlink:href="#ArialMT-32" x="224.804688"/>
       <use xlink:href="#ArialMT-32" x="280.419922"/>
      </g>
     </g>
    </g>
    <g id="xtick_10">
     <g id="line2d_10">
      <g>
       <use xlink:href="#mdd92fd2f2b" x="728.771525" y="324.60348" style="stroke: #000000; stroke-width: 0.8"/>
      </g>
     </g>
     <g id="text_10">
      <!-- Nov '22 -->
      <g transform="translate(708.616213 340.192855)scale(0.12 -0.12)">
       <defs>
        <path id="ArialMT-4e" d="M 488 0 
L 488 4581 
L 1109 4581 
L 3516 984 
L 3516 4581 
L 4097 4581 
L 4097 0 
L 3475 0 
L 1069 3600 
L 1069 0 
L 488 0 
z
" transform="scale(0.015625)"/>
        <path id="ArialMT-6f" d="M 213 1659 
Q 213 2581 725 3025 
Q 1153 3394 1769 3394 
Q 2453 3394 2887 2945 
Q 3322 2497 3322 1706 
Q 3322 1066 3130 698 
Q 2938 331 2570 128 
Q 2203 -75 1769 -75 
Q 1072 -75 642 372 
Q 213 819 213 1659 
z
M 791 1659 
Q 791 1022 1069 705 
Q 1347 388 1769 388 
Q 2188 388 2466 706 
Q 2744 1025 2744 1678 
Q 2744 2294 2464 2611 
Q 2184 2928 1769 2928 
Q 1347 2928 1069 2612 
Q 791 2297 791 1659 
z
" transform="scale(0.015625)"/>
       </defs>
       <use xlink:href="#ArialMT-4e"/>
       <use xlink:href="#ArialMT-6f" x="72.216797"/>
       <use xlink:href="#ArialMT-76" x="127.832031"/>
       <use xlink:href="#ArialMT-20" x="177.832031"/>
       <use xlink:href="#ArialMT-27" x="205.615234"/>
       <use xlink:href="#ArialMT-32" x="224.707031"/>
       <use xlink:href="#ArialMT-32" x="280.322266"/>
      </g>
     </g>
    </g>
   </g>
   <g id="matplotlib.axis_2">
    <g id="ytick_1">
     <g id="line2d_11">
      <defs>
       <path id="ma4b85d3422" d="M 0 0 
L -3.5 0 
" style="stroke: #000000; stroke-width: 0.8"/>
      </defs>
      <g>
       <use xlink:href="#ma4b85d3422" x="48.32" y="324.60348" style="stroke: #000000; stroke-width: 0.8"/>
      </g>
     </g>
     <g id="text_11">
      <!-- 0.0 -->
      <g transform="translate(24.64 328.898167)scale(0.12 -0.12)">
       <defs>
        <path id="ArialMT-2e" d="M 581 0 
L 581 641 
L 1222 641 
L 1222 0 
L 581 0 
z
" transform="scale(0.015625)"/>
       </defs>
       <use xlink:href="#ArialMT-30"/>
       <use xlink:href="#ArialMT-2e" x="55.615234"/>
       <use xlink:href="#ArialMT-30" x="83.398438"/>
      </g>
     </g>
    </g>
    <g id="ytick_2">
     <g id="line2d_12">
      <g>
       <use xlink:href="#ma4b85d3422" x="48.32" y="262.316381" style="stroke: #000000; stroke-width: 0.8"/>
      </g>
     </g>
     <g id="text_12">
      <!-- 0.5 -->
      <g transform="translate(24.64 266.611069)scale(0.12 -0.12)">
       <defs>
        <path id="ArialMT-35" d="M 266 1200 
L 856 1250 
Q 922 819 1161 601 
Q 1400 384 1738 384 
Q 2144 384 2425 690 
Q 2706 997 2706 1503 
Q 2706 1984 2436 2262 
Q 2166 2541 1728 2541 
Q 1456 2541 1237 2417 
Q 1019 2294 894 2097 
L 366 2166 
L 809 4519 
L 3088 4519 
L 3088 3981 
L 1259 3981 
L 1013 2750 
Q 1425 3038 1878 3038 
Q 2478 3038 2890 2622 
Q 3303 2206 3303 1553 
Q 3303 931 2941 478 
Q 2500 -78 1738 -78 
Q 1113 -78 717 272 
Q 322 622 266 1200 
z
" transform="scale(0.015625)"/>
       </defs>
       <use xlink:href="#ArialMT-30"/>
       <use xlink:href="#ArialMT-2e" x="55.615234"/>
       <use xlink:href="#ArialMT-35" x="83.398438"/>
      </g>
     </g>
    </g>
    <g id="ytick_3">
     <g id="line2d_13">
      <g>
       <use xlink:href="#ma4b85d3422" x="48.32" y="200.029282" style="stroke: #000000; stroke-width: 0.8"/>
      </g>
     </g>
     <g id="text_13">
      <!-- 1.0 -->
      <g transform="translate(24.64 204.32397)scale(0.12 -0.12)">
       <use xlink:href="#ArialMT-31"/>
       <use xlink:href="#ArialMT-2e" x="55.615234"/>
       <use xlink:href="#ArialMT-30" x="83.398438"/>
      </g>
     </g>
    </g>
    <g id="ytick_4">
     <g id="line2d_14">
      <g>
       <use xlink:href="#ma4b85d3422" x="48.32" y="137.742183" style="stroke: #000000; stroke-width: 0.8"/>
      </g>
     </g>
     <g id="text_14">
      <!-- 1.5 -->
      <g transform="translate(24.64 142.036871)scale(0.12 -0.12)">
       <use xlink:href="#ArialMT-31"/>
       <use xlink:href="#ArialMT-2e" x="55.615234"/>
       <use xlink:href="#ArialMT-35" x="83.398438"/>
      </g>
     </g>
    </g>
    <g id="ytick_5">
     <g id="line2d_15">
      <g>
       <use xlink:href="#ma4b85d3422" x="48.32" y="75.455084" style="stroke: #000000; stroke-width: 0.8"/>
      </g>
     </g>
     <g id="text_15">
      <!-- 2.0 -->
      <g transform="translate(24.64 79.749772)scale(0.12 -0.12)">
       <use xlink:href="#ArialMT-32"/>
       <use xlink:href="#ArialMT-2e" x="55.615234"/>
       <use xlink:href="#ArialMT-30" x="83.398438"/>
      </g>
     </g>
    </g>
    <g id="ytick_6">
     <g id="line2d_16">
      <g>
       <use xlink:href="#ma4b85d3422" x="48.32" y="13.167985" style="stroke: #000000; stroke-width: 0.8"/>
      </g>
     </g>
     <g id="text_16">
      <!-- 2.5 -->
      <g transform="translate(24.64 17.462673)scale(0.12 -0.12)">
       <use xlink:href="#ArialMT-32"/>
       <use xlink:href="#ArialMT-2e" x="55.615234"/>
       <use xlink:href="#ArialMT-35" x="83.398438"/>
      </g>
     </g>
    </g>
    <g id="text_17">
     <!-- Production cost [USD kg$^\mathrm{-1}$] -->
     <g transform="translate(18 239.40174)rotate(-90)scale(0.12 -0.12)">
      <defs>
       <path id="ArialMT-50" d="M 494 0 
L 494 4581 
L 2222 4581 
Q 2678 4581 2919 4538 
Q 3256 4481 3484 4323 
Q 3713 4166 3852 3881 
Q 3991 3597 3991 3256 
Q 3991 2672 3619 2267 
Q 3247 1863 2275 1863 
L 1100 1863 
L 1100 0 
L 494 0 
z
M 1100 2403 
L 2284 2403 
Q 2872 2403 3119 2622 
Q 3366 2841 3366 3238 
Q 3366 3525 3220 3729 
Q 3075 3934 2838 4000 
Q 2684 4041 2272 4041 
L 1100 4041 
L 1100 2403 
z
" transform="scale(0.015625)"/>
       <path id="ArialMT-64" d="M 2575 0 
L 2575 419 
Q 2259 -75 1647 -75 
Q 1250 -75 917 144 
Q 584 363 401 755 
Q 219 1147 219 1656 
Q 219 2153 384 2558 
Q 550 2963 881 3178 
Q 1213 3394 1622 3394 
Q 1922 3394 2156 3267 
Q 2391 3141 2538 2938 
L 2538 4581 
L 3097 4581 
L 3097 0 
L 2575 0 
z
M 797 1656 
Q 797 1019 1065 703 
Q 1334 388 1700 388 
Q 2069 388 2326 689 
Q 2584 991 2584 1609 
Q 2584 2291 2321 2609 
Q 2059 2928 1675 2928 
Q 1300 2928 1048 2622 
Q 797 2316 797 1656 
z
" transform="scale(0.015625)"/>
       <path id="ArialMT-69" d="M 425 3934 
L 425 4581 
L 988 4581 
L 988 3934 
L 425 3934 
z
M 425 0 
L 425 3319 
L 988 3319 
L 988 0 
L 425 0 
z
" transform="scale(0.015625)"/>
       <path id="ArialMT-73" d="M 197 991 
L 753 1078 
Q 800 744 1014 566 
Q 1228 388 1613 388 
Q 2000 388 2187 545 
Q 2375 703 2375 916 
Q 2375 1106 2209 1216 
Q 2094 1291 1634 1406 
Q 1016 1563 777 1677 
Q 538 1791 414 1992 
Q 291 2194 291 2438 
Q 291 2659 392 2848 
Q 494 3038 669 3163 
Q 800 3259 1026 3326 
Q 1253 3394 1513 3394 
Q 1903 3394 2198 3281 
Q 2494 3169 2634 2976 
Q 2775 2784 2828 2463 
L 2278 2388 
Q 2241 2644 2061 2787 
Q 1881 2931 1553 2931 
Q 1166 2931 1000 2803 
Q 834 2675 834 2503 
Q 834 2394 903 2306 
Q 972 2216 1119 2156 
Q 1203 2125 1616 2013 
Q 2213 1853 2448 1751 
Q 2684 1650 2818 1456 
Q 2953 1263 2953 975 
Q 2953 694 2789 445 
Q 2625 197 2315 61 
Q 2006 -75 1616 -75 
Q 969 -75 630 194 
Q 291 463 197 991 
z
" transform="scale(0.015625)"/>
       <path id="ArialMT-5b" d="M 434 -1272 
L 434 4581 
L 1675 4581 
L 1675 4116 
L 997 4116 
L 997 -806 
L 1675 -806 
L 1675 -1272 
L 434 -1272 
z
" transform="scale(0.015625)"/>
       <path id="ArialMT-55" d="M 3500 4581 
L 4106 4581 
L 4106 1934 
Q 4106 1244 3950 837 
Q 3794 431 3386 176 
Q 2978 -78 2316 -78 
Q 1672 -78 1262 144 
Q 853 366 678 786 
Q 503 1206 503 1934 
L 503 4581 
L 1109 4581 
L 1109 1938 
Q 1109 1341 1220 1058 
Q 1331 775 1601 622 
Q 1872 469 2263 469 
Q 2931 469 3215 772 
Q 3500 1075 3500 1938 
L 3500 4581 
z
" transform="scale(0.015625)"/>
       <path id="ArialMT-44" d="M 494 0 
L 494 4581 
L 2072 4581 
Q 2606 4581 2888 4516 
Q 3281 4425 3559 4188 
Q 3922 3881 4101 3404 
Q 4281 2928 4281 2316 
Q 4281 1794 4159 1391 
Q 4038 988 3847 723 
Q 3656 459 3429 307 
Q 3203 156 2883 78 
Q 2563 0 2147 0 
L 494 0 
z
M 1100 541 
L 2078 541 
Q 2531 541 2789 625 
Q 3047 709 3200 863 
Q 3416 1078 3536 1442 
Q 3656 1806 3656 2325 
Q 3656 3044 3420 3430 
Q 3184 3816 2847 3947 
Q 2603 4041 2063 4041 
L 1100 4041 
L 1100 541 
z
" transform="scale(0.015625)"/>
       <path id="ArialMT-6b" d="M 425 0 
L 425 4581 
L 988 4581 
L 988 1969 
L 2319 3319 
L 3047 3319 
L 1778 2088 
L 3175 0 
L 2481 0 
L 1384 1697 
L 988 1316 
L 988 0 
L 425 0 
z
" transform="scale(0.015625)"/>
       <path id="DejaVuSans-2212" d="M 678 2272 
L 4684 2272 
L 4684 1741 
L 678 1741 
L 678 2272 
z
" transform="scale(0.015625)"/>
       <path id="DejaVuSans-31" d="M 794 531 
L 1825 531 
L 1825 4091 
L 703 3866 
L 703 4441 
L 1819 4666 
L 2450 4666 
L 2450 531 
L 3481 531 
L 3481 0 
L 794 0 
L 794 531 
z
" transform="scale(0.015625)"/>
       <path id="ArialMT-5d" d="M 1363 -1272 
L 122 -1272 
L 122 -806 
L 800 -806 
L 800 4116 
L 122 4116 
L 122 4581 
L 1363 4581 
L 1363 -1272 
z
" transform="scale(0.015625)"/>
      </defs>
      <use xlink:href="#ArialMT-50" transform="translate(0 0.684375)"/>
      <use xlink:href="#ArialMT-72" transform="translate(66.699219 0.684375)"/>
      <use xlink:href="#ArialMT-6f" transform="translate(100 0.684375)"/>
      <use xlink:href="#ArialMT-64" transform="translate(155.615234 0.684375)"/>
      <use xlink:href="#ArialMT-75" transform="translate(211.230469 0.684375)"/>
      <use xlink:href="#ArialMT-63" transform="translate(266.845703 0.684375)"/>
      <use xlink:href="#ArialMT-74" transform="translate(316.845703 0.684375)"/>
      <use xlink:href="#ArialMT-69" transform="translate(344.628906 0.684375)"/>
      <use xlink:href="#ArialMT-6f" transform="translate(366.845703 0.684375)"/>
      <use xlink:href="#ArialMT-6e" transform="translate(422.460938 0.684375)"/>
      <use xlink:href="#ArialMT-20" transform="translate(478.076172 0.684375)"/>
      <use xlink:href="#ArialMT-63" transform="translate(505.859375 0.684375)"/>
      <use xlink:href="#ArialMT-6f" transform="translate(555.859375 0.684375)"/>
      <use xlink:href="#ArialMT-73" transform="translate(611.474609 0.684375)"/>
      <use xlink:href="#ArialMT-74" transform="translate(661.474609 0.684375)"/>
      <use xlink:href="#ArialMT-20" transform="translate(689.257812 0.684375)"/>
      <use xlink:href="#ArialMT-5b" transform="translate(717.041016 0.684375)"/>
      <use xlink:href="#ArialMT-55" transform="translate(744.824219 0.684375)"/>
      <use xlink:href="#ArialMT-53" transform="translate(817.041016 0.684375)"/>
      <use xlink:href="#ArialMT-44" transform="translate(883.740234 0.684375)"/>
      <use xlink:href="#ArialMT-20" transform="translate(955.957031 0.684375)"/>
      <use xlink:href="#ArialMT-6b" transform="translate(983.740234 0.684375)"/>
      <use xlink:href="#ArialMT-67" transform="translate(1033.740234 0.684375)"/>
      <use xlink:href="#DejaVuSans-2212" transform="translate(1090.3125 38.965625)scale(0.7)"/>
      <use xlink:href="#DejaVuSans-31" transform="translate(1148.964844 38.965625)scale(0.7)"/>
      <use xlink:href="#ArialMT-5d" transform="translate(1196.235352 0.684375)"/>
     </g>
    </g>
   </g>
   <g id="LineCollection_1">
    <path d="M 90.471864 145.837008 
L 90.471864 113.256041 
" clip-path="url(#p7f04fbd5f7)" style="fill: none; stroke: #808080; stroke-width: 0.5"/>
    <path d="M 162.732203 174.078807 
L 162.732203 151.609653 
" clip-path="url(#p7f04fbd5f7)" style="fill: none; stroke: #808080; stroke-width: 0.5"/>
    <path d="M 234.992542 172.060421 
L 234.992542 151.535875 
" clip-path="url(#p7f04fbd5f7)" style="fill: none; stroke: #808080; stroke-width: 0.5"/>
    <path d="M 307.252881 168.650661 
L 307.252881 148.126114 
" clip-path="url(#p7f04fbd5f7)" style="fill: none; stroke: #808080; stroke-width: 0.5"/>
    <path d="M 379.51322 144.135799 
L 379.51322 120.436905 
" clip-path="url(#p7f04fbd5f7)" style="fill: none; stroke: #808080; stroke-width: 0.5"/>
    <path d="M 451.773559 144.245262 
L 451.773559 120.546368 
" clip-path="url(#p7f04fbd5f7)" style="fill: none; stroke: #808080; stroke-width: 0.5"/>
    <path d="M 524.033898 135.50808 
L 524.033898 111.809186 
" clip-path="url(#p7f04fbd5f7)" style="fill: none; stroke: #808080; stroke-width: 0.5"/>
    <path d="M 596.294237 126.488166 
L 596.294237 102.789272 
" clip-path="url(#p7f04fbd5f7)" style="fill: none; stroke: #808080; stroke-width: 0.5"/>
    <path d="M 668.554576 132.878613 
L 668.554576 109.179719 
" clip-path="url(#p7f04fbd5f7)" style="fill: none; stroke: #808080; stroke-width: 0.5"/>
    <path d="M 740.814915 143.692091 
L 740.814915 119.993197 
" clip-path="url(#p7f04fbd5f7)" style="fill: none; stroke: #808080; stroke-width: 0.5"/>
   </g>
   <g id="line2d_17">
    <defs>
     <path id="m4e3f3929c1" d="M 2 0 
L -2 -0 
" style="stroke: #808080"/>
    </defs>
    <g clip-path="url(#p7f04fbd5f7)">
     <use xlink:href="#m4e3f3929c1" x="90.471864" y="113.256041" style="fill: #808080; stroke: #808080"/>
     <use xlink:href="#m4e3f3929c1" x="162.732203" y="151.609653" style="fill: #808080; stroke: #808080"/>
     <use xlink:href="#m4e3f3929c1" x="234.992542" y="151.535875" style="fill: #808080; stroke: #808080"/>
     <use xlink:href="#m4e3f3929c1" x="307.252881" y="148.126114" style="fill: #808080; stroke: #808080"/>
     <use xlink:href="#m4e3f3929c1" x="379.51322" y="120.436905" style="fill: #808080; stroke: #808080"/>
     <use xlink:href="#m4e3f3929c1" x="451.773559" y="120.546368" style="fill: #808080; stroke: #808080"/>
     <use xlink:href="#m4e3f3929c1" x="524.033898" y="111.809186" style="fill: #808080; stroke: #808080"/>
     <use xlink:href="#m4e3f3929c1" x="596.294237" y="102.789272" style="fill: #808080; stroke: #808080"/>
     <use xlink:href="#m4e3f3929c1" x="668.554576" y="109.179719" style="fill: #808080; stroke: #808080"/>
     <use xlink:href="#m4e3f3929c1" x="740.814915" y="119.993197" style="fill: #808080; stroke: #808080"/>
    </g>
   </g>
   <g id="LineCollection_2">
    <path d="M 90.471864 179.540045 
L 90.471864 145.837008 
" clip-path="url(#p7f04fbd5f7)" style="fill: none; stroke: #ffffff; stroke-width: 0.5"/>
    <path d="M 162.732203 185.313384 
L 162.732203 174.078807 
" clip-path="url(#p7f04fbd5f7)" style="fill: none; stroke: #ffffff; stroke-width: 0.5"/>
    <path d="M 234.992542 191.377642 
L 234.992542 172.060421 
" clip-path="url(#p7f04fbd5f7)" style="fill: none; stroke: #ffffff; stroke-width: 0.5"/>
    <path d="M 307.252881 187.967881 
L 307.252881 168.650661 
" clip-path="url(#p7f04fbd5f7)" style="fill: none; stroke: #ffffff; stroke-width: 0.5"/>
    <path d="M 379.51322 166.44064 
L 379.51322 144.135799 
" clip-path="url(#p7f04fbd5f7)" style="fill: none; stroke: #ffffff; stroke-width: 0.5"/>
    <path d="M 451.773559 166.550103 
L 451.773559 144.245262 
" clip-path="url(#p7f04fbd5f7)" style="fill: none; stroke: #ffffff; stroke-width: 0.5"/>
    <path d="M 524.033898 157.812921 
L 524.033898 135.50808 
" clip-path="url(#p7f04fbd5f7)" style="fill: none; stroke: #ffffff; stroke-width: 0.5"/>
    <path d="M 596.294237 148.793007 
L 596.294237 126.488166 
" clip-path="url(#p7f04fbd5f7)" style="fill: none; stroke: #ffffff; stroke-width: 0.5"/>
    <path d="M 668.554576 155.183454 
L 668.554576 132.878613 
" clip-path="url(#p7f04fbd5f7)" style="fill: none; stroke: #ffffff; stroke-width: 0.5"/>
    <path d="M 740.814915 165.996932 
L 740.814915 143.692091 
" clip-path="url(#p7f04fbd5f7)" style="fill: none; stroke: #ffffff; stroke-width: 0.5"/>
   </g>
   <g id="line2d_18">
    <defs>
     <path id="mbd320a7833" d="M 2 0 
L -2 -0 
" style="stroke: #ffffff"/>
    </defs>
    <g clip-path="url(#p7f04fbd5f7)">
     <use xlink:href="#mbd320a7833" x="90.471864" y="179.540045" style="fill: #ffffff; stroke: #ffffff"/>
     <use xlink:href="#mbd320a7833" x="162.732203" y="185.313384" style="fill: #ffffff; stroke: #ffffff"/>
     <use xlink:href="#mbd320a7833" x="234.992542" y="191.377642" style="fill: #ffffff; stroke: #ffffff"/>
     <use xlink:href="#mbd320a7833" x="307.252881" y="187.967881" style="fill: #ffffff; stroke: #ffffff"/>
     <use xlink:href="#mbd320a7833" x="379.51322" y="166.44064" style="fill: #ffffff; stroke: #ffffff"/>
     <use xlink:href="#mbd320a7833" x="451.773559" y="166.550103" style="fill: #ffffff; stroke: #ffffff"/>
     <use xlink:href="#mbd320a7833" x="524.033898" y="157.812921" style="fill: #ffffff; stroke: #ffffff"/>
     <use xlink:href="#mbd320a7833" x="596.294237" y="148.793007" style="fill: #ffffff; stroke: #ffffff"/>
     <use xlink:href="#mbd320a7833" x="668.554576" y="155.183454" style="fill: #ffffff; stroke: #ffffff"/>
     <use xlink:href="#mbd320a7833" x="740.814915" y="165.996932" style="fill: #ffffff; stroke: #ffffff"/>
    </g>
   </g>
   <g id="line2d_19"/>
   <g id="line2d_20"/>
   <g id="patch_243">
    <path d="M 48.32 324.60348 
L 48.32 7.2 
" style="fill: none; stroke: #000000; stroke-width: 0.8; stroke-linejoin: miter; stroke-linecap: square"/>
   </g>
   <g id="patch_244">
    <path d="M 758.88 324.60348 
L 758.88 7.2 
" style="fill: none; stroke: #000000; stroke-width: 0.8; stroke-linejoin: miter; stroke-linecap: square"/>
   </g>
   <g id="patch_245">
    <path d="M 48.32 324.60348 
L 758.88 324.60348 
" style="fill: none; stroke: #000000; stroke-width: 0.8; stroke-linejoin: miter; stroke-linecap: square"/>
   </g>
   <g id="patch_246">
    <path d="M 48.32 7.2 
L 758.88 7.2 
" style="fill: none; stroke: #000000; stroke-width: 0.8; stroke-linejoin: miter; stroke-linecap: square"/>
   </g>
   <g id="legend_1">
    <g id="patch_247">
     <path d="M 177.907187 375.733203 
L 189.907187 375.733203 
L 189.907187 367.333203 
L 177.907187 367.333203 
z
" style="fill: #808080"/>
    </g>
    <g id="text_18">
     <!-- Natural gas -->
     <g transform="translate(203.107187 375.733203)scale(0.12 -0.12)">
      <use xlink:href="#ArialMT-4e"/>
      <use xlink:href="#ArialMT-61" x="72.216797"/>
      <use xlink:href="#ArialMT-74" x="127.832031"/>
      <use xlink:href="#ArialMT-75" x="155.615234"/>
      <use xlink:href="#ArialMT-72" x="211.230469"/>
      <use xlink:href="#ArialMT-61" x="244.53125"/>
      <use xlink:href="#ArialMT-6c" x="300.146484"/>
      <use xlink:href="#ArialMT-20" x="322.363281"/>
      <use xlink:href="#ArialMT-67" x="350.146484"/>
      <use xlink:href="#ArialMT-61" x="405.761719"/>
      <use xlink:href="#ArialMT-73" x="461.376953"/>
     </g>
    </g>
    <g id="patch_248">
     <path d="M 177.907187 392.848203 
L 189.907187 392.848203 
L 189.907187 384.448203 
L 177.907187 384.448203 
z
" style="fill: #167f99"/>
    </g>
    <g id="text_19">
     <!-- Water -->
     <g transform="translate(203.107187 392.848203)scale(0.12 -0.12)">
      <defs>
       <path id="ArialMT-57" d="M 1294 0 
L 78 4581 
L 700 4581 
L 1397 1578 
Q 1509 1106 1591 641 
Q 1766 1375 1797 1488 
L 2669 4581 
L 3400 4581 
L 4056 2263 
Q 4303 1400 4413 641 
Q 4500 1075 4641 1638 
L 5359 4581 
L 5969 4581 
L 4713 0 
L 4128 0 
L 3163 3491 
Q 3041 3928 3019 4028 
Q 2947 3713 2884 3491 
L 1913 0 
L 1294 0 
z
" transform="scale(0.015625)"/>
      </defs>
      <use xlink:href="#ArialMT-57"/>
      <use xlink:href="#ArialMT-61" x="90.634766"/>
      <use xlink:href="#ArialMT-74" x="146.25"/>
      <use xlink:href="#ArialMT-65" x="174.033203"/>
      <use xlink:href="#ArialMT-72" x="229.648438"/>
     </g>
    </g>
    <g id="patch_249">
     <path d="M 288.468437 375.733203 
L 300.468437 375.733203 
L 300.468437 367.333203 
L 288.468437 367.333203 
z
" style="fill: #a9d898"/>
    </g>
    <g id="text_20">
     <!-- Hydrogen -->
     <g transform="translate(313.668437 375.733203)scale(0.12 -0.12)">
      <defs>
       <path id="ArialMT-48" d="M 513 0 
L 513 4581 
L 1119 4581 
L 1119 2700 
L 3500 2700 
L 3500 4581 
L 4106 4581 
L 4106 0 
L 3500 0 
L 3500 2159 
L 1119 2159 
L 1119 0 
L 513 0 
z
" transform="scale(0.015625)"/>
       <path id="ArialMT-79" d="M 397 -1278 
L 334 -750 
Q 519 -800 656 -800 
Q 844 -800 956 -737 
Q 1069 -675 1141 -563 
Q 1194 -478 1313 -144 
Q 1328 -97 1363 -6 
L 103 3319 
L 709 3319 
L 1400 1397 
Q 1534 1031 1641 628 
Q 1738 1016 1872 1384 
L 2581 3319 
L 3144 3319 
L 1881 -56 
Q 1678 -603 1566 -809 
Q 1416 -1088 1222 -1217 
Q 1028 -1347 759 -1347 
Q 597 -1347 397 -1278 
z
" transform="scale(0.015625)"/>
      </defs>
      <use xlink:href="#ArialMT-48"/>
      <use xlink:href="#ArialMT-79" x="72.216797"/>
      <use xlink:href="#ArialMT-64" x="122.216797"/>
      <use xlink:href="#ArialMT-72" x="177.832031"/>
      <use xlink:href="#ArialMT-6f" x="211.132812"/>
      <use xlink:href="#ArialMT-67" x="266.748047"/>
      <use xlink:href="#ArialMT-65" x="322.363281"/>
      <use xlink:href="#ArialMT-6e" x="377.978516"/>
     </g>
    </g>
    <g id="patch_250">
     <path d="M 288.468437 393.018828 
L 300.468437 393.018828 
L 300.468437 384.618828 
L 288.468437 384.618828 
z
" style="fill: #6dd2ea"/>
    </g>
    <g id="text_21">
     <!-- Nitrogen or CO$_\mathrm{2}$ -->
     <g transform="translate(313.668437 393.018828)scale(0.12 -0.12)">
      <defs>
       <path id="ArialMT-43" d="M 3763 1606 
L 4369 1453 
Q 4178 706 3683 314 
Q 3188 -78 2472 -78 
Q 1731 -78 1267 223 
Q 803 525 561 1097 
Q 319 1669 319 2325 
Q 319 3041 592 3573 
Q 866 4106 1370 4382 
Q 1875 4659 2481 4659 
Q 3169 4659 3637 4309 
Q 4106 3959 4291 3325 
L 3694 3184 
Q 3534 3684 3231 3912 
Q 2928 4141 2469 4141 
Q 1941 4141 1586 3887 
Q 1231 3634 1087 3207 
Q 944 2781 944 2328 
Q 944 1744 1114 1308 
Q 1284 872 1643 656 
Q 2003 441 2422 441 
Q 2931 441 3284 734 
Q 3638 1028 3763 1606 
z
" transform="scale(0.015625)"/>
       <path id="DejaVuSans-32" d="M 1228 531 
L 3431 531 
L 3431 0 
L 469 0 
L 469 531 
Q 828 903 1448 1529 
Q 2069 2156 2228 2338 
Q 2531 2678 2651 2914 
Q 2772 3150 2772 3378 
Q 2772 3750 2511 3984 
Q 2250 4219 1831 4219 
Q 1534 4219 1204 4116 
Q 875 4013 500 3803 
L 500 4441 
Q 881 4594 1212 4672 
Q 1544 4750 1819 4750 
Q 2544 4750 2975 4387 
Q 3406 4025 3406 3419 
Q 3406 3131 3298 2873 
Q 3191 2616 2906 2266 
Q 2828 2175 2409 1742 
Q 1991 1309 1228 531 
z
" transform="scale(0.015625)"/>
      </defs>
      <use xlink:href="#ArialMT-4e" transform="translate(0 0.140625)"/>
      <use xlink:href="#ArialMT-69" transform="translate(72.216797 0.140625)"/>
      <use xlink:href="#ArialMT-74" transform="translate(94.433594 0.140625)"/>
      <use xlink:href="#ArialMT-72" transform="translate(122.216797 0.140625)"/>
      <use xlink:href="#ArialMT-6f" transform="translate(155.517578 0.140625)"/>
      <use xlink:href="#ArialMT-67" transform="translate(211.132812 0.140625)"/>
      <use xlink:href="#ArialMT-65" transform="translate(266.748047 0.140625)"/>
      <use xlink:href="#ArialMT-6e" transform="translate(322.363281 0.140625)"/>
      <use xlink:href="#ArialMT-20" transform="translate(377.978516 0.140625)"/>
      <use xlink:href="#ArialMT-6f" transform="translate(405.761719 0.140625)"/>
      <use xlink:href="#ArialMT-72" transform="translate(461.376953 0.140625)"/>
      <use xlink:href="#ArialMT-20" transform="translate(494.677734 0.140625)"/>
      <use xlink:href="#ArialMT-43" transform="translate(522.460938 0.140625)"/>
      <use xlink:href="#ArialMT-4f" transform="translate(594.677734 0.140625)"/>
      <use xlink:href="#DejaVuSans-32" transform="translate(673.417969 -16.265625)scale(0.7)"/>
     </g>
    </g>
    <g id="patch_251">
     <path d="M 424.188437 375.733203 
L 436.188437 375.733203 
L 436.188437 367.333203 
L 424.188437 367.333203 
z
" style="fill: #fb7b71"/>
    </g>
    <g id="text_22">
     <!-- Electricity -->
     <g transform="translate(449.388437 375.733203)scale(0.12 -0.12)">
      <defs>
       <path id="ArialMT-45" d="M 506 0 
L 506 4581 
L 3819 4581 
L 3819 4041 
L 1113 4041 
L 1113 2638 
L 3647 2638 
L 3647 2100 
L 1113 2100 
L 1113 541 
L 3925 541 
L 3925 0 
L 506 0 
z
" transform="scale(0.015625)"/>
      </defs>
      <use xlink:href="#ArialMT-45"/>
      <use xlink:href="#ArialMT-6c" x="66.699219"/>
      <use xlink:href="#ArialMT-65" x="88.916016"/>
      <use xlink:href="#ArialMT-63" x="144.53125"/>
      <use xlink:href="#ArialMT-74" x="194.53125"/>
      <use xlink:href="#ArialMT-72" x="222.314453"/>
      <use xlink:href="#ArialMT-69" x="255.615234"/>
      <use xlink:href="#ArialMT-63" x="277.832031"/>
      <use xlink:href="#ArialMT-69" x="327.832031"/>
      <use xlink:href="#ArialMT-74" x="350.048828"/>
      <use xlink:href="#ArialMT-79" x="377.832031"/>
     </g>
    </g>
    <g id="patch_252">
     <path d="M 424.188437 392.848203 
L 436.188437 392.848203 
L 436.188437 384.448203 
L 424.188437 384.448203 
z
" style="fill: #b71205"/>
    </g>
    <g id="text_23">
     <!-- Other utilities -->
     <g transform="translate(449.388437 392.848203)scale(0.12 -0.12)">
      <defs>
       <path id="ArialMT-68" d="M 422 0 
L 422 4581 
L 984 4581 
L 984 2938 
Q 1378 3394 1978 3394 
Q 2347 3394 2619 3248 
Q 2891 3103 3008 2847 
Q 3125 2591 3125 2103 
L 3125 0 
L 2563 0 
L 2563 2103 
Q 2563 2525 2380 2717 
Q 2197 2909 1863 2909 
Q 1613 2909 1392 2779 
Q 1172 2650 1078 2428 
Q 984 2206 984 1816 
L 984 0 
L 422 0 
z
" transform="scale(0.015625)"/>
      </defs>
      <use xlink:href="#ArialMT-4f"/>
      <use xlink:href="#ArialMT-74" x="77.783203"/>
      <use xlink:href="#ArialMT-68" x="105.566406"/>
      <use xlink:href="#ArialMT-65" x="161.181641"/>
      <use xlink:href="#ArialMT-72" x="216.796875"/>
      <use xlink:href="#ArialMT-20" x="250.097656"/>
      <use xlink:href="#ArialMT-75" x="277.880859"/>
      <use xlink:href="#ArialMT-74" x="333.496094"/>
      <use xlink:href="#ArialMT-69" x="361.279297"/>
      <use xlink:href="#ArialMT-6c" x="383.496094"/>
      <use xlink:href="#ArialMT-69" x="405.712891"/>
      <use xlink:href="#ArialMT-74" x="427.929688"/>
      <use xlink:href="#ArialMT-69" x="455.712891"/>
      <use xlink:href="#ArialMT-65" x="477.929688"/>
      <use xlink:href="#ArialMT-73" x="533.544922"/>
     </g>
    </g>
    <g id="patch_253">
     <path d="M 543.410312 375.733203 
L 555.410312 375.733203 
L 555.410312 367.333203 
L 543.410312 367.333203 
z
" style="fill: #52318e"/>
    </g>
    <g id="text_24">
     <!-- Fixed costs -->
     <g transform="translate(568.610312 375.733203)scale(0.12 -0.12)">
      <defs>
       <path id="ArialMT-46" d="M 525 0 
L 525 4581 
L 3616 4581 
L 3616 4041 
L 1131 4041 
L 1131 2622 
L 3281 2622 
L 3281 2081 
L 1131 2081 
L 1131 0 
L 525 0 
z
" transform="scale(0.015625)"/>
       <path id="ArialMT-78" d="M 47 0 
L 1259 1725 
L 138 3319 
L 841 3319 
L 1350 2541 
Q 1494 2319 1581 2169 
Q 1719 2375 1834 2534 
L 2394 3319 
L 3066 3319 
L 1919 1756 
L 3153 0 
L 2463 0 
L 1781 1031 
L 1600 1309 
L 728 0 
L 47 0 
z
" transform="scale(0.015625)"/>
      </defs>
      <use xlink:href="#ArialMT-46"/>
      <use xlink:href="#ArialMT-69" x="61.083984"/>
      <use xlink:href="#ArialMT-78" x="83.300781"/>
      <use xlink:href="#ArialMT-65" x="133.300781"/>
      <use xlink:href="#ArialMT-64" x="188.916016"/>
      <use xlink:href="#ArialMT-20" x="244.53125"/>
      <use xlink:href="#ArialMT-63" x="272.314453"/>
      <use xlink:href="#ArialMT-6f" x="322.314453"/>
      <use xlink:href="#ArialMT-73" x="377.929688"/>
      <use xlink:href="#ArialMT-74" x="427.929688"/>
      <use xlink:href="#ArialMT-73" x="455.712891"/>
     </g>
    </g>
    <g id="patch_254">
     <path d="M 543.410312 392.707578 
L 555.410312 392.707578 
L 555.410312 384.307578 
L 543.410312 384.307578 
z
" style="fill: #a78dd8"/>
    </g>
    <g id="text_25">
     <!-- CAPEX -->
     <g transform="translate(568.610312 392.707578)scale(0.12 -0.12)">
      <defs>
       <path id="ArialMT-58" d="M 28 0 
L 1800 2388 
L 238 4581 
L 959 4581 
L 1791 3406 
Q 2050 3041 2159 2844 
Q 2313 3094 2522 3366 
L 3444 4581 
L 4103 4581 
L 2494 2422 
L 4228 0 
L 3478 0 
L 2325 1634 
Q 2228 1775 2125 1941 
Q 1972 1691 1906 1597 
L 756 0 
L 28 0 
z
" transform="scale(0.015625)"/>
      </defs>
      <use xlink:href="#ArialMT-43"/>
      <use xlink:href="#ArialMT-41" x="72.216797"/>
      <use xlink:href="#ArialMT-50" x="138.916016"/>
      <use xlink:href="#ArialMT-45" x="205.615234"/>
      <use xlink:href="#ArialMT-58" x="272.314453"/>
     </g>
    </g>
   </g>
  </g>
 </g>
 <defs>
  <clipPath id="p7f04fbd5f7">
   <rect x="48.32" y="7.2" width="710.56" height="317.40348"/>
  </clipPath>
 </defs>
</svg>
