<?xml version="1.0" encoding="utf-8" standalone="no"?>
<!DOCTYPE svg PUBLIC "-//W3C//DTD SVG 1.1//EN"
  "http://www.w3.org/Graphics/SVG/1.1/DTD/svg11.dtd">
<svg xmlns:xlink="http://www.w3.org/1999/xlink" width="373.616124pt" height="338.4pt" viewBox="0 0 373.616124 338.4" xmlns="http://www.w3.org/2000/svg" version="1.1">
 <metadata>
  <rdf:RDF xmlns:dc="http://purl.org/dc/elements/1.1/" xmlns:cc="http://creativecommons.org/ns#" xmlns:rdf="http://www.w3.org/1999/02/22-rdf-syntax-ns#">
   <cc:Work>
    <dc:type rdf:resource="http://purl.org/dc/dcmitype/StillImage"/>
    <dc:date>2023-03-23T21:15:50.217413</dc:date>
    <dc:format>image/svg+xml</dc:format>
    <dc:creator>
     <cc:Agent>
      <dc:title>Matplotlib v3.5.1, https://matplotlib.org/</dc:title>
     </cc:Agent>
    </dc:creator>
   </cc:Work>
  </rdf:RDF>
 </metadata>
 <defs>
  <style type="text/css">*{stroke-linejoin: round; stroke-linecap: butt}</style>
 </defs>
 <g id="figure_1">
  <g id="patch_1">
   <path d="M 0 338.4 
L 373.616124 338.4 
L 373.616124 0 
L 0 0 
z
" style="fill: #ffffff"/>
  </g>
  <g id="axes_1">
   <g id="patch_2">
    <path d="M 48.32 313.225625 
L 352.599978 313.225625 
L 352.599978 7.2 
L 48.32 7.2 
z
" style="fill: #ffffff"/>
   </g>
   <g id="line2d_1">
    <path d="M 54.659166 284.110912 
L 60.998332 287.999945 
L 67.337499 295.188763 
L 73.676665 291.441149 
L 80.015831 290.934397 
L 86.354997 294.075085 
L 92.694163 289.826612 
L 99.03333 291.529537 
L 105.372496 292.148246 
L 111.711662 291.452934 
L 118.050828 289.066483 
L 124.389994 294.387386 
L 130.729161 292.613752 
L 137.068327 300.315215 
L 143.407493 299.955774 
L 149.746659 303.178957 
L 156.085825 302.854871 
L 162.424992 297.769666 
L 168.764158 295.506956 
L 175.103324 292.666784 
L 181.44249 287.4873 
L 187.781656 293.214784 
L 194.120823 290.362827 
L 200.459989 287.563902 
L 206.799155 282.119256 
L 213.138321 284.523385 
L 219.477488 285.424934 
L 225.816654 281.606611 
L 232.15582 281.801062 
L 238.494986 269.544717 
L 244.834152 265.325706 
L 251.173319 264.43005 
L 257.512485 237.601617 
L 263.851651 231.002046 
L 270.190817 209.370775 
L 276.529983 183.025525 
L 282.86915 214.308668 
L 289.208316 237.342348 
L 295.547482 164.876705 
L 301.886648 215.41056 
L 308.225814 208.628323 
L 314.564981 184.663632 
L 320.904147 127.459497 
L 327.243313 36.662369 
L 333.582479 100.990505 
L 339.921645 220.254174 
L 346.260812 209.842173 
" clip-path="url(#pe649d8439d)" style="fill: none; stroke: #000000; stroke-width: 1.5; stroke-linecap: square"/>
   </g>
   <g id="PathCollection_1">
    <defs>
     <path id="mb72f395dcf" d="M 0 2.236068 
C 0.593012 2.236068 1.161816 2.000462 1.581139 1.581139 
C 2.000462 1.161816 2.236068 0.593012 2.236068 0 
C 2.236068 -0.593012 2.000462 -1.161816 1.581139 -1.581139 
C 1.161816 -2.000462 0.593012 -2.236068 0 -2.236068 
C -0.593012 -2.236068 -1.161816 -2.000462 -1.581139 -1.581139 
C -2.000462 -1.161816 -2.236068 -0.593012 -2.236068 0 
C -2.236068 0.593012 -2.000462 1.161816 -1.581139 1.581139 
C -1.161816 2.000462 -0.593012 2.236068 0 2.236068 
z
" style="stroke: #000000"/>
    </defs>
    <g clip-path="url(#pe649d8439d)">
     <use xlink:href="#mb72f395dcf" x="54.659166" y="284.110912" style="fill: #ffffff; stroke: #000000"/>
     <use xlink:href="#mb72f395dcf" x="60.998332" y="287.999945" style="fill: #ffffff; stroke: #000000"/>
     <use xlink:href="#mb72f395dcf" x="67.337499" y="295.188763" style="fill: #ffffff; stroke: #000000"/>
     <use xlink:href="#mb72f395dcf" x="73.676665" y="291.441149" style="fill: #ffffff; stroke: #000000"/>
     <use xlink:href="#mb72f395dcf" x="80.015831" y="290.934397" style="fill: #ffffff; stroke: #000000"/>
     <use xlink:href="#mb72f395dcf" x="86.354997" y="294.075085" style="fill: #ffffff; stroke: #000000"/>
     <use xlink:href="#mb72f395dcf" x="92.694163" y="289.826612" style="fill: #ffffff; stroke: #000000"/>
     <use xlink:href="#mb72f395dcf" x="99.03333" y="291.529537" style="fill: #ffffff; stroke: #000000"/>
     <use xlink:href="#mb72f395dcf" x="105.372496" y="292.148246" style="fill: #ffffff; stroke: #000000"/>
     <use xlink:href="#mb72f395dcf" x="111.711662" y="291.452934" style="fill: #ffffff; stroke: #000000"/>
     <use xlink:href="#mb72f395dcf" x="118.050828" y="289.066483" style="fill: #ffffff; stroke: #000000"/>
     <use xlink:href="#mb72f395dcf" x="124.389994" y="294.387386" style="fill: #ffffff; stroke: #000000"/>
     <use xlink:href="#mb72f395dcf" x="130.729161" y="292.613752" style="fill: #ffffff; stroke: #000000"/>
     <use xlink:href="#mb72f395dcf" x="137.068327" y="300.315215" style="fill: #ffffff; stroke: #000000"/>
     <use xlink:href="#mb72f395dcf" x="143.407493" y="299.955774" style="fill: #ffffff; stroke: #000000"/>
     <use xlink:href="#mb72f395dcf" x="149.746659" y="303.178957" style="fill: #ffffff; stroke: #000000"/>
     <use xlink:href="#mb72f395dcf" x="156.085825" y="302.854871" style="fill: #ffffff; stroke: #000000"/>
     <use xlink:href="#mb72f395dcf" x="162.424992" y="297.769666" style="fill: #ffffff; stroke: #000000"/>
     <use xlink:href="#mb72f395dcf" x="168.764158" y="295.506956" style="fill: #ffffff; stroke: #000000"/>
     <use xlink:href="#mb72f395dcf" x="175.103324" y="292.666784" style="fill: #ffffff; stroke: #000000"/>
     <use xlink:href="#mb72f395dcf" x="181.44249" y="287.4873" style="fill: #ffffff; stroke: #000000"/>
     <use xlink:href="#mb72f395dcf" x="187.781656" y="293.214784" style="fill: #ffffff; stroke: #000000"/>
     <use xlink:href="#mb72f395dcf" x="194.120823" y="290.362827" style="fill: #ffffff; stroke: #000000"/>
     <use xlink:href="#mb72f395dcf" x="200.459989" y="287.563902" style="fill: #ffffff; stroke: #000000"/>
     <use xlink:href="#mb72f395dcf" x="206.799155" y="282.119256" style="fill: #ffffff; stroke: #000000"/>
     <use xlink:href="#mb72f395dcf" x="213.138321" y="284.523385" style="fill: #ffffff; stroke: #000000"/>
     <use xlink:href="#mb72f395dcf" x="219.477488" y="285.424934" style="fill: #ffffff; stroke: #000000"/>
     <use xlink:href="#mb72f395dcf" x="225.816654" y="281.606611" style="fill: #ffffff; stroke: #000000"/>
     <use xlink:href="#mb72f395dcf" x="232.15582" y="281.801062" style="fill: #ffffff; stroke: #000000"/>
     <use xlink:href="#mb72f395dcf" x="238.494986" y="269.544717" style="fill: #ffffff; stroke: #000000"/>
     <use xlink:href="#mb72f395dcf" x="244.834152" y="265.325706" style="fill: #ffffff; stroke: #000000"/>
     <use xlink:href="#mb72f395dcf" x="251.173319" y="264.43005" style="fill: #ffffff; stroke: #000000"/>
     <use xlink:href="#mb72f395dcf" x="257.512485" y="237.601617" style="fill: #ffffff; stroke: #000000"/>
     <use xlink:href="#mb72f395dcf" x="263.851651" y="231.002046" style="fill: #ffffff; stroke: #000000"/>
     <use xlink:href="#mb72f395dcf" x="270.190817" y="209.370775" style="fill: #ffffff; stroke: #000000"/>
     <use xlink:href="#mb72f395dcf" x="276.529983" y="183.025525" style="fill: #ffffff; stroke: #000000"/>
     <use xlink:href="#mb72f395dcf" x="282.86915" y="214.308668" style="fill: #ffffff; stroke: #000000"/>
     <use xlink:href="#mb72f395dcf" x="289.208316" y="237.342348" style="fill: #ffffff; stroke: #000000"/>
     <use xlink:href="#mb72f395dcf" x="295.547482" y="164.876705" style="fill: #ffffff; stroke: #000000"/>
     <use xlink:href="#mb72f395dcf" x="301.886648" y="215.41056" style="fill: #ffffff; stroke: #000000"/>
     <use xlink:href="#mb72f395dcf" x="308.225814" y="208.628323" style="fill: #ffffff; stroke: #000000"/>
     <use xlink:href="#mb72f395dcf" x="314.564981" y="184.663632" style="fill: #ffffff; stroke: #000000"/>
     <use xlink:href="#mb72f395dcf" x="320.904147" y="127.459497" style="fill: #ffffff; stroke: #000000"/>
     <use xlink:href="#mb72f395dcf" x="327.243313" y="36.662369" style="fill: #ffffff; stroke: #000000"/>
     <use xlink:href="#mb72f395dcf" x="333.582479" y="100.990505" style="fill: #ffffff; stroke: #000000"/>
     <use xlink:href="#mb72f395dcf" x="339.921645" y="220.254174" style="fill: #ffffff; stroke: #000000"/>
     <use xlink:href="#mb72f395dcf" x="346.260812" y="209.842173" style="fill: #ffffff; stroke: #000000"/>
    </g>
   </g>
   <g id="matplotlib.axis_1">
    <g id="xtick_1">
     <g id="line2d_2">
      <defs>
       <path id="mbf80cb7e30" d="M 0 0 
L 0 3.5 
" style="stroke: #000000; stroke-width: 0.8"/>
      </defs>
      <g>
       <use xlink:href="#mbf80cb7e30" x="54.659166" y="313.225625" style="stroke: #000000; stroke-width: 0.8"/>
      </g>
     </g>
     <g id="text_1">
      <!-- Jan '19 -->
      <g transform="translate(35.500416 328.815)scale(0.12 -0.12)">
       <defs>
        <path id="ArialMT-4a" d="M 184 1300 
L 731 1375 
Q 753 850 928 656 
Q 1103 463 1413 463 
Q 1641 463 1806 567 
Q 1972 672 2034 851 
Q 2097 1031 2097 1425 
L 2097 4581 
L 2703 4581 
L 2703 1459 
Q 2703 884 2564 568 
Q 2425 253 2123 87 
Q 1822 -78 1416 -78 
Q 813 -78 492 269 
Q 172 616 184 1300 
z
" transform="scale(0.015625)"/>
        <path id="ArialMT-61" d="M 2588 409 
Q 2275 144 1986 34 
Q 1697 -75 1366 -75 
Q 819 -75 525 192 
Q 231 459 231 875 
Q 231 1119 342 1320 
Q 453 1522 633 1644 
Q 813 1766 1038 1828 
Q 1203 1872 1538 1913 
Q 2219 1994 2541 2106 
Q 2544 2222 2544 2253 
Q 2544 2597 2384 2738 
Q 2169 2928 1744 2928 
Q 1347 2928 1158 2789 
Q 969 2650 878 2297 
L 328 2372 
Q 403 2725 575 2942 
Q 747 3159 1072 3276 
Q 1397 3394 1825 3394 
Q 2250 3394 2515 3294 
Q 2781 3194 2906 3042 
Q 3031 2891 3081 2659 
Q 3109 2516 3109 2141 
L 3109 1391 
Q 3109 606 3145 398 
Q 3181 191 3288 0 
L 2700 0 
Q 2613 175 2588 409 
z
M 2541 1666 
Q 2234 1541 1622 1453 
Q 1275 1403 1131 1340 
Q 988 1278 909 1158 
Q 831 1038 831 891 
Q 831 666 1001 516 
Q 1172 366 1500 366 
Q 1825 366 2078 508 
Q 2331 650 2450 897 
Q 2541 1088 2541 1459 
L 2541 1666 
z
" transform="scale(0.015625)"/>
        <path id="ArialMT-6e" d="M 422 0 
L 422 3319 
L 928 3319 
L 928 2847 
Q 1294 3394 1984 3394 
Q 2284 3394 2536 3286 
Q 2788 3178 2913 3003 
Q 3038 2828 3088 2588 
Q 3119 2431 3119 2041 
L 3119 0 
L 2556 0 
L 2556 2019 
Q 2556 2363 2490 2533 
Q 2425 2703 2258 2804 
Q 2091 2906 1866 2906 
Q 1506 2906 1245 2678 
Q 984 2450 984 1813 
L 984 0 
L 422 0 
z
" transform="scale(0.015625)"/>
        <path id="ArialMT-20" transform="scale(0.015625)"/>
        <path id="ArialMT-27" d="M 425 2959 
L 281 3816 
L 281 4581 
L 922 4581 
L 922 3816 
L 772 2959 
L 425 2959 
z
" transform="scale(0.015625)"/>
        <path id="ArialMT-31" d="M 2384 0 
L 1822 0 
L 1822 3584 
Q 1619 3391 1289 3197 
Q 959 3003 697 2906 
L 697 3450 
Q 1169 3672 1522 3987 
Q 1875 4303 2022 4600 
L 2384 4600 
L 2384 0 
z
" transform="scale(0.015625)"/>
        <path id="ArialMT-39" d="M 350 1059 
L 891 1109 
Q 959 728 1153 556 
Q 1347 384 1650 384 
Q 1909 384 2104 503 
Q 2300 622 2425 820 
Q 2550 1019 2634 1356 
Q 2719 1694 2719 2044 
Q 2719 2081 2716 2156 
Q 2547 1888 2255 1720 
Q 1963 1553 1622 1553 
Q 1053 1553 659 1965 
Q 266 2378 266 3053 
Q 266 3750 677 4175 
Q 1088 4600 1706 4600 
Q 2153 4600 2523 4359 
Q 2894 4119 3086 3673 
Q 3278 3228 3278 2384 
Q 3278 1506 3087 986 
Q 2897 466 2520 194 
Q 2144 -78 1638 -78 
Q 1100 -78 759 220 
Q 419 519 350 1059 
z
M 2653 3081 
Q 2653 3566 2395 3850 
Q 2138 4134 1775 4134 
Q 1400 4134 1122 3828 
Q 844 3522 844 3034 
Q 844 2597 1108 2323 
Q 1372 2050 1759 2050 
Q 2150 2050 2401 2323 
Q 2653 2597 2653 3081 
z
" transform="scale(0.015625)"/>
       </defs>
       <use xlink:href="#ArialMT-4a"/>
       <use xlink:href="#ArialMT-61" x="50"/>
       <use xlink:href="#ArialMT-6e" x="105.615234"/>
       <use xlink:href="#ArialMT-20" x="161.230469"/>
       <use xlink:href="#ArialMT-27" x="189.013672"/>
       <use xlink:href="#ArialMT-31" x="208.105469"/>
       <use xlink:href="#ArialMT-39" x="263.720703"/>
      </g>
     </g>
    </g>
    <g id="xtick_2">
     <g id="line2d_3">
      <g>
       <use xlink:href="#mbf80cb7e30" x="130.729161" y="313.225625" style="stroke: #000000; stroke-width: 0.8"/>
      </g>
     </g>
     <g id="text_2">
      <!-- Jan '20 -->
      <g transform="translate(111.570411 328.815)scale(0.12 -0.12)">
       <defs>
        <path id="ArialMT-32" d="M 3222 541 
L 3222 0 
L 194 0 
Q 188 203 259 391 
Q 375 700 629 1000 
Q 884 1300 1366 1694 
Q 2113 2306 2375 2664 
Q 2638 3022 2638 3341 
Q 2638 3675 2398 3904 
Q 2159 4134 1775 4134 
Q 1369 4134 1125 3890 
Q 881 3647 878 3216 
L 300 3275 
Q 359 3922 746 4261 
Q 1134 4600 1788 4600 
Q 2447 4600 2831 4234 
Q 3216 3869 3216 3328 
Q 3216 3053 3103 2787 
Q 2991 2522 2730 2228 
Q 2469 1934 1863 1422 
Q 1356 997 1212 845 
Q 1069 694 975 541 
L 3222 541 
z
" transform="scale(0.015625)"/>
        <path id="ArialMT-30" d="M 266 2259 
Q 266 3072 433 3567 
Q 600 4063 929 4331 
Q 1259 4600 1759 4600 
Q 2128 4600 2406 4451 
Q 2684 4303 2865 4023 
Q 3047 3744 3150 3342 
Q 3253 2941 3253 2259 
Q 3253 1453 3087 958 
Q 2922 463 2592 192 
Q 2263 -78 1759 -78 
Q 1097 -78 719 397 
Q 266 969 266 2259 
z
M 844 2259 
Q 844 1131 1108 757 
Q 1372 384 1759 384 
Q 2147 384 2411 759 
Q 2675 1134 2675 2259 
Q 2675 3391 2411 3762 
Q 2147 4134 1753 4134 
Q 1366 4134 1134 3806 
Q 844 3388 844 2259 
z
" transform="scale(0.015625)"/>
       </defs>
       <use xlink:href="#ArialMT-4a"/>
       <use xlink:href="#ArialMT-61" x="50"/>
       <use xlink:href="#ArialMT-6e" x="105.615234"/>
       <use xlink:href="#ArialMT-20" x="161.230469"/>
       <use xlink:href="#ArialMT-27" x="189.013672"/>
       <use xlink:href="#ArialMT-32" x="208.105469"/>
       <use xlink:href="#ArialMT-30" x="263.720703"/>
      </g>
     </g>
    </g>
    <g id="xtick_3">
     <g id="line2d_4">
      <g>
       <use xlink:href="#mbf80cb7e30" x="206.799155" y="313.225625" style="stroke: #000000; stroke-width: 0.8"/>
      </g>
     </g>
     <g id="text_3">
      <!-- Jan '21 -->
      <g transform="translate(187.640405 328.815)scale(0.12 -0.12)">
       <use xlink:href="#ArialMT-4a"/>
       <use xlink:href="#ArialMT-61" x="50"/>
       <use xlink:href="#ArialMT-6e" x="105.615234"/>
       <use xlink:href="#ArialMT-20" x="161.230469"/>
       <use xlink:href="#ArialMT-27" x="189.013672"/>
       <use xlink:href="#ArialMT-32" x="208.105469"/>
       <use xlink:href="#ArialMT-31" x="263.720703"/>
      </g>
     </g>
    </g>
    <g id="xtick_4">
     <g id="line2d_5">
      <g>
       <use xlink:href="#mbf80cb7e30" x="282.86915" y="313.225625" style="stroke: #000000; stroke-width: 0.8"/>
      </g>
     </g>
     <g id="text_4">
      <!-- Jan '22 -->
      <g transform="translate(263.7104 328.815)scale(0.12 -0.12)">
       <use xlink:href="#ArialMT-4a"/>
       <use xlink:href="#ArialMT-61" x="50"/>
       <use xlink:href="#ArialMT-6e" x="105.615234"/>
       <use xlink:href="#ArialMT-20" x="161.230469"/>
       <use xlink:href="#ArialMT-27" x="189.013672"/>
       <use xlink:href="#ArialMT-32" x="208.105469"/>
       <use xlink:href="#ArialMT-32" x="263.720703"/>
      </g>
     </g>
    </g>
    <g id="xtick_5">
     <g id="line2d_6">
      <g>
       <use xlink:href="#mbf80cb7e30" x="346.260812" y="313.225625" style="stroke: #000000; stroke-width: 0.8"/>
      </g>
     </g>
     <g id="text_5">
      <!-- Nov '22 -->
      <g transform="translate(326.105499 328.815)scale(0.12 -0.12)">
       <defs>
        <path id="ArialMT-4e" d="M 488 0 
L 488 4581 
L 1109 4581 
L 3516 984 
L 3516 4581 
L 4097 4581 
L 4097 0 
L 3475 0 
L 1069 3600 
L 1069 0 
L 488 0 
z
" transform="scale(0.015625)"/>
        <path id="ArialMT-6f" d="M 213 1659 
Q 213 2581 725 3025 
Q 1153 3394 1769 3394 
Q 2453 3394 2887 2945 
Q 3322 2497 3322 1706 
Q 3322 1066 3130 698 
Q 2938 331 2570 128 
Q 2203 -75 1769 -75 
Q 1072 -75 642 372 
Q 213 819 213 1659 
z
M 791 1659 
Q 791 1022 1069 705 
Q 1347 388 1769 388 
Q 2188 388 2466 706 
Q 2744 1025 2744 1678 
Q 2744 2294 2464 2611 
Q 2184 2928 1769 2928 
Q 1347 2928 1069 2612 
Q 791 2297 791 1659 
z
" transform="scale(0.015625)"/>
        <path id="ArialMT-76" d="M 1344 0 
L 81 3319 
L 675 3319 
L 1388 1331 
Q 1503 1009 1600 663 
Q 1675 925 1809 1294 
L 2547 3319 
L 3125 3319 
L 1869 0 
L 1344 0 
z
" transform="scale(0.015625)"/>
       </defs>
       <use xlink:href="#ArialMT-4e"/>
       <use xlink:href="#ArialMT-6f" x="72.216797"/>
       <use xlink:href="#ArialMT-76" x="127.832031"/>
       <use xlink:href="#ArialMT-20" x="177.832031"/>
       <use xlink:href="#ArialMT-27" x="205.615234"/>
       <use xlink:href="#ArialMT-32" x="224.707031"/>
       <use xlink:href="#ArialMT-32" x="280.322266"/>
      </g>
     </g>
    </g>
    <g id="xtick_6">
     <g id="line2d_7">
      <defs>
       <path id="m926b73a668" d="M 0 0 
L 0 2 
" style="stroke: #000000; stroke-width: 0.6"/>
      </defs>
      <g>
       <use xlink:href="#m926b73a668" x="67.337499" y="313.225625" style="stroke: #000000; stroke-width: 0.6"/>
      </g>
     </g>
    </g>
    <g id="xtick_7">
     <g id="line2d_8">
      <g>
       <use xlink:href="#m926b73a668" x="80.015831" y="313.225625" style="stroke: #000000; stroke-width: 0.6"/>
      </g>
     </g>
    </g>
    <g id="xtick_8">
     <g id="line2d_9">
      <g>
       <use xlink:href="#m926b73a668" x="92.694163" y="313.225625" style="stroke: #000000; stroke-width: 0.6"/>
      </g>
     </g>
    </g>
    <g id="xtick_9">
     <g id="line2d_10">
      <g>
       <use xlink:href="#m926b73a668" x="105.372496" y="313.225625" style="stroke: #000000; stroke-width: 0.6"/>
      </g>
     </g>
    </g>
    <g id="xtick_10">
     <g id="line2d_11">
      <g>
       <use xlink:href="#m926b73a668" x="118.050828" y="313.225625" style="stroke: #000000; stroke-width: 0.6"/>
      </g>
     </g>
    </g>
    <g id="xtick_11">
     <g id="line2d_12">
      <g>
       <use xlink:href="#m926b73a668" x="143.407493" y="313.225625" style="stroke: #000000; stroke-width: 0.6"/>
      </g>
     </g>
    </g>
    <g id="xtick_12">
     <g id="line2d_13">
      <g>
       <use xlink:href="#m926b73a668" x="156.085825" y="313.225625" style="stroke: #000000; stroke-width: 0.6"/>
      </g>
     </g>
    </g>
    <g id="xtick_13">
     <g id="line2d_14">
      <g>
       <use xlink:href="#m926b73a668" x="168.764158" y="313.225625" style="stroke: #000000; stroke-width: 0.6"/>
      </g>
     </g>
    </g>
    <g id="xtick_14">
     <g id="line2d_15">
      <g>
       <use xlink:href="#m926b73a668" x="181.44249" y="313.225625" style="stroke: #000000; stroke-width: 0.6"/>
      </g>
     </g>
    </g>
    <g id="xtick_15">
     <g id="line2d_16">
      <g>
       <use xlink:href="#m926b73a668" x="194.120823" y="313.225625" style="stroke: #000000; stroke-width: 0.6"/>
      </g>
     </g>
    </g>
    <g id="xtick_16">
     <g id="line2d_17">
      <g>
       <use xlink:href="#m926b73a668" x="219.477488" y="313.225625" style="stroke: #000000; stroke-width: 0.6"/>
      </g>
     </g>
    </g>
    <g id="xtick_17">
     <g id="line2d_18">
      <g>
       <use xlink:href="#m926b73a668" x="232.15582" y="313.225625" style="stroke: #000000; stroke-width: 0.6"/>
      </g>
     </g>
    </g>
    <g id="xtick_18">
     <g id="line2d_19">
      <g>
       <use xlink:href="#m926b73a668" x="244.834152" y="313.225625" style="stroke: #000000; stroke-width: 0.6"/>
      </g>
     </g>
    </g>
    <g id="xtick_19">
     <g id="line2d_20">
      <g>
       <use xlink:href="#m926b73a668" x="257.512485" y="313.225625" style="stroke: #000000; stroke-width: 0.6"/>
      </g>
     </g>
    </g>
    <g id="xtick_20">
     <g id="line2d_21">
      <g>
       <use xlink:href="#m926b73a668" x="270.190817" y="313.225625" style="stroke: #000000; stroke-width: 0.6"/>
      </g>
     </g>
    </g>
    <g id="xtick_21">
     <g id="line2d_22">
      <g>
       <use xlink:href="#m926b73a668" x="295.547482" y="313.225625" style="stroke: #000000; stroke-width: 0.6"/>
      </g>
     </g>
    </g>
    <g id="xtick_22">
     <g id="line2d_23">
      <g>
       <use xlink:href="#m926b73a668" x="308.225814" y="313.225625" style="stroke: #000000; stroke-width: 0.6"/>
      </g>
     </g>
    </g>
    <g id="xtick_23">
     <g id="line2d_24">
      <g>
       <use xlink:href="#m926b73a668" x="320.904147" y="313.225625" style="stroke: #000000; stroke-width: 0.6"/>
      </g>
     </g>
    </g>
    <g id="xtick_24">
     <g id="line2d_25">
      <g>
       <use xlink:href="#m926b73a668" x="333.582479" y="313.225625" style="stroke: #000000; stroke-width: 0.6"/>
      </g>
     </g>
    </g>
   </g>
   <g id="matplotlib.axis_2">
    <g id="ytick_1">
     <g id="line2d_26">
      <defs>
       <path id="m6b5c1f591b" d="M 0 0 
L -3.5 0 
" style="stroke: #000000; stroke-width: 0.8"/>
      </defs>
      <g>
       <use xlink:href="#m6b5c1f591b" x="48.32" y="313.225625" style="stroke: #000000; stroke-width: 0.8"/>
      </g>
     </g>
     <g id="text_6">
      <!-- 0.0 -->
      <g transform="translate(24.64 317.520313)scale(0.12 -0.12)">
       <defs>
        <path id="ArialMT-2e" d="M 581 0 
L 581 641 
L 1222 641 
L 1222 0 
L 581 0 
z
" transform="scale(0.015625)"/>
       </defs>
       <use xlink:href="#ArialMT-30"/>
       <use xlink:href="#ArialMT-2e" x="55.615234"/>
       <use xlink:href="#ArialMT-30" x="83.398438"/>
      </g>
     </g>
    </g>
    <g id="ytick_2">
     <g id="line2d_27">
      <g>
       <use xlink:href="#m6b5c1f591b" x="48.32" y="254.300887" style="stroke: #000000; stroke-width: 0.8"/>
      </g>
     </g>
     <g id="text_7">
      <!-- 0.1 -->
      <g transform="translate(24.64 258.595575)scale(0.12 -0.12)">
       <use xlink:href="#ArialMT-30"/>
       <use xlink:href="#ArialMT-2e" x="55.615234"/>
       <use xlink:href="#ArialMT-31" x="83.398438"/>
      </g>
     </g>
    </g>
    <g id="ytick_3">
     <g id="line2d_28">
      <g>
       <use xlink:href="#m6b5c1f591b" x="48.32" y="195.37615" style="stroke: #000000; stroke-width: 0.8"/>
      </g>
     </g>
     <g id="text_8">
      <!-- 0.2 -->
      <g transform="translate(24.64 199.670837)scale(0.12 -0.12)">
       <use xlink:href="#ArialMT-30"/>
       <use xlink:href="#ArialMT-2e" x="55.615234"/>
       <use xlink:href="#ArialMT-32" x="83.398438"/>
      </g>
     </g>
    </g>
    <g id="ytick_4">
     <g id="line2d_29">
      <g>
       <use xlink:href="#m6b5c1f591b" x="48.32" y="136.451412" style="stroke: #000000; stroke-width: 0.8"/>
      </g>
     </g>
     <g id="text_9">
      <!-- 0.3 -->
      <g transform="translate(24.64 140.7461)scale(0.12 -0.12)">
       <defs>
        <path id="ArialMT-33" d="M 269 1209 
L 831 1284 
Q 928 806 1161 595 
Q 1394 384 1728 384 
Q 2125 384 2398 659 
Q 2672 934 2672 1341 
Q 2672 1728 2419 1979 
Q 2166 2231 1775 2231 
Q 1616 2231 1378 2169 
L 1441 2663 
Q 1497 2656 1531 2656 
Q 1891 2656 2178 2843 
Q 2466 3031 2466 3422 
Q 2466 3731 2256 3934 
Q 2047 4138 1716 4138 
Q 1388 4138 1169 3931 
Q 950 3725 888 3313 
L 325 3413 
Q 428 3978 793 4289 
Q 1159 4600 1703 4600 
Q 2078 4600 2393 4439 
Q 2709 4278 2876 4000 
Q 3044 3722 3044 3409 
Q 3044 3113 2884 2869 
Q 2725 2625 2413 2481 
Q 2819 2388 3044 2092 
Q 3269 1797 3269 1353 
Q 3269 753 2831 336 
Q 2394 -81 1725 -81 
Q 1122 -81 723 278 
Q 325 638 269 1209 
z
" transform="scale(0.015625)"/>
       </defs>
       <use xlink:href="#ArialMT-30"/>
       <use xlink:href="#ArialMT-2e" x="55.615234"/>
       <use xlink:href="#ArialMT-33" x="83.398438"/>
      </g>
     </g>
    </g>
    <g id="ytick_5">
     <g id="line2d_30">
      <g>
       <use xlink:href="#m6b5c1f591b" x="48.32" y="77.526674" style="stroke: #000000; stroke-width: 0.8"/>
      </g>
     </g>
     <g id="text_10">
      <!-- 0.4 -->
      <g transform="translate(24.64 81.821362)scale(0.12 -0.12)">
       <defs>
        <path id="ArialMT-34" d="M 2069 0 
L 2069 1097 
L 81 1097 
L 81 1613 
L 2172 4581 
L 2631 4581 
L 2631 1613 
L 3250 1613 
L 3250 1097 
L 2631 1097 
L 2631 0 
L 2069 0 
z
M 2069 1613 
L 2069 3678 
L 634 1613 
L 2069 1613 
z
" transform="scale(0.015625)"/>
       </defs>
       <use xlink:href="#ArialMT-30"/>
       <use xlink:href="#ArialMT-2e" x="55.615234"/>
       <use xlink:href="#ArialMT-34" x="83.398438"/>
      </g>
     </g>
    </g>
    <g id="ytick_6">
     <g id="line2d_31">
      <g>
       <use xlink:href="#m6b5c1f591b" x="48.32" y="18.601937" style="stroke: #000000; stroke-width: 0.8"/>
      </g>
     </g>
     <g id="text_11">
      <!-- 0.5 -->
      <g transform="translate(24.64 22.896624)scale(0.12 -0.12)">
       <defs>
        <path id="ArialMT-35" d="M 266 1200 
L 856 1250 
Q 922 819 1161 601 
Q 1400 384 1738 384 
Q 2144 384 2425 690 
Q 2706 997 2706 1503 
Q 2706 1984 2436 2262 
Q 2166 2541 1728 2541 
Q 1456 2541 1237 2417 
Q 1019 2294 894 2097 
L 366 2166 
L 809 4519 
L 3088 4519 
L 3088 3981 
L 1259 3981 
L 1013 2750 
Q 1425 3038 1878 3038 
Q 2478 3038 2890 2622 
Q 3303 2206 3303 1553 
Q 3303 931 2941 478 
Q 2500 -78 1738 -78 
Q 1113 -78 717 272 
Q 322 622 266 1200 
z
" transform="scale(0.015625)"/>
       </defs>
       <use xlink:href="#ArialMT-30"/>
       <use xlink:href="#ArialMT-2e" x="55.615234"/>
       <use xlink:href="#ArialMT-35" x="83.398438"/>
      </g>
     </g>
    </g>
    <g id="ytick_7">
     <g id="line2d_32">
      <defs>
       <path id="m3d95585fd3" d="M 0 0 
L -2 0 
" style="stroke: #000000; stroke-width: 0.6"/>
      </defs>
      <g>
       <use xlink:href="#m3d95585fd3" x="48.32" y="283.763256" style="stroke: #000000; stroke-width: 0.6"/>
      </g>
     </g>
    </g>
    <g id="ytick_8">
     <g id="line2d_33">
      <g>
       <use xlink:href="#m3d95585fd3" x="48.32" y="224.838519" style="stroke: #000000; stroke-width: 0.6"/>
      </g>
     </g>
    </g>
    <g id="ytick_9">
     <g id="line2d_34">
      <g>
       <use xlink:href="#m3d95585fd3" x="48.32" y="165.913781" style="stroke: #000000; stroke-width: 0.6"/>
      </g>
     </g>
    </g>
    <g id="ytick_10">
     <g id="line2d_35">
      <g>
       <use xlink:href="#m3d95585fd3" x="48.32" y="106.989043" style="stroke: #000000; stroke-width: 0.6"/>
      </g>
     </g>
    </g>
    <g id="ytick_11">
     <g id="line2d_36">
      <g>
       <use xlink:href="#m3d95585fd3" x="48.32" y="48.064306" style="stroke: #000000; stroke-width: 0.6"/>
      </g>
     </g>
    </g>
    <g id="text_12">
     <!-- Electricity price [USD kWh$^\mathrm{-1}$] -->
     <g transform="translate(18 238.332812)rotate(-90)scale(0.12 -0.12)">
      <defs>
       <path id="ArialMT-45" d="M 506 0 
L 506 4581 
L 3819 4581 
L 3819 4041 
L 1113 4041 
L 1113 2638 
L 3647 2638 
L 3647 2100 
L 1113 2100 
L 1113 541 
L 3925 541 
L 3925 0 
L 506 0 
z
" transform="scale(0.015625)"/>
       <path id="ArialMT-6c" d="M 409 0 
L 409 4581 
L 972 4581 
L 972 0 
L 409 0 
z
" transform="scale(0.015625)"/>
       <path id="ArialMT-65" d="M 2694 1069 
L 3275 997 
Q 3138 488 2766 206 
Q 2394 -75 1816 -75 
Q 1088 -75 661 373 
Q 234 822 234 1631 
Q 234 2469 665 2931 
Q 1097 3394 1784 3394 
Q 2450 3394 2872 2941 
Q 3294 2488 3294 1666 
Q 3294 1616 3291 1516 
L 816 1516 
Q 847 969 1125 678 
Q 1403 388 1819 388 
Q 2128 388 2347 550 
Q 2566 713 2694 1069 
z
M 847 1978 
L 2700 1978 
Q 2663 2397 2488 2606 
Q 2219 2931 1791 2931 
Q 1403 2931 1139 2672 
Q 875 2413 847 1978 
z
" transform="scale(0.015625)"/>
       <path id="ArialMT-63" d="M 2588 1216 
L 3141 1144 
Q 3050 572 2676 248 
Q 2303 -75 1759 -75 
Q 1078 -75 664 370 
Q 250 816 250 1647 
Q 250 2184 428 2587 
Q 606 2991 970 3192 
Q 1334 3394 1763 3394 
Q 2303 3394 2647 3120 
Q 2991 2847 3088 2344 
L 2541 2259 
Q 2463 2594 2264 2762 
Q 2066 2931 1784 2931 
Q 1359 2931 1093 2626 
Q 828 2322 828 1663 
Q 828 994 1084 691 
Q 1341 388 1753 388 
Q 2084 388 2306 591 
Q 2528 794 2588 1216 
z
" transform="scale(0.015625)"/>
       <path id="ArialMT-74" d="M 1650 503 
L 1731 6 
Q 1494 -44 1306 -44 
Q 1000 -44 831 53 
Q 663 150 594 308 
Q 525 466 525 972 
L 525 2881 
L 113 2881 
L 113 3319 
L 525 3319 
L 525 4141 
L 1084 4478 
L 1084 3319 
L 1650 3319 
L 1650 2881 
L 1084 2881 
L 1084 941 
Q 1084 700 1114 631 
Q 1144 563 1211 522 
Q 1278 481 1403 481 
Q 1497 481 1650 503 
z
" transform="scale(0.015625)"/>
       <path id="ArialMT-72" d="M 416 0 
L 416 3319 
L 922 3319 
L 922 2816 
Q 1116 3169 1280 3281 
Q 1444 3394 1641 3394 
Q 1925 3394 2219 3213 
L 2025 2691 
Q 1819 2813 1613 2813 
Q 1428 2813 1281 2702 
Q 1134 2591 1072 2394 
Q 978 2094 978 1738 
L 978 0 
L 416 0 
z
" transform="scale(0.015625)"/>
       <path id="ArialMT-69" d="M 425 3934 
L 425 4581 
L 988 4581 
L 988 3934 
L 425 3934 
z
M 425 0 
L 425 3319 
L 988 3319 
L 988 0 
L 425 0 
z
" transform="scale(0.015625)"/>
       <path id="ArialMT-79" d="M 397 -1278 
L 334 -750 
Q 519 -800 656 -800 
Q 844 -800 956 -737 
Q 1069 -675 1141 -563 
Q 1194 -478 1313 -144 
Q 1328 -97 1363 -6 
L 103 3319 
L 709 3319 
L 1400 1397 
Q 1534 1031 1641 628 
Q 1738 1016 1872 1384 
L 2581 3319 
L 3144 3319 
L 1881 -56 
Q 1678 -603 1566 -809 
Q 1416 -1088 1222 -1217 
Q 1028 -1347 759 -1347 
Q 597 -1347 397 -1278 
z
" transform="scale(0.015625)"/>
       <path id="ArialMT-70" d="M 422 -1272 
L 422 3319 
L 934 3319 
L 934 2888 
Q 1116 3141 1344 3267 
Q 1572 3394 1897 3394 
Q 2322 3394 2647 3175 
Q 2972 2956 3137 2557 
Q 3303 2159 3303 1684 
Q 3303 1175 3120 767 
Q 2938 359 2589 142 
Q 2241 -75 1856 -75 
Q 1575 -75 1351 44 
Q 1128 163 984 344 
L 984 -1272 
L 422 -1272 
z
M 931 1641 
Q 931 1000 1190 694 
Q 1450 388 1819 388 
Q 2194 388 2461 705 
Q 2728 1022 2728 1688 
Q 2728 2322 2467 2637 
Q 2206 2953 1844 2953 
Q 1484 2953 1207 2617 
Q 931 2281 931 1641 
z
" transform="scale(0.015625)"/>
       <path id="ArialMT-5b" d="M 434 -1272 
L 434 4581 
L 1675 4581 
L 1675 4116 
L 997 4116 
L 997 -806 
L 1675 -806 
L 1675 -1272 
L 434 -1272 
z
" transform="scale(0.015625)"/>
       <path id="ArialMT-55" d="M 3500 4581 
L 4106 4581 
L 4106 1934 
Q 4106 1244 3950 837 
Q 3794 431 3386 176 
Q 2978 -78 2316 -78 
Q 1672 -78 1262 144 
Q 853 366 678 786 
Q 503 1206 503 1934 
L 503 4581 
L 1109 4581 
L 1109 1938 
Q 1109 1341 1220 1058 
Q 1331 775 1601 622 
Q 1872 469 2263 469 
Q 2931 469 3215 772 
Q 3500 1075 3500 1938 
L 3500 4581 
z
" transform="scale(0.015625)"/>
       <path id="ArialMT-53" d="M 288 1472 
L 859 1522 
Q 900 1178 1048 958 
Q 1197 738 1509 602 
Q 1822 466 2213 466 
Q 2559 466 2825 569 
Q 3091 672 3220 851 
Q 3350 1031 3350 1244 
Q 3350 1459 3225 1620 
Q 3100 1781 2813 1891 
Q 2628 1963 1997 2114 
Q 1366 2266 1113 2400 
Q 784 2572 623 2826 
Q 463 3081 463 3397 
Q 463 3744 659 4045 
Q 856 4347 1234 4503 
Q 1613 4659 2075 4659 
Q 2584 4659 2973 4495 
Q 3363 4331 3572 4012 
Q 3781 3694 3797 3291 
L 3216 3247 
Q 3169 3681 2898 3903 
Q 2628 4125 2100 4125 
Q 1550 4125 1298 3923 
Q 1047 3722 1047 3438 
Q 1047 3191 1225 3031 
Q 1400 2872 2139 2705 
Q 2878 2538 3153 2413 
Q 3553 2228 3743 1945 
Q 3934 1663 3934 1294 
Q 3934 928 3725 604 
Q 3516 281 3123 101 
Q 2731 -78 2241 -78 
Q 1619 -78 1198 103 
Q 778 284 539 648 
Q 300 1013 288 1472 
z
" transform="scale(0.015625)"/>
       <path id="ArialMT-44" d="M 494 0 
L 494 4581 
L 2072 4581 
Q 2606 4581 2888 4516 
Q 3281 4425 3559 4188 
Q 3922 3881 4101 3404 
Q 4281 2928 4281 2316 
Q 4281 1794 4159 1391 
Q 4038 988 3847 723 
Q 3656 459 3429 307 
Q 3203 156 2883 78 
Q 2563 0 2147 0 
L 494 0 
z
M 1100 541 
L 2078 541 
Q 2531 541 2789 625 
Q 3047 709 3200 863 
Q 3416 1078 3536 1442 
Q 3656 1806 3656 2325 
Q 3656 3044 3420 3430 
Q 3184 3816 2847 3947 
Q 2603 4041 2063 4041 
L 1100 4041 
L 1100 541 
z
" transform="scale(0.015625)"/>
       <path id="ArialMT-6b" d="M 425 0 
L 425 4581 
L 988 4581 
L 988 1969 
L 2319 3319 
L 3047 3319 
L 1778 2088 
L 3175 0 
L 2481 0 
L 1384 1697 
L 988 1316 
L 988 0 
L 425 0 
z
" transform="scale(0.015625)"/>
       <path id="ArialMT-57" d="M 1294 0 
L 78 4581 
L 700 4581 
L 1397 1578 
Q 1509 1106 1591 641 
Q 1766 1375 1797 1488 
L 2669 4581 
L 3400 4581 
L 4056 2263 
Q 4303 1400 4413 641 
Q 4500 1075 4641 1638 
L 5359 4581 
L 5969 4581 
L 4713 0 
L 4128 0 
L 3163 3491 
Q 3041 3928 3019 4028 
Q 2947 3713 2884 3491 
L 1913 0 
L 1294 0 
z
" transform="scale(0.015625)"/>
       <path id="ArialMT-68" d="M 422 0 
L 422 4581 
L 984 4581 
L 984 2938 
Q 1378 3394 1978 3394 
Q 2347 3394 2619 3248 
Q 2891 3103 3008 2847 
Q 3125 2591 3125 2103 
L 3125 0 
L 2563 0 
L 2563 2103 
Q 2563 2525 2380 2717 
Q 2197 2909 1863 2909 
Q 1613 2909 1392 2779 
Q 1172 2650 1078 2428 
Q 984 2206 984 1816 
L 984 0 
L 422 0 
z
" transform="scale(0.015625)"/>
       <path id="DejaVuSans-2212" d="M 678 2272 
L 4684 2272 
L 4684 1741 
L 678 1741 
L 678 2272 
z
" transform="scale(0.015625)"/>
       <path id="DejaVuSans-31" d="M 794 531 
L 1825 531 
L 1825 4091 
L 703 3866 
L 703 4441 
L 1819 4666 
L 2450 4666 
L 2450 531 
L 3481 531 
L 3481 0 
L 794 0 
L 794 531 
z
" transform="scale(0.015625)"/>
       <path id="ArialMT-5d" d="M 1363 -1272 
L 122 -1272 
L 122 -806 
L 800 -806 
L 800 4116 
L 122 4116 
L 122 4581 
L 1363 4581 
L 1363 -1272 
z
" transform="scale(0.015625)"/>
      </defs>
      <use xlink:href="#ArialMT-45" transform="translate(0 0.684375)"/>
      <use xlink:href="#ArialMT-6c" transform="translate(66.699219 0.684375)"/>
      <use xlink:href="#ArialMT-65" transform="translate(88.916016 0.684375)"/>
      <use xlink:href="#ArialMT-63" transform="translate(144.53125 0.684375)"/>
      <use xlink:href="#ArialMT-74" transform="translate(194.53125 0.684375)"/>
      <use xlink:href="#ArialMT-72" transform="translate(222.314453 0.684375)"/>
      <use xlink:href="#ArialMT-69" transform="translate(255.615234 0.684375)"/>
      <use xlink:href="#ArialMT-63" transform="translate(277.832031 0.684375)"/>
      <use xlink:href="#ArialMT-69" transform="translate(327.832031 0.684375)"/>
      <use xlink:href="#ArialMT-74" transform="translate(350.048828 0.684375)"/>
      <use xlink:href="#ArialMT-79" transform="translate(377.832031 0.684375)"/>
      <use xlink:href="#ArialMT-20" transform="translate(427.832031 0.684375)"/>
      <use xlink:href="#ArialMT-70" transform="translate(455.615234 0.684375)"/>
      <use xlink:href="#ArialMT-72" transform="translate(511.230469 0.684375)"/>
      <use xlink:href="#ArialMT-69" transform="translate(544.53125 0.684375)"/>
      <use xlink:href="#ArialMT-63" transform="translate(566.748047 0.684375)"/>
      <use xlink:href="#ArialMT-65" transform="translate(616.748047 0.684375)"/>
      <use xlink:href="#ArialMT-20" transform="translate(672.363281 0.684375)"/>
      <use xlink:href="#ArialMT-5b" transform="translate(700.146484 0.684375)"/>
      <use xlink:href="#ArialMT-55" transform="translate(727.929688 0.684375)"/>
      <use xlink:href="#ArialMT-53" transform="translate(800.146484 0.684375)"/>
      <use xlink:href="#ArialMT-44" transform="translate(866.845703 0.684375)"/>
      <use xlink:href="#ArialMT-20" transform="translate(939.0625 0.684375)"/>
      <use xlink:href="#ArialMT-6b" transform="translate(966.845703 0.684375)"/>
      <use xlink:href="#ArialMT-57" transform="translate(1016.845703 0.684375)"/>
      <use xlink:href="#ArialMT-68" transform="translate(1111.230469 0.684375)"/>
      <use xlink:href="#DejaVuSans-2212" transform="translate(1167.802734 38.965625)scale(0.7)"/>
      <use xlink:href="#DejaVuSans-31" transform="translate(1226.455078 38.965625)scale(0.7)"/>
      <use xlink:href="#ArialMT-5d" transform="translate(1273.725586 0.684375)"/>
     </g>
    </g>
   </g>
   <g id="patch_3">
    <path d="M 48.32 313.225625 
L 48.32 7.2 
" style="fill: none; stroke: #000000; stroke-width: 0.8; stroke-linejoin: miter; stroke-linecap: square"/>
   </g>
   <g id="patch_4">
    <path d="M 352.599978 313.225625 
L 352.599978 7.2 
" style="fill: none; stroke: #000000; stroke-width: 0.8; stroke-linejoin: miter; stroke-linecap: square"/>
   </g>
   <g id="patch_5">
    <path d="M 48.32 313.225625 
L 352.599978 313.225625 
" style="fill: none; stroke: #000000; stroke-width: 0.8; stroke-linejoin: miter; stroke-linecap: square"/>
   </g>
   <g id="patch_6">
    <path d="M 48.32 7.2 
L 352.599978 7.2 
" style="fill: none; stroke: #000000; stroke-width: 0.8; stroke-linejoin: miter; stroke-linecap: square"/>
   </g>
  </g>
 </g>
 <defs>
  <clipPath id="pe649d8439d">
   <rect x="48.32" y="7.2" width="304.279978" height="306.025625"/>
  </clipPath>
 </defs>
</svg>
