<?xml version="1.0" encoding="utf-8" standalone="no"?>
<!DOCTYPE svg PUBLIC "-//W3C//DTD SVG 1.1//EN"
  "http://www.w3.org/Graphics/SVG/1.1/DTD/svg11.dtd">
<svg xmlns:xlink="http://www.w3.org/1999/xlink" width="1843.2pt" height="951.12pt" viewBox="0 0 1843.2 951.12" xmlns="http://www.w3.org/2000/svg" version="1.1">
 <metadata>
  <rdf:RDF xmlns:dc="http://purl.org/dc/elements/1.1/" xmlns:cc="http://creativecommons.org/ns#" xmlns:rdf="http://www.w3.org/1999/02/22-rdf-syntax-ns#">
   <cc:Work>
    <dc:type rdf:resource="http://purl.org/dc/dcmitype/StillImage"/>
    <dc:date>2022-10-05T09:47:31.034552</dc:date>
    <dc:format>image/svg+xml</dc:format>
    <dc:creator>
     <cc:Agent>
      <dc:title>Matplotlib v3.5.1, https://matplotlib.org/</dc:title>
     </cc:Agent>
    </dc:creator>
   </cc:Work>
  </rdf:RDF>
 </metadata>
 <defs>
  <style type="text/css">*{stroke-linejoin: round; stroke-linecap: butt}</style>
 </defs>
 <g id="figure_1">
  <g id="patch_1">
   <path d="M 0 951.12 
L 1843.2 951.12 
L 1843.2 0 
L 0 0 
z
" style="fill: #ffffff"/>
  </g>
  <g id="axes_1">
   <g id="patch_2">
    <path d="M 230.4 846.4968 
L 879.709091 846.4968 
L 879.709091 114.1344 
L 230.4 114.1344 
z
" style="fill: #ffffff"/>
   </g>
   <g id="PathCollection_1">
    <defs>
     <path id="mb1930868e0" d="M -3.061862 6.123724 
L 0 3.061862 
L 3.061862 6.123724 
L 6.123724 3.061862 
L 3.061862 0 
L 6.123724 -3.061862 
L 3.061862 -6.123724 
L 0 -3.061862 
L -3.061862 -6.123724 
L -6.123724 -3.061862 
L -3.061862 0 
L -6.123724 3.061862 
z
" style="stroke: #008000"/>
    </defs>
    <g clip-path="url(#pd91ab8c110)">
     <use xlink:href="#mb1930868e0" x="507.005673" y="643.134468" style="fill: #008000; stroke: #008000"/>
    </g>
   </g>
   <g id="PathCollection_2">
    <defs>
     <path id="md0052e3c42" d="M 0 -6.123724 
L -1.374862 -1.892335 
L -5.824008 -1.892335 
L -2.224573 0.722808 
L -3.599435 4.954197 
L -0 2.339054 
L 3.599435 4.954197 
L 2.224573 0.722808 
L 5.824008 -1.892335 
L 1.374862 -1.892335 
z
" style="stroke: #ffa500"/>
    </defs>
    <g clip-path="url(#pd91ab8c110)">
     <use xlink:href="#md0052e3c42" x="716.732509" y="657.390634" style="fill: #ffa500; stroke: #ffa500"/>
    </g>
   </g>
   <g id="PathCollection_3">
    <defs>
     <path id="m64e3d914a9" d="M 0 -6.123724 
L -5.824008 -1.892335 
L -3.599435 4.954197 
L 3.599435 4.954197 
L 5.824008 -1.892335 
z
" style="stroke: #ff0000"/>
    </defs>
    <g clip-path="url(#pd91ab8c110)">
     <use xlink:href="#m64e3d914a9" x="470.644364" y="660.630672" style="fill: #ff0000; stroke: #ff0000"/>
    </g>
   </g>
   <g id="PathCollection_4">
    <defs>
     <path id="m42e3004a8e" d="M 0 -6.123724 
L -5.303301 -3.061862 
L -5.303301 3.061862 
L -0 6.123724 
L 5.303301 3.061862 
L 5.303301 -3.061862 
z
" style="stroke: #0000ff"/>
    </defs>
    <g clip-path="url(#pd91ab8c110)">
     <use xlink:href="#m42e3004a8e" x="337.536" y="726.727442" style="fill: #0000ff; stroke: #0000ff"/>
    </g>
   </g>
   <g id="PathCollection_5">
    <g clip-path="url(#pd91ab8c110)">
     <use xlink:href="#mb1930868e0" x="507.005673" y="172.680987" style="fill: #008000; stroke: #008000"/>
    </g>
   </g>
   <g id="PathCollection_6">
    <g clip-path="url(#pd91ab8c110)"/>
   </g>
   <g id="PathCollection_7">
    <g clip-path="url(#pd91ab8c110)">
     <use xlink:href="#m64e3d914a9" x="470.644364" y="484.372618" style="fill: #ff0000; stroke: #ff0000"/>
    </g>
   </g>
   <g id="PathCollection_8">
    <g clip-path="url(#pd91ab8c110)">
     <use xlink:href="#m42e3004a8e" x="337.536" y="726.727442" style="fill: #0000ff; stroke: #0000ff"/>
    </g>
   </g>
   <g id="PathCollection_9">
    <g clip-path="url(#pd91ab8c110)">
     <use xlink:href="#mb1930868e0" x="507.005673" y="534.2692" style="fill: #008000; stroke: #008000"/>
    </g>
   </g>
   <g id="PathCollection_10">
    <g clip-path="url(#pd91ab8c110)">
     <use xlink:href="#md0052e3c42" x="716.732509" y="299.042459" style="fill: #ffa500; stroke: #ffa500"/>
    </g>
   </g>
   <g id="PathCollection_11">
    <g clip-path="url(#pd91ab8c110)">
     <use xlink:href="#m64e3d914a9" x="470.644364" y="573.79766" style="fill: #ff0000; stroke: #ff0000"/>
    </g>
   </g>
   <g id="PathCollection_12">
    <g clip-path="url(#pd91ab8c110)">
     <use xlink:href="#m42e3004a8e" x="337.536" y="726.727442" style="fill: #0000ff; stroke: #0000ff"/>
    </g>
   </g>
   <g id="matplotlib.axis_1">
    <g id="xtick_1">
     <g id="line2d_1">
      <defs>
       <path id="m5bb5c0672d" d="M 0 0 
L 0 3.5 
" style="stroke: #000000; stroke-width: 0.8"/>
      </defs>
      <g>
       <use xlink:href="#m5bb5c0672d" x="230.4" y="846.4968" style="stroke: #000000; stroke-width: 0.8"/>
      </g>
     </g>
     <g id="text_1">
      <!-- 0 -->
      <g transform="translate(225.31 865.6543)scale(0.16 -0.16)">
       <defs>
        <path id="DejaVuSans-30" d="M 2034 4250 
Q 1547 4250 1301 3770 
Q 1056 3291 1056 2328 
Q 1056 1369 1301 889 
Q 1547 409 2034 409 
Q 2525 409 2770 889 
Q 3016 1369 3016 2328 
Q 3016 3291 2770 3770 
Q 2525 4250 2034 4250 
z
M 2034 4750 
Q 2819 4750 3233 4129 
Q 3647 3509 3647 2328 
Q 3647 1150 3233 529 
Q 2819 -91 2034 -91 
Q 1250 -91 836 529 
Q 422 1150 422 2328 
Q 422 3509 836 4129 
Q 1250 4750 2034 4750 
z
" transform="scale(0.015625)"/>
       </defs>
       <use xlink:href="#DejaVuSans-30"/>
      </g>
     </g>
    </g>
    <g id="xtick_2">
     <g id="line2d_2">
      <g>
       <use xlink:href="#m5bb5c0672d" x="360.261818" y="846.4968" style="stroke: #000000; stroke-width: 0.8"/>
      </g>
     </g>
     <g id="text_2">
      <!-- 1000 -->
      <g transform="translate(339.901818 865.6543)scale(0.16 -0.16)">
       <defs>
        <path id="DejaVuSans-31" d="M 794 531 
L 1825 531 
L 1825 4091 
L 703 3866 
L 703 4441 
L 1819 4666 
L 2450 4666 
L 2450 531 
L 3481 531 
L 3481 0 
L 794 0 
L 794 531 
z
" transform="scale(0.015625)"/>
       </defs>
       <use xlink:href="#DejaVuSans-31"/>
       <use xlink:href="#DejaVuSans-30" x="63.623047"/>
       <use xlink:href="#DejaVuSans-30" x="127.246094"/>
       <use xlink:href="#DejaVuSans-30" x="190.869141"/>
      </g>
     </g>
    </g>
    <g id="xtick_3">
     <g id="line2d_3">
      <g>
       <use xlink:href="#m5bb5c0672d" x="490.123636" y="846.4968" style="stroke: #000000; stroke-width: 0.8"/>
      </g>
     </g>
     <g id="text_3">
      <!-- 2000 -->
      <g transform="translate(469.763636 865.6543)scale(0.16 -0.16)">
       <defs>
        <path id="DejaVuSans-32" d="M 1228 531 
L 3431 531 
L 3431 0 
L 469 0 
L 469 531 
Q 828 903 1448 1529 
Q 2069 2156 2228 2338 
Q 2531 2678 2651 2914 
Q 2772 3150 2772 3378 
Q 2772 3750 2511 3984 
Q 2250 4219 1831 4219 
Q 1534 4219 1204 4116 
Q 875 4013 500 3803 
L 500 4441 
Q 881 4594 1212 4672 
Q 1544 4750 1819 4750 
Q 2544 4750 2975 4387 
Q 3406 4025 3406 3419 
Q 3406 3131 3298 2873 
Q 3191 2616 2906 2266 
Q 2828 2175 2409 1742 
Q 1991 1309 1228 531 
z
" transform="scale(0.015625)"/>
       </defs>
       <use xlink:href="#DejaVuSans-32"/>
       <use xlink:href="#DejaVuSans-30" x="63.623047"/>
       <use xlink:href="#DejaVuSans-30" x="127.246094"/>
       <use xlink:href="#DejaVuSans-30" x="190.869141"/>
      </g>
     </g>
    </g>
    <g id="xtick_4">
     <g id="line2d_4">
      <g>
       <use xlink:href="#m5bb5c0672d" x="619.985455" y="846.4968" style="stroke: #000000; stroke-width: 0.8"/>
      </g>
     </g>
     <g id="text_4">
      <!-- 3000 -->
      <g transform="translate(599.625455 865.6543)scale(0.16 -0.16)">
       <defs>
        <path id="DejaVuSans-33" d="M 2597 2516 
Q 3050 2419 3304 2112 
Q 3559 1806 3559 1356 
Q 3559 666 3084 287 
Q 2609 -91 1734 -91 
Q 1441 -91 1130 -33 
Q 819 25 488 141 
L 488 750 
Q 750 597 1062 519 
Q 1375 441 1716 441 
Q 2309 441 2620 675 
Q 2931 909 2931 1356 
Q 2931 1769 2642 2001 
Q 2353 2234 1838 2234 
L 1294 2234 
L 1294 2753 
L 1863 2753 
Q 2328 2753 2575 2939 
Q 2822 3125 2822 3475 
Q 2822 3834 2567 4026 
Q 2313 4219 1838 4219 
Q 1578 4219 1281 4162 
Q 984 4106 628 3988 
L 628 4550 
Q 988 4650 1302 4700 
Q 1616 4750 1894 4750 
Q 2613 4750 3031 4423 
Q 3450 4097 3450 3541 
Q 3450 3153 3228 2886 
Q 3006 2619 2597 2516 
z
" transform="scale(0.015625)"/>
       </defs>
       <use xlink:href="#DejaVuSans-33"/>
       <use xlink:href="#DejaVuSans-30" x="63.623047"/>
       <use xlink:href="#DejaVuSans-30" x="127.246094"/>
       <use xlink:href="#DejaVuSans-30" x="190.869141"/>
      </g>
     </g>
    </g>
    <g id="xtick_5">
     <g id="line2d_5">
      <g>
       <use xlink:href="#m5bb5c0672d" x="749.847273" y="846.4968" style="stroke: #000000; stroke-width: 0.8"/>
      </g>
     </g>
     <g id="text_5">
      <!-- 4000 -->
      <g transform="translate(729.487273 865.6543)scale(0.16 -0.16)">
       <defs>
        <path id="DejaVuSans-34" d="M 2419 4116 
L 825 1625 
L 2419 1625 
L 2419 4116 
z
M 2253 4666 
L 3047 4666 
L 3047 1625 
L 3713 1625 
L 3713 1100 
L 3047 1100 
L 3047 0 
L 2419 0 
L 2419 1100 
L 313 1100 
L 313 1709 
L 2253 4666 
z
" transform="scale(0.015625)"/>
       </defs>
       <use xlink:href="#DejaVuSans-34"/>
       <use xlink:href="#DejaVuSans-30" x="63.623047"/>
       <use xlink:href="#DejaVuSans-30" x="127.246094"/>
       <use xlink:href="#DejaVuSans-30" x="190.869141"/>
      </g>
     </g>
    </g>
    <g id="xtick_6">
     <g id="line2d_6">
      <g>
       <use xlink:href="#m5bb5c0672d" x="879.709091" y="846.4968" style="stroke: #000000; stroke-width: 0.8"/>
      </g>
     </g>
     <g id="text_6">
      <!-- 5000 -->
      <g transform="translate(859.349091 865.6543)scale(0.16 -0.16)">
       <defs>
        <path id="DejaVuSans-35" d="M 691 4666 
L 3169 4666 
L 3169 4134 
L 1269 4134 
L 1269 2991 
Q 1406 3038 1543 3061 
Q 1681 3084 1819 3084 
Q 2600 3084 3056 2656 
Q 3513 2228 3513 1497 
Q 3513 744 3044 326 
Q 2575 -91 1722 -91 
Q 1428 -91 1123 -41 
Q 819 9 494 109 
L 494 744 
Q 775 591 1075 516 
Q 1375 441 1709 441 
Q 2250 441 2565 725 
Q 2881 1009 2881 1497 
Q 2881 1984 2565 2268 
Q 2250 2553 1709 2553 
Q 1456 2553 1204 2497 
Q 953 2441 691 2322 
L 691 4666 
z
" transform="scale(0.015625)"/>
       </defs>
       <use xlink:href="#DejaVuSans-35"/>
       <use xlink:href="#DejaVuSans-30" x="63.623047"/>
       <use xlink:href="#DejaVuSans-30" x="127.246094"/>
       <use xlink:href="#DejaVuSans-30" x="190.869141"/>
      </g>
     </g>
    </g>
    <g id="text_7">
     <!-- Natural gas price [\$ t$^\mathrm{-1}$] -->
     <g transform="translate(458.254545 887.3818)scale(0.16 -0.16)">
      <defs>
       <path id="DejaVuSans-4e" d="M 628 4666 
L 1478 4666 
L 3547 763 
L 3547 4666 
L 4159 4666 
L 4159 0 
L 3309 0 
L 1241 3903 
L 1241 0 
L 628 0 
L 628 4666 
z
" transform="scale(0.015625)"/>
       <path id="DejaVuSans-61" d="M 2194 1759 
Q 1497 1759 1228 1600 
Q 959 1441 959 1056 
Q 959 750 1161 570 
Q 1363 391 1709 391 
Q 2188 391 2477 730 
Q 2766 1069 2766 1631 
L 2766 1759 
L 2194 1759 
z
M 3341 1997 
L 3341 0 
L 2766 0 
L 2766 531 
Q 2569 213 2275 61 
Q 1981 -91 1556 -91 
Q 1019 -91 701 211 
Q 384 513 384 1019 
Q 384 1609 779 1909 
Q 1175 2209 1959 2209 
L 2766 2209 
L 2766 2266 
Q 2766 2663 2505 2880 
Q 2244 3097 1772 3097 
Q 1472 3097 1187 3025 
Q 903 2953 641 2809 
L 641 3341 
Q 956 3463 1253 3523 
Q 1550 3584 1831 3584 
Q 2591 3584 2966 3190 
Q 3341 2797 3341 1997 
z
" transform="scale(0.015625)"/>
       <path id="DejaVuSans-74" d="M 1172 4494 
L 1172 3500 
L 2356 3500 
L 2356 3053 
L 1172 3053 
L 1172 1153 
Q 1172 725 1289 603 
Q 1406 481 1766 481 
L 2356 481 
L 2356 0 
L 1766 0 
Q 1100 0 847 248 
Q 594 497 594 1153 
L 594 3053 
L 172 3053 
L 172 3500 
L 594 3500 
L 594 4494 
L 1172 4494 
z
" transform="scale(0.015625)"/>
       <path id="DejaVuSans-75" d="M 544 1381 
L 544 3500 
L 1119 3500 
L 1119 1403 
Q 1119 906 1312 657 
Q 1506 409 1894 409 
Q 2359 409 2629 706 
Q 2900 1003 2900 1516 
L 2900 3500 
L 3475 3500 
L 3475 0 
L 2900 0 
L 2900 538 
Q 2691 219 2414 64 
Q 2138 -91 1772 -91 
Q 1169 -91 856 284 
Q 544 659 544 1381 
z
M 1991 3584 
L 1991 3584 
z
" transform="scale(0.015625)"/>
       <path id="DejaVuSans-72" d="M 2631 2963 
Q 2534 3019 2420 3045 
Q 2306 3072 2169 3072 
Q 1681 3072 1420 2755 
Q 1159 2438 1159 1844 
L 1159 0 
L 581 0 
L 581 3500 
L 1159 3500 
L 1159 2956 
Q 1341 3275 1631 3429 
Q 1922 3584 2338 3584 
Q 2397 3584 2469 3576 
Q 2541 3569 2628 3553 
L 2631 2963 
z
" transform="scale(0.015625)"/>
       <path id="DejaVuSans-6c" d="M 603 4863 
L 1178 4863 
L 1178 0 
L 603 0 
L 603 4863 
z
" transform="scale(0.015625)"/>
       <path id="DejaVuSans-20" transform="scale(0.015625)"/>
       <path id="DejaVuSans-67" d="M 2906 1791 
Q 2906 2416 2648 2759 
Q 2391 3103 1925 3103 
Q 1463 3103 1205 2759 
Q 947 2416 947 1791 
Q 947 1169 1205 825 
Q 1463 481 1925 481 
Q 2391 481 2648 825 
Q 2906 1169 2906 1791 
z
M 3481 434 
Q 3481 -459 3084 -895 
Q 2688 -1331 1869 -1331 
Q 1566 -1331 1297 -1286 
Q 1028 -1241 775 -1147 
L 775 -588 
Q 1028 -725 1275 -790 
Q 1522 -856 1778 -856 
Q 2344 -856 2625 -561 
Q 2906 -266 2906 331 
L 2906 616 
Q 2728 306 2450 153 
Q 2172 0 1784 0 
Q 1141 0 747 490 
Q 353 981 353 1791 
Q 353 2603 747 3093 
Q 1141 3584 1784 3584 
Q 2172 3584 2450 3431 
Q 2728 3278 2906 2969 
L 2906 3500 
L 3481 3500 
L 3481 434 
z
" transform="scale(0.015625)"/>
       <path id="DejaVuSans-73" d="M 2834 3397 
L 2834 2853 
Q 2591 2978 2328 3040 
Q 2066 3103 1784 3103 
Q 1356 3103 1142 2972 
Q 928 2841 928 2578 
Q 928 2378 1081 2264 
Q 1234 2150 1697 2047 
L 1894 2003 
Q 2506 1872 2764 1633 
Q 3022 1394 3022 966 
Q 3022 478 2636 193 
Q 2250 -91 1575 -91 
Q 1294 -91 989 -36 
Q 684 19 347 128 
L 347 722 
Q 666 556 975 473 
Q 1284 391 1588 391 
Q 1994 391 2212 530 
Q 2431 669 2431 922 
Q 2431 1156 2273 1281 
Q 2116 1406 1581 1522 
L 1381 1569 
Q 847 1681 609 1914 
Q 372 2147 372 2553 
Q 372 3047 722 3315 
Q 1072 3584 1716 3584 
Q 2034 3584 2315 3537 
Q 2597 3491 2834 3397 
z
" transform="scale(0.015625)"/>
       <path id="DejaVuSans-70" d="M 1159 525 
L 1159 -1331 
L 581 -1331 
L 581 3500 
L 1159 3500 
L 1159 2969 
Q 1341 3281 1617 3432 
Q 1894 3584 2278 3584 
Q 2916 3584 3314 3078 
Q 3713 2572 3713 1747 
Q 3713 922 3314 415 
Q 2916 -91 2278 -91 
Q 1894 -91 1617 61 
Q 1341 213 1159 525 
z
M 3116 1747 
Q 3116 2381 2855 2742 
Q 2594 3103 2138 3103 
Q 1681 3103 1420 2742 
Q 1159 2381 1159 1747 
Q 1159 1113 1420 752 
Q 1681 391 2138 391 
Q 2594 391 2855 752 
Q 3116 1113 3116 1747 
z
" transform="scale(0.015625)"/>
       <path id="DejaVuSans-69" d="M 603 3500 
L 1178 3500 
L 1178 0 
L 603 0 
L 603 3500 
z
M 603 4863 
L 1178 4863 
L 1178 4134 
L 603 4134 
L 603 4863 
z
" transform="scale(0.015625)"/>
       <path id="DejaVuSans-63" d="M 3122 3366 
L 3122 2828 
Q 2878 2963 2633 3030 
Q 2388 3097 2138 3097 
Q 1578 3097 1268 2742 
Q 959 2388 959 1747 
Q 959 1106 1268 751 
Q 1578 397 2138 397 
Q 2388 397 2633 464 
Q 2878 531 3122 666 
L 3122 134 
Q 2881 22 2623 -34 
Q 2366 -91 2075 -91 
Q 1284 -91 818 406 
Q 353 903 353 1747 
Q 353 2603 823 3093 
Q 1294 3584 2113 3584 
Q 2378 3584 2631 3529 
Q 2884 3475 3122 3366 
z
" transform="scale(0.015625)"/>
       <path id="DejaVuSans-65" d="M 3597 1894 
L 3597 1613 
L 953 1613 
Q 991 1019 1311 708 
Q 1631 397 2203 397 
Q 2534 397 2845 478 
Q 3156 559 3463 722 
L 3463 178 
Q 3153 47 2828 -22 
Q 2503 -91 2169 -91 
Q 1331 -91 842 396 
Q 353 884 353 1716 
Q 353 2575 817 3079 
Q 1281 3584 2069 3584 
Q 2775 3584 3186 3129 
Q 3597 2675 3597 1894 
z
M 3022 2063 
Q 3016 2534 2758 2815 
Q 2500 3097 2075 3097 
Q 1594 3097 1305 2825 
Q 1016 2553 972 2059 
L 3022 2063 
z
" transform="scale(0.015625)"/>
       <path id="DejaVuSans-5b" d="M 550 4863 
L 1875 4863 
L 1875 4416 
L 1125 4416 
L 1125 -397 
L 1875 -397 
L 1875 -844 
L 550 -844 
L 550 4863 
z
" transform="scale(0.015625)"/>
       <path id="DejaVuSans-24" d="M 2163 -941 
L 1850 -941 
L 1847 0 
Q 1519 6 1191 76 
Q 863 147 531 288 
L 531 850 
Q 850 650 1176 548 
Q 1503 447 1850 444 
L 1850 1869 
Q 1159 1981 845 2250 
Q 531 2519 531 2988 
Q 531 3497 872 3790 
Q 1213 4084 1850 4128 
L 1850 4863 
L 2163 4863 
L 2163 4138 
Q 2453 4125 2725 4076 
Q 2997 4028 3256 3944 
L 3256 3397 
Q 2997 3528 2723 3600 
Q 2450 3672 2163 3684 
L 2163 2350 
Q 2872 2241 3206 1959 
Q 3541 1678 3541 1191 
Q 3541 663 3186 358 
Q 2831 53 2163 6 
L 2163 -941 
z
M 1850 2406 
L 1850 3688 
Q 1488 3647 1297 3481 
Q 1106 3316 1106 3041 
Q 1106 2772 1282 2622 
Q 1459 2472 1850 2406 
z
M 2163 1806 
L 2163 453 
Q 2559 506 2761 678 
Q 2963 850 2963 1131 
Q 2963 1406 2770 1568 
Q 2578 1731 2163 1806 
z
" transform="scale(0.015625)"/>
       <path id="DejaVuSans-2212" d="M 678 2272 
L 4684 2272 
L 4684 1741 
L 678 1741 
L 678 2272 
z
" transform="scale(0.015625)"/>
       <path id="DejaVuSans-5d" d="M 1947 4863 
L 1947 -844 
L 622 -844 
L 622 -397 
L 1369 -397 
L 1369 4416 
L 622 4416 
L 622 4863 
L 1947 4863 
z
" transform="scale(0.015625)"/>
      </defs>
      <use xlink:href="#DejaVuSans-4e" transform="translate(0 0.684375)"/>
      <use xlink:href="#DejaVuSans-61" transform="translate(74.804688 0.684375)"/>
      <use xlink:href="#DejaVuSans-74" transform="translate(136.083984 0.684375)"/>
      <use xlink:href="#DejaVuSans-75" transform="translate(175.292969 0.684375)"/>
      <use xlink:href="#DejaVuSans-72" transform="translate(238.671875 0.684375)"/>
      <use xlink:href="#DejaVuSans-61" transform="translate(279.785156 0.684375)"/>
      <use xlink:href="#DejaVuSans-6c" transform="translate(341.064453 0.684375)"/>
      <use xlink:href="#DejaVuSans-20" transform="translate(368.847656 0.684375)"/>
      <use xlink:href="#DejaVuSans-67" transform="translate(400.634766 0.684375)"/>
      <use xlink:href="#DejaVuSans-61" transform="translate(464.111328 0.684375)"/>
      <use xlink:href="#DejaVuSans-73" transform="translate(525.390625 0.684375)"/>
      <use xlink:href="#DejaVuSans-20" transform="translate(577.490234 0.684375)"/>
      <use xlink:href="#DejaVuSans-70" transform="translate(609.277344 0.684375)"/>
      <use xlink:href="#DejaVuSans-72" transform="translate(672.753906 0.684375)"/>
      <use xlink:href="#DejaVuSans-69" transform="translate(713.867188 0.684375)"/>
      <use xlink:href="#DejaVuSans-63" transform="translate(741.650391 0.684375)"/>
      <use xlink:href="#DejaVuSans-65" transform="translate(796.630859 0.684375)"/>
      <use xlink:href="#DejaVuSans-20" transform="translate(858.154297 0.684375)"/>
      <use xlink:href="#DejaVuSans-5b" transform="translate(889.941406 0.684375)"/>
      <use xlink:href="#DejaVuSans-24" transform="translate(928.955078 0.684375)"/>
      <use xlink:href="#DejaVuSans-20" transform="translate(992.578125 0.684375)"/>
      <use xlink:href="#DejaVuSans-74" transform="translate(1024.365234 0.684375)"/>
      <use xlink:href="#DejaVuSans-2212" transform="translate(1064.53125 38.965625)scale(0.7)"/>
      <use xlink:href="#DejaVuSans-31" transform="translate(1123.183594 38.965625)scale(0.7)"/>
      <use xlink:href="#DejaVuSans-5d" transform="translate(1170.454102 0.684375)"/>
     </g>
    </g>
   </g>
   <g id="matplotlib.axis_2">
    <g id="ytick_1">
     <g id="line2d_7">
      <defs>
       <path id="m26e4412bda" d="M 0 0 
L -3.5 0 
" style="stroke: #000000; stroke-width: 0.8"/>
      </defs>
      <g>
       <use xlink:href="#m26e4412bda" x="230.4" y="821.815469" style="stroke: #000000; stroke-width: 0.8"/>
      </g>
     </g>
     <g id="text_8">
      <!-- 500 -->
      <g transform="translate(192.86 827.894219)scale(0.16 -0.16)">
       <use xlink:href="#DejaVuSans-35"/>
       <use xlink:href="#DejaVuSans-30" x="63.623047"/>
       <use xlink:href="#DejaVuSans-30" x="127.246094"/>
      </g>
     </g>
    </g>
    <g id="ytick_2">
     <g id="line2d_8">
      <g>
       <use xlink:href="#m26e4412bda" x="230.4" y="682.812985" style="stroke: #000000; stroke-width: 0.8"/>
      </g>
     </g>
     <g id="text_9">
      <!-- 1000 -->
      <g transform="translate(182.68 688.891735)scale(0.16 -0.16)">
       <use xlink:href="#DejaVuSans-31"/>
       <use xlink:href="#DejaVuSans-30" x="63.623047"/>
       <use xlink:href="#DejaVuSans-30" x="127.246094"/>
       <use xlink:href="#DejaVuSans-30" x="190.869141"/>
      </g>
     </g>
    </g>
    <g id="ytick_3">
     <g id="line2d_9">
      <g>
       <use xlink:href="#m26e4412bda" x="230.4" y="543.8105" style="stroke: #000000; stroke-width: 0.8"/>
      </g>
     </g>
     <g id="text_10">
      <!-- 1500 -->
      <g transform="translate(182.68 549.88925)scale(0.16 -0.16)">
       <use xlink:href="#DejaVuSans-31"/>
       <use xlink:href="#DejaVuSans-35" x="63.623047"/>
       <use xlink:href="#DejaVuSans-30" x="127.246094"/>
       <use xlink:href="#DejaVuSans-30" x="190.869141"/>
      </g>
     </g>
    </g>
    <g id="ytick_4">
     <g id="line2d_10">
      <g>
       <use xlink:href="#m26e4412bda" x="230.4" y="404.808016" style="stroke: #000000; stroke-width: 0.8"/>
      </g>
     </g>
     <g id="text_11">
      <!-- 2000 -->
      <g transform="translate(182.68 410.886766)scale(0.16 -0.16)">
       <use xlink:href="#DejaVuSans-32"/>
       <use xlink:href="#DejaVuSans-30" x="63.623047"/>
       <use xlink:href="#DejaVuSans-30" x="127.246094"/>
       <use xlink:href="#DejaVuSans-30" x="190.869141"/>
      </g>
     </g>
    </g>
    <g id="ytick_5">
     <g id="line2d_11">
      <g>
       <use xlink:href="#m26e4412bda" x="230.4" y="265.805531" style="stroke: #000000; stroke-width: 0.8"/>
      </g>
     </g>
     <g id="text_12">
      <!-- 2500 -->
      <g transform="translate(182.68 271.884281)scale(0.16 -0.16)">
       <use xlink:href="#DejaVuSans-32"/>
       <use xlink:href="#DejaVuSans-35" x="63.623047"/>
       <use xlink:href="#DejaVuSans-30" x="127.246094"/>
       <use xlink:href="#DejaVuSans-30" x="190.869141"/>
      </g>
     </g>
    </g>
    <g id="ytick_6">
     <g id="line2d_12">
      <g>
       <use xlink:href="#m26e4412bda" x="230.4" y="126.803046" style="stroke: #000000; stroke-width: 0.8"/>
      </g>
     </g>
     <g id="text_13">
      <!-- 3000 -->
      <g transform="translate(182.68 132.881796)scale(0.16 -0.16)">
       <use xlink:href="#DejaVuSans-33"/>
       <use xlink:href="#DejaVuSans-30" x="63.623047"/>
       <use xlink:href="#DejaVuSans-30" x="127.246094"/>
       <use xlink:href="#DejaVuSans-30" x="190.869141"/>
      </g>
     </g>
    </g>
    <g id="text_14">
     <!-- Ammonia price [\$ t$^\mathrm{-1}$] -->
     <g transform="translate(175.32 569.0356)rotate(-90)scale(0.16 -0.16)">
      <defs>
       <path id="DejaVuSans-41" d="M 2188 4044 
L 1331 1722 
L 3047 1722 
L 2188 4044 
z
M 1831 4666 
L 2547 4666 
L 4325 0 
L 3669 0 
L 3244 1197 
L 1141 1197 
L 716 0 
L 50 0 
L 1831 4666 
z
" transform="scale(0.015625)"/>
       <path id="DejaVuSans-6d" d="M 3328 2828 
Q 3544 3216 3844 3400 
Q 4144 3584 4550 3584 
Q 5097 3584 5394 3201 
Q 5691 2819 5691 2113 
L 5691 0 
L 5113 0 
L 5113 2094 
Q 5113 2597 4934 2840 
Q 4756 3084 4391 3084 
Q 3944 3084 3684 2787 
Q 3425 2491 3425 1978 
L 3425 0 
L 2847 0 
L 2847 2094 
Q 2847 2600 2669 2842 
Q 2491 3084 2119 3084 
Q 1678 3084 1418 2786 
Q 1159 2488 1159 1978 
L 1159 0 
L 581 0 
L 581 3500 
L 1159 3500 
L 1159 2956 
Q 1356 3278 1631 3431 
Q 1906 3584 2284 3584 
Q 2666 3584 2933 3390 
Q 3200 3197 3328 2828 
z
" transform="scale(0.015625)"/>
       <path id="DejaVuSans-6f" d="M 1959 3097 
Q 1497 3097 1228 2736 
Q 959 2375 959 1747 
Q 959 1119 1226 758 
Q 1494 397 1959 397 
Q 2419 397 2687 759 
Q 2956 1122 2956 1747 
Q 2956 2369 2687 2733 
Q 2419 3097 1959 3097 
z
M 1959 3584 
Q 2709 3584 3137 3096 
Q 3566 2609 3566 1747 
Q 3566 888 3137 398 
Q 2709 -91 1959 -91 
Q 1206 -91 779 398 
Q 353 888 353 1747 
Q 353 2609 779 3096 
Q 1206 3584 1959 3584 
z
" transform="scale(0.015625)"/>
       <path id="DejaVuSans-6e" d="M 3513 2113 
L 3513 0 
L 2938 0 
L 2938 2094 
Q 2938 2591 2744 2837 
Q 2550 3084 2163 3084 
Q 1697 3084 1428 2787 
Q 1159 2491 1159 1978 
L 1159 0 
L 581 0 
L 581 3500 
L 1159 3500 
L 1159 2956 
Q 1366 3272 1645 3428 
Q 1925 3584 2291 3584 
Q 2894 3584 3203 3211 
Q 3513 2838 3513 2113 
z
" transform="scale(0.015625)"/>
      </defs>
      <use xlink:href="#DejaVuSans-41" transform="translate(0 0.684375)"/>
      <use xlink:href="#DejaVuSans-6d" transform="translate(68.408203 0.684375)"/>
      <use xlink:href="#DejaVuSans-6d" transform="translate(165.820312 0.684375)"/>
      <use xlink:href="#DejaVuSans-6f" transform="translate(263.232422 0.684375)"/>
      <use xlink:href="#DejaVuSans-6e" transform="translate(324.414062 0.684375)"/>
      <use xlink:href="#DejaVuSans-69" transform="translate(387.792969 0.684375)"/>
      <use xlink:href="#DejaVuSans-61" transform="translate(415.576172 0.684375)"/>
      <use xlink:href="#DejaVuSans-20" transform="translate(476.855469 0.684375)"/>
      <use xlink:href="#DejaVuSans-70" transform="translate(508.642578 0.684375)"/>
      <use xlink:href="#DejaVuSans-72" transform="translate(572.119141 0.684375)"/>
      <use xlink:href="#DejaVuSans-69" transform="translate(613.232422 0.684375)"/>
      <use xlink:href="#DejaVuSans-63" transform="translate(641.015625 0.684375)"/>
      <use xlink:href="#DejaVuSans-65" transform="translate(695.996094 0.684375)"/>
      <use xlink:href="#DejaVuSans-20" transform="translate(757.519531 0.684375)"/>
      <use xlink:href="#DejaVuSans-5b" transform="translate(789.306641 0.684375)"/>
      <use xlink:href="#DejaVuSans-24" transform="translate(828.320312 0.684375)"/>
      <use xlink:href="#DejaVuSans-20" transform="translate(891.943359 0.684375)"/>
      <use xlink:href="#DejaVuSans-74" transform="translate(923.730469 0.684375)"/>
      <use xlink:href="#DejaVuSans-2212" transform="translate(963.896484 38.965625)scale(0.7)"/>
      <use xlink:href="#DejaVuSans-31" transform="translate(1022.548828 38.965625)scale(0.7)"/>
      <use xlink:href="#DejaVuSans-5d" transform="translate(1069.819336 0.684375)"/>
     </g>
    </g>
   </g>
   <g id="line2d_13">
    <path d="M 230.4 846.4968 
L 236.893091 839.173176 
L 243.386182 831.849552 
L 249.879273 824.525928 
L 256.372364 817.202304 
L 262.865455 809.87868 
L 269.358545 802.555056 
L 275.851636 795.231432 
L 282.344727 787.907808 
L 288.837818 780.584184 
L 295.330909 773.26056 
L 301.824 765.936936 
L 308.317091 758.613312 
L 314.810182 751.289688 
L 321.303273 743.966064 
L 327.796364 736.64244 
L 334.289455 729.318816 
L 340.782545 721.995192 
L 347.275636 714.671568 
L 353.768727 707.347944 
L 360.261818 700.02432 
L 366.754909 692.700696 
L 373.248 685.377072 
L 379.741091 678.053448 
L 386.234182 670.729824 
L 392.727273 663.4062 
L 399.220364 656.082576 
L 405.713455 648.758952 
L 412.206545 641.435328 
L 418.699636 634.111704 
L 425.192727 626.78808 
L 431.685818 619.464456 
L 438.178909 612.140832 
L 444.672 604.817208 
L 451.165091 597.493584 
L 457.658182 590.16996 
L 464.151273 582.846336 
L 470.644364 575.522712 
L 477.137455 568.199088 
L 483.630545 560.875464 
L 490.123636 553.55184 
L 496.616727 546.228216 
L 503.109818 538.904592 
L 509.602909 531.580968 
L 516.096 524.257344 
L 522.589091 516.93372 
L 529.082182 509.610096 
L 535.575273 502.286472 
L 542.068364 494.962848 
L 548.561455 487.639224 
L 555.054545 480.3156 
L 561.547636 472.991976 
L 568.040727 465.668352 
L 574.533818 458.344728 
L 581.026909 451.021104 
L 587.52 443.69748 
L 594.013091 436.373856 
L 600.506182 429.050232 
L 606.999273 421.726608 
L 613.492364 414.402984 
L 619.985455 407.07936 
L 626.478545 399.755736 
L 632.971636 392.432112 
L 639.464727 385.108488 
L 645.957818 377.784864 
L 652.450909 370.46124 
L 658.944 363.137616 
L 665.437091 355.813992 
L 671.930182 348.490368 
L 678.423273 341.166744 
L 684.916364 333.84312 
L 691.409455 326.519496 
L 697.902545 319.195872 
L 704.395636 311.872248 
L 710.888727 304.548624 
L 717.381818 297.225 
L 723.874909 289.901376 
L 730.368 282.577752 
L 736.861091 275.254128 
L 743.354182 267.930504 
L 749.847273 260.60688 
L 756.340364 253.283256 
L 762.833455 245.959632 
L 769.326545 238.636008 
L 775.819636 231.312384 
L 782.312727 223.98876 
L 788.805818 216.665136 
L 795.298909 209.341512 
L 801.792 202.017888 
L 808.285091 194.694264 
L 814.778182 187.37064 
L 821.271273 180.047016 
L 827.764364 172.723392 
L 834.257455 165.399768 
L 840.750545 158.076144 
L 847.243636 150.75252 
L 853.736727 143.428896 
L 860.229818 136.105272 
L 866.722909 128.781648 
L 873.216 121.458024 
L 879.709091 114.1344 
" clip-path="url(#pd91ab8c110)" style="fill: none; stroke: #000000; stroke-width: 1.5; stroke-linecap: square"/>
   </g>
   <g id="LineCollection_1">
    <path d="M 230.4 534.2692 
L 879.709091 534.2692 
" clip-path="url(#pd91ab8c110)" style="fill: none; stroke-dasharray: 5.55,2.4; stroke-dashoffset: 0; stroke: #008000; stroke-width: 1.5"/>
   </g>
   <g id="LineCollection_2">
    <path d="M 230.4 299.042459 
L 879.709091 299.042459 
" clip-path="url(#pd91ab8c110)" style="fill: none; stroke-dasharray: 5.55,2.4; stroke-dashoffset: 0; stroke: #ffa500; stroke-width: 1.5"/>
   </g>
   <g id="LineCollection_3">
    <path d="M 230.4 573.79766 
L 879.709091 573.79766 
" clip-path="url(#pd91ab8c110)" style="fill: none; stroke-dasharray: 5.55,2.4; stroke-dashoffset: 0; stroke: #ff0000; stroke-width: 1.5"/>
   </g>
   <g id="LineCollection_4">
    <path d="M 230.4 726.727442 
L 879.709091 726.727442 
" clip-path="url(#pd91ab8c110)" style="fill: none; stroke-dasharray: 5.55,2.4; stroke-dashoffset: 0; stroke: #0000ff; stroke-width: 1.5"/>
   </g>
   <g id="LineCollection_5">
    <path d="M 817.310487 846.4968 
L 817.310487 114.1344 
" clip-path="url(#pd91ab8c110)" style="fill: none; stroke-dasharray: 5.55,2.4; stroke-dashoffset: 0; stroke: #000000; stroke-width: 1.5"/>
    <path d="M 345.301763 846.4968 
L 345.301763 114.1344 
" clip-path="url(#pd91ab8c110)" style="fill: none; stroke-dasharray: 5.55,2.4; stroke-dashoffset: 0; stroke: #000000; stroke-width: 1.5"/>
    <path d="M 298.447593 846.4968 
L 298.447593 114.1344 
" clip-path="url(#pd91ab8c110)" style="fill: none; stroke-dasharray: 5.55,2.4; stroke-dashoffset: 0; stroke: #000000; stroke-width: 1.5"/>
    <path d="M 260.52637 846.4968 
L 260.52637 114.1344 
" clip-path="url(#pd91ab8c110)" style="fill: none; stroke-dasharray: 5.55,2.4; stroke-dashoffset: 0; stroke: #000000; stroke-width: 1.5"/>
    <path d="M 625.246157 846.4968 
L 625.246157 114.1344 
" clip-path="url(#pd91ab8c110)" style="fill: none; stroke-dasharray: 5.55,2.4; stroke-dashoffset: 0; stroke: #000000; stroke-width: 1.5"/>
   </g>
   <g id="LineCollection_6">
    <path d="M 507.005673 643.134468 
L 507.005673 172.680987 
" clip-path="url(#pd91ab8c110)" style="fill: none; stroke-dasharray: 9.6,2.4,1.5,2.4; stroke-dashoffset: 0; stroke: #008000; stroke-width: 1.5"/>
   </g>
   <g id="LineCollection_7">
    <path d="M 716.732509 657.390634 
L 716.732509 -1 
" clip-path="url(#pd91ab8c110)" style="fill: none; stroke-dasharray: 9.6,2.4,1.5,2.4; stroke-dashoffset: 0; stroke: #ffa500; stroke-width: 1.5"/>
   </g>
   <g id="LineCollection_8">
    <path d="M 470.644364 660.630672 
L 470.644364 484.372618 
" clip-path="url(#pd91ab8c110)" style="fill: none; stroke-dasharray: 9.6,2.4,1.5,2.4; stroke-dashoffset: 0; stroke: #ff0000; stroke-width: 1.5"/>
   </g>
   <g id="LineCollection_9">
    <path d="M 337.536 726.727442 
L 337.536 726.727442 
" clip-path="url(#pd91ab8c110)" style="fill: none; stroke-dasharray: 9.6,2.4,1.5,2.4; stroke-dashoffset: 0; stroke: #0000ff; stroke-width: 1.5"/>
   </g>
   <g id="patch_3">
    <path d="M 230.4 846.4968 
L 230.4 114.1344 
" style="fill: none; stroke: #000000; stroke-width: 0.8; stroke-linejoin: miter; stroke-linecap: square"/>
   </g>
   <g id="patch_4">
    <path d="M 879.709091 846.4968 
L 879.709091 114.1344 
" style="fill: none; stroke: #000000; stroke-width: 0.8; stroke-linejoin: miter; stroke-linecap: square"/>
   </g>
   <g id="patch_5">
    <path d="M 230.4 846.4968 
L 879.709091 846.4968 
" style="fill: none; stroke: #000000; stroke-width: 0.8; stroke-linejoin: miter; stroke-linecap: square"/>
   </g>
   <g id="patch_6">
    <path d="M 230.4 114.1344 
L 879.709091 114.1344 
" style="fill: none; stroke: #000000; stroke-width: 0.8; stroke-linejoin: miter; stroke-linecap: square"/>
   </g>
   <g id="text_15">
    <!-- Wind -->
    <g style="fill: #008000" transform="translate(386.234182 528.7091)scale(0.14 -0.14)">
     <defs>
      <path id="DejaVuSans-57" d="M 213 4666 
L 850 4666 
L 1831 722 
L 2809 4666 
L 3519 4666 
L 4500 722 
L 5478 4666 
L 6119 4666 
L 4947 0 
L 4153 0 
L 3169 4050 
L 2175 0 
L 1381 0 
L 213 4666 
z
" transform="scale(0.015625)"/>
      <path id="DejaVuSans-64" d="M 2906 2969 
L 2906 4863 
L 3481 4863 
L 3481 0 
L 2906 0 
L 2906 525 
Q 2725 213 2448 61 
Q 2172 -91 1784 -91 
Q 1150 -91 751 415 
Q 353 922 353 1747 
Q 353 2572 751 3078 
Q 1150 3584 1784 3584 
Q 2172 3584 2448 3432 
Q 2725 3281 2906 2969 
z
M 947 1747 
Q 947 1113 1208 752 
Q 1469 391 1925 391 
Q 2381 391 2643 752 
Q 2906 1113 2906 1747 
Q 2906 2381 2643 2742 
Q 2381 3103 1925 3103 
Q 1469 3103 1208 2742 
Q 947 2381 947 1747 
z
" transform="scale(0.015625)"/>
     </defs>
     <use xlink:href="#DejaVuSans-57"/>
     <use xlink:href="#DejaVuSans-69" x="96.626953"/>
     <use xlink:href="#DejaVuSans-6e" x="124.410156"/>
     <use xlink:href="#DejaVuSans-64" x="187.789062"/>
    </g>
   </g>
   <g id="text_16">
    <!-- Solar -->
    <g style="fill: #ffa500" transform="translate(386.234182 293.48236)scale(0.14 -0.14)">
     <defs>
      <path id="DejaVuSans-53" d="M 3425 4513 
L 3425 3897 
Q 3066 4069 2747 4153 
Q 2428 4238 2131 4238 
Q 1616 4238 1336 4038 
Q 1056 3838 1056 3469 
Q 1056 3159 1242 3001 
Q 1428 2844 1947 2747 
L 2328 2669 
Q 3034 2534 3370 2195 
Q 3706 1856 3706 1288 
Q 3706 609 3251 259 
Q 2797 -91 1919 -91 
Q 1588 -91 1214 -16 
Q 841 59 441 206 
L 441 856 
Q 825 641 1194 531 
Q 1563 422 1919 422 
Q 2459 422 2753 634 
Q 3047 847 3047 1241 
Q 3047 1584 2836 1778 
Q 2625 1972 2144 2069 
L 1759 2144 
Q 1053 2284 737 2584 
Q 422 2884 422 3419 
Q 422 4038 858 4394 
Q 1294 4750 2059 4750 
Q 2388 4750 2728 4690 
Q 3069 4631 3425 4513 
z
" transform="scale(0.015625)"/>
     </defs>
     <use xlink:href="#DejaVuSans-53"/>
     <use xlink:href="#DejaVuSans-6f" x="63.476562"/>
     <use xlink:href="#DejaVuSans-6c" x="124.658203"/>
     <use xlink:href="#DejaVuSans-61" x="152.441406"/>
     <use xlink:href="#DejaVuSans-72" x="213.720703"/>
    </g>
   </g>
   <g id="text_17">
    <!-- Nuclear -->
    <g style="fill: #ff0000" transform="translate(386.234182 568.237561)scale(0.14 -0.14)">
     <use xlink:href="#DejaVuSans-4e"/>
     <use xlink:href="#DejaVuSans-75" x="74.804688"/>
     <use xlink:href="#DejaVuSans-63" x="138.183594"/>
     <use xlink:href="#DejaVuSans-6c" x="193.164062"/>
     <use xlink:href="#DejaVuSans-65" x="220.947266"/>
     <use xlink:href="#DejaVuSans-61" x="282.470703"/>
     <use xlink:href="#DejaVuSans-72" x="343.75"/>
    </g>
   </g>
   <g id="text_18">
    <!-- Biomass -->
    <g style="fill: #0000ff" transform="translate(386.234182 721.167343)scale(0.14 -0.14)">
     <defs>
      <path id="DejaVuSans-42" d="M 1259 2228 
L 1259 519 
L 2272 519 
Q 2781 519 3026 730 
Q 3272 941 3272 1375 
Q 3272 1813 3026 2020 
Q 2781 2228 2272 2228 
L 1259 2228 
z
M 1259 4147 
L 1259 2741 
L 2194 2741 
Q 2656 2741 2882 2914 
Q 3109 3088 3109 3444 
Q 3109 3797 2882 3972 
Q 2656 4147 2194 4147 
L 1259 4147 
z
M 628 4666 
L 2241 4666 
Q 2963 4666 3353 4366 
Q 3744 4066 3744 3513 
Q 3744 3084 3544 2831 
Q 3344 2578 2956 2516 
Q 3422 2416 3680 2098 
Q 3938 1781 3938 1306 
Q 3938 681 3513 340 
Q 3088 0 2303 0 
L 628 0 
L 628 4666 
z
" transform="scale(0.015625)"/>
     </defs>
     <use xlink:href="#DejaVuSans-42"/>
     <use xlink:href="#DejaVuSans-69" x="68.603516"/>
     <use xlink:href="#DejaVuSans-6f" x="96.386719"/>
     <use xlink:href="#DejaVuSans-6d" x="157.568359"/>
     <use xlink:href="#DejaVuSans-61" x="254.980469"/>
     <use xlink:href="#DejaVuSans-73" x="316.259766"/>
     <use xlink:href="#DejaVuSans-73" x="368.359375"/>
    </g>
   </g>
   <g id="text_19">
    <!-- Highest - 2022 -->
    <g transform="translate(833.142772 477.22082)rotate(-90)scale(0.14 -0.14)">
     <defs>
      <path id="DejaVuSans-48" d="M 628 4666 
L 1259 4666 
L 1259 2753 
L 3553 2753 
L 3553 4666 
L 4184 4666 
L 4184 0 
L 3553 0 
L 3553 2222 
L 1259 2222 
L 1259 0 
L 628 0 
L 628 4666 
z
" transform="scale(0.015625)"/>
      <path id="DejaVuSans-68" d="M 3513 2113 
L 3513 0 
L 2938 0 
L 2938 2094 
Q 2938 2591 2744 2837 
Q 2550 3084 2163 3084 
Q 1697 3084 1428 2787 
Q 1159 2491 1159 1978 
L 1159 0 
L 581 0 
L 581 4863 
L 1159 4863 
L 1159 2956 
Q 1366 3272 1645 3428 
Q 1925 3584 2291 3584 
Q 2894 3584 3203 3211 
Q 3513 2838 3513 2113 
z
" transform="scale(0.015625)"/>
      <path id="DejaVuSans-2d" d="M 313 2009 
L 1997 2009 
L 1997 1497 
L 313 1497 
L 313 2009 
z
" transform="scale(0.015625)"/>
     </defs>
     <use xlink:href="#DejaVuSans-48"/>
     <use xlink:href="#DejaVuSans-69" x="75.195312"/>
     <use xlink:href="#DejaVuSans-67" x="102.978516"/>
     <use xlink:href="#DejaVuSans-68" x="166.455078"/>
     <use xlink:href="#DejaVuSans-65" x="229.833984"/>
     <use xlink:href="#DejaVuSans-73" x="291.357422"/>
     <use xlink:href="#DejaVuSans-74" x="343.457031"/>
     <use xlink:href="#DejaVuSans-20" x="382.666016"/>
     <use xlink:href="#DejaVuSans-2d" x="414.453125"/>
     <use xlink:href="#DejaVuSans-20" x="450.537109"/>
     <use xlink:href="#DejaVuSans-32" x="482.324219"/>
     <use xlink:href="#DejaVuSans-30" x="545.947266"/>
     <use xlink:href="#DejaVuSans-32" x="609.570312"/>
     <use xlink:href="#DejaVuSans-32" x="673.193359"/>
    </g>
   </g>
   <g id="text_20">
    <!-- Lowest - 2022 -->
    <g transform="translate(361.134048 477.22082)rotate(-90)scale(0.14 -0.14)">
     <defs>
      <path id="DejaVuSans-4c" d="M 628 4666 
L 1259 4666 
L 1259 531 
L 3531 531 
L 3531 0 
L 628 0 
L 628 4666 
z
" transform="scale(0.015625)"/>
      <path id="DejaVuSans-77" d="M 269 3500 
L 844 3500 
L 1563 769 
L 2278 3500 
L 2956 3500 
L 3675 769 
L 4391 3500 
L 4966 3500 
L 4050 0 
L 3372 0 
L 2619 2869 
L 1863 0 
L 1184 0 
L 269 3500 
z
" transform="scale(0.015625)"/>
     </defs>
     <use xlink:href="#DejaVuSans-4c"/>
     <use xlink:href="#DejaVuSans-6f" x="53.962891"/>
     <use xlink:href="#DejaVuSans-77" x="115.144531"/>
     <use xlink:href="#DejaVuSans-65" x="196.931641"/>
     <use xlink:href="#DejaVuSans-73" x="258.455078"/>
     <use xlink:href="#DejaVuSans-74" x="310.554688"/>
     <use xlink:href="#DejaVuSans-20" x="349.763672"/>
     <use xlink:href="#DejaVuSans-2d" x="381.550781"/>
     <use xlink:href="#DejaVuSans-20" x="417.634766"/>
     <use xlink:href="#DejaVuSans-32" x="449.421875"/>
     <use xlink:href="#DejaVuSans-30" x="513.044922"/>
     <use xlink:href="#DejaVuSans-32" x="576.667969"/>
     <use xlink:href="#DejaVuSans-32" x="640.291016"/>
    </g>
   </g>
   <g id="text_21">
    <!-- Late - 2021 -->
    <g transform="translate(314.279878 477.22082)rotate(-90)scale(0.14 -0.14)">
     <use xlink:href="#DejaVuSans-4c"/>
     <use xlink:href="#DejaVuSans-61" x="55.712891"/>
     <use xlink:href="#DejaVuSans-74" x="116.992188"/>
     <use xlink:href="#DejaVuSans-65" x="156.201172"/>
     <use xlink:href="#DejaVuSans-20" x="217.724609"/>
     <use xlink:href="#DejaVuSans-2d" x="249.511719"/>
     <use xlink:href="#DejaVuSans-20" x="285.595703"/>
     <use xlink:href="#DejaVuSans-32" x="317.382812"/>
     <use xlink:href="#DejaVuSans-30" x="381.005859"/>
     <use xlink:href="#DejaVuSans-32" x="444.628906"/>
     <use xlink:href="#DejaVuSans-31" x="508.251953"/>
    </g>
   </g>
   <g id="text_22">
    <!-- Early - 2021 -->
    <g transform="translate(276.358656 477.22082)rotate(-90)scale(0.14 -0.14)">
     <defs>
      <path id="DejaVuSans-45" d="M 628 4666 
L 3578 4666 
L 3578 4134 
L 1259 4134 
L 1259 2753 
L 3481 2753 
L 3481 2222 
L 1259 2222 
L 1259 531 
L 3634 531 
L 3634 0 
L 628 0 
L 628 4666 
z
" transform="scale(0.015625)"/>
      <path id="DejaVuSans-79" d="M 2059 -325 
Q 1816 -950 1584 -1140 
Q 1353 -1331 966 -1331 
L 506 -1331 
L 506 -850 
L 844 -850 
Q 1081 -850 1212 -737 
Q 1344 -625 1503 -206 
L 1606 56 
L 191 3500 
L 800 3500 
L 1894 763 
L 2988 3500 
L 3597 3500 
L 2059 -325 
z
" transform="scale(0.015625)"/>
     </defs>
     <use xlink:href="#DejaVuSans-45"/>
     <use xlink:href="#DejaVuSans-61" x="63.183594"/>
     <use xlink:href="#DejaVuSans-72" x="124.462891"/>
     <use xlink:href="#DejaVuSans-6c" x="165.576172"/>
     <use xlink:href="#DejaVuSans-79" x="193.359375"/>
     <use xlink:href="#DejaVuSans-20" x="252.539062"/>
     <use xlink:href="#DejaVuSans-2d" x="284.326172"/>
     <use xlink:href="#DejaVuSans-20" x="320.410156"/>
     <use xlink:href="#DejaVuSans-32" x="352.197266"/>
     <use xlink:href="#DejaVuSans-30" x="415.820312"/>
     <use xlink:href="#DejaVuSans-32" x="479.443359"/>
     <use xlink:href="#DejaVuSans-31" x="543.066406"/>
    </g>
   </g>
   <g id="text_23">
    <!-- Sep' - 2022 -->
    <g transform="translate(641.078442 477.22082)rotate(-90)scale(0.14 -0.14)">
     <defs>
      <path id="DejaVuSans-27" d="M 1147 4666 
L 1147 2931 
L 616 2931 
L 616 4666 
L 1147 4666 
z
" transform="scale(0.015625)"/>
     </defs>
     <use xlink:href="#DejaVuSans-53"/>
     <use xlink:href="#DejaVuSans-65" x="63.476562"/>
     <use xlink:href="#DejaVuSans-70" x="125"/>
     <use xlink:href="#DejaVuSans-27" x="188.476562"/>
     <use xlink:href="#DejaVuSans-20" x="215.966797"/>
     <use xlink:href="#DejaVuSans-2d" x="247.753906"/>
     <use xlink:href="#DejaVuSans-20" x="283.837891"/>
     <use xlink:href="#DejaVuSans-32" x="315.625"/>
     <use xlink:href="#DejaVuSans-30" x="379.248047"/>
     <use xlink:href="#DejaVuSans-32" x="442.871094"/>
     <use xlink:href="#DejaVuSans-32" x="506.494141"/>
    </g>
   </g>
   <g id="legend_1">
    <g id="patch_7">
     <path d="M 241.6 150.4194 
L 843.4625 150.4194 
Q 846.6625 150.4194 846.6625 147.2194 
L 846.6625 125.3344 
Q 846.6625 122.1344 843.4625 122.1344 
L 241.6 122.1344 
Q 238.4 122.1344 238.4 125.3344 
L 238.4 147.2194 
Q 238.4 150.4194 241.6 150.4194 
z
" style="fill: #ffffff; opacity: 0.8; stroke: #cccccc; stroke-linejoin: miter"/>
    </g>
    <g id="line2d_14">
     <path d="M 244.8 135.0919 
L 260.8 135.0919 
L 276.8 135.0919 
" style="fill: none; stroke: #000000; stroke-width: 1.5; stroke-linecap: square"/>
    </g>
    <g id="text_24">
     <!-- BAU -->
     <g transform="translate(289.6 140.6919)scale(0.16 -0.16)">
      <defs>
       <path id="DejaVuSans-55" d="M 556 4666 
L 1191 4666 
L 1191 1831 
Q 1191 1081 1462 751 
Q 1734 422 2344 422 
Q 2950 422 3222 751 
Q 3494 1081 3494 1831 
L 3494 4666 
L 4128 4666 
L 4128 1753 
Q 4128 841 3676 375 
Q 3225 -91 2344 -91 
Q 1459 -91 1007 375 
Q 556 841 556 1753 
L 556 4666 
z
" transform="scale(0.015625)"/>
      </defs>
      <use xlink:href="#DejaVuSans-42"/>
      <use xlink:href="#DejaVuSans-41" x="68.603516"/>
      <use xlink:href="#DejaVuSans-55" x="137.011719"/>
     </g>
    </g>
    <g id="line2d_15">
     <path d="M 355.2325 135.0919 
L 387.2325 135.0919 
" style="fill: none; stroke-dasharray: 5.55,2.4; stroke-dashoffset: 0; stroke: #008000; stroke-width: 1.5"/>
    </g>
    <g id="text_25">
     <!-- Wind -->
     <g transform="translate(400.0325 140.6919)scale(0.16 -0.16)">
      <use xlink:href="#DejaVuSans-57"/>
      <use xlink:href="#DejaVuSans-69" x="96.626953"/>
      <use xlink:href="#DejaVuSans-6e" x="124.410156"/>
      <use xlink:href="#DejaVuSans-64" x="187.789062"/>
     </g>
    </g>
    <g id="line2d_16">
     <path d="M 472.235 135.0919 
L 504.235 135.0919 
" style="fill: none; stroke-dasharray: 5.55,2.4; stroke-dashoffset: 0; stroke: #ffa500; stroke-width: 1.5"/>
    </g>
    <g id="text_26">
     <!-- Solar -->
     <g transform="translate(517.035 140.6919)scale(0.16 -0.16)">
      <use xlink:href="#DejaVuSans-53"/>
      <use xlink:href="#DejaVuSans-6f" x="63.476562"/>
      <use xlink:href="#DejaVuSans-6c" x="124.658203"/>
      <use xlink:href="#DejaVuSans-61" x="152.441406"/>
      <use xlink:href="#DejaVuSans-72" x="213.720703"/>
     </g>
    </g>
    <g id="line2d_17">
     <path d="M 589.81 135.0919 
L 621.81 135.0919 
" style="fill: none; stroke-dasharray: 5.55,2.4; stroke-dashoffset: 0; stroke: #ff0000; stroke-width: 1.5"/>
    </g>
    <g id="text_27">
     <!-- Nuclear -->
     <g transform="translate(634.61 140.6919)scale(0.16 -0.16)">
      <use xlink:href="#DejaVuSans-4e"/>
      <use xlink:href="#DejaVuSans-75" x="74.804688"/>
      <use xlink:href="#DejaVuSans-63" x="138.183594"/>
      <use xlink:href="#DejaVuSans-6c" x="193.164062"/>
      <use xlink:href="#DejaVuSans-65" x="220.947266"/>
      <use xlink:href="#DejaVuSans-61" x="282.470703"/>
      <use xlink:href="#DejaVuSans-72" x="343.75"/>
     </g>
    </g>
    <g id="line2d_18">
     <path d="M 728.19 135.0919 
L 760.19 135.0919 
" style="fill: none; stroke-dasharray: 5.55,2.4; stroke-dashoffset: 0; stroke: #0000ff; stroke-width: 1.5"/>
    </g>
    <g id="text_28">
     <!-- Biomass -->
     <g transform="translate(772.99 140.6919)scale(0.16 -0.16)">
      <use xlink:href="#DejaVuSans-42"/>
      <use xlink:href="#DejaVuSans-69" x="68.603516"/>
      <use xlink:href="#DejaVuSans-6f" x="96.386719"/>
      <use xlink:href="#DejaVuSans-6d" x="157.568359"/>
      <use xlink:href="#DejaVuSans-61" x="254.980469"/>
      <use xlink:href="#DejaVuSans-73" x="316.259766"/>
      <use xlink:href="#DejaVuSans-73" x="368.359375"/>
     </g>
    </g>
   </g>
  </g>
  <g id="axes_2">
   <g id="patch_8">
    <path d="M 1009.570909 846.4968 
L 1658.88 846.4968 
L 1658.88 114.1344 
L 1009.570909 114.1344 
z
" style="fill: #ffffff"/>
   </g>
   <g id="matplotlib.axis_3">
    <g id="xtick_7">
     <g id="line2d_19">
      <g>
       <use xlink:href="#m5bb5c0672d" x="1009.570909" y="846.4968" style="stroke: #000000; stroke-width: 0.8"/>
      </g>
     </g>
     <g id="text_29">
      <!-- 0 -->
      <g transform="translate(1004.480909 865.6543)scale(0.16 -0.16)">
       <use xlink:href="#DejaVuSans-30"/>
      </g>
     </g>
    </g>
    <g id="xtick_8">
     <g id="line2d_20">
      <g>
       <use xlink:href="#m5bb5c0672d" x="1139.432727" y="846.4968" style="stroke: #000000; stroke-width: 0.8"/>
      </g>
     </g>
     <g id="text_30">
      <!-- 1000 -->
      <g transform="translate(1119.072727 865.6543)scale(0.16 -0.16)">
       <use xlink:href="#DejaVuSans-31"/>
       <use xlink:href="#DejaVuSans-30" x="63.623047"/>
       <use xlink:href="#DejaVuSans-30" x="127.246094"/>
       <use xlink:href="#DejaVuSans-30" x="190.869141"/>
      </g>
     </g>
    </g>
    <g id="xtick_9">
     <g id="line2d_21">
      <g>
       <use xlink:href="#m5bb5c0672d" x="1269.294545" y="846.4968" style="stroke: #000000; stroke-width: 0.8"/>
      </g>
     </g>
     <g id="text_31">
      <!-- 2000 -->
      <g transform="translate(1248.934545 865.6543)scale(0.16 -0.16)">
       <use xlink:href="#DejaVuSans-32"/>
       <use xlink:href="#DejaVuSans-30" x="63.623047"/>
       <use xlink:href="#DejaVuSans-30" x="127.246094"/>
       <use xlink:href="#DejaVuSans-30" x="190.869141"/>
      </g>
     </g>
    </g>
    <g id="xtick_10">
     <g id="line2d_22">
      <g>
       <use xlink:href="#m5bb5c0672d" x="1399.156364" y="846.4968" style="stroke: #000000; stroke-width: 0.8"/>
      </g>
     </g>
     <g id="text_32">
      <!-- 3000 -->
      <g transform="translate(1378.796364 865.6543)scale(0.16 -0.16)">
       <use xlink:href="#DejaVuSans-33"/>
       <use xlink:href="#DejaVuSans-30" x="63.623047"/>
       <use xlink:href="#DejaVuSans-30" x="127.246094"/>
       <use xlink:href="#DejaVuSans-30" x="190.869141"/>
      </g>
     </g>
    </g>
    <g id="xtick_11">
     <g id="line2d_23">
      <g>
       <use xlink:href="#m5bb5c0672d" x="1529.018182" y="846.4968" style="stroke: #000000; stroke-width: 0.8"/>
      </g>
     </g>
     <g id="text_33">
      <!-- 4000 -->
      <g transform="translate(1508.658182 865.6543)scale(0.16 -0.16)">
       <use xlink:href="#DejaVuSans-34"/>
       <use xlink:href="#DejaVuSans-30" x="63.623047"/>
       <use xlink:href="#DejaVuSans-30" x="127.246094"/>
       <use xlink:href="#DejaVuSans-30" x="190.869141"/>
      </g>
     </g>
    </g>
    <g id="xtick_12">
     <g id="line2d_24">
      <g>
       <use xlink:href="#m5bb5c0672d" x="1658.88" y="846.4968" style="stroke: #000000; stroke-width: 0.8"/>
      </g>
     </g>
     <g id="text_34">
      <!-- 5000 -->
      <g transform="translate(1638.52 865.6543)scale(0.16 -0.16)">
       <use xlink:href="#DejaVuSans-35"/>
       <use xlink:href="#DejaVuSans-30" x="63.623047"/>
       <use xlink:href="#DejaVuSans-30" x="127.246094"/>
       <use xlink:href="#DejaVuSans-30" x="190.869141"/>
      </g>
     </g>
    </g>
    <g id="text_35">
     <!-- Natural gas price [\$ t$^\mathrm{-1}$] -->
     <g transform="translate(1237.425455 887.3818)scale(0.16 -0.16)">
      <use xlink:href="#DejaVuSans-4e" transform="translate(0 0.684375)"/>
      <use xlink:href="#DejaVuSans-61" transform="translate(74.804688 0.684375)"/>
      <use xlink:href="#DejaVuSans-74" transform="translate(136.083984 0.684375)"/>
      <use xlink:href="#DejaVuSans-75" transform="translate(175.292969 0.684375)"/>
      <use xlink:href="#DejaVuSans-72" transform="translate(238.671875 0.684375)"/>
      <use xlink:href="#DejaVuSans-61" transform="translate(279.785156 0.684375)"/>
      <use xlink:href="#DejaVuSans-6c" transform="translate(341.064453 0.684375)"/>
      <use xlink:href="#DejaVuSans-20" transform="translate(368.847656 0.684375)"/>
      <use xlink:href="#DejaVuSans-67" transform="translate(400.634766 0.684375)"/>
      <use xlink:href="#DejaVuSans-61" transform="translate(464.111328 0.684375)"/>
      <use xlink:href="#DejaVuSans-73" transform="translate(525.390625 0.684375)"/>
      <use xlink:href="#DejaVuSans-20" transform="translate(577.490234 0.684375)"/>
      <use xlink:href="#DejaVuSans-70" transform="translate(609.277344 0.684375)"/>
      <use xlink:href="#DejaVuSans-72" transform="translate(672.753906 0.684375)"/>
      <use xlink:href="#DejaVuSans-69" transform="translate(713.867188 0.684375)"/>
      <use xlink:href="#DejaVuSans-63" transform="translate(741.650391 0.684375)"/>
      <use xlink:href="#DejaVuSans-65" transform="translate(796.630859 0.684375)"/>
      <use xlink:href="#DejaVuSans-20" transform="translate(858.154297 0.684375)"/>
      <use xlink:href="#DejaVuSans-5b" transform="translate(889.941406 0.684375)"/>
      <use xlink:href="#DejaVuSans-24" transform="translate(928.955078 0.684375)"/>
      <use xlink:href="#DejaVuSans-20" transform="translate(992.578125 0.684375)"/>
      <use xlink:href="#DejaVuSans-74" transform="translate(1024.365234 0.684375)"/>
      <use xlink:href="#DejaVuSans-2212" transform="translate(1064.53125 38.965625)scale(0.7)"/>
      <use xlink:href="#DejaVuSans-31" transform="translate(1123.183594 38.965625)scale(0.7)"/>
      <use xlink:href="#DejaVuSans-5d" transform="translate(1170.454102 0.684375)"/>
     </g>
    </g>
   </g>
   <g id="matplotlib.axis_4">
    <g id="ytick_7">
     <g id="line2d_25">
      <g>
       <use xlink:href="#m26e4412bda" x="1009.570909" y="845.747009" style="stroke: #000000; stroke-width: 0.8"/>
      </g>
     </g>
     <g id="text_36">
      <!-- −5000 -->
      <g transform="translate(948.443409 851.825759)scale(0.16 -0.16)">
       <use xlink:href="#DejaVuSans-2212"/>
       <use xlink:href="#DejaVuSans-35" x="83.789062"/>
       <use xlink:href="#DejaVuSans-30" x="147.412109"/>
       <use xlink:href="#DejaVuSans-30" x="211.035156"/>
       <use xlink:href="#DejaVuSans-30" x="274.658203"/>
      </g>
     </g>
    </g>
    <g id="ytick_8">
     <g id="line2d_26">
      <g>
       <use xlink:href="#m26e4412bda" x="1009.570909" y="762.850982" style="stroke: #000000; stroke-width: 0.8"/>
      </g>
     </g>
     <g id="text_37">
      <!-- −4000 -->
      <g transform="translate(948.443409 768.929732)scale(0.16 -0.16)">
       <use xlink:href="#DejaVuSans-2212"/>
       <use xlink:href="#DejaVuSans-34" x="83.789062"/>
       <use xlink:href="#DejaVuSans-30" x="147.412109"/>
       <use xlink:href="#DejaVuSans-30" x="211.035156"/>
       <use xlink:href="#DejaVuSans-30" x="274.658203"/>
      </g>
     </g>
    </g>
    <g id="ytick_9">
     <g id="line2d_27">
      <g>
       <use xlink:href="#m26e4412bda" x="1009.570909" y="679.954955" style="stroke: #000000; stroke-width: 0.8"/>
      </g>
     </g>
     <g id="text_38">
      <!-- −3000 -->
      <g transform="translate(948.443409 686.033705)scale(0.16 -0.16)">
       <use xlink:href="#DejaVuSans-2212"/>
       <use xlink:href="#DejaVuSans-33" x="83.789062"/>
       <use xlink:href="#DejaVuSans-30" x="147.412109"/>
       <use xlink:href="#DejaVuSans-30" x="211.035156"/>
       <use xlink:href="#DejaVuSans-30" x="274.658203"/>
      </g>
     </g>
    </g>
    <g id="ytick_10">
     <g id="line2d_28">
      <g>
       <use xlink:href="#m26e4412bda" x="1009.570909" y="597.058927" style="stroke: #000000; stroke-width: 0.8"/>
      </g>
     </g>
     <g id="text_39">
      <!-- −2000 -->
      <g transform="translate(948.443409 603.137677)scale(0.16 -0.16)">
       <use xlink:href="#DejaVuSans-2212"/>
       <use xlink:href="#DejaVuSans-32" x="83.789062"/>
       <use xlink:href="#DejaVuSans-30" x="147.412109"/>
       <use xlink:href="#DejaVuSans-30" x="211.035156"/>
       <use xlink:href="#DejaVuSans-30" x="274.658203"/>
      </g>
     </g>
    </g>
    <g id="ytick_11">
     <g id="line2d_29">
      <g>
       <use xlink:href="#m26e4412bda" x="1009.570909" y="514.1629" style="stroke: #000000; stroke-width: 0.8"/>
      </g>
     </g>
     <g id="text_40">
      <!-- −1000 -->
      <g transform="translate(948.443409 520.24165)scale(0.16 -0.16)">
       <use xlink:href="#DejaVuSans-2212"/>
       <use xlink:href="#DejaVuSans-31" x="83.789062"/>
       <use xlink:href="#DejaVuSans-30" x="147.412109"/>
       <use xlink:href="#DejaVuSans-30" x="211.035156"/>
       <use xlink:href="#DejaVuSans-30" x="274.658203"/>
      </g>
     </g>
    </g>
    <g id="ytick_12">
     <g id="line2d_30">
      <g>
       <use xlink:href="#m26e4412bda" x="1009.570909" y="431.266873" style="stroke: #000000; stroke-width: 0.8"/>
      </g>
     </g>
     <g id="text_41">
      <!-- 0 -->
      <g transform="translate(992.390909 437.345623)scale(0.16 -0.16)">
       <use xlink:href="#DejaVuSans-30"/>
      </g>
     </g>
    </g>
    <g id="ytick_13">
     <g id="line2d_31">
      <g>
       <use xlink:href="#m26e4412bda" x="1009.570909" y="348.370846" style="stroke: #000000; stroke-width: 0.8"/>
      </g>
     </g>
     <g id="text_42">
      <!-- 1000 -->
      <g transform="translate(961.850909 354.449596)scale(0.16 -0.16)">
       <use xlink:href="#DejaVuSans-31"/>
       <use xlink:href="#DejaVuSans-30" x="63.623047"/>
       <use xlink:href="#DejaVuSans-30" x="127.246094"/>
       <use xlink:href="#DejaVuSans-30" x="190.869141"/>
      </g>
     </g>
    </g>
    <g id="ytick_14">
     <g id="line2d_32">
      <g>
       <use xlink:href="#m26e4412bda" x="1009.570909" y="265.474819" style="stroke: #000000; stroke-width: 0.8"/>
      </g>
     </g>
     <g id="text_43">
      <!-- 2000 -->
      <g transform="translate(961.850909 271.553569)scale(0.16 -0.16)">
       <use xlink:href="#DejaVuSans-32"/>
       <use xlink:href="#DejaVuSans-30" x="63.623047"/>
       <use xlink:href="#DejaVuSans-30" x="127.246094"/>
       <use xlink:href="#DejaVuSans-30" x="190.869141"/>
      </g>
     </g>
    </g>
    <g id="ytick_15">
     <g id="line2d_33">
      <g>
       <use xlink:href="#m26e4412bda" x="1009.570909" y="182.578792" style="stroke: #000000; stroke-width: 0.8"/>
      </g>
     </g>
     <g id="text_44">
      <!-- 3000 -->
      <g transform="translate(961.850909 188.657542)scale(0.16 -0.16)">
       <use xlink:href="#DejaVuSans-33"/>
       <use xlink:href="#DejaVuSans-30" x="63.623047"/>
       <use xlink:href="#DejaVuSans-30" x="127.246094"/>
       <use xlink:href="#DejaVuSans-30" x="190.869141"/>
      </g>
     </g>
    </g>
    <g id="text_45">
     <!-- CO$_\mathrm{2}$ avoidance costs [\$ t$_\mathrm{CO_\mathrm{2eq}}$$^\mathrm{-1}$] -->
     <g transform="translate(938.203409 607.3556)rotate(-90)scale(0.16 -0.16)">
      <defs>
       <path id="DejaVuSans-43" d="M 4122 4306 
L 4122 3641 
Q 3803 3938 3442 4084 
Q 3081 4231 2675 4231 
Q 1875 4231 1450 3742 
Q 1025 3253 1025 2328 
Q 1025 1406 1450 917 
Q 1875 428 2675 428 
Q 3081 428 3442 575 
Q 3803 722 4122 1019 
L 4122 359 
Q 3791 134 3420 21 
Q 3050 -91 2638 -91 
Q 1578 -91 968 557 
Q 359 1206 359 2328 
Q 359 3453 968 4101 
Q 1578 4750 2638 4750 
Q 3056 4750 3426 4639 
Q 3797 4528 4122 4306 
z
" transform="scale(0.015625)"/>
       <path id="DejaVuSans-4f" d="M 2522 4238 
Q 1834 4238 1429 3725 
Q 1025 3213 1025 2328 
Q 1025 1447 1429 934 
Q 1834 422 2522 422 
Q 3209 422 3611 934 
Q 4013 1447 4013 2328 
Q 4013 3213 3611 3725 
Q 3209 4238 2522 4238 
z
M 2522 4750 
Q 3503 4750 4090 4092 
Q 4678 3434 4678 2328 
Q 4678 1225 4090 567 
Q 3503 -91 2522 -91 
Q 1538 -91 948 565 
Q 359 1222 359 2328 
Q 359 3434 948 4092 
Q 1538 4750 2522 4750 
z
" transform="scale(0.015625)"/>
       <path id="DejaVuSans-76" d="M 191 3500 
L 800 3500 
L 1894 563 
L 2988 3500 
L 3597 3500 
L 2284 0 
L 1503 0 
L 191 3500 
z
" transform="scale(0.015625)"/>
       <path id="DejaVuSans-71" d="M 947 1747 
Q 947 1113 1208 752 
Q 1469 391 1925 391 
Q 2381 391 2643 752 
Q 2906 1113 2906 1747 
Q 2906 2381 2643 2742 
Q 2381 3103 1925 3103 
Q 1469 3103 1208 2742 
Q 947 2381 947 1747 
z
M 2906 525 
Q 2725 213 2448 61 
Q 2172 -91 1784 -91 
Q 1150 -91 751 415 
Q 353 922 353 1747 
Q 353 2572 751 3078 
Q 1150 3584 1784 3584 
Q 2172 3584 2448 3432 
Q 2725 3281 2906 2969 
L 2906 3500 
L 3481 3500 
L 3481 -1331 
L 2906 -1331 
L 2906 525 
z
" transform="scale(0.015625)"/>
      </defs>
      <use xlink:href="#DejaVuSans-43" transform="translate(0 0.684375)"/>
      <use xlink:href="#DejaVuSans-4f" transform="translate(69.824219 0.684375)"/>
      <use xlink:href="#DejaVuSans-32" transform="translate(149.492188 -15.721875)scale(0.7)"/>
      <use xlink:href="#DejaVuSans-20" transform="translate(196.762695 0.684375)"/>
      <use xlink:href="#DejaVuSans-61" transform="translate(228.549805 0.684375)"/>
      <use xlink:href="#DejaVuSans-76" transform="translate(289.829102 0.684375)"/>
      <use xlink:href="#DejaVuSans-6f" transform="translate(349.008789 0.684375)"/>
      <use xlink:href="#DejaVuSans-69" transform="translate(410.19043 0.684375)"/>
      <use xlink:href="#DejaVuSans-64" transform="translate(437.973633 0.684375)"/>
      <use xlink:href="#DejaVuSans-61" transform="translate(501.450195 0.684375)"/>
      <use xlink:href="#DejaVuSans-6e" transform="translate(562.729492 0.684375)"/>
      <use xlink:href="#DejaVuSans-63" transform="translate(626.108398 0.684375)"/>
      <use xlink:href="#DejaVuSans-65" transform="translate(681.088867 0.684375)"/>
      <use xlink:href="#DejaVuSans-20" transform="translate(742.612305 0.684375)"/>
      <use xlink:href="#DejaVuSans-63" transform="translate(774.399414 0.684375)"/>
      <use xlink:href="#DejaVuSans-6f" transform="translate(829.379883 0.684375)"/>
      <use xlink:href="#DejaVuSans-73" transform="translate(890.561523 0.684375)"/>
      <use xlink:href="#DejaVuSans-74" transform="translate(942.661133 0.684375)"/>
      <use xlink:href="#DejaVuSans-73" transform="translate(981.870117 0.684375)"/>
      <use xlink:href="#DejaVuSans-20" transform="translate(1033.969727 0.684375)"/>
      <use xlink:href="#DejaVuSans-5b" transform="translate(1065.756836 0.684375)"/>
      <use xlink:href="#DejaVuSans-24" transform="translate(1104.770508 0.684375)"/>
      <use xlink:href="#DejaVuSans-20" transform="translate(1168.393555 0.684375)"/>
      <use xlink:href="#DejaVuSans-74" transform="translate(1200.180664 0.684375)"/>
      <use xlink:href="#DejaVuSans-43" transform="translate(1240.34668 -15.721875)scale(0.7)"/>
      <use xlink:href="#DejaVuSans-4f" transform="translate(1289.223633 -15.721875)scale(0.7)"/>
      <use xlink:href="#DejaVuSans-32" transform="translate(1344.991211 -27.20625)scale(0.49)"/>
      <use xlink:href="#DejaVuSans-65" transform="translate(1376.166504 -27.20625)scale(0.49)"/>
      <use xlink:href="#DejaVuSans-71" transform="translate(1406.312988 -27.20625)scale(0.49)"/>
      <use xlink:href="#DejaVuSans-2212" transform="translate(1443.021973 38.965625)scale(0.7)"/>
      <use xlink:href="#DejaVuSans-31" transform="translate(1501.674316 38.965625)scale(0.7)"/>
      <use xlink:href="#DejaVuSans-5d" transform="translate(1548.944824 0.684375)"/>
     </g>
    </g>
   </g>
   <g id="line2d_34">
    <path d="M 1009.570909 147.4236 
L 1016.064 154.08144 
L 1022.557091 160.73928 
L 1029.050182 167.39712 
L 1035.543273 174.05496 
L 1042.036364 180.7128 
L 1048.529455 187.37064 
L 1055.022545 194.02848 
L 1061.515636 200.68632 
L 1068.008727 207.34416 
L 1074.501818 214.002 
L 1080.994909 220.65984 
L 1087.488 227.31768 
L 1093.981091 233.97552 
L 1100.474182 240.63336 
L 1106.967273 247.2912 
L 1113.460364 253.94904 
L 1119.953455 260.60688 
L 1126.446545 267.26472 
L 1132.939636 273.92256 
L 1139.432727 280.5804 
L 1145.925818 287.23824 
L 1152.418909 293.89608 
L 1158.912 300.55392 
L 1165.405091 307.21176 
L 1171.898182 313.8696 
L 1178.391273 320.52744 
L 1184.884364 327.18528 
L 1191.377455 333.84312 
L 1197.870545 340.50096 
L 1204.363636 347.1588 
L 1210.856727 353.81664 
L 1217.349818 360.47448 
L 1223.842909 367.13232 
L 1230.336 373.79016 
L 1236.829091 380.448 
L 1243.322182 387.10584 
L 1249.815273 393.76368 
L 1256.308364 400.42152 
L 1262.801455 407.07936 
L 1269.294545 413.7372 
L 1275.787636 420.39504 
L 1282.280727 427.05288 
L 1288.773818 433.71072 
L 1295.266909 440.36856 
L 1301.76 447.0264 
L 1308.253091 453.68424 
L 1314.746182 460.34208 
L 1321.239273 466.99992 
L 1327.732364 473.65776 
L 1334.225455 480.3156 
L 1340.718545 486.97344 
L 1347.211636 493.63128 
L 1353.704727 500.28912 
L 1360.197818 506.94696 
L 1366.690909 513.6048 
L 1373.184 520.26264 
L 1379.677091 526.92048 
L 1386.170182 533.57832 
L 1392.663273 540.23616 
L 1399.156364 546.894 
L 1405.649455 553.55184 
L 1412.142545 560.20968 
L 1418.635636 566.86752 
L 1425.128727 573.52536 
L 1431.621818 580.1832 
L 1438.114909 586.84104 
L 1444.608 593.49888 
L 1451.101091 600.15672 
L 1457.594182 606.81456 
L 1464.087273 613.4724 
L 1470.580364 620.13024 
L 1477.073455 626.78808 
L 1483.566545 633.44592 
L 1490.059636 640.10376 
L 1496.552727 646.7616 
L 1503.045818 653.41944 
L 1509.538909 660.07728 
L 1516.032 666.73512 
L 1522.525091 673.39296 
L 1529.018182 680.0508 
L 1535.511273 686.70864 
L 1542.004364 693.36648 
L 1548.497455 700.02432 
L 1554.990545 706.68216 
L 1561.483636 713.34 
L 1567.976727 719.99784 
L 1574.469818 726.65568 
L 1580.962909 733.31352 
L 1587.456 739.97136 
L 1593.949091 746.6292 
L 1600.442182 753.28704 
L 1606.935273 759.94488 
L 1613.428364 766.60272 
L 1619.921455 773.26056 
L 1626.414545 779.9184 
L 1632.907636 786.57624 
L 1639.400727 793.23408 
L 1645.893818 799.89192 
L 1652.386909 806.54976 
L 1658.88 813.2076 
" clip-path="url(#p887fef6d53)" style="fill: none; stroke-dasharray: 5.55,2.4; stroke-dashoffset: 0; stroke: #008000; stroke-width: 1.5"/>
   </g>
   <g id="line2d_35">
    <path d="M 1009.570909 342.301966 
L 1016.064 344.691212 
L 1022.557091 347.080459 
L 1029.050182 349.469706 
L 1035.543273 351.858953 
L 1042.036364 354.248199 
L 1048.529455 356.637446 
L 1055.022545 359.026693 
L 1061.515636 361.41594 
L 1068.008727 363.805186 
L 1074.501818 366.194433 
L 1080.994909 368.58368 
L 1087.488 370.972927 
L 1093.981091 373.362173 
L 1100.474182 375.75142 
L 1106.967273 378.140667 
L 1113.460364 380.529914 
L 1119.953455 382.91916 
L 1126.446545 385.308407 
L 1132.939636 387.697654 
L 1139.432727 390.086901 
L 1145.925818 392.476147 
L 1152.418909 394.865394 
L 1158.912 397.254641 
L 1165.405091 399.643887 
L 1171.898182 402.033134 
L 1178.391273 404.422381 
L 1184.884364 406.811628 
L 1191.377455 409.200874 
L 1197.870545 411.590121 
L 1204.363636 413.979368 
L 1210.856727 416.368615 
L 1217.349818 418.757861 
L 1223.842909 421.147108 
L 1230.336 423.536355 
L 1236.829091 425.925602 
L 1243.322182 428.314848 
L 1249.815273 430.704095 
L 1256.308364 433.093342 
L 1262.801455 435.482589 
L 1269.294545 437.871835 
L 1275.787636 440.261082 
L 1282.280727 442.650329 
L 1288.773818 445.039576 
L 1295.266909 447.428822 
L 1301.76 449.818069 
L 1308.253091 452.207316 
L 1314.746182 454.596562 
L 1321.239273 456.985809 
L 1327.732364 459.375056 
L 1334.225455 461.764303 
L 1340.718545 464.153549 
L 1347.211636 466.542796 
L 1353.704727 468.932043 
L 1360.197818 471.32129 
L 1366.690909 473.710536 
L 1373.184 476.099783 
L 1379.677091 478.48903 
L 1386.170182 480.878277 
L 1392.663273 483.267523 
L 1399.156364 485.65677 
L 1405.649455 488.046017 
L 1412.142545 490.435264 
L 1418.635636 492.82451 
L 1425.128727 495.213757 
L 1431.621818 497.603004 
L 1438.114909 499.992251 
L 1444.608 502.381497 
L 1451.101091 504.770744 
L 1457.594182 507.159991 
L 1464.087273 509.549237 
L 1470.580364 511.938484 
L 1477.073455 514.327731 
L 1483.566545 516.716978 
L 1490.059636 519.106224 
L 1496.552727 521.495471 
L 1503.045818 523.884718 
L 1509.538909 526.273965 
L 1516.032 528.663211 
L 1522.525091 531.052458 
L 1529.018182 533.441705 
L 1535.511273 535.830952 
L 1542.004364 538.220198 
L 1548.497455 540.609445 
L 1554.990545 542.998692 
L 1561.483636 545.387939 
L 1567.976727 547.777185 
L 1574.469818 550.166432 
L 1580.962909 552.555679 
L 1587.456 554.944926 
L 1593.949091 557.334172 
L 1600.442182 559.723419 
L 1606.935273 562.112666 
L 1613.428364 564.501912 
L 1619.921455 566.891159 
L 1626.414545 569.280406 
L 1632.907636 571.669653 
L 1639.400727 574.058899 
L 1645.893818 576.448146 
L 1652.386909 578.837393 
L 1658.88 581.22664 
" clip-path="url(#p887fef6d53)" style="fill: none; stroke-dasharray: 5.55,2.4; stroke-dashoffset: 0; stroke: #ff0000; stroke-width: 1.5"/>
   </g>
   <g id="line2d_36">
    <path d="M 1009.570909 414.884742 
L 1016.064 415.886472 
L 1022.557091 416.888202 
L 1029.050182 417.889933 
L 1035.543273 418.891663 
L 1042.036364 419.893393 
L 1048.529455 420.895123 
L 1055.022545 421.896853 
L 1061.515636 422.898583 
L 1068.008727 423.900313 
L 1074.501818 424.902043 
L 1080.994909 425.903773 
L 1087.488 426.905503 
L 1093.981091 427.907233 
L 1100.474182 428.908963 
L 1106.967273 429.910693 
L 1113.460364 430.912423 
L 1119.953455 431.914153 
L 1126.446545 432.915883 
L 1132.939636 433.917613 
L 1139.432727 434.919343 
L 1145.925818 435.921074 
L 1152.418909 436.922804 
L 1158.912 437.924534 
L 1165.405091 438.926264 
L 1171.898182 439.927994 
L 1178.391273 440.929724 
L 1184.884364 441.931454 
L 1191.377455 442.933184 
L 1197.870545 443.934914 
L 1204.363636 444.936644 
L 1210.856727 445.938374 
L 1217.349818 446.940104 
L 1223.842909 447.941834 
L 1230.336 448.943564 
L 1236.829091 449.945294 
L 1243.322182 450.947024 
L 1249.815273 451.948754 
L 1256.308364 452.950484 
L 1262.801455 453.952215 
L 1269.294545 454.953945 
L 1275.787636 455.955675 
L 1282.280727 456.957405 
L 1288.773818 457.959135 
L 1295.266909 458.960865 
L 1301.76 459.962595 
L 1308.253091 460.964325 
L 1314.746182 461.966055 
L 1321.239273 462.967785 
L 1327.732364 463.969515 
L 1334.225455 464.971245 
L 1340.718545 465.972975 
L 1347.211636 466.974705 
L 1353.704727 467.976435 
L 1360.197818 468.978165 
L 1366.690909 469.979895 
L 1373.184 470.981625 
L 1379.677091 471.983356 
L 1386.170182 472.985086 
L 1392.663273 473.986816 
L 1399.156364 474.988546 
L 1405.649455 475.990276 
L 1412.142545 476.992006 
L 1418.635636 477.993736 
L 1425.128727 478.995466 
L 1431.621818 479.997196 
L 1438.114909 480.998926 
L 1444.608 482.000656 
L 1451.101091 483.002386 
L 1457.594182 484.004116 
L 1464.087273 485.005846 
L 1470.580364 486.007576 
L 1477.073455 487.009306 
L 1483.566545 488.011036 
L 1490.059636 489.012766 
L 1496.552727 490.014497 
L 1503.045818 491.016227 
L 1509.538909 492.017957 
L 1516.032 493.019687 
L 1522.525091 494.021417 
L 1529.018182 495.023147 
L 1535.511273 496.024877 
L 1542.004364 497.026607 
L 1548.497455 498.028337 
L 1554.990545 499.030067 
L 1561.483636 500.031797 
L 1567.976727 501.033527 
L 1574.469818 502.035257 
L 1580.962909 503.036987 
L 1587.456 504.038717 
L 1593.949091 505.040447 
L 1600.442182 506.042177 
L 1606.935273 507.043907 
L 1613.428364 508.045637 
L 1619.921455 509.047368 
L 1626.414545 510.049098 
L 1632.907636 511.050828 
L 1639.400727 512.052558 
L 1645.893818 513.054288 
L 1652.386909 514.056018 
L 1658.88 515.057748 
" clip-path="url(#p887fef6d53)" style="fill: none; stroke-dasharray: 5.55,2.4; stroke-dashoffset: 0; stroke: #0000ff; stroke-width: 1.5"/>
   </g>
   <g id="LineCollection_10">
    <path d="M 1009.570909 431.266873 
L 1658.88 431.266873 
" clip-path="url(#p887fef6d53)" style="fill: none; stroke-dasharray: 5.55,2.4; stroke-dashoffset: 0; stroke: #000000; stroke-width: 1.5"/>
   </g>
   <g id="patch_9">
    <path d="M 1009.570909 846.4968 
L 1009.570909 114.1344 
" style="fill: none; stroke: #000000; stroke-width: 0.8; stroke-linejoin: miter; stroke-linecap: square"/>
   </g>
   <g id="patch_10">
    <path d="M 1658.88 846.4968 
L 1658.88 114.1344 
" style="fill: none; stroke: #000000; stroke-width: 0.8; stroke-linejoin: miter; stroke-linecap: square"/>
   </g>
   <g id="patch_11">
    <path d="M 1009.570909 846.4968 
L 1658.88 846.4968 
" style="fill: none; stroke: #000000; stroke-width: 0.8; stroke-linejoin: miter; stroke-linecap: square"/>
   </g>
   <g id="patch_12">
    <path d="M 1009.570909 114.1344 
L 1658.88 114.1344 
" style="fill: none; stroke: #000000; stroke-width: 0.8; stroke-linejoin: miter; stroke-linecap: square"/>
   </g>
  </g>
 </g>
 <defs>
  <clipPath id="pd91ab8c110">
   <rect x="230.4" y="114.1344" width="649.309091" height="732.3624"/>
  </clipPath>
  <clipPath id="p887fef6d53">
   <rect x="1009.570909" y="114.1344" width="649.309091" height="732.3624"/>
  </clipPath>
 </defs>
</svg>
