<?xml version="1.0" encoding="utf-8" standalone="no"?>
<!DOCTYPE svg PUBLIC "-//W3C//DTD SVG 1.1//EN"
  "http://www.w3.org/Graphics/SVG/1.1/DTD/svg11.dtd">
<svg xmlns:xlink="http://www.w3.org/1999/xlink" width="1843.2pt" height="951.12pt" viewBox="0 0 1843.2 951.12" xmlns="http://www.w3.org/2000/svg" version="1.1">
 <metadata>
  <rdf:RDF xmlns:dc="http://purl.org/dc/elements/1.1/" xmlns:cc="http://creativecommons.org/ns#" xmlns:rdf="http://www.w3.org/1999/02/22-rdf-syntax-ns#">
   <cc:Work>
    <dc:type rdf:resource="http://purl.org/dc/dcmitype/StillImage"/>
    <dc:date>2022-10-05T09:47:43.328885</dc:date>
    <dc:format>image/svg+xml</dc:format>
    <dc:creator>
     <cc:Agent>
      <dc:title>Matplotlib v3.5.1, https://matplotlib.org/</dc:title>
     </cc:Agent>
    </dc:creator>
   </cc:Work>
  </rdf:RDF>
 </metadata>
 <defs>
  <style type="text/css">*{stroke-linejoin: round; stroke-linecap: butt}</style>
 </defs>
 <g id="figure_1">
  <g id="patch_1">
   <path d="M 0 951.12 
L 1843.2 951.12 
L 1843.2 0 
L 0 0 
z
" style="fill: #ffffff"/>
  </g>
  <g id="axes_1">
   <g id="patch_2">
    <path d="M 230.4 846.4968 
L 879.709091 846.4968 
L 879.709091 114.1344 
L 230.4 114.1344 
z
" style="fill: #ffffff"/>
   </g>
   <g id="PathCollection_1">
    <defs>
     <path id="m734a353636" d="M -3.061862 6.123724 
L 0 3.061862 
L 3.061862 6.123724 
L 6.123724 3.061862 
L 3.061862 0 
L 6.123724 -3.061862 
L 3.061862 -6.123724 
L 0 -3.061862 
L -3.061862 -6.123724 
L -6.123724 -3.061862 
L -3.061862 0 
L -6.123724 3.061862 
z
" style="stroke: #008000"/>
    </defs>
    <g clip-path="url(#p7d393c0ff2)">
     <use xlink:href="#m734a353636" x="567.391418" y="584.309101" style="fill: #008000; stroke: #008000"/>
    </g>
   </g>
   <g id="PathCollection_2">
    <defs>
     <path id="m45364840d9" d="M 0 -6.123724 
L -1.374862 -1.892335 
L -5.824008 -1.892335 
L -2.224573 0.722808 
L -3.599435 4.954197 
L -0 2.339054 
L 3.599435 4.954197 
L 2.224573 0.722808 
L 5.824008 -1.892335 
L 1.374862 -1.892335 
z
" style="stroke: #ffa500"/>
    </defs>
    <g clip-path="url(#p7d393c0ff2)">
     <use xlink:href="#m45364840d9" x="789.714851" y="538.528036" style="fill: #ffa500; stroke: #ffa500"/>
    </g>
   </g>
   <g id="PathCollection_3">
    <defs>
     <path id="mdc6274719a" d="M 0 -6.123724 
L -5.824008 -1.892335 
L -3.599435 4.954197 
L 3.599435 4.954197 
L 5.824008 -1.892335 
z
" style="stroke: #ff0000"/>
    </defs>
    <g clip-path="url(#p7d393c0ff2)">
     <use xlink:href="#mdc6274719a" x="529.212044" y="608.785267" style="fill: #ff0000; stroke: #ff0000"/>
    </g>
   </g>
   <g id="PathCollection_4">
    <g clip-path="url(#p7d393c0ff2)">
     <use xlink:href="#m734a353636" x="567.391418" y="141.17722" style="fill: #008000; stroke: #008000"/>
    </g>
   </g>
   <g id="PathCollection_5">
    <g clip-path="url(#p7d393c0ff2)"/>
   </g>
   <g id="PathCollection_6">
    <g clip-path="url(#p7d393c0ff2)">
     <use xlink:href="#mdc6274719a" x="529.212044" y="406.707037" style="fill: #ff0000; stroke: #ff0000"/>
    </g>
   </g>
   <g id="PathCollection_7">
    <g clip-path="url(#p7d393c0ff2)">
     <use xlink:href="#m734a353636" x="567.391418" y="465.199241" style="fill: #008000; stroke: #008000"/>
    </g>
   </g>
   <g id="PathCollection_8">
    <g clip-path="url(#p7d393c0ff2)">
     <use xlink:href="#m45364840d9" x="789.714851" y="214.540886" style="fill: #ffa500; stroke: #ffa500"/>
    </g>
   </g>
   <g id="PathCollection_9">
    <g clip-path="url(#p7d393c0ff2)">
     <use xlink:href="#mdc6274719a" x="529.212044" y="510.355375" style="fill: #ff0000; stroke: #ff0000"/>
    </g>
   </g>
   <g id="matplotlib.axis_1">
    <g id="xtick_1">
     <g id="line2d_1">
      <defs>
       <path id="m78a8bdbdbc" d="M 0 0 
L 0 3.5 
" style="stroke: #000000; stroke-width: 0.8"/>
      </defs>
      <g>
       <use xlink:href="#m78a8bdbdbc" x="230.4" y="846.4968" style="stroke: #000000; stroke-width: 0.8"/>
      </g>
     </g>
     <g id="text_1">
      <!-- 0 -->
      <g transform="translate(225.31 865.6543)scale(0.16 -0.16)">
       <defs>
        <path id="DejaVuSans-30" d="M 2034 4250 
Q 1547 4250 1301 3770 
Q 1056 3291 1056 2328 
Q 1056 1369 1301 889 
Q 1547 409 2034 409 
Q 2525 409 2770 889 
Q 3016 1369 3016 2328 
Q 3016 3291 2770 3770 
Q 2525 4250 2034 4250 
z
M 2034 4750 
Q 2819 4750 3233 4129 
Q 3647 3509 3647 2328 
Q 3647 1150 3233 529 
Q 2819 -91 2034 -91 
Q 1250 -91 836 529 
Q 422 1150 422 2328 
Q 422 3509 836 4129 
Q 1250 4750 2034 4750 
z
" transform="scale(0.015625)"/>
       </defs>
       <use xlink:href="#DejaVuSans-30"/>
      </g>
     </g>
    </g>
    <g id="xtick_2">
     <g id="line2d_2">
      <g>
       <use xlink:href="#m78a8bdbdbc" x="360.261818" y="846.4968" style="stroke: #000000; stroke-width: 0.8"/>
      </g>
     </g>
     <g id="text_2">
      <!-- 1000 -->
      <g transform="translate(339.901818 865.6543)scale(0.16 -0.16)">
       <defs>
        <path id="DejaVuSans-31" d="M 794 531 
L 1825 531 
L 1825 4091 
L 703 3866 
L 703 4441 
L 1819 4666 
L 2450 4666 
L 2450 531 
L 3481 531 
L 3481 0 
L 794 0 
L 794 531 
z
" transform="scale(0.015625)"/>
       </defs>
       <use xlink:href="#DejaVuSans-31"/>
       <use xlink:href="#DejaVuSans-30" x="63.623047"/>
       <use xlink:href="#DejaVuSans-30" x="127.246094"/>
       <use xlink:href="#DejaVuSans-30" x="190.869141"/>
      </g>
     </g>
    </g>
    <g id="xtick_3">
     <g id="line2d_3">
      <g>
       <use xlink:href="#m78a8bdbdbc" x="490.123636" y="846.4968" style="stroke: #000000; stroke-width: 0.8"/>
      </g>
     </g>
     <g id="text_3">
      <!-- 2000 -->
      <g transform="translate(469.763636 865.6543)scale(0.16 -0.16)">
       <defs>
        <path id="DejaVuSans-32" d="M 1228 531 
L 3431 531 
L 3431 0 
L 469 0 
L 469 531 
Q 828 903 1448 1529 
Q 2069 2156 2228 2338 
Q 2531 2678 2651 2914 
Q 2772 3150 2772 3378 
Q 2772 3750 2511 3984 
Q 2250 4219 1831 4219 
Q 1534 4219 1204 4116 
Q 875 4013 500 3803 
L 500 4441 
Q 881 4594 1212 4672 
Q 1544 4750 1819 4750 
Q 2544 4750 2975 4387 
Q 3406 4025 3406 3419 
Q 3406 3131 3298 2873 
Q 3191 2616 2906 2266 
Q 2828 2175 2409 1742 
Q 1991 1309 1228 531 
z
" transform="scale(0.015625)"/>
       </defs>
       <use xlink:href="#DejaVuSans-32"/>
       <use xlink:href="#DejaVuSans-30" x="63.623047"/>
       <use xlink:href="#DejaVuSans-30" x="127.246094"/>
       <use xlink:href="#DejaVuSans-30" x="190.869141"/>
      </g>
     </g>
    </g>
    <g id="xtick_4">
     <g id="line2d_4">
      <g>
       <use xlink:href="#m78a8bdbdbc" x="619.985455" y="846.4968" style="stroke: #000000; stroke-width: 0.8"/>
      </g>
     </g>
     <g id="text_4">
      <!-- 3000 -->
      <g transform="translate(599.625455 865.6543)scale(0.16 -0.16)">
       <defs>
        <path id="DejaVuSans-33" d="M 2597 2516 
Q 3050 2419 3304 2112 
Q 3559 1806 3559 1356 
Q 3559 666 3084 287 
Q 2609 -91 1734 -91 
Q 1441 -91 1130 -33 
Q 819 25 488 141 
L 488 750 
Q 750 597 1062 519 
Q 1375 441 1716 441 
Q 2309 441 2620 675 
Q 2931 909 2931 1356 
Q 2931 1769 2642 2001 
Q 2353 2234 1838 2234 
L 1294 2234 
L 1294 2753 
L 1863 2753 
Q 2328 2753 2575 2939 
Q 2822 3125 2822 3475 
Q 2822 3834 2567 4026 
Q 2313 4219 1838 4219 
Q 1578 4219 1281 4162 
Q 984 4106 628 3988 
L 628 4550 
Q 988 4650 1302 4700 
Q 1616 4750 1894 4750 
Q 2613 4750 3031 4423 
Q 3450 4097 3450 3541 
Q 3450 3153 3228 2886 
Q 3006 2619 2597 2516 
z
" transform="scale(0.015625)"/>
       </defs>
       <use xlink:href="#DejaVuSans-33"/>
       <use xlink:href="#DejaVuSans-30" x="63.623047"/>
       <use xlink:href="#DejaVuSans-30" x="127.246094"/>
       <use xlink:href="#DejaVuSans-30" x="190.869141"/>
      </g>
     </g>
    </g>
    <g id="xtick_5">
     <g id="line2d_5">
      <g>
       <use xlink:href="#m78a8bdbdbc" x="749.847273" y="846.4968" style="stroke: #000000; stroke-width: 0.8"/>
      </g>
     </g>
     <g id="text_5">
      <!-- 4000 -->
      <g transform="translate(729.487273 865.6543)scale(0.16 -0.16)">
       <defs>
        <path id="DejaVuSans-34" d="M 2419 4116 
L 825 1625 
L 2419 1625 
L 2419 4116 
z
M 2253 4666 
L 3047 4666 
L 3047 1625 
L 3713 1625 
L 3713 1100 
L 3047 1100 
L 3047 0 
L 2419 0 
L 2419 1100 
L 313 1100 
L 313 1709 
L 2253 4666 
z
" transform="scale(0.015625)"/>
       </defs>
       <use xlink:href="#DejaVuSans-34"/>
       <use xlink:href="#DejaVuSans-30" x="63.623047"/>
       <use xlink:href="#DejaVuSans-30" x="127.246094"/>
       <use xlink:href="#DejaVuSans-30" x="190.869141"/>
      </g>
     </g>
    </g>
    <g id="xtick_6">
     <g id="line2d_6">
      <g>
       <use xlink:href="#m78a8bdbdbc" x="879.709091" y="846.4968" style="stroke: #000000; stroke-width: 0.8"/>
      </g>
     </g>
     <g id="text_6">
      <!-- 5000 -->
      <g transform="translate(859.349091 865.6543)scale(0.16 -0.16)">
       <defs>
        <path id="DejaVuSans-35" d="M 691 4666 
L 3169 4666 
L 3169 4134 
L 1269 4134 
L 1269 2991 
Q 1406 3038 1543 3061 
Q 1681 3084 1819 3084 
Q 2600 3084 3056 2656 
Q 3513 2228 3513 1497 
Q 3513 744 3044 326 
Q 2575 -91 1722 -91 
Q 1428 -91 1123 -41 
Q 819 9 494 109 
L 494 744 
Q 775 591 1075 516 
Q 1375 441 1709 441 
Q 2250 441 2565 725 
Q 2881 1009 2881 1497 
Q 2881 1984 2565 2268 
Q 2250 2553 1709 2553 
Q 1456 2553 1204 2497 
Q 953 2441 691 2322 
L 691 4666 
z
" transform="scale(0.015625)"/>
       </defs>
       <use xlink:href="#DejaVuSans-35"/>
       <use xlink:href="#DejaVuSans-30" x="63.623047"/>
       <use xlink:href="#DejaVuSans-30" x="127.246094"/>
       <use xlink:href="#DejaVuSans-30" x="190.869141"/>
      </g>
     </g>
    </g>
    <g id="text_7">
     <!-- Natural gas price [\$ t$^\mathrm{-1}$] -->
     <g transform="translate(458.254545 887.3818)scale(0.16 -0.16)">
      <defs>
       <path id="DejaVuSans-4e" d="M 628 4666 
L 1478 4666 
L 3547 763 
L 3547 4666 
L 4159 4666 
L 4159 0 
L 3309 0 
L 1241 3903 
L 1241 0 
L 628 0 
L 628 4666 
z
" transform="scale(0.015625)"/>
       <path id="DejaVuSans-61" d="M 2194 1759 
Q 1497 1759 1228 1600 
Q 959 1441 959 1056 
Q 959 750 1161 570 
Q 1363 391 1709 391 
Q 2188 391 2477 730 
Q 2766 1069 2766 1631 
L 2766 1759 
L 2194 1759 
z
M 3341 1997 
L 3341 0 
L 2766 0 
L 2766 531 
Q 2569 213 2275 61 
Q 1981 -91 1556 -91 
Q 1019 -91 701 211 
Q 384 513 384 1019 
Q 384 1609 779 1909 
Q 1175 2209 1959 2209 
L 2766 2209 
L 2766 2266 
Q 2766 2663 2505 2880 
Q 2244 3097 1772 3097 
Q 1472 3097 1187 3025 
Q 903 2953 641 2809 
L 641 3341 
Q 956 3463 1253 3523 
Q 1550 3584 1831 3584 
Q 2591 3584 2966 3190 
Q 3341 2797 3341 1997 
z
" transform="scale(0.015625)"/>
       <path id="DejaVuSans-74" d="M 1172 4494 
L 1172 3500 
L 2356 3500 
L 2356 3053 
L 1172 3053 
L 1172 1153 
Q 1172 725 1289 603 
Q 1406 481 1766 481 
L 2356 481 
L 2356 0 
L 1766 0 
Q 1100 0 847 248 
Q 594 497 594 1153 
L 594 3053 
L 172 3053 
L 172 3500 
L 594 3500 
L 594 4494 
L 1172 4494 
z
" transform="scale(0.015625)"/>
       <path id="DejaVuSans-75" d="M 544 1381 
L 544 3500 
L 1119 3500 
L 1119 1403 
Q 1119 906 1312 657 
Q 1506 409 1894 409 
Q 2359 409 2629 706 
Q 2900 1003 2900 1516 
L 2900 3500 
L 3475 3500 
L 3475 0 
L 2900 0 
L 2900 538 
Q 2691 219 2414 64 
Q 2138 -91 1772 -91 
Q 1169 -91 856 284 
Q 544 659 544 1381 
z
M 1991 3584 
L 1991 3584 
z
" transform="scale(0.015625)"/>
       <path id="DejaVuSans-72" d="M 2631 2963 
Q 2534 3019 2420 3045 
Q 2306 3072 2169 3072 
Q 1681 3072 1420 2755 
Q 1159 2438 1159 1844 
L 1159 0 
L 581 0 
L 581 3500 
L 1159 3500 
L 1159 2956 
Q 1341 3275 1631 3429 
Q 1922 3584 2338 3584 
Q 2397 3584 2469 3576 
Q 2541 3569 2628 3553 
L 2631 2963 
z
" transform="scale(0.015625)"/>
       <path id="DejaVuSans-6c" d="M 603 4863 
L 1178 4863 
L 1178 0 
L 603 0 
L 603 4863 
z
" transform="scale(0.015625)"/>
       <path id="DejaVuSans-20" transform="scale(0.015625)"/>
       <path id="DejaVuSans-67" d="M 2906 1791 
Q 2906 2416 2648 2759 
Q 2391 3103 1925 3103 
Q 1463 3103 1205 2759 
Q 947 2416 947 1791 
Q 947 1169 1205 825 
Q 1463 481 1925 481 
Q 2391 481 2648 825 
Q 2906 1169 2906 1791 
z
M 3481 434 
Q 3481 -459 3084 -895 
Q 2688 -1331 1869 -1331 
Q 1566 -1331 1297 -1286 
Q 1028 -1241 775 -1147 
L 775 -588 
Q 1028 -725 1275 -790 
Q 1522 -856 1778 -856 
Q 2344 -856 2625 -561 
Q 2906 -266 2906 331 
L 2906 616 
Q 2728 306 2450 153 
Q 2172 0 1784 0 
Q 1141 0 747 490 
Q 353 981 353 1791 
Q 353 2603 747 3093 
Q 1141 3584 1784 3584 
Q 2172 3584 2450 3431 
Q 2728 3278 2906 2969 
L 2906 3500 
L 3481 3500 
L 3481 434 
z
" transform="scale(0.015625)"/>
       <path id="DejaVuSans-73" d="M 2834 3397 
L 2834 2853 
Q 2591 2978 2328 3040 
Q 2066 3103 1784 3103 
Q 1356 3103 1142 2972 
Q 928 2841 928 2578 
Q 928 2378 1081 2264 
Q 1234 2150 1697 2047 
L 1894 2003 
Q 2506 1872 2764 1633 
Q 3022 1394 3022 966 
Q 3022 478 2636 193 
Q 2250 -91 1575 -91 
Q 1294 -91 989 -36 
Q 684 19 347 128 
L 347 722 
Q 666 556 975 473 
Q 1284 391 1588 391 
Q 1994 391 2212 530 
Q 2431 669 2431 922 
Q 2431 1156 2273 1281 
Q 2116 1406 1581 1522 
L 1381 1569 
Q 847 1681 609 1914 
Q 372 2147 372 2553 
Q 372 3047 722 3315 
Q 1072 3584 1716 3584 
Q 2034 3584 2315 3537 
Q 2597 3491 2834 3397 
z
" transform="scale(0.015625)"/>
       <path id="DejaVuSans-70" d="M 1159 525 
L 1159 -1331 
L 581 -1331 
L 581 3500 
L 1159 3500 
L 1159 2969 
Q 1341 3281 1617 3432 
Q 1894 3584 2278 3584 
Q 2916 3584 3314 3078 
Q 3713 2572 3713 1747 
Q 3713 922 3314 415 
Q 2916 -91 2278 -91 
Q 1894 -91 1617 61 
Q 1341 213 1159 525 
z
M 3116 1747 
Q 3116 2381 2855 2742 
Q 2594 3103 2138 3103 
Q 1681 3103 1420 2742 
Q 1159 2381 1159 1747 
Q 1159 1113 1420 752 
Q 1681 391 2138 391 
Q 2594 391 2855 752 
Q 3116 1113 3116 1747 
z
" transform="scale(0.015625)"/>
       <path id="DejaVuSans-69" d="M 603 3500 
L 1178 3500 
L 1178 0 
L 603 0 
L 603 3500 
z
M 603 4863 
L 1178 4863 
L 1178 4134 
L 603 4134 
L 603 4863 
z
" transform="scale(0.015625)"/>
       <path id="DejaVuSans-63" d="M 3122 3366 
L 3122 2828 
Q 2878 2963 2633 3030 
Q 2388 3097 2138 3097 
Q 1578 3097 1268 2742 
Q 959 2388 959 1747 
Q 959 1106 1268 751 
Q 1578 397 2138 397 
Q 2388 397 2633 464 
Q 2878 531 3122 666 
L 3122 134 
Q 2881 22 2623 -34 
Q 2366 -91 2075 -91 
Q 1284 -91 818 406 
Q 353 903 353 1747 
Q 353 2603 823 3093 
Q 1294 3584 2113 3584 
Q 2378 3584 2631 3529 
Q 2884 3475 3122 3366 
z
" transform="scale(0.015625)"/>
       <path id="DejaVuSans-65" d="M 3597 1894 
L 3597 1613 
L 953 1613 
Q 991 1019 1311 708 
Q 1631 397 2203 397 
Q 2534 397 2845 478 
Q 3156 559 3463 722 
L 3463 178 
Q 3153 47 2828 -22 
Q 2503 -91 2169 -91 
Q 1331 -91 842 396 
Q 353 884 353 1716 
Q 353 2575 817 3079 
Q 1281 3584 2069 3584 
Q 2775 3584 3186 3129 
Q 3597 2675 3597 1894 
z
M 3022 2063 
Q 3016 2534 2758 2815 
Q 2500 3097 2075 3097 
Q 1594 3097 1305 2825 
Q 1016 2553 972 2059 
L 3022 2063 
z
" transform="scale(0.015625)"/>
       <path id="DejaVuSans-5b" d="M 550 4863 
L 1875 4863 
L 1875 4416 
L 1125 4416 
L 1125 -397 
L 1875 -397 
L 1875 -844 
L 550 -844 
L 550 4863 
z
" transform="scale(0.015625)"/>
       <path id="DejaVuSans-24" d="M 2163 -941 
L 1850 -941 
L 1847 0 
Q 1519 6 1191 76 
Q 863 147 531 288 
L 531 850 
Q 850 650 1176 548 
Q 1503 447 1850 444 
L 1850 1869 
Q 1159 1981 845 2250 
Q 531 2519 531 2988 
Q 531 3497 872 3790 
Q 1213 4084 1850 4128 
L 1850 4863 
L 2163 4863 
L 2163 4138 
Q 2453 4125 2725 4076 
Q 2997 4028 3256 3944 
L 3256 3397 
Q 2997 3528 2723 3600 
Q 2450 3672 2163 3684 
L 2163 2350 
Q 2872 2241 3206 1959 
Q 3541 1678 3541 1191 
Q 3541 663 3186 358 
Q 2831 53 2163 6 
L 2163 -941 
z
M 1850 2406 
L 1850 3688 
Q 1488 3647 1297 3481 
Q 1106 3316 1106 3041 
Q 1106 2772 1282 2622 
Q 1459 2472 1850 2406 
z
M 2163 1806 
L 2163 453 
Q 2559 506 2761 678 
Q 2963 850 2963 1131 
Q 2963 1406 2770 1568 
Q 2578 1731 2163 1806 
z
" transform="scale(0.015625)"/>
       <path id="DejaVuSans-2212" d="M 678 2272 
L 4684 2272 
L 4684 1741 
L 678 1741 
L 678 2272 
z
" transform="scale(0.015625)"/>
       <path id="DejaVuSans-5d" d="M 1947 4863 
L 1947 -844 
L 622 -844 
L 622 -397 
L 1369 -397 
L 1369 4416 
L 622 4416 
L 622 4863 
L 1947 4863 
z
" transform="scale(0.015625)"/>
      </defs>
      <use xlink:href="#DejaVuSans-4e" transform="translate(0 0.684375)"/>
      <use xlink:href="#DejaVuSans-61" transform="translate(74.804688 0.684375)"/>
      <use xlink:href="#DejaVuSans-74" transform="translate(136.083984 0.684375)"/>
      <use xlink:href="#DejaVuSans-75" transform="translate(175.292969 0.684375)"/>
      <use xlink:href="#DejaVuSans-72" transform="translate(238.671875 0.684375)"/>
      <use xlink:href="#DejaVuSans-61" transform="translate(279.785156 0.684375)"/>
      <use xlink:href="#DejaVuSans-6c" transform="translate(341.064453 0.684375)"/>
      <use xlink:href="#DejaVuSans-20" transform="translate(368.847656 0.684375)"/>
      <use xlink:href="#DejaVuSans-67" transform="translate(400.634766 0.684375)"/>
      <use xlink:href="#DejaVuSans-61" transform="translate(464.111328 0.684375)"/>
      <use xlink:href="#DejaVuSans-73" transform="translate(525.390625 0.684375)"/>
      <use xlink:href="#DejaVuSans-20" transform="translate(577.490234 0.684375)"/>
      <use xlink:href="#DejaVuSans-70" transform="translate(609.277344 0.684375)"/>
      <use xlink:href="#DejaVuSans-72" transform="translate(672.753906 0.684375)"/>
      <use xlink:href="#DejaVuSans-69" transform="translate(713.867188 0.684375)"/>
      <use xlink:href="#DejaVuSans-63" transform="translate(741.650391 0.684375)"/>
      <use xlink:href="#DejaVuSans-65" transform="translate(796.630859 0.684375)"/>
      <use xlink:href="#DejaVuSans-20" transform="translate(858.154297 0.684375)"/>
      <use xlink:href="#DejaVuSans-5b" transform="translate(889.941406 0.684375)"/>
      <use xlink:href="#DejaVuSans-24" transform="translate(928.955078 0.684375)"/>
      <use xlink:href="#DejaVuSans-20" transform="translate(992.578125 0.684375)"/>
      <use xlink:href="#DejaVuSans-74" transform="translate(1024.365234 0.684375)"/>
      <use xlink:href="#DejaVuSans-2212" transform="translate(1064.53125 38.965625)scale(0.7)"/>
      <use xlink:href="#DejaVuSans-31" transform="translate(1123.183594 38.965625)scale(0.7)"/>
      <use xlink:href="#DejaVuSans-5d" transform="translate(1170.454102 0.684375)"/>
     </g>
    </g>
   </g>
   <g id="matplotlib.axis_2">
    <g id="ytick_1">
     <g id="line2d_7">
      <defs>
       <path id="m1db91d6396" d="M 0 0 
L -3.5 0 
" style="stroke: #000000; stroke-width: 0.8"/>
      </defs>
      <g>
       <use xlink:href="#m1db91d6396" x="230.4" y="783.800853" style="stroke: #000000; stroke-width: 0.8"/>
      </g>
     </g>
     <g id="text_8">
      <!-- 500 -->
      <g transform="translate(192.86 789.879603)scale(0.16 -0.16)">
       <use xlink:href="#DejaVuSans-35"/>
       <use xlink:href="#DejaVuSans-30" x="63.623047"/>
       <use xlink:href="#DejaVuSans-30" x="127.246094"/>
      </g>
     </g>
    </g>
    <g id="ytick_2">
     <g id="line2d_8">
      <g>
       <use xlink:href="#m1db91d6396" x="230.4" y="679.272765" style="stroke: #000000; stroke-width: 0.8"/>
      </g>
     </g>
     <g id="text_9">
      <!-- 1000 -->
      <g transform="translate(182.68 685.351515)scale(0.16 -0.16)">
       <use xlink:href="#DejaVuSans-31"/>
       <use xlink:href="#DejaVuSans-30" x="63.623047"/>
       <use xlink:href="#DejaVuSans-30" x="127.246094"/>
       <use xlink:href="#DejaVuSans-30" x="190.869141"/>
      </g>
     </g>
    </g>
    <g id="ytick_3">
     <g id="line2d_9">
      <g>
       <use xlink:href="#m1db91d6396" x="230.4" y="574.744677" style="stroke: #000000; stroke-width: 0.8"/>
      </g>
     </g>
     <g id="text_10">
      <!-- 1500 -->
      <g transform="translate(182.68 580.823427)scale(0.16 -0.16)">
       <use xlink:href="#DejaVuSans-31"/>
       <use xlink:href="#DejaVuSans-35" x="63.623047"/>
       <use xlink:href="#DejaVuSans-30" x="127.246094"/>
       <use xlink:href="#DejaVuSans-30" x="190.869141"/>
      </g>
     </g>
    </g>
    <g id="ytick_4">
     <g id="line2d_10">
      <g>
       <use xlink:href="#m1db91d6396" x="230.4" y="470.216589" style="stroke: #000000; stroke-width: 0.8"/>
      </g>
     </g>
     <g id="text_11">
      <!-- 2000 -->
      <g transform="translate(182.68 476.295339)scale(0.16 -0.16)">
       <use xlink:href="#DejaVuSans-32"/>
       <use xlink:href="#DejaVuSans-30" x="63.623047"/>
       <use xlink:href="#DejaVuSans-30" x="127.246094"/>
       <use xlink:href="#DejaVuSans-30" x="190.869141"/>
      </g>
     </g>
    </g>
    <g id="ytick_5">
     <g id="line2d_11">
      <g>
       <use xlink:href="#m1db91d6396" x="230.4" y="365.688501" style="stroke: #000000; stroke-width: 0.8"/>
      </g>
     </g>
     <g id="text_12">
      <!-- 2500 -->
      <g transform="translate(182.68 371.767251)scale(0.16 -0.16)">
       <use xlink:href="#DejaVuSans-32"/>
       <use xlink:href="#DejaVuSans-35" x="63.623047"/>
       <use xlink:href="#DejaVuSans-30" x="127.246094"/>
       <use xlink:href="#DejaVuSans-30" x="190.869141"/>
      </g>
     </g>
    </g>
    <g id="ytick_6">
     <g id="line2d_12">
      <g>
       <use xlink:href="#m1db91d6396" x="230.4" y="261.160413" style="stroke: #000000; stroke-width: 0.8"/>
      </g>
     </g>
     <g id="text_13">
      <!-- 3000 -->
      <g transform="translate(182.68 267.239163)scale(0.16 -0.16)">
       <use xlink:href="#DejaVuSans-33"/>
       <use xlink:href="#DejaVuSans-30" x="63.623047"/>
       <use xlink:href="#DejaVuSans-30" x="127.246094"/>
       <use xlink:href="#DejaVuSans-30" x="190.869141"/>
      </g>
     </g>
    </g>
    <g id="ytick_7">
     <g id="line2d_13">
      <g>
       <use xlink:href="#m1db91d6396" x="230.4" y="156.632325" style="stroke: #000000; stroke-width: 0.8"/>
      </g>
     </g>
     <g id="text_14">
      <!-- 3500 -->
      <g transform="translate(182.68 162.711075)scale(0.16 -0.16)">
       <use xlink:href="#DejaVuSans-33"/>
       <use xlink:href="#DejaVuSans-35" x="63.623047"/>
       <use xlink:href="#DejaVuSans-30" x="127.246094"/>
       <use xlink:href="#DejaVuSans-30" x="190.869141"/>
      </g>
     </g>
    </g>
    <g id="text_15">
     <!-- Methanol price [\$ t$^\mathrm{-1}$] -->
     <g transform="translate(175.32 567.9956)rotate(-90)scale(0.16 -0.16)">
      <defs>
       <path id="DejaVuSans-4d" d="M 628 4666 
L 1569 4666 
L 2759 1491 
L 3956 4666 
L 4897 4666 
L 4897 0 
L 4281 0 
L 4281 4097 
L 3078 897 
L 2444 897 
L 1241 4097 
L 1241 0 
L 628 0 
L 628 4666 
z
" transform="scale(0.015625)"/>
       <path id="DejaVuSans-68" d="M 3513 2113 
L 3513 0 
L 2938 0 
L 2938 2094 
Q 2938 2591 2744 2837 
Q 2550 3084 2163 3084 
Q 1697 3084 1428 2787 
Q 1159 2491 1159 1978 
L 1159 0 
L 581 0 
L 581 4863 
L 1159 4863 
L 1159 2956 
Q 1366 3272 1645 3428 
Q 1925 3584 2291 3584 
Q 2894 3584 3203 3211 
Q 3513 2838 3513 2113 
z
" transform="scale(0.015625)"/>
       <path id="DejaVuSans-6e" d="M 3513 2113 
L 3513 0 
L 2938 0 
L 2938 2094 
Q 2938 2591 2744 2837 
Q 2550 3084 2163 3084 
Q 1697 3084 1428 2787 
Q 1159 2491 1159 1978 
L 1159 0 
L 581 0 
L 581 3500 
L 1159 3500 
L 1159 2956 
Q 1366 3272 1645 3428 
Q 1925 3584 2291 3584 
Q 2894 3584 3203 3211 
Q 3513 2838 3513 2113 
z
" transform="scale(0.015625)"/>
       <path id="DejaVuSans-6f" d="M 1959 3097 
Q 1497 3097 1228 2736 
Q 959 2375 959 1747 
Q 959 1119 1226 758 
Q 1494 397 1959 397 
Q 2419 397 2687 759 
Q 2956 1122 2956 1747 
Q 2956 2369 2687 2733 
Q 2419 3097 1959 3097 
z
M 1959 3584 
Q 2709 3584 3137 3096 
Q 3566 2609 3566 1747 
Q 3566 888 3137 398 
Q 2709 -91 1959 -91 
Q 1206 -91 779 398 
Q 353 888 353 1747 
Q 353 2609 779 3096 
Q 1206 3584 1959 3584 
z
" transform="scale(0.015625)"/>
      </defs>
      <use xlink:href="#DejaVuSans-4d" transform="translate(0 0.684375)"/>
      <use xlink:href="#DejaVuSans-65" transform="translate(86.279297 0.684375)"/>
      <use xlink:href="#DejaVuSans-74" transform="translate(147.802734 0.684375)"/>
      <use xlink:href="#DejaVuSans-68" transform="translate(187.011719 0.684375)"/>
      <use xlink:href="#DejaVuSans-61" transform="translate(250.390625 0.684375)"/>
      <use xlink:href="#DejaVuSans-6e" transform="translate(311.669922 0.684375)"/>
      <use xlink:href="#DejaVuSans-6f" transform="translate(375.048828 0.684375)"/>
      <use xlink:href="#DejaVuSans-6c" transform="translate(436.230469 0.684375)"/>
      <use xlink:href="#DejaVuSans-20" transform="translate(464.013672 0.684375)"/>
      <use xlink:href="#DejaVuSans-70" transform="translate(495.800781 0.684375)"/>
      <use xlink:href="#DejaVuSans-72" transform="translate(559.277344 0.684375)"/>
      <use xlink:href="#DejaVuSans-69" transform="translate(600.390625 0.684375)"/>
      <use xlink:href="#DejaVuSans-63" transform="translate(628.173828 0.684375)"/>
      <use xlink:href="#DejaVuSans-65" transform="translate(683.154297 0.684375)"/>
      <use xlink:href="#DejaVuSans-20" transform="translate(744.677734 0.684375)"/>
      <use xlink:href="#DejaVuSans-5b" transform="translate(776.464844 0.684375)"/>
      <use xlink:href="#DejaVuSans-24" transform="translate(815.478516 0.684375)"/>
      <use xlink:href="#DejaVuSans-20" transform="translate(879.101562 0.684375)"/>
      <use xlink:href="#DejaVuSans-74" transform="translate(910.888672 0.684375)"/>
      <use xlink:href="#DejaVuSans-2212" transform="translate(951.054688 38.965625)scale(0.7)"/>
      <use xlink:href="#DejaVuSans-31" transform="translate(1009.707031 38.965625)scale(0.7)"/>
      <use xlink:href="#DejaVuSans-5d" transform="translate(1056.977539 0.684375)"/>
     </g>
    </g>
   </g>
   <g id="line2d_14">
    <path d="M 230.4 846.4968 
L 236.893091 839.173176 
L 243.386182 831.849552 
L 249.879273 824.525928 
L 256.372364 817.202304 
L 262.865455 809.87868 
L 269.358545 802.555056 
L 275.851636 795.231432 
L 282.344727 787.907808 
L 288.837818 780.584184 
L 295.330909 773.26056 
L 301.824 765.936936 
L 308.317091 758.613312 
L 314.810182 751.289688 
L 321.303273 743.966064 
L 327.796364 736.64244 
L 334.289455 729.318816 
L 340.782545 721.995192 
L 347.275636 714.671568 
L 353.768727 707.347944 
L 360.261818 700.02432 
L 366.754909 692.700696 
L 373.248 685.377072 
L 379.741091 678.053448 
L 386.234182 670.729824 
L 392.727273 663.4062 
L 399.220364 656.082576 
L 405.713455 648.758952 
L 412.206545 641.435328 
L 418.699636 634.111704 
L 425.192727 626.78808 
L 431.685818 619.464456 
L 438.178909 612.140832 
L 444.672 604.817208 
L 451.165091 597.493584 
L 457.658182 590.16996 
L 464.151273 582.846336 
L 470.644364 575.522712 
L 477.137455 568.199088 
L 483.630545 560.875464 
L 490.123636 553.55184 
L 496.616727 546.228216 
L 503.109818 538.904592 
L 509.602909 531.580968 
L 516.096 524.257344 
L 522.589091 516.93372 
L 529.082182 509.610096 
L 535.575273 502.286472 
L 542.068364 494.962848 
L 548.561455 487.639224 
L 555.054545 480.3156 
L 561.547636 472.991976 
L 568.040727 465.668352 
L 574.533818 458.344728 
L 581.026909 451.021104 
L 587.52 443.69748 
L 594.013091 436.373856 
L 600.506182 429.050232 
L 606.999273 421.726608 
L 613.492364 414.402984 
L 619.985455 407.07936 
L 626.478545 399.755736 
L 632.971636 392.432112 
L 639.464727 385.108488 
L 645.957818 377.784864 
L 652.450909 370.46124 
L 658.944 363.137616 
L 665.437091 355.813992 
L 671.930182 348.490368 
L 678.423273 341.166744 
L 684.916364 333.84312 
L 691.409455 326.519496 
L 697.902545 319.195872 
L 704.395636 311.872248 
L 710.888727 304.548624 
L 717.381818 297.225 
L 723.874909 289.901376 
L 730.368 282.577752 
L 736.861091 275.254128 
L 743.354182 267.930504 
L 749.847273 260.60688 
L 756.340364 253.283256 
L 762.833455 245.959632 
L 769.326545 238.636008 
L 775.819636 231.312384 
L 782.312727 223.98876 
L 788.805818 216.665136 
L 795.298909 209.341512 
L 801.792 202.017888 
L 808.285091 194.694264 
L 814.778182 187.37064 
L 821.271273 180.047016 
L 827.764364 172.723392 
L 834.257455 165.399768 
L 840.750545 158.076144 
L 847.243636 150.75252 
L 853.736727 143.428896 
L 860.229818 136.105272 
L 866.722909 128.781648 
L 873.216 121.458024 
L 879.709091 114.1344 
" clip-path="url(#p7d393c0ff2)" style="fill: none; stroke: #000000; stroke-width: 1.5; stroke-linecap: square"/>
   </g>
   <g id="line2d_15">
    <path d="M 230.4 554.162628 
L 236.893091 552.472566 
L 243.386182 550.782505 
L 249.879273 549.092443 
L 256.372364 547.402381 
L 262.865455 545.71232 
L 269.358545 544.022258 
L 275.851636 542.332197 
L 282.344727 540.642135 
L 288.837818 538.952073 
L 295.330909 537.262012 
L 301.824 535.57195 
L 308.317091 533.881889 
L 314.810182 532.191827 
L 321.303273 530.501766 
L 327.796364 528.811704 
L 334.289455 527.121642 
L 340.782545 525.431581 
L 347.275636 523.741519 
L 353.768727 522.051458 
L 360.261818 520.361396 
L 366.754909 518.671334 
L 373.248 516.981273 
L 379.741091 515.291211 
L 386.234182 513.60115 
L 392.727273 511.911088 
L 399.220364 510.221026 
L 405.713455 508.530965 
L 412.206545 506.840903 
L 418.699636 505.150842 
L 425.192727 503.46078 
L 431.685818 501.770718 
L 438.178909 500.080657 
L 444.672 498.390595 
L 451.165091 496.700534 
L 457.658182 495.010472 
L 464.151273 493.32041 
L 470.644364 491.630349 
L 477.137455 489.940287 
L 483.630545 488.250226 
L 490.123636 486.560164 
L 496.616727 484.870103 
L 503.109818 483.180041 
L 509.602909 481.489979 
L 516.096 479.799918 
L 522.589091 478.109856 
L 529.082182 476.419795 
L 535.575273 474.729733 
L 542.068364 473.039671 
L 548.561455 471.34961 
L 555.054545 469.659548 
L 561.547636 467.969487 
L 568.040727 466.279425 
L 574.533818 464.589363 
L 581.026909 462.899302 
L 587.52 461.20924 
L 594.013091 459.519179 
L 600.506182 457.829117 
L 606.999273 456.139055 
L 613.492364 454.448994 
L 619.985455 452.758932 
L 626.478545 451.068871 
L 632.971636 449.378809 
L 639.464727 447.688747 
L 645.957818 445.998686 
L 652.450909 444.308624 
L 658.944 442.618563 
L 665.437091 440.928501 
L 671.930182 439.23844 
L 678.423273 437.548378 
L 684.916364 435.858316 
L 691.409455 434.168255 
L 697.902545 432.478193 
L 704.395636 430.788132 
L 710.888727 429.09807 
L 717.381818 427.408008 
L 723.874909 425.717947 
L 730.368 424.027885 
L 736.861091 422.337824 
L 743.354182 420.647762 
L 749.847273 418.9577 
L 756.340364 417.267639 
L 762.833455 415.577577 
L 769.326545 413.887516 
L 775.819636 412.197454 
L 782.312727 410.507392 
L 788.805818 408.817331 
L 795.298909 407.127269 
L 801.792 405.437208 
L 808.285091 403.747146 
L 814.778182 402.057084 
L 821.271273 400.367023 
L 827.764364 398.676961 
L 834.257455 396.9869 
L 840.750545 395.296838 
L 847.243636 393.606777 
L 853.736727 391.916715 
L 860.229818 390.226653 
L 866.722909 388.536592 
L 873.216 386.84653 
L 879.709091 385.156469 
" clip-path="url(#p7d393c0ff2)" style="fill: none; stroke-dasharray: 5.55,2.4; stroke-dashoffset: 0; stroke: #008000; stroke-width: 1.5"/>
   </g>
   <g id="line2d_16">
    <path d="M 230.4 361.425891 
L 236.893091 359.735829 
L 243.386182 358.045768 
L 249.879273 356.355706 
L 256.372364 354.665645 
L 262.865455 352.975583 
L 269.358545 351.285521 
L 275.851636 349.59546 
L 282.344727 347.905398 
L 288.837818 346.215337 
L 295.330909 344.525275 
L 301.824 342.835214 
L 308.317091 341.145152 
L 314.810182 339.45509 
L 321.303273 337.765029 
L 327.796364 336.074967 
L 334.289455 334.384906 
L 340.782545 332.694844 
L 347.275636 331.004782 
L 353.768727 329.314721 
L 360.261818 327.624659 
L 366.754909 325.934598 
L 373.248 324.244536 
L 379.741091 322.554474 
L 386.234182 320.864413 
L 392.727273 319.174351 
L 399.220364 317.48429 
L 405.713455 315.794228 
L 412.206545 314.104166 
L 418.699636 312.414105 
L 425.192727 310.724043 
L 431.685818 309.033982 
L 438.178909 307.34392 
L 444.672 305.653858 
L 451.165091 303.963797 
L 457.658182 302.273735 
L 464.151273 300.583674 
L 470.644364 298.893612 
L 477.137455 297.203551 
L 483.630545 295.513489 
L 490.123636 293.823427 
L 496.616727 292.133366 
L 503.109818 290.443304 
L 509.602909 288.753243 
L 516.096 287.063181 
L 522.589091 285.373119 
L 529.082182 283.683058 
L 535.575273 281.992996 
L 542.068364 280.302935 
L 548.561455 278.612873 
L 555.054545 276.922811 
L 561.547636 275.23275 
L 568.040727 273.542688 
L 574.533818 271.852627 
L 581.026909 270.162565 
L 587.52 268.472503 
L 594.013091 266.782442 
L 600.506182 265.09238 
L 606.999273 263.402319 
L 613.492364 261.712257 
L 619.985455 260.022195 
L 626.478545 258.332134 
L 632.971636 256.642072 
L 639.464727 254.952011 
L 645.957818 253.261949 
L 652.450909 251.571888 
L 658.944 249.881826 
L 665.437091 248.191764 
L 671.930182 246.501703 
L 678.423273 244.811641 
L 684.916364 243.12158 
L 691.409455 241.431518 
L 697.902545 239.741456 
L 704.395636 238.051395 
L 710.888727 236.361333 
L 717.381818 234.671272 
L 723.874909 232.98121 
L 730.368 231.291148 
L 736.861091 229.601087 
L 743.354182 227.911025 
L 749.847273 226.220964 
L 756.340364 224.530902 
L 762.833455 222.84084 
L 769.326545 221.150779 
L 775.819636 219.460717 
L 782.312727 217.770656 
L 788.805818 216.080594 
L 795.298909 214.390532 
L 801.792 212.700471 
L 808.285091 211.010409 
L 814.778182 209.320348 
L 821.271273 207.630286 
L 827.764364 205.940225 
L 834.257455 204.250163 
L 840.750545 202.560101 
L 847.243636 200.87004 
L 853.736727 199.179978 
L 860.229818 197.489917 
L 866.722909 195.799855 
L 873.216 194.109793 
L 879.709091 192.419732 
" clip-path="url(#p7d393c0ff2)" style="fill: none; stroke-dasharray: 5.55,2.4; stroke-dashoffset: 0; stroke: #ffa500; stroke-width: 1.5"/>
   </g>
   <g id="line2d_17">
    <path d="M 230.4 586.550895 
L 236.893091 584.860833 
L 243.386182 583.170772 
L 249.879273 581.48071 
L 256.372364 579.790649 
L 262.865455 578.100587 
L 269.358545 576.410525 
L 275.851636 574.720464 
L 282.344727 573.030402 
L 288.837818 571.340341 
L 295.330909 569.650279 
L 301.824 567.960217 
L 308.317091 566.270156 
L 314.810182 564.580094 
L 321.303273 562.890033 
L 327.796364 561.199971 
L 334.289455 559.509909 
L 340.782545 557.819848 
L 347.275636 556.129786 
L 353.768727 554.439725 
L 360.261818 552.749663 
L 366.754909 551.059601 
L 373.248 549.36954 
L 379.741091 547.679478 
L 386.234182 545.989417 
L 392.727273 544.299355 
L 399.220364 542.609293 
L 405.713455 540.919232 
L 412.206545 539.22917 
L 418.699636 537.539109 
L 425.192727 535.849047 
L 431.685818 534.158986 
L 438.178909 532.468924 
L 444.672 530.778862 
L 451.165091 529.088801 
L 457.658182 527.398739 
L 464.151273 525.708678 
L 470.644364 524.018616 
L 477.137455 522.328554 
L 483.630545 520.638493 
L 490.123636 518.948431 
L 496.616727 517.25837 
L 503.109818 515.568308 
L 509.602909 513.878246 
L 516.096 512.188185 
L 522.589091 510.498123 
L 529.082182 508.808062 
L 535.575273 507.118 
L 542.068364 505.427938 
L 548.561455 503.737877 
L 555.054545 502.047815 
L 561.547636 500.357754 
L 568.040727 498.667692 
L 574.533818 496.97763 
L 581.026909 495.287569 
L 587.52 493.597507 
L 594.013091 491.907446 
L 600.506182 490.217384 
L 606.999273 488.527323 
L 613.492364 486.837261 
L 619.985455 485.147199 
L 626.478545 483.457138 
L 632.971636 481.767076 
L 639.464727 480.077015 
L 645.957818 478.386953 
L 652.450909 476.696891 
L 658.944 475.00683 
L 665.437091 473.316768 
L 671.930182 471.626707 
L 678.423273 469.936645 
L 684.916364 468.246583 
L 691.409455 466.556522 
L 697.902545 464.86646 
L 704.395636 463.176399 
L 710.888727 461.486337 
L 717.381818 459.796275 
L 723.874909 458.106214 
L 730.368 456.416152 
L 736.861091 454.726091 
L 743.354182 453.036029 
L 749.847273 451.345967 
L 756.340364 449.655906 
L 762.833455 447.965844 
L 769.326545 446.275783 
L 775.819636 444.585721 
L 782.312727 442.895659 
L 788.805818 441.205598 
L 795.298909 439.515536 
L 801.792 437.825475 
L 808.285091 436.135413 
L 814.778182 434.445352 
L 821.271273 432.75529 
L 827.764364 431.065228 
L 834.257455 429.375167 
L 840.750545 427.685105 
L 847.243636 425.995044 
L 853.736727 424.304982 
L 860.229818 422.61492 
L 866.722909 420.924859 
L 873.216 419.234797 
L 879.709091 417.544736 
" clip-path="url(#p7d393c0ff2)" style="fill: none; stroke-dasharray: 5.55,2.4; stroke-dashoffset: 0; stroke: #ff0000; stroke-width: 1.5"/>
   </g>
   <g id="LineCollection_1">
    <path d="M 817.310487 846.4968 
L 817.310487 114.1344 
" clip-path="url(#p7d393c0ff2)" style="fill: none; stroke-dasharray: 5.55,2.4; stroke-dashoffset: 0; stroke: #000000; stroke-width: 1.5"/>
    <path d="M 345.301763 846.4968 
L 345.301763 114.1344 
" clip-path="url(#p7d393c0ff2)" style="fill: none; stroke-dasharray: 5.55,2.4; stroke-dashoffset: 0; stroke: #000000; stroke-width: 1.5"/>
    <path d="M 298.447593 846.4968 
L 298.447593 114.1344 
" clip-path="url(#p7d393c0ff2)" style="fill: none; stroke-dasharray: 5.55,2.4; stroke-dashoffset: 0; stroke: #000000; stroke-width: 1.5"/>
    <path d="M 260.52637 846.4968 
L 260.52637 114.1344 
" clip-path="url(#p7d393c0ff2)" style="fill: none; stroke-dasharray: 5.55,2.4; stroke-dashoffset: 0; stroke: #000000; stroke-width: 1.5"/>
    <path d="M 625.246157 846.4968 
L 625.246157 114.1344 
" clip-path="url(#p7d393c0ff2)" style="fill: none; stroke-dasharray: 5.55,2.4; stroke-dashoffset: 0; stroke: #000000; stroke-width: 1.5"/>
   </g>
   <g id="LineCollection_2">
    <path d="M 567.391418 584.309101 
L 567.391418 141.17722 
" clip-path="url(#p7d393c0ff2)" style="fill: none; stroke-dasharray: 9.6,2.4,1.5,2.4; stroke-dashoffset: 0; stroke: #008000; stroke-width: 1.5"/>
   </g>
   <g id="LineCollection_3">
    <path d="M 789.714851 538.528036 
L 789.714851 -1 
" clip-path="url(#p7d393c0ff2)" style="fill: none; stroke-dasharray: 9.6,2.4,1.5,2.4; stroke-dashoffset: 0; stroke: #ffa500; stroke-width: 1.5"/>
   </g>
   <g id="LineCollection_4">
    <path d="M 529.212044 608.785267 
L 529.212044 406.707037 
" clip-path="url(#p7d393c0ff2)" style="fill: none; stroke-dasharray: 9.6,2.4,1.5,2.4; stroke-dashoffset: 0; stroke: #ff0000; stroke-width: 1.5"/>
   </g>
   <g id="patch_3">
    <path d="M 230.4 846.4968 
L 230.4 114.1344 
" style="fill: none; stroke: #000000; stroke-width: 0.8; stroke-linejoin: miter; stroke-linecap: square"/>
   </g>
   <g id="patch_4">
    <path d="M 879.709091 846.4968 
L 879.709091 114.1344 
" style="fill: none; stroke: #000000; stroke-width: 0.8; stroke-linejoin: miter; stroke-linecap: square"/>
   </g>
   <g id="patch_5">
    <path d="M 230.4 846.4968 
L 879.709091 846.4968 
" style="fill: none; stroke: #000000; stroke-width: 0.8; stroke-linejoin: miter; stroke-linecap: square"/>
   </g>
   <g id="patch_6">
    <path d="M 230.4 114.1344 
L 879.709091 114.1344 
" style="fill: none; stroke: #000000; stroke-width: 0.8; stroke-linejoin: miter; stroke-linecap: square"/>
   </g>
   <g id="text_16">
    <!-- DAC + wind electrolysis -->
    <g style="fill: #008000" transform="translate(343.356065 519.431276)rotate(-14)scale(0.14 -0.14)">
     <defs>
      <path id="DejaVuSans-44" d="M 1259 4147 
L 1259 519 
L 2022 519 
Q 2988 519 3436 956 
Q 3884 1394 3884 2338 
Q 3884 3275 3436 3711 
Q 2988 4147 2022 4147 
L 1259 4147 
z
M 628 4666 
L 1925 4666 
Q 3281 4666 3915 4102 
Q 4550 3538 4550 2338 
Q 4550 1131 3912 565 
Q 3275 0 1925 0 
L 628 0 
L 628 4666 
z
" transform="scale(0.015625)"/>
      <path id="DejaVuSans-41" d="M 2188 4044 
L 1331 1722 
L 3047 1722 
L 2188 4044 
z
M 1831 4666 
L 2547 4666 
L 4325 0 
L 3669 0 
L 3244 1197 
L 1141 1197 
L 716 0 
L 50 0 
L 1831 4666 
z
" transform="scale(0.015625)"/>
      <path id="DejaVuSans-43" d="M 4122 4306 
L 4122 3641 
Q 3803 3938 3442 4084 
Q 3081 4231 2675 4231 
Q 1875 4231 1450 3742 
Q 1025 3253 1025 2328 
Q 1025 1406 1450 917 
Q 1875 428 2675 428 
Q 3081 428 3442 575 
Q 3803 722 4122 1019 
L 4122 359 
Q 3791 134 3420 21 
Q 3050 -91 2638 -91 
Q 1578 -91 968 557 
Q 359 1206 359 2328 
Q 359 3453 968 4101 
Q 1578 4750 2638 4750 
Q 3056 4750 3426 4639 
Q 3797 4528 4122 4306 
z
" transform="scale(0.015625)"/>
      <path id="DejaVuSans-2b" d="M 2944 4013 
L 2944 2272 
L 4684 2272 
L 4684 1741 
L 2944 1741 
L 2944 0 
L 2419 0 
L 2419 1741 
L 678 1741 
L 678 2272 
L 2419 2272 
L 2419 4013 
L 2944 4013 
z
" transform="scale(0.015625)"/>
      <path id="DejaVuSans-77" d="M 269 3500 
L 844 3500 
L 1563 769 
L 2278 3500 
L 2956 3500 
L 3675 769 
L 4391 3500 
L 4966 3500 
L 4050 0 
L 3372 0 
L 2619 2869 
L 1863 0 
L 1184 0 
L 269 3500 
z
" transform="scale(0.015625)"/>
      <path id="DejaVuSans-64" d="M 2906 2969 
L 2906 4863 
L 3481 4863 
L 3481 0 
L 2906 0 
L 2906 525 
Q 2725 213 2448 61 
Q 2172 -91 1784 -91 
Q 1150 -91 751 415 
Q 353 922 353 1747 
Q 353 2572 751 3078 
Q 1150 3584 1784 3584 
Q 2172 3584 2448 3432 
Q 2725 3281 2906 2969 
z
M 947 1747 
Q 947 1113 1208 752 
Q 1469 391 1925 391 
Q 2381 391 2643 752 
Q 2906 1113 2906 1747 
Q 2906 2381 2643 2742 
Q 2381 3103 1925 3103 
Q 1469 3103 1208 2742 
Q 947 2381 947 1747 
z
" transform="scale(0.015625)"/>
      <path id="DejaVuSans-79" d="M 2059 -325 
Q 1816 -950 1584 -1140 
Q 1353 -1331 966 -1331 
L 506 -1331 
L 506 -850 
L 844 -850 
Q 1081 -850 1212 -737 
Q 1344 -625 1503 -206 
L 1606 56 
L 191 3500 
L 800 3500 
L 1894 763 
L 2988 3500 
L 3597 3500 
L 2059 -325 
z
" transform="scale(0.015625)"/>
     </defs>
     <use xlink:href="#DejaVuSans-44"/>
     <use xlink:href="#DejaVuSans-41" x="75.251953"/>
     <use xlink:href="#DejaVuSans-43" x="141.910156"/>
     <use xlink:href="#DejaVuSans-20" x="211.734375"/>
     <use xlink:href="#DejaVuSans-2b" x="243.521484"/>
     <use xlink:href="#DejaVuSans-20" x="327.310547"/>
     <use xlink:href="#DejaVuSans-77" x="359.097656"/>
     <use xlink:href="#DejaVuSans-69" x="440.884766"/>
     <use xlink:href="#DejaVuSans-6e" x="468.667969"/>
     <use xlink:href="#DejaVuSans-64" x="532.046875"/>
     <use xlink:href="#DejaVuSans-20" x="595.523438"/>
     <use xlink:href="#DejaVuSans-65" x="627.310547"/>
     <use xlink:href="#DejaVuSans-6c" x="688.833984"/>
     <use xlink:href="#DejaVuSans-65" x="716.617188"/>
     <use xlink:href="#DejaVuSans-63" x="778.140625"/>
     <use xlink:href="#DejaVuSans-74" x="833.121094"/>
     <use xlink:href="#DejaVuSans-72" x="872.330078"/>
     <use xlink:href="#DejaVuSans-6f" x="911.193359"/>
     <use xlink:href="#DejaVuSans-6c" x="972.375"/>
     <use xlink:href="#DejaVuSans-79" x="1000.158203"/>
     <use xlink:href="#DejaVuSans-73" x="1059.337891"/>
     <use xlink:href="#DejaVuSans-69" x="1111.4375"/>
     <use xlink:href="#DejaVuSans-73" x="1139.220703"/>
    </g>
   </g>
   <g id="text_17">
    <!-- DAC + solar electrolysis -->
    <g style="fill: #ffa500" transform="translate(343.356065 326.054313)rotate(-14)scale(0.14 -0.14)">
     <use xlink:href="#DejaVuSans-44"/>
     <use xlink:href="#DejaVuSans-41" x="75.251953"/>
     <use xlink:href="#DejaVuSans-43" x="141.910156"/>
     <use xlink:href="#DejaVuSans-20" x="211.734375"/>
     <use xlink:href="#DejaVuSans-2b" x="243.521484"/>
     <use xlink:href="#DejaVuSans-20" x="327.310547"/>
     <use xlink:href="#DejaVuSans-73" x="359.097656"/>
     <use xlink:href="#DejaVuSans-6f" x="411.197266"/>
     <use xlink:href="#DejaVuSans-6c" x="472.378906"/>
     <use xlink:href="#DejaVuSans-61" x="500.162109"/>
     <use xlink:href="#DejaVuSans-72" x="561.441406"/>
     <use xlink:href="#DejaVuSans-20" x="602.554688"/>
     <use xlink:href="#DejaVuSans-65" x="634.341797"/>
     <use xlink:href="#DejaVuSans-6c" x="695.865234"/>
     <use xlink:href="#DejaVuSans-65" x="723.648438"/>
     <use xlink:href="#DejaVuSans-63" x="785.171875"/>
     <use xlink:href="#DejaVuSans-74" x="840.152344"/>
     <use xlink:href="#DejaVuSans-72" x="879.361328"/>
     <use xlink:href="#DejaVuSans-6f" x="918.224609"/>
     <use xlink:href="#DejaVuSans-6c" x="979.40625"/>
     <use xlink:href="#DejaVuSans-79" x="1007.189453"/>
     <use xlink:href="#DejaVuSans-73" x="1066.369141"/>
     <use xlink:href="#DejaVuSans-69" x="1118.46875"/>
     <use xlink:href="#DejaVuSans-73" x="1146.251953"/>
    </g>
   </g>
   <g id="text_18">
    <!-- DAC + nuclear electrolysis -->
    <g style="fill: #ff0000" transform="translate(343.356065 550.789702)rotate(-14)scale(0.14 -0.14)">
     <use xlink:href="#DejaVuSans-44"/>
     <use xlink:href="#DejaVuSans-41" x="75.251953"/>
     <use xlink:href="#DejaVuSans-43" x="141.910156"/>
     <use xlink:href="#DejaVuSans-20" x="211.734375"/>
     <use xlink:href="#DejaVuSans-2b" x="243.521484"/>
     <use xlink:href="#DejaVuSans-20" x="327.310547"/>
     <use xlink:href="#DejaVuSans-6e" x="359.097656"/>
     <use xlink:href="#DejaVuSans-75" x="422.476562"/>
     <use xlink:href="#DejaVuSans-63" x="485.855469"/>
     <use xlink:href="#DejaVuSans-6c" x="540.835938"/>
     <use xlink:href="#DejaVuSans-65" x="568.619141"/>
     <use xlink:href="#DejaVuSans-61" x="630.142578"/>
     <use xlink:href="#DejaVuSans-72" x="691.421875"/>
     <use xlink:href="#DejaVuSans-20" x="732.535156"/>
     <use xlink:href="#DejaVuSans-65" x="764.322266"/>
     <use xlink:href="#DejaVuSans-6c" x="825.845703"/>
     <use xlink:href="#DejaVuSans-65" x="853.628906"/>
     <use xlink:href="#DejaVuSans-63" x="915.152344"/>
     <use xlink:href="#DejaVuSans-74" x="970.132812"/>
     <use xlink:href="#DejaVuSans-72" x="1009.341797"/>
     <use xlink:href="#DejaVuSans-6f" x="1048.205078"/>
     <use xlink:href="#DejaVuSans-6c" x="1109.386719"/>
     <use xlink:href="#DejaVuSans-79" x="1137.169922"/>
     <use xlink:href="#DejaVuSans-73" x="1196.349609"/>
     <use xlink:href="#DejaVuSans-69" x="1248.449219"/>
     <use xlink:href="#DejaVuSans-73" x="1276.232422"/>
    </g>
   </g>
   <g id="text_19">
    <!-- Highest - 2022 -->
    <g transform="translate(833.142772 682.184327)rotate(-90)scale(0.14 -0.14)">
     <defs>
      <path id="DejaVuSans-48" d="M 628 4666 
L 1259 4666 
L 1259 2753 
L 3553 2753 
L 3553 4666 
L 4184 4666 
L 4184 0 
L 3553 0 
L 3553 2222 
L 1259 2222 
L 1259 0 
L 628 0 
L 628 4666 
z
" transform="scale(0.015625)"/>
      <path id="DejaVuSans-2d" d="M 313 2009 
L 1997 2009 
L 1997 1497 
L 313 1497 
L 313 2009 
z
" transform="scale(0.015625)"/>
     </defs>
     <use xlink:href="#DejaVuSans-48"/>
     <use xlink:href="#DejaVuSans-69" x="75.195312"/>
     <use xlink:href="#DejaVuSans-67" x="102.978516"/>
     <use xlink:href="#DejaVuSans-68" x="166.455078"/>
     <use xlink:href="#DejaVuSans-65" x="229.833984"/>
     <use xlink:href="#DejaVuSans-73" x="291.357422"/>
     <use xlink:href="#DejaVuSans-74" x="343.457031"/>
     <use xlink:href="#DejaVuSans-20" x="382.666016"/>
     <use xlink:href="#DejaVuSans-2d" x="414.453125"/>
     <use xlink:href="#DejaVuSans-20" x="450.537109"/>
     <use xlink:href="#DejaVuSans-32" x="482.324219"/>
     <use xlink:href="#DejaVuSans-30" x="545.947266"/>
     <use xlink:href="#DejaVuSans-32" x="609.570312"/>
     <use xlink:href="#DejaVuSans-32" x="673.193359"/>
    </g>
   </g>
   <g id="text_20">
    <!-- Lowest - 2022 -->
    <g transform="translate(361.134048 682.184327)rotate(-90)scale(0.14 -0.14)">
     <defs>
      <path id="DejaVuSans-4c" d="M 628 4666 
L 1259 4666 
L 1259 531 
L 3531 531 
L 3531 0 
L 628 0 
L 628 4666 
z
" transform="scale(0.015625)"/>
     </defs>
     <use xlink:href="#DejaVuSans-4c"/>
     <use xlink:href="#DejaVuSans-6f" x="53.962891"/>
     <use xlink:href="#DejaVuSans-77" x="115.144531"/>
     <use xlink:href="#DejaVuSans-65" x="196.931641"/>
     <use xlink:href="#DejaVuSans-73" x="258.455078"/>
     <use xlink:href="#DejaVuSans-74" x="310.554688"/>
     <use xlink:href="#DejaVuSans-20" x="349.763672"/>
     <use xlink:href="#DejaVuSans-2d" x="381.550781"/>
     <use xlink:href="#DejaVuSans-20" x="417.634766"/>
     <use xlink:href="#DejaVuSans-32" x="449.421875"/>
     <use xlink:href="#DejaVuSans-30" x="513.044922"/>
     <use xlink:href="#DejaVuSans-32" x="576.667969"/>
     <use xlink:href="#DejaVuSans-32" x="640.291016"/>
    </g>
   </g>
   <g id="text_21">
    <!-- Late - 2021 -->
    <g transform="translate(314.279878 682.184327)rotate(-90)scale(0.14 -0.14)">
     <use xlink:href="#DejaVuSans-4c"/>
     <use xlink:href="#DejaVuSans-61" x="55.712891"/>
     <use xlink:href="#DejaVuSans-74" x="116.992188"/>
     <use xlink:href="#DejaVuSans-65" x="156.201172"/>
     <use xlink:href="#DejaVuSans-20" x="217.724609"/>
     <use xlink:href="#DejaVuSans-2d" x="249.511719"/>
     <use xlink:href="#DejaVuSans-20" x="285.595703"/>
     <use xlink:href="#DejaVuSans-32" x="317.382812"/>
     <use xlink:href="#DejaVuSans-30" x="381.005859"/>
     <use xlink:href="#DejaVuSans-32" x="444.628906"/>
     <use xlink:href="#DejaVuSans-31" x="508.251953"/>
    </g>
   </g>
   <g id="text_22">
    <!-- Early - 2021 -->
    <g transform="translate(276.358656 682.184327)rotate(-90)scale(0.14 -0.14)">
     <defs>
      <path id="DejaVuSans-45" d="M 628 4666 
L 3578 4666 
L 3578 4134 
L 1259 4134 
L 1259 2753 
L 3481 2753 
L 3481 2222 
L 1259 2222 
L 1259 531 
L 3634 531 
L 3634 0 
L 628 0 
L 628 4666 
z
" transform="scale(0.015625)"/>
     </defs>
     <use xlink:href="#DejaVuSans-45"/>
     <use xlink:href="#DejaVuSans-61" x="63.183594"/>
     <use xlink:href="#DejaVuSans-72" x="124.462891"/>
     <use xlink:href="#DejaVuSans-6c" x="165.576172"/>
     <use xlink:href="#DejaVuSans-79" x="193.359375"/>
     <use xlink:href="#DejaVuSans-20" x="252.539062"/>
     <use xlink:href="#DejaVuSans-2d" x="284.326172"/>
     <use xlink:href="#DejaVuSans-20" x="320.410156"/>
     <use xlink:href="#DejaVuSans-32" x="352.197266"/>
     <use xlink:href="#DejaVuSans-30" x="415.820312"/>
     <use xlink:href="#DejaVuSans-32" x="479.443359"/>
     <use xlink:href="#DejaVuSans-31" x="543.066406"/>
    </g>
   </g>
   <g id="text_23">
    <!-- Sep' - 2022 -->
    <g transform="translate(641.078442 682.184327)rotate(-90)scale(0.14 -0.14)">
     <defs>
      <path id="DejaVuSans-53" d="M 3425 4513 
L 3425 3897 
Q 3066 4069 2747 4153 
Q 2428 4238 2131 4238 
Q 1616 4238 1336 4038 
Q 1056 3838 1056 3469 
Q 1056 3159 1242 3001 
Q 1428 2844 1947 2747 
L 2328 2669 
Q 3034 2534 3370 2195 
Q 3706 1856 3706 1288 
Q 3706 609 3251 259 
Q 2797 -91 1919 -91 
Q 1588 -91 1214 -16 
Q 841 59 441 206 
L 441 856 
Q 825 641 1194 531 
Q 1563 422 1919 422 
Q 2459 422 2753 634 
Q 3047 847 3047 1241 
Q 3047 1584 2836 1778 
Q 2625 1972 2144 2069 
L 1759 2144 
Q 1053 2284 737 2584 
Q 422 2884 422 3419 
Q 422 4038 858 4394 
Q 1294 4750 2059 4750 
Q 2388 4750 2728 4690 
Q 3069 4631 3425 4513 
z
" transform="scale(0.015625)"/>
      <path id="DejaVuSans-27" d="M 1147 4666 
L 1147 2931 
L 616 2931 
L 616 4666 
L 1147 4666 
z
" transform="scale(0.015625)"/>
     </defs>
     <use xlink:href="#DejaVuSans-53"/>
     <use xlink:href="#DejaVuSans-65" x="63.476562"/>
     <use xlink:href="#DejaVuSans-70" x="125"/>
     <use xlink:href="#DejaVuSans-27" x="188.476562"/>
     <use xlink:href="#DejaVuSans-20" x="215.966797"/>
     <use xlink:href="#DejaVuSans-2d" x="247.753906"/>
     <use xlink:href="#DejaVuSans-20" x="283.837891"/>
     <use xlink:href="#DejaVuSans-32" x="315.625"/>
     <use xlink:href="#DejaVuSans-30" x="379.248047"/>
     <use xlink:href="#DejaVuSans-32" x="442.871094"/>
     <use xlink:href="#DejaVuSans-32" x="506.494141"/>
    </g>
   </g>
   <g id="legend_1">
    <g id="patch_7">
     <path d="M 241.6 838.4968 
L 865.7275 838.4968 
Q 868.9275 838.4968 868.9275 835.2968 
L 868.9275 813.4118 
Q 868.9275 810.2118 865.7275 810.2118 
L 241.6 810.2118 
Q 238.4 810.2118 238.4 813.4118 
L 238.4 835.2968 
Q 238.4 838.4968 241.6 838.4968 
z
" style="fill: #ffffff; opacity: 0.8; stroke: #cccccc; stroke-linejoin: miter"/>
    </g>
    <g id="line2d_18">
     <path d="M 244.8 823.1693 
L 260.8 823.1693 
L 276.8 823.1693 
" style="fill: none; stroke: #000000; stroke-width: 1.5; stroke-linecap: square"/>
    </g>
    <g id="text_24">
     <!-- BAU -->
     <g transform="translate(289.6 828.7693)scale(0.16 -0.16)">
      <defs>
       <path id="DejaVuSans-42" d="M 1259 2228 
L 1259 519 
L 2272 519 
Q 2781 519 3026 730 
Q 3272 941 3272 1375 
Q 3272 1813 3026 2020 
Q 2781 2228 2272 2228 
L 1259 2228 
z
M 1259 4147 
L 1259 2741 
L 2194 2741 
Q 2656 2741 2882 2914 
Q 3109 3088 3109 3444 
Q 3109 3797 2882 3972 
Q 2656 4147 2194 4147 
L 1259 4147 
z
M 628 4666 
L 2241 4666 
Q 2963 4666 3353 4366 
Q 3744 4066 3744 3513 
Q 3744 3084 3544 2831 
Q 3344 2578 2956 2516 
Q 3422 2416 3680 2098 
Q 3938 1781 3938 1306 
Q 3938 681 3513 340 
Q 3088 0 2303 0 
L 628 0 
L 628 4666 
z
" transform="scale(0.015625)"/>
       <path id="DejaVuSans-55" d="M 556 4666 
L 1191 4666 
L 1191 1831 
Q 1191 1081 1462 751 
Q 1734 422 2344 422 
Q 2950 422 3222 751 
Q 3494 1081 3494 1831 
L 3494 4666 
L 4128 4666 
L 4128 1753 
Q 4128 841 3676 375 
Q 3225 -91 2344 -91 
Q 1459 -91 1007 375 
Q 556 841 556 1753 
L 556 4666 
z
" transform="scale(0.015625)"/>
      </defs>
      <use xlink:href="#DejaVuSans-42"/>
      <use xlink:href="#DejaVuSans-41" x="68.603516"/>
      <use xlink:href="#DejaVuSans-55" x="137.011719"/>
     </g>
    </g>
    <g id="line2d_19">
     <path d="M 355.2325 823.1693 
L 371.2325 823.1693 
L 387.2325 823.1693 
" style="fill: none; stroke-dasharray: 5.55,2.4; stroke-dashoffset: 0; stroke: #008000; stroke-width: 1.5"/>
    </g>
    <g id="text_25">
     <!-- DAC + wind -->
     <g transform="translate(400.0325 828.7693)scale(0.16 -0.16)">
      <use xlink:href="#DejaVuSans-44"/>
      <use xlink:href="#DejaVuSans-41" x="75.251953"/>
      <use xlink:href="#DejaVuSans-43" x="141.910156"/>
      <use xlink:href="#DejaVuSans-20" x="211.734375"/>
      <use xlink:href="#DejaVuSans-2b" x="243.521484"/>
      <use xlink:href="#DejaVuSans-20" x="327.310547"/>
      <use xlink:href="#DejaVuSans-77" x="359.097656"/>
      <use xlink:href="#DejaVuSans-69" x="440.884766"/>
      <use xlink:href="#DejaVuSans-6e" x="468.667969"/>
      <use xlink:href="#DejaVuSans-64" x="532.046875"/>
     </g>
    </g>
    <g id="line2d_20">
     <path d="M 527.315 823.1693 
L 543.315 823.1693 
L 559.315 823.1693 
" style="fill: none; stroke-dasharray: 5.55,2.4; stroke-dashoffset: 0; stroke: #ffa500; stroke-width: 1.5"/>
    </g>
    <g id="text_26">
     <!-- DAC + solar -->
     <g transform="translate(572.115 828.7693)scale(0.16 -0.16)">
      <use xlink:href="#DejaVuSans-44"/>
      <use xlink:href="#DejaVuSans-41" x="75.251953"/>
      <use xlink:href="#DejaVuSans-43" x="141.910156"/>
      <use xlink:href="#DejaVuSans-20" x="211.734375"/>
      <use xlink:href="#DejaVuSans-2b" x="243.521484"/>
      <use xlink:href="#DejaVuSans-20" x="327.310547"/>
      <use xlink:href="#DejaVuSans-73" x="359.097656"/>
      <use xlink:href="#DejaVuSans-6f" x="411.197266"/>
      <use xlink:href="#DejaVuSans-6c" x="472.378906"/>
      <use xlink:href="#DejaVuSans-61" x="500.162109"/>
      <use xlink:href="#DejaVuSans-72" x="561.441406"/>
     </g>
    </g>
    <g id="line2d_21">
     <path d="M 700.5225 823.1693 
L 716.5225 823.1693 
L 732.5225 823.1693 
" style="fill: none; stroke-dasharray: 5.55,2.4; stroke-dashoffset: 0; stroke: #ff0000; stroke-width: 1.5"/>
    </g>
    <g id="text_27">
     <!-- DAC + nuclear -->
     <g transform="translate(745.3225 828.7693)scale(0.16 -0.16)">
      <use xlink:href="#DejaVuSans-44"/>
      <use xlink:href="#DejaVuSans-41" x="75.251953"/>
      <use xlink:href="#DejaVuSans-43" x="141.910156"/>
      <use xlink:href="#DejaVuSans-20" x="211.734375"/>
      <use xlink:href="#DejaVuSans-2b" x="243.521484"/>
      <use xlink:href="#DejaVuSans-20" x="327.310547"/>
      <use xlink:href="#DejaVuSans-6e" x="359.097656"/>
      <use xlink:href="#DejaVuSans-75" x="422.476562"/>
      <use xlink:href="#DejaVuSans-63" x="485.855469"/>
      <use xlink:href="#DejaVuSans-6c" x="540.835938"/>
      <use xlink:href="#DejaVuSans-65" x="568.619141"/>
      <use xlink:href="#DejaVuSans-61" x="630.142578"/>
      <use xlink:href="#DejaVuSans-72" x="691.421875"/>
     </g>
    </g>
   </g>
  </g>
  <g id="axes_2">
   <g id="patch_8">
    <path d="M 1009.570909 846.4968 
L 1658.88 846.4968 
L 1658.88 114.1344 
L 1009.570909 114.1344 
z
" style="fill: #ffffff"/>
   </g>
   <g id="matplotlib.axis_3">
    <g id="xtick_7">
     <g id="line2d_22">
      <g>
       <use xlink:href="#m78a8bdbdbc" x="1009.570909" y="846.4968" style="stroke: #000000; stroke-width: 0.8"/>
      </g>
     </g>
     <g id="text_28">
      <!-- 0 -->
      <g transform="translate(1004.480909 865.6543)scale(0.16 -0.16)">
       <use xlink:href="#DejaVuSans-30"/>
      </g>
     </g>
    </g>
    <g id="xtick_8">
     <g id="line2d_23">
      <g>
       <use xlink:href="#m78a8bdbdbc" x="1139.432727" y="846.4968" style="stroke: #000000; stroke-width: 0.8"/>
      </g>
     </g>
     <g id="text_29">
      <!-- 1000 -->
      <g transform="translate(1119.072727 865.6543)scale(0.16 -0.16)">
       <use xlink:href="#DejaVuSans-31"/>
       <use xlink:href="#DejaVuSans-30" x="63.623047"/>
       <use xlink:href="#DejaVuSans-30" x="127.246094"/>
       <use xlink:href="#DejaVuSans-30" x="190.869141"/>
      </g>
     </g>
    </g>
    <g id="xtick_9">
     <g id="line2d_24">
      <g>
       <use xlink:href="#m78a8bdbdbc" x="1269.294545" y="846.4968" style="stroke: #000000; stroke-width: 0.8"/>
      </g>
     </g>
     <g id="text_30">
      <!-- 2000 -->
      <g transform="translate(1248.934545 865.6543)scale(0.16 -0.16)">
       <use xlink:href="#DejaVuSans-32"/>
       <use xlink:href="#DejaVuSans-30" x="63.623047"/>
       <use xlink:href="#DejaVuSans-30" x="127.246094"/>
       <use xlink:href="#DejaVuSans-30" x="190.869141"/>
      </g>
     </g>
    </g>
    <g id="xtick_10">
     <g id="line2d_25">
      <g>
       <use xlink:href="#m78a8bdbdbc" x="1399.156364" y="846.4968" style="stroke: #000000; stroke-width: 0.8"/>
      </g>
     </g>
     <g id="text_31">
      <!-- 3000 -->
      <g transform="translate(1378.796364 865.6543)scale(0.16 -0.16)">
       <use xlink:href="#DejaVuSans-33"/>
       <use xlink:href="#DejaVuSans-30" x="63.623047"/>
       <use xlink:href="#DejaVuSans-30" x="127.246094"/>
       <use xlink:href="#DejaVuSans-30" x="190.869141"/>
      </g>
     </g>
    </g>
    <g id="xtick_11">
     <g id="line2d_26">
      <g>
       <use xlink:href="#m78a8bdbdbc" x="1529.018182" y="846.4968" style="stroke: #000000; stroke-width: 0.8"/>
      </g>
     </g>
     <g id="text_32">
      <!-- 4000 -->
      <g transform="translate(1508.658182 865.6543)scale(0.16 -0.16)">
       <use xlink:href="#DejaVuSans-34"/>
       <use xlink:href="#DejaVuSans-30" x="63.623047"/>
       <use xlink:href="#DejaVuSans-30" x="127.246094"/>
       <use xlink:href="#DejaVuSans-30" x="190.869141"/>
      </g>
     </g>
    </g>
    <g id="xtick_12">
     <g id="line2d_27">
      <g>
       <use xlink:href="#m78a8bdbdbc" x="1658.88" y="846.4968" style="stroke: #000000; stroke-width: 0.8"/>
      </g>
     </g>
     <g id="text_33">
      <!-- 5000 -->
      <g transform="translate(1638.52 865.6543)scale(0.16 -0.16)">
       <use xlink:href="#DejaVuSans-35"/>
       <use xlink:href="#DejaVuSans-30" x="63.623047"/>
       <use xlink:href="#DejaVuSans-30" x="127.246094"/>
       <use xlink:href="#DejaVuSans-30" x="190.869141"/>
      </g>
     </g>
    </g>
    <g id="text_34">
     <!-- Natural gas price [\$ t$^\mathrm{-1}$] -->
     <g transform="translate(1237.425455 887.3818)scale(0.16 -0.16)">
      <use xlink:href="#DejaVuSans-4e" transform="translate(0 0.684375)"/>
      <use xlink:href="#DejaVuSans-61" transform="translate(74.804688 0.684375)"/>
      <use xlink:href="#DejaVuSans-74" transform="translate(136.083984 0.684375)"/>
      <use xlink:href="#DejaVuSans-75" transform="translate(175.292969 0.684375)"/>
      <use xlink:href="#DejaVuSans-72" transform="translate(238.671875 0.684375)"/>
      <use xlink:href="#DejaVuSans-61" transform="translate(279.785156 0.684375)"/>
      <use xlink:href="#DejaVuSans-6c" transform="translate(341.064453 0.684375)"/>
      <use xlink:href="#DejaVuSans-20" transform="translate(368.847656 0.684375)"/>
      <use xlink:href="#DejaVuSans-67" transform="translate(400.634766 0.684375)"/>
      <use xlink:href="#DejaVuSans-61" transform="translate(464.111328 0.684375)"/>
      <use xlink:href="#DejaVuSans-73" transform="translate(525.390625 0.684375)"/>
      <use xlink:href="#DejaVuSans-20" transform="translate(577.490234 0.684375)"/>
      <use xlink:href="#DejaVuSans-70" transform="translate(609.277344 0.684375)"/>
      <use xlink:href="#DejaVuSans-72" transform="translate(672.753906 0.684375)"/>
      <use xlink:href="#DejaVuSans-69" transform="translate(713.867188 0.684375)"/>
      <use xlink:href="#DejaVuSans-63" transform="translate(741.650391 0.684375)"/>
      <use xlink:href="#DejaVuSans-65" transform="translate(796.630859 0.684375)"/>
      <use xlink:href="#DejaVuSans-20" transform="translate(858.154297 0.684375)"/>
      <use xlink:href="#DejaVuSans-5b" transform="translate(889.941406 0.684375)"/>
      <use xlink:href="#DejaVuSans-24" transform="translate(928.955078 0.684375)"/>
      <use xlink:href="#DejaVuSans-20" transform="translate(992.578125 0.684375)"/>
      <use xlink:href="#DejaVuSans-74" transform="translate(1024.365234 0.684375)"/>
      <use xlink:href="#DejaVuSans-2212" transform="translate(1064.53125 38.965625)scale(0.7)"/>
      <use xlink:href="#DejaVuSans-31" transform="translate(1123.183594 38.965625)scale(0.7)"/>
      <use xlink:href="#DejaVuSans-5d" transform="translate(1170.454102 0.684375)"/>
     </g>
    </g>
   </g>
   <g id="matplotlib.axis_4">
    <g id="ytick_8">
     <g id="line2d_28">
      <g>
       <use xlink:href="#m1db91d6396" x="1009.570909" y="804.965253" style="stroke: #000000; stroke-width: 0.8"/>
      </g>
     </g>
     <g id="text_35">
      <!-- −1000 -->
      <g transform="translate(948.443409 811.044003)scale(0.16 -0.16)">
       <use xlink:href="#DejaVuSans-2212"/>
       <use xlink:href="#DejaVuSans-31" x="83.789062"/>
       <use xlink:href="#DejaVuSans-30" x="147.412109"/>
       <use xlink:href="#DejaVuSans-30" x="211.035156"/>
       <use xlink:href="#DejaVuSans-30" x="274.658203"/>
      </g>
     </g>
    </g>
    <g id="ytick_9">
     <g id="line2d_29">
      <g>
       <use xlink:href="#m1db91d6396" x="1009.570909" y="701.757373" style="stroke: #000000; stroke-width: 0.8"/>
      </g>
     </g>
     <g id="text_36">
      <!-- 0 -->
      <g transform="translate(992.390909 707.836123)scale(0.16 -0.16)">
       <use xlink:href="#DejaVuSans-30"/>
      </g>
     </g>
    </g>
    <g id="ytick_10">
     <g id="line2d_30">
      <g>
       <use xlink:href="#m1db91d6396" x="1009.570909" y="598.549493" style="stroke: #000000; stroke-width: 0.8"/>
      </g>
     </g>
     <g id="text_37">
      <!-- 1000 -->
      <g transform="translate(961.850909 604.628243)scale(0.16 -0.16)">
       <use xlink:href="#DejaVuSans-31"/>
       <use xlink:href="#DejaVuSans-30" x="63.623047"/>
       <use xlink:href="#DejaVuSans-30" x="127.246094"/>
       <use xlink:href="#DejaVuSans-30" x="190.869141"/>
      </g>
     </g>
    </g>
    <g id="ytick_11">
     <g id="line2d_31">
      <g>
       <use xlink:href="#m1db91d6396" x="1009.570909" y="495.341612" style="stroke: #000000; stroke-width: 0.8"/>
      </g>
     </g>
     <g id="text_38">
      <!-- 2000 -->
      <g transform="translate(961.850909 501.420362)scale(0.16 -0.16)">
       <use xlink:href="#DejaVuSans-32"/>
       <use xlink:href="#DejaVuSans-30" x="63.623047"/>
       <use xlink:href="#DejaVuSans-30" x="127.246094"/>
       <use xlink:href="#DejaVuSans-30" x="190.869141"/>
      </g>
     </g>
    </g>
    <g id="ytick_12">
     <g id="line2d_32">
      <g>
       <use xlink:href="#m1db91d6396" x="1009.570909" y="392.133732" style="stroke: #000000; stroke-width: 0.8"/>
      </g>
     </g>
     <g id="text_39">
      <!-- 3000 -->
      <g transform="translate(961.850909 398.212482)scale(0.16 -0.16)">
       <use xlink:href="#DejaVuSans-33"/>
       <use xlink:href="#DejaVuSans-30" x="63.623047"/>
       <use xlink:href="#DejaVuSans-30" x="127.246094"/>
       <use xlink:href="#DejaVuSans-30" x="190.869141"/>
      </g>
     </g>
    </g>
    <g id="ytick_13">
     <g id="line2d_33">
      <g>
       <use xlink:href="#m1db91d6396" x="1009.570909" y="288.925852" style="stroke: #000000; stroke-width: 0.8"/>
      </g>
     </g>
     <g id="text_40">
      <!-- 4000 -->
      <g transform="translate(961.850909 295.004602)scale(0.16 -0.16)">
       <use xlink:href="#DejaVuSans-34"/>
       <use xlink:href="#DejaVuSans-30" x="63.623047"/>
       <use xlink:href="#DejaVuSans-30" x="127.246094"/>
       <use xlink:href="#DejaVuSans-30" x="190.869141"/>
      </g>
     </g>
    </g>
    <g id="ytick_14">
     <g id="line2d_34">
      <g>
       <use xlink:href="#m1db91d6396" x="1009.570909" y="185.717972" style="stroke: #000000; stroke-width: 0.8"/>
      </g>
     </g>
     <g id="text_41">
      <!-- 5000 -->
      <g transform="translate(961.850909 191.796722)scale(0.16 -0.16)">
       <use xlink:href="#DejaVuSans-35"/>
       <use xlink:href="#DejaVuSans-30" x="63.623047"/>
       <use xlink:href="#DejaVuSans-30" x="127.246094"/>
       <use xlink:href="#DejaVuSans-30" x="190.869141"/>
      </g>
     </g>
    </g>
    <g id="text_42">
     <!-- CO$_\mathrm{2}$ avoidance costs [\$ t$_\mathrm{CO_\mathrm{2eq}}$$^\mathrm{-1}$] -->
     <g transform="translate(938.203409 607.3556)rotate(-90)scale(0.16 -0.16)">
      <defs>
       <path id="DejaVuSans-4f" d="M 2522 4238 
Q 1834 4238 1429 3725 
Q 1025 3213 1025 2328 
Q 1025 1447 1429 934 
Q 1834 422 2522 422 
Q 3209 422 3611 934 
Q 4013 1447 4013 2328 
Q 4013 3213 3611 3725 
Q 3209 4238 2522 4238 
z
M 2522 4750 
Q 3503 4750 4090 4092 
Q 4678 3434 4678 2328 
Q 4678 1225 4090 567 
Q 3503 -91 2522 -91 
Q 1538 -91 948 565 
Q 359 1222 359 2328 
Q 359 3434 948 4092 
Q 1538 4750 2522 4750 
z
" transform="scale(0.015625)"/>
       <path id="DejaVuSans-76" d="M 191 3500 
L 800 3500 
L 1894 563 
L 2988 3500 
L 3597 3500 
L 2284 0 
L 1503 0 
L 191 3500 
z
" transform="scale(0.015625)"/>
       <path id="DejaVuSans-71" d="M 947 1747 
Q 947 1113 1208 752 
Q 1469 391 1925 391 
Q 2381 391 2643 752 
Q 2906 1113 2906 1747 
Q 2906 2381 2643 2742 
Q 2381 3103 1925 3103 
Q 1469 3103 1208 2742 
Q 947 2381 947 1747 
z
M 2906 525 
Q 2725 213 2448 61 
Q 2172 -91 1784 -91 
Q 1150 -91 751 415 
Q 353 922 353 1747 
Q 353 2572 751 3078 
Q 1150 3584 1784 3584 
Q 2172 3584 2448 3432 
Q 2725 3281 2906 2969 
L 2906 3500 
L 3481 3500 
L 3481 -1331 
L 2906 -1331 
L 2906 525 
z
" transform="scale(0.015625)"/>
      </defs>
      <use xlink:href="#DejaVuSans-43" transform="translate(0 0.684375)"/>
      <use xlink:href="#DejaVuSans-4f" transform="translate(69.824219 0.684375)"/>
      <use xlink:href="#DejaVuSans-32" transform="translate(149.492188 -15.721875)scale(0.7)"/>
      <use xlink:href="#DejaVuSans-20" transform="translate(196.762695 0.684375)"/>
      <use xlink:href="#DejaVuSans-61" transform="translate(228.549805 0.684375)"/>
      <use xlink:href="#DejaVuSans-76" transform="translate(289.829102 0.684375)"/>
      <use xlink:href="#DejaVuSans-6f" transform="translate(349.008789 0.684375)"/>
      <use xlink:href="#DejaVuSans-69" transform="translate(410.19043 0.684375)"/>
      <use xlink:href="#DejaVuSans-64" transform="translate(437.973633 0.684375)"/>
      <use xlink:href="#DejaVuSans-61" transform="translate(501.450195 0.684375)"/>
      <use xlink:href="#DejaVuSans-6e" transform="translate(562.729492 0.684375)"/>
      <use xlink:href="#DejaVuSans-63" transform="translate(626.108398 0.684375)"/>
      <use xlink:href="#DejaVuSans-65" transform="translate(681.088867 0.684375)"/>
      <use xlink:href="#DejaVuSans-20" transform="translate(742.612305 0.684375)"/>
      <use xlink:href="#DejaVuSans-63" transform="translate(774.399414 0.684375)"/>
      <use xlink:href="#DejaVuSans-6f" transform="translate(829.379883 0.684375)"/>
      <use xlink:href="#DejaVuSans-73" transform="translate(890.561523 0.684375)"/>
      <use xlink:href="#DejaVuSans-74" transform="translate(942.661133 0.684375)"/>
      <use xlink:href="#DejaVuSans-73" transform="translate(981.870117 0.684375)"/>
      <use xlink:href="#DejaVuSans-20" transform="translate(1033.969727 0.684375)"/>
      <use xlink:href="#DejaVuSans-5b" transform="translate(1065.756836 0.684375)"/>
      <use xlink:href="#DejaVuSans-24" transform="translate(1104.770508 0.684375)"/>
      <use xlink:href="#DejaVuSans-20" transform="translate(1168.393555 0.684375)"/>
      <use xlink:href="#DejaVuSans-74" transform="translate(1200.180664 0.684375)"/>
      <use xlink:href="#DejaVuSans-43" transform="translate(1240.34668 -15.721875)scale(0.7)"/>
      <use xlink:href="#DejaVuSans-4f" transform="translate(1289.223633 -15.721875)scale(0.7)"/>
      <use xlink:href="#DejaVuSans-32" transform="translate(1344.991211 -27.20625)scale(0.49)"/>
      <use xlink:href="#DejaVuSans-65" transform="translate(1376.166504 -27.20625)scale(0.49)"/>
      <use xlink:href="#DejaVuSans-71" transform="translate(1406.312988 -27.20625)scale(0.49)"/>
      <use xlink:href="#DejaVuSans-2212" transform="translate(1443.021973 38.965625)scale(0.7)"/>
      <use xlink:href="#DejaVuSans-31" transform="translate(1501.674316 38.965625)scale(0.7)"/>
      <use xlink:href="#DejaVuSans-5d" transform="translate(1548.944824 0.684375)"/>
     </g>
    </g>
   </g>
   <g id="line2d_35">
    <path d="M 1009.570909 582.876837 
L 1016.064 585.16778 
L 1022.557091 587.458723 
L 1029.050182 589.749666 
L 1035.543273 592.040609 
L 1042.036364 594.331552 
L 1048.529455 596.622495 
L 1055.022545 598.913438 
L 1061.515636 601.204381 
L 1068.008727 603.495324 
L 1074.501818 605.786267 
L 1080.994909 608.07721 
L 1087.488 610.368153 
L 1093.981091 612.659096 
L 1100.474182 614.950039 
L 1106.967273 617.240982 
L 1113.460364 619.531924 
L 1119.953455 621.822867 
L 1126.446545 624.11381 
L 1132.939636 626.404753 
L 1139.432727 628.695696 
L 1145.925818 630.986639 
L 1152.418909 633.277582 
L 1158.912 635.568525 
L 1165.405091 637.859468 
L 1171.898182 640.150411 
L 1178.391273 642.441354 
L 1184.884364 644.732297 
L 1191.377455 647.02324 
L 1197.870545 649.314183 
L 1204.363636 651.605126 
L 1210.856727 653.896069 
L 1217.349818 656.187012 
L 1223.842909 658.477955 
L 1230.336 660.768898 
L 1236.829091 663.059841 
L 1243.322182 665.350784 
L 1249.815273 667.641727 
L 1256.308364 669.93267 
L 1262.801455 672.223613 
L 1269.294545 674.514556 
L 1275.787636 676.805499 
L 1282.280727 679.096442 
L 1288.773818 681.387385 
L 1295.266909 683.678328 
L 1301.76 685.969271 
L 1308.253091 688.260214 
L 1314.746182 690.551157 
L 1321.239273 692.8421 
L 1327.732364 695.133043 
L 1334.225455 697.423986 
L 1340.718545 699.714929 
L 1347.211636 702.005872 
L 1353.704727 704.296815 
L 1360.197818 706.587758 
L 1366.690909 708.878701 
L 1373.184 711.169643 
L 1379.677091 713.460586 
L 1386.170182 715.751529 
L 1392.663273 718.042472 
L 1399.156364 720.333415 
L 1405.649455 722.624358 
L 1412.142545 724.915301 
L 1418.635636 727.206244 
L 1425.128727 729.497187 
L 1431.621818 731.78813 
L 1438.114909 734.079073 
L 1444.608 736.370016 
L 1451.101091 738.660959 
L 1457.594182 740.951902 
L 1464.087273 743.242845 
L 1470.580364 745.533788 
L 1477.073455 747.824731 
L 1483.566545 750.115674 
L 1490.059636 752.406617 
L 1496.552727 754.69756 
L 1503.045818 756.988503 
L 1509.538909 759.279446 
L 1516.032 761.570389 
L 1522.525091 763.861332 
L 1529.018182 766.152275 
L 1535.511273 768.443218 
L 1542.004364 770.734161 
L 1548.497455 773.025104 
L 1554.990545 775.316047 
L 1561.483636 777.60699 
L 1567.976727 779.897933 
L 1574.469818 782.188876 
L 1580.962909 784.479819 
L 1587.456 786.770762 
L 1593.949091 789.061705 
L 1600.442182 791.352648 
L 1606.935273 793.643591 
L 1613.428364 795.934534 
L 1619.921455 798.225477 
L 1626.414545 800.516419 
L 1632.907636 802.807362 
L 1639.400727 805.098305 
L 1645.893818 807.389248 
L 1652.386909 809.680191 
L 1658.88 811.971134 
" clip-path="url(#pdf195a81e7)" style="fill: none; stroke-dasharray: 5.55,2.4; stroke-dashoffset: 0; stroke: #008000; stroke-width: 1.5"/>
   </g>
   <g id="line2d_36">
    <path d="M 1009.570909 606.272721 
L 1016.064 608.34207 
L 1022.557091 610.411419 
L 1029.050182 612.480768 
L 1035.543273 614.550116 
L 1042.036364 616.619465 
L 1048.529455 618.688814 
L 1055.022545 620.758163 
L 1061.515636 622.827512 
L 1068.008727 624.89686 
L 1074.501818 626.966209 
L 1080.994909 629.035558 
L 1087.488 631.104907 
L 1093.981091 633.174255 
L 1100.474182 635.243604 
L 1106.967273 637.312953 
L 1113.460364 639.382302 
L 1119.953455 641.451651 
L 1126.446545 643.520999 
L 1132.939636 645.590348 
L 1139.432727 647.659697 
L 1145.925818 649.729046 
L 1152.418909 651.798395 
L 1158.912 653.867743 
L 1165.405091 655.937092 
L 1171.898182 658.006441 
L 1178.391273 660.07579 
L 1184.884364 662.145138 
L 1191.377455 664.214487 
L 1197.870545 666.283836 
L 1204.363636 668.353185 
L 1210.856727 670.422534 
L 1217.349818 672.491882 
L 1223.842909 674.561231 
L 1230.336 676.63058 
L 1236.829091 678.699929 
L 1243.322182 680.769278 
L 1249.815273 682.838626 
L 1256.308364 684.907975 
L 1262.801455 686.977324 
L 1269.294545 689.046673 
L 1275.787636 691.116022 
L 1282.280727 693.18537 
L 1288.773818 695.254719 
L 1295.266909 697.324068 
L 1301.76 699.393417 
L 1308.253091 701.462765 
L 1314.746182 703.532114 
L 1321.239273 705.601463 
L 1327.732364 707.670812 
L 1334.225455 709.740161 
L 1340.718545 711.809509 
L 1347.211636 713.878858 
L 1353.704727 715.948207 
L 1360.197818 718.017556 
L 1366.690909 720.086905 
L 1373.184 722.156253 
L 1379.677091 724.225602 
L 1386.170182 726.294951 
L 1392.663273 728.3643 
L 1399.156364 730.433648 
L 1405.649455 732.502997 
L 1412.142545 734.572346 
L 1418.635636 736.641695 
L 1425.128727 738.711044 
L 1431.621818 740.780392 
L 1438.114909 742.849741 
L 1444.608 744.91909 
L 1451.101091 746.988439 
L 1457.594182 749.057788 
L 1464.087273 751.127136 
L 1470.580364 753.196485 
L 1477.073455 755.265834 
L 1483.566545 757.335183 
L 1490.059636 759.404532 
L 1496.552727 761.47388 
L 1503.045818 763.543229 
L 1509.538909 765.612578 
L 1516.032 767.681927 
L 1522.525091 769.751275 
L 1529.018182 771.820624 
L 1535.511273 773.889973 
L 1542.004364 775.959322 
L 1548.497455 778.028671 
L 1554.990545 780.098019 
L 1561.483636 782.167368 
L 1567.976727 784.236717 
L 1574.469818 786.306066 
L 1580.962909 788.375415 
L 1587.456 790.444763 
L 1593.949091 792.514112 
L 1600.442182 794.583461 
L 1606.935273 796.65281 
L 1613.428364 798.722158 
L 1619.921455 800.791507 
L 1626.414545 802.860856 
L 1632.907636 804.930205 
L 1639.400727 806.999554 
L 1645.893818 809.068902 
L 1652.386909 811.138251 
L 1658.88 813.2076 
" clip-path="url(#pdf195a81e7)" style="fill: none; stroke-dasharray: 5.55,2.4; stroke-dashoffset: 0; stroke: #ff0000; stroke-width: 1.5"/>
   </g>
   <g id="line2d_37">
    <path d="M 1009.570909 147.4236 
L 1016.064 153.861574 
L 1022.557091 160.299548 
L 1029.050182 166.737522 
L 1035.543273 173.175496 
L 1042.036364 179.61347 
L 1048.529455 186.051444 
L 1055.022545 192.489418 
L 1061.515636 198.927392 
L 1068.008727 205.365366 
L 1074.501818 211.80334 
L 1080.994909 218.241314 
L 1087.488 224.679288 
L 1093.981091 231.117262 
L 1100.474182 237.555236 
L 1106.967273 243.99321 
L 1113.460364 250.431184 
L 1119.953455 256.869158 
L 1126.446545 263.307132 
L 1132.939636 269.745106 
L 1139.432727 276.18308 
L 1145.925818 282.621054 
L 1152.418909 289.059028 
L 1158.912 295.497002 
L 1165.405091 301.934976 
L 1171.898182 308.37295 
L 1178.391273 314.810924 
L 1184.884364 321.248898 
L 1191.377455 327.686872 
L 1197.870545 334.124846 
L 1204.363636 340.56282 
L 1210.856727 347.000794 
L 1217.349818 353.438768 
L 1223.842909 359.876742 
L 1230.336 366.314716 
L 1236.829091 372.75269 
L 1243.322182 379.190664 
L 1249.815273 385.628638 
L 1256.308364 392.066612 
L 1262.801455 398.504586 
L 1269.294545 404.94256 
L 1275.787636 411.380534 
L 1282.280727 417.818508 
L 1288.773818 424.256482 
L 1295.266909 430.694456 
L 1301.76 437.13243 
L 1308.253091 443.570404 
L 1314.746182 450.008378 
L 1321.239273 456.446352 
L 1327.732364 462.884326 
L 1334.225455 469.3223 
L 1340.718545 475.760274 
L 1347.211636 482.198248 
L 1353.704727 488.636222 
L 1360.197818 495.074196 
L 1366.690909 501.51217 
L 1373.184 507.950144 
L 1379.677091 514.388118 
L 1386.170182 520.826092 
L 1392.663273 527.264066 
L 1399.156364 533.70204 
L 1405.649455 540.140014 
L 1412.142545 546.577988 
L 1418.635636 553.015962 
L 1425.128727 559.453936 
L 1431.621818 565.89191 
L 1438.114909 572.329884 
L 1444.608 578.767858 
L 1451.101091 585.205832 
L 1457.594182 591.643806 
L 1464.087273 598.08178 
L 1470.580364 604.519755 
L 1477.073455 610.957729 
L 1483.566545 617.395703 
L 1490.059636 623.833677 
L 1496.552727 630.271651 
L 1503.045818 636.709625 
L 1509.538909 643.147599 
L 1516.032 649.585573 
L 1522.525091 656.023547 
L 1529.018182 662.461521 
L 1535.511273 668.899495 
L 1542.004364 675.337469 
L 1548.497455 681.775443 
L 1554.990545 688.213417 
L 1561.483636 694.651391 
L 1567.976727 701.089365 
L 1574.469818 707.527339 
L 1580.962909 713.965313 
L 1587.456 720.403287 
L 1593.949091 726.841261 
L 1600.442182 733.279235 
L 1606.935273 739.717209 
L 1613.428364 746.155183 
L 1619.921455 752.593157 
L 1626.414545 759.031131 
L 1632.907636 765.469105 
L 1639.400727 771.907079 
L 1645.893818 778.345053 
L 1652.386909 784.783027 
L 1658.88 791.221001 
" clip-path="url(#pdf195a81e7)" style="fill: none; stroke-dasharray: 5.55,2.4; stroke-dashoffset: 0; stroke: #ffa500; stroke-width: 1.5"/>
   </g>
   <g id="LineCollection_5">
    <path d="M 1009.570909 701.757373 
L 1658.88 701.757373 
" clip-path="url(#pdf195a81e7)" style="fill: none; stroke-dasharray: 5.55,2.4; stroke-dashoffset: 0; stroke: #000000; stroke-width: 1.5"/>
   </g>
   <g id="patch_9">
    <path d="M 1009.570909 846.4968 
L 1009.570909 114.1344 
" style="fill: none; stroke: #000000; stroke-width: 0.8; stroke-linejoin: miter; stroke-linecap: square"/>
   </g>
   <g id="patch_10">
    <path d="M 1658.88 846.4968 
L 1658.88 114.1344 
" style="fill: none; stroke: #000000; stroke-width: 0.8; stroke-linejoin: miter; stroke-linecap: square"/>
   </g>
   <g id="patch_11">
    <path d="M 1009.570909 846.4968 
L 1658.88 846.4968 
" style="fill: none; stroke: #000000; stroke-width: 0.8; stroke-linejoin: miter; stroke-linecap: square"/>
   </g>
   <g id="patch_12">
    <path d="M 1009.570909 114.1344 
L 1658.88 114.1344 
" style="fill: none; stroke: #000000; stroke-width: 0.8; stroke-linejoin: miter; stroke-linecap: square"/>
   </g>
  </g>
 </g>
 <defs>
  <clipPath id="p7d393c0ff2">
   <rect x="230.4" y="114.1344" width="649.309091" height="732.3624"/>
  </clipPath>
  <clipPath id="pdf195a81e7">
   <rect x="1009.570909" y="114.1344" width="649.309091" height="732.3624"/>
  </clipPath>
 </defs>
</svg>
