<?xml version="1.0" encoding="utf-8" standalone="no"?>
<!DOCTYPE svg PUBLIC "-//W3C//DTD SVG 1.1//EN"
  "http://www.w3.org/Graphics/SVG/1.1/DTD/svg11.dtd">
<svg xmlns:xlink="http://www.w3.org/1999/xlink" width="1843.2pt" height="951.12pt" viewBox="0 0 1843.2 951.12" xmlns="http://www.w3.org/2000/svg" version="1.1">
 <metadata>
  <rdf:RDF xmlns:dc="http://purl.org/dc/elements/1.1/" xmlns:cc="http://creativecommons.org/ns#" xmlns:rdf="http://www.w3.org/1999/02/22-rdf-syntax-ns#">
   <cc:Work>
    <dc:type rdf:resource="http://purl.org/dc/dcmitype/StillImage"/>
    <dc:date>2022-10-05T09:48:00.297154</dc:date>
    <dc:format>image/svg+xml</dc:format>
    <dc:creator>
     <cc:Agent>
      <dc:title>Matplotlib v3.5.1, https://matplotlib.org/</dc:title>
     </cc:Agent>
    </dc:creator>
   </cc:Work>
  </rdf:RDF>
 </metadata>
 <defs>
  <style type="text/css">*{stroke-linejoin: round; stroke-linecap: butt}</style>
 </defs>
 <g id="figure_1">
  <g id="patch_1">
   <path d="M 0 951.12 
L 1843.2 951.12 
L 1843.2 0 
L 0 0 
z
" style="fill: #ffffff"/>
  </g>
  <g id="axes_1">
   <g id="patch_2">
    <path d="M 230.4 846.4968 
L 879.709091 846.4968 
L 879.709091 114.1344 
L 230.4 114.1344 
z
" style="fill: #ffffff"/>
   </g>
   <g id="PathCollection_1">
    <defs>
     <path id="m32cc95a079" d="M -3.061862 6.123724 
L 0 3.061862 
L 3.061862 6.123724 
L 6.123724 3.061862 
L 3.061862 0 
L 6.123724 -3.061862 
L 3.061862 -6.123724 
L 0 -3.061862 
L -3.061862 -6.123724 
L -6.123724 -3.061862 
L -3.061862 0 
L -6.123724 3.061862 
z
" style="stroke: #008000"/>
    </defs>
    <g clip-path="url(#pb90ef67830)">
     <use xlink:href="#m32cc95a079" x="869.709731" y="462.70103" style="fill: #008000; stroke: #008000"/>
    </g>
   </g>
   <g id="PathCollection_2">
    <defs>
     <path id="me9ccc8566b" d="M 0 -6.123724 
L -5.824008 -1.892335 
L -3.599435 4.954197 
L 3.599435 4.954197 
L 5.824008 -1.892335 
z
" style="stroke: #ff0000"/>
    </defs>
    <g clip-path="url(#pb90ef67830)">
     <use xlink:href="#me9ccc8566b" x="817.310487" y="487.08772" style="fill: #ff0000; stroke: #ff0000"/>
    </g>
   </g>
   <g id="PathCollection_3">
    <g clip-path="url(#pb90ef67830)">
     <use xlink:href="#m32cc95a079" x="869.709731" y="172.615531" style="fill: #008000; stroke: #008000"/>
    </g>
   </g>
   <g id="PathCollection_4">
    <g clip-path="url(#pb90ef67830)">
     <use xlink:href="#me9ccc8566b" x="817.310487" y="378.405559" style="fill: #ff0000; stroke: #ff0000"/>
    </g>
   </g>
   <g id="PathCollection_5">
    <g clip-path="url(#pb90ef67830)">
     <use xlink:href="#m32cc95a079" x="869.709731" y="392.976756" style="fill: #008000; stroke: #008000"/>
    </g>
   </g>
   <g id="PathCollection_6">
    <g clip-path="url(#pb90ef67830)">
     <use xlink:href="#me9ccc8566b" x="817.310487" y="431.207591" style="fill: #ff0000; stroke: #ff0000"/>
    </g>
   </g>
   <g id="matplotlib.axis_1">
    <g id="xtick_1">
     <g id="line2d_1">
      <defs>
       <path id="mc3c922cbfc" d="M 0 0 
L 0 3.5 
" style="stroke: #000000; stroke-width: 0.8"/>
      </defs>
      <g>
       <use xlink:href="#mc3c922cbfc" x="230.4" y="846.4968" style="stroke: #000000; stroke-width: 0.8"/>
      </g>
     </g>
     <g id="text_1">
      <!-- 0 -->
      <g transform="translate(225.31 865.6543)scale(0.16 -0.16)">
       <defs>
        <path id="DejaVuSans-30" d="M 2034 4250 
Q 1547 4250 1301 3770 
Q 1056 3291 1056 2328 
Q 1056 1369 1301 889 
Q 1547 409 2034 409 
Q 2525 409 2770 889 
Q 3016 1369 3016 2328 
Q 3016 3291 2770 3770 
Q 2525 4250 2034 4250 
z
M 2034 4750 
Q 2819 4750 3233 4129 
Q 3647 3509 3647 2328 
Q 3647 1150 3233 529 
Q 2819 -91 2034 -91 
Q 1250 -91 836 529 
Q 422 1150 422 2328 
Q 422 3509 836 4129 
Q 1250 4750 2034 4750 
z
" transform="scale(0.015625)"/>
       </defs>
       <use xlink:href="#DejaVuSans-30"/>
      </g>
     </g>
    </g>
    <g id="xtick_2">
     <g id="line2d_2">
      <g>
       <use xlink:href="#mc3c922cbfc" x="360.261818" y="846.4968" style="stroke: #000000; stroke-width: 0.8"/>
      </g>
     </g>
     <g id="text_2">
      <!-- 1000 -->
      <g transform="translate(339.901818 865.6543)scale(0.16 -0.16)">
       <defs>
        <path id="DejaVuSans-31" d="M 794 531 
L 1825 531 
L 1825 4091 
L 703 3866 
L 703 4441 
L 1819 4666 
L 2450 4666 
L 2450 531 
L 3481 531 
L 3481 0 
L 794 0 
L 794 531 
z
" transform="scale(0.015625)"/>
       </defs>
       <use xlink:href="#DejaVuSans-31"/>
       <use xlink:href="#DejaVuSans-30" x="63.623047"/>
       <use xlink:href="#DejaVuSans-30" x="127.246094"/>
       <use xlink:href="#DejaVuSans-30" x="190.869141"/>
      </g>
     </g>
    </g>
    <g id="xtick_3">
     <g id="line2d_3">
      <g>
       <use xlink:href="#mc3c922cbfc" x="490.123636" y="846.4968" style="stroke: #000000; stroke-width: 0.8"/>
      </g>
     </g>
     <g id="text_3">
      <!-- 2000 -->
      <g transform="translate(469.763636 865.6543)scale(0.16 -0.16)">
       <defs>
        <path id="DejaVuSans-32" d="M 1228 531 
L 3431 531 
L 3431 0 
L 469 0 
L 469 531 
Q 828 903 1448 1529 
Q 2069 2156 2228 2338 
Q 2531 2678 2651 2914 
Q 2772 3150 2772 3378 
Q 2772 3750 2511 3984 
Q 2250 4219 1831 4219 
Q 1534 4219 1204 4116 
Q 875 4013 500 3803 
L 500 4441 
Q 881 4594 1212 4672 
Q 1544 4750 1819 4750 
Q 2544 4750 2975 4387 
Q 3406 4025 3406 3419 
Q 3406 3131 3298 2873 
Q 3191 2616 2906 2266 
Q 2828 2175 2409 1742 
Q 1991 1309 1228 531 
z
" transform="scale(0.015625)"/>
       </defs>
       <use xlink:href="#DejaVuSans-32"/>
       <use xlink:href="#DejaVuSans-30" x="63.623047"/>
       <use xlink:href="#DejaVuSans-30" x="127.246094"/>
       <use xlink:href="#DejaVuSans-30" x="190.869141"/>
      </g>
     </g>
    </g>
    <g id="xtick_4">
     <g id="line2d_4">
      <g>
       <use xlink:href="#mc3c922cbfc" x="619.985455" y="846.4968" style="stroke: #000000; stroke-width: 0.8"/>
      </g>
     </g>
     <g id="text_4">
      <!-- 3000 -->
      <g transform="translate(599.625455 865.6543)scale(0.16 -0.16)">
       <defs>
        <path id="DejaVuSans-33" d="M 2597 2516 
Q 3050 2419 3304 2112 
Q 3559 1806 3559 1356 
Q 3559 666 3084 287 
Q 2609 -91 1734 -91 
Q 1441 -91 1130 -33 
Q 819 25 488 141 
L 488 750 
Q 750 597 1062 519 
Q 1375 441 1716 441 
Q 2309 441 2620 675 
Q 2931 909 2931 1356 
Q 2931 1769 2642 2001 
Q 2353 2234 1838 2234 
L 1294 2234 
L 1294 2753 
L 1863 2753 
Q 2328 2753 2575 2939 
Q 2822 3125 2822 3475 
Q 2822 3834 2567 4026 
Q 2313 4219 1838 4219 
Q 1578 4219 1281 4162 
Q 984 4106 628 3988 
L 628 4550 
Q 988 4650 1302 4700 
Q 1616 4750 1894 4750 
Q 2613 4750 3031 4423 
Q 3450 4097 3450 3541 
Q 3450 3153 3228 2886 
Q 3006 2619 2597 2516 
z
" transform="scale(0.015625)"/>
       </defs>
       <use xlink:href="#DejaVuSans-33"/>
       <use xlink:href="#DejaVuSans-30" x="63.623047"/>
       <use xlink:href="#DejaVuSans-30" x="127.246094"/>
       <use xlink:href="#DejaVuSans-30" x="190.869141"/>
      </g>
     </g>
    </g>
    <g id="xtick_5">
     <g id="line2d_5">
      <g>
       <use xlink:href="#mc3c922cbfc" x="749.847273" y="846.4968" style="stroke: #000000; stroke-width: 0.8"/>
      </g>
     </g>
     <g id="text_5">
      <!-- 4000 -->
      <g transform="translate(729.487273 865.6543)scale(0.16 -0.16)">
       <defs>
        <path id="DejaVuSans-34" d="M 2419 4116 
L 825 1625 
L 2419 1625 
L 2419 4116 
z
M 2253 4666 
L 3047 4666 
L 3047 1625 
L 3713 1625 
L 3713 1100 
L 3047 1100 
L 3047 0 
L 2419 0 
L 2419 1100 
L 313 1100 
L 313 1709 
L 2253 4666 
z
" transform="scale(0.015625)"/>
       </defs>
       <use xlink:href="#DejaVuSans-34"/>
       <use xlink:href="#DejaVuSans-30" x="63.623047"/>
       <use xlink:href="#DejaVuSans-30" x="127.246094"/>
       <use xlink:href="#DejaVuSans-30" x="190.869141"/>
      </g>
     </g>
    </g>
    <g id="xtick_6">
     <g id="line2d_6">
      <g>
       <use xlink:href="#mc3c922cbfc" x="879.709091" y="846.4968" style="stroke: #000000; stroke-width: 0.8"/>
      </g>
     </g>
     <g id="text_6">
      <!-- 5000 -->
      <g transform="translate(859.349091 865.6543)scale(0.16 -0.16)">
       <defs>
        <path id="DejaVuSans-35" d="M 691 4666 
L 3169 4666 
L 3169 4134 
L 1269 4134 
L 1269 2991 
Q 1406 3038 1543 3061 
Q 1681 3084 1819 3084 
Q 2600 3084 3056 2656 
Q 3513 2228 3513 1497 
Q 3513 744 3044 326 
Q 2575 -91 1722 -91 
Q 1428 -91 1123 -41 
Q 819 9 494 109 
L 494 744 
Q 775 591 1075 516 
Q 1375 441 1709 441 
Q 2250 441 2565 725 
Q 2881 1009 2881 1497 
Q 2881 1984 2565 2268 
Q 2250 2553 1709 2553 
Q 1456 2553 1204 2497 
Q 953 2441 691 2322 
L 691 4666 
z
" transform="scale(0.015625)"/>
       </defs>
       <use xlink:href="#DejaVuSans-35"/>
       <use xlink:href="#DejaVuSans-30" x="63.623047"/>
       <use xlink:href="#DejaVuSans-30" x="127.246094"/>
       <use xlink:href="#DejaVuSans-30" x="190.869141"/>
      </g>
     </g>
    </g>
    <g id="text_7">
     <!-- Natural gas price [\$ t$^\mathrm{-1}$] -->
     <g transform="translate(458.254545 887.3818)scale(0.16 -0.16)">
      <defs>
       <path id="DejaVuSans-4e" d="M 628 4666 
L 1478 4666 
L 3547 763 
L 3547 4666 
L 4159 4666 
L 4159 0 
L 3309 0 
L 1241 3903 
L 1241 0 
L 628 0 
L 628 4666 
z
" transform="scale(0.015625)"/>
       <path id="DejaVuSans-61" d="M 2194 1759 
Q 1497 1759 1228 1600 
Q 959 1441 959 1056 
Q 959 750 1161 570 
Q 1363 391 1709 391 
Q 2188 391 2477 730 
Q 2766 1069 2766 1631 
L 2766 1759 
L 2194 1759 
z
M 3341 1997 
L 3341 0 
L 2766 0 
L 2766 531 
Q 2569 213 2275 61 
Q 1981 -91 1556 -91 
Q 1019 -91 701 211 
Q 384 513 384 1019 
Q 384 1609 779 1909 
Q 1175 2209 1959 2209 
L 2766 2209 
L 2766 2266 
Q 2766 2663 2505 2880 
Q 2244 3097 1772 3097 
Q 1472 3097 1187 3025 
Q 903 2953 641 2809 
L 641 3341 
Q 956 3463 1253 3523 
Q 1550 3584 1831 3584 
Q 2591 3584 2966 3190 
Q 3341 2797 3341 1997 
z
" transform="scale(0.015625)"/>
       <path id="DejaVuSans-74" d="M 1172 4494 
L 1172 3500 
L 2356 3500 
L 2356 3053 
L 1172 3053 
L 1172 1153 
Q 1172 725 1289 603 
Q 1406 481 1766 481 
L 2356 481 
L 2356 0 
L 1766 0 
Q 1100 0 847 248 
Q 594 497 594 1153 
L 594 3053 
L 172 3053 
L 172 3500 
L 594 3500 
L 594 4494 
L 1172 4494 
z
" transform="scale(0.015625)"/>
       <path id="DejaVuSans-75" d="M 544 1381 
L 544 3500 
L 1119 3500 
L 1119 1403 
Q 1119 906 1312 657 
Q 1506 409 1894 409 
Q 2359 409 2629 706 
Q 2900 1003 2900 1516 
L 2900 3500 
L 3475 3500 
L 3475 0 
L 2900 0 
L 2900 538 
Q 2691 219 2414 64 
Q 2138 -91 1772 -91 
Q 1169 -91 856 284 
Q 544 659 544 1381 
z
M 1991 3584 
L 1991 3584 
z
" transform="scale(0.015625)"/>
       <path id="DejaVuSans-72" d="M 2631 2963 
Q 2534 3019 2420 3045 
Q 2306 3072 2169 3072 
Q 1681 3072 1420 2755 
Q 1159 2438 1159 1844 
L 1159 0 
L 581 0 
L 581 3500 
L 1159 3500 
L 1159 2956 
Q 1341 3275 1631 3429 
Q 1922 3584 2338 3584 
Q 2397 3584 2469 3576 
Q 2541 3569 2628 3553 
L 2631 2963 
z
" transform="scale(0.015625)"/>
       <path id="DejaVuSans-6c" d="M 603 4863 
L 1178 4863 
L 1178 0 
L 603 0 
L 603 4863 
z
" transform="scale(0.015625)"/>
       <path id="DejaVuSans-20" transform="scale(0.015625)"/>
       <path id="DejaVuSans-67" d="M 2906 1791 
Q 2906 2416 2648 2759 
Q 2391 3103 1925 3103 
Q 1463 3103 1205 2759 
Q 947 2416 947 1791 
Q 947 1169 1205 825 
Q 1463 481 1925 481 
Q 2391 481 2648 825 
Q 2906 1169 2906 1791 
z
M 3481 434 
Q 3481 -459 3084 -895 
Q 2688 -1331 1869 -1331 
Q 1566 -1331 1297 -1286 
Q 1028 -1241 775 -1147 
L 775 -588 
Q 1028 -725 1275 -790 
Q 1522 -856 1778 -856 
Q 2344 -856 2625 -561 
Q 2906 -266 2906 331 
L 2906 616 
Q 2728 306 2450 153 
Q 2172 0 1784 0 
Q 1141 0 747 490 
Q 353 981 353 1791 
Q 353 2603 747 3093 
Q 1141 3584 1784 3584 
Q 2172 3584 2450 3431 
Q 2728 3278 2906 2969 
L 2906 3500 
L 3481 3500 
L 3481 434 
z
" transform="scale(0.015625)"/>
       <path id="DejaVuSans-73" d="M 2834 3397 
L 2834 2853 
Q 2591 2978 2328 3040 
Q 2066 3103 1784 3103 
Q 1356 3103 1142 2972 
Q 928 2841 928 2578 
Q 928 2378 1081 2264 
Q 1234 2150 1697 2047 
L 1894 2003 
Q 2506 1872 2764 1633 
Q 3022 1394 3022 966 
Q 3022 478 2636 193 
Q 2250 -91 1575 -91 
Q 1294 -91 989 -36 
Q 684 19 347 128 
L 347 722 
Q 666 556 975 473 
Q 1284 391 1588 391 
Q 1994 391 2212 530 
Q 2431 669 2431 922 
Q 2431 1156 2273 1281 
Q 2116 1406 1581 1522 
L 1381 1569 
Q 847 1681 609 1914 
Q 372 2147 372 2553 
Q 372 3047 722 3315 
Q 1072 3584 1716 3584 
Q 2034 3584 2315 3537 
Q 2597 3491 2834 3397 
z
" transform="scale(0.015625)"/>
       <path id="DejaVuSans-70" d="M 1159 525 
L 1159 -1331 
L 581 -1331 
L 581 3500 
L 1159 3500 
L 1159 2969 
Q 1341 3281 1617 3432 
Q 1894 3584 2278 3584 
Q 2916 3584 3314 3078 
Q 3713 2572 3713 1747 
Q 3713 922 3314 415 
Q 2916 -91 2278 -91 
Q 1894 -91 1617 61 
Q 1341 213 1159 525 
z
M 3116 1747 
Q 3116 2381 2855 2742 
Q 2594 3103 2138 3103 
Q 1681 3103 1420 2742 
Q 1159 2381 1159 1747 
Q 1159 1113 1420 752 
Q 1681 391 2138 391 
Q 2594 391 2855 752 
Q 3116 1113 3116 1747 
z
" transform="scale(0.015625)"/>
       <path id="DejaVuSans-69" d="M 603 3500 
L 1178 3500 
L 1178 0 
L 603 0 
L 603 3500 
z
M 603 4863 
L 1178 4863 
L 1178 4134 
L 603 4134 
L 603 4863 
z
" transform="scale(0.015625)"/>
       <path id="DejaVuSans-63" d="M 3122 3366 
L 3122 2828 
Q 2878 2963 2633 3030 
Q 2388 3097 2138 3097 
Q 1578 3097 1268 2742 
Q 959 2388 959 1747 
Q 959 1106 1268 751 
Q 1578 397 2138 397 
Q 2388 397 2633 464 
Q 2878 531 3122 666 
L 3122 134 
Q 2881 22 2623 -34 
Q 2366 -91 2075 -91 
Q 1284 -91 818 406 
Q 353 903 353 1747 
Q 353 2603 823 3093 
Q 1294 3584 2113 3584 
Q 2378 3584 2631 3529 
Q 2884 3475 3122 3366 
z
" transform="scale(0.015625)"/>
       <path id="DejaVuSans-65" d="M 3597 1894 
L 3597 1613 
L 953 1613 
Q 991 1019 1311 708 
Q 1631 397 2203 397 
Q 2534 397 2845 478 
Q 3156 559 3463 722 
L 3463 178 
Q 3153 47 2828 -22 
Q 2503 -91 2169 -91 
Q 1331 -91 842 396 
Q 353 884 353 1716 
Q 353 2575 817 3079 
Q 1281 3584 2069 3584 
Q 2775 3584 3186 3129 
Q 3597 2675 3597 1894 
z
M 3022 2063 
Q 3016 2534 2758 2815 
Q 2500 3097 2075 3097 
Q 1594 3097 1305 2825 
Q 1016 2553 972 2059 
L 3022 2063 
z
" transform="scale(0.015625)"/>
       <path id="DejaVuSans-5b" d="M 550 4863 
L 1875 4863 
L 1875 4416 
L 1125 4416 
L 1125 -397 
L 1875 -397 
L 1875 -844 
L 550 -844 
L 550 4863 
z
" transform="scale(0.015625)"/>
       <path id="DejaVuSans-24" d="M 2163 -941 
L 1850 -941 
L 1847 0 
Q 1519 6 1191 76 
Q 863 147 531 288 
L 531 850 
Q 850 650 1176 548 
Q 1503 447 1850 444 
L 1850 1869 
Q 1159 1981 845 2250 
Q 531 2519 531 2988 
Q 531 3497 872 3790 
Q 1213 4084 1850 4128 
L 1850 4863 
L 2163 4863 
L 2163 4138 
Q 2453 4125 2725 4076 
Q 2997 4028 3256 3944 
L 3256 3397 
Q 2997 3528 2723 3600 
Q 2450 3672 2163 3684 
L 2163 2350 
Q 2872 2241 3206 1959 
Q 3541 1678 3541 1191 
Q 3541 663 3186 358 
Q 2831 53 2163 6 
L 2163 -941 
z
M 1850 2406 
L 1850 3688 
Q 1488 3647 1297 3481 
Q 1106 3316 1106 3041 
Q 1106 2772 1282 2622 
Q 1459 2472 1850 2406 
z
M 2163 1806 
L 2163 453 
Q 2559 506 2761 678 
Q 2963 850 2963 1131 
Q 2963 1406 2770 1568 
Q 2578 1731 2163 1806 
z
" transform="scale(0.015625)"/>
       <path id="DejaVuSans-2212" d="M 678 2272 
L 4684 2272 
L 4684 1741 
L 678 1741 
L 678 2272 
z
" transform="scale(0.015625)"/>
       <path id="DejaVuSans-5d" d="M 1947 4863 
L 1947 -844 
L 622 -844 
L 622 -397 
L 1369 -397 
L 1369 4416 
L 622 4416 
L 622 4863 
L 1947 4863 
z
" transform="scale(0.015625)"/>
      </defs>
      <use xlink:href="#DejaVuSans-4e" transform="translate(0 0.684375)"/>
      <use xlink:href="#DejaVuSans-61" transform="translate(74.804688 0.684375)"/>
      <use xlink:href="#DejaVuSans-74" transform="translate(136.083984 0.684375)"/>
      <use xlink:href="#DejaVuSans-75" transform="translate(175.292969 0.684375)"/>
      <use xlink:href="#DejaVuSans-72" transform="translate(238.671875 0.684375)"/>
      <use xlink:href="#DejaVuSans-61" transform="translate(279.785156 0.684375)"/>
      <use xlink:href="#DejaVuSans-6c" transform="translate(341.064453 0.684375)"/>
      <use xlink:href="#DejaVuSans-20" transform="translate(368.847656 0.684375)"/>
      <use xlink:href="#DejaVuSans-67" transform="translate(400.634766 0.684375)"/>
      <use xlink:href="#DejaVuSans-61" transform="translate(464.111328 0.684375)"/>
      <use xlink:href="#DejaVuSans-73" transform="translate(525.390625 0.684375)"/>
      <use xlink:href="#DejaVuSans-20" transform="translate(577.490234 0.684375)"/>
      <use xlink:href="#DejaVuSans-70" transform="translate(609.277344 0.684375)"/>
      <use xlink:href="#DejaVuSans-72" transform="translate(672.753906 0.684375)"/>
      <use xlink:href="#DejaVuSans-69" transform="translate(713.867188 0.684375)"/>
      <use xlink:href="#DejaVuSans-63" transform="translate(741.650391 0.684375)"/>
      <use xlink:href="#DejaVuSans-65" transform="translate(796.630859 0.684375)"/>
      <use xlink:href="#DejaVuSans-20" transform="translate(858.154297 0.684375)"/>
      <use xlink:href="#DejaVuSans-5b" transform="translate(889.941406 0.684375)"/>
      <use xlink:href="#DejaVuSans-24" transform="translate(928.955078 0.684375)"/>
      <use xlink:href="#DejaVuSans-20" transform="translate(992.578125 0.684375)"/>
      <use xlink:href="#DejaVuSans-74" transform="translate(1024.365234 0.684375)"/>
      <use xlink:href="#DejaVuSans-2212" transform="translate(1064.53125 38.965625)scale(0.7)"/>
      <use xlink:href="#DejaVuSans-31" transform="translate(1123.183594 38.965625)scale(0.7)"/>
      <use xlink:href="#DejaVuSans-5d" transform="translate(1170.454102 0.684375)"/>
     </g>
    </g>
   </g>
   <g id="matplotlib.axis_2">
    <g id="ytick_1">
     <g id="line2d_7">
      <defs>
       <path id="m22194a13ad" d="M 0 0 
L -3.5 0 
" style="stroke: #000000; stroke-width: 0.8"/>
      </defs>
      <g>
       <use xlink:href="#m22194a13ad" x="230.4" y="720.973043" style="stroke: #000000; stroke-width: 0.8"/>
      </g>
     </g>
     <g id="text_8">
      <!-- 1500 -->
      <g transform="translate(182.68 727.051793)scale(0.16 -0.16)">
       <use xlink:href="#DejaVuSans-31"/>
       <use xlink:href="#DejaVuSans-35" x="63.623047"/>
       <use xlink:href="#DejaVuSans-30" x="127.246094"/>
       <use xlink:href="#DejaVuSans-30" x="190.869141"/>
      </g>
     </g>
    </g>
    <g id="ytick_2">
     <g id="line2d_8">
      <g>
       <use xlink:href="#m22194a13ad" x="230.4" y="569.263382" style="stroke: #000000; stroke-width: 0.8"/>
      </g>
     </g>
     <g id="text_9">
      <!-- 2000 -->
      <g transform="translate(182.68 575.342132)scale(0.16 -0.16)">
       <use xlink:href="#DejaVuSans-32"/>
       <use xlink:href="#DejaVuSans-30" x="63.623047"/>
       <use xlink:href="#DejaVuSans-30" x="127.246094"/>
       <use xlink:href="#DejaVuSans-30" x="190.869141"/>
      </g>
     </g>
    </g>
    <g id="ytick_3">
     <g id="line2d_9">
      <g>
       <use xlink:href="#m22194a13ad" x="230.4" y="417.553721" style="stroke: #000000; stroke-width: 0.8"/>
      </g>
     </g>
     <g id="text_10">
      <!-- 2500 -->
      <g transform="translate(182.68 423.632471)scale(0.16 -0.16)">
       <use xlink:href="#DejaVuSans-32"/>
       <use xlink:href="#DejaVuSans-35" x="63.623047"/>
       <use xlink:href="#DejaVuSans-30" x="127.246094"/>
       <use xlink:href="#DejaVuSans-30" x="190.869141"/>
      </g>
     </g>
    </g>
    <g id="ytick_4">
     <g id="line2d_10">
      <g>
       <use xlink:href="#m22194a13ad" x="230.4" y="265.844061" style="stroke: #000000; stroke-width: 0.8"/>
      </g>
     </g>
     <g id="text_11">
      <!-- 3000 -->
      <g transform="translate(182.68 271.922811)scale(0.16 -0.16)">
       <use xlink:href="#DejaVuSans-33"/>
       <use xlink:href="#DejaVuSans-30" x="63.623047"/>
       <use xlink:href="#DejaVuSans-30" x="127.246094"/>
       <use xlink:href="#DejaVuSans-30" x="190.869141"/>
      </g>
     </g>
    </g>
    <g id="ytick_5">
     <g id="line2d_11">
      <g>
       <use xlink:href="#m22194a13ad" x="230.4" y="114.1344" style="stroke: #000000; stroke-width: 0.8"/>
      </g>
     </g>
     <g id="text_12">
      <!-- 3500 -->
      <g transform="translate(182.68 120.21315)scale(0.16 -0.16)">
       <use xlink:href="#DejaVuSans-33"/>
       <use xlink:href="#DejaVuSans-35" x="63.623047"/>
       <use xlink:href="#DejaVuSans-30" x="127.246094"/>
       <use xlink:href="#DejaVuSans-30" x="190.869141"/>
      </g>
     </g>
    </g>
    <g id="text_13">
     <!-- Methanol price [\$ t$^\mathrm{-1}$] -->
     <g transform="translate(175.32 567.9956)rotate(-90)scale(0.16 -0.16)">
      <defs>
       <path id="DejaVuSans-4d" d="M 628 4666 
L 1569 4666 
L 2759 1491 
L 3956 4666 
L 4897 4666 
L 4897 0 
L 4281 0 
L 4281 4097 
L 3078 897 
L 2444 897 
L 1241 4097 
L 1241 0 
L 628 0 
L 628 4666 
z
" transform="scale(0.015625)"/>
       <path id="DejaVuSans-68" d="M 3513 2113 
L 3513 0 
L 2938 0 
L 2938 2094 
Q 2938 2591 2744 2837 
Q 2550 3084 2163 3084 
Q 1697 3084 1428 2787 
Q 1159 2491 1159 1978 
L 1159 0 
L 581 0 
L 581 4863 
L 1159 4863 
L 1159 2956 
Q 1366 3272 1645 3428 
Q 1925 3584 2291 3584 
Q 2894 3584 3203 3211 
Q 3513 2838 3513 2113 
z
" transform="scale(0.015625)"/>
       <path id="DejaVuSans-6e" d="M 3513 2113 
L 3513 0 
L 2938 0 
L 2938 2094 
Q 2938 2591 2744 2837 
Q 2550 3084 2163 3084 
Q 1697 3084 1428 2787 
Q 1159 2491 1159 1978 
L 1159 0 
L 581 0 
L 581 3500 
L 1159 3500 
L 1159 2956 
Q 1366 3272 1645 3428 
Q 1925 3584 2291 3584 
Q 2894 3584 3203 3211 
Q 3513 2838 3513 2113 
z
" transform="scale(0.015625)"/>
       <path id="DejaVuSans-6f" d="M 1959 3097 
Q 1497 3097 1228 2736 
Q 959 2375 959 1747 
Q 959 1119 1226 758 
Q 1494 397 1959 397 
Q 2419 397 2687 759 
Q 2956 1122 2956 1747 
Q 2956 2369 2687 2733 
Q 2419 3097 1959 3097 
z
M 1959 3584 
Q 2709 3584 3137 3096 
Q 3566 2609 3566 1747 
Q 3566 888 3137 398 
Q 2709 -91 1959 -91 
Q 1206 -91 779 398 
Q 353 888 353 1747 
Q 353 2609 779 3096 
Q 1206 3584 1959 3584 
z
" transform="scale(0.015625)"/>
      </defs>
      <use xlink:href="#DejaVuSans-4d" transform="translate(0 0.684375)"/>
      <use xlink:href="#DejaVuSans-65" transform="translate(86.279297 0.684375)"/>
      <use xlink:href="#DejaVuSans-74" transform="translate(147.802734 0.684375)"/>
      <use xlink:href="#DejaVuSans-68" transform="translate(187.011719 0.684375)"/>
      <use xlink:href="#DejaVuSans-61" transform="translate(250.390625 0.684375)"/>
      <use xlink:href="#DejaVuSans-6e" transform="translate(311.669922 0.684375)"/>
      <use xlink:href="#DejaVuSans-6f" transform="translate(375.048828 0.684375)"/>
      <use xlink:href="#DejaVuSans-6c" transform="translate(436.230469 0.684375)"/>
      <use xlink:href="#DejaVuSans-20" transform="translate(464.013672 0.684375)"/>
      <use xlink:href="#DejaVuSans-70" transform="translate(495.800781 0.684375)"/>
      <use xlink:href="#DejaVuSans-72" transform="translate(559.277344 0.684375)"/>
      <use xlink:href="#DejaVuSans-69" transform="translate(600.390625 0.684375)"/>
      <use xlink:href="#DejaVuSans-63" transform="translate(628.173828 0.684375)"/>
      <use xlink:href="#DejaVuSans-65" transform="translate(683.154297 0.684375)"/>
      <use xlink:href="#DejaVuSans-20" transform="translate(744.677734 0.684375)"/>
      <use xlink:href="#DejaVuSans-5b" transform="translate(776.464844 0.684375)"/>
      <use xlink:href="#DejaVuSans-24" transform="translate(815.478516 0.684375)"/>
      <use xlink:href="#DejaVuSans-20" transform="translate(879.101562 0.684375)"/>
      <use xlink:href="#DejaVuSans-74" transform="translate(910.888672 0.684375)"/>
      <use xlink:href="#DejaVuSans-2212" transform="translate(951.054688 38.965625)scale(0.7)"/>
      <use xlink:href="#DejaVuSans-31" transform="translate(1009.707031 38.965625)scale(0.7)"/>
      <use xlink:href="#DejaVuSans-5d" transform="translate(1056.977539 0.684375)"/>
     </g>
    </g>
   </g>
   <g id="line2d_12">
    <path d="M 230.4 846.4968 
L 236.893091 841.910664 
L 243.386182 837.324527 
L 249.879273 832.738391 
L 256.372364 828.152255 
L 262.865455 823.566118 
L 269.358545 818.979982 
L 275.851636 814.393846 
L 282.344727 809.80771 
L 288.837818 805.221573 
L 295.330909 800.635437 
L 301.824 796.049301 
L 308.317091 791.463164 
L 314.810182 786.877028 
L 321.303273 782.290892 
L 327.796364 777.704755 
L 334.289455 773.118619 
L 340.782545 768.532483 
L 347.275636 763.946346 
L 353.768727 759.36021 
L 360.261818 754.774074 
L 366.754909 750.187938 
L 373.248 745.601801 
L 379.741091 741.015665 
L 386.234182 736.429529 
L 392.727273 731.843392 
L 399.220364 727.257256 
L 405.713455 722.67112 
L 412.206545 718.084983 
L 418.699636 713.498847 
L 425.192727 708.912711 
L 431.685818 704.326575 
L 438.178909 699.740438 
L 444.672 695.154302 
L 451.165091 690.568166 
L 457.658182 685.982029 
L 464.151273 681.395893 
L 470.644364 676.809757 
L 477.137455 672.22362 
L 483.630545 667.637484 
L 490.123636 663.051348 
L 496.616727 658.465211 
L 503.109818 653.879075 
L 509.602909 649.292939 
L 516.096 644.706803 
L 522.589091 640.120666 
L 529.082182 635.53453 
L 535.575273 630.948394 
L 542.068364 626.362257 
L 548.561455 621.776121 
L 555.054545 617.189985 
L 561.547636 612.603848 
L 568.040727 608.017712 
L 574.533818 603.431576 
L 581.026909 598.845439 
L 587.52 594.259303 
L 594.013091 589.673167 
L 600.506182 585.087031 
L 606.999273 580.500894 
L 613.492364 575.914758 
L 619.985455 571.328622 
L 626.478545 566.742485 
L 632.971636 562.156349 
L 639.464727 557.570213 
L 645.957818 552.984076 
L 652.450909 548.39794 
L 658.944 543.811804 
L 665.437091 539.225668 
L 671.930182 534.639531 
L 678.423273 530.053395 
L 684.916364 525.467259 
L 691.409455 520.881122 
L 697.902545 516.294986 
L 704.395636 511.70885 
L 710.888727 507.122713 
L 717.381818 502.536577 
L 723.874909 497.950441 
L 730.368 493.364304 
L 736.861091 488.778168 
L 743.354182 484.192032 
L 749.847273 479.605896 
L 756.340364 475.019759 
L 762.833455 470.433623 
L 769.326545 465.847487 
L 775.819636 461.26135 
L 782.312727 456.675214 
L 788.805818 452.089078 
L 795.298909 447.502941 
L 801.792 442.916805 
L 808.285091 438.330669 
L 814.778182 433.744532 
L 821.271273 429.158396 
L 827.764364 424.57226 
L 834.257455 419.986124 
L 840.750545 415.399987 
L 847.243636 410.813851 
L 853.736727 406.227715 
L 860.229818 401.641578 
L 866.722909 397.055442 
L 873.216 392.469306 
L 879.709091 387.883169 
" clip-path="url(#pb90ef67830)" style="fill: none; stroke: #000000; stroke-width: 1.5; stroke-linecap: square"/>
   </g>
   <g id="line2d_13">
    <path d="M 230.4 562.154164 
L 236.893091 560.454364 
L 243.386182 558.754564 
L 249.879273 557.054765 
L 256.372364 555.354965 
L 262.865455 553.655165 
L 269.358545 551.955366 
L 275.851636 550.255566 
L 282.344727 548.555766 
L 288.837818 546.855967 
L 295.330909 545.156167 
L 301.824 543.456367 
L 308.317091 541.756568 
L 314.810182 540.056768 
L 321.303273 538.356968 
L 327.796364 536.657169 
L 334.289455 534.957369 
L 340.782545 533.257569 
L 347.275636 531.55777 
L 353.768727 529.85797 
L 360.261818 528.15817 
L 366.754909 526.458371 
L 373.248 524.758571 
L 379.741091 523.058771 
L 386.234182 521.358972 
L 392.727273 519.659172 
L 399.220364 517.959372 
L 405.713455 516.259573 
L 412.206545 514.559773 
L 418.699636 512.859973 
L 425.192727 511.160174 
L 431.685818 509.460374 
L 438.178909 507.760574 
L 444.672 506.060775 
L 451.165091 504.360975 
L 457.658182 502.661175 
L 464.151273 500.961376 
L 470.644364 499.261576 
L 477.137455 497.561776 
L 483.630545 495.861977 
L 490.123636 494.162177 
L 496.616727 492.462377 
L 503.109818 490.762578 
L 509.602909 489.062778 
L 516.096 487.362978 
L 522.589091 485.663179 
L 529.082182 483.963379 
L 535.575273 482.263579 
L 542.068364 480.56378 
L 548.561455 478.86398 
L 555.054545 477.16418 
L 561.547636 475.464381 
L 568.040727 473.764581 
L 574.533818 472.064781 
L 581.026909 470.364982 
L 587.52 468.665182 
L 594.013091 466.965382 
L 600.506182 465.265583 
L 606.999273 463.565783 
L 613.492364 461.865983 
L 619.985455 460.166183 
L 626.478545 458.466384 
L 632.971636 456.766584 
L 639.464727 455.066784 
L 645.957818 453.366985 
L 652.450909 451.667185 
L 658.944 449.967385 
L 665.437091 448.267586 
L 671.930182 446.567786 
L 678.423273 444.867986 
L 684.916364 443.168187 
L 691.409455 441.468387 
L 697.902545 439.768587 
L 704.395636 438.068788 
L 710.888727 436.368988 
L 717.381818 434.669188 
L 723.874909 432.969389 
L 730.368 431.269589 
L 736.861091 429.569789 
L 743.354182 427.86999 
L 749.847273 426.17019 
L 756.340364 424.47039 
L 762.833455 422.770591 
L 769.326545 421.070791 
L 775.819636 419.370991 
L 782.312727 417.671192 
L 788.805818 415.971392 
L 795.298909 414.271592 
L 801.792 412.571793 
L 808.285091 410.871993 
L 814.778182 409.172193 
L 821.271273 407.472394 
L 827.764364 405.772594 
L 834.257455 404.072794 
L 840.750545 402.372995 
L 847.243636 400.673195 
L 853.736727 398.973395 
L 860.229818 397.273596 
L 866.722909 395.573796 
L 873.216 393.873996 
L 879.709091 392.174197 
" clip-path="url(#pb90ef67830)" style="fill: none; stroke-dasharray: 5.55,2.4; stroke-dashoffset: 0; stroke: #008000; stroke-width: 1.5"/>
   </g>
   <g id="line2d_14">
    <path d="M 230.4 417.111419 
L 236.893091 415.41162 
L 243.386182 413.71182 
L 249.879273 412.01202 
L 256.372364 410.312221 
L 262.865455 408.612421 
L 269.358545 406.912621 
L 275.851636 405.212822 
L 282.344727 403.513022 
L 288.837818 401.813222 
L 295.330909 400.113422 
L 301.824 398.413623 
L 308.317091 396.713823 
L 314.810182 395.014023 
L 321.303273 393.314224 
L 327.796364 391.614424 
L 334.289455 389.914624 
L 340.782545 388.214825 
L 347.275636 386.515025 
L 353.768727 384.815225 
L 360.261818 383.115426 
L 366.754909 381.415626 
L 373.248 379.715826 
L 379.741091 378.016027 
L 386.234182 376.316227 
L 392.727273 374.616427 
L 399.220364 372.916628 
L 405.713455 371.216828 
L 412.206545 369.517028 
L 418.699636 367.817229 
L 425.192727 366.117429 
L 431.685818 364.417629 
L 438.178909 362.71783 
L 444.672 361.01803 
L 451.165091 359.31823 
L 457.658182 357.618431 
L 464.151273 355.918631 
L 470.644364 354.218831 
L 477.137455 352.519032 
L 483.630545 350.819232 
L 490.123636 349.119432 
L 496.616727 347.419633 
L 503.109818 345.719833 
L 509.602909 344.020033 
L 516.096 342.320234 
L 522.589091 340.620434 
L 529.082182 338.920634 
L 535.575273 337.220835 
L 542.068364 335.521035 
L 548.561455 333.821235 
L 555.054545 332.121436 
L 561.547636 330.421636 
L 568.040727 328.721836 
L 574.533818 327.022037 
L 581.026909 325.322237 
L 587.52 323.622437 
L 594.013091 321.922638 
L 600.506182 320.222838 
L 606.999273 318.523038 
L 613.492364 316.823239 
L 619.985455 315.123439 
L 626.478545 313.423639 
L 632.971636 311.72384 
L 639.464727 310.02404 
L 645.957818 308.32424 
L 652.450909 306.624441 
L 658.944 304.924641 
L 665.437091 303.224841 
L 671.930182 301.525042 
L 678.423273 299.825242 
L 684.916364 298.125442 
L 691.409455 296.425643 
L 697.902545 294.725843 
L 704.395636 293.026043 
L 710.888727 291.326244 
L 717.381818 289.626444 
L 723.874909 287.926644 
L 730.368 286.226845 
L 736.861091 284.527045 
L 743.354182 282.827245 
L 749.847273 281.127446 
L 756.340364 279.427646 
L 762.833455 277.727846 
L 769.326545 276.028047 
L 775.819636 274.328247 
L 782.312727 272.628447 
L 788.805818 270.928648 
L 795.298909 269.228848 
L 801.792 267.529048 
L 808.285091 265.829249 
L 814.778182 264.129449 
L 821.271273 262.429649 
L 827.764364 260.72985 
L 834.257455 259.03005 
L 840.750545 257.33025 
L 847.243636 255.630451 
L 853.736727 253.930651 
L 860.229818 252.230851 
L 866.722909 250.531052 
L 873.216 248.831252 
L 879.709091 247.131452 
" clip-path="url(#pb90ef67830)" style="fill: none; stroke-dasharray: 5.55,2.4; stroke-dashoffset: 0; stroke: #ffa500; stroke-width: 1.5"/>
   </g>
   <g id="line2d_15">
    <path d="M 230.4 586.527738 
L 236.893091 584.827938 
L 243.386182 583.128139 
L 249.879273 581.428339 
L 256.372364 579.728539 
L 262.865455 578.028739 
L 269.358545 576.32894 
L 275.851636 574.62914 
L 282.344727 572.92934 
L 288.837818 571.229541 
L 295.330909 569.529741 
L 301.824 567.829941 
L 308.317091 566.130142 
L 314.810182 564.430342 
L 321.303273 562.730542 
L 327.796364 561.030743 
L 334.289455 559.330943 
L 340.782545 557.631143 
L 347.275636 555.931344 
L 353.768727 554.231544 
L 360.261818 552.531744 
L 366.754909 550.831945 
L 373.248 549.132145 
L 379.741091 547.432345 
L 386.234182 545.732546 
L 392.727273 544.032746 
L 399.220364 542.332946 
L 405.713455 540.633147 
L 412.206545 538.933347 
L 418.699636 537.233547 
L 425.192727 535.533748 
L 431.685818 533.833948 
L 438.178909 532.134148 
L 444.672 530.434349 
L 451.165091 528.734549 
L 457.658182 527.034749 
L 464.151273 525.33495 
L 470.644364 523.63515 
L 477.137455 521.93535 
L 483.630545 520.235551 
L 490.123636 518.535751 
L 496.616727 516.835951 
L 503.109818 515.136152 
L 509.602909 513.436352 
L 516.096 511.736552 
L 522.589091 510.036753 
L 529.082182 508.336953 
L 535.575273 506.637153 
L 542.068364 504.937354 
L 548.561455 503.237554 
L 555.054545 501.537754 
L 561.547636 499.837955 
L 568.040727 498.138155 
L 574.533818 496.438355 
L 581.026909 494.738556 
L 587.52 493.038756 
L 594.013091 491.338956 
L 600.506182 489.639157 
L 606.999273 487.939357 
L 613.492364 486.239557 
L 619.985455 484.539758 
L 626.478545 482.839958 
L 632.971636 481.140158 
L 639.464727 479.440359 
L 645.957818 477.740559 
L 652.450909 476.040759 
L 658.944 474.34096 
L 665.437091 472.64116 
L 671.930182 470.94136 
L 678.423273 469.241561 
L 684.916364 467.541761 
L 691.409455 465.841961 
L 697.902545 464.142162 
L 704.395636 462.442362 
L 710.888727 460.742562 
L 717.381818 459.042763 
L 723.874909 457.342963 
L 730.368 455.643163 
L 736.861091 453.943364 
L 743.354182 452.243564 
L 749.847273 450.543764 
L 756.340364 448.843965 
L 762.833455 447.144165 
L 769.326545 445.444365 
L 775.819636 443.744566 
L 782.312727 442.044766 
L 788.805818 440.344966 
L 795.298909 438.645167 
L 801.792 436.945367 
L 808.285091 435.245567 
L 814.778182 433.545768 
L 821.271273 431.845968 
L 827.764364 430.146168 
L 834.257455 428.446369 
L 840.750545 426.746569 
L 847.243636 425.046769 
L 853.736727 423.34697 
L 860.229818 421.64717 
L 866.722909 419.94737 
L 873.216 418.247571 
L 879.709091 416.547771 
" clip-path="url(#pb90ef67830)" style="fill: none; stroke-dasharray: 5.55,2.4; stroke-dashoffset: 0; stroke: #ff0000; stroke-width: 1.5"/>
   </g>
   <g id="LineCollection_1">
    <path d="M 817.310487 846.4968 
L 817.310487 114.1344 
" clip-path="url(#pb90ef67830)" style="fill: none; stroke-dasharray: 5.55,2.4; stroke-dashoffset: 0; stroke: #000000; stroke-width: 1.5"/>
    <path d="M 345.301763 846.4968 
L 345.301763 114.1344 
" clip-path="url(#pb90ef67830)" style="fill: none; stroke-dasharray: 5.55,2.4; stroke-dashoffset: 0; stroke: #000000; stroke-width: 1.5"/>
    <path d="M 298.447593 846.4968 
L 298.447593 114.1344 
" clip-path="url(#pb90ef67830)" style="fill: none; stroke-dasharray: 5.55,2.4; stroke-dashoffset: 0; stroke: #000000; stroke-width: 1.5"/>
    <path d="M 260.52637 846.4968 
L 260.52637 114.1344 
" clip-path="url(#pb90ef67830)" style="fill: none; stroke-dasharray: 5.55,2.4; stroke-dashoffset: 0; stroke: #000000; stroke-width: 1.5"/>
    <path d="M 625.246157 846.4968 
L 625.246157 114.1344 
" clip-path="url(#pb90ef67830)" style="fill: none; stroke-dasharray: 5.55,2.4; stroke-dashoffset: 0; stroke: #000000; stroke-width: 1.5"/>
   </g>
   <g id="LineCollection_2">
    <path d="M 869.709731 462.70103 
L 869.709731 172.615531 
" clip-path="url(#pb90ef67830)" style="fill: none; stroke-dasharray: 9.6,2.4,1.5,2.4; stroke-dashoffset: 0; stroke: #008000; stroke-width: 1.5"/>
   </g>
   <g id="LineCollection_3">
    <path d="M 817.310487 487.08772 
L 817.310487 378.405559 
" clip-path="url(#pb90ef67830)" style="fill: none; stroke-dasharray: 9.6,2.4,1.5,2.4; stroke-dashoffset: 0; stroke: #ff0000; stroke-width: 1.5"/>
   </g>
   <g id="patch_3">
    <path d="M 230.4 846.4968 
L 230.4 114.1344 
" style="fill: none; stroke: #000000; stroke-width: 0.8; stroke-linejoin: miter; stroke-linecap: square"/>
   </g>
   <g id="patch_4">
    <path d="M 879.709091 846.4968 
L 879.709091 114.1344 
" style="fill: none; stroke: #000000; stroke-width: 0.8; stroke-linejoin: miter; stroke-linecap: square"/>
   </g>
   <g id="patch_5">
    <path d="M 230.4 846.4968 
L 879.709091 846.4968 
" style="fill: none; stroke: #000000; stroke-width: 0.8; stroke-linejoin: miter; stroke-linecap: square"/>
   </g>
   <g id="patch_6">
    <path d="M 230.4 114.1344 
L 879.709091 114.1344 
" style="fill: none; stroke: #000000; stroke-width: 0.8; stroke-linejoin: miter; stroke-linecap: square"/>
   </g>
   <g id="text_14">
    <!-- DAC + wind electrolysis + BAU ethylene -->
    <g style="fill: #008000" transform="translate(349.849156 523.83697)rotate(-14)scale(0.14 -0.14)">
     <defs>
      <path id="DejaVuSans-44" d="M 1259 4147 
L 1259 519 
L 2022 519 
Q 2988 519 3436 956 
Q 3884 1394 3884 2338 
Q 3884 3275 3436 3711 
Q 2988 4147 2022 4147 
L 1259 4147 
z
M 628 4666 
L 1925 4666 
Q 3281 4666 3915 4102 
Q 4550 3538 4550 2338 
Q 4550 1131 3912 565 
Q 3275 0 1925 0 
L 628 0 
L 628 4666 
z
" transform="scale(0.015625)"/>
      <path id="DejaVuSans-41" d="M 2188 4044 
L 1331 1722 
L 3047 1722 
L 2188 4044 
z
M 1831 4666 
L 2547 4666 
L 4325 0 
L 3669 0 
L 3244 1197 
L 1141 1197 
L 716 0 
L 50 0 
L 1831 4666 
z
" transform="scale(0.015625)"/>
      <path id="DejaVuSans-43" d="M 4122 4306 
L 4122 3641 
Q 3803 3938 3442 4084 
Q 3081 4231 2675 4231 
Q 1875 4231 1450 3742 
Q 1025 3253 1025 2328 
Q 1025 1406 1450 917 
Q 1875 428 2675 428 
Q 3081 428 3442 575 
Q 3803 722 4122 1019 
L 4122 359 
Q 3791 134 3420 21 
Q 3050 -91 2638 -91 
Q 1578 -91 968 557 
Q 359 1206 359 2328 
Q 359 3453 968 4101 
Q 1578 4750 2638 4750 
Q 3056 4750 3426 4639 
Q 3797 4528 4122 4306 
z
" transform="scale(0.015625)"/>
      <path id="DejaVuSans-2b" d="M 2944 4013 
L 2944 2272 
L 4684 2272 
L 4684 1741 
L 2944 1741 
L 2944 0 
L 2419 0 
L 2419 1741 
L 678 1741 
L 678 2272 
L 2419 2272 
L 2419 4013 
L 2944 4013 
z
" transform="scale(0.015625)"/>
      <path id="DejaVuSans-77" d="M 269 3500 
L 844 3500 
L 1563 769 
L 2278 3500 
L 2956 3500 
L 3675 769 
L 4391 3500 
L 4966 3500 
L 4050 0 
L 3372 0 
L 2619 2869 
L 1863 0 
L 1184 0 
L 269 3500 
z
" transform="scale(0.015625)"/>
      <path id="DejaVuSans-64" d="M 2906 2969 
L 2906 4863 
L 3481 4863 
L 3481 0 
L 2906 0 
L 2906 525 
Q 2725 213 2448 61 
Q 2172 -91 1784 -91 
Q 1150 -91 751 415 
Q 353 922 353 1747 
Q 353 2572 751 3078 
Q 1150 3584 1784 3584 
Q 2172 3584 2448 3432 
Q 2725 3281 2906 2969 
z
M 947 1747 
Q 947 1113 1208 752 
Q 1469 391 1925 391 
Q 2381 391 2643 752 
Q 2906 1113 2906 1747 
Q 2906 2381 2643 2742 
Q 2381 3103 1925 3103 
Q 1469 3103 1208 2742 
Q 947 2381 947 1747 
z
" transform="scale(0.015625)"/>
      <path id="DejaVuSans-79" d="M 2059 -325 
Q 1816 -950 1584 -1140 
Q 1353 -1331 966 -1331 
L 506 -1331 
L 506 -850 
L 844 -850 
Q 1081 -850 1212 -737 
Q 1344 -625 1503 -206 
L 1606 56 
L 191 3500 
L 800 3500 
L 1894 763 
L 2988 3500 
L 3597 3500 
L 2059 -325 
z
" transform="scale(0.015625)"/>
      <path id="DejaVuSans-42" d="M 1259 2228 
L 1259 519 
L 2272 519 
Q 2781 519 3026 730 
Q 3272 941 3272 1375 
Q 3272 1813 3026 2020 
Q 2781 2228 2272 2228 
L 1259 2228 
z
M 1259 4147 
L 1259 2741 
L 2194 2741 
Q 2656 2741 2882 2914 
Q 3109 3088 3109 3444 
Q 3109 3797 2882 3972 
Q 2656 4147 2194 4147 
L 1259 4147 
z
M 628 4666 
L 2241 4666 
Q 2963 4666 3353 4366 
Q 3744 4066 3744 3513 
Q 3744 3084 3544 2831 
Q 3344 2578 2956 2516 
Q 3422 2416 3680 2098 
Q 3938 1781 3938 1306 
Q 3938 681 3513 340 
Q 3088 0 2303 0 
L 628 0 
L 628 4666 
z
" transform="scale(0.015625)"/>
      <path id="DejaVuSans-55" d="M 556 4666 
L 1191 4666 
L 1191 1831 
Q 1191 1081 1462 751 
Q 1734 422 2344 422 
Q 2950 422 3222 751 
Q 3494 1081 3494 1831 
L 3494 4666 
L 4128 4666 
L 4128 1753 
Q 4128 841 3676 375 
Q 3225 -91 2344 -91 
Q 1459 -91 1007 375 
Q 556 841 556 1753 
L 556 4666 
z
" transform="scale(0.015625)"/>
     </defs>
     <use xlink:href="#DejaVuSans-44"/>
     <use xlink:href="#DejaVuSans-41" x="75.251953"/>
     <use xlink:href="#DejaVuSans-43" x="141.910156"/>
     <use xlink:href="#DejaVuSans-20" x="211.734375"/>
     <use xlink:href="#DejaVuSans-2b" x="243.521484"/>
     <use xlink:href="#DejaVuSans-20" x="327.310547"/>
     <use xlink:href="#DejaVuSans-77" x="359.097656"/>
     <use xlink:href="#DejaVuSans-69" x="440.884766"/>
     <use xlink:href="#DejaVuSans-6e" x="468.667969"/>
     <use xlink:href="#DejaVuSans-64" x="532.046875"/>
     <use xlink:href="#DejaVuSans-20" x="595.523438"/>
     <use xlink:href="#DejaVuSans-65" x="627.310547"/>
     <use xlink:href="#DejaVuSans-6c" x="688.833984"/>
     <use xlink:href="#DejaVuSans-65" x="716.617188"/>
     <use xlink:href="#DejaVuSans-63" x="778.140625"/>
     <use xlink:href="#DejaVuSans-74" x="833.121094"/>
     <use xlink:href="#DejaVuSans-72" x="872.330078"/>
     <use xlink:href="#DejaVuSans-6f" x="911.193359"/>
     <use xlink:href="#DejaVuSans-6c" x="972.375"/>
     <use xlink:href="#DejaVuSans-79" x="1000.158203"/>
     <use xlink:href="#DejaVuSans-73" x="1059.337891"/>
     <use xlink:href="#DejaVuSans-69" x="1111.4375"/>
     <use xlink:href="#DejaVuSans-73" x="1139.220703"/>
     <use xlink:href="#DejaVuSans-20" x="1191.320312"/>
     <use xlink:href="#DejaVuSans-2b" x="1223.107422"/>
     <use xlink:href="#DejaVuSans-20" x="1306.896484"/>
     <use xlink:href="#DejaVuSans-42" x="1338.683594"/>
     <use xlink:href="#DejaVuSans-41" x="1407.287109"/>
     <use xlink:href="#DejaVuSans-55" x="1475.695312"/>
     <use xlink:href="#DejaVuSans-20" x="1548.888672"/>
     <use xlink:href="#DejaVuSans-65" x="1580.675781"/>
     <use xlink:href="#DejaVuSans-74" x="1642.199219"/>
     <use xlink:href="#DejaVuSans-68" x="1681.408203"/>
     <use xlink:href="#DejaVuSans-79" x="1744.787109"/>
     <use xlink:href="#DejaVuSans-6c" x="1803.966797"/>
     <use xlink:href="#DejaVuSans-65" x="1831.75"/>
     <use xlink:href="#DejaVuSans-6e" x="1893.273438"/>
     <use xlink:href="#DejaVuSans-65" x="1956.652344"/>
    </g>
   </g>
   <g id="text_15">
    <!-- DAC + solar electrolysis + BAU ethylene -->
    <g style="fill: #ffa500" transform="translate(349.849156 379.712792)rotate(-14)scale(0.14 -0.14)">
     <use xlink:href="#DejaVuSans-44"/>
     <use xlink:href="#DejaVuSans-41" x="75.251953"/>
     <use xlink:href="#DejaVuSans-43" x="141.910156"/>
     <use xlink:href="#DejaVuSans-20" x="211.734375"/>
     <use xlink:href="#DejaVuSans-2b" x="243.521484"/>
     <use xlink:href="#DejaVuSans-20" x="327.310547"/>
     <use xlink:href="#DejaVuSans-73" x="359.097656"/>
     <use xlink:href="#DejaVuSans-6f" x="411.197266"/>
     <use xlink:href="#DejaVuSans-6c" x="472.378906"/>
     <use xlink:href="#DejaVuSans-61" x="500.162109"/>
     <use xlink:href="#DejaVuSans-72" x="561.441406"/>
     <use xlink:href="#DejaVuSans-20" x="602.554688"/>
     <use xlink:href="#DejaVuSans-65" x="634.341797"/>
     <use xlink:href="#DejaVuSans-6c" x="695.865234"/>
     <use xlink:href="#DejaVuSans-65" x="723.648438"/>
     <use xlink:href="#DejaVuSans-63" x="785.171875"/>
     <use xlink:href="#DejaVuSans-74" x="840.152344"/>
     <use xlink:href="#DejaVuSans-72" x="879.361328"/>
     <use xlink:href="#DejaVuSans-6f" x="918.224609"/>
     <use xlink:href="#DejaVuSans-6c" x="979.40625"/>
     <use xlink:href="#DejaVuSans-79" x="1007.189453"/>
     <use xlink:href="#DejaVuSans-73" x="1066.369141"/>
     <use xlink:href="#DejaVuSans-69" x="1118.46875"/>
     <use xlink:href="#DejaVuSans-73" x="1146.251953"/>
     <use xlink:href="#DejaVuSans-20" x="1198.351562"/>
     <use xlink:href="#DejaVuSans-2b" x="1230.138672"/>
     <use xlink:href="#DejaVuSans-20" x="1313.927734"/>
     <use xlink:href="#DejaVuSans-42" x="1345.714844"/>
     <use xlink:href="#DejaVuSans-41" x="1414.318359"/>
     <use xlink:href="#DejaVuSans-55" x="1482.726562"/>
     <use xlink:href="#DejaVuSans-20" x="1555.919922"/>
     <use xlink:href="#DejaVuSans-65" x="1587.707031"/>
     <use xlink:href="#DejaVuSans-74" x="1649.230469"/>
     <use xlink:href="#DejaVuSans-68" x="1688.439453"/>
     <use xlink:href="#DejaVuSans-79" x="1751.818359"/>
     <use xlink:href="#DejaVuSans-6c" x="1810.998047"/>
     <use xlink:href="#DejaVuSans-65" x="1838.78125"/>
     <use xlink:href="#DejaVuSans-6e" x="1900.304688"/>
     <use xlink:href="#DejaVuSans-65" x="1963.683594"/>
    </g>
   </g>
   <g id="text_16">
    <!-- DAC + nuclear electrolysis + BAU ethylene -->
    <g style="fill: #ff0000" transform="translate(349.849156 546.593419)rotate(-14)scale(0.14 -0.14)">
     <use xlink:href="#DejaVuSans-44"/>
     <use xlink:href="#DejaVuSans-41" x="75.251953"/>
     <use xlink:href="#DejaVuSans-43" x="141.910156"/>
     <use xlink:href="#DejaVuSans-20" x="211.734375"/>
     <use xlink:href="#DejaVuSans-2b" x="243.521484"/>
     <use xlink:href="#DejaVuSans-20" x="327.310547"/>
     <use xlink:href="#DejaVuSans-6e" x="359.097656"/>
     <use xlink:href="#DejaVuSans-75" x="422.476562"/>
     <use xlink:href="#DejaVuSans-63" x="485.855469"/>
     <use xlink:href="#DejaVuSans-6c" x="540.835938"/>
     <use xlink:href="#DejaVuSans-65" x="568.619141"/>
     <use xlink:href="#DejaVuSans-61" x="630.142578"/>
     <use xlink:href="#DejaVuSans-72" x="691.421875"/>
     <use xlink:href="#DejaVuSans-20" x="732.535156"/>
     <use xlink:href="#DejaVuSans-65" x="764.322266"/>
     <use xlink:href="#DejaVuSans-6c" x="825.845703"/>
     <use xlink:href="#DejaVuSans-65" x="853.628906"/>
     <use xlink:href="#DejaVuSans-63" x="915.152344"/>
     <use xlink:href="#DejaVuSans-74" x="970.132812"/>
     <use xlink:href="#DejaVuSans-72" x="1009.341797"/>
     <use xlink:href="#DejaVuSans-6f" x="1048.205078"/>
     <use xlink:href="#DejaVuSans-6c" x="1109.386719"/>
     <use xlink:href="#DejaVuSans-79" x="1137.169922"/>
     <use xlink:href="#DejaVuSans-73" x="1196.349609"/>
     <use xlink:href="#DejaVuSans-69" x="1248.449219"/>
     <use xlink:href="#DejaVuSans-73" x="1276.232422"/>
     <use xlink:href="#DejaVuSans-20" x="1328.332031"/>
     <use xlink:href="#DejaVuSans-2b" x="1360.119141"/>
     <use xlink:href="#DejaVuSans-20" x="1443.908203"/>
     <use xlink:href="#DejaVuSans-42" x="1475.695312"/>
     <use xlink:href="#DejaVuSans-41" x="1544.298828"/>
     <use xlink:href="#DejaVuSans-55" x="1612.707031"/>
     <use xlink:href="#DejaVuSans-20" x="1685.900391"/>
     <use xlink:href="#DejaVuSans-65" x="1717.6875"/>
     <use xlink:href="#DejaVuSans-74" x="1779.210938"/>
     <use xlink:href="#DejaVuSans-68" x="1818.419922"/>
     <use xlink:href="#DejaVuSans-79" x="1881.798828"/>
     <use xlink:href="#DejaVuSans-6c" x="1940.978516"/>
     <use xlink:href="#DejaVuSans-65" x="1968.761719"/>
     <use xlink:href="#DejaVuSans-6e" x="2030.285156"/>
     <use xlink:href="#DejaVuSans-65" x="2093.664062"/>
    </g>
   </g>
   <g id="text_17">
    <!-- Highest - 2022 -->
    <g transform="translate(833.142772 693.542673)rotate(-90)scale(0.14 -0.14)">
     <defs>
      <path id="DejaVuSans-48" d="M 628 4666 
L 1259 4666 
L 1259 2753 
L 3553 2753 
L 3553 4666 
L 4184 4666 
L 4184 0 
L 3553 0 
L 3553 2222 
L 1259 2222 
L 1259 0 
L 628 0 
L 628 4666 
z
" transform="scale(0.015625)"/>
      <path id="DejaVuSans-2d" d="M 313 2009 
L 1997 2009 
L 1997 1497 
L 313 1497 
L 313 2009 
z
" transform="scale(0.015625)"/>
     </defs>
     <use xlink:href="#DejaVuSans-48"/>
     <use xlink:href="#DejaVuSans-69" x="75.195312"/>
     <use xlink:href="#DejaVuSans-67" x="102.978516"/>
     <use xlink:href="#DejaVuSans-68" x="166.455078"/>
     <use xlink:href="#DejaVuSans-65" x="229.833984"/>
     <use xlink:href="#DejaVuSans-73" x="291.357422"/>
     <use xlink:href="#DejaVuSans-74" x="343.457031"/>
     <use xlink:href="#DejaVuSans-20" x="382.666016"/>
     <use xlink:href="#DejaVuSans-2d" x="414.453125"/>
     <use xlink:href="#DejaVuSans-20" x="450.537109"/>
     <use xlink:href="#DejaVuSans-32" x="482.324219"/>
     <use xlink:href="#DejaVuSans-30" x="545.947266"/>
     <use xlink:href="#DejaVuSans-32" x="609.570312"/>
     <use xlink:href="#DejaVuSans-32" x="673.193359"/>
    </g>
   </g>
   <g id="text_18">
    <!-- Lowest - 2022 -->
    <g transform="translate(361.134048 693.542673)rotate(-90)scale(0.14 -0.14)">
     <defs>
      <path id="DejaVuSans-4c" d="M 628 4666 
L 1259 4666 
L 1259 531 
L 3531 531 
L 3531 0 
L 628 0 
L 628 4666 
z
" transform="scale(0.015625)"/>
     </defs>
     <use xlink:href="#DejaVuSans-4c"/>
     <use xlink:href="#DejaVuSans-6f" x="53.962891"/>
     <use xlink:href="#DejaVuSans-77" x="115.144531"/>
     <use xlink:href="#DejaVuSans-65" x="196.931641"/>
     <use xlink:href="#DejaVuSans-73" x="258.455078"/>
     <use xlink:href="#DejaVuSans-74" x="310.554688"/>
     <use xlink:href="#DejaVuSans-20" x="349.763672"/>
     <use xlink:href="#DejaVuSans-2d" x="381.550781"/>
     <use xlink:href="#DejaVuSans-20" x="417.634766"/>
     <use xlink:href="#DejaVuSans-32" x="449.421875"/>
     <use xlink:href="#DejaVuSans-30" x="513.044922"/>
     <use xlink:href="#DejaVuSans-32" x="576.667969"/>
     <use xlink:href="#DejaVuSans-32" x="640.291016"/>
    </g>
   </g>
   <g id="text_19">
    <!-- Late - 2021 -->
    <g transform="translate(314.279878 693.542673)rotate(-90)scale(0.14 -0.14)">
     <use xlink:href="#DejaVuSans-4c"/>
     <use xlink:href="#DejaVuSans-61" x="55.712891"/>
     <use xlink:href="#DejaVuSans-74" x="116.992188"/>
     <use xlink:href="#DejaVuSans-65" x="156.201172"/>
     <use xlink:href="#DejaVuSans-20" x="217.724609"/>
     <use xlink:href="#DejaVuSans-2d" x="249.511719"/>
     <use xlink:href="#DejaVuSans-20" x="285.595703"/>
     <use xlink:href="#DejaVuSans-32" x="317.382812"/>
     <use xlink:href="#DejaVuSans-30" x="381.005859"/>
     <use xlink:href="#DejaVuSans-32" x="444.628906"/>
     <use xlink:href="#DejaVuSans-31" x="508.251953"/>
    </g>
   </g>
   <g id="text_20">
    <!-- Early - 2021 -->
    <g transform="translate(276.358656 693.542673)rotate(-90)scale(0.14 -0.14)">
     <defs>
      <path id="DejaVuSans-45" d="M 628 4666 
L 3578 4666 
L 3578 4134 
L 1259 4134 
L 1259 2753 
L 3481 2753 
L 3481 2222 
L 1259 2222 
L 1259 531 
L 3634 531 
L 3634 0 
L 628 0 
L 628 4666 
z
" transform="scale(0.015625)"/>
     </defs>
     <use xlink:href="#DejaVuSans-45"/>
     <use xlink:href="#DejaVuSans-61" x="63.183594"/>
     <use xlink:href="#DejaVuSans-72" x="124.462891"/>
     <use xlink:href="#DejaVuSans-6c" x="165.576172"/>
     <use xlink:href="#DejaVuSans-79" x="193.359375"/>
     <use xlink:href="#DejaVuSans-20" x="252.539062"/>
     <use xlink:href="#DejaVuSans-2d" x="284.326172"/>
     <use xlink:href="#DejaVuSans-20" x="320.410156"/>
     <use xlink:href="#DejaVuSans-32" x="352.197266"/>
     <use xlink:href="#DejaVuSans-30" x="415.820312"/>
     <use xlink:href="#DejaVuSans-32" x="479.443359"/>
     <use xlink:href="#DejaVuSans-31" x="543.066406"/>
    </g>
   </g>
   <g id="text_21">
    <!-- Sep' - 2022 -->
    <g transform="translate(641.078442 693.542673)rotate(-90)scale(0.14 -0.14)">
     <defs>
      <path id="DejaVuSans-53" d="M 3425 4513 
L 3425 3897 
Q 3066 4069 2747 4153 
Q 2428 4238 2131 4238 
Q 1616 4238 1336 4038 
Q 1056 3838 1056 3469 
Q 1056 3159 1242 3001 
Q 1428 2844 1947 2747 
L 2328 2669 
Q 3034 2534 3370 2195 
Q 3706 1856 3706 1288 
Q 3706 609 3251 259 
Q 2797 -91 1919 -91 
Q 1588 -91 1214 -16 
Q 841 59 441 206 
L 441 856 
Q 825 641 1194 531 
Q 1563 422 1919 422 
Q 2459 422 2753 634 
Q 3047 847 3047 1241 
Q 3047 1584 2836 1778 
Q 2625 1972 2144 2069 
L 1759 2144 
Q 1053 2284 737 2584 
Q 422 2884 422 3419 
Q 422 4038 858 4394 
Q 1294 4750 2059 4750 
Q 2388 4750 2728 4690 
Q 3069 4631 3425 4513 
z
" transform="scale(0.015625)"/>
      <path id="DejaVuSans-27" d="M 1147 4666 
L 1147 2931 
L 616 2931 
L 616 4666 
L 1147 4666 
z
" transform="scale(0.015625)"/>
     </defs>
     <use xlink:href="#DejaVuSans-53"/>
     <use xlink:href="#DejaVuSans-65" x="63.476562"/>
     <use xlink:href="#DejaVuSans-70" x="125"/>
     <use xlink:href="#DejaVuSans-27" x="188.476562"/>
     <use xlink:href="#DejaVuSans-20" x="215.966797"/>
     <use xlink:href="#DejaVuSans-2d" x="247.753906"/>
     <use xlink:href="#DejaVuSans-20" x="283.837891"/>
     <use xlink:href="#DejaVuSans-32" x="315.625"/>
     <use xlink:href="#DejaVuSans-30" x="379.248047"/>
     <use xlink:href="#DejaVuSans-32" x="442.871094"/>
     <use xlink:href="#DejaVuSans-32" x="506.494141"/>
    </g>
   </g>
   <g id="legend_1">
    <g id="patch_7">
     <path d="M 241.6 173.9044 
L 846.6825 173.9044 
Q 849.8825 173.9044 849.8825 170.7044 
L 849.8825 125.3344 
Q 849.8825 122.1344 846.6825 122.1344 
L 241.6 122.1344 
Q 238.4 122.1344 238.4 125.3344 
L 238.4 170.7044 
Q 238.4 173.9044 241.6 173.9044 
z
" style="fill: #ffffff; opacity: 0.8; stroke: #cccccc; stroke-linejoin: miter"/>
    </g>
    <g id="line2d_16">
     <path d="M 244.8 135.0919 
L 260.8 135.0919 
L 276.8 135.0919 
" style="fill: none; stroke: #000000; stroke-width: 1.5; stroke-linecap: square"/>
    </g>
    <g id="text_22">
     <!-- BAU -->
     <g transform="translate(289.6 140.6919)scale(0.16 -0.16)">
      <use xlink:href="#DejaVuSans-42"/>
      <use xlink:href="#DejaVuSans-41" x="68.603516"/>
      <use xlink:href="#DejaVuSans-55" x="137.011719"/>
     </g>
    </g>
    <g id="line2d_17">
     <path d="M 244.8 158.5769 
L 260.8 158.5769 
L 276.8 158.5769 
" style="fill: none; stroke-dasharray: 5.55,2.4; stroke-dashoffset: 0; stroke: #008000; stroke-width: 1.5"/>
    </g>
    <g id="text_23">
     <!-- DAC + wind + BAU ethylene -->
     <g transform="translate(289.6 164.1769)scale(0.16 -0.16)">
      <use xlink:href="#DejaVuSans-44"/>
      <use xlink:href="#DejaVuSans-41" x="75.251953"/>
      <use xlink:href="#DejaVuSans-43" x="141.910156"/>
      <use xlink:href="#DejaVuSans-20" x="211.734375"/>
      <use xlink:href="#DejaVuSans-2b" x="243.521484"/>
      <use xlink:href="#DejaVuSans-20" x="327.310547"/>
      <use xlink:href="#DejaVuSans-77" x="359.097656"/>
      <use xlink:href="#DejaVuSans-69" x="440.884766"/>
      <use xlink:href="#DejaVuSans-6e" x="468.667969"/>
      <use xlink:href="#DejaVuSans-64" x="532.046875"/>
      <use xlink:href="#DejaVuSans-20" x="595.523438"/>
      <use xlink:href="#DejaVuSans-2b" x="627.310547"/>
      <use xlink:href="#DejaVuSans-20" x="711.099609"/>
      <use xlink:href="#DejaVuSans-42" x="742.886719"/>
      <use xlink:href="#DejaVuSans-41" x="811.490234"/>
      <use xlink:href="#DejaVuSans-55" x="879.898438"/>
      <use xlink:href="#DejaVuSans-20" x="953.091797"/>
      <use xlink:href="#DejaVuSans-65" x="984.878906"/>
      <use xlink:href="#DejaVuSans-74" x="1046.402344"/>
      <use xlink:href="#DejaVuSans-68" x="1085.611328"/>
      <use xlink:href="#DejaVuSans-79" x="1148.990234"/>
      <use xlink:href="#DejaVuSans-6c" x="1208.169922"/>
      <use xlink:href="#DejaVuSans-65" x="1235.953125"/>
      <use xlink:href="#DejaVuSans-6e" x="1297.476562"/>
      <use xlink:href="#DejaVuSans-65" x="1360.855469"/>
     </g>
    </g>
    <g id="line2d_18">
     <path d="M 549.18 135.0919 
L 565.18 135.0919 
L 581.18 135.0919 
" style="fill: none; stroke-dasharray: 5.55,2.4; stroke-dashoffset: 0; stroke: #ffa500; stroke-width: 1.5"/>
    </g>
    <g id="text_24">
     <!-- DAC + solar + BAU ethylene -->
     <g transform="translate(593.98 140.6919)scale(0.16 -0.16)">
      <use xlink:href="#DejaVuSans-44"/>
      <use xlink:href="#DejaVuSans-41" x="75.251953"/>
      <use xlink:href="#DejaVuSans-43" x="141.910156"/>
      <use xlink:href="#DejaVuSans-20" x="211.734375"/>
      <use xlink:href="#DejaVuSans-2b" x="243.521484"/>
      <use xlink:href="#DejaVuSans-20" x="327.310547"/>
      <use xlink:href="#DejaVuSans-73" x="359.097656"/>
      <use xlink:href="#DejaVuSans-6f" x="411.197266"/>
      <use xlink:href="#DejaVuSans-6c" x="472.378906"/>
      <use xlink:href="#DejaVuSans-61" x="500.162109"/>
      <use xlink:href="#DejaVuSans-72" x="561.441406"/>
      <use xlink:href="#DejaVuSans-20" x="602.554688"/>
      <use xlink:href="#DejaVuSans-2b" x="634.341797"/>
      <use xlink:href="#DejaVuSans-20" x="718.130859"/>
      <use xlink:href="#DejaVuSans-42" x="749.917969"/>
      <use xlink:href="#DejaVuSans-41" x="818.521484"/>
      <use xlink:href="#DejaVuSans-55" x="886.929688"/>
      <use xlink:href="#DejaVuSans-20" x="960.123047"/>
      <use xlink:href="#DejaVuSans-65" x="991.910156"/>
      <use xlink:href="#DejaVuSans-74" x="1053.433594"/>
      <use xlink:href="#DejaVuSans-68" x="1092.642578"/>
      <use xlink:href="#DejaVuSans-79" x="1156.021484"/>
      <use xlink:href="#DejaVuSans-6c" x="1215.201172"/>
      <use xlink:href="#DejaVuSans-65" x="1242.984375"/>
      <use xlink:href="#DejaVuSans-6e" x="1304.507812"/>
      <use xlink:href="#DejaVuSans-65" x="1367.886719"/>
     </g>
    </g>
    <g id="line2d_19">
     <path d="M 549.18 158.5769 
L 565.18 158.5769 
L 581.18 158.5769 
" style="fill: none; stroke-dasharray: 5.55,2.4; stroke-dashoffset: 0; stroke: #ff0000; stroke-width: 1.5"/>
    </g>
    <g id="text_25">
     <!-- DAC + nuclear + BAU ethylene -->
     <g transform="translate(593.98 164.1769)scale(0.16 -0.16)">
      <use xlink:href="#DejaVuSans-44"/>
      <use xlink:href="#DejaVuSans-41" x="75.251953"/>
      <use xlink:href="#DejaVuSans-43" x="141.910156"/>
      <use xlink:href="#DejaVuSans-20" x="211.734375"/>
      <use xlink:href="#DejaVuSans-2b" x="243.521484"/>
      <use xlink:href="#DejaVuSans-20" x="327.310547"/>
      <use xlink:href="#DejaVuSans-6e" x="359.097656"/>
      <use xlink:href="#DejaVuSans-75" x="422.476562"/>
      <use xlink:href="#DejaVuSans-63" x="485.855469"/>
      <use xlink:href="#DejaVuSans-6c" x="540.835938"/>
      <use xlink:href="#DejaVuSans-65" x="568.619141"/>
      <use xlink:href="#DejaVuSans-61" x="630.142578"/>
      <use xlink:href="#DejaVuSans-72" x="691.421875"/>
      <use xlink:href="#DejaVuSans-20" x="732.535156"/>
      <use xlink:href="#DejaVuSans-2b" x="764.322266"/>
      <use xlink:href="#DejaVuSans-20" x="848.111328"/>
      <use xlink:href="#DejaVuSans-42" x="879.898438"/>
      <use xlink:href="#DejaVuSans-41" x="948.501953"/>
      <use xlink:href="#DejaVuSans-55" x="1016.910156"/>
      <use xlink:href="#DejaVuSans-20" x="1090.103516"/>
      <use xlink:href="#DejaVuSans-65" x="1121.890625"/>
      <use xlink:href="#DejaVuSans-74" x="1183.414062"/>
      <use xlink:href="#DejaVuSans-68" x="1222.623047"/>
      <use xlink:href="#DejaVuSans-79" x="1286.001953"/>
      <use xlink:href="#DejaVuSans-6c" x="1345.181641"/>
      <use xlink:href="#DejaVuSans-65" x="1372.964844"/>
      <use xlink:href="#DejaVuSans-6e" x="1434.488281"/>
      <use xlink:href="#DejaVuSans-65" x="1497.867188"/>
     </g>
    </g>
   </g>
  </g>
  <g id="axes_2">
   <g id="patch_8">
    <path d="M 1009.570909 846.4968 
L 1658.88 846.4968 
L 1658.88 114.1344 
L 1009.570909 114.1344 
z
" style="fill: #ffffff"/>
   </g>
   <g id="matplotlib.axis_3">
    <g id="xtick_7">
     <g id="line2d_20">
      <g>
       <use xlink:href="#mc3c922cbfc" x="1009.570909" y="846.4968" style="stroke: #000000; stroke-width: 0.8"/>
      </g>
     </g>
     <g id="text_26">
      <!-- 0 -->
      <g transform="translate(1004.480909 865.6543)scale(0.16 -0.16)">
       <use xlink:href="#DejaVuSans-30"/>
      </g>
     </g>
    </g>
    <g id="xtick_8">
     <g id="line2d_21">
      <g>
       <use xlink:href="#mc3c922cbfc" x="1139.432727" y="846.4968" style="stroke: #000000; stroke-width: 0.8"/>
      </g>
     </g>
     <g id="text_27">
      <!-- 1000 -->
      <g transform="translate(1119.072727 865.6543)scale(0.16 -0.16)">
       <use xlink:href="#DejaVuSans-31"/>
       <use xlink:href="#DejaVuSans-30" x="63.623047"/>
       <use xlink:href="#DejaVuSans-30" x="127.246094"/>
       <use xlink:href="#DejaVuSans-30" x="190.869141"/>
      </g>
     </g>
    </g>
    <g id="xtick_9">
     <g id="line2d_22">
      <g>
       <use xlink:href="#mc3c922cbfc" x="1269.294545" y="846.4968" style="stroke: #000000; stroke-width: 0.8"/>
      </g>
     </g>
     <g id="text_28">
      <!-- 2000 -->
      <g transform="translate(1248.934545 865.6543)scale(0.16 -0.16)">
       <use xlink:href="#DejaVuSans-32"/>
       <use xlink:href="#DejaVuSans-30" x="63.623047"/>
       <use xlink:href="#DejaVuSans-30" x="127.246094"/>
       <use xlink:href="#DejaVuSans-30" x="190.869141"/>
      </g>
     </g>
    </g>
    <g id="xtick_10">
     <g id="line2d_23">
      <g>
       <use xlink:href="#mc3c922cbfc" x="1399.156364" y="846.4968" style="stroke: #000000; stroke-width: 0.8"/>
      </g>
     </g>
     <g id="text_29">
      <!-- 3000 -->
      <g transform="translate(1378.796364 865.6543)scale(0.16 -0.16)">
       <use xlink:href="#DejaVuSans-33"/>
       <use xlink:href="#DejaVuSans-30" x="63.623047"/>
       <use xlink:href="#DejaVuSans-30" x="127.246094"/>
       <use xlink:href="#DejaVuSans-30" x="190.869141"/>
      </g>
     </g>
    </g>
    <g id="xtick_11">
     <g id="line2d_24">
      <g>
       <use xlink:href="#mc3c922cbfc" x="1529.018182" y="846.4968" style="stroke: #000000; stroke-width: 0.8"/>
      </g>
     </g>
     <g id="text_30">
      <!-- 4000 -->
      <g transform="translate(1508.658182 865.6543)scale(0.16 -0.16)">
       <use xlink:href="#DejaVuSans-34"/>
       <use xlink:href="#DejaVuSans-30" x="63.623047"/>
       <use xlink:href="#DejaVuSans-30" x="127.246094"/>
       <use xlink:href="#DejaVuSans-30" x="190.869141"/>
      </g>
     </g>
    </g>
    <g id="xtick_12">
     <g id="line2d_25">
      <g>
       <use xlink:href="#mc3c922cbfc" x="1658.88" y="846.4968" style="stroke: #000000; stroke-width: 0.8"/>
      </g>
     </g>
     <g id="text_31">
      <!-- 5000 -->
      <g transform="translate(1638.52 865.6543)scale(0.16 -0.16)">
       <use xlink:href="#DejaVuSans-35"/>
       <use xlink:href="#DejaVuSans-30" x="63.623047"/>
       <use xlink:href="#DejaVuSans-30" x="127.246094"/>
       <use xlink:href="#DejaVuSans-30" x="190.869141"/>
      </g>
     </g>
    </g>
    <g id="text_32">
     <!-- Natural gas price [\$ t$^\mathrm{-1}$] -->
     <g transform="translate(1237.425455 887.3818)scale(0.16 -0.16)">
      <use xlink:href="#DejaVuSans-4e" transform="translate(0 0.684375)"/>
      <use xlink:href="#DejaVuSans-61" transform="translate(74.804688 0.684375)"/>
      <use xlink:href="#DejaVuSans-74" transform="translate(136.083984 0.684375)"/>
      <use xlink:href="#DejaVuSans-75" transform="translate(175.292969 0.684375)"/>
      <use xlink:href="#DejaVuSans-72" transform="translate(238.671875 0.684375)"/>
      <use xlink:href="#DejaVuSans-61" transform="translate(279.785156 0.684375)"/>
      <use xlink:href="#DejaVuSans-6c" transform="translate(341.064453 0.684375)"/>
      <use xlink:href="#DejaVuSans-20" transform="translate(368.847656 0.684375)"/>
      <use xlink:href="#DejaVuSans-67" transform="translate(400.634766 0.684375)"/>
      <use xlink:href="#DejaVuSans-61" transform="translate(464.111328 0.684375)"/>
      <use xlink:href="#DejaVuSans-73" transform="translate(525.390625 0.684375)"/>
      <use xlink:href="#DejaVuSans-20" transform="translate(577.490234 0.684375)"/>
      <use xlink:href="#DejaVuSans-70" transform="translate(609.277344 0.684375)"/>
      <use xlink:href="#DejaVuSans-72" transform="translate(672.753906 0.684375)"/>
      <use xlink:href="#DejaVuSans-69" transform="translate(713.867188 0.684375)"/>
      <use xlink:href="#DejaVuSans-63" transform="translate(741.650391 0.684375)"/>
      <use xlink:href="#DejaVuSans-65" transform="translate(796.630859 0.684375)"/>
      <use xlink:href="#DejaVuSans-20" transform="translate(858.154297 0.684375)"/>
      <use xlink:href="#DejaVuSans-5b" transform="translate(889.941406 0.684375)"/>
      <use xlink:href="#DejaVuSans-24" transform="translate(928.955078 0.684375)"/>
      <use xlink:href="#DejaVuSans-20" transform="translate(992.578125 0.684375)"/>
      <use xlink:href="#DejaVuSans-74" transform="translate(1024.365234 0.684375)"/>
      <use xlink:href="#DejaVuSans-2212" transform="translate(1064.53125 38.965625)scale(0.7)"/>
      <use xlink:href="#DejaVuSans-31" transform="translate(1123.183594 38.965625)scale(0.7)"/>
      <use xlink:href="#DejaVuSans-5d" transform="translate(1170.454102 0.684375)"/>
     </g>
    </g>
   </g>
   <g id="matplotlib.axis_4">
    <g id="ytick_6">
     <g id="line2d_26">
      <g>
       <use xlink:href="#m22194a13ad" x="1009.570909" y="776.012749" style="stroke: #000000; stroke-width: 0.8"/>
      </g>
     </g>
     <g id="text_33">
      <!-- 0 -->
      <g transform="translate(992.390909 782.091499)scale(0.16 -0.16)">
       <use xlink:href="#DejaVuSans-30"/>
      </g>
     </g>
    </g>
    <g id="ytick_7">
     <g id="line2d_27">
      <g>
       <use xlink:href="#m22194a13ad" x="1009.570909" y="694.238484" style="stroke: #000000; stroke-width: 0.8"/>
      </g>
     </g>
     <g id="text_34">
      <!-- 50 -->
      <g transform="translate(982.210909 700.317234)scale(0.16 -0.16)">
       <use xlink:href="#DejaVuSans-35"/>
       <use xlink:href="#DejaVuSans-30" x="63.623047"/>
      </g>
     </g>
    </g>
    <g id="ytick_8">
     <g id="line2d_28">
      <g>
       <use xlink:href="#m22194a13ad" x="1009.570909" y="612.46422" style="stroke: #000000; stroke-width: 0.8"/>
      </g>
     </g>
     <g id="text_35">
      <!-- 100 -->
      <g transform="translate(972.030909 618.54297)scale(0.16 -0.16)">
       <use xlink:href="#DejaVuSans-31"/>
       <use xlink:href="#DejaVuSans-30" x="63.623047"/>
       <use xlink:href="#DejaVuSans-30" x="127.246094"/>
      </g>
     </g>
    </g>
    <g id="ytick_9">
     <g id="line2d_29">
      <g>
       <use xlink:href="#m22194a13ad" x="1009.570909" y="530.689955" style="stroke: #000000; stroke-width: 0.8"/>
      </g>
     </g>
     <g id="text_36">
      <!-- 150 -->
      <g transform="translate(972.030909 536.768705)scale(0.16 -0.16)">
       <use xlink:href="#DejaVuSans-31"/>
       <use xlink:href="#DejaVuSans-35" x="63.623047"/>
       <use xlink:href="#DejaVuSans-30" x="127.246094"/>
      </g>
     </g>
    </g>
    <g id="ytick_10">
     <g id="line2d_30">
      <g>
       <use xlink:href="#m22194a13ad" x="1009.570909" y="448.915691" style="stroke: #000000; stroke-width: 0.8"/>
      </g>
     </g>
     <g id="text_37">
      <!-- 200 -->
      <g transform="translate(972.030909 454.994441)scale(0.16 -0.16)">
       <use xlink:href="#DejaVuSans-32"/>
       <use xlink:href="#DejaVuSans-30" x="63.623047"/>
       <use xlink:href="#DejaVuSans-30" x="127.246094"/>
      </g>
     </g>
    </g>
    <g id="ytick_11">
     <g id="line2d_31">
      <g>
       <use xlink:href="#m22194a13ad" x="1009.570909" y="367.141426" style="stroke: #000000; stroke-width: 0.8"/>
      </g>
     </g>
     <g id="text_38">
      <!-- 250 -->
      <g transform="translate(972.030909 373.220176)scale(0.16 -0.16)">
       <use xlink:href="#DejaVuSans-32"/>
       <use xlink:href="#DejaVuSans-35" x="63.623047"/>
       <use xlink:href="#DejaVuSans-30" x="127.246094"/>
      </g>
     </g>
    </g>
    <g id="ytick_12">
     <g id="line2d_32">
      <g>
       <use xlink:href="#m22194a13ad" x="1009.570909" y="285.367162" style="stroke: #000000; stroke-width: 0.8"/>
      </g>
     </g>
     <g id="text_39">
      <!-- 300 -->
      <g transform="translate(972.030909 291.445912)scale(0.16 -0.16)">
       <use xlink:href="#DejaVuSans-33"/>
       <use xlink:href="#DejaVuSans-30" x="63.623047"/>
       <use xlink:href="#DejaVuSans-30" x="127.246094"/>
      </g>
     </g>
    </g>
    <g id="ytick_13">
     <g id="line2d_33">
      <g>
       <use xlink:href="#m22194a13ad" x="1009.570909" y="203.592897" style="stroke: #000000; stroke-width: 0.8"/>
      </g>
     </g>
     <g id="text_40">
      <!-- 350 -->
      <g transform="translate(972.030909 209.671647)scale(0.16 -0.16)">
       <use xlink:href="#DejaVuSans-33"/>
       <use xlink:href="#DejaVuSans-35" x="63.623047"/>
       <use xlink:href="#DejaVuSans-30" x="127.246094"/>
      </g>
     </g>
    </g>
    <g id="ytick_14">
     <g id="line2d_34">
      <g>
       <use xlink:href="#m22194a13ad" x="1009.570909" y="121.818633" style="stroke: #000000; stroke-width: 0.8"/>
      </g>
     </g>
     <g id="text_41">
      <!-- 400 -->
      <g transform="translate(972.030909 127.897383)scale(0.16 -0.16)">
       <use xlink:href="#DejaVuSans-34"/>
       <use xlink:href="#DejaVuSans-30" x="63.623047"/>
       <use xlink:href="#DejaVuSans-30" x="127.246094"/>
      </g>
     </g>
    </g>
    <g id="text_42">
     <!-- CO$_\mathrm{2}$ avoidance costs [\$ t$_\mathrm{CO_\mathrm{2eq}}$$^\mathrm{-1}$] -->
     <g transform="translate(961.790909 607.3556)rotate(-90)scale(0.16 -0.16)">
      <defs>
       <path id="DejaVuSans-4f" d="M 2522 4238 
Q 1834 4238 1429 3725 
Q 1025 3213 1025 2328 
Q 1025 1447 1429 934 
Q 1834 422 2522 422 
Q 3209 422 3611 934 
Q 4013 1447 4013 2328 
Q 4013 3213 3611 3725 
Q 3209 4238 2522 4238 
z
M 2522 4750 
Q 3503 4750 4090 4092 
Q 4678 3434 4678 2328 
Q 4678 1225 4090 567 
Q 3503 -91 2522 -91 
Q 1538 -91 948 565 
Q 359 1222 359 2328 
Q 359 3434 948 4092 
Q 1538 4750 2522 4750 
z
" transform="scale(0.015625)"/>
       <path id="DejaVuSans-76" d="M 191 3500 
L 800 3500 
L 1894 563 
L 2988 3500 
L 3597 3500 
L 2284 0 
L 1503 0 
L 191 3500 
z
" transform="scale(0.015625)"/>
       <path id="DejaVuSans-71" d="M 947 1747 
Q 947 1113 1208 752 
Q 1469 391 1925 391 
Q 2381 391 2643 752 
Q 2906 1113 2906 1747 
Q 2906 2381 2643 2742 
Q 2381 3103 1925 3103 
Q 1469 3103 1208 2742 
Q 947 2381 947 1747 
z
M 2906 525 
Q 2725 213 2448 61 
Q 2172 -91 1784 -91 
Q 1150 -91 751 415 
Q 353 922 353 1747 
Q 353 2572 751 3078 
Q 1150 3584 1784 3584 
Q 2172 3584 2448 3432 
Q 2725 3281 2906 2969 
L 2906 3500 
L 3481 3500 
L 3481 -1331 
L 2906 -1331 
L 2906 525 
z
" transform="scale(0.015625)"/>
      </defs>
      <use xlink:href="#DejaVuSans-43" transform="translate(0 0.684375)"/>
      <use xlink:href="#DejaVuSans-4f" transform="translate(69.824219 0.684375)"/>
      <use xlink:href="#DejaVuSans-32" transform="translate(149.492188 -15.721875)scale(0.7)"/>
      <use xlink:href="#DejaVuSans-20" transform="translate(196.762695 0.684375)"/>
      <use xlink:href="#DejaVuSans-61" transform="translate(228.549805 0.684375)"/>
      <use xlink:href="#DejaVuSans-76" transform="translate(289.829102 0.684375)"/>
      <use xlink:href="#DejaVuSans-6f" transform="translate(349.008789 0.684375)"/>
      <use xlink:href="#DejaVuSans-69" transform="translate(410.19043 0.684375)"/>
      <use xlink:href="#DejaVuSans-64" transform="translate(437.973633 0.684375)"/>
      <use xlink:href="#DejaVuSans-61" transform="translate(501.450195 0.684375)"/>
      <use xlink:href="#DejaVuSans-6e" transform="translate(562.729492 0.684375)"/>
      <use xlink:href="#DejaVuSans-63" transform="translate(626.108398 0.684375)"/>
      <use xlink:href="#DejaVuSans-65" transform="translate(681.088867 0.684375)"/>
      <use xlink:href="#DejaVuSans-20" transform="translate(742.612305 0.684375)"/>
      <use xlink:href="#DejaVuSans-63" transform="translate(774.399414 0.684375)"/>
      <use xlink:href="#DejaVuSans-6f" transform="translate(829.379883 0.684375)"/>
      <use xlink:href="#DejaVuSans-73" transform="translate(890.561523 0.684375)"/>
      <use xlink:href="#DejaVuSans-74" transform="translate(942.661133 0.684375)"/>
      <use xlink:href="#DejaVuSans-73" transform="translate(981.870117 0.684375)"/>
      <use xlink:href="#DejaVuSans-20" transform="translate(1033.969727 0.684375)"/>
      <use xlink:href="#DejaVuSans-5b" transform="translate(1065.756836 0.684375)"/>
      <use xlink:href="#DejaVuSans-24" transform="translate(1104.770508 0.684375)"/>
      <use xlink:href="#DejaVuSans-20" transform="translate(1168.393555 0.684375)"/>
      <use xlink:href="#DejaVuSans-74" transform="translate(1200.180664 0.684375)"/>
      <use xlink:href="#DejaVuSans-43" transform="translate(1240.34668 -15.721875)scale(0.7)"/>
      <use xlink:href="#DejaVuSans-4f" transform="translate(1289.223633 -15.721875)scale(0.7)"/>
      <use xlink:href="#DejaVuSans-32" transform="translate(1344.991211 -27.20625)scale(0.49)"/>
      <use xlink:href="#DejaVuSans-65" transform="translate(1376.166504 -27.20625)scale(0.49)"/>
      <use xlink:href="#DejaVuSans-71" transform="translate(1406.312988 -27.20625)scale(0.49)"/>
      <use xlink:href="#DejaVuSans-2212" transform="translate(1443.021973 38.965625)scale(0.7)"/>
      <use xlink:href="#DejaVuSans-31" transform="translate(1501.674316 38.965625)scale(0.7)"/>
      <use xlink:href="#DejaVuSans-5d" transform="translate(1548.944824 0.684375)"/>
     </g>
    </g>
   </g>
   <g id="line2d_35">
    <path d="M 1009.570909 401.004554 
L 1016.064 404.811229 
L 1022.557091 408.617904 
L 1029.050182 412.424578 
L 1035.543273 416.231253 
L 1042.036364 420.037927 
L 1048.529455 423.844602 
L 1055.022545 427.651277 
L 1061.515636 431.457951 
L 1068.008727 435.264626 
L 1074.501818 439.0713 
L 1080.994909 442.877975 
L 1087.488 446.68465 
L 1093.981091 450.491324 
L 1100.474182 454.297999 
L 1106.967273 458.104673 
L 1113.460364 461.911348 
L 1119.953455 465.718023 
L 1126.446545 469.524697 
L 1132.939636 473.331372 
L 1139.432727 477.138046 
L 1145.925818 480.944721 
L 1152.418909 484.751396 
L 1158.912 488.55807 
L 1165.405091 492.364745 
L 1171.898182 496.171419 
L 1178.391273 499.978094 
L 1184.884364 503.784769 
L 1191.377455 507.591443 
L 1197.870545 511.398118 
L 1204.363636 515.204792 
L 1210.856727 519.011467 
L 1217.349818 522.818142 
L 1223.842909 526.624816 
L 1230.336 530.431491 
L 1236.829091 534.238165 
L 1243.322182 538.04484 
L 1249.815273 541.851514 
L 1256.308364 545.658189 
L 1262.801455 549.464864 
L 1269.294545 553.271538 
L 1275.787636 557.078213 
L 1282.280727 560.884887 
L 1288.773818 564.691562 
L 1295.266909 568.498237 
L 1301.76 572.304911 
L 1308.253091 576.111586 
L 1314.746182 579.91826 
L 1321.239273 583.724935 
L 1327.732364 587.53161 
L 1334.225455 591.338284 
L 1340.718545 595.144959 
L 1347.211636 598.951633 
L 1353.704727 602.758308 
L 1360.197818 606.564983 
L 1366.690909 610.371657 
L 1373.184 614.178332 
L 1379.677091 617.985006 
L 1386.170182 621.791681 
L 1392.663273 625.598356 
L 1399.156364 629.40503 
L 1405.649455 633.211705 
L 1412.142545 637.018379 
L 1418.635636 640.825054 
L 1425.128727 644.631729 
L 1431.621818 648.438403 
L 1438.114909 652.245078 
L 1444.608 656.051752 
L 1451.101091 659.858427 
L 1457.594182 663.665102 
L 1464.087273 667.471776 
L 1470.580364 671.278451 
L 1477.073455 675.085125 
L 1483.566545 678.8918 
L 1490.059636 682.698475 
L 1496.552727 686.505149 
L 1503.045818 690.311824 
L 1509.538909 694.118498 
L 1516.032 697.925173 
L 1522.525091 701.731848 
L 1529.018182 705.538522 
L 1535.511273 709.345197 
L 1542.004364 713.151871 
L 1548.497455 716.958546 
L 1554.990545 720.765221 
L 1561.483636 724.571895 
L 1567.976727 728.37857 
L 1574.469818 732.185244 
L 1580.962909 735.991919 
L 1587.456 739.798594 
L 1593.949091 743.605268 
L 1600.442182 747.411943 
L 1606.935273 751.218617 
L 1613.428364 755.025292 
L 1619.921455 758.831966 
L 1626.414545 762.638641 
L 1632.907636 766.445316 
L 1639.400727 770.25199 
L 1645.893818 774.058665 
L 1652.386909 777.865339 
L 1658.88 781.672014 
" clip-path="url(#p20d9acd9ef)" style="fill: none; stroke-dasharray: 5.55,2.4; stroke-dashoffset: 0; stroke: #008000; stroke-width: 1.5"/>
   </g>
   <g id="line2d_36">
    <path d="M 1009.570909 438.679938 
L 1016.064 442.425215 
L 1022.557091 446.170491 
L 1029.050182 449.915768 
L 1035.543273 453.661045 
L 1042.036364 457.406321 
L 1048.529455 461.151598 
L 1055.022545 464.896874 
L 1061.515636 468.642151 
L 1068.008727 472.387428 
L 1074.501818 476.132704 
L 1080.994909 479.877981 
L 1087.488 483.623258 
L 1093.981091 487.368534 
L 1100.474182 491.113811 
L 1106.967273 494.859087 
L 1113.460364 498.604364 
L 1119.953455 502.349641 
L 1126.446545 506.094917 
L 1132.939636 509.840194 
L 1139.432727 513.58547 
L 1145.925818 517.330747 
L 1152.418909 521.076024 
L 1158.912 524.8213 
L 1165.405091 528.566577 
L 1171.898182 532.311854 
L 1178.391273 536.05713 
L 1184.884364 539.802407 
L 1191.377455 543.547683 
L 1197.870545 547.29296 
L 1204.363636 551.038237 
L 1210.856727 554.783513 
L 1217.349818 558.52879 
L 1223.842909 562.274067 
L 1230.336 566.019343 
L 1236.829091 569.76462 
L 1243.322182 573.509896 
L 1249.815273 577.255173 
L 1256.308364 581.00045 
L 1262.801455 584.745726 
L 1269.294545 588.491003 
L 1275.787636 592.236279 
L 1282.280727 595.981556 
L 1288.773818 599.726833 
L 1295.266909 603.472109 
L 1301.76 607.217386 
L 1308.253091 610.962663 
L 1314.746182 614.707939 
L 1321.239273 618.453216 
L 1327.732364 622.198492 
L 1334.225455 625.943769 
L 1340.718545 629.689046 
L 1347.211636 633.434322 
L 1353.704727 637.179599 
L 1360.197818 640.924876 
L 1366.690909 644.670152 
L 1373.184 648.415429 
L 1379.677091 652.160705 
L 1386.170182 655.905982 
L 1392.663273 659.651259 
L 1399.156364 663.396535 
L 1405.649455 667.141812 
L 1412.142545 670.887088 
L 1418.635636 674.632365 
L 1425.128727 678.377642 
L 1431.621818 682.122918 
L 1438.114909 685.868195 
L 1444.608 689.613472 
L 1451.101091 693.358748 
L 1457.594182 697.104025 
L 1464.087273 700.849301 
L 1470.580364 704.594578 
L 1477.073455 708.339855 
L 1483.566545 712.085131 
L 1490.059636 715.830408 
L 1496.552727 719.575685 
L 1503.045818 723.320961 
L 1509.538909 727.066238 
L 1516.032 730.811514 
L 1522.525091 734.556791 
L 1529.018182 738.302068 
L 1535.511273 742.047344 
L 1542.004364 745.792621 
L 1548.497455 749.537897 
L 1554.990545 753.283174 
L 1561.483636 757.028451 
L 1567.976727 760.773727 
L 1574.469818 764.519004 
L 1580.962909 768.264281 
L 1587.456 772.009557 
L 1593.949091 775.754834 
L 1600.442182 779.50011 
L 1606.935273 783.245387 
L 1613.428364 786.990664 
L 1619.921455 790.73594 
L 1626.414545 794.481217 
L 1632.907636 798.226494 
L 1639.400727 801.97177 
L 1645.893818 805.717047 
L 1652.386909 809.462323 
L 1658.88 813.2076 
" clip-path="url(#p20d9acd9ef)" style="fill: none; stroke-dasharray: 5.55,2.4; stroke-dashoffset: 0; stroke: #ff0000; stroke-width: 1.5"/>
   </g>
   <g id="line2d_37">
    <path d="M 1009.570909 147.4236 
L 1016.064 151.648988 
L 1022.557091 155.874376 
L 1029.050182 160.099764 
L 1035.543273 164.325153 
L 1042.036364 168.550541 
L 1048.529455 172.775929 
L 1055.022545 177.001317 
L 1061.515636 181.226705 
L 1068.008727 185.452093 
L 1074.501818 189.677481 
L 1080.994909 193.902869 
L 1087.488 198.128258 
L 1093.981091 202.353646 
L 1100.474182 206.579034 
L 1106.967273 210.804422 
L 1113.460364 215.02981 
L 1119.953455 219.255198 
L 1126.446545 223.480586 
L 1132.939636 227.705974 
L 1139.432727 231.931363 
L 1145.925818 236.156751 
L 1152.418909 240.382139 
L 1158.912 244.607527 
L 1165.405091 248.832915 
L 1171.898182 253.058303 
L 1178.391273 257.283691 
L 1184.884364 261.509079 
L 1191.377455 265.734468 
L 1197.870545 269.959856 
L 1204.363636 274.185244 
L 1210.856727 278.410632 
L 1217.349818 282.63602 
L 1223.842909 286.861408 
L 1230.336 291.086796 
L 1236.829091 295.312184 
L 1243.322182 299.537573 
L 1249.815273 303.762961 
L 1256.308364 307.988349 
L 1262.801455 312.213737 
L 1269.294545 316.439125 
L 1275.787636 320.664513 
L 1282.280727 324.889901 
L 1288.773818 329.115289 
L 1295.266909 333.340678 
L 1301.76 337.566066 
L 1308.253091 341.791454 
L 1314.746182 346.016842 
L 1321.239273 350.24223 
L 1327.732364 354.467618 
L 1334.225455 358.693006 
L 1340.718545 362.918394 
L 1347.211636 367.143783 
L 1353.704727 371.369171 
L 1360.197818 375.594559 
L 1366.690909 379.819947 
L 1373.184 384.045335 
L 1379.677091 388.270723 
L 1386.170182 392.496111 
L 1392.663273 396.721499 
L 1399.156364 400.946888 
L 1405.649455 405.172276 
L 1412.142545 409.397664 
L 1418.635636 413.623052 
L 1425.128727 417.84844 
L 1431.621818 422.073828 
L 1438.114909 426.299216 
L 1444.608 430.524604 
L 1451.101091 434.749993 
L 1457.594182 438.975381 
L 1464.087273 443.200769 
L 1470.580364 447.426157 
L 1477.073455 451.651545 
L 1483.566545 455.876933 
L 1490.059636 460.102321 
L 1496.552727 464.327709 
L 1503.045818 468.553098 
L 1509.538909 472.778486 
L 1516.032 477.003874 
L 1522.525091 481.229262 
L 1529.018182 485.45465 
L 1535.511273 489.680038 
L 1542.004364 493.905426 
L 1548.497455 498.130814 
L 1554.990545 502.356203 
L 1561.483636 506.581591 
L 1567.976727 510.806979 
L 1574.469818 515.032367 
L 1580.962909 519.257755 
L 1587.456 523.483143 
L 1593.949091 527.708531 
L 1600.442182 531.933919 
L 1606.935273 536.159308 
L 1613.428364 540.384696 
L 1619.921455 544.610084 
L 1626.414545 548.835472 
L 1632.907636 553.06086 
L 1639.400727 557.286248 
L 1645.893818 561.511636 
L 1652.386909 565.737024 
L 1658.88 569.962413 
" clip-path="url(#p20d9acd9ef)" style="fill: none; stroke-dasharray: 5.55,2.4; stroke-dashoffset: 0; stroke: #ffa500; stroke-width: 1.5"/>
   </g>
   <g id="LineCollection_4">
    <path d="M 1009.570909 776.012749 
L 1658.88 776.012749 
" clip-path="url(#p20d9acd9ef)" style="fill: none; stroke-dasharray: 5.55,2.4; stroke-dashoffset: 0; stroke: #000000; stroke-width: 1.5"/>
   </g>
   <g id="patch_9">
    <path d="M 1009.570909 846.4968 
L 1009.570909 114.1344 
" style="fill: none; stroke: #000000; stroke-width: 0.8; stroke-linejoin: miter; stroke-linecap: square"/>
   </g>
   <g id="patch_10">
    <path d="M 1658.88 846.4968 
L 1658.88 114.1344 
" style="fill: none; stroke: #000000; stroke-width: 0.8; stroke-linejoin: miter; stroke-linecap: square"/>
   </g>
   <g id="patch_11">
    <path d="M 1009.570909 846.4968 
L 1658.88 846.4968 
" style="fill: none; stroke: #000000; stroke-width: 0.8; stroke-linejoin: miter; stroke-linecap: square"/>
   </g>
   <g id="patch_12">
    <path d="M 1009.570909 114.1344 
L 1658.88 114.1344 
" style="fill: none; stroke: #000000; stroke-width: 0.8; stroke-linejoin: miter; stroke-linecap: square"/>
   </g>
  </g>
 </g>
 <defs>
  <clipPath id="pb90ef67830">
   <rect x="230.4" y="114.1344" width="649.309091" height="732.3624"/>
  </clipPath>
  <clipPath id="p20d9acd9ef">
   <rect x="1009.570909" y="114.1344" width="649.309091" height="732.3624"/>
  </clipPath>
 </defs>
</svg>
