<?xml version="1.0" encoding="utf-8" standalone="no"?>
<!DOCTYPE svg PUBLIC "-//W3C//DTD SVG 1.1//EN"
  "http://www.w3.org/Graphics/SVG/1.1/DTD/svg11.dtd">
<svg xmlns:xlink="http://www.w3.org/1999/xlink" width="506.894761pt" height="256.805884pt" viewBox="0 0 506.894761 256.805884" xmlns="http://www.w3.org/2000/svg" version="1.1">
 <metadata>
  <rdf:RDF xmlns:dc="http://purl.org/dc/elements/1.1/" xmlns:cc="http://creativecommons.org/ns#" xmlns:rdf="http://www.w3.org/1999/02/22-rdf-syntax-ns#">
   <cc:Work>
    <dc:type rdf:resource="http://purl.org/dc/dcmitype/StillImage"/>
    <dc:date>2023-05-25T15:02:04.430487</dc:date>
    <dc:format>image/svg+xml</dc:format>
    <dc:creator>
     <cc:Agent>
      <dc:title>Matplotlib v3.5.1, https://matplotlib.org/</dc:title>
     </cc:Agent>
    </dc:creator>
   </cc:Work>
  </rdf:RDF>
 </metadata>
 <defs>
  <style type="text/css">*{stroke-linejoin: round; stroke-linecap: butt}</style>
 </defs>
 <g id="figure_1">
  <g id="patch_1">
   <path d="M 0 256.805884 
L 506.894761 256.805884 
L 506.894761 0 
L 0 0 
z
" style="fill: #ffffff"/>
  </g>
  <g id="axes_1">
   <g id="patch_2">
    <path d="M 87.872542 47.919688 
C 79.468052 52.772023 72.007843 59.101538 65.851266 66.603349 
C 59.694689 74.10516 54.942208 82.65685 51.822744 91.846494 
C 48.70328 101.036138 47.267738 110.713777 47.585266 120.413251 
C 47.902794 130.112724 49.96821 139.675754 53.682027 148.641699 
C 57.395843 157.607645 62.697456 165.830198 69.331493 172.913288 
C 75.965531 179.996377 83.823736 185.82442 92.52759 190.116686 
C 101.231444 194.408951 110.638913 197.095397 120.296852 198.046621 
C 129.954791 198.997845 139.705599 198.198325 149.079589 195.686571 
C 158.45358 193.174818 167.297788 188.991819 175.186196 183.339066 
C 183.074605 177.686312 189.878489 170.656047 195.270115 162.586909 
C 200.66174 154.517771 204.553125 145.541435 206.756825 136.090281 
C 208.960525 126.639127 209.44058 116.86738 208.173867 107.245736 
C 206.907153 97.624091 203.914341 88.309556 199.339592 79.750802 
C 194.764842 71.192047 188.682807 63.528737 181.38645 57.130004 
C 174.090093 50.731271 165.698479 45.701531 156.615821 42.28306 
C 147.533163 38.86459 137.907675 37.113173 128.203006 37.113173 
L 128.203006 117.774099 
C 128.203006 117.774099 128.203006 117.774099 128.203006 117.774099 
C 128.203006 117.774099 128.203006 117.774099 128.203006 117.774099 
C 128.203006 117.774099 128.203006 117.774099 128.203006 117.774099 
C 128.203006 117.774099 128.203006 117.774099 128.203006 117.774099 
C 128.203006 117.774099 128.203006 117.774099 128.203006 117.774099 
C 128.203006 117.774099 128.203006 117.774099 128.203006 117.774099 
C 128.203006 117.774099 128.203006 117.774099 128.203006 117.774099 
C 128.203006 117.774099 128.203006 117.774099 128.203006 117.774099 
C 128.203006 117.774099 128.203006 117.774099 128.203006 117.774099 
C 128.203006 117.774099 128.203006 117.774099 128.203006 117.774099 
C 128.203006 117.774099 128.203006 117.774099 128.203006 117.774099 
C 128.203006 117.774099 128.203006 117.774099 128.203006 117.774099 
C 128.203006 117.774099 128.203006 117.774099 128.203006 117.774099 
C 128.203006 117.774099 128.203006 117.774099 128.203006 117.774099 
C 128.203006 117.774099 128.203006 117.774099 128.203006 117.774099 
C 128.203006 117.774099 128.203006 117.774099 128.203006 117.774099 
L 87.872542 47.919688 
z
" style="fill: #ffffff; opacity: 0.05"/>
   </g>
   <g id="matplotlib.axis_1">
    <g id="xtick_1">
     <g id="line2d_1">
      <path d="M 128.203006 117.774099 
L 128.203006 37.113173 
" clip-path="url(#p8110b51fb7)" style="fill: none; stroke: #b0b0b0; stroke-width: 0.8; stroke-linecap: square"/>
     </g>
     <g id="text_1">
      <!-- Jul '20 -->
      <g style="fill: #808080" transform="translate(113.906912 32.957813)scale(0.1 -0.1)">
       <defs>
        <path id="ArialMT-4a" d="M 184 1300 
L 731 1375 
Q 753 850 928 656 
Q 1103 463 1413 463 
Q 1641 463 1806 567 
Q 1972 672 2034 851 
Q 2097 1031 2097 1425 
L 2097 4581 
L 2703 4581 
L 2703 1459 
Q 2703 884 2564 568 
Q 2425 253 2123 87 
Q 1822 -78 1416 -78 
Q 813 -78 492 269 
Q 172 616 184 1300 
z
" transform="scale(0.015625)"/>
        <path id="ArialMT-75" d="M 2597 0 
L 2597 488 
Q 2209 -75 1544 -75 
Q 1250 -75 995 37 
Q 741 150 617 320 
Q 494 491 444 738 
Q 409 903 409 1263 
L 409 3319 
L 972 3319 
L 972 1478 
Q 972 1038 1006 884 
Q 1059 663 1231 536 
Q 1403 409 1656 409 
Q 1909 409 2131 539 
Q 2353 669 2445 892 
Q 2538 1116 2538 1541 
L 2538 3319 
L 3100 3319 
L 3100 0 
L 2597 0 
z
" transform="scale(0.015625)"/>
        <path id="ArialMT-6c" d="M 409 0 
L 409 4581 
L 972 4581 
L 972 0 
L 409 0 
z
" transform="scale(0.015625)"/>
        <path id="ArialMT-20" transform="scale(0.015625)"/>
        <path id="ArialMT-27" d="M 425 2959 
L 281 3816 
L 281 4581 
L 922 4581 
L 922 3816 
L 772 2959 
L 425 2959 
z
" transform="scale(0.015625)"/>
        <path id="ArialMT-32" d="M 3222 541 
L 3222 0 
L 194 0 
Q 188 203 259 391 
Q 375 700 629 1000 
Q 884 1300 1366 1694 
Q 2113 2306 2375 2664 
Q 2638 3022 2638 3341 
Q 2638 3675 2398 3904 
Q 2159 4134 1775 4134 
Q 1369 4134 1125 3890 
Q 881 3647 878 3216 
L 300 3275 
Q 359 3922 746 4261 
Q 1134 4600 1788 4600 
Q 2447 4600 2831 4234 
Q 3216 3869 3216 3328 
Q 3216 3053 3103 2787 
Q 2991 2522 2730 2228 
Q 2469 1934 1863 1422 
Q 1356 997 1212 845 
Q 1069 694 975 541 
L 3222 541 
z
" transform="scale(0.015625)"/>
        <path id="ArialMT-30" d="M 266 2259 
Q 266 3072 433 3567 
Q 600 4063 929 4331 
Q 1259 4600 1759 4600 
Q 2128 4600 2406 4451 
Q 2684 4303 2865 4023 
Q 3047 3744 3150 3342 
Q 3253 2941 3253 2259 
Q 3253 1453 3087 958 
Q 2922 463 2592 192 
Q 2263 -78 1759 -78 
Q 1097 -78 719 397 
Q 266 969 266 2259 
z
M 844 2259 
Q 844 1131 1108 757 
Q 1372 384 1759 384 
Q 2147 384 2411 759 
Q 2675 1134 2675 2259 
Q 2675 3391 2411 3762 
Q 2147 4134 1753 4134 
Q 1366 4134 1134 3806 
Q 844 3388 844 2259 
z
" transform="scale(0.015625)"/>
       </defs>
       <use xlink:href="#ArialMT-4a"/>
       <use xlink:href="#ArialMT-75" x="50"/>
       <use xlink:href="#ArialMT-6c" x="105.615234"/>
       <use xlink:href="#ArialMT-20" x="127.832031"/>
       <use xlink:href="#ArialMT-27" x="155.615234"/>
       <use xlink:href="#ArialMT-32" x="174.707031"/>
       <use xlink:href="#ArialMT-30" x="230.322266"/>
      </g>
     </g>
    </g>
    <g id="xtick_2">
     <g id="line2d_2">
      <path d="M 128.203006 117.774099 
L 168.533469 47.919688 
" clip-path="url(#p8110b51fb7)" style="fill: none; stroke: #b0b0b0; stroke-width: 0.8; stroke-linecap: square"/>
     </g>
     <g id="text_2">
      <!-- Oct '20 -->
      <g style="fill: #808080" transform="translate(171.903727 44.667386)scale(0.1 -0.1)">
       <defs>
        <path id="ArialMT-4f" d="M 309 2231 
Q 309 3372 921 4017 
Q 1534 4663 2503 4663 
Q 3138 4663 3647 4359 
Q 4156 4056 4423 3514 
Q 4691 2972 4691 2284 
Q 4691 1588 4409 1038 
Q 4128 488 3612 205 
Q 3097 -78 2500 -78 
Q 1853 -78 1343 234 
Q 834 547 571 1087 
Q 309 1628 309 2231 
z
M 934 2222 
Q 934 1394 1379 917 
Q 1825 441 2497 441 
Q 3181 441 3623 922 
Q 4066 1403 4066 2288 
Q 4066 2847 3877 3264 
Q 3688 3681 3323 3911 
Q 2959 4141 2506 4141 
Q 1863 4141 1398 3698 
Q 934 3256 934 2222 
z
" transform="scale(0.015625)"/>
        <path id="ArialMT-63" d="M 2588 1216 
L 3141 1144 
Q 3050 572 2676 248 
Q 2303 -75 1759 -75 
Q 1078 -75 664 370 
Q 250 816 250 1647 
Q 250 2184 428 2587 
Q 606 2991 970 3192 
Q 1334 3394 1763 3394 
Q 2303 3394 2647 3120 
Q 2991 2847 3088 2344 
L 2541 2259 
Q 2463 2594 2264 2762 
Q 2066 2931 1784 2931 
Q 1359 2931 1093 2626 
Q 828 2322 828 1663 
Q 828 994 1084 691 
Q 1341 388 1753 388 
Q 2084 388 2306 591 
Q 2528 794 2588 1216 
z
" transform="scale(0.015625)"/>
        <path id="ArialMT-74" d="M 1650 503 
L 1731 6 
Q 1494 -44 1306 -44 
Q 1000 -44 831 53 
Q 663 150 594 308 
Q 525 466 525 972 
L 525 2881 
L 113 2881 
L 113 3319 
L 525 3319 
L 525 4141 
L 1084 4478 
L 1084 3319 
L 1650 3319 
L 1650 2881 
L 1084 2881 
L 1084 941 
Q 1084 700 1114 631 
Q 1144 563 1211 522 
Q 1278 481 1403 481 
Q 1497 481 1650 503 
z
" transform="scale(0.015625)"/>
       </defs>
       <use xlink:href="#ArialMT-4f"/>
       <use xlink:href="#ArialMT-63" x="77.783203"/>
       <use xlink:href="#ArialMT-74" x="127.783203"/>
       <use xlink:href="#ArialMT-20" x="155.566406"/>
       <use xlink:href="#ArialMT-27" x="183.349609"/>
       <use xlink:href="#ArialMT-32" x="202.441406"/>
       <use xlink:href="#ArialMT-30" x="258.056641"/>
      </g>
     </g>
    </g>
    <g id="xtick_3">
     <g id="line2d_3">
      <path d="M 128.203006 117.774099 
L 198.057417 77.443636 
" clip-path="url(#p8110b51fb7)" style="fill: none; stroke: #b0b0b0; stroke-width: 0.8; stroke-linecap: square"/>
     </g>
     <g id="text_3">
      <!-- Jan '21 -->
      <g style="fill: #808080" transform="translate(203.894876 76.658534)scale(0.1 -0.1)">
       <defs>
        <path id="ArialMT-61" d="M 2588 409 
Q 2275 144 1986 34 
Q 1697 -75 1366 -75 
Q 819 -75 525 192 
Q 231 459 231 875 
Q 231 1119 342 1320 
Q 453 1522 633 1644 
Q 813 1766 1038 1828 
Q 1203 1872 1538 1913 
Q 2219 1994 2541 2106 
Q 2544 2222 2544 2253 
Q 2544 2597 2384 2738 
Q 2169 2928 1744 2928 
Q 1347 2928 1158 2789 
Q 969 2650 878 2297 
L 328 2372 
Q 403 2725 575 2942 
Q 747 3159 1072 3276 
Q 1397 3394 1825 3394 
Q 2250 3394 2515 3294 
Q 2781 3194 2906 3042 
Q 3031 2891 3081 2659 
Q 3109 2516 3109 2141 
L 3109 1391 
Q 3109 606 3145 398 
Q 3181 191 3288 0 
L 2700 0 
Q 2613 175 2588 409 
z
M 2541 1666 
Q 2234 1541 1622 1453 
Q 1275 1403 1131 1340 
Q 988 1278 909 1158 
Q 831 1038 831 891 
Q 831 666 1001 516 
Q 1172 366 1500 366 
Q 1825 366 2078 508 
Q 2331 650 2450 897 
Q 2541 1088 2541 1459 
L 2541 1666 
z
" transform="scale(0.015625)"/>
        <path id="ArialMT-6e" d="M 422 0 
L 422 3319 
L 928 3319 
L 928 2847 
Q 1294 3394 1984 3394 
Q 2284 3394 2536 3286 
Q 2788 3178 2913 3003 
Q 3038 2828 3088 2588 
Q 3119 2431 3119 2041 
L 3119 0 
L 2556 0 
L 2556 2019 
Q 2556 2363 2490 2533 
Q 2425 2703 2258 2804 
Q 2091 2906 1866 2906 
Q 1506 2906 1245 2678 
Q 984 2450 984 1813 
L 984 0 
L 422 0 
z
" transform="scale(0.015625)"/>
        <path id="ArialMT-31" d="M 2384 0 
L 1822 0 
L 1822 3584 
Q 1619 3391 1289 3197 
Q 959 3003 697 2906 
L 697 3450 
Q 1169 3672 1522 3987 
Q 1875 4303 2022 4600 
L 2384 4600 
L 2384 0 
z
" transform="scale(0.015625)"/>
       </defs>
       <use xlink:href="#ArialMT-4a"/>
       <use xlink:href="#ArialMT-61" x="50"/>
       <use xlink:href="#ArialMT-6e" x="105.615234"/>
       <use xlink:href="#ArialMT-20" x="161.230469"/>
       <use xlink:href="#ArialMT-27" x="189.013672"/>
       <use xlink:href="#ArialMT-32" x="208.105469"/>
       <use xlink:href="#ArialMT-31" x="263.720703"/>
      </g>
     </g>
    </g>
    <g id="xtick_4">
     <g id="line2d_4">
      <path d="M 128.203006 117.774099 
L 208.863932 117.774099 
" clip-path="url(#p8110b51fb7)" style="fill: none; stroke: #b0b0b0; stroke-width: 0.8; stroke-linecap: square"/>
     </g>
     <g id="text_4">
      <!-- Apr '21 -->
      <g style="fill: #808080" transform="translate(215.604449 120.374099)scale(0.1 -0.1)">
       <defs>
        <path id="ArialMT-41" d="M -9 0 
L 1750 4581 
L 2403 4581 
L 4278 0 
L 3588 0 
L 3053 1388 
L 1138 1388 
L 634 0 
L -9 0 
z
M 1313 1881 
L 2866 1881 
L 2388 3150 
Q 2169 3728 2063 4100 
Q 1975 3659 1816 3225 
L 1313 1881 
z
" transform="scale(0.015625)"/>
        <path id="ArialMT-70" d="M 422 -1272 
L 422 3319 
L 934 3319 
L 934 2888 
Q 1116 3141 1344 3267 
Q 1572 3394 1897 3394 
Q 2322 3394 2647 3175 
Q 2972 2956 3137 2557 
Q 3303 2159 3303 1684 
Q 3303 1175 3120 767 
Q 2938 359 2589 142 
Q 2241 -75 1856 -75 
Q 1575 -75 1351 44 
Q 1128 163 984 344 
L 984 -1272 
L 422 -1272 
z
M 931 1641 
Q 931 1000 1190 694 
Q 1450 388 1819 388 
Q 2194 388 2461 705 
Q 2728 1022 2728 1688 
Q 2728 2322 2467 2637 
Q 2206 2953 1844 2953 
Q 1484 2953 1207 2617 
Q 931 2281 931 1641 
z
" transform="scale(0.015625)"/>
        <path id="ArialMT-72" d="M 416 0 
L 416 3319 
L 922 3319 
L 922 2816 
Q 1116 3169 1280 3281 
Q 1444 3394 1641 3394 
Q 1925 3394 2219 3213 
L 2025 2691 
Q 1819 2813 1613 2813 
Q 1428 2813 1281 2702 
Q 1134 2591 1072 2394 
Q 978 2094 978 1738 
L 978 0 
L 416 0 
z
" transform="scale(0.015625)"/>
       </defs>
       <use xlink:href="#ArialMT-41"/>
       <use xlink:href="#ArialMT-70" x="66.699219"/>
       <use xlink:href="#ArialMT-72" x="122.314453"/>
       <use xlink:href="#ArialMT-20" x="155.615234"/>
       <use xlink:href="#ArialMT-27" x="183.398438"/>
       <use xlink:href="#ArialMT-32" x="202.490234"/>
       <use xlink:href="#ArialMT-31" x="258.105469"/>
      </g>
     </g>
    </g>
    <g id="xtick_5">
     <g id="line2d_5">
      <path d="M 128.203006 117.774099 
L 198.057417 158.104562 
" clip-path="url(#p8110b51fb7)" style="fill: none; stroke: #b0b0b0; stroke-width: 0.8; stroke-linecap: square"/>
     </g>
     <g id="text_5">
      <!-- Jul '21 -->
      <g style="fill: #808080" transform="translate(203.894876 164.059977)scale(0.1 -0.1)">
       <use xlink:href="#ArialMT-4a"/>
       <use xlink:href="#ArialMT-75" x="50"/>
       <use xlink:href="#ArialMT-6c" x="105.615234"/>
       <use xlink:href="#ArialMT-20" x="127.832031"/>
       <use xlink:href="#ArialMT-27" x="155.615234"/>
       <use xlink:href="#ArialMT-32" x="174.707031"/>
       <use xlink:href="#ArialMT-31" x="230.322266"/>
      </g>
     </g>
    </g>
    <g id="xtick_6">
     <g id="line2d_6">
      <path d="M 128.203006 117.774099 
L 168.533469 187.628511 
" clip-path="url(#p8110b51fb7)" style="fill: none; stroke: #b0b0b0; stroke-width: 0.8; stroke-linecap: square"/>
     </g>
     <g id="text_6">
      <!-- Oct '21 -->
      <g style="fill: #808080" transform="translate(171.903727 196.051126)scale(0.1 -0.1)">
       <use xlink:href="#ArialMT-4f"/>
       <use xlink:href="#ArialMT-63" x="77.783203"/>
       <use xlink:href="#ArialMT-74" x="127.783203"/>
       <use xlink:href="#ArialMT-20" x="155.566406"/>
       <use xlink:href="#ArialMT-27" x="183.349609"/>
       <use xlink:href="#ArialMT-32" x="202.441406"/>
       <use xlink:href="#ArialMT-31" x="258.056641"/>
      </g>
     </g>
    </g>
    <g id="xtick_7">
     <g id="line2d_7">
      <path d="M 128.203006 117.774099 
L 128.203006 198.435026 
" clip-path="url(#p8110b51fb7)" style="fill: none; stroke: #b0b0b0; stroke-width: 0.8; stroke-linecap: square"/>
     </g>
     <g id="text_7">
      <!-- Jan '22 -->
      <g style="fill: #808080" transform="translate(112.237381 207.760699)scale(0.1 -0.1)">
       <use xlink:href="#ArialMT-4a"/>
       <use xlink:href="#ArialMT-61" x="50"/>
       <use xlink:href="#ArialMT-6e" x="105.615234"/>
       <use xlink:href="#ArialMT-20" x="161.230469"/>
       <use xlink:href="#ArialMT-27" x="189.013672"/>
       <use xlink:href="#ArialMT-32" x="208.105469"/>
       <use xlink:href="#ArialMT-32" x="263.720703"/>
      </g>
     </g>
    </g>
    <g id="xtick_8">
     <g id="line2d_8">
      <path d="M 128.203006 117.774099 
L 87.872542 187.628511 
" clip-path="url(#p8110b51fb7)" style="fill: none; stroke: #b0b0b0; stroke-width: 0.8; stroke-linecap: square"/>
     </g>
     <g id="text_8">
      <!-- Apr '22 -->
      <g style="fill: #808080" transform="translate(53.131972 196.065969)scale(0.1 -0.1)">
       <use xlink:href="#ArialMT-41"/>
       <use xlink:href="#ArialMT-70" x="66.699219"/>
       <use xlink:href="#ArialMT-72" x="122.314453"/>
       <use xlink:href="#ArialMT-20" x="155.615234"/>
       <use xlink:href="#ArialMT-27" x="183.398438"/>
       <use xlink:href="#ArialMT-32" x="202.490234"/>
       <use xlink:href="#ArialMT-32" x="258.105469"/>
      </g>
     </g>
    </g>
    <g id="xtick_9">
     <g id="line2d_9">
      <path d="M 128.203006 117.774099 
L 58.348594 158.104562 
" clip-path="url(#p8110b51fb7)" style="fill: none; stroke: #b0b0b0; stroke-width: 0.8; stroke-linecap: square"/>
     </g>
     <g id="text_9">
      <!-- Jul '22 -->
      <g style="fill: #808080" transform="translate(23.918948 164.059977)scale(0.1 -0.1)">
       <use xlink:href="#ArialMT-4a"/>
       <use xlink:href="#ArialMT-75" x="50"/>
       <use xlink:href="#ArialMT-6c" x="105.615234"/>
       <use xlink:href="#ArialMT-20" x="127.832031"/>
       <use xlink:href="#ArialMT-27" x="155.615234"/>
       <use xlink:href="#ArialMT-32" x="174.707031"/>
       <use xlink:href="#ArialMT-32" x="230.322266"/>
      </g>
     </g>
    </g>
    <g id="xtick_10">
     <g id="line2d_10">
      <path d="M 128.203006 117.774099 
L 47.542079 117.774099 
" clip-path="url(#p8110b51fb7)" style="fill: none; stroke: #b0b0b0; stroke-width: 0.8; stroke-linecap: square"/>
     </g>
     <g id="text_10">
      <!-- Aug '22 -->
      <g style="fill: #808080" transform="translate(7.2 120.315506)scale(0.1 -0.1)">
       <defs>
        <path id="ArialMT-67" d="M 319 -275 
L 866 -356 
Q 900 -609 1056 -725 
Q 1266 -881 1628 -881 
Q 2019 -881 2231 -725 
Q 2444 -569 2519 -288 
Q 2563 -116 2559 434 
Q 2191 0 1641 0 
Q 956 0 581 494 
Q 206 988 206 1678 
Q 206 2153 378 2554 
Q 550 2956 876 3175 
Q 1203 3394 1644 3394 
Q 2231 3394 2613 2919 
L 2613 3319 
L 3131 3319 
L 3131 450 
Q 3131 -325 2973 -648 
Q 2816 -972 2473 -1159 
Q 2131 -1347 1631 -1347 
Q 1038 -1347 672 -1080 
Q 306 -813 319 -275 
z
M 784 1719 
Q 784 1066 1043 766 
Q 1303 466 1694 466 
Q 2081 466 2343 764 
Q 2606 1063 2606 1700 
Q 2606 2309 2336 2618 
Q 2066 2928 1684 2928 
Q 1309 2928 1046 2623 
Q 784 2319 784 1719 
z
" transform="scale(0.015625)"/>
       </defs>
       <use xlink:href="#ArialMT-41"/>
       <use xlink:href="#ArialMT-75" x="66.699219"/>
       <use xlink:href="#ArialMT-67" x="122.314453"/>
       <use xlink:href="#ArialMT-20" x="177.929688"/>
       <use xlink:href="#ArialMT-27" x="205.712891"/>
       <use xlink:href="#ArialMT-32" x="224.804688"/>
       <use xlink:href="#ArialMT-32" x="280.419922"/>
      </g>
     </g>
    </g>
    <g id="xtick_11">
     <g id="line2d_11">
      <path d="M 128.203006 117.774099 
L 58.348594 77.443636 
" clip-path="url(#p8110b51fb7)" style="fill: none; stroke: #b0b0b0; stroke-width: 0.8; stroke-linecap: square"/>
     </g>
     <g id="text_11">
      <!-- Sep '22 -->
      <g style="fill: #808080" transform="translate(18.909573 76.719472)scale(0.1 -0.1)">
       <defs>
        <path id="ArialMT-53" d="M 288 1472 
L 859 1522 
Q 900 1178 1048 958 
Q 1197 738 1509 602 
Q 1822 466 2213 466 
Q 2559 466 2825 569 
Q 3091 672 3220 851 
Q 3350 1031 3350 1244 
Q 3350 1459 3225 1620 
Q 3100 1781 2813 1891 
Q 2628 1963 1997 2114 
Q 1366 2266 1113 2400 
Q 784 2572 623 2826 
Q 463 3081 463 3397 
Q 463 3744 659 4045 
Q 856 4347 1234 4503 
Q 1613 4659 2075 4659 
Q 2584 4659 2973 4495 
Q 3363 4331 3572 4012 
Q 3781 3694 3797 3291 
L 3216 3247 
Q 3169 3681 2898 3903 
Q 2628 4125 2100 4125 
Q 1550 4125 1298 3923 
Q 1047 3722 1047 3438 
Q 1047 3191 1225 3031 
Q 1400 2872 2139 2705 
Q 2878 2538 3153 2413 
Q 3553 2228 3743 1945 
Q 3934 1663 3934 1294 
Q 3934 928 3725 604 
Q 3516 281 3123 101 
Q 2731 -78 2241 -78 
Q 1619 -78 1198 103 
Q 778 284 539 648 
Q 300 1013 288 1472 
z
" transform="scale(0.015625)"/>
        <path id="ArialMT-65" d="M 2694 1069 
L 3275 997 
Q 3138 488 2766 206 
Q 2394 -75 1816 -75 
Q 1088 -75 661 373 
Q 234 822 234 1631 
Q 234 2469 665 2931 
Q 1097 3394 1784 3394 
Q 2450 3394 2872 2941 
Q 3294 2488 3294 1666 
Q 3294 1616 3291 1516 
L 816 1516 
Q 847 969 1125 678 
Q 1403 388 1819 388 
Q 2128 388 2347 550 
Q 2566 713 2694 1069 
z
M 847 1978 
L 2700 1978 
Q 2663 2397 2488 2606 
Q 2219 2931 1791 2931 
Q 1403 2931 1139 2672 
Q 875 2413 847 1978 
z
" transform="scale(0.015625)"/>
       </defs>
       <use xlink:href="#ArialMT-53"/>
       <use xlink:href="#ArialMT-65" x="66.699219"/>
       <use xlink:href="#ArialMT-70" x="122.314453"/>
       <use xlink:href="#ArialMT-20" x="177.929688"/>
       <use xlink:href="#ArialMT-27" x="205.712891"/>
       <use xlink:href="#ArialMT-32" x="224.804688"/>
       <use xlink:href="#ArialMT-32" x="280.419922"/>
      </g>
     </g>
    </g>
    <g id="xtick_12">
     <g id="line2d_12">
      <path d="M 128.203006 117.774099 
L 87.872542 47.919688 
" clip-path="url(#p8110b51fb7)" style="fill: none; stroke: #b0b0b0; stroke-width: 0.8; stroke-linecap: square"/>
     </g>
     <g id="text_12">
      <!-- Nov '22 -->
      <g style="fill: #808080" transform="translate(50.910097 44.667386)scale(0.1 -0.1)">
       <defs>
        <path id="ArialMT-4e" d="M 488 0 
L 488 4581 
L 1109 4581 
L 3516 984 
L 3516 4581 
L 4097 4581 
L 4097 0 
L 3475 0 
L 1069 3600 
L 1069 0 
L 488 0 
z
" transform="scale(0.015625)"/>
        <path id="ArialMT-6f" d="M 213 1659 
Q 213 2581 725 3025 
Q 1153 3394 1769 3394 
Q 2453 3394 2887 2945 
Q 3322 2497 3322 1706 
Q 3322 1066 3130 698 
Q 2938 331 2570 128 
Q 2203 -75 1769 -75 
Q 1072 -75 642 372 
Q 213 819 213 1659 
z
M 791 1659 
Q 791 1022 1069 705 
Q 1347 388 1769 388 
Q 2188 388 2466 706 
Q 2744 1025 2744 1678 
Q 2744 2294 2464 2611 
Q 2184 2928 1769 2928 
Q 1347 2928 1069 2612 
Q 791 2297 791 1659 
z
" transform="scale(0.015625)"/>
        <path id="ArialMT-76" d="M 1344 0 
L 81 3319 
L 675 3319 
L 1388 1331 
Q 1503 1009 1600 663 
Q 1675 925 1809 1294 
L 2547 3319 
L 3125 3319 
L 1869 0 
L 1344 0 
z
" transform="scale(0.015625)"/>
       </defs>
       <use xlink:href="#ArialMT-4e"/>
       <use xlink:href="#ArialMT-6f" x="72.216797"/>
       <use xlink:href="#ArialMT-76" x="127.832031"/>
       <use xlink:href="#ArialMT-20" x="177.832031"/>
       <use xlink:href="#ArialMT-27" x="205.615234"/>
       <use xlink:href="#ArialMT-32" x="224.707031"/>
       <use xlink:href="#ArialMT-32" x="280.322266"/>
      </g>
     </g>
    </g>
   </g>
   <g id="matplotlib.axis_2">
    <g id="ytick_1">
     <g id="line2d_13">
      <path d="M 128.203006 98.569117 
C 130.513641 98.569117 132.805424 98.986121 134.967962 99.800042 
C 137.130499 100.613964 139.128503 101.811521 140.86573 103.335029 
C 142.602958 104.858537 144.051062 106.683135 145.140288 108.720933 
C 146.229514 110.758732 146.942088 112.976478 147.243687 115.267346 
C 147.545285 117.558214 147.430986 119.88482 146.906296 122.135095 
C 146.381605 124.38537 145.455085 126.522593 144.171365 128.443816 
C 142.887645 130.365039 141.267672 132.038912 139.38948 133.384806 
C 137.511287 134.730699 135.405523 135.726651 133.173621 136.324688 
C 130.941718 136.922724 128.620097 137.113086 126.320588 136.886605 
C 124.021079 136.660123 121.781205 136.020493 119.708859 134.998525 
C 117.636513 133.976557 115.765512 132.588927 114.185979 130.902477 
C 112.606446 129.216028 111.344157 127.258277 110.459915 125.123528 
C 109.575673 122.988779 109.083908 120.711867 109.008306 118.402469 
C 108.932704 116.09307 109.2745 113.78887 110.017229 111.60086 
C 110.759958 109.41285 111.891502 107.376733 113.357353 105.590587 
C 114.823205 103.804442 116.599445 102.297414 118.600514 101.142097 
" clip-path="url(#p8110b51fb7)" style="fill: none; stroke: #b0b0b0; stroke-width: 0.8; stroke-linecap: square"/>
     </g>
    </g>
    <g id="ytick_2">
     <g id="line2d_14">
      <path d="M 128.203006 79.364134 
C 132.824277 79.364134 137.407842 80.198142 141.732918 81.825985 
C 146.057993 83.453828 150.054 85.848943 153.528455 88.895959 
C 157.002911 91.942974 159.899118 95.59217 162.07757 99.667767 
C 164.256023 103.743365 165.681171 108.178857 166.284368 112.760593 
C 166.887565 117.342328 166.658967 121.995541 165.609586 126.496091 
C 164.560205 130.99664 162.707165 135.271086 160.139724 139.113532 
C 157.572283 142.955979 154.332338 146.303725 150.575953 148.995512 
C 146.819568 151.687299 142.608041 153.679203 138.144236 154.875276 
C 133.680431 156.071349 129.037189 156.452074 124.438171 155.99911 
C 119.839152 155.546146 115.359405 154.266886 111.214712 152.22295 
C 107.07002 150.179014 103.328018 147.403756 100.168952 144.030856 
C 97.009887 140.657956 94.485309 136.742454 92.716825 132.472957 
C 90.948341 128.203459 89.96481 123.649635 89.813606 119.030838 
C 89.662402 114.412041 90.345993 109.803642 91.831452 105.427621 
C 93.316911 101.0516 95.579998 96.979366 98.511701 93.407075 
C 101.443405 89.834785 104.995885 86.820729 108.998023 84.510094 
" clip-path="url(#p8110b51fb7)" style="fill: none; stroke: #b0b0b0; stroke-width: 0.8; stroke-linecap: square"/>
     </g>
     <g id="text_13">
      <!-- 1 -->
      <g transform="translate(114.529881 82.466322)scale(0.12 -0.12)">
       <use xlink:href="#ArialMT-31"/>
      </g>
     </g>
    </g>
    <g id="ytick_3">
     <g id="line2d_15">
      <path d="M 128.203006 60.159152 
C 135.134912 60.159152 142.010261 61.410164 148.497874 63.851929 
C 154.985486 66.293693 160.979497 69.886365 166.19118 74.456888 
C 171.402864 79.027412 175.747175 84.501205 179.014853 90.614601 
C 182.282531 96.727997 184.420254 103.381236 185.325049 110.25384 
C 186.229845 117.126443 185.886948 124.106262 184.312877 130.857086 
C 182.738805 137.607911 179.959245 144.019579 176.108084 149.783249 
C 172.256922 155.546919 167.397005 160.568537 161.762427 164.606218 
C 156.12785 168.643899 149.810559 171.631755 143.114851 173.425865 
C 136.419143 175.219975 129.454281 175.791061 122.555753 175.111615 
C 115.657225 174.432169 108.937604 172.513279 102.720566 169.447375 
C 96.503528 166.381471 90.890524 162.218584 86.151925 157.159234 
C 81.413327 152.099884 77.626461 146.226632 74.973735 139.822385 
C 72.321009 133.418138 70.845711 126.587403 70.618906 119.659208 
C 70.3921 112.731012 71.417487 105.818413 73.645676 99.254381 
C 75.873864 92.69035 79.268494 86.582 83.666049 81.223564 
C 88.063604 75.865127 93.392324 71.344045 99.395532 67.878091 
" clip-path="url(#p8110b51fb7)" style="fill: none; stroke: #b0b0b0; stroke-width: 0.8; stroke-linecap: square"/>
     </g>
     <g id="text_14">
      <!-- 2 -->
      <g transform="translate(114.529881 63.261339)scale(0.12 -0.12)">
       <use xlink:href="#ArialMT-32"/>
      </g>
     </g>
    </g>
    <g id="ytick_4">
     <g id="line2d_16">
      <path d="M 128.203006 40.954169 
C 137.445548 40.954169 146.612679 42.622186 155.26283 45.877872 
C 163.91298 49.133558 171.904994 53.923786 178.853905 60.017818 
C 185.802816 66.11185 191.595231 73.41024 195.952135 81.561435 
C 200.30904 89.71263 203.159336 98.583615 204.36573 107.747086 
C 205.572124 116.910558 205.114929 126.216983 203.016167 135.218082 
C 200.917405 144.219181 197.211324 152.768072 192.076443 160.452966 
C 186.941561 168.137859 180.461671 174.83335 172.948901 180.216925 
C 165.436131 185.600499 157.013077 189.584308 148.085466 191.976454 
C 139.157856 194.3686 129.871373 195.130048 120.673336 194.22412 
C 111.475299 193.318193 102.515804 190.759672 94.226419 186.6718 
C 85.937035 182.583928 78.45303 177.033412 72.134899 170.287612 
C 65.816768 163.541812 60.767612 155.71081 57.230645 147.171814 
C 53.693677 138.632818 51.726613 129.525171 51.424206 120.287577 
C 51.121798 111.049983 52.488981 101.833184 55.459899 93.081142 
C 58.430817 84.3291 62.95699 76.184634 68.820397 69.040052 
C 74.683804 61.89547 81.788764 55.86736 89.793041 51.246088 
" clip-path="url(#p8110b51fb7)" style="fill: none; stroke: #b0b0b0; stroke-width: 0.8; stroke-linecap: square"/>
     </g>
     <g id="text_15">
      <!-- 3 -->
      <g transform="translate(114.529881 44.056357)scale(0.12 -0.12)">
       <defs>
        <path id="ArialMT-33" d="M 269 1209 
L 831 1284 
Q 928 806 1161 595 
Q 1394 384 1728 384 
Q 2125 384 2398 659 
Q 2672 934 2672 1341 
Q 2672 1728 2419 1979 
Q 2166 2231 1775 2231 
Q 1616 2231 1378 2169 
L 1441 2663 
Q 1497 2656 1531 2656 
Q 1891 2656 2178 2843 
Q 2466 3031 2466 3422 
Q 2466 3731 2256 3934 
Q 2047 4138 1716 4138 
Q 1388 4138 1169 3931 
Q 950 3725 888 3313 
L 325 3413 
Q 428 3978 793 4289 
Q 1159 4600 1703 4600 
Q 2078 4600 2393 4439 
Q 2709 4278 2876 4000 
Q 3044 3722 3044 3409 
Q 3044 3113 2884 2869 
Q 2725 2625 2413 2481 
Q 2819 2388 3044 2092 
Q 3269 1797 3269 1353 
Q 3269 753 2831 336 
Q 2394 -81 1725 -81 
Q 1122 -81 723 278 
Q 325 638 269 1209 
z
" transform="scale(0.015625)"/>
       </defs>
       <use xlink:href="#ArialMT-33"/>
      </g>
     </g>
    </g>
   </g>
   <g id="line2d_17">
    <path d="M 128.203006 92.464926 
L 141.590853 94.585668 
L 153.387453 103.233852 
L 157.244891 117.774099 
L 155.881946 133.754543 
L 148.896579 153.616419 
L 128.203006 159.281605 
L 106.575634 155.233805 
L 80.933094 145.065395 
L 62.395632 117.774099 
L 77.192824 88.323357 
L 105.695256 78.789533 
" clip-path="url(#p8110b51fb7)" style="fill: none; stroke: #000000; stroke-width: 1.5; stroke-linecap: square"/>
   </g>
   <g id="line2d_18">
    <path d="M 128.203006 89.940987 
L 143.061822 92.037874 
L 156.502185 101.435561 
L 160.816112 117.774099 
L 159.440972 135.809348 
L 152.049336 159.077155 
L 128.203006 165.389522 
L 103.224654 161.037873 
L 73.857059 149.150746 
L 52.860911 117.774099 
L 69.478568 83.86953 
L 102.128625 72.611947 
" clip-path="url(#p8110b51fb7)" style="fill: none; stroke: #52318e; stroke-width: 1.5; stroke-linecap: square"/>
   </g>
   <g id="patch_3">
    <path d="M 87.872542 47.919688 
C 79.468052 52.772023 72.007843 59.101538 65.851266 66.603349 
C 59.694689 74.10516 54.942208 82.65685 51.822744 91.846494 
C 48.70328 101.036138 47.267738 110.713777 47.585266 120.413251 
C 47.902794 130.112724 49.96821 139.675754 53.682027 148.641699 
C 57.395843 157.607645 62.697456 165.830198 69.331493 172.913288 
C 75.965531 179.996377 83.823736 185.82442 92.52759 190.116686 
C 101.231444 194.408951 110.638913 197.095397 120.296852 198.046621 
C 129.954791 198.997845 139.705599 198.198325 149.079589 195.686571 
C 158.45358 193.174818 167.297788 188.991819 175.186196 183.339066 
C 183.074605 177.686312 189.878489 170.656047 195.270115 162.586909 
C 200.66174 154.517771 204.553125 145.541435 206.756825 136.090281 
C 208.960525 126.639127 209.44058 116.86738 208.173867 107.245736 
C 206.907153 97.624091 203.914341 88.309556 199.339592 79.750802 
C 194.764842 71.192047 188.682807 63.528737 181.38645 57.130004 
C 174.090093 50.731271 165.698479 45.701531 156.615821 42.28306 
C 147.533163 38.86459 137.907675 37.113173 128.203006 37.113173 
" style="fill: none; stroke: #000000; stroke-width: 0.8; stroke-linejoin: miter; stroke-linecap: square"/>
   </g>
   <g id="patch_4">
    <path d="M 128.203006 117.774099 
L 128.203006 37.113173 
" style="fill: none; stroke: #000000; stroke-width: 0.8; stroke-linejoin: miter; stroke-linecap: square"/>
   </g>
   <g id="patch_5">
    <path d="M 128.203006 117.774099 
L 87.872542 47.919688 
" style="fill: none; stroke: #000000; stroke-width: 0.8; stroke-linejoin: miter; stroke-linecap: square"/>
   </g>
   <g id="patch_6">
    <path d="M 128.203006 117.774099 
C 128.203006 117.774099 128.203006 117.774099 128.203006 117.774099 
C 128.203006 117.774099 128.203006 117.774099 128.203006 117.774099 
C 128.203006 117.774099 128.203006 117.774099 128.203006 117.774099 
C 128.203006 117.774099 128.203006 117.774099 128.203006 117.774099 
C 128.203006 117.774099 128.203006 117.774099 128.203006 117.774099 
C 128.203006 117.774099 128.203006 117.774099 128.203006 117.774099 
C 128.203006 117.774099 128.203006 117.774099 128.203006 117.774099 
C 128.203006 117.774099 128.203006 117.774099 128.203006 117.774099 
C 128.203006 117.774099 128.203006 117.774099 128.203006 117.774099 
C 128.203006 117.774099 128.203006 117.774099 128.203006 117.774099 
C 128.203006 117.774099 128.203006 117.774099 128.203006 117.774099 
C 128.203006 117.774099 128.203006 117.774099 128.203006 117.774099 
C 128.203006 117.774099 128.203006 117.774099 128.203006 117.774099 
C 128.203006 117.774099 128.203006 117.774099 128.203006 117.774099 
C 128.203006 117.774099 128.203006 117.774099 128.203006 117.774099 
C 128.203006 117.774099 128.203006 117.774099 128.203006 117.774099 
" style="fill: none; stroke: #000000; stroke-width: 0.8; stroke-linejoin: miter; stroke-linecap: square"/>
   </g>
   <g id="text_16">
    <!-- Ammonia [USD kg$^\mathrm{-1}$] -->
    <g transform="translate(57.444159 19.8)scale(0.14 -0.14)">
     <defs>
      <path id="Arial-BoldMT-41" d="M 4597 0 
L 3591 0 
L 3191 1041 
L 1359 1041 
L 981 0 
L 0 0 
L 1784 4581 
L 2763 4581 
L 4597 0 
z
M 2894 1813 
L 2263 3513 
L 1644 1813 
L 2894 1813 
z
" transform="scale(0.015625)"/>
      <path id="Arial-BoldMT-6d" d="M 394 3319 
L 1203 3319 
L 1203 2866 
Q 1638 3394 2238 3394 
Q 2556 3394 2790 3262 
Q 3025 3131 3175 2866 
Q 3394 3131 3647 3262 
Q 3900 3394 4188 3394 
Q 4553 3394 4806 3245 
Q 5059 3097 5184 2809 
Q 5275 2597 5275 2122 
L 5275 0 
L 4397 0 
L 4397 1897 
Q 4397 2391 4306 2534 
Q 4184 2722 3931 2722 
Q 3747 2722 3584 2609 
Q 3422 2497 3350 2280 
Q 3278 2063 3278 1594 
L 3278 0 
L 2400 0 
L 2400 1819 
Q 2400 2303 2353 2443 
Q 2306 2584 2207 2653 
Q 2109 2722 1941 2722 
Q 1738 2722 1575 2612 
Q 1413 2503 1342 2297 
Q 1272 2091 1272 1613 
L 1272 0 
L 394 0 
L 394 3319 
z
" transform="scale(0.015625)"/>
      <path id="Arial-BoldMT-6f" d="M 256 1706 
Q 256 2144 472 2553 
Q 688 2963 1083 3178 
Q 1478 3394 1966 3394 
Q 2719 3394 3200 2905 
Q 3681 2416 3681 1669 
Q 3681 916 3195 420 
Q 2709 -75 1972 -75 
Q 1516 -75 1102 131 
Q 688 338 472 736 
Q 256 1134 256 1706 
z
M 1156 1659 
Q 1156 1166 1390 903 
Q 1625 641 1969 641 
Q 2313 641 2545 903 
Q 2778 1166 2778 1666 
Q 2778 2153 2545 2415 
Q 2313 2678 1969 2678 
Q 1625 2678 1390 2415 
Q 1156 2153 1156 1659 
z
" transform="scale(0.015625)"/>
      <path id="Arial-BoldMT-6e" d="M 3478 0 
L 2600 0 
L 2600 1694 
Q 2600 2231 2544 2389 
Q 2488 2547 2361 2634 
Q 2234 2722 2056 2722 
Q 1828 2722 1647 2597 
Q 1466 2472 1398 2265 
Q 1331 2059 1331 1503 
L 1331 0 
L 453 0 
L 453 3319 
L 1269 3319 
L 1269 2831 
Q 1703 3394 2363 3394 
Q 2653 3394 2893 3289 
Q 3134 3184 3257 3021 
Q 3381 2859 3429 2653 
Q 3478 2447 3478 2063 
L 3478 0 
z
" transform="scale(0.015625)"/>
      <path id="Arial-BoldMT-69" d="M 459 3769 
L 459 4581 
L 1338 4581 
L 1338 3769 
L 459 3769 
z
M 459 0 
L 459 3319 
L 1338 3319 
L 1338 0 
L 459 0 
z
" transform="scale(0.015625)"/>
      <path id="Arial-BoldMT-61" d="M 1116 2306 
L 319 2450 
Q 453 2931 781 3162 
Q 1109 3394 1756 3394 
Q 2344 3394 2631 3255 
Q 2919 3116 3036 2902 
Q 3153 2688 3153 2116 
L 3144 1091 
Q 3144 653 3186 445 
Q 3228 238 3344 0 
L 2475 0 
Q 2441 88 2391 259 
Q 2369 338 2359 363 
Q 2134 144 1878 34 
Q 1622 -75 1331 -75 
Q 819 -75 523 203 
Q 228 481 228 906 
Q 228 1188 362 1408 
Q 497 1628 739 1745 
Q 981 1863 1438 1950 
Q 2053 2066 2291 2166 
L 2291 2253 
Q 2291 2506 2166 2614 
Q 2041 2722 1694 2722 
Q 1459 2722 1328 2630 
Q 1197 2538 1116 2306 
z
M 2291 1594 
Q 2122 1538 1756 1459 
Q 1391 1381 1278 1306 
Q 1106 1184 1106 997 
Q 1106 813 1243 678 
Q 1381 544 1594 544 
Q 1831 544 2047 700 
Q 2206 819 2256 991 
Q 2291 1103 2291 1419 
L 2291 1594 
z
" transform="scale(0.015625)"/>
      <path id="Arial-BoldMT-20" transform="scale(0.015625)"/>
      <path id="Arial-BoldMT-5b" d="M 456 -1291 
L 456 4581 
L 2013 4581 
L 2013 3891 
L 1291 3891 
L 1291 -600 
L 2013 -600 
L 2013 -1291 
L 456 -1291 
z
" transform="scale(0.015625)"/>
      <path id="Arial-BoldMT-55" d="M 459 4581 
L 1384 4581 
L 1384 2100 
Q 1384 1509 1419 1334 
Q 1478 1053 1701 883 
Q 1925 713 2313 713 
Q 2706 713 2906 873 
Q 3106 1034 3147 1268 
Q 3188 1503 3188 2047 
L 3188 4581 
L 4113 4581 
L 4113 2175 
Q 4113 1350 4038 1009 
Q 3963 669 3761 434 
Q 3559 200 3221 61 
Q 2884 -78 2341 -78 
Q 1684 -78 1345 73 
Q 1006 225 809 467 
Q 613 709 550 975 
Q 459 1369 459 2138 
L 459 4581 
z
" transform="scale(0.015625)"/>
      <path id="Arial-BoldMT-53" d="M 231 1491 
L 1131 1578 
Q 1213 1125 1461 912 
Q 1709 700 2131 700 
Q 2578 700 2804 889 
Q 3031 1078 3031 1331 
Q 3031 1494 2936 1608 
Q 2841 1722 2603 1806 
Q 2441 1863 1863 2006 
Q 1119 2191 819 2459 
Q 397 2838 397 3381 
Q 397 3731 595 4036 
Q 794 4341 1167 4500 
Q 1541 4659 2069 4659 
Q 2931 4659 3367 4281 
Q 3803 3903 3825 3272 
L 2900 3231 
Q 2841 3584 2645 3739 
Q 2450 3894 2059 3894 
Q 1656 3894 1428 3728 
Q 1281 3622 1281 3444 
Q 1281 3281 1419 3166 
Q 1594 3019 2269 2859 
Q 2944 2700 3267 2529 
Q 3591 2359 3773 2064 
Q 3956 1769 3956 1334 
Q 3956 941 3737 597 
Q 3519 253 3119 86 
Q 2719 -81 2122 -81 
Q 1253 -81 787 320 
Q 322 722 231 1491 
z
" transform="scale(0.015625)"/>
      <path id="Arial-BoldMT-44" d="M 463 4581 
L 2153 4581 
Q 2725 4581 3025 4494 
Q 3428 4375 3715 4072 
Q 4003 3769 4153 3330 
Q 4303 2891 4303 2247 
Q 4303 1681 4163 1272 
Q 3991 772 3672 463 
Q 3431 228 3022 97 
Q 2716 0 2203 0 
L 463 0 
L 463 4581 
z
M 1388 3806 
L 1388 772 
L 2078 772 
Q 2466 772 2638 816 
Q 2863 872 3011 1006 
Q 3159 1141 3253 1448 
Q 3347 1756 3347 2288 
Q 3347 2819 3253 3103 
Q 3159 3388 2990 3547 
Q 2822 3706 2563 3763 
Q 2369 3806 1803 3806 
L 1388 3806 
z
" transform="scale(0.015625)"/>
      <path id="Arial-BoldMT-6b" d="M 428 0 
L 428 4581 
L 1306 4581 
L 1306 2150 
L 2334 3319 
L 3416 3319 
L 2281 2106 
L 3497 0 
L 2550 0 
L 1716 1491 
L 1306 1063 
L 1306 0 
L 428 0 
z
" transform="scale(0.015625)"/>
      <path id="Arial-BoldMT-67" d="M 378 -219 
L 1381 -341 
Q 1406 -516 1497 -581 
Q 1622 -675 1891 -675 
Q 2234 -675 2406 -572 
Q 2522 -503 2581 -350 
Q 2622 -241 2622 53 
L 2622 538 
Q 2228 0 1628 0 
Q 959 0 569 566 
Q 263 1013 263 1678 
Q 263 2513 664 2953 
Q 1066 3394 1663 3394 
Q 2278 3394 2678 2853 
L 2678 3319 
L 3500 3319 
L 3500 341 
Q 3500 -247 3403 -537 
Q 3306 -828 3131 -993 
Q 2956 -1159 2664 -1253 
Q 2372 -1347 1925 -1347 
Q 1081 -1347 728 -1058 
Q 375 -769 375 -325 
Q 375 -281 378 -219 
z
M 1163 1728 
Q 1163 1200 1367 954 
Q 1572 709 1872 709 
Q 2194 709 2416 961 
Q 2638 1213 2638 1706 
Q 2638 2222 2425 2472 
Q 2213 2722 1888 2722 
Q 1572 2722 1367 2476 
Q 1163 2231 1163 1728 
z
" transform="scale(0.015625)"/>
      <path id="DejaVuSans-2212" d="M 678 2272 
L 4684 2272 
L 4684 1741 
L 678 1741 
L 678 2272 
z
" transform="scale(0.015625)"/>
      <path id="DejaVuSans-31" d="M 794 531 
L 1825 531 
L 1825 4091 
L 703 3866 
L 703 4441 
L 1819 4666 
L 2450 4666 
L 2450 531 
L 3481 531 
L 3481 0 
L 794 0 
L 794 531 
z
" transform="scale(0.015625)"/>
      <path id="Arial-BoldMT-5d" d="M 1675 4581 
L 1675 -1291 
L 119 -1291 
L 119 -600 
L 841 -600 
L 841 3897 
L 119 3897 
L 119 4581 
L 1675 4581 
z
" transform="scale(0.015625)"/>
     </defs>
     <use xlink:href="#Arial-BoldMT-41" transform="translate(0 0.684375)"/>
     <use xlink:href="#Arial-BoldMT-6d" transform="translate(72.216797 0.684375)"/>
     <use xlink:href="#Arial-BoldMT-6d" transform="translate(161.132812 0.684375)"/>
     <use xlink:href="#Arial-BoldMT-6f" transform="translate(250.048828 0.684375)"/>
     <use xlink:href="#Arial-BoldMT-6e" transform="translate(311.132812 0.684375)"/>
     <use xlink:href="#Arial-BoldMT-69" transform="translate(372.216797 0.684375)"/>
     <use xlink:href="#Arial-BoldMT-61" transform="translate(400 0.684375)"/>
     <use xlink:href="#Arial-BoldMT-20" transform="translate(455.615234 0.684375)"/>
     <use xlink:href="#Arial-BoldMT-5b" transform="translate(483.398438 0.684375)"/>
     <use xlink:href="#Arial-BoldMT-55" transform="translate(516.699219 0.684375)"/>
     <use xlink:href="#Arial-BoldMT-53" transform="translate(588.916016 0.684375)"/>
     <use xlink:href="#Arial-BoldMT-44" transform="translate(655.615234 0.684375)"/>
     <use xlink:href="#Arial-BoldMT-20" transform="translate(727.832031 0.684375)"/>
     <use xlink:href="#Arial-BoldMT-6b" transform="translate(755.615234 0.684375)"/>
     <use xlink:href="#Arial-BoldMT-67" transform="translate(811.230469 0.684375)"/>
     <use xlink:href="#DejaVuSans-2212" transform="translate(873.271484 38.965625)scale(0.7)"/>
     <use xlink:href="#DejaVuSans-31" transform="translate(931.923828 38.965625)scale(0.7)"/>
     <use xlink:href="#Arial-BoldMT-5d" transform="translate(979.194336 0.684375)"/>
    </g>
   </g>
   <g id="PolyCollection_1">
    <defs>
     <path id="mb7dc3148aa" d="M 128.203006 -157.468568 
L 128.203006 -139.031785 
L 128.203006 -139.031785 
L 128.203006 -139.031785 
L 128.203006 -139.031785 
L 128.203006 -139.031785 
L 128.203006 -139.031785 
L 128.203006 -139.031785 
L 128.203006 -139.031785 
L 128.203006 -139.031785 
L 128.203006 -139.031785 
L 128.203006 -139.031785 
L 128.203006 -139.031785 
L 128.203006 -139.031785 
L 128.203006 -139.031785 
L 128.203006 -139.031785 
L 128.203006 -139.031785 
L 128.203006 -139.031785 
L 128.203006 -139.031785 
L 128.203006 -139.031785 
L 128.203006 -139.031785 
L 128.203006 -139.031785 
L 128.203006 -139.031785 
L 128.203006 -139.031785 
L 128.203006 -139.031785 
L 128.203006 -139.031785 
L 128.203006 -139.031785 
L 128.203006 -139.031785 
L 128.203006 -139.031785 
L 128.203006 -139.031785 
L 128.203006 -139.031785 
L 128.203006 -139.031785 
L 128.203006 -139.031785 
L 128.203006 -139.031785 
L 128.203006 -139.031785 
L 128.203006 -139.031785 
L 128.203006 -139.031785 
L 128.203006 -139.031785 
L 128.203006 -139.031785 
L 128.203006 -139.031785 
L 128.203006 -139.031785 
L 128.203006 -139.031785 
L 128.203006 -139.031785 
L 128.203006 -139.031785 
L 128.203006 -139.031785 
L 128.203006 -139.031785 
L 128.203006 -139.031785 
L 128.203006 -139.031785 
L 128.203006 -157.468568 
L 128.203006 -157.468568 
L 125.001492 -157.188472 
L 121.897254 -156.356694 
L 118.984614 -154.998507 
L 116.979403 -153.658668 
L 115.166231 -152.068559 
L 113.576122 -150.255387 
L 112.236283 -148.250176 
L 110.878096 -145.337536 
L 110.046319 -142.233299 
L 109.766222 -139.031785 
L 109.867221 -137.104616 
L 110.16911 -135.198562 
L 110.668583 -133.334505 
L 111.360166 -131.532869 
L 112.236283 -129.813393 
L 113.576122 -127.808182 
L 115.166231 -125.99501 
L 116.979403 -124.404901 
L 118.984614 -123.065062 
L 121.897254 -121.706876 
L 125.001492 -120.875098 
L 128.203006 -120.595002 
L 130.130174 -120.696 
L 132.036228 -120.99789 
L 133.900285 -121.497362 
L 135.701921 -122.188945 
L 137.421397 -123.065062 
L 139.426608 -124.404901 
L 141.23978 -125.99501 
L 142.829889 -127.808182 
L 144.169728 -129.813393 
L 145.527915 -132.726034 
L 146.359693 -135.830271 
L 146.639789 -139.031785 
L 146.53879 -140.958953 
L 146.236901 -142.865008 
L 145.737428 -144.729064 
L 145.045845 -146.5307 
L 144.169728 -148.250176 
L 142.829889 -150.255387 
L 141.23978 -152.068559 
L 139.426608 -153.658668 
L 137.421397 -154.998507 
L 134.508757 -156.356694 
L 131.404519 -157.188472 
L 128.203006 -157.468568 
z
" style="stroke: #ffffff"/>
    </defs>
    <g>
     <use xlink:href="#mb7dc3148aa" x="0" y="256.805884" style="fill: #ffffff; stroke: #ffffff"/>
    </g>
   </g>
   <g id="PathCollection_1">
    <defs>
     <path id="me0e220a547" d="M -1.936492 1.936492 
L 1.936492 1.936492 
L 1.936492 -1.936492 
L -1.936492 -1.936492 
z
" style="stroke: #000000"/>
    </defs>
    <g>
     <use xlink:href="#me0e220a547" x="128.203006" y="92.464926" style="fill: #ffffff; stroke: #000000"/>
     <use xlink:href="#me0e220a547" x="141.590853" y="94.585668" style="fill: #ffffff; stroke: #000000"/>
     <use xlink:href="#me0e220a547" x="153.387453" y="103.233852" style="fill: #ffffff; stroke: #000000"/>
     <use xlink:href="#me0e220a547" x="157.244891" y="117.774099" style="fill: #ffffff; stroke: #000000"/>
     <use xlink:href="#me0e220a547" x="155.881946" y="133.754543" style="fill: #ffffff; stroke: #000000"/>
     <use xlink:href="#me0e220a547" x="148.896579" y="153.616419" style="fill: #ffffff; stroke: #000000"/>
     <use xlink:href="#me0e220a547" x="128.203006" y="159.281605" style="fill: #ffffff; stroke: #000000"/>
     <use xlink:href="#me0e220a547" x="106.575634" y="155.233805" style="fill: #ffffff; stroke: #000000"/>
     <use xlink:href="#me0e220a547" x="80.933094" y="145.065395" style="fill: #ffffff; stroke: #000000"/>
     <use xlink:href="#me0e220a547" x="62.395632" y="117.774099" style="fill: #ffffff; stroke: #000000"/>
     <use xlink:href="#me0e220a547" x="77.192824" y="88.323357" style="fill: #ffffff; stroke: #000000"/>
     <use xlink:href="#me0e220a547" x="105.695256" y="78.789533" style="fill: #ffffff; stroke: #000000"/>
    </g>
   </g>
   <g id="PathCollection_2">
    <defs>
     <path id="m7dc4c6ed75" d="M 0 2.738613 
L 1.643168 0 
L 0 -2.738613 
L -1.643168 0 
z
" style="stroke: #52318e"/>
    </defs>
    <g>
     <use xlink:href="#m7dc4c6ed75" x="128.203006" y="89.940987" style="fill: #a78dd8; stroke: #52318e"/>
     <use xlink:href="#m7dc4c6ed75" x="143.061822" y="92.037874" style="fill: #a78dd8; stroke: #52318e"/>
     <use xlink:href="#m7dc4c6ed75" x="156.502185" y="101.435561" style="fill: #a78dd8; stroke: #52318e"/>
     <use xlink:href="#m7dc4c6ed75" x="160.816112" y="117.774099" style="fill: #a78dd8; stroke: #52318e"/>
     <use xlink:href="#m7dc4c6ed75" x="159.440972" y="135.809348" style="fill: #a78dd8; stroke: #52318e"/>
     <use xlink:href="#m7dc4c6ed75" x="152.049336" y="159.077155" style="fill: #a78dd8; stroke: #52318e"/>
     <use xlink:href="#m7dc4c6ed75" x="128.203006" y="165.389522" style="fill: #a78dd8; stroke: #52318e"/>
     <use xlink:href="#m7dc4c6ed75" x="103.224654" y="161.037873" style="fill: #a78dd8; stroke: #52318e"/>
     <use xlink:href="#m7dc4c6ed75" x="73.857059" y="149.150746" style="fill: #a78dd8; stroke: #52318e"/>
     <use xlink:href="#m7dc4c6ed75" x="52.860911" y="117.774099" style="fill: #a78dd8; stroke: #52318e"/>
     <use xlink:href="#m7dc4c6ed75" x="69.478568" y="83.86953" style="fill: #a78dd8; stroke: #52318e"/>
     <use xlink:href="#m7dc4c6ed75" x="102.128625" y="72.611947" style="fill: #a78dd8; stroke: #52318e"/>
    </g>
   </g>
  </g>
  <g id="axes_2">
   <g id="patch_7">
    <path d="M 340.592542 47.919688 
C 332.188052 52.772023 324.727843 59.101538 318.571266 66.603349 
C 312.414689 74.10516 307.662208 82.65685 304.542744 91.846494 
C 301.42328 101.036138 299.987738 110.713777 300.305266 120.413251 
C 300.622794 130.112724 302.68821 139.675754 306.402027 148.641699 
C 310.115843 157.607645 315.417456 165.830198 322.051493 172.913288 
C 328.685531 179.996377 336.543736 185.82442 345.24759 190.116686 
C 353.951444 194.408951 363.358913 197.095397 373.016852 198.046621 
C 382.674791 198.997845 392.425599 198.198325 401.799589 195.686571 
C 411.17358 193.174818 420.017788 188.991819 427.906196 183.339066 
C 435.794605 177.686312 442.598489 170.656047 447.990115 162.586909 
C 453.38174 154.517771 457.273125 145.541435 459.476825 136.090281 
C 461.680525 126.639127 462.16058 116.86738 460.893867 107.245736 
C 459.627153 97.624091 456.634341 88.309556 452.059592 79.750802 
C 447.484842 71.192047 441.402807 63.528737 434.10645 57.130004 
C 426.810093 50.731271 418.418479 45.701531 409.335821 42.28306 
C 400.253163 38.86459 390.627675 37.113173 380.923006 37.113173 
L 380.923006 117.774099 
C 380.923006 117.774099 380.923006 117.774099 380.923006 117.774099 
C 380.923006 117.774099 380.923006 117.774099 380.923006 117.774099 
C 380.923006 117.774099 380.923006 117.774099 380.923006 117.774099 
C 380.923006 117.774099 380.923006 117.774099 380.923006 117.774099 
C 380.923006 117.774099 380.923006 117.774099 380.923006 117.774099 
C 380.923006 117.774099 380.923006 117.774099 380.923006 117.774099 
C 380.923006 117.774099 380.923006 117.774099 380.923006 117.774099 
C 380.923006 117.774099 380.923006 117.774099 380.923006 117.774099 
C 380.923006 117.774099 380.923006 117.774099 380.923006 117.774099 
C 380.923006 117.774099 380.923006 117.774099 380.923006 117.774099 
C 380.923006 117.774099 380.923006 117.774099 380.923006 117.774099 
C 380.923006 117.774099 380.923006 117.774099 380.923006 117.774099 
C 380.923006 117.774099 380.923006 117.774099 380.923006 117.774099 
C 380.923006 117.774099 380.923006 117.774099 380.923006 117.774099 
C 380.923006 117.774099 380.923006 117.774099 380.923006 117.774099 
C 380.923006 117.774099 380.923006 117.774099 380.923006 117.774099 
L 340.592542 47.919688 
z
" style="fill: #ffffff; opacity: 0.05"/>
   </g>
   <g id="matplotlib.axis_3">
    <g id="xtick_13">
     <g id="line2d_19">
      <path d="M 380.923006 117.774099 
L 380.923006 37.113173 
" clip-path="url(#p3f2e325c77)" style="fill: none; stroke: #b0b0b0; stroke-width: 0.8; stroke-linecap: square"/>
     </g>
     <g id="text_17">
      <!-- Jul '20 -->
      <g style="fill: #808080" transform="translate(366.626912 32.957813)scale(0.1 -0.1)">
       <use xlink:href="#ArialMT-4a"/>
       <use xlink:href="#ArialMT-75" x="50"/>
       <use xlink:href="#ArialMT-6c" x="105.615234"/>
       <use xlink:href="#ArialMT-20" x="127.832031"/>
       <use xlink:href="#ArialMT-27" x="155.615234"/>
       <use xlink:href="#ArialMT-32" x="174.707031"/>
       <use xlink:href="#ArialMT-30" x="230.322266"/>
      </g>
     </g>
    </g>
    <g id="xtick_14">
     <g id="line2d_20">
      <path d="M 380.923006 117.774099 
L 421.253469 47.919688 
" clip-path="url(#p3f2e325c77)" style="fill: none; stroke: #b0b0b0; stroke-width: 0.8; stroke-linecap: square"/>
     </g>
     <g id="text_18">
      <!-- Oct '20 -->
      <g style="fill: #808080" transform="translate(424.623727 44.667386)scale(0.1 -0.1)">
       <use xlink:href="#ArialMT-4f"/>
       <use xlink:href="#ArialMT-63" x="77.783203"/>
       <use xlink:href="#ArialMT-74" x="127.783203"/>
       <use xlink:href="#ArialMT-20" x="155.566406"/>
       <use xlink:href="#ArialMT-27" x="183.349609"/>
       <use xlink:href="#ArialMT-32" x="202.441406"/>
       <use xlink:href="#ArialMT-30" x="258.056641"/>
      </g>
     </g>
    </g>
    <g id="xtick_15">
     <g id="line2d_21">
      <path d="M 380.923006 117.774099 
L 450.777417 77.443636 
" clip-path="url(#p3f2e325c77)" style="fill: none; stroke: #b0b0b0; stroke-width: 0.8; stroke-linecap: square"/>
     </g>
     <g id="text_19">
      <!-- Jan '21 -->
      <g style="fill: #808080" transform="translate(456.614876 76.658534)scale(0.1 -0.1)">
       <use xlink:href="#ArialMT-4a"/>
       <use xlink:href="#ArialMT-61" x="50"/>
       <use xlink:href="#ArialMT-6e" x="105.615234"/>
       <use xlink:href="#ArialMT-20" x="161.230469"/>
       <use xlink:href="#ArialMT-27" x="189.013672"/>
       <use xlink:href="#ArialMT-32" x="208.105469"/>
       <use xlink:href="#ArialMT-31" x="263.720703"/>
      </g>
     </g>
    </g>
    <g id="xtick_16">
     <g id="line2d_22">
      <path d="M 380.923006 117.774099 
L 461.583932 117.774099 
" clip-path="url(#p3f2e325c77)" style="fill: none; stroke: #b0b0b0; stroke-width: 0.8; stroke-linecap: square"/>
     </g>
     <g id="text_20">
      <!-- Apr '21 -->
      <g style="fill: #808080" transform="translate(468.324449 120.374099)scale(0.1 -0.1)">
       <use xlink:href="#ArialMT-41"/>
       <use xlink:href="#ArialMT-70" x="66.699219"/>
       <use xlink:href="#ArialMT-72" x="122.314453"/>
       <use xlink:href="#ArialMT-20" x="155.615234"/>
       <use xlink:href="#ArialMT-27" x="183.398438"/>
       <use xlink:href="#ArialMT-32" x="202.490234"/>
       <use xlink:href="#ArialMT-31" x="258.105469"/>
      </g>
     </g>
    </g>
    <g id="xtick_17">
     <g id="line2d_23">
      <path d="M 380.923006 117.774099 
L 450.777417 158.104562 
" clip-path="url(#p3f2e325c77)" style="fill: none; stroke: #b0b0b0; stroke-width: 0.8; stroke-linecap: square"/>
     </g>
     <g id="text_21">
      <!-- Jul '21 -->
      <g style="fill: #808080" transform="translate(456.614876 164.059977)scale(0.1 -0.1)">
       <use xlink:href="#ArialMT-4a"/>
       <use xlink:href="#ArialMT-75" x="50"/>
       <use xlink:href="#ArialMT-6c" x="105.615234"/>
       <use xlink:href="#ArialMT-20" x="127.832031"/>
       <use xlink:href="#ArialMT-27" x="155.615234"/>
       <use xlink:href="#ArialMT-32" x="174.707031"/>
       <use xlink:href="#ArialMT-31" x="230.322266"/>
      </g>
     </g>
    </g>
    <g id="xtick_18">
     <g id="line2d_24">
      <path d="M 380.923006 117.774099 
L 421.253469 187.628511 
" clip-path="url(#p3f2e325c77)" style="fill: none; stroke: #b0b0b0; stroke-width: 0.8; stroke-linecap: square"/>
     </g>
     <g id="text_22">
      <!-- Oct '21 -->
      <g style="fill: #808080" transform="translate(424.623727 196.051126)scale(0.1 -0.1)">
       <use xlink:href="#ArialMT-4f"/>
       <use xlink:href="#ArialMT-63" x="77.783203"/>
       <use xlink:href="#ArialMT-74" x="127.783203"/>
       <use xlink:href="#ArialMT-20" x="155.566406"/>
       <use xlink:href="#ArialMT-27" x="183.349609"/>
       <use xlink:href="#ArialMT-32" x="202.441406"/>
       <use xlink:href="#ArialMT-31" x="258.056641"/>
      </g>
     </g>
    </g>
    <g id="xtick_19">
     <g id="line2d_25">
      <path d="M 380.923006 117.774099 
L 380.923006 198.435026 
" clip-path="url(#p3f2e325c77)" style="fill: none; stroke: #b0b0b0; stroke-width: 0.8; stroke-linecap: square"/>
     </g>
     <g id="text_23">
      <!-- Jan '22 -->
      <g style="fill: #808080" transform="translate(364.957381 207.760699)scale(0.1 -0.1)">
       <use xlink:href="#ArialMT-4a"/>
       <use xlink:href="#ArialMT-61" x="50"/>
       <use xlink:href="#ArialMT-6e" x="105.615234"/>
       <use xlink:href="#ArialMT-20" x="161.230469"/>
       <use xlink:href="#ArialMT-27" x="189.013672"/>
       <use xlink:href="#ArialMT-32" x="208.105469"/>
       <use xlink:href="#ArialMT-32" x="263.720703"/>
      </g>
     </g>
    </g>
    <g id="xtick_20">
     <g id="line2d_26">
      <path d="M 380.923006 117.774099 
L 340.592542 187.628511 
" clip-path="url(#p3f2e325c77)" style="fill: none; stroke: #b0b0b0; stroke-width: 0.8; stroke-linecap: square"/>
     </g>
     <g id="text_24">
      <!-- Apr '22 -->
      <g style="fill: #808080" transform="translate(305.851972 196.065969)scale(0.1 -0.1)">
       <use xlink:href="#ArialMT-41"/>
       <use xlink:href="#ArialMT-70" x="66.699219"/>
       <use xlink:href="#ArialMT-72" x="122.314453"/>
       <use xlink:href="#ArialMT-20" x="155.615234"/>
       <use xlink:href="#ArialMT-27" x="183.398438"/>
       <use xlink:href="#ArialMT-32" x="202.490234"/>
       <use xlink:href="#ArialMT-32" x="258.105469"/>
      </g>
     </g>
    </g>
    <g id="xtick_21">
     <g id="line2d_27">
      <path d="M 380.923006 117.774099 
L 311.068594 158.104562 
" clip-path="url(#p3f2e325c77)" style="fill: none; stroke: #b0b0b0; stroke-width: 0.8; stroke-linecap: square"/>
     </g>
     <g id="text_25">
      <!-- Jul '22 -->
      <g style="fill: #808080" transform="translate(276.638948 164.059977)scale(0.1 -0.1)">
       <use xlink:href="#ArialMT-4a"/>
       <use xlink:href="#ArialMT-75" x="50"/>
       <use xlink:href="#ArialMT-6c" x="105.615234"/>
       <use xlink:href="#ArialMT-20" x="127.832031"/>
       <use xlink:href="#ArialMT-27" x="155.615234"/>
       <use xlink:href="#ArialMT-32" x="174.707031"/>
       <use xlink:href="#ArialMT-32" x="230.322266"/>
      </g>
     </g>
    </g>
    <g id="xtick_22">
     <g id="line2d_28">
      <path d="M 380.923006 117.774099 
L 300.262079 117.774099 
" clip-path="url(#p3f2e325c77)" style="fill: none; stroke: #b0b0b0; stroke-width: 0.8; stroke-linecap: square"/>
     </g>
     <g id="text_26">
      <!-- Aug '22 -->
      <g style="fill: #808080" transform="translate(259.92 120.315506)scale(0.1 -0.1)">
       <use xlink:href="#ArialMT-41"/>
       <use xlink:href="#ArialMT-75" x="66.699219"/>
       <use xlink:href="#ArialMT-67" x="122.314453"/>
       <use xlink:href="#ArialMT-20" x="177.929688"/>
       <use xlink:href="#ArialMT-27" x="205.712891"/>
       <use xlink:href="#ArialMT-32" x="224.804688"/>
       <use xlink:href="#ArialMT-32" x="280.419922"/>
      </g>
     </g>
    </g>
    <g id="xtick_23">
     <g id="line2d_29">
      <path d="M 380.923006 117.774099 
L 311.068594 77.443636 
" clip-path="url(#p3f2e325c77)" style="fill: none; stroke: #b0b0b0; stroke-width: 0.8; stroke-linecap: square"/>
     </g>
     <g id="text_27">
      <!-- Sep '22 -->
      <g style="fill: #808080" transform="translate(271.629573 76.719472)scale(0.1 -0.1)">
       <use xlink:href="#ArialMT-53"/>
       <use xlink:href="#ArialMT-65" x="66.699219"/>
       <use xlink:href="#ArialMT-70" x="122.314453"/>
       <use xlink:href="#ArialMT-20" x="177.929688"/>
       <use xlink:href="#ArialMT-27" x="205.712891"/>
       <use xlink:href="#ArialMT-32" x="224.804688"/>
       <use xlink:href="#ArialMT-32" x="280.419922"/>
      </g>
     </g>
    </g>
    <g id="xtick_24">
     <g id="line2d_30">
      <path d="M 380.923006 117.774099 
L 340.592542 47.919688 
" clip-path="url(#p3f2e325c77)" style="fill: none; stroke: #b0b0b0; stroke-width: 0.8; stroke-linecap: square"/>
     </g>
     <g id="text_28">
      <!-- Nov '22 -->
      <g style="fill: #808080" transform="translate(303.630097 44.667386)scale(0.1 -0.1)">
       <use xlink:href="#ArialMT-4e"/>
       <use xlink:href="#ArialMT-6f" x="72.216797"/>
       <use xlink:href="#ArialMT-76" x="127.832031"/>
       <use xlink:href="#ArialMT-20" x="177.832031"/>
       <use xlink:href="#ArialMT-27" x="205.615234"/>
       <use xlink:href="#ArialMT-32" x="224.707031"/>
       <use xlink:href="#ArialMT-32" x="280.322266"/>
      </g>
     </g>
    </g>
   </g>
   <g id="matplotlib.axis_4">
    <g id="ytick_5">
     <g id="line2d_31">
      <path d="M 380.923006 99.27959 
C 383.148161 99.27959 385.355161 99.681167 387.437697 100.464979 
C 389.520233 101.24879 391.444322 102.402044 393.117283 103.869191 
C 394.790243 105.336338 396.184775 107.093436 397.233706 109.055848 
C 398.282637 111.01826 398.968851 113.153962 399.259292 115.360081 
C 399.549733 117.5662 399.439662 119.806736 398.934382 121.973763 
C 398.429102 124.140791 397.536858 126.198949 396.300628 128.049098 
C 395.064398 129.899247 393.504355 131.511196 391.695645 132.8073 
C 389.886934 134.103403 387.859072 135.062511 385.709737 135.638423 
C 383.560402 136.214336 381.324667 136.397656 379.110227 136.179552 
C 376.895786 135.961449 374.738775 135.345481 372.743093 134.36132 
C 370.747412 133.377159 368.945627 132.040864 367.424528 130.416803 
C 365.903429 128.792742 364.687837 126.907417 363.836307 124.851642 
C 362.984777 122.795866 362.511204 120.603187 362.438399 118.379223 
C 362.365594 116.155259 362.694745 113.936301 363.409998 111.829234 
C 364.12525 109.722167 365.214933 107.761375 366.626557 106.041307 
C 368.03818 104.321238 369.74871 102.869962 371.675751 101.757385 
" clip-path="url(#p3f2e325c77)" style="fill: none; stroke: #b0b0b0; stroke-width: 0.8; stroke-linecap: square"/>
     </g>
    </g>
    <g id="ytick_6">
     <g id="line2d_32">
      <path d="M 380.923006 83.737986 
C 385.01804 83.737986 389.079662 84.477023 392.912228 85.919499 
C 396.744795 87.361975 400.285765 89.484351 403.364575 92.184394 
C 406.443384 94.884438 409.009792 98.118089 410.940178 101.729586 
C 412.870563 105.341084 414.133426 109.271495 414.667935 113.331495 
C 415.202445 117.391495 414.999878 121.514833 414.069993 125.502893 
C 413.140108 129.490952 411.498079 133.278654 409.223 136.683551 
C 406.947921 140.088447 404.076917 143.054975 400.748283 145.440241 
C 397.419648 147.825507 393.687699 149.590588 389.7322 150.65046 
C 385.776701 151.710333 381.662198 152.047703 377.586883 151.64632 
C 373.511568 151.244936 369.541942 150.111349 365.869217 148.300162 
C 362.196493 146.488974 358.880603 144.029743 356.081269 141.040924 
C 353.281935 138.052106 351.044839 134.582474 349.477737 130.799156 
C 347.910635 127.015838 347.039101 122.980571 346.905115 118.88773 
C 346.77113 114.794888 347.376879 110.71126 348.693184 106.833549 
C 350.00949 102.955838 352.014872 99.347322 354.612734 96.181817 
C 357.210596 93.016313 360.358545 90.345477 363.904949 88.29796 
" clip-path="url(#p3f2e325c77)" style="fill: none; stroke: #b0b0b0; stroke-width: 0.8; stroke-linecap: square"/>
     </g>
     <g id="text_29">
      <!-- 1 -->
      <g transform="translate(367.249881 86.840173)scale(0.12 -0.12)">
       <use xlink:href="#ArialMT-31"/>
      </g>
     </g>
    </g>
    <g id="ytick_7">
     <g id="line2d_33">
      <path d="M 380.923006 68.196382 
C 386.887918 68.196382 392.804162 69.272879 398.386759 71.374019 
C 403.969356 73.47516 409.127208 76.566657 413.611866 80.499597 
C 418.096525 84.432538 421.834809 89.142742 424.646649 94.403325 
C 427.458489 99.663908 429.298002 105.389027 430.076579 111.302909 
C 430.855156 117.21679 430.560094 123.222931 429.205604 129.032022 
C 427.851114 134.841113 425.459299 140.35836 422.145371 145.318004 
C 418.831443 150.277647 414.64948 154.598754 409.80092 158.073183 
C 404.952361 161.547611 399.516326 164.118664 393.754663 165.662497 
C 387.993 167.20633 381.999729 167.69775 376.063539 167.113087 
C 370.12735 166.528423 364.345109 164.877216 358.995342 162.239003 
C 353.645574 159.60079 348.815579 156.018621 344.738011 151.665046 
C 340.660442 147.31147 337.40184 142.257531 335.119167 136.74667 
C 332.836494 131.23581 331.566999 125.357956 331.371832 119.396237 
C 331.176666 113.434518 332.059013 107.48622 333.976371 101.837864 
C 335.893729 96.189509 338.814811 90.933268 342.598911 86.322328 
C 346.383012 81.711388 350.968381 77.820992 356.134147 74.838536 
" clip-path="url(#p3f2e325c77)" style="fill: none; stroke: #b0b0b0; stroke-width: 0.8; stroke-linecap: square"/>
     </g>
     <g id="text_30">
      <!-- 2 -->
      <g transform="translate(367.249881 71.298569)scale(0.12 -0.12)">
       <use xlink:href="#ArialMT-32"/>
      </g>
     </g>
    </g>
    <g id="ytick_8">
     <g id="line2d_34">
      <path d="M 380.923006 52.654777 
C 388.757797 52.654777 396.528662 54.068734 403.86129 56.82854 
C 411.193917 59.588345 417.96865 63.648964 423.859158 68.814801 
C 429.749666 73.980637 434.659825 80.167395 438.35312 87.077063 
C 442.046415 93.986732 444.462577 101.506559 445.485223 109.274322 
C 446.507868 117.042085 446.120309 124.931029 444.341214 132.561152 
C 442.562119 140.191274 439.42052 147.438066 435.067743 153.952456 
C 430.714966 160.466847 425.222042 166.142533 418.853558 170.706124 
C 412.485074 175.269715 405.344953 178.646741 397.777126 180.674534 
C 390.209299 182.702327 382.33726 183.347798 374.540196 182.579854 
C 366.743131 181.81191 359.148276 179.643084 352.121466 176.177844 
C 345.094655 172.712605 338.750555 168.007499 333.394752 162.289167 
C 328.038949 156.570834 323.758841 149.932588 320.760597 142.694185 
C 317.762352 135.455782 316.094896 127.73534 315.838549 119.904744 
C 315.582202 112.074148 316.741146 104.261179 319.259557 96.842179 
C 321.777968 89.42318 325.61475 82.519214 330.585089 76.462839 
C 335.555428 70.406463 341.578216 65.296508 348.363344 61.379112 
" clip-path="url(#p3f2e325c77)" style="fill: none; stroke: #b0b0b0; stroke-width: 0.8; stroke-linecap: square"/>
     </g>
     <g id="text_31">
      <!-- 3 -->
      <g transform="translate(367.249881 55.756965)scale(0.12 -0.12)">
       <use xlink:href="#ArialMT-33"/>
      </g>
     </g>
    </g>
    <g id="ytick_9">
     <g id="line2d_35">
      <path d="M 380.923006 37.113173 
C 390.627675 37.113173 400.253163 38.86459 409.335821 42.28306 
C 418.418479 45.701531 426.810093 50.731271 434.10645 57.130004 
C 441.402807 63.528737 447.484842 71.192047 452.059592 79.750802 
C 456.634341 88.309556 459.627153 97.624091 460.893867 107.245736 
C 462.16058 116.86738 461.680525 126.639127 459.476825 136.090281 
C 457.273125 145.541435 453.38174 154.517771 447.990115 162.586909 
C 442.598489 170.656047 435.794605 177.686312 427.906196 183.339066 
C 420.017788 188.991819 411.17358 193.174818 401.799589 195.686571 
C 392.425599 198.198325 382.674791 198.997845 373.016852 198.046621 
C 363.358913 197.095397 353.951444 194.408951 345.24759 190.116686 
C 336.543736 185.82442 328.685531 179.996377 322.051493 172.913288 
C 315.417456 165.830198 310.115843 157.607645 306.402027 148.641699 
C 302.68821 139.675754 300.622794 130.112724 300.305266 120.413251 
C 299.987738 110.713777 301.42328 101.036138 304.542744 91.846494 
C 307.662208 82.65685 312.414689 74.10516 318.571266 66.603349 
C 324.727843 59.101538 332.188052 52.772023 340.592542 47.919688 
" clip-path="url(#p3f2e325c77)" style="fill: none; stroke: #b0b0b0; stroke-width: 0.8; stroke-linecap: square"/>
     </g>
     <g id="text_32">
      <!-- 4 -->
      <g transform="translate(367.249881 40.21536)scale(0.12 -0.12)">
       <defs>
        <path id="ArialMT-34" d="M 2069 0 
L 2069 1097 
L 81 1097 
L 81 1613 
L 2172 4581 
L 2631 4581 
L 2631 1613 
L 3250 1613 
L 3250 1097 
L 2631 1097 
L 2631 0 
L 2069 0 
z
M 2069 1613 
L 2069 3678 
L 634 1613 
L 2069 1613 
z
" transform="scale(0.015625)"/>
       </defs>
       <use xlink:href="#ArialMT-34"/>
      </g>
     </g>
    </g>
   </g>
   <g id="line2d_36">
    <path d="M 380.923006 97.016806 
L 392.00516 98.579245 
L 401.301334 106.008666 
L 404.400405 117.774099 
L 403.389493 130.745132 
L 398.135159 147.586424 
L 380.923006 151.223799 
L 363.305054 148.289287 
L 342.739413 139.819407 
L 328.162762 117.774099 
L 339.640392 93.939571 
L 362.500761 85.865835 
" clip-path="url(#p3f2e325c77)" style="fill: none; stroke: #000000; stroke-width: 1.5; stroke-linecap: square"/>
   </g>
   <g id="line2d_37">
    <path d="M 380.923006 89.768407 
L 395.909483 91.816759 
L 409.593954 101.220919 
L 413.957728 117.774099 
L 412.571518 136.046377 
L 405.178455 159.785771 
L 380.923006 166.169768 
L 355.486884 161.830754 
L 325.813406 149.591641 
L 304.767491 117.774099 
L 321.387463 83.401238 
L 354.354672 71.756396 
" clip-path="url(#p3f2e325c77)" style="fill: none; stroke: #52318e; stroke-width: 1.5; stroke-linecap: square"/>
   </g>
   <g id="patch_8">
    <path d="M 340.592542 47.919688 
C 332.188052 52.772023 324.727843 59.101538 318.571266 66.603349 
C 312.414689 74.10516 307.662208 82.65685 304.542744 91.846494 
C 301.42328 101.036138 299.987738 110.713777 300.305266 120.413251 
C 300.622794 130.112724 302.68821 139.675754 306.402027 148.641699 
C 310.115843 157.607645 315.417456 165.830198 322.051493 172.913288 
C 328.685531 179.996377 336.543736 185.82442 345.24759 190.116686 
C 353.951444 194.408951 363.358913 197.095397 373.016852 198.046621 
C 382.674791 198.997845 392.425599 198.198325 401.799589 195.686571 
C 411.17358 193.174818 420.017788 188.991819 427.906196 183.339066 
C 435.794605 177.686312 442.598489 170.656047 447.990115 162.586909 
C 453.38174 154.517771 457.273125 145.541435 459.476825 136.090281 
C 461.680525 126.639127 462.16058 116.86738 460.893867 107.245736 
C 459.627153 97.624091 456.634341 88.309556 452.059592 79.750802 
C 447.484842 71.192047 441.402807 63.528737 434.10645 57.130004 
C 426.810093 50.731271 418.418479 45.701531 409.335821 42.28306 
C 400.253163 38.86459 390.627675 37.113173 380.923006 37.113173 
" style="fill: none; stroke: #000000; stroke-width: 0.8; stroke-linejoin: miter; stroke-linecap: square"/>
   </g>
   <g id="patch_9">
    <path d="M 380.923006 117.774099 
L 380.923006 37.113173 
" style="fill: none; stroke: #000000; stroke-width: 0.8; stroke-linejoin: miter; stroke-linecap: square"/>
   </g>
   <g id="patch_10">
    <path d="M 380.923006 117.774099 
L 340.592542 47.919688 
" style="fill: none; stroke: #000000; stroke-width: 0.8; stroke-linejoin: miter; stroke-linecap: square"/>
   </g>
   <g id="text_33">
    <!-- Methanol [USD kg$^\mathrm{-1}$] -->
    <g transform="translate(311.354159 19.8)scale(0.14 -0.14)">
     <defs>
      <path id="Arial-BoldMT-4d" d="M 453 0 
L 453 4581 
L 1838 4581 
L 2669 1456 
L 3491 4581 
L 4878 4581 
L 4878 0 
L 4019 0 
L 4019 3606 
L 3109 0 
L 2219 0 
L 1313 3606 
L 1313 0 
L 453 0 
z
" transform="scale(0.015625)"/>
      <path id="Arial-BoldMT-65" d="M 2381 1056 
L 3256 909 
Q 3088 428 2723 176 
Q 2359 -75 1813 -75 
Q 947 -75 531 491 
Q 203 944 203 1634 
Q 203 2459 634 2926 
Q 1066 3394 1725 3394 
Q 2466 3394 2894 2905 
Q 3322 2416 3303 1406 
L 1103 1406 
Q 1113 1016 1316 798 
Q 1519 581 1822 581 
Q 2028 581 2168 693 
Q 2309 806 2381 1056 
z
M 2431 1944 
Q 2422 2325 2234 2523 
Q 2047 2722 1778 2722 
Q 1491 2722 1303 2513 
Q 1116 2303 1119 1944 
L 2431 1944 
z
" transform="scale(0.015625)"/>
      <path id="Arial-BoldMT-74" d="M 1981 3319 
L 1981 2619 
L 1381 2619 
L 1381 1281 
Q 1381 875 1398 808 
Q 1416 741 1477 697 
Q 1538 653 1625 653 
Q 1747 653 1978 738 
L 2053 56 
Q 1747 -75 1359 -75 
Q 1122 -75 931 4 
Q 741 84 652 211 
Q 563 338 528 553 
Q 500 706 500 1172 
L 500 2619 
L 97 2619 
L 97 3319 
L 500 3319 
L 500 3978 
L 1381 4491 
L 1381 3319 
L 1981 3319 
z
" transform="scale(0.015625)"/>
      <path id="Arial-BoldMT-68" d="M 1334 4581 
L 1334 2897 
Q 1759 3394 2350 3394 
Q 2653 3394 2897 3281 
Q 3141 3169 3264 2994 
Q 3388 2819 3433 2606 
Q 3478 2394 3478 1947 
L 3478 0 
L 2600 0 
L 2600 1753 
Q 2600 2275 2550 2415 
Q 2500 2556 2373 2639 
Q 2247 2722 2056 2722 
Q 1838 2722 1666 2615 
Q 1494 2509 1414 2295 
Q 1334 2081 1334 1663 
L 1334 0 
L 456 0 
L 456 4581 
L 1334 4581 
z
" transform="scale(0.015625)"/>
      <path id="Arial-BoldMT-6c" d="M 459 0 
L 459 4581 
L 1338 4581 
L 1338 0 
L 459 0 
z
" transform="scale(0.015625)"/>
     </defs>
     <use xlink:href="#Arial-BoldMT-4d" transform="translate(0 0.684375)"/>
     <use xlink:href="#Arial-BoldMT-65" transform="translate(83.300781 0.684375)"/>
     <use xlink:href="#Arial-BoldMT-74" transform="translate(138.916016 0.684375)"/>
     <use xlink:href="#Arial-BoldMT-68" transform="translate(172.216797 0.684375)"/>
     <use xlink:href="#Arial-BoldMT-61" transform="translate(233.300781 0.684375)"/>
     <use xlink:href="#Arial-BoldMT-6e" transform="translate(288.916016 0.684375)"/>
     <use xlink:href="#Arial-BoldMT-6f" transform="translate(350 0.684375)"/>
     <use xlink:href="#Arial-BoldMT-6c" transform="translate(411.083984 0.684375)"/>
     <use xlink:href="#Arial-BoldMT-20" transform="translate(438.867188 0.684375)"/>
     <use xlink:href="#Arial-BoldMT-5b" transform="translate(466.650391 0.684375)"/>
     <use xlink:href="#Arial-BoldMT-55" transform="translate(499.951172 0.684375)"/>
     <use xlink:href="#Arial-BoldMT-53" transform="translate(572.167969 0.684375)"/>
     <use xlink:href="#Arial-BoldMT-44" transform="translate(638.867188 0.684375)"/>
     <use xlink:href="#Arial-BoldMT-20" transform="translate(711.083984 0.684375)"/>
     <use xlink:href="#Arial-BoldMT-6b" transform="translate(738.867188 0.684375)"/>
     <use xlink:href="#Arial-BoldMT-67" transform="translate(794.482422 0.684375)"/>
     <use xlink:href="#DejaVuSans-2212" transform="translate(856.523438 38.965625)scale(0.7)"/>
     <use xlink:href="#DejaVuSans-31" transform="translate(915.175781 38.965625)scale(0.7)"/>
     <use xlink:href="#Arial-BoldMT-5d" transform="translate(962.446289 0.684375)"/>
    </g>
   </g>
   <g id="PolyCollection_2">
    <defs>
     <path id="maff9d2f42f" d="M 380.923006 -156.90463 
L 380.923006 -139.031785 
L 380.923006 -139.031785 
L 380.923006 -139.031785 
L 380.923006 -139.031785 
L 380.923006 -139.031785 
L 380.923006 -139.031785 
L 380.923006 -139.031785 
L 380.923006 -139.031785 
L 380.923006 -139.031785 
L 380.923006 -139.031785 
L 380.923006 -139.031785 
L 380.923006 -139.031785 
L 380.923006 -139.031785 
L 380.923006 -139.031785 
L 380.923006 -139.031785 
L 380.923006 -139.031785 
L 380.923006 -139.031785 
L 380.923006 -139.031785 
L 380.923006 -139.031785 
L 380.923006 -139.031785 
L 380.923006 -139.031785 
L 380.923006 -139.031785 
L 380.923006 -139.031785 
L 380.923006 -139.031785 
L 380.923006 -139.031785 
L 380.923006 -139.031785 
L 380.923006 -139.031785 
L 380.923006 -139.031785 
L 380.923006 -139.031785 
L 380.923006 -139.031785 
L 380.923006 -139.031785 
L 380.923006 -139.031785 
L 380.923006 -139.031785 
L 380.923006 -139.031785 
L 380.923006 -139.031785 
L 380.923006 -139.031785 
L 380.923006 -139.031785 
L 380.923006 -139.031785 
L 380.923006 -139.031785 
L 380.923006 -139.031785 
L 380.923006 -139.031785 
L 380.923006 -139.031785 
L 380.923006 -139.031785 
L 380.923006 -139.031785 
L 380.923006 -139.031785 
L 380.923006 -139.031785 
L 380.923006 -139.031785 
L 380.923006 -156.90463 
L 380.923006 -156.90463 
L 377.819419 -156.633101 
L 374.810133 -155.826765 
L 371.986583 -154.510123 
L 370.042707 -153.211266 
L 368.284996 -151.669795 
L 366.743524 -149.912083 
L 365.444668 -147.968207 
L 364.128025 -145.144658 
L 363.321689 -142.135372 
L 363.050161 -139.031785 
L 363.14807 -137.163564 
L 363.440725 -135.315811 
L 363.92492 -133.508772 
L 364.595349 -131.762244 
L 365.444668 -130.095362 
L 366.743524 -128.151486 
L 368.284996 -126.393775 
L 370.042707 -124.852304 
L 371.986583 -123.553447 
L 374.810133 -122.236804 
L 377.819419 -121.430468 
L 380.923006 -121.15894 
L 382.791227 -121.256849 
L 384.638979 -121.549504 
L 386.446018 -122.033699 
L 388.192547 -122.704128 
L 389.859428 -123.553447 
L 391.803304 -124.852304 
L 393.561015 -126.393775 
L 395.102487 -128.151486 
L 396.401343 -130.095362 
L 397.717986 -132.918912 
L 398.524322 -135.928198 
L 398.795851 -139.031785 
L 398.697941 -140.900006 
L 398.405286 -142.747758 
L 397.921091 -144.554798 
L 397.250662 -146.301326 
L 396.401343 -147.968207 
L 395.102487 -149.912083 
L 393.561015 -151.669795 
L 391.803304 -153.211266 
L 389.859428 -154.510123 
L 387.035879 -155.826765 
L 384.026592 -156.633101 
L 380.923006 -156.90463 
z
" style="stroke: #ffffff"/>
    </defs>
    <g>
     <use xlink:href="#maff9d2f42f" x="0" y="256.805884" style="fill: #ffffff; stroke: #ffffff"/>
    </g>
   </g>
   <g id="PathCollection_3">
    <defs>
     <path id="me48c5c0399" d="M 0 2.738613 
L 2.738613 0 
L 0 -2.738613 
L -2.738613 0 
z
" style="stroke: #000000"/>
    </defs>
    <g>
     <use xlink:href="#me48c5c0399" x="380.923006" y="97.016806" style="fill: #ffffff; stroke: #000000"/>
     <use xlink:href="#me48c5c0399" x="392.00516" y="98.579245" style="fill: #ffffff; stroke: #000000"/>
     <use xlink:href="#me48c5c0399" x="401.301334" y="106.008666" style="fill: #ffffff; stroke: #000000"/>
     <use xlink:href="#me48c5c0399" x="404.400405" y="117.774099" style="fill: #ffffff; stroke: #000000"/>
     <use xlink:href="#me48c5c0399" x="403.389493" y="130.745132" style="fill: #ffffff; stroke: #000000"/>
     <use xlink:href="#me48c5c0399" x="398.135159" y="147.586424" style="fill: #ffffff; stroke: #000000"/>
     <use xlink:href="#me48c5c0399" x="380.923006" y="151.223799" style="fill: #ffffff; stroke: #000000"/>
     <use xlink:href="#me48c5c0399" x="363.305054" y="148.289287" style="fill: #ffffff; stroke: #000000"/>
     <use xlink:href="#me48c5c0399" x="342.739413" y="139.819407" style="fill: #ffffff; stroke: #000000"/>
     <use xlink:href="#me48c5c0399" x="328.162762" y="117.774099" style="fill: #ffffff; stroke: #000000"/>
     <use xlink:href="#me48c5c0399" x="339.640392" y="93.939571" style="fill: #ffffff; stroke: #000000"/>
     <use xlink:href="#me48c5c0399" x="362.500761" y="85.865835" style="fill: #ffffff; stroke: #000000"/>
    </g>
   </g>
   <g id="PathCollection_4">
    <g>
     <use xlink:href="#m7dc4c6ed75" x="380.923006" y="89.768407" style="fill: #a78dd8; stroke: #52318e"/>
     <use xlink:href="#m7dc4c6ed75" x="395.909483" y="91.816759" style="fill: #a78dd8; stroke: #52318e"/>
     <use xlink:href="#m7dc4c6ed75" x="409.593954" y="101.220919" style="fill: #a78dd8; stroke: #52318e"/>
     <use xlink:href="#m7dc4c6ed75" x="413.957728" y="117.774099" style="fill: #a78dd8; stroke: #52318e"/>
     <use xlink:href="#m7dc4c6ed75" x="412.571518" y="136.046377" style="fill: #a78dd8; stroke: #52318e"/>
     <use xlink:href="#m7dc4c6ed75" x="405.178455" y="159.785771" style="fill: #a78dd8; stroke: #52318e"/>
     <use xlink:href="#m7dc4c6ed75" x="380.923006" y="166.169768" style="fill: #a78dd8; stroke: #52318e"/>
     <use xlink:href="#m7dc4c6ed75" x="355.486884" y="161.830754" style="fill: #a78dd8; stroke: #52318e"/>
     <use xlink:href="#m7dc4c6ed75" x="325.813406" y="149.591641" style="fill: #a78dd8; stroke: #52318e"/>
     <use xlink:href="#m7dc4c6ed75" x="304.767491" y="117.774099" style="fill: #a78dd8; stroke: #52318e"/>
     <use xlink:href="#m7dc4c6ed75" x="321.387463" y="83.401238" style="fill: #a78dd8; stroke: #52318e"/>
     <use xlink:href="#m7dc4c6ed75" x="354.354672" y="71.756396" style="fill: #a78dd8; stroke: #52318e"/>
    </g>
   </g>
  </g>
  <g id="legend_1">
   <g id="line2d_38">
    <path d="M 76.60286 238.220884 
L 88.60286 238.220884 
L 100.60286 238.220884 
" style="fill: none; stroke: #000000; stroke-opacity: 0; stroke-width: 1.5; stroke-linecap: square"/>
    <defs>
     <path id="m2741b55902" d="M -2.5 2.5 
L 2.5 2.5 
L 2.5 -2.5 
L -2.5 -2.5 
z
" style="stroke: #000000; stroke-linejoin: miter"/>
    </defs>
    <g>
     <use xlink:href="#m2741b55902" x="88.60286" y="238.220884" style="fill: #ffffff; stroke: #000000; stroke-linejoin: miter"/>
    </g>
   </g>
   <g id="text_34">
    <!-- Fossil ammonia -->
    <g transform="translate(101.80286 242.420884)scale(0.12 -0.12)">
     <defs>
      <path id="ArialMT-46" d="M 525 0 
L 525 4581 
L 3616 4581 
L 3616 4041 
L 1131 4041 
L 1131 2622 
L 3281 2622 
L 3281 2081 
L 1131 2081 
L 1131 0 
L 525 0 
z
" transform="scale(0.015625)"/>
      <path id="ArialMT-73" d="M 197 991 
L 753 1078 
Q 800 744 1014 566 
Q 1228 388 1613 388 
Q 2000 388 2187 545 
Q 2375 703 2375 916 
Q 2375 1106 2209 1216 
Q 2094 1291 1634 1406 
Q 1016 1563 777 1677 
Q 538 1791 414 1992 
Q 291 2194 291 2438 
Q 291 2659 392 2848 
Q 494 3038 669 3163 
Q 800 3259 1026 3326 
Q 1253 3394 1513 3394 
Q 1903 3394 2198 3281 
Q 2494 3169 2634 2976 
Q 2775 2784 2828 2463 
L 2278 2388 
Q 2241 2644 2061 2787 
Q 1881 2931 1553 2931 
Q 1166 2931 1000 2803 
Q 834 2675 834 2503 
Q 834 2394 903 2306 
Q 972 2216 1119 2156 
Q 1203 2125 1616 2013 
Q 2213 1853 2448 1751 
Q 2684 1650 2818 1456 
Q 2953 1263 2953 975 
Q 2953 694 2789 445 
Q 2625 197 2315 61 
Q 2006 -75 1616 -75 
Q 969 -75 630 194 
Q 291 463 197 991 
z
" transform="scale(0.015625)"/>
      <path id="ArialMT-69" d="M 425 3934 
L 425 4581 
L 988 4581 
L 988 3934 
L 425 3934 
z
M 425 0 
L 425 3319 
L 988 3319 
L 988 0 
L 425 0 
z
" transform="scale(0.015625)"/>
      <path id="ArialMT-6d" d="M 422 0 
L 422 3319 
L 925 3319 
L 925 2853 
Q 1081 3097 1340 3245 
Q 1600 3394 1931 3394 
Q 2300 3394 2536 3241 
Q 2772 3088 2869 2813 
Q 3263 3394 3894 3394 
Q 4388 3394 4653 3120 
Q 4919 2847 4919 2278 
L 4919 0 
L 4359 0 
L 4359 2091 
Q 4359 2428 4304 2576 
Q 4250 2725 4106 2815 
Q 3963 2906 3769 2906 
Q 3419 2906 3187 2673 
Q 2956 2441 2956 1928 
L 2956 0 
L 2394 0 
L 2394 2156 
Q 2394 2531 2256 2718 
Q 2119 2906 1806 2906 
Q 1569 2906 1367 2781 
Q 1166 2656 1075 2415 
Q 984 2175 984 1722 
L 984 0 
L 422 0 
z
" transform="scale(0.015625)"/>
     </defs>
     <use xlink:href="#ArialMT-46"/>
     <use xlink:href="#ArialMT-6f" x="61.083984"/>
     <use xlink:href="#ArialMT-73" x="116.699219"/>
     <use xlink:href="#ArialMT-73" x="166.699219"/>
     <use xlink:href="#ArialMT-69" x="216.699219"/>
     <use xlink:href="#ArialMT-6c" x="238.916016"/>
     <use xlink:href="#ArialMT-20" x="261.132812"/>
     <use xlink:href="#ArialMT-61" x="288.916016"/>
     <use xlink:href="#ArialMT-6d" x="344.53125"/>
     <use xlink:href="#ArialMT-6d" x="427.832031"/>
     <use xlink:href="#ArialMT-6f" x="511.132812"/>
     <use xlink:href="#ArialMT-6e" x="566.748047"/>
     <use xlink:href="#ArialMT-69" x="622.363281"/>
     <use xlink:href="#ArialMT-61" x="644.580078"/>
    </g>
   </g>
   <g id="line2d_39">
    <path d="M 209.82161 238.220884 
L 221.82161 238.220884 
L 233.82161 238.220884 
" style="fill: none; stroke: #000000; stroke-opacity: 0; stroke-width: 1.5; stroke-linecap: square"/>
    <defs>
     <path id="m7c242afa7e" d="M 0 3.535534 
L 3.535534 0 
L 0 -3.535534 
L -3.535534 0 
z
" style="stroke: #000000; stroke-linejoin: miter"/>
    </defs>
    <g>
     <use xlink:href="#m7c242afa7e" x="221.82161" y="238.220884" style="fill: #ffffff; stroke: #000000; stroke-linejoin: miter"/>
    </g>
   </g>
   <g id="text_35">
    <!-- Fossil methanol -->
    <g transform="translate(235.02161 242.420884)scale(0.12 -0.12)">
     <defs>
      <path id="ArialMT-68" d="M 422 0 
L 422 4581 
L 984 4581 
L 984 2938 
Q 1378 3394 1978 3394 
Q 2347 3394 2619 3248 
Q 2891 3103 3008 2847 
Q 3125 2591 3125 2103 
L 3125 0 
L 2563 0 
L 2563 2103 
Q 2563 2525 2380 2717 
Q 2197 2909 1863 2909 
Q 1613 2909 1392 2779 
Q 1172 2650 1078 2428 
Q 984 2206 984 1816 
L 984 0 
L 422 0 
z
" transform="scale(0.015625)"/>
     </defs>
     <use xlink:href="#ArialMT-46"/>
     <use xlink:href="#ArialMT-6f" x="61.083984"/>
     <use xlink:href="#ArialMT-73" x="116.699219"/>
     <use xlink:href="#ArialMT-73" x="166.699219"/>
     <use xlink:href="#ArialMT-69" x="216.699219"/>
     <use xlink:href="#ArialMT-6c" x="238.916016"/>
     <use xlink:href="#ArialMT-20" x="261.132812"/>
     <use xlink:href="#ArialMT-6d" x="288.916016"/>
     <use xlink:href="#ArialMT-65" x="372.216797"/>
     <use xlink:href="#ArialMT-74" x="427.832031"/>
     <use xlink:href="#ArialMT-68" x="455.615234"/>
     <use xlink:href="#ArialMT-61" x="511.230469"/>
     <use xlink:href="#ArialMT-6e" x="566.845703"/>
     <use xlink:href="#ArialMT-6f" x="622.460938"/>
     <use xlink:href="#ArialMT-6c" x="678.076172"/>
    </g>
   </g>
   <g id="line2d_40">
    <path d="M 343.05161 238.220884 
L 355.05161 238.220884 
L 367.05161 238.220884 
" style="fill: none; stroke: #000000; stroke-opacity: 0; stroke-width: 1.5; stroke-linecap: square"/>
    <defs>
     <path id="m99513f8ce6" d="M 0 3.535534 
L 2.12132 0 
L 0 -3.535534 
L -2.12132 0 
z
" style="stroke: #52318e; stroke-linejoin: miter"/>
    </defs>
    <g>
     <use xlink:href="#m99513f8ce6" x="355.05161" y="238.220884" style="fill: #a78dd8; stroke: #52318e; stroke-linejoin: miter"/>
    </g>
   </g>
   <g id="text_36">
    <!-- H$_\mathrm{2}$ SMR$_\mathrm{CCS}$ -->
    <g transform="translate(368.25161 242.420884)scale(0.12 -0.12)">
     <defs>
      <path id="ArialMT-48" d="M 513 0 
L 513 4581 
L 1119 4581 
L 1119 2700 
L 3500 2700 
L 3500 4581 
L 4106 4581 
L 4106 0 
L 3500 0 
L 3500 2159 
L 1119 2159 
L 1119 0 
L 513 0 
z
" transform="scale(0.015625)"/>
      <path id="DejaVuSans-32" d="M 1228 531 
L 3431 531 
L 3431 0 
L 469 0 
L 469 531 
Q 828 903 1448 1529 
Q 2069 2156 2228 2338 
Q 2531 2678 2651 2914 
Q 2772 3150 2772 3378 
Q 2772 3750 2511 3984 
Q 2250 4219 1831 4219 
Q 1534 4219 1204 4116 
Q 875 4013 500 3803 
L 500 4441 
Q 881 4594 1212 4672 
Q 1544 4750 1819 4750 
Q 2544 4750 2975 4387 
Q 3406 4025 3406 3419 
Q 3406 3131 3298 2873 
Q 3191 2616 2906 2266 
Q 2828 2175 2409 1742 
Q 1991 1309 1228 531 
z
" transform="scale(0.015625)"/>
      <path id="ArialMT-4d" d="M 475 0 
L 475 4581 
L 1388 4581 
L 2472 1338 
Q 2622 884 2691 659 
Q 2769 909 2934 1394 
L 4031 4581 
L 4847 4581 
L 4847 0 
L 4263 0 
L 4263 3834 
L 2931 0 
L 2384 0 
L 1059 3900 
L 1059 0 
L 475 0 
z
" transform="scale(0.015625)"/>
      <path id="ArialMT-52" d="M 503 0 
L 503 4581 
L 2534 4581 
Q 3147 4581 3465 4457 
Q 3784 4334 3975 4021 
Q 4166 3709 4166 3331 
Q 4166 2844 3850 2509 
Q 3534 2175 2875 2084 
Q 3116 1969 3241 1856 
Q 3506 1613 3744 1247 
L 4541 0 
L 3778 0 
L 3172 953 
Q 2906 1366 2734 1584 
Q 2563 1803 2427 1890 
Q 2291 1978 2150 2013 
Q 2047 2034 1813 2034 
L 1109 2034 
L 1109 0 
L 503 0 
z
M 1109 2559 
L 2413 2559 
Q 2828 2559 3062 2645 
Q 3297 2731 3419 2920 
Q 3541 3109 3541 3331 
Q 3541 3656 3305 3865 
Q 3069 4075 2559 4075 
L 1109 4075 
L 1109 2559 
z
" transform="scale(0.015625)"/>
      <path id="DejaVuSans-43" d="M 4122 4306 
L 4122 3641 
Q 3803 3938 3442 4084 
Q 3081 4231 2675 4231 
Q 1875 4231 1450 3742 
Q 1025 3253 1025 2328 
Q 1025 1406 1450 917 
Q 1875 428 2675 428 
Q 3081 428 3442 575 
Q 3803 722 4122 1019 
L 4122 359 
Q 3791 134 3420 21 
Q 3050 -91 2638 -91 
Q 1578 -91 968 557 
Q 359 1206 359 2328 
Q 359 3453 968 4101 
Q 1578 4750 2638 4750 
Q 3056 4750 3426 4639 
Q 3797 4528 4122 4306 
z
" transform="scale(0.015625)"/>
      <path id="DejaVuSans-53" d="M 3425 4513 
L 3425 3897 
Q 3066 4069 2747 4153 
Q 2428 4238 2131 4238 
Q 1616 4238 1336 4038 
Q 1056 3838 1056 3469 
Q 1056 3159 1242 3001 
Q 1428 2844 1947 2747 
L 2328 2669 
Q 3034 2534 3370 2195 
Q 3706 1856 3706 1288 
Q 3706 609 3251 259 
Q 2797 -91 1919 -91 
Q 1588 -91 1214 -16 
Q 841 59 441 206 
L 441 856 
Q 825 641 1194 531 
Q 1563 422 1919 422 
Q 2459 422 2753 634 
Q 3047 847 3047 1241 
Q 3047 1584 2836 1778 
Q 2625 1972 2144 2069 
L 1759 2144 
Q 1053 2284 737 2584 
Q 422 2884 422 3419 
Q 422 4038 858 4394 
Q 1294 4750 2059 4750 
Q 2388 4750 2728 4690 
Q 3069 4631 3425 4513 
z
" transform="scale(0.015625)"/>
     </defs>
     <use xlink:href="#ArialMT-48" transform="translate(0 0.203125)"/>
     <use xlink:href="#DejaVuSans-32" transform="translate(73.173828 -16.203125)scale(0.7)"/>
     <use xlink:href="#ArialMT-20" transform="translate(120.444336 0.203125)"/>
     <use xlink:href="#ArialMT-53" transform="translate(148.227539 0.203125)"/>
     <use xlink:href="#ArialMT-4d" transform="translate(214.926758 0.203125)"/>
     <use xlink:href="#ArialMT-52" transform="translate(298.227539 0.203125)"/>
     <use xlink:href="#DejaVuSans-43" transform="translate(371.401367 -16.203125)scale(0.7)"/>
     <use xlink:href="#DejaVuSans-43" transform="translate(420.27832 -16.203125)scale(0.7)"/>
     <use xlink:href="#DejaVuSans-53" transform="translate(469.155273 -16.203125)scale(0.7)"/>
    </g>
   </g>
  </g>
 </g>
 <defs>
  <clipPath id="p8110b51fb7">
   <path d="M 87.872542 47.919688 
C 79.468052 52.772023 72.007843 59.101538 65.851266 66.603349 
C 59.694689 74.10516 54.942208 82.65685 51.822744 91.846494 
C 48.70328 101.036138 47.267738 110.713777 47.585266 120.413251 
C 47.902794 130.112724 49.96821 139.675754 53.682027 148.641699 
C 57.395843 157.607645 62.697456 165.830198 69.331493 172.913288 
C 75.965531 179.996377 83.823736 185.82442 92.52759 190.116686 
C 101.231444 194.408951 110.638913 197.095397 120.296852 198.046621 
C 129.954791 198.997845 139.705599 198.198325 149.079589 195.686571 
C 158.45358 193.174818 167.297788 188.991819 175.186196 183.339066 
C 183.074605 177.686312 189.878489 170.656047 195.270115 162.586909 
C 200.66174 154.517771 204.553125 145.541435 206.756825 136.090281 
C 208.960525 126.639127 209.44058 116.86738 208.173867 107.245736 
C 206.907153 97.624091 203.914341 88.309556 199.339592 79.750802 
C 194.764842 71.192047 188.682807 63.528737 181.38645 57.130004 
C 174.090093 50.731271 165.698479 45.701531 156.615821 42.28306 
C 147.533163 38.86459 137.907675 37.113173 128.203006 37.113173 
L 128.203006 117.774099 
C 128.203006 117.774099 128.203006 117.774099 128.203006 117.774099 
C 128.203006 117.774099 128.203006 117.774099 128.203006 117.774099 
C 128.203006 117.774099 128.203006 117.774099 128.203006 117.774099 
C 128.203006 117.774099 128.203006 117.774099 128.203006 117.774099 
C 128.203006 117.774099 128.203006 117.774099 128.203006 117.774099 
C 128.203006 117.774099 128.203006 117.774099 128.203006 117.774099 
C 128.203006 117.774099 128.203006 117.774099 128.203006 117.774099 
C 128.203006 117.774099 128.203006 117.774099 128.203006 117.774099 
C 128.203006 117.774099 128.203006 117.774099 128.203006 117.774099 
C 128.203006 117.774099 128.203006 117.774099 128.203006 117.774099 
C 128.203006 117.774099 128.203006 117.774099 128.203006 117.774099 
C 128.203006 117.774099 128.203006 117.774099 128.203006 117.774099 
C 128.203006 117.774099 128.203006 117.774099 128.203006 117.774099 
C 128.203006 117.774099 128.203006 117.774099 128.203006 117.774099 
C 128.203006 117.774099 128.203006 117.774099 128.203006 117.774099 
C 128.203006 117.774099 128.203006 117.774099 128.203006 117.774099 
L 87.872542 47.919688 
z
"/>
  </clipPath>
  <clipPath id="p3f2e325c77">
   <path d="M 340.592542 47.919688 
C 332.188052 52.772023 324.727843 59.101538 318.571266 66.603349 
C 312.414689 74.10516 307.662208 82.65685 304.542744 91.846494 
C 301.42328 101.036138 299.987738 110.713777 300.305266 120.413251 
C 300.622794 130.112724 302.68821 139.675754 306.402027 148.641699 
C 310.115843 157.607645 315.417456 165.830198 322.051493 172.913288 
C 328.685531 179.996377 336.543736 185.82442 345.24759 190.116686 
C 353.951444 194.408951 363.358913 197.095397 373.016852 198.046621 
C 382.674791 198.997845 392.425599 198.198325 401.799589 195.686571 
C 411.17358 193.174818 420.017788 188.991819 427.906196 183.339066 
C 435.794605 177.686312 442.598489 170.656047 447.990115 162.586909 
C 453.38174 154.517771 457.273125 145.541435 459.476825 136.090281 
C 461.680525 126.639127 462.16058 116.86738 460.893867 107.245736 
C 459.627153 97.624091 456.634341 88.309556 452.059592 79.750802 
C 447.484842 71.192047 441.402807 63.528737 434.10645 57.130004 
C 426.810093 50.731271 418.418479 45.701531 409.335821 42.28306 
C 400.253163 38.86459 390.627675 37.113173 380.923006 37.113173 
L 380.923006 117.774099 
C 380.923006 117.774099 380.923006 117.774099 380.923006 117.774099 
C 380.923006 117.774099 380.923006 117.774099 380.923006 117.774099 
C 380.923006 117.774099 380.923006 117.774099 380.923006 117.774099 
C 380.923006 117.774099 380.923006 117.774099 380.923006 117.774099 
C 380.923006 117.774099 380.923006 117.774099 380.923006 117.774099 
C 380.923006 117.774099 380.923006 117.774099 380.923006 117.774099 
C 380.923006 117.774099 380.923006 117.774099 380.923006 117.774099 
C 380.923006 117.774099 380.923006 117.774099 380.923006 117.774099 
C 380.923006 117.774099 380.923006 117.774099 380.923006 117.774099 
C 380.923006 117.774099 380.923006 117.774099 380.923006 117.774099 
C 380.923006 117.774099 380.923006 117.774099 380.923006 117.774099 
C 380.923006 117.774099 380.923006 117.774099 380.923006 117.774099 
C 380.923006 117.774099 380.923006 117.774099 380.923006 117.774099 
C 380.923006 117.774099 380.923006 117.774099 380.923006 117.774099 
C 380.923006 117.774099 380.923006 117.774099 380.923006 117.774099 
C 380.923006 117.774099 380.923006 117.774099 380.923006 117.774099 
L 340.592542 47.919688 
z
"/>
  </clipPath>
 </defs>
</svg>
