<?xml version="1.0" encoding="utf-8" standalone="no"?>
<!DOCTYPE svg PUBLIC "-//W3C//DTD SVG 1.1//EN"
  "http://www.w3.org/Graphics/SVG/1.1/DTD/svg11.dtd">
<svg xmlns:xlink="http://www.w3.org/1999/xlink" width="373.68pt" height="338.4pt" viewBox="0 0 373.68 338.4" xmlns="http://www.w3.org/2000/svg" version="1.1">
 <metadata>
  <rdf:RDF xmlns:dc="http://purl.org/dc/elements/1.1/" xmlns:cc="http://creativecommons.org/ns#" xmlns:rdf="http://www.w3.org/1999/02/22-rdf-syntax-ns#">
   <cc:Work>
    <dc:type rdf:resource="http://purl.org/dc/dcmitype/StillImage"/>
    <dc:date>2023-03-23T21:07:35.191730</dc:date>
    <dc:format>image/svg+xml</dc:format>
    <dc:creator>
     <cc:Agent>
      <dc:title>Matplotlib v3.5.1, https://matplotlib.org/</dc:title>
     </cc:Agent>
    </dc:creator>
   </cc:Work>
  </rdf:RDF>
 </metadata>
 <defs>
  <style type="text/css">*{stroke-linejoin: round; stroke-linecap: butt}</style>
 </defs>
 <g id="figure_1">
  <g id="patch_1">
   <path d="M 0 338.4 
L 373.68 338.4 
L 373.68 0 
L 0 0 
z
" style="fill: #ffffff"/>
  </g>
  <g id="axes_1">
   <g id="patch_2">
    <path d="M 48.32 313.225625 
L 366.48 313.225625 
L 366.48 7.2 
L 48.32 7.2 
z
" style="fill: #ffffff"/>
   </g>
   <g id="line2d_1">
    <path d="M 62.781818 283.245698 
L 77.243636 288.543521 
L 91.705455 291.952197 
L 106.167273 293.019975 
L 120.629091 295.401942 
L 135.090909 298.482072 
L 149.552727 298.358867 
L 164.014545 298.112456 
L 178.476364 295.935831 
L 192.938182 292.445018 
L 207.4 292.075402 
L 221.861818 294.252027 
L 236.323636 298.317798 
L 250.785455 301.274723 
L 265.247273 302.055022 
L 279.709091 304.519126 
L 294.170909 306.736819 
L 308.632727 306.038656 
L 323.094545 305.833314 
L 337.556364 301.480064 
L 352.018182 297.00361 
" clip-path="url(#p7082aa4b82)" style="fill: none; stroke-dasharray: 5.55,2.4; stroke-dashoffset: 0; stroke: #808080; stroke-width: 1.5"/>
   </g>
   <g id="matplotlib.axis_1">
    <g id="xtick_1">
     <g id="line2d_2">
      <defs>
       <path id="m16af7e8923" d="M 0 0 
L 0 3.5 
" style="stroke: #000000; stroke-width: 0.8"/>
      </defs>
      <g>
       <use xlink:href="#m16af7e8923" x="62.781818" y="313.225625" style="stroke: #000000; stroke-width: 0.8"/>
      </g>
     </g>
     <g id="text_1">
      <!-- Jan '19 -->
      <g transform="translate(43.623068 328.815)scale(0.12 -0.12)">
       <defs>
        <path id="ArialMT-4a" d="M 184 1300 
L 731 1375 
Q 753 850 928 656 
Q 1103 463 1413 463 
Q 1641 463 1806 567 
Q 1972 672 2034 851 
Q 2097 1031 2097 1425 
L 2097 4581 
L 2703 4581 
L 2703 1459 
Q 2703 884 2564 568 
Q 2425 253 2123 87 
Q 1822 -78 1416 -78 
Q 813 -78 492 269 
Q 172 616 184 1300 
z
" transform="scale(0.015625)"/>
        <path id="ArialMT-61" d="M 2588 409 
Q 2275 144 1986 34 
Q 1697 -75 1366 -75 
Q 819 -75 525 192 
Q 231 459 231 875 
Q 231 1119 342 1320 
Q 453 1522 633 1644 
Q 813 1766 1038 1828 
Q 1203 1872 1538 1913 
Q 2219 1994 2541 2106 
Q 2544 2222 2544 2253 
Q 2544 2597 2384 2738 
Q 2169 2928 1744 2928 
Q 1347 2928 1158 2789 
Q 969 2650 878 2297 
L 328 2372 
Q 403 2725 575 2942 
Q 747 3159 1072 3276 
Q 1397 3394 1825 3394 
Q 2250 3394 2515 3294 
Q 2781 3194 2906 3042 
Q 3031 2891 3081 2659 
Q 3109 2516 3109 2141 
L 3109 1391 
Q 3109 606 3145 398 
Q 3181 191 3288 0 
L 2700 0 
Q 2613 175 2588 409 
z
M 2541 1666 
Q 2234 1541 1622 1453 
Q 1275 1403 1131 1340 
Q 988 1278 909 1158 
Q 831 1038 831 891 
Q 831 666 1001 516 
Q 1172 366 1500 366 
Q 1825 366 2078 508 
Q 2331 650 2450 897 
Q 2541 1088 2541 1459 
L 2541 1666 
z
" transform="scale(0.015625)"/>
        <path id="ArialMT-6e" d="M 422 0 
L 422 3319 
L 928 3319 
L 928 2847 
Q 1294 3394 1984 3394 
Q 2284 3394 2536 3286 
Q 2788 3178 2913 3003 
Q 3038 2828 3088 2588 
Q 3119 2431 3119 2041 
L 3119 0 
L 2556 0 
L 2556 2019 
Q 2556 2363 2490 2533 
Q 2425 2703 2258 2804 
Q 2091 2906 1866 2906 
Q 1506 2906 1245 2678 
Q 984 2450 984 1813 
L 984 0 
L 422 0 
z
" transform="scale(0.015625)"/>
        <path id="ArialMT-20" transform="scale(0.015625)"/>
        <path id="ArialMT-27" d="M 425 2959 
L 281 3816 
L 281 4581 
L 922 4581 
L 922 3816 
L 772 2959 
L 425 2959 
z
" transform="scale(0.015625)"/>
        <path id="ArialMT-31" d="M 2384 0 
L 1822 0 
L 1822 3584 
Q 1619 3391 1289 3197 
Q 959 3003 697 2906 
L 697 3450 
Q 1169 3672 1522 3987 
Q 1875 4303 2022 4600 
L 2384 4600 
L 2384 0 
z
" transform="scale(0.015625)"/>
        <path id="ArialMT-39" d="M 350 1059 
L 891 1109 
Q 959 728 1153 556 
Q 1347 384 1650 384 
Q 1909 384 2104 503 
Q 2300 622 2425 820 
Q 2550 1019 2634 1356 
Q 2719 1694 2719 2044 
Q 2719 2081 2716 2156 
Q 2547 1888 2255 1720 
Q 1963 1553 1622 1553 
Q 1053 1553 659 1965 
Q 266 2378 266 3053 
Q 266 3750 677 4175 
Q 1088 4600 1706 4600 
Q 2153 4600 2523 4359 
Q 2894 4119 3086 3673 
Q 3278 3228 3278 2384 
Q 3278 1506 3087 986 
Q 2897 466 2520 194 
Q 2144 -78 1638 -78 
Q 1100 -78 759 220 
Q 419 519 350 1059 
z
M 2653 3081 
Q 2653 3566 2395 3850 
Q 2138 4134 1775 4134 
Q 1400 4134 1122 3828 
Q 844 3522 844 3034 
Q 844 2597 1108 2323 
Q 1372 2050 1759 2050 
Q 2150 2050 2401 2323 
Q 2653 2597 2653 3081 
z
" transform="scale(0.015625)"/>
       </defs>
       <use xlink:href="#ArialMT-4a"/>
       <use xlink:href="#ArialMT-61" x="50"/>
       <use xlink:href="#ArialMT-6e" x="105.615234"/>
       <use xlink:href="#ArialMT-20" x="161.230469"/>
       <use xlink:href="#ArialMT-27" x="189.013672"/>
       <use xlink:href="#ArialMT-31" x="208.105469"/>
       <use xlink:href="#ArialMT-39" x="263.720703"/>
      </g>
     </g>
    </g>
    <g id="xtick_2">
     <g id="line2d_3">
      <g>
       <use xlink:href="#m16af7e8923" x="149.552727" y="313.225625" style="stroke: #000000; stroke-width: 0.8"/>
      </g>
     </g>
     <g id="text_2">
      <!-- Jul '19 -->
      <g transform="translate(132.397415 328.815)scale(0.12 -0.12)">
       <defs>
        <path id="ArialMT-75" d="M 2597 0 
L 2597 488 
Q 2209 -75 1544 -75 
Q 1250 -75 995 37 
Q 741 150 617 320 
Q 494 491 444 738 
Q 409 903 409 1263 
L 409 3319 
L 972 3319 
L 972 1478 
Q 972 1038 1006 884 
Q 1059 663 1231 536 
Q 1403 409 1656 409 
Q 1909 409 2131 539 
Q 2353 669 2445 892 
Q 2538 1116 2538 1541 
L 2538 3319 
L 3100 3319 
L 3100 0 
L 2597 0 
z
" transform="scale(0.015625)"/>
        <path id="ArialMT-6c" d="M 409 0 
L 409 4581 
L 972 4581 
L 972 0 
L 409 0 
z
" transform="scale(0.015625)"/>
       </defs>
       <use xlink:href="#ArialMT-4a"/>
       <use xlink:href="#ArialMT-75" x="50"/>
       <use xlink:href="#ArialMT-6c" x="105.615234"/>
       <use xlink:href="#ArialMT-20" x="127.832031"/>
       <use xlink:href="#ArialMT-27" x="155.615234"/>
       <use xlink:href="#ArialMT-31" x="174.707031"/>
       <use xlink:href="#ArialMT-39" x="230.322266"/>
      </g>
     </g>
    </g>
    <g id="xtick_3">
     <g id="line2d_4">
      <g>
       <use xlink:href="#m16af7e8923" x="236.323636" y="313.225625" style="stroke: #000000; stroke-width: 0.8"/>
      </g>
     </g>
     <g id="text_3">
      <!-- Jan '20 -->
      <g transform="translate(217.164886 328.815)scale(0.12 -0.12)">
       <defs>
        <path id="ArialMT-32" d="M 3222 541 
L 3222 0 
L 194 0 
Q 188 203 259 391 
Q 375 700 629 1000 
Q 884 1300 1366 1694 
Q 2113 2306 2375 2664 
Q 2638 3022 2638 3341 
Q 2638 3675 2398 3904 
Q 2159 4134 1775 4134 
Q 1369 4134 1125 3890 
Q 881 3647 878 3216 
L 300 3275 
Q 359 3922 746 4261 
Q 1134 4600 1788 4600 
Q 2447 4600 2831 4234 
Q 3216 3869 3216 3328 
Q 3216 3053 3103 2787 
Q 2991 2522 2730 2228 
Q 2469 1934 1863 1422 
Q 1356 997 1212 845 
Q 1069 694 975 541 
L 3222 541 
z
" transform="scale(0.015625)"/>
        <path id="ArialMT-30" d="M 266 2259 
Q 266 3072 433 3567 
Q 600 4063 929 4331 
Q 1259 4600 1759 4600 
Q 2128 4600 2406 4451 
Q 2684 4303 2865 4023 
Q 3047 3744 3150 3342 
Q 3253 2941 3253 2259 
Q 3253 1453 3087 958 
Q 2922 463 2592 192 
Q 2263 -78 1759 -78 
Q 1097 -78 719 397 
Q 266 969 266 2259 
z
M 844 2259 
Q 844 1131 1108 757 
Q 1372 384 1759 384 
Q 2147 384 2411 759 
Q 2675 1134 2675 2259 
Q 2675 3391 2411 3762 
Q 2147 4134 1753 4134 
Q 1366 4134 1134 3806 
Q 844 3388 844 2259 
z
" transform="scale(0.015625)"/>
       </defs>
       <use xlink:href="#ArialMT-4a"/>
       <use xlink:href="#ArialMT-61" x="50"/>
       <use xlink:href="#ArialMT-6e" x="105.615234"/>
       <use xlink:href="#ArialMT-20" x="161.230469"/>
       <use xlink:href="#ArialMT-27" x="189.013672"/>
       <use xlink:href="#ArialMT-32" x="208.105469"/>
       <use xlink:href="#ArialMT-30" x="263.720703"/>
      </g>
     </g>
    </g>
    <g id="xtick_4">
     <g id="line2d_5">
      <g>
       <use xlink:href="#m16af7e8923" x="323.094545" y="313.225625" style="stroke: #000000; stroke-width: 0.8"/>
      </g>
     </g>
     <g id="text_4">
      <!-- Jul '20 -->
      <g transform="translate(305.939233 328.815)scale(0.12 -0.12)">
       <use xlink:href="#ArialMT-4a"/>
       <use xlink:href="#ArialMT-75" x="50"/>
       <use xlink:href="#ArialMT-6c" x="105.615234"/>
       <use xlink:href="#ArialMT-20" x="127.832031"/>
       <use xlink:href="#ArialMT-27" x="155.615234"/>
       <use xlink:href="#ArialMT-32" x="174.707031"/>
       <use xlink:href="#ArialMT-30" x="230.322266"/>
      </g>
     </g>
    </g>
    <g id="xtick_5">
     <g id="line2d_6">
      <defs>
       <path id="meba99e2159" d="M 0 0 
L 0 2 
" style="stroke: #000000; stroke-width: 0.6"/>
      </defs>
      <g>
       <use xlink:href="#meba99e2159" x="91.705455" y="313.225625" style="stroke: #000000; stroke-width: 0.6"/>
      </g>
     </g>
    </g>
    <g id="xtick_6">
     <g id="line2d_7">
      <g>
       <use xlink:href="#meba99e2159" x="120.629091" y="313.225625" style="stroke: #000000; stroke-width: 0.6"/>
      </g>
     </g>
    </g>
    <g id="xtick_7">
     <g id="line2d_8">
      <g>
       <use xlink:href="#meba99e2159" x="178.476364" y="313.225625" style="stroke: #000000; stroke-width: 0.6"/>
      </g>
     </g>
    </g>
    <g id="xtick_8">
     <g id="line2d_9">
      <g>
       <use xlink:href="#meba99e2159" x="207.4" y="313.225625" style="stroke: #000000; stroke-width: 0.6"/>
      </g>
     </g>
    </g>
    <g id="xtick_9">
     <g id="line2d_10">
      <g>
       <use xlink:href="#meba99e2159" x="265.247273" y="313.225625" style="stroke: #000000; stroke-width: 0.6"/>
      </g>
     </g>
    </g>
    <g id="xtick_10">
     <g id="line2d_11">
      <g>
       <use xlink:href="#meba99e2159" x="294.170909" y="313.225625" style="stroke: #000000; stroke-width: 0.6"/>
      </g>
     </g>
    </g>
    <g id="xtick_11">
     <g id="line2d_12">
      <g>
       <use xlink:href="#meba99e2159" x="352.018182" y="313.225625" style="stroke: #000000; stroke-width: 0.6"/>
      </g>
     </g>
    </g>
   </g>
   <g id="matplotlib.axis_2">
    <g id="ytick_1">
     <g id="line2d_13">
      <defs>
       <path id="mae7a220b06" d="M 0 0 
L -3.5 0 
" style="stroke: #000000; stroke-width: 0.8"/>
      </defs>
      <g>
       <use xlink:href="#mae7a220b06" x="48.32" y="313.225625" style="stroke: #000000; stroke-width: 0.8"/>
      </g>
     </g>
     <g id="text_5">
      <!-- 0.0 -->
      <g transform="translate(24.64 317.520313)scale(0.12 -0.12)">
       <defs>
        <path id="ArialMT-2e" d="M 581 0 
L 581 641 
L 1222 641 
L 1222 0 
L 581 0 
z
" transform="scale(0.015625)"/>
       </defs>
       <use xlink:href="#ArialMT-30"/>
       <use xlink:href="#ArialMT-2e" x="55.615234"/>
       <use xlink:href="#ArialMT-30" x="83.398438"/>
      </g>
     </g>
    </g>
    <g id="ytick_2">
     <g id="line2d_14">
      <g>
       <use xlink:href="#mae7a220b06" x="48.32" y="267.269132" style="stroke: #000000; stroke-width: 0.8"/>
      </g>
     </g>
     <g id="text_6">
      <!-- 0.5 -->
      <g transform="translate(24.64 271.563819)scale(0.12 -0.12)">
       <defs>
        <path id="ArialMT-35" d="M 266 1200 
L 856 1250 
Q 922 819 1161 601 
Q 1400 384 1738 384 
Q 2144 384 2425 690 
Q 2706 997 2706 1503 
Q 2706 1984 2436 2262 
Q 2166 2541 1728 2541 
Q 1456 2541 1237 2417 
Q 1019 2294 894 2097 
L 366 2166 
L 809 4519 
L 3088 4519 
L 3088 3981 
L 1259 3981 
L 1013 2750 
Q 1425 3038 1878 3038 
Q 2478 3038 2890 2622 
Q 3303 2206 3303 1553 
Q 3303 931 2941 478 
Q 2500 -78 1738 -78 
Q 1113 -78 717 272 
Q 322 622 266 1200 
z
" transform="scale(0.015625)"/>
       </defs>
       <use xlink:href="#ArialMT-30"/>
       <use xlink:href="#ArialMT-2e" x="55.615234"/>
       <use xlink:href="#ArialMT-35" x="83.398438"/>
      </g>
     </g>
    </g>
    <g id="ytick_3">
     <g id="line2d_15">
      <g>
       <use xlink:href="#mae7a220b06" x="48.32" y="221.312639" style="stroke: #000000; stroke-width: 0.8"/>
      </g>
     </g>
     <g id="text_7">
      <!-- 1.0 -->
      <g transform="translate(24.64 225.607326)scale(0.12 -0.12)">
       <use xlink:href="#ArialMT-31"/>
       <use xlink:href="#ArialMT-2e" x="55.615234"/>
       <use xlink:href="#ArialMT-30" x="83.398438"/>
      </g>
     </g>
    </g>
    <g id="ytick_4">
     <g id="line2d_16">
      <g>
       <use xlink:href="#mae7a220b06" x="48.32" y="175.356145" style="stroke: #000000; stroke-width: 0.8"/>
      </g>
     </g>
     <g id="text_8">
      <!-- 1.5 -->
      <g transform="translate(24.64 179.650833)scale(0.12 -0.12)">
       <use xlink:href="#ArialMT-31"/>
       <use xlink:href="#ArialMT-2e" x="55.615234"/>
       <use xlink:href="#ArialMT-35" x="83.398438"/>
      </g>
     </g>
    </g>
    <g id="ytick_5">
     <g id="line2d_17">
      <g>
       <use xlink:href="#mae7a220b06" x="48.32" y="129.399652" style="stroke: #000000; stroke-width: 0.8"/>
      </g>
     </g>
     <g id="text_9">
      <!-- 2.0 -->
      <g transform="translate(24.64 133.69434)scale(0.12 -0.12)">
       <use xlink:href="#ArialMT-32"/>
       <use xlink:href="#ArialMT-2e" x="55.615234"/>
       <use xlink:href="#ArialMT-30" x="83.398438"/>
      </g>
     </g>
    </g>
    <g id="ytick_6">
     <g id="line2d_18">
      <g>
       <use xlink:href="#mae7a220b06" x="48.32" y="83.443159" style="stroke: #000000; stroke-width: 0.8"/>
      </g>
     </g>
     <g id="text_10">
      <!-- 2.5 -->
      <g transform="translate(24.64 87.737847)scale(0.12 -0.12)">
       <use xlink:href="#ArialMT-32"/>
       <use xlink:href="#ArialMT-2e" x="55.615234"/>
       <use xlink:href="#ArialMT-35" x="83.398438"/>
      </g>
     </g>
    </g>
    <g id="ytick_7">
     <g id="line2d_19">
      <g>
       <use xlink:href="#mae7a220b06" x="48.32" y="37.486666" style="stroke: #000000; stroke-width: 0.8"/>
      </g>
     </g>
     <g id="text_11">
      <!-- 3.0 -->
      <g transform="translate(24.64 41.781353)scale(0.12 -0.12)">
       <defs>
        <path id="ArialMT-33" d="M 269 1209 
L 831 1284 
Q 928 806 1161 595 
Q 1394 384 1728 384 
Q 2125 384 2398 659 
Q 2672 934 2672 1341 
Q 2672 1728 2419 1979 
Q 2166 2231 1775 2231 
Q 1616 2231 1378 2169 
L 1441 2663 
Q 1497 2656 1531 2656 
Q 1891 2656 2178 2843 
Q 2466 3031 2466 3422 
Q 2466 3731 2256 3934 
Q 2047 4138 1716 4138 
Q 1388 4138 1169 3931 
Q 950 3725 888 3313 
L 325 3413 
Q 428 3978 793 4289 
Q 1159 4600 1703 4600 
Q 2078 4600 2393 4439 
Q 2709 4278 2876 4000 
Q 3044 3722 3044 3409 
Q 3044 3113 2884 2869 
Q 2725 2625 2413 2481 
Q 2819 2388 3044 2092 
Q 3269 1797 3269 1353 
Q 3269 753 2831 336 
Q 2394 -81 1725 -81 
Q 1122 -81 723 278 
Q 325 638 269 1209 
z
" transform="scale(0.015625)"/>
       </defs>
       <use xlink:href="#ArialMT-33"/>
       <use xlink:href="#ArialMT-2e" x="55.615234"/>
       <use xlink:href="#ArialMT-30" x="83.398438"/>
      </g>
     </g>
    </g>
    <g id="ytick_8">
     <g id="line2d_20">
      <defs>
       <path id="me51c64fee2" d="M 0 0 
L -2 0 
" style="stroke: #000000; stroke-width: 0.6"/>
      </defs>
      <g>
       <use xlink:href="#me51c64fee2" x="48.32" y="290.247378" style="stroke: #000000; stroke-width: 0.6"/>
      </g>
     </g>
    </g>
    <g id="ytick_9">
     <g id="line2d_21">
      <g>
       <use xlink:href="#me51c64fee2" x="48.32" y="244.290885" style="stroke: #000000; stroke-width: 0.6"/>
      </g>
     </g>
    </g>
    <g id="ytick_10">
     <g id="line2d_22">
      <g>
       <use xlink:href="#me51c64fee2" x="48.32" y="198.334392" style="stroke: #000000; stroke-width: 0.6"/>
      </g>
     </g>
    </g>
    <g id="ytick_11">
     <g id="line2d_23">
      <g>
       <use xlink:href="#me51c64fee2" x="48.32" y="152.377899" style="stroke: #000000; stroke-width: 0.6"/>
      </g>
     </g>
    </g>
    <g id="ytick_12">
     <g id="line2d_24">
      <g>
       <use xlink:href="#me51c64fee2" x="48.32" y="106.421406" style="stroke: #000000; stroke-width: 0.6"/>
      </g>
     </g>
    </g>
    <g id="ytick_13">
     <g id="line2d_25">
      <g>
       <use xlink:href="#me51c64fee2" x="48.32" y="60.464913" style="stroke: #000000; stroke-width: 0.6"/>
      </g>
     </g>
    </g>
    <g id="ytick_14">
     <g id="line2d_26">
      <g>
       <use xlink:href="#me51c64fee2" x="48.32" y="14.508419" style="stroke: #000000; stroke-width: 0.6"/>
      </g>
     </g>
    </g>
    <g id="text_12">
     <!-- Natural gas price [USD kg$^\mathrm{-1}$] -->
     <g transform="translate(18 237.672813)rotate(-90)scale(0.12 -0.12)">
      <defs>
       <path id="ArialMT-4e" d="M 488 0 
L 488 4581 
L 1109 4581 
L 3516 984 
L 3516 4581 
L 4097 4581 
L 4097 0 
L 3475 0 
L 1069 3600 
L 1069 0 
L 488 0 
z
" transform="scale(0.015625)"/>
       <path id="ArialMT-74" d="M 1650 503 
L 1731 6 
Q 1494 -44 1306 -44 
Q 1000 -44 831 53 
Q 663 150 594 308 
Q 525 466 525 972 
L 525 2881 
L 113 2881 
L 113 3319 
L 525 3319 
L 525 4141 
L 1084 4478 
L 1084 3319 
L 1650 3319 
L 1650 2881 
L 1084 2881 
L 1084 941 
Q 1084 700 1114 631 
Q 1144 563 1211 522 
Q 1278 481 1403 481 
Q 1497 481 1650 503 
z
" transform="scale(0.015625)"/>
       <path id="ArialMT-72" d="M 416 0 
L 416 3319 
L 922 3319 
L 922 2816 
Q 1116 3169 1280 3281 
Q 1444 3394 1641 3394 
Q 1925 3394 2219 3213 
L 2025 2691 
Q 1819 2813 1613 2813 
Q 1428 2813 1281 2702 
Q 1134 2591 1072 2394 
Q 978 2094 978 1738 
L 978 0 
L 416 0 
z
" transform="scale(0.015625)"/>
       <path id="ArialMT-67" d="M 319 -275 
L 866 -356 
Q 900 -609 1056 -725 
Q 1266 -881 1628 -881 
Q 2019 -881 2231 -725 
Q 2444 -569 2519 -288 
Q 2563 -116 2559 434 
Q 2191 0 1641 0 
Q 956 0 581 494 
Q 206 988 206 1678 
Q 206 2153 378 2554 
Q 550 2956 876 3175 
Q 1203 3394 1644 3394 
Q 2231 3394 2613 2919 
L 2613 3319 
L 3131 3319 
L 3131 450 
Q 3131 -325 2973 -648 
Q 2816 -972 2473 -1159 
Q 2131 -1347 1631 -1347 
Q 1038 -1347 672 -1080 
Q 306 -813 319 -275 
z
M 784 1719 
Q 784 1066 1043 766 
Q 1303 466 1694 466 
Q 2081 466 2343 764 
Q 2606 1063 2606 1700 
Q 2606 2309 2336 2618 
Q 2066 2928 1684 2928 
Q 1309 2928 1046 2623 
Q 784 2319 784 1719 
z
" transform="scale(0.015625)"/>
       <path id="ArialMT-73" d="M 197 991 
L 753 1078 
Q 800 744 1014 566 
Q 1228 388 1613 388 
Q 2000 388 2187 545 
Q 2375 703 2375 916 
Q 2375 1106 2209 1216 
Q 2094 1291 1634 1406 
Q 1016 1563 777 1677 
Q 538 1791 414 1992 
Q 291 2194 291 2438 
Q 291 2659 392 2848 
Q 494 3038 669 3163 
Q 800 3259 1026 3326 
Q 1253 3394 1513 3394 
Q 1903 3394 2198 3281 
Q 2494 3169 2634 2976 
Q 2775 2784 2828 2463 
L 2278 2388 
Q 2241 2644 2061 2787 
Q 1881 2931 1553 2931 
Q 1166 2931 1000 2803 
Q 834 2675 834 2503 
Q 834 2394 903 2306 
Q 972 2216 1119 2156 
Q 1203 2125 1616 2013 
Q 2213 1853 2448 1751 
Q 2684 1650 2818 1456 
Q 2953 1263 2953 975 
Q 2953 694 2789 445 
Q 2625 197 2315 61 
Q 2006 -75 1616 -75 
Q 969 -75 630 194 
Q 291 463 197 991 
z
" transform="scale(0.015625)"/>
       <path id="ArialMT-70" d="M 422 -1272 
L 422 3319 
L 934 3319 
L 934 2888 
Q 1116 3141 1344 3267 
Q 1572 3394 1897 3394 
Q 2322 3394 2647 3175 
Q 2972 2956 3137 2557 
Q 3303 2159 3303 1684 
Q 3303 1175 3120 767 
Q 2938 359 2589 142 
Q 2241 -75 1856 -75 
Q 1575 -75 1351 44 
Q 1128 163 984 344 
L 984 -1272 
L 422 -1272 
z
M 931 1641 
Q 931 1000 1190 694 
Q 1450 388 1819 388 
Q 2194 388 2461 705 
Q 2728 1022 2728 1688 
Q 2728 2322 2467 2637 
Q 2206 2953 1844 2953 
Q 1484 2953 1207 2617 
Q 931 2281 931 1641 
z
" transform="scale(0.015625)"/>
       <path id="ArialMT-69" d="M 425 3934 
L 425 4581 
L 988 4581 
L 988 3934 
L 425 3934 
z
M 425 0 
L 425 3319 
L 988 3319 
L 988 0 
L 425 0 
z
" transform="scale(0.015625)"/>
       <path id="ArialMT-63" d="M 2588 1216 
L 3141 1144 
Q 3050 572 2676 248 
Q 2303 -75 1759 -75 
Q 1078 -75 664 370 
Q 250 816 250 1647 
Q 250 2184 428 2587 
Q 606 2991 970 3192 
Q 1334 3394 1763 3394 
Q 2303 3394 2647 3120 
Q 2991 2847 3088 2344 
L 2541 2259 
Q 2463 2594 2264 2762 
Q 2066 2931 1784 2931 
Q 1359 2931 1093 2626 
Q 828 2322 828 1663 
Q 828 994 1084 691 
Q 1341 388 1753 388 
Q 2084 388 2306 591 
Q 2528 794 2588 1216 
z
" transform="scale(0.015625)"/>
       <path id="ArialMT-65" d="M 2694 1069 
L 3275 997 
Q 3138 488 2766 206 
Q 2394 -75 1816 -75 
Q 1088 -75 661 373 
Q 234 822 234 1631 
Q 234 2469 665 2931 
Q 1097 3394 1784 3394 
Q 2450 3394 2872 2941 
Q 3294 2488 3294 1666 
Q 3294 1616 3291 1516 
L 816 1516 
Q 847 969 1125 678 
Q 1403 388 1819 388 
Q 2128 388 2347 550 
Q 2566 713 2694 1069 
z
M 847 1978 
L 2700 1978 
Q 2663 2397 2488 2606 
Q 2219 2931 1791 2931 
Q 1403 2931 1139 2672 
Q 875 2413 847 1978 
z
" transform="scale(0.015625)"/>
       <path id="ArialMT-5b" d="M 434 -1272 
L 434 4581 
L 1675 4581 
L 1675 4116 
L 997 4116 
L 997 -806 
L 1675 -806 
L 1675 -1272 
L 434 -1272 
z
" transform="scale(0.015625)"/>
       <path id="ArialMT-55" d="M 3500 4581 
L 4106 4581 
L 4106 1934 
Q 4106 1244 3950 837 
Q 3794 431 3386 176 
Q 2978 -78 2316 -78 
Q 1672 -78 1262 144 
Q 853 366 678 786 
Q 503 1206 503 1934 
L 503 4581 
L 1109 4581 
L 1109 1938 
Q 1109 1341 1220 1058 
Q 1331 775 1601 622 
Q 1872 469 2263 469 
Q 2931 469 3215 772 
Q 3500 1075 3500 1938 
L 3500 4581 
z
" transform="scale(0.015625)"/>
       <path id="ArialMT-53" d="M 288 1472 
L 859 1522 
Q 900 1178 1048 958 
Q 1197 738 1509 602 
Q 1822 466 2213 466 
Q 2559 466 2825 569 
Q 3091 672 3220 851 
Q 3350 1031 3350 1244 
Q 3350 1459 3225 1620 
Q 3100 1781 2813 1891 
Q 2628 1963 1997 2114 
Q 1366 2266 1113 2400 
Q 784 2572 623 2826 
Q 463 3081 463 3397 
Q 463 3744 659 4045 
Q 856 4347 1234 4503 
Q 1613 4659 2075 4659 
Q 2584 4659 2973 4495 
Q 3363 4331 3572 4012 
Q 3781 3694 3797 3291 
L 3216 3247 
Q 3169 3681 2898 3903 
Q 2628 4125 2100 4125 
Q 1550 4125 1298 3923 
Q 1047 3722 1047 3438 
Q 1047 3191 1225 3031 
Q 1400 2872 2139 2705 
Q 2878 2538 3153 2413 
Q 3553 2228 3743 1945 
Q 3934 1663 3934 1294 
Q 3934 928 3725 604 
Q 3516 281 3123 101 
Q 2731 -78 2241 -78 
Q 1619 -78 1198 103 
Q 778 284 539 648 
Q 300 1013 288 1472 
z
" transform="scale(0.015625)"/>
       <path id="ArialMT-44" d="M 494 0 
L 494 4581 
L 2072 4581 
Q 2606 4581 2888 4516 
Q 3281 4425 3559 4188 
Q 3922 3881 4101 3404 
Q 4281 2928 4281 2316 
Q 4281 1794 4159 1391 
Q 4038 988 3847 723 
Q 3656 459 3429 307 
Q 3203 156 2883 78 
Q 2563 0 2147 0 
L 494 0 
z
M 1100 541 
L 2078 541 
Q 2531 541 2789 625 
Q 3047 709 3200 863 
Q 3416 1078 3536 1442 
Q 3656 1806 3656 2325 
Q 3656 3044 3420 3430 
Q 3184 3816 2847 3947 
Q 2603 4041 2063 4041 
L 1100 4041 
L 1100 541 
z
" transform="scale(0.015625)"/>
       <path id="ArialMT-6b" d="M 425 0 
L 425 4581 
L 988 4581 
L 988 1969 
L 2319 3319 
L 3047 3319 
L 1778 2088 
L 3175 0 
L 2481 0 
L 1384 1697 
L 988 1316 
L 988 0 
L 425 0 
z
" transform="scale(0.015625)"/>
       <path id="DejaVuSans-2212" d="M 678 2272 
L 4684 2272 
L 4684 1741 
L 678 1741 
L 678 2272 
z
" transform="scale(0.015625)"/>
       <path id="DejaVuSans-31" d="M 794 531 
L 1825 531 
L 1825 4091 
L 703 3866 
L 703 4441 
L 1819 4666 
L 2450 4666 
L 2450 531 
L 3481 531 
L 3481 0 
L 794 0 
L 794 531 
z
" transform="scale(0.015625)"/>
       <path id="ArialMT-5d" d="M 1363 -1272 
L 122 -1272 
L 122 -806 
L 800 -806 
L 800 4116 
L 122 4116 
L 122 4581 
L 1363 4581 
L 1363 -1272 
z
" transform="scale(0.015625)"/>
      </defs>
      <use xlink:href="#ArialMT-4e" transform="translate(0 0.684375)"/>
      <use xlink:href="#ArialMT-61" transform="translate(72.216797 0.684375)"/>
      <use xlink:href="#ArialMT-74" transform="translate(127.832031 0.684375)"/>
      <use xlink:href="#ArialMT-75" transform="translate(155.615234 0.684375)"/>
      <use xlink:href="#ArialMT-72" transform="translate(211.230469 0.684375)"/>
      <use xlink:href="#ArialMT-61" transform="translate(244.53125 0.684375)"/>
      <use xlink:href="#ArialMT-6c" transform="translate(300.146484 0.684375)"/>
      <use xlink:href="#ArialMT-20" transform="translate(322.363281 0.684375)"/>
      <use xlink:href="#ArialMT-67" transform="translate(350.146484 0.684375)"/>
      <use xlink:href="#ArialMT-61" transform="translate(405.761719 0.684375)"/>
      <use xlink:href="#ArialMT-73" transform="translate(461.376953 0.684375)"/>
      <use xlink:href="#ArialMT-20" transform="translate(511.376953 0.684375)"/>
      <use xlink:href="#ArialMT-70" transform="translate(539.160156 0.684375)"/>
      <use xlink:href="#ArialMT-72" transform="translate(594.775391 0.684375)"/>
      <use xlink:href="#ArialMT-69" transform="translate(628.076172 0.684375)"/>
      <use xlink:href="#ArialMT-63" transform="translate(650.292969 0.684375)"/>
      <use xlink:href="#ArialMT-65" transform="translate(700.292969 0.684375)"/>
      <use xlink:href="#ArialMT-20" transform="translate(755.908203 0.684375)"/>
      <use xlink:href="#ArialMT-5b" transform="translate(783.691406 0.684375)"/>
      <use xlink:href="#ArialMT-55" transform="translate(811.474609 0.684375)"/>
      <use xlink:href="#ArialMT-53" transform="translate(883.691406 0.684375)"/>
      <use xlink:href="#ArialMT-44" transform="translate(950.390625 0.684375)"/>
      <use xlink:href="#ArialMT-20" transform="translate(1022.607422 0.684375)"/>
      <use xlink:href="#ArialMT-6b" transform="translate(1050.390625 0.684375)"/>
      <use xlink:href="#ArialMT-67" transform="translate(1100.390625 0.684375)"/>
      <use xlink:href="#DejaVuSans-2212" transform="translate(1156.962891 38.965625)scale(0.7)"/>
      <use xlink:href="#DejaVuSans-31" transform="translate(1215.615234 38.965625)scale(0.7)"/>
      <use xlink:href="#ArialMT-5d" transform="translate(1262.885742 0.684375)"/>
     </g>
    </g>
   </g>
   <g id="PathCollection_1">
    <defs>
     <path id="C0_0_29ce7ee91d" d="M 0 2.236068 
C 0.593012 2.236068 1.161816 2.000462 1.581139 1.581139 
C 2.000462 1.161816 2.236068 0.593012 2.236068 -0 
C 2.236068 -0.593012 2.000462 -1.161816 1.581139 -1.581139 
C 1.161816 -2.000462 0.593012 -2.236068 0 -2.236068 
C -0.593012 -2.236068 -1.161816 -2.000462 -1.581139 -1.581139 
C -2.000462 -1.161816 -2.236068 -0.593012 -2.236068 0 
C -2.236068 0.593012 -2.000462 1.161816 -1.581139 1.581139 
C -1.161816 2.000462 -0.593012 2.236068 0 2.236068 
z
"/>
    </defs>
    <g clip-path="url(#p7082aa4b82)">
     <use xlink:href="#C0_0_29ce7ee91d" x="62.781818" y="283.245698" style="fill: #808080"/>
    </g>
    <g clip-path="url(#p7082aa4b82)">
     <use xlink:href="#C0_0_29ce7ee91d" x="77.243636" y="288.543521" style="fill: #808080"/>
    </g>
    <g clip-path="url(#p7082aa4b82)">
     <use xlink:href="#C0_0_29ce7ee91d" x="91.705455" y="291.952197" style="fill: #808080"/>
    </g>
    <g clip-path="url(#p7082aa4b82)">
     <use xlink:href="#C0_0_29ce7ee91d" x="106.167273" y="293.019975" style="fill: #808080"/>
    </g>
    <g clip-path="url(#p7082aa4b82)">
     <use xlink:href="#C0_0_29ce7ee91d" x="120.629091" y="295.401942" style="fill: #808080"/>
    </g>
    <g clip-path="url(#p7082aa4b82)">
     <use xlink:href="#C0_0_29ce7ee91d" x="135.090909" y="298.482072" style="fill: #808080"/>
    </g>
    <g clip-path="url(#p7082aa4b82)">
     <use xlink:href="#C0_0_29ce7ee91d" x="149.552727" y="298.358867" style="fill: #808080"/>
    </g>
    <g clip-path="url(#p7082aa4b82)">
     <use xlink:href="#C0_0_29ce7ee91d" x="164.014545" y="298.112456" style="fill: #808080"/>
    </g>
    <g clip-path="url(#p7082aa4b82)">
     <use xlink:href="#C0_0_29ce7ee91d" x="178.476364" y="295.935831" style="fill: #808080"/>
    </g>
    <g clip-path="url(#p7082aa4b82)">
     <use xlink:href="#C0_0_29ce7ee91d" x="192.938182" y="292.445018" style="fill: #808080"/>
    </g>
    <g clip-path="url(#p7082aa4b82)">
     <use xlink:href="#C0_0_29ce7ee91d" x="207.4" y="292.075402" style="fill: #808080"/>
    </g>
    <g clip-path="url(#p7082aa4b82)">
     <use xlink:href="#C0_0_29ce7ee91d" x="221.861818" y="294.252027" style="fill: #808080"/>
    </g>
    <g clip-path="url(#p7082aa4b82)">
     <use xlink:href="#C0_0_29ce7ee91d" x="236.323636" y="298.317798" style="fill: #808080"/>
    </g>
    <g clip-path="url(#p7082aa4b82)">
     <use xlink:href="#C0_0_29ce7ee91d" x="250.785455" y="301.274723" style="fill: #808080"/>
    </g>
    <g clip-path="url(#p7082aa4b82)">
     <use xlink:href="#C0_0_29ce7ee91d" x="265.247273" y="302.055022" style="fill: #808080"/>
    </g>
    <g clip-path="url(#p7082aa4b82)">
     <use xlink:href="#C0_0_29ce7ee91d" x="279.709091" y="304.519126" style="fill: #808080"/>
    </g>
    <g clip-path="url(#p7082aa4b82)">
     <use xlink:href="#C0_0_29ce7ee91d" x="294.170909" y="306.736819" style="fill: #808080"/>
    </g>
    <g clip-path="url(#p7082aa4b82)">
     <use xlink:href="#C0_0_29ce7ee91d" x="308.632727" y="306.038656" style="fill: #808080"/>
    </g>
    <g clip-path="url(#p7082aa4b82)">
     <use xlink:href="#C0_0_29ce7ee91d" x="323.094545" y="305.833314" style="fill: #808080"/>
    </g>
    <g clip-path="url(#p7082aa4b82)">
     <use xlink:href="#C0_0_29ce7ee91d" x="337.556364" y="301.480064" style="fill: #808080"/>
    </g>
    <g clip-path="url(#p7082aa4b82)">
     <use xlink:href="#C0_0_29ce7ee91d" x="352.018182" y="297.00361" style="fill: #808080"/>
    </g>
   </g>
   <g id="patch_3">
    <path d="M 48.32 313.225625 
L 48.32 7.2 
" style="fill: none; stroke: #000000; stroke-width: 0.8; stroke-linejoin: miter; stroke-linecap: square"/>
   </g>
   <g id="patch_4">
    <path d="M 366.48 313.225625 
L 366.48 7.2 
" style="fill: none; stroke: #000000; stroke-width: 0.8; stroke-linejoin: miter; stroke-linecap: square"/>
   </g>
   <g id="patch_5">
    <path d="M 48.32 313.225625 
L 366.48 313.225625 
" style="fill: none; stroke: #000000; stroke-width: 0.8; stroke-linejoin: miter; stroke-linecap: square"/>
   </g>
   <g id="patch_6">
    <path d="M 48.32 7.2 
L 366.48 7.2 
" style="fill: none; stroke: #000000; stroke-width: 0.8; stroke-linejoin: miter; stroke-linecap: square"/>
   </g>
  </g>
 </g>
 <defs>
  <clipPath id="p7082aa4b82">
   <rect x="48.32" y="7.2" width="318.16" height="306.025625"/>
  </clipPath>
 </defs>
</svg>
