<?xml version="1.0" encoding="utf-8" standalone="no"?>
<!DOCTYPE svg PUBLIC "-//W3C//DTD SVG 1.1//EN"
  "http://www.w3.org/Graphics/SVG/1.1/DTD/svg11.dtd">
<svg xmlns:xlink="http://www.w3.org/1999/xlink" width="509.867006pt" height="248.190139pt" viewBox="0 0 509.867006 248.190139" xmlns="http://www.w3.org/2000/svg" version="1.1">
 <metadata>
  <rdf:RDF xmlns:dc="http://purl.org/dc/elements/1.1/" xmlns:cc="http://creativecommons.org/ns#" xmlns:rdf="http://www.w3.org/1999/02/22-rdf-syntax-ns#">
   <cc:Work>
    <dc:type rdf:resource="http://purl.org/dc/dcmitype/StillImage"/>
    <dc:date>2023-03-24T08:25:15.802136</dc:date>
    <dc:format>image/svg+xml</dc:format>
    <dc:creator>
     <cc:Agent>
      <dc:title>Matplotlib v3.5.1, https://matplotlib.org/</dc:title>
     </cc:Agent>
    </dc:creator>
   </cc:Work>
  </rdf:RDF>
 </metadata>
 <defs>
  <style type="text/css">*{stroke-linejoin: round; stroke-linecap: butt}</style>
 </defs>
 <g id="figure_1">
  <g id="patch_1">
   <path d="M 0 248.190139 
L 509.867006 248.190139 
L 509.867006 0 
L 0 0 
z
" style="fill: #ffffff"/>
  </g>
  <g id="axes_1">
   <g id="patch_2">
    <path d="M 92.335122 44.092066 
C 84.504401 48.613135 77.553495 54.510539 71.817223 61.500207 
C 66.080951 68.489874 61.652919 76.457746 58.746418 85.02002 
C 55.839918 93.582293 54.502379 102.599247 54.79823 111.636544 
C 55.09408 120.673842 57.018492 129.58401 60.478769 137.937856 
C 63.939046 146.291703 68.878721 153.952908 75.059858 160.55244 
C 81.240994 167.151973 88.562726 172.582139 96.672373 176.581374 
C 104.782021 180.58061 113.547249 183.083654 122.545847 183.969939 
C 131.544446 184.856224 140.629572 184.111286 149.363607 181.771008 
C 158.097643 179.43073 166.338062 175.533302 173.687934 170.266458 
C 181.037807 164.999614 187.377195 158.4493 192.400738 150.931036 
C 197.424281 143.412773 201.050003 135.049245 203.103259 126.243315 
C 205.156514 117.437384 205.603796 108.332748 204.42356 99.367966 
C 203.243324 90.403184 200.454829 81.724546 196.192395 73.750092 
C 191.92996 65.775638 186.263141 58.635496 179.464901 52.6736 
C 172.666661 46.711704 164.847937 42.02534 156.385345 38.840247 
C 147.922754 35.655153 138.954392 34.023304 129.912253 34.023304 
L 129.912253 109.177566 
C 129.912253 109.177566 129.912253 109.177566 129.912253 109.177566 
C 129.912253 109.177566 129.912253 109.177566 129.912253 109.177566 
C 129.912253 109.177566 129.912253 109.177566 129.912253 109.177566 
C 129.912253 109.177566 129.912253 109.177566 129.912253 109.177566 
C 129.912253 109.177566 129.912253 109.177566 129.912253 109.177566 
C 129.912253 109.177566 129.912253 109.177566 129.912253 109.177566 
C 129.912253 109.177566 129.912253 109.177566 129.912253 109.177566 
C 129.912253 109.177566 129.912253 109.177566 129.912253 109.177566 
C 129.912253 109.177566 129.912253 109.177566 129.912253 109.177566 
C 129.912253 109.177566 129.912253 109.177566 129.912253 109.177566 
C 129.912253 109.177566 129.912253 109.177566 129.912253 109.177566 
C 129.912253 109.177566 129.912253 109.177566 129.912253 109.177566 
C 129.912253 109.177566 129.912253 109.177566 129.912253 109.177566 
C 129.912253 109.177566 129.912253 109.177566 129.912253 109.177566 
C 129.912253 109.177566 129.912253 109.177566 129.912253 109.177566 
C 129.912253 109.177566 129.912253 109.177566 129.912253 109.177566 
L 92.335122 44.092066 
z
" style="fill: #ffffff; opacity: 0.05"/>
   </g>
   <g id="matplotlib.axis_1">
    <g id="xtick_1">
     <g id="line2d_1">
      <path d="M 129.912253 109.177566 
L 129.912253 34.023304 
" clip-path="url(#pff018702dd)" style="fill: none; stroke: #b0b0b0; stroke-width: 0.8; stroke-linecap: square"/>
     </g>
     <g id="text_1">
      <!-- Jul '20 -->
      <g style="fill: #808080" transform="translate(112.756941 29.889375)scale(0.12 -0.12)">
       <defs>
        <path id="ArialMT-4a" d="M 184 1300 
L 731 1375 
Q 753 850 928 656 
Q 1103 463 1413 463 
Q 1641 463 1806 567 
Q 1972 672 2034 851 
Q 2097 1031 2097 1425 
L 2097 4581 
L 2703 4581 
L 2703 1459 
Q 2703 884 2564 568 
Q 2425 253 2123 87 
Q 1822 -78 1416 -78 
Q 813 -78 492 269 
Q 172 616 184 1300 
z
" transform="scale(0.015625)"/>
        <path id="ArialMT-75" d="M 2597 0 
L 2597 488 
Q 2209 -75 1544 -75 
Q 1250 -75 995 37 
Q 741 150 617 320 
Q 494 491 444 738 
Q 409 903 409 1263 
L 409 3319 
L 972 3319 
L 972 1478 
Q 972 1038 1006 884 
Q 1059 663 1231 536 
Q 1403 409 1656 409 
Q 1909 409 2131 539 
Q 2353 669 2445 892 
Q 2538 1116 2538 1541 
L 2538 3319 
L 3100 3319 
L 3100 0 
L 2597 0 
z
" transform="scale(0.015625)"/>
        <path id="ArialMT-6c" d="M 409 0 
L 409 4581 
L 972 4581 
L 972 0 
L 409 0 
z
" transform="scale(0.015625)"/>
        <path id="ArialMT-20" transform="scale(0.015625)"/>
        <path id="ArialMT-27" d="M 425 2959 
L 281 3816 
L 281 4581 
L 922 4581 
L 922 3816 
L 772 2959 
L 425 2959 
z
" transform="scale(0.015625)"/>
        <path id="ArialMT-32" d="M 3222 541 
L 3222 0 
L 194 0 
Q 188 203 259 391 
Q 375 700 629 1000 
Q 884 1300 1366 1694 
Q 2113 2306 2375 2664 
Q 2638 3022 2638 3341 
Q 2638 3675 2398 3904 
Q 2159 4134 1775 4134 
Q 1369 4134 1125 3890 
Q 881 3647 878 3216 
L 300 3275 
Q 359 3922 746 4261 
Q 1134 4600 1788 4600 
Q 2447 4600 2831 4234 
Q 3216 3869 3216 3328 
Q 3216 3053 3103 2787 
Q 2991 2522 2730 2228 
Q 2469 1934 1863 1422 
Q 1356 997 1212 845 
Q 1069 694 975 541 
L 3222 541 
z
" transform="scale(0.015625)"/>
        <path id="ArialMT-30" d="M 266 2259 
Q 266 3072 433 3567 
Q 600 4063 929 4331 
Q 1259 4600 1759 4600 
Q 2128 4600 2406 4451 
Q 2684 4303 2865 4023 
Q 3047 3744 3150 3342 
Q 3253 2941 3253 2259 
Q 3253 1453 3087 958 
Q 2922 463 2592 192 
Q 2263 -78 1759 -78 
Q 1097 -78 719 397 
Q 266 969 266 2259 
z
M 844 2259 
Q 844 1131 1108 757 
Q 1372 384 1759 384 
Q 2147 384 2411 759 
Q 2675 1134 2675 2259 
Q 2675 3391 2411 3762 
Q 2147 4134 1753 4134 
Q 1366 4134 1134 3806 
Q 844 3388 844 2259 
z
" transform="scale(0.015625)"/>
       </defs>
       <use xlink:href="#ArialMT-4a"/>
       <use xlink:href="#ArialMT-75" x="50"/>
       <use xlink:href="#ArialMT-6c" x="105.615234"/>
       <use xlink:href="#ArialMT-20" x="127.832031"/>
       <use xlink:href="#ArialMT-27" x="155.615234"/>
       <use xlink:href="#ArialMT-32" x="174.707031"/>
       <use xlink:href="#ArialMT-30" x="230.322266"/>
      </g>
     </g>
    </g>
    <g id="xtick_2">
     <g id="line2d_2">
      <path d="M 129.912253 109.177566 
L 167.489384 44.092066 
" clip-path="url(#pff018702dd)" style="fill: none; stroke: #b0b0b0; stroke-width: 0.8; stroke-linecap: square"/>
     </g>
     <g id="text_2">
      <!-- Oct '20 -->
      <g style="fill: #808080" transform="translate(171.107442 40.927593)scale(0.12 -0.12)">
       <defs>
        <path id="ArialMT-4f" d="M 309 2231 
Q 309 3372 921 4017 
Q 1534 4663 2503 4663 
Q 3138 4663 3647 4359 
Q 4156 4056 4423 3514 
Q 4691 2972 4691 2284 
Q 4691 1588 4409 1038 
Q 4128 488 3612 205 
Q 3097 -78 2500 -78 
Q 1853 -78 1343 234 
Q 834 547 571 1087 
Q 309 1628 309 2231 
z
M 934 2222 
Q 934 1394 1379 917 
Q 1825 441 2497 441 
Q 3181 441 3623 922 
Q 4066 1403 4066 2288 
Q 4066 2847 3877 3264 
Q 3688 3681 3323 3911 
Q 2959 4141 2506 4141 
Q 1863 4141 1398 3698 
Q 934 3256 934 2222 
z
" transform="scale(0.015625)"/>
        <path id="ArialMT-63" d="M 2588 1216 
L 3141 1144 
Q 3050 572 2676 248 
Q 2303 -75 1759 -75 
Q 1078 -75 664 370 
Q 250 816 250 1647 
Q 250 2184 428 2587 
Q 606 2991 970 3192 
Q 1334 3394 1763 3394 
Q 2303 3394 2647 3120 
Q 2991 2847 3088 2344 
L 2541 2259 
Q 2463 2594 2264 2762 
Q 2066 2931 1784 2931 
Q 1359 2931 1093 2626 
Q 828 2322 828 1663 
Q 828 994 1084 691 
Q 1341 388 1753 388 
Q 2084 388 2306 591 
Q 2528 794 2588 1216 
z
" transform="scale(0.015625)"/>
        <path id="ArialMT-74" d="M 1650 503 
L 1731 6 
Q 1494 -44 1306 -44 
Q 1000 -44 831 53 
Q 663 150 594 308 
Q 525 466 525 972 
L 525 2881 
L 113 2881 
L 113 3319 
L 525 3319 
L 525 4141 
L 1084 4478 
L 1084 3319 
L 1650 3319 
L 1650 2881 
L 1084 2881 
L 1084 941 
Q 1084 700 1114 631 
Q 1144 563 1211 522 
Q 1278 481 1403 481 
Q 1497 481 1650 503 
z
" transform="scale(0.015625)"/>
       </defs>
       <use xlink:href="#ArialMT-4f"/>
       <use xlink:href="#ArialMT-63" x="77.783203"/>
       <use xlink:href="#ArialMT-74" x="127.783203"/>
       <use xlink:href="#ArialMT-20" x="155.566406"/>
       <use xlink:href="#ArialMT-27" x="183.349609"/>
       <use xlink:href="#ArialMT-32" x="202.441406"/>
       <use xlink:href="#ArialMT-30" x="258.056641"/>
      </g>
     </g>
    </g>
    <g id="xtick_3">
     <g id="line2d_3">
      <path d="M 129.912253 109.177566 
L 194.997753 71.600435 
" clip-path="url(#pff018702dd)" style="fill: none; stroke: #b0b0b0; stroke-width: 0.8; stroke-linecap: square"/>
     </g>
     <g id="text_3">
      <!-- Jan '21 -->
      <g style="fill: #808080" transform="translate(201.264414 71.084564)scale(0.12 -0.12)">
       <defs>
        <path id="ArialMT-61" d="M 2588 409 
Q 2275 144 1986 34 
Q 1697 -75 1366 -75 
Q 819 -75 525 192 
Q 231 459 231 875 
Q 231 1119 342 1320 
Q 453 1522 633 1644 
Q 813 1766 1038 1828 
Q 1203 1872 1538 1913 
Q 2219 1994 2541 2106 
Q 2544 2222 2544 2253 
Q 2544 2597 2384 2738 
Q 2169 2928 1744 2928 
Q 1347 2928 1158 2789 
Q 969 2650 878 2297 
L 328 2372 
Q 403 2725 575 2942 
Q 747 3159 1072 3276 
Q 1397 3394 1825 3394 
Q 2250 3394 2515 3294 
Q 2781 3194 2906 3042 
Q 3031 2891 3081 2659 
Q 3109 2516 3109 2141 
L 3109 1391 
Q 3109 606 3145 398 
Q 3181 191 3288 0 
L 2700 0 
Q 2613 175 2588 409 
z
M 2541 1666 
Q 2234 1541 1622 1453 
Q 1275 1403 1131 1340 
Q 988 1278 909 1158 
Q 831 1038 831 891 
Q 831 666 1001 516 
Q 1172 366 1500 366 
Q 1825 366 2078 508 
Q 2331 650 2450 897 
Q 2541 1088 2541 1459 
L 2541 1666 
z
" transform="scale(0.015625)"/>
        <path id="ArialMT-6e" d="M 422 0 
L 422 3319 
L 928 3319 
L 928 2847 
Q 1294 3394 1984 3394 
Q 2284 3394 2536 3286 
Q 2788 3178 2913 3003 
Q 3038 2828 3088 2588 
Q 3119 2431 3119 2041 
L 3119 0 
L 2556 0 
L 2556 2019 
Q 2556 2363 2490 2533 
Q 2425 2703 2258 2804 
Q 2091 2906 1866 2906 
Q 1506 2906 1245 2678 
Q 984 2450 984 1813 
L 984 0 
L 422 0 
z
" transform="scale(0.015625)"/>
        <path id="ArialMT-31" d="M 2384 0 
L 1822 0 
L 1822 3584 
Q 1619 3391 1289 3197 
Q 959 3003 697 2906 
L 697 3450 
Q 1169 3672 1522 3987 
Q 1875 4303 2022 4600 
L 2384 4600 
L 2384 0 
z
" transform="scale(0.015625)"/>
       </defs>
       <use xlink:href="#ArialMT-4a"/>
       <use xlink:href="#ArialMT-61" x="50"/>
       <use xlink:href="#ArialMT-6e" x="105.615234"/>
       <use xlink:href="#ArialMT-20" x="161.230469"/>
       <use xlink:href="#ArialMT-27" x="189.013672"/>
       <use xlink:href="#ArialMT-32" x="208.105469"/>
       <use xlink:href="#ArialMT-31" x="263.720703"/>
      </g>
     </g>
    </g>
    <g id="xtick_4">
     <g id="line2d_4">
      <path d="M 129.912253 109.177566 
L 205.066515 109.177566 
" clip-path="url(#pff018702dd)" style="fill: none; stroke: #b0b0b0; stroke-width: 0.8; stroke-linecap: square"/>
     </g>
     <g id="text_4">
      <!-- Apr '21 -->
      <g style="fill: #808080" transform="translate(212.302631 112.297566)scale(0.12 -0.12)">
       <defs>
        <path id="ArialMT-41" d="M -9 0 
L 1750 4581 
L 2403 4581 
L 4278 0 
L 3588 0 
L 3053 1388 
L 1138 1388 
L 634 0 
L -9 0 
z
M 1313 1881 
L 2866 1881 
L 2388 3150 
Q 2169 3728 2063 4100 
Q 1975 3659 1816 3225 
L 1313 1881 
z
" transform="scale(0.015625)"/>
        <path id="ArialMT-70" d="M 422 -1272 
L 422 3319 
L 934 3319 
L 934 2888 
Q 1116 3141 1344 3267 
Q 1572 3394 1897 3394 
Q 2322 3394 2647 3175 
Q 2972 2956 3137 2557 
Q 3303 2159 3303 1684 
Q 3303 1175 3120 767 
Q 2938 359 2589 142 
Q 2241 -75 1856 -75 
Q 1575 -75 1351 44 
Q 1128 163 984 344 
L 984 -1272 
L 422 -1272 
z
M 931 1641 
Q 931 1000 1190 694 
Q 1450 388 1819 388 
Q 2194 388 2461 705 
Q 2728 1022 2728 1688 
Q 2728 2322 2467 2637 
Q 2206 2953 1844 2953 
Q 1484 2953 1207 2617 
Q 931 2281 931 1641 
z
" transform="scale(0.015625)"/>
        <path id="ArialMT-72" d="M 416 0 
L 416 3319 
L 922 3319 
L 922 2816 
Q 1116 3169 1280 3281 
Q 1444 3394 1641 3394 
Q 1925 3394 2219 3213 
L 2025 2691 
Q 1819 2813 1613 2813 
Q 1428 2813 1281 2702 
Q 1134 2591 1072 2394 
Q 978 2094 978 1738 
L 978 0 
L 416 0 
z
" transform="scale(0.015625)"/>
       </defs>
       <use xlink:href="#ArialMT-41"/>
       <use xlink:href="#ArialMT-70" x="66.699219"/>
       <use xlink:href="#ArialMT-72" x="122.314453"/>
       <use xlink:href="#ArialMT-20" x="155.615234"/>
       <use xlink:href="#ArialMT-27" x="183.398438"/>
       <use xlink:href="#ArialMT-32" x="202.490234"/>
       <use xlink:href="#ArialMT-31" x="258.105469"/>
      </g>
     </g>
    </g>
    <g id="xtick_5">
     <g id="line2d_5">
      <path d="M 129.912253 109.177566 
L 194.997753 146.754696 
" clip-path="url(#pff018702dd)" style="fill: none; stroke: #b0b0b0; stroke-width: 0.8; stroke-linecap: square"/>
     </g>
     <g id="text_5">
      <!-- Jul '21 -->
      <g style="fill: #808080" transform="translate(201.264414 153.474942)scale(0.12 -0.12)">
       <use xlink:href="#ArialMT-4a"/>
       <use xlink:href="#ArialMT-75" x="50"/>
       <use xlink:href="#ArialMT-6c" x="105.615234"/>
       <use xlink:href="#ArialMT-20" x="127.832031"/>
       <use xlink:href="#ArialMT-27" x="155.615234"/>
       <use xlink:href="#ArialMT-32" x="174.707031"/>
       <use xlink:href="#ArialMT-31" x="230.322266"/>
      </g>
     </g>
    </g>
    <g id="xtick_6">
     <g id="line2d_6">
      <path d="M 129.912253 109.177566 
L 167.489384 174.263065 
" clip-path="url(#pff018702dd)" style="fill: none; stroke: #b0b0b0; stroke-width: 0.8; stroke-linecap: square"/>
     </g>
     <g id="text_6">
      <!-- Oct '21 -->
      <g style="fill: #808080" transform="translate(171.107442 183.631914)scale(0.12 -0.12)">
       <use xlink:href="#ArialMT-4f"/>
       <use xlink:href="#ArialMT-63" x="77.783203"/>
       <use xlink:href="#ArialMT-74" x="127.783203"/>
       <use xlink:href="#ArialMT-20" x="155.566406"/>
       <use xlink:href="#ArialMT-27" x="183.349609"/>
       <use xlink:href="#ArialMT-32" x="202.441406"/>
       <use xlink:href="#ArialMT-31" x="258.056641"/>
      </g>
     </g>
    </g>
    <g id="xtick_7">
     <g id="line2d_7">
      <path d="M 129.912253 109.177566 
L 129.912253 184.331827 
" clip-path="url(#pff018702dd)" style="fill: none; stroke: #b0b0b0; stroke-width: 0.8; stroke-linecap: square"/>
     </g>
     <g id="text_7">
      <!-- Jan '22 -->
      <g style="fill: #808080" transform="translate(110.753503 194.670131)scale(0.12 -0.12)">
       <use xlink:href="#ArialMT-4a"/>
       <use xlink:href="#ArialMT-61" x="50"/>
       <use xlink:href="#ArialMT-6e" x="105.615234"/>
       <use xlink:href="#ArialMT-20" x="161.230469"/>
       <use xlink:href="#ArialMT-27" x="189.013672"/>
       <use xlink:href="#ArialMT-32" x="208.105469"/>
       <use xlink:href="#ArialMT-32" x="263.720703"/>
      </g>
     </g>
    </g>
    <g id="xtick_8">
     <g id="line2d_8">
      <path d="M 129.912253 109.177566 
L 92.335122 174.263065 
" clip-path="url(#pff018702dd)" style="fill: none; stroke: #b0b0b0; stroke-width: 0.8; stroke-linecap: square"/>
     </g>
     <g id="text_8">
      <!-- Apr '22 -->
      <g style="fill: #808080" transform="translate(51.072689 183.649726)scale(0.12 -0.12)">
       <use xlink:href="#ArialMT-41"/>
       <use xlink:href="#ArialMT-70" x="66.699219"/>
       <use xlink:href="#ArialMT-72" x="122.314453"/>
       <use xlink:href="#ArialMT-20" x="155.615234"/>
       <use xlink:href="#ArialMT-27" x="183.398438"/>
       <use xlink:href="#ArialMT-32" x="202.490234"/>
       <use xlink:href="#ArialMT-32" x="258.105469"/>
      </g>
     </g>
    </g>
    <g id="xtick_9">
     <g id="line2d_9">
      <path d="M 129.912253 109.177566 
L 64.826753 146.754696 
" clip-path="url(#pff018702dd)" style="fill: none; stroke: #b0b0b0; stroke-width: 0.8; stroke-linecap: square"/>
     </g>
     <g id="text_9">
      <!-- Jul '22 -->
      <g style="fill: #808080" transform="translate(24.249468 153.474942)scale(0.12 -0.12)">
       <use xlink:href="#ArialMT-4a"/>
       <use xlink:href="#ArialMT-75" x="50"/>
       <use xlink:href="#ArialMT-6c" x="105.615234"/>
       <use xlink:href="#ArialMT-20" x="127.832031"/>
       <use xlink:href="#ArialMT-27" x="155.615234"/>
       <use xlink:href="#ArialMT-32" x="174.707031"/>
       <use xlink:href="#ArialMT-32" x="230.322266"/>
      </g>
     </g>
    </g>
    <g id="xtick_10">
     <g id="line2d_10">
      <path d="M 129.912253 109.177566 
L 54.757991 109.177566 
" clip-path="url(#pff018702dd)" style="fill: none; stroke: #b0b0b0; stroke-width: 0.8; stroke-linecap: square"/>
     </g>
     <g id="text_10">
      <!-- Aug '22 -->
      <g style="fill: #808080" transform="translate(7.2 112.227253)scale(0.12 -0.12)">
       <defs>
        <path id="ArialMT-67" d="M 319 -275 
L 866 -356 
Q 900 -609 1056 -725 
Q 1266 -881 1628 -881 
Q 2019 -881 2231 -725 
Q 2444 -569 2519 -288 
Q 2563 -116 2559 434 
Q 2191 0 1641 0 
Q 956 0 581 494 
Q 206 988 206 1678 
Q 206 2153 378 2554 
Q 550 2956 876 3175 
Q 1203 3394 1644 3394 
Q 2231 3394 2613 2919 
L 2613 3319 
L 3131 3319 
L 3131 450 
Q 3131 -325 2973 -648 
Q 2816 -972 2473 -1159 
Q 2131 -1347 1631 -1347 
Q 1038 -1347 672 -1080 
Q 306 -813 319 -275 
z
M 784 1719 
Q 784 1066 1043 766 
Q 1303 466 1694 466 
Q 2081 466 2343 764 
Q 2606 1063 2606 1700 
Q 2606 2309 2336 2618 
Q 2066 2928 1684 2928 
Q 1309 2928 1046 2623 
Q 784 2319 784 1719 
z
" transform="scale(0.015625)"/>
       </defs>
       <use xlink:href="#ArialMT-41"/>
       <use xlink:href="#ArialMT-75" x="66.699219"/>
       <use xlink:href="#ArialMT-67" x="122.314453"/>
       <use xlink:href="#ArialMT-20" x="177.929688"/>
       <use xlink:href="#ArialMT-27" x="205.712891"/>
       <use xlink:href="#ArialMT-32" x="224.804688"/>
       <use xlink:href="#ArialMT-32" x="280.419922"/>
      </g>
     </g>
    </g>
    <g id="xtick_11">
     <g id="line2d_11">
      <path d="M 129.912253 109.177566 
L 64.826753 71.600435 
" clip-path="url(#pff018702dd)" style="fill: none; stroke: #b0b0b0; stroke-width: 0.8; stroke-linecap: square"/>
     </g>
     <g id="text_11">
      <!-- Sep '22 -->
      <g style="fill: #808080" transform="translate(18.238218 71.157689)scale(0.12 -0.12)">
       <defs>
        <path id="ArialMT-53" d="M 288 1472 
L 859 1522 
Q 900 1178 1048 958 
Q 1197 738 1509 602 
Q 1822 466 2213 466 
Q 2559 466 2825 569 
Q 3091 672 3220 851 
Q 3350 1031 3350 1244 
Q 3350 1459 3225 1620 
Q 3100 1781 2813 1891 
Q 2628 1963 1997 2114 
Q 1366 2266 1113 2400 
Q 784 2572 623 2826 
Q 463 3081 463 3397 
Q 463 3744 659 4045 
Q 856 4347 1234 4503 
Q 1613 4659 2075 4659 
Q 2584 4659 2973 4495 
Q 3363 4331 3572 4012 
Q 3781 3694 3797 3291 
L 3216 3247 
Q 3169 3681 2898 3903 
Q 2628 4125 2100 4125 
Q 1550 4125 1298 3923 
Q 1047 3722 1047 3438 
Q 1047 3191 1225 3031 
Q 1400 2872 2139 2705 
Q 2878 2538 3153 2413 
Q 3553 2228 3743 1945 
Q 3934 1663 3934 1294 
Q 3934 928 3725 604 
Q 3516 281 3123 101 
Q 2731 -78 2241 -78 
Q 1619 -78 1198 103 
Q 778 284 539 648 
Q 300 1013 288 1472 
z
" transform="scale(0.015625)"/>
        <path id="ArialMT-65" d="M 2694 1069 
L 3275 997 
Q 3138 488 2766 206 
Q 2394 -75 1816 -75 
Q 1088 -75 661 373 
Q 234 822 234 1631 
Q 234 2469 665 2931 
Q 1097 3394 1784 3394 
Q 2450 3394 2872 2941 
Q 3294 2488 3294 1666 
Q 3294 1616 3291 1516 
L 816 1516 
Q 847 969 1125 678 
Q 1403 388 1819 388 
Q 2128 388 2347 550 
Q 2566 713 2694 1069 
z
M 847 1978 
L 2700 1978 
Q 2663 2397 2488 2606 
Q 2219 2931 1791 2931 
Q 1403 2931 1139 2672 
Q 875 2413 847 1978 
z
" transform="scale(0.015625)"/>
       </defs>
       <use xlink:href="#ArialMT-53"/>
       <use xlink:href="#ArialMT-65" x="66.699219"/>
       <use xlink:href="#ArialMT-70" x="122.314453"/>
       <use xlink:href="#ArialMT-20" x="177.929688"/>
       <use xlink:href="#ArialMT-27" x="205.712891"/>
       <use xlink:href="#ArialMT-32" x="224.804688"/>
       <use xlink:href="#ArialMT-32" x="280.419922"/>
      </g>
     </g>
    </g>
    <g id="xtick_12">
     <g id="line2d_12">
      <path d="M 129.912253 109.177566 
L 92.335122 44.092066 
" clip-path="url(#pff018702dd)" style="fill: none; stroke: #b0b0b0; stroke-width: 0.8; stroke-linecap: square"/>
     </g>
     <g id="text_12">
      <!-- Nov '22 -->
      <g style="fill: #808080" transform="translate(48.406439 40.927593)scale(0.12 -0.12)">
       <defs>
        <path id="ArialMT-4e" d="M 488 0 
L 488 4581 
L 1109 4581 
L 3516 984 
L 3516 4581 
L 4097 4581 
L 4097 0 
L 3475 0 
L 1069 3600 
L 1069 0 
L 488 0 
z
" transform="scale(0.015625)"/>
        <path id="ArialMT-6f" d="M 213 1659 
Q 213 2581 725 3025 
Q 1153 3394 1769 3394 
Q 2453 3394 2887 2945 
Q 3322 2497 3322 1706 
Q 3322 1066 3130 698 
Q 2938 331 2570 128 
Q 2203 -75 1769 -75 
Q 1072 -75 642 372 
Q 213 819 213 1659 
z
M 791 1659 
Q 791 1022 1069 705 
Q 1347 388 1769 388 
Q 2188 388 2466 706 
Q 2744 1025 2744 1678 
Q 2744 2294 2464 2611 
Q 2184 2928 1769 2928 
Q 1347 2928 1069 2612 
Q 791 2297 791 1659 
z
" transform="scale(0.015625)"/>
        <path id="ArialMT-76" d="M 1344 0 
L 81 3319 
L 675 3319 
L 1388 1331 
Q 1503 1009 1600 663 
Q 1675 925 1809 1294 
L 2547 3319 
L 3125 3319 
L 1869 0 
L 1344 0 
z
" transform="scale(0.015625)"/>
       </defs>
       <use xlink:href="#ArialMT-4e"/>
       <use xlink:href="#ArialMT-6f" x="72.216797"/>
       <use xlink:href="#ArialMT-76" x="127.832031"/>
       <use xlink:href="#ArialMT-20" x="177.832031"/>
       <use xlink:href="#ArialMT-27" x="205.615234"/>
       <use xlink:href="#ArialMT-32" x="224.707031"/>
       <use xlink:href="#ArialMT-32" x="280.322266"/>
      </g>
     </g>
    </g>
   </g>
   <g id="matplotlib.axis_2">
    <g id="ytick_1">
     <g id="line2d_13">
      <path d="M 129.912253 79.115861 
C 133.529109 79.115861 137.116454 79.768601 140.50149 81.042638 
C 143.886527 82.316676 147.014016 84.191221 149.733312 86.575979 
C 152.452608 88.960738 154.719336 91.816794 156.42431 95.006576 
C 158.129284 98.196358 159.244681 101.667813 159.716776 105.253726 
C 160.18887 108.839639 160.009957 112.481493 159.188655 116.003865 
C 158.367353 119.526237 156.917064 122.871649 154.907647 125.878954 
C 152.89823 128.886259 150.362475 131.506385 147.422526 133.613123 
C 144.482577 135.71986 141.186409 137.278832 137.692795 138.214943 
C 134.199181 139.151054 130.56513 139.449029 126.965691 139.094515 
C 123.366252 138.740001 119.86016 137.738783 116.616301 136.139089 
C 113.372442 134.539395 110.443749 132.367328 107.971295 129.727516 
C 105.49884 127.087703 103.52297 124.023221 102.138859 120.681682 
C 100.754749 117.340143 99.984984 113.776076 99.866644 110.161157 
C 99.748304 106.546238 100.283319 102.939457 101.445919 99.514547 
C 102.608519 96.089638 104.379732 92.902489 106.674241 90.106622 
C 108.96875 87.310755 111.749112 84.951793 114.881401 83.143366 
" clip-path="url(#pff018702dd)" style="fill: none; stroke: #b0b0b0; stroke-width: 0.8; stroke-linecap: square"/>
     </g>
     <g id="text_13">
      <!-- 0 -->
      <g transform="translate(116.239128 82.218048)scale(0.12 -0.12)">
       <use xlink:href="#ArialMT-30"/>
      </g>
     </g>
    </g>
    <g id="ytick_2">
     <g id="line2d_14">
      <path d="M 129.912253 64.085009 
C 135.337536 64.085009 140.718554 65.064118 145.796109 66.975174 
C 150.873663 68.886231 155.564898 71.698049 159.643842 75.275186 
C 163.722786 78.852324 167.122877 83.136409 169.680338 87.921081 
C 172.237799 92.705754 173.910896 97.912937 174.619037 103.291806 
C 175.327179 108.670675 175.058809 114.133457 173.826856 119.417015 
C 172.594903 124.700573 170.41947 129.71869 167.405344 134.229648 
C 164.391218 138.740606 160.587585 142.670795 156.177662 145.830901 
C 151.767738 148.991008 146.823487 151.329464 141.583066 152.733631 
C 136.342645 154.137798 130.891569 154.58476 125.49241 154.05299 
C 120.093251 153.521219 114.834114 152.019392 109.968325 149.619851 
C 105.102537 147.220309 100.709498 143.96221 97.000816 140.002491 
C 93.292134 136.042771 90.328329 131.446048 88.252163 126.43374 
C 86.175997 121.421432 85.02135 116.075331 84.843839 110.652953 
C 84.666329 105.230574 85.468852 99.820402 87.212752 94.683038 
C 88.956652 89.545674 91.613472 84.764951 95.055235 80.57115 
C 98.496998 76.37735 102.667542 72.838907 107.365975 70.126266 
" clip-path="url(#pff018702dd)" style="fill: none; stroke: #b0b0b0; stroke-width: 0.8; stroke-linecap: square"/>
     </g>
     <g id="text_14">
      <!-- 0.5 -->
      <g transform="translate(106.232253 67.187196)scale(0.12 -0.12)">
       <defs>
        <path id="ArialMT-2e" d="M 581 0 
L 581 641 
L 1222 641 
L 1222 0 
L 581 0 
z
" transform="scale(0.015625)"/>
        <path id="ArialMT-35" d="M 266 1200 
L 856 1250 
Q 922 819 1161 601 
Q 1400 384 1738 384 
Q 2144 384 2425 690 
Q 2706 997 2706 1503 
Q 2706 1984 2436 2262 
Q 2166 2541 1728 2541 
Q 1456 2541 1237 2417 
Q 1019 2294 894 2097 
L 366 2166 
L 809 4519 
L 3088 4519 
L 3088 3981 
L 1259 3981 
L 1013 2750 
Q 1425 3038 1878 3038 
Q 2478 3038 2890 2622 
Q 3303 2206 3303 1553 
Q 3303 931 2941 478 
Q 2500 -78 1738 -78 
Q 1113 -78 717 272 
Q 322 622 266 1200 
z
" transform="scale(0.015625)"/>
       </defs>
       <use xlink:href="#ArialMT-30"/>
       <use xlink:href="#ArialMT-2e" x="55.615234"/>
       <use xlink:href="#ArialMT-35" x="83.398438"/>
      </g>
     </g>
    </g>
    <g id="ytick_3">
     <g id="line2d_15">
      <path d="M 129.912253 49.054156 
C 137.145964 49.054156 144.320654 50.359635 151.090727 52.90771 
C 157.8608 55.455785 164.11578 59.204876 169.554371 63.974393 
C 174.992963 68.74391 179.526419 74.456023 182.936366 80.835587 
C 186.346314 87.21515 188.57711 94.15806 189.521298 101.329886 
C 190.465487 108.501711 190.107661 115.78542 188.465057 122.830165 
C 186.822453 129.874909 183.921875 136.565731 179.903041 142.580342 
C 175.884207 148.594953 170.812696 153.835204 164.932798 158.04868 
C 159.0529 162.262155 152.460565 165.380097 145.473337 167.25232 
C 138.486108 169.124542 131.218007 169.720492 124.019128 169.011464 
C 116.82025 168.302437 109.808067 166.300001 103.320349 163.100613 
C 96.832631 159.901224 90.975246 155.557091 86.030337 150.277465 
C 81.085428 144.99784 77.133687 138.868876 74.365466 132.185798 
C 71.597245 125.502721 70.057715 118.374586 69.821035 111.144748 
C 69.584354 103.914911 70.654385 96.701348 72.979585 89.851529 
C 75.304785 83.00171 78.847212 76.627413 83.436229 71.035679 
C 88.025247 65.443944 93.585971 60.726021 99.850548 57.109166 
" clip-path="url(#pff018702dd)" style="fill: none; stroke: #b0b0b0; stroke-width: 0.8; stroke-linecap: square"/>
     </g>
     <g id="text_15">
      <!-- 1 -->
      <g transform="translate(116.239128 52.156344)scale(0.12 -0.12)">
       <use xlink:href="#ArialMT-31"/>
      </g>
     </g>
    </g>
    <g id="ytick_4">
     <g id="line2d_16">
      <path d="M 129.912253 34.023304 
C 138.954392 34.023304 147.922754 35.655153 156.385345 38.840247 
C 164.847937 42.02534 172.666661 46.711704 179.464901 52.6736 
C 186.263141 58.635496 191.92996 65.775638 196.192395 73.750092 
C 200.454829 81.724546 203.243324 90.403184 204.42356 99.367966 
C 205.603796 108.332748 205.156514 117.437384 203.103259 126.243315 
C 201.050003 135.049245 197.424281 143.412773 192.400738 150.931036 
C 187.377195 158.4493 181.037807 164.999614 173.687934 170.266458 
C 166.338062 175.533302 158.097643 179.43073 149.363607 181.771008 
C 140.629572 184.111286 131.544446 184.856224 122.545847 183.969939 
C 113.547249 183.083654 104.782021 180.58061 96.672373 176.581374 
C 88.562726 172.582139 81.240994 167.151973 75.059858 160.55244 
C 68.878721 153.952908 63.939046 146.291703 60.478769 137.937856 
C 57.018492 129.58401 55.09408 120.673842 54.79823 111.636544 
C 54.502379 102.599247 55.839918 93.582293 58.746418 85.02002 
C 61.652919 76.457746 66.080951 68.489874 71.817223 61.500207 
C 77.553495 54.510539 84.504401 48.613135 92.335122 44.092066 
" clip-path="url(#pff018702dd)" style="fill: none; stroke: #b0b0b0; stroke-width: 0.8; stroke-linecap: square"/>
     </g>
     <g id="text_16">
      <!-- 1.5 -->
      <g transform="translate(106.232253 37.125491)scale(0.12 -0.12)">
       <use xlink:href="#ArialMT-31"/>
       <use xlink:href="#ArialMT-2e" x="55.615234"/>
       <use xlink:href="#ArialMT-35" x="83.398438"/>
      </g>
     </g>
    </g>
   </g>
   <g id="patch_3">
    <path d="M 92.335122 44.092066 
C 84.504401 48.613135 77.553495 54.510539 71.817223 61.500207 
C 66.080951 68.489874 61.652919 76.457746 58.746418 85.02002 
C 55.839918 93.582293 54.502379 102.599247 54.79823 111.636544 
C 55.09408 120.673842 57.018492 129.58401 60.478769 137.937856 
C 63.939046 146.291703 68.878721 153.952908 75.059858 160.55244 
C 81.240994 167.151973 88.562726 172.582139 96.672373 176.581374 
C 104.782021 180.58061 113.547249 183.083654 122.545847 183.969939 
C 131.544446 184.856224 140.629572 184.111286 149.363607 181.771008 
C 158.097643 179.43073 166.338062 175.533302 173.687934 170.266458 
C 181.037807 164.999614 187.377195 158.4493 192.400738 150.931036 
C 197.424281 143.412773 201.050003 135.049245 203.103259 126.243315 
C 205.156514 117.437384 205.603796 108.332748 204.42356 99.367966 
C 203.243324 90.403184 200.454829 81.724546 196.192395 73.750092 
C 191.92996 65.775638 186.263141 58.635496 179.464901 52.6736 
C 172.666661 46.711704 164.847937 42.02534 156.385345 38.840247 
C 147.922754 35.655153 138.954392 34.023304 129.912253 34.023304 
" style="fill: none; stroke: #000000; stroke-width: 0.8; stroke-linejoin: miter; stroke-linecap: square"/>
   </g>
   <g id="patch_4">
    <path d="M 129.912253 109.177566 
L 129.912253 34.023304 
" style="fill: none; stroke: #000000; stroke-width: 0.8; stroke-linejoin: miter; stroke-linecap: square"/>
   </g>
   <g id="patch_5">
    <path d="M 129.912253 109.177566 
L 92.335122 44.092066 
" style="fill: none; stroke: #000000; stroke-width: 0.8; stroke-linejoin: miter; stroke-linecap: square"/>
   </g>
   <g id="text_17">
    <!-- a Ammonia [USD kg$^\mathrm{-1}$ CO$_\mathrm{2}$-eq] -->
    <g transform="translate(63.813088 15.3)scale(0.09 -0.09)">
     <defs>
      <path id="Arial-BoldMT-61" d="M 1116 2306 
L 319 2450 
Q 453 2931 781 3162 
Q 1109 3394 1756 3394 
Q 2344 3394 2631 3255 
Q 2919 3116 3036 2902 
Q 3153 2688 3153 2116 
L 3144 1091 
Q 3144 653 3186 445 
Q 3228 238 3344 0 
L 2475 0 
Q 2441 88 2391 259 
Q 2369 338 2359 363 
Q 2134 144 1878 34 
Q 1622 -75 1331 -75 
Q 819 -75 523 203 
Q 228 481 228 906 
Q 228 1188 362 1408 
Q 497 1628 739 1745 
Q 981 1863 1438 1950 
Q 2053 2066 2291 2166 
L 2291 2253 
Q 2291 2506 2166 2614 
Q 2041 2722 1694 2722 
Q 1459 2722 1328 2630 
Q 1197 2538 1116 2306 
z
M 2291 1594 
Q 2122 1538 1756 1459 
Q 1391 1381 1278 1306 
Q 1106 1184 1106 997 
Q 1106 813 1243 678 
Q 1381 544 1594 544 
Q 1831 544 2047 700 
Q 2206 819 2256 991 
Q 2291 1103 2291 1419 
L 2291 1594 
z
" transform="scale(0.015625)"/>
      <path id="Arial-BoldMT-20" transform="scale(0.015625)"/>
      <path id="Arial-BoldMT-41" d="M 4597 0 
L 3591 0 
L 3191 1041 
L 1359 1041 
L 981 0 
L 0 0 
L 1784 4581 
L 2763 4581 
L 4597 0 
z
M 2894 1813 
L 2263 3513 
L 1644 1813 
L 2894 1813 
z
" transform="scale(0.015625)"/>
      <path id="Arial-BoldMT-6d" d="M 394 3319 
L 1203 3319 
L 1203 2866 
Q 1638 3394 2238 3394 
Q 2556 3394 2790 3262 
Q 3025 3131 3175 2866 
Q 3394 3131 3647 3262 
Q 3900 3394 4188 3394 
Q 4553 3394 4806 3245 
Q 5059 3097 5184 2809 
Q 5275 2597 5275 2122 
L 5275 0 
L 4397 0 
L 4397 1897 
Q 4397 2391 4306 2534 
Q 4184 2722 3931 2722 
Q 3747 2722 3584 2609 
Q 3422 2497 3350 2280 
Q 3278 2063 3278 1594 
L 3278 0 
L 2400 0 
L 2400 1819 
Q 2400 2303 2353 2443 
Q 2306 2584 2207 2653 
Q 2109 2722 1941 2722 
Q 1738 2722 1575 2612 
Q 1413 2503 1342 2297 
Q 1272 2091 1272 1613 
L 1272 0 
L 394 0 
L 394 3319 
z
" transform="scale(0.015625)"/>
      <path id="Arial-BoldMT-6f" d="M 256 1706 
Q 256 2144 472 2553 
Q 688 2963 1083 3178 
Q 1478 3394 1966 3394 
Q 2719 3394 3200 2905 
Q 3681 2416 3681 1669 
Q 3681 916 3195 420 
Q 2709 -75 1972 -75 
Q 1516 -75 1102 131 
Q 688 338 472 736 
Q 256 1134 256 1706 
z
M 1156 1659 
Q 1156 1166 1390 903 
Q 1625 641 1969 641 
Q 2313 641 2545 903 
Q 2778 1166 2778 1666 
Q 2778 2153 2545 2415 
Q 2313 2678 1969 2678 
Q 1625 2678 1390 2415 
Q 1156 2153 1156 1659 
z
" transform="scale(0.015625)"/>
      <path id="Arial-BoldMT-6e" d="M 3478 0 
L 2600 0 
L 2600 1694 
Q 2600 2231 2544 2389 
Q 2488 2547 2361 2634 
Q 2234 2722 2056 2722 
Q 1828 2722 1647 2597 
Q 1466 2472 1398 2265 
Q 1331 2059 1331 1503 
L 1331 0 
L 453 0 
L 453 3319 
L 1269 3319 
L 1269 2831 
Q 1703 3394 2363 3394 
Q 2653 3394 2893 3289 
Q 3134 3184 3257 3021 
Q 3381 2859 3429 2653 
Q 3478 2447 3478 2063 
L 3478 0 
z
" transform="scale(0.015625)"/>
      <path id="Arial-BoldMT-69" d="M 459 3769 
L 459 4581 
L 1338 4581 
L 1338 3769 
L 459 3769 
z
M 459 0 
L 459 3319 
L 1338 3319 
L 1338 0 
L 459 0 
z
" transform="scale(0.015625)"/>
      <path id="Arial-BoldMT-5b" d="M 456 -1291 
L 456 4581 
L 2013 4581 
L 2013 3891 
L 1291 3891 
L 1291 -600 
L 2013 -600 
L 2013 -1291 
L 456 -1291 
z
" transform="scale(0.015625)"/>
      <path id="Arial-BoldMT-55" d="M 459 4581 
L 1384 4581 
L 1384 2100 
Q 1384 1509 1419 1334 
Q 1478 1053 1701 883 
Q 1925 713 2313 713 
Q 2706 713 2906 873 
Q 3106 1034 3147 1268 
Q 3188 1503 3188 2047 
L 3188 4581 
L 4113 4581 
L 4113 2175 
Q 4113 1350 4038 1009 
Q 3963 669 3761 434 
Q 3559 200 3221 61 
Q 2884 -78 2341 -78 
Q 1684 -78 1345 73 
Q 1006 225 809 467 
Q 613 709 550 975 
Q 459 1369 459 2138 
L 459 4581 
z
" transform="scale(0.015625)"/>
      <path id="Arial-BoldMT-53" d="M 231 1491 
L 1131 1578 
Q 1213 1125 1461 912 
Q 1709 700 2131 700 
Q 2578 700 2804 889 
Q 3031 1078 3031 1331 
Q 3031 1494 2936 1608 
Q 2841 1722 2603 1806 
Q 2441 1863 1863 2006 
Q 1119 2191 819 2459 
Q 397 2838 397 3381 
Q 397 3731 595 4036 
Q 794 4341 1167 4500 
Q 1541 4659 2069 4659 
Q 2931 4659 3367 4281 
Q 3803 3903 3825 3272 
L 2900 3231 
Q 2841 3584 2645 3739 
Q 2450 3894 2059 3894 
Q 1656 3894 1428 3728 
Q 1281 3622 1281 3444 
Q 1281 3281 1419 3166 
Q 1594 3019 2269 2859 
Q 2944 2700 3267 2529 
Q 3591 2359 3773 2064 
Q 3956 1769 3956 1334 
Q 3956 941 3737 597 
Q 3519 253 3119 86 
Q 2719 -81 2122 -81 
Q 1253 -81 787 320 
Q 322 722 231 1491 
z
" transform="scale(0.015625)"/>
      <path id="Arial-BoldMT-44" d="M 463 4581 
L 2153 4581 
Q 2725 4581 3025 4494 
Q 3428 4375 3715 4072 
Q 4003 3769 4153 3330 
Q 4303 2891 4303 2247 
Q 4303 1681 4163 1272 
Q 3991 772 3672 463 
Q 3431 228 3022 97 
Q 2716 0 2203 0 
L 463 0 
L 463 4581 
z
M 1388 3806 
L 1388 772 
L 2078 772 
Q 2466 772 2638 816 
Q 2863 872 3011 1006 
Q 3159 1141 3253 1448 
Q 3347 1756 3347 2288 
Q 3347 2819 3253 3103 
Q 3159 3388 2990 3547 
Q 2822 3706 2563 3763 
Q 2369 3806 1803 3806 
L 1388 3806 
z
" transform="scale(0.015625)"/>
      <path id="Arial-BoldMT-6b" d="M 428 0 
L 428 4581 
L 1306 4581 
L 1306 2150 
L 2334 3319 
L 3416 3319 
L 2281 2106 
L 3497 0 
L 2550 0 
L 1716 1491 
L 1306 1063 
L 1306 0 
L 428 0 
z
" transform="scale(0.015625)"/>
      <path id="Arial-BoldMT-67" d="M 378 -219 
L 1381 -341 
Q 1406 -516 1497 -581 
Q 1622 -675 1891 -675 
Q 2234 -675 2406 -572 
Q 2522 -503 2581 -350 
Q 2622 -241 2622 53 
L 2622 538 
Q 2228 0 1628 0 
Q 959 0 569 566 
Q 263 1013 263 1678 
Q 263 2513 664 2953 
Q 1066 3394 1663 3394 
Q 2278 3394 2678 2853 
L 2678 3319 
L 3500 3319 
L 3500 341 
Q 3500 -247 3403 -537 
Q 3306 -828 3131 -993 
Q 2956 -1159 2664 -1253 
Q 2372 -1347 1925 -1347 
Q 1081 -1347 728 -1058 
Q 375 -769 375 -325 
Q 375 -281 378 -219 
z
M 1163 1728 
Q 1163 1200 1367 954 
Q 1572 709 1872 709 
Q 2194 709 2416 961 
Q 2638 1213 2638 1706 
Q 2638 2222 2425 2472 
Q 2213 2722 1888 2722 
Q 1572 2722 1367 2476 
Q 1163 2231 1163 1728 
z
" transform="scale(0.015625)"/>
      <path id="DejaVuSans-2212" d="M 678 2272 
L 4684 2272 
L 4684 1741 
L 678 1741 
L 678 2272 
z
" transform="scale(0.015625)"/>
      <path id="DejaVuSans-31" d="M 794 531 
L 1825 531 
L 1825 4091 
L 703 3866 
L 703 4441 
L 1819 4666 
L 2450 4666 
L 2450 531 
L 3481 531 
L 3481 0 
L 794 0 
L 794 531 
z
" transform="scale(0.015625)"/>
      <path id="Arial-BoldMT-43" d="M 3397 1684 
L 4294 1400 
Q 4088 650 3608 286 
Q 3128 -78 2391 -78 
Q 1478 -78 890 545 
Q 303 1169 303 2250 
Q 303 3394 893 4026 
Q 1484 4659 2447 4659 
Q 3288 4659 3813 4163 
Q 4125 3869 4281 3319 
L 3366 3100 
Q 3284 3456 3026 3662 
Q 2769 3869 2400 3869 
Q 1891 3869 1573 3503 
Q 1256 3138 1256 2319 
Q 1256 1450 1568 1081 
Q 1881 713 2381 713 
Q 2750 713 3015 947 
Q 3281 1181 3397 1684 
z
" transform="scale(0.015625)"/>
      <path id="Arial-BoldMT-4f" d="M 278 2263 
Q 278 2963 488 3438 
Q 644 3788 914 4066 
Q 1184 4344 1506 4478 
Q 1934 4659 2494 4659 
Q 3506 4659 4114 4031 
Q 4722 3403 4722 2284 
Q 4722 1175 4119 548 
Q 3516 -78 2506 -78 
Q 1484 -78 881 545 
Q 278 1169 278 2263 
z
M 1231 2294 
Q 1231 1516 1590 1114 
Q 1950 713 2503 713 
Q 3056 713 3411 1111 
Q 3766 1509 3766 2306 
Q 3766 3094 3420 3481 
Q 3075 3869 2503 3869 
Q 1931 3869 1581 3476 
Q 1231 3084 1231 2294 
z
" transform="scale(0.015625)"/>
      <path id="DejaVuSans-32" d="M 1228 531 
L 3431 531 
L 3431 0 
L 469 0 
L 469 531 
Q 828 903 1448 1529 
Q 2069 2156 2228 2338 
Q 2531 2678 2651 2914 
Q 2772 3150 2772 3378 
Q 2772 3750 2511 3984 
Q 2250 4219 1831 4219 
Q 1534 4219 1204 4116 
Q 875 4013 500 3803 
L 500 4441 
Q 881 4594 1212 4672 
Q 1544 4750 1819 4750 
Q 2544 4750 2975 4387 
Q 3406 4025 3406 3419 
Q 3406 3131 3298 2873 
Q 3191 2616 2906 2266 
Q 2828 2175 2409 1742 
Q 1991 1309 1228 531 
z
" transform="scale(0.015625)"/>
      <path id="Arial-BoldMT-2d" d="M 359 1222 
L 359 2100 
L 2084 2100 
L 2084 1222 
L 359 1222 
z
" transform="scale(0.015625)"/>
      <path id="Arial-BoldMT-65" d="M 2381 1056 
L 3256 909 
Q 3088 428 2723 176 
Q 2359 -75 1813 -75 
Q 947 -75 531 491 
Q 203 944 203 1634 
Q 203 2459 634 2926 
Q 1066 3394 1725 3394 
Q 2466 3394 2894 2905 
Q 3322 2416 3303 1406 
L 1103 1406 
Q 1113 1016 1316 798 
Q 1519 581 1822 581 
Q 2028 581 2168 693 
Q 2309 806 2381 1056 
z
M 2431 1944 
Q 2422 2325 2234 2523 
Q 2047 2722 1778 2722 
Q 1491 2722 1303 2513 
Q 1116 2303 1119 1944 
L 2431 1944 
z
" transform="scale(0.015625)"/>
      <path id="Arial-BoldMT-71" d="M 2628 -1263 
L 2628 406 
Q 2456 184 2200 54 
Q 1944 -75 1647 -75 
Q 1081 -75 716 350 
Q 284 847 284 1697 
Q 284 2497 689 2945 
Q 1094 3394 1694 3394 
Q 2025 3394 2267 3253 
Q 2509 3113 2697 2828 
L 2697 3319 
L 3506 3319 
L 3506 -1263 
L 2628 -1263 
z
M 2656 1700 
Q 2656 2209 2448 2457 
Q 2241 2706 1928 2706 
Q 1609 2706 1395 2453 
Q 1181 2200 1181 1650 
Q 1181 1103 1387 861 
Q 1594 619 1897 619 
Q 2200 619 2428 891 
Q 2656 1163 2656 1700 
z
" transform="scale(0.015625)"/>
      <path id="Arial-BoldMT-5d" d="M 1675 4581 
L 1675 -1291 
L 119 -1291 
L 119 -600 
L 841 -600 
L 841 3897 
L 119 3897 
L 119 4581 
L 1675 4581 
z
" transform="scale(0.015625)"/>
     </defs>
     <use xlink:href="#Arial-BoldMT-61" transform="translate(0 0.684375)"/>
     <use xlink:href="#Arial-BoldMT-20" transform="translate(55.615234 0.684375)"/>
     <use xlink:href="#Arial-BoldMT-41" transform="translate(83.398438 0.684375)"/>
     <use xlink:href="#Arial-BoldMT-6d" transform="translate(155.615234 0.684375)"/>
     <use xlink:href="#Arial-BoldMT-6d" transform="translate(244.53125 0.684375)"/>
     <use xlink:href="#Arial-BoldMT-6f" transform="translate(333.447266 0.684375)"/>
     <use xlink:href="#Arial-BoldMT-6e" transform="translate(394.53125 0.684375)"/>
     <use xlink:href="#Arial-BoldMT-69" transform="translate(455.615234 0.684375)"/>
     <use xlink:href="#Arial-BoldMT-61" transform="translate(483.398438 0.684375)"/>
     <use xlink:href="#Arial-BoldMT-20" transform="translate(539.013672 0.684375)"/>
     <use xlink:href="#Arial-BoldMT-5b" transform="translate(566.796875 0.684375)"/>
     <use xlink:href="#Arial-BoldMT-55" transform="translate(600.097656 0.684375)"/>
     <use xlink:href="#Arial-BoldMT-53" transform="translate(672.314453 0.684375)"/>
     <use xlink:href="#Arial-BoldMT-44" transform="translate(739.013672 0.684375)"/>
     <use xlink:href="#Arial-BoldMT-20" transform="translate(811.230469 0.684375)"/>
     <use xlink:href="#Arial-BoldMT-6b" transform="translate(839.013672 0.684375)"/>
     <use xlink:href="#Arial-BoldMT-67" transform="translate(894.628906 0.684375)"/>
     <use xlink:href="#DejaVuSans-2212" transform="translate(956.669922 38.965625)scale(0.7)"/>
     <use xlink:href="#DejaVuSans-31" transform="translate(1015.322266 38.965625)scale(0.7)"/>
     <use xlink:href="#Arial-BoldMT-20" transform="translate(1062.592773 0.684375)"/>
     <use xlink:href="#Arial-BoldMT-43" transform="translate(1090.375977 0.684375)"/>
     <use xlink:href="#Arial-BoldMT-4f" transform="translate(1162.592773 0.684375)"/>
     <use xlink:href="#DejaVuSans-32" transform="translate(1241.333008 -15.721875)scale(0.7)"/>
     <use xlink:href="#Arial-BoldMT-2d" transform="translate(1288.603516 0.684375)"/>
     <use xlink:href="#Arial-BoldMT-65" transform="translate(1321.904297 0.684375)"/>
     <use xlink:href="#Arial-BoldMT-71" transform="translate(1377.519531 0.684375)"/>
     <use xlink:href="#Arial-BoldMT-5d" transform="translate(1438.603516 0.684375)"/>
    </g>
   </g>
   <g id="PolyCollection_1">
    <defs>
     <path id="m5844e07b3d" d="M 129.912253 -167.87181 
L 129.912253 -139.012573 
L 129.912253 -139.012573 
L 129.912253 -139.012573 
L 129.912253 -139.012573 
L 129.912253 -139.012573 
L 129.912253 -139.012573 
L 129.912253 -139.012573 
L 129.912253 -139.012573 
L 129.912253 -139.012573 
L 129.912253 -139.012573 
L 129.912253 -139.012573 
L 129.912253 -139.012573 
L 129.912253 -139.012573 
L 129.912253 -139.012573 
L 129.912253 -139.012573 
L 129.912253 -139.012573 
L 129.912253 -139.012573 
L 129.912253 -139.012573 
L 129.912253 -139.012573 
L 129.912253 -139.012573 
L 129.912253 -139.012573 
L 129.912253 -139.012573 
L 129.912253 -139.012573 
L 129.912253 -139.012573 
L 129.912253 -139.012573 
L 129.912253 -139.012573 
L 129.912253 -139.012573 
L 129.912253 -139.012573 
L 129.912253 -139.012573 
L 129.912253 -139.012573 
L 129.912253 -139.012573 
L 129.912253 -139.012573 
L 129.912253 -139.012573 
L 129.912253 -139.012573 
L 129.912253 -139.012573 
L 129.912253 -139.012573 
L 129.912253 -139.012573 
L 129.912253 -139.012573 
L 129.912253 -139.012573 
L 129.912253 -139.012573 
L 129.912253 -139.012573 
L 129.912253 -139.012573 
L 129.912253 -139.012573 
L 129.912253 -139.012573 
L 129.912253 -139.012573 
L 129.912253 -139.012573 
L 129.912253 -139.012573 
L 129.912253 -167.87181 
L 129.912253 -167.87181 
L 124.900899 -167.433373 
L 120.041813 -166.131385 
L 115.482635 -164.005405 
L 112.343863 -161.908145 
L 109.505691 -159.419135 
L 107.016681 -156.580963 
L 104.919421 -153.442191 
L 102.793442 -148.883013 
L 101.491453 -144.023927 
L 101.053017 -139.012573 
L 101.211111 -135.995961 
L 101.68366 -133.0124 
L 102.465488 -130.094579 
L 103.548029 -127.274464 
L 104.919421 -124.582955 
L 107.016681 -121.444183 
L 109.505691 -118.606011 
L 112.343863 -116.117001 
L 115.482635 -114.019741 
L 120.041813 -111.893762 
L 124.900899 -110.591773 
L 129.912253 -110.153337 
L 132.928865 -110.311431 
L 135.912426 -110.78398 
L 138.830248 -111.565808 
L 141.650362 -112.648349 
L 144.341871 -114.019741 
L 147.480643 -116.117001 
L 150.318815 -118.606011 
L 152.807825 -121.444183 
L 154.905085 -124.582955 
L 157.031065 -129.142133 
L 158.333053 -134.001219 
L 158.77149 -139.012573 
L 158.613396 -142.029185 
L 158.140846 -145.012746 
L 157.359018 -147.930568 
L 156.276478 -150.750682 
L 154.905085 -153.442191 
L 152.807825 -156.580963 
L 150.318815 -159.419135 
L 147.480643 -161.908145 
L 144.341871 -164.005405 
L 139.782693 -166.131385 
L 134.923607 -167.433373 
L 129.912253 -167.87181 
z
" style="stroke: #ffffff"/>
    </defs>
    <g>
     <use xlink:href="#m5844e07b3d" x="0" y="248.190139" style="fill: #ffffff; stroke: #ffffff"/>
    </g>
   </g>
   <g id="line2d_17">
    <path d="M 129.912253 76.705403 
L 146.347937 80.710126 
L 158.921141 92.429277 
L 163.38461 109.177566 
L 159.345459 126.170835 
L 147.954109 140.426977 
L 129.912253 145.072565 
L 111.681087 140.754872 
L 97.12017 128.110084 
L 90.744526 109.177566 
L 96.510645 89.893138 
L 111.475132 77.243536 
" clip-path="url(#pff018702dd)" style="fill: none; stroke: #52318e; stroke-width: 1.5; stroke-linecap: square"/>
   </g>
   <g id="line2d_18">
    <path d="M 129.912253 36.417099 
L 165.22553 48.013176 
L 185.60479 77.023464 
L 194.289718 109.177566 
L 182.218124 139.376374 
L 153.476697 149.99238 
L 129.912253 163.97185 
L 103.830053 154.353261 
L 97.622315 127.82017 
L 107.287605 109.177566 
L 102.674841 93.452039 
L 105.078928 66.164985 
" clip-path="url(#pff018702dd)" style="fill: none; stroke: #b71205; stroke-width: 1.5; stroke-linecap: square"/>
   </g>
   <g id="line2d_19">
    <path d="M 129.912253 61.249475 
L 153.128432 68.965965 
L 168.058222 87.15398 
L 174.007972 109.177566 
L 165.684391 129.830619 
L 145.915051 136.895224 
L 129.912253 145.00654 
L 112.919455 138.609956 
L 109.511935 120.955695 
L 116.63209 109.177566 
L 113.053426 99.444117 
L 113.794834 81.261377 
" clip-path="url(#pff018702dd)" style="fill: none; stroke: #167f99; stroke-width: 1.5; stroke-linecap: square"/>
   </g>
   <g id="PathCollection_1">
    <defs>
     <path id="m0e853ff6c9" d="M 0 2.738613 
L 1.643168 0 
L 0 -2.738613 
L -1.643168 0 
z
" style="stroke: #52318e"/>
    </defs>
    <g>
     <use xlink:href="#m0e853ff6c9" x="129.912253" y="76.705403" style="fill: #a78dd8; stroke: #52318e"/>
     <use xlink:href="#m0e853ff6c9" x="146.347937" y="80.710126" style="fill: #a78dd8; stroke: #52318e"/>
     <use xlink:href="#m0e853ff6c9" x="158.921141" y="92.429277" style="fill: #a78dd8; stroke: #52318e"/>
     <use xlink:href="#m0e853ff6c9" x="163.38461" y="109.177566" style="fill: #a78dd8; stroke: #52318e"/>
     <use xlink:href="#m0e853ff6c9" x="159.345459" y="126.170835" style="fill: #a78dd8; stroke: #52318e"/>
     <use xlink:href="#m0e853ff6c9" x="147.954109" y="140.426977" style="fill: #a78dd8; stroke: #52318e"/>
     <use xlink:href="#m0e853ff6c9" x="129.912253" y="145.072565" style="fill: #a78dd8; stroke: #52318e"/>
     <use xlink:href="#m0e853ff6c9" x="111.681087" y="140.754872" style="fill: #a78dd8; stroke: #52318e"/>
     <use xlink:href="#m0e853ff6c9" x="97.12017" y="128.110084" style="fill: #a78dd8; stroke: #52318e"/>
     <use xlink:href="#m0e853ff6c9" x="90.744526" y="109.177566" style="fill: #a78dd8; stroke: #52318e"/>
     <use xlink:href="#m0e853ff6c9" x="96.510645" y="89.893138" style="fill: #a78dd8; stroke: #52318e"/>
     <use xlink:href="#m0e853ff6c9" x="111.475132" y="77.243536" style="fill: #a78dd8; stroke: #52318e"/>
    </g>
   </g>
   <g id="PathCollection_2">
    <defs>
     <path id="mb3167512e3" d="M 0 -1.936492 
L -1.677051 -0.968246 
L -1.677051 0.968246 
L -0 1.936492 
L 1.677051 0.968246 
L 1.677051 -0.968246 
z
" style="stroke: #b71205"/>
    </defs>
    <g>
     <use xlink:href="#mb3167512e3" x="129.912253" y="36.417099" style="fill: #fb7b71; stroke: #b71205"/>
     <use xlink:href="#mb3167512e3" x="165.22553" y="48.013176" style="fill: #fb7b71; stroke: #b71205"/>
     <use xlink:href="#mb3167512e3" x="185.60479" y="77.023464" style="fill: #fb7b71; stroke: #b71205"/>
     <use xlink:href="#mb3167512e3" x="194.289718" y="109.177566" style="fill: #fb7b71; stroke: #b71205"/>
     <use xlink:href="#mb3167512e3" x="182.218124" y="139.376374" style="fill: #fb7b71; stroke: #b71205"/>
     <use xlink:href="#mb3167512e3" x="153.476697" y="149.99238" style="fill: #fb7b71; stroke: #b71205"/>
     <use xlink:href="#mb3167512e3" x="129.912253" y="163.97185" style="fill: #fb7b71; stroke: #b71205"/>
     <use xlink:href="#mb3167512e3" x="103.830053" y="154.353261" style="fill: #fb7b71; stroke: #b71205"/>
     <use xlink:href="#mb3167512e3" x="97.622315" y="127.82017" style="fill: #fb7b71; stroke: #b71205"/>
     <use xlink:href="#mb3167512e3" x="107.287605" y="109.177566" style="fill: #fb7b71; stroke: #b71205"/>
     <use xlink:href="#mb3167512e3" x="102.674841" y="93.452039" style="fill: #fb7b71; stroke: #b71205"/>
     <use xlink:href="#mb3167512e3" x="105.078928" y="66.164985" style="fill: #fb7b71; stroke: #b71205"/>
    </g>
   </g>
   <g id="PathCollection_3">
    <defs>
     <path id="m6e51eeb2f3" d="M 0 -1.936492 
L -1.936492 1.936492 
L 1.936492 1.936492 
z
" style="stroke: #167f99"/>
    </defs>
    <g>
     <use xlink:href="#m6e51eeb2f3" x="129.912253" y="61.249475" style="fill: #6dd2ea; stroke: #167f99"/>
     <use xlink:href="#m6e51eeb2f3" x="153.128432" y="68.965965" style="fill: #6dd2ea; stroke: #167f99"/>
     <use xlink:href="#m6e51eeb2f3" x="168.058222" y="87.15398" style="fill: #6dd2ea; stroke: #167f99"/>
     <use xlink:href="#m6e51eeb2f3" x="174.007972" y="109.177566" style="fill: #6dd2ea; stroke: #167f99"/>
     <use xlink:href="#m6e51eeb2f3" x="165.684391" y="129.830619" style="fill: #6dd2ea; stroke: #167f99"/>
     <use xlink:href="#m6e51eeb2f3" x="145.915051" y="136.895224" style="fill: #6dd2ea; stroke: #167f99"/>
     <use xlink:href="#m6e51eeb2f3" x="129.912253" y="145.00654" style="fill: #6dd2ea; stroke: #167f99"/>
     <use xlink:href="#m6e51eeb2f3" x="112.919455" y="138.609956" style="fill: #6dd2ea; stroke: #167f99"/>
     <use xlink:href="#m6e51eeb2f3" x="109.511935" y="120.955695" style="fill: #6dd2ea; stroke: #167f99"/>
     <use xlink:href="#m6e51eeb2f3" x="116.63209" y="109.177566" style="fill: #6dd2ea; stroke: #167f99"/>
     <use xlink:href="#m6e51eeb2f3" x="113.053426" y="99.444117" style="fill: #6dd2ea; stroke: #167f99"/>
     <use xlink:href="#m6e51eeb2f3" x="113.794834" y="81.261377" style="fill: #6dd2ea; stroke: #167f99"/>
    </g>
   </g>
  </g>
  <g id="axes_2">
   <g id="patch_6">
    <path d="M 345.055122 44.092066 
C 337.224401 48.613135 330.273495 54.510539 324.537223 61.500207 
C 318.800951 68.489874 314.372919 76.457746 311.466418 85.02002 
C 308.559918 93.582293 307.222379 102.599247 307.51823 111.636544 
C 307.81408 120.673842 309.738492 129.58401 313.198769 137.937856 
C 316.659046 146.291703 321.598721 153.952908 327.779858 160.55244 
C 333.960994 167.151973 341.282726 172.582139 349.392373 176.581374 
C 357.502021 180.58061 366.267249 183.083654 375.265847 183.969939 
C 384.264446 184.856224 393.349572 184.111286 402.083607 181.771008 
C 410.817643 179.43073 419.058062 175.533302 426.407934 170.266458 
C 433.757807 164.999614 440.097195 158.4493 445.120738 150.931036 
C 450.144281 143.412773 453.770003 135.049245 455.823259 126.243315 
C 457.876514 117.437384 458.323796 108.332748 457.14356 99.367966 
C 455.963324 90.403184 453.174829 81.724546 448.912395 73.750092 
C 444.64996 65.775638 438.983141 58.635496 432.184901 52.6736 
C 425.386661 46.711704 417.567937 42.02534 409.105345 38.840247 
C 400.642754 35.655153 391.674392 34.023304 382.632253 34.023304 
L 382.632253 109.177566 
C 382.632253 109.177566 382.632253 109.177566 382.632253 109.177566 
C 382.632253 109.177566 382.632253 109.177566 382.632253 109.177566 
C 382.632253 109.177566 382.632253 109.177566 382.632253 109.177566 
C 382.632253 109.177566 382.632253 109.177566 382.632253 109.177566 
C 382.632253 109.177566 382.632253 109.177566 382.632253 109.177566 
C 382.632253 109.177566 382.632253 109.177566 382.632253 109.177566 
C 382.632253 109.177566 382.632253 109.177566 382.632253 109.177566 
C 382.632253 109.177566 382.632253 109.177566 382.632253 109.177566 
C 382.632253 109.177566 382.632253 109.177566 382.632253 109.177566 
C 382.632253 109.177566 382.632253 109.177566 382.632253 109.177566 
C 382.632253 109.177566 382.632253 109.177566 382.632253 109.177566 
C 382.632253 109.177566 382.632253 109.177566 382.632253 109.177566 
C 382.632253 109.177566 382.632253 109.177566 382.632253 109.177566 
C 382.632253 109.177566 382.632253 109.177566 382.632253 109.177566 
C 382.632253 109.177566 382.632253 109.177566 382.632253 109.177566 
C 382.632253 109.177566 382.632253 109.177566 382.632253 109.177566 
L 345.055122 44.092066 
z
" style="fill: #ffffff; opacity: 0.05"/>
   </g>
   <g id="matplotlib.axis_3">
    <g id="xtick_13">
     <g id="line2d_20">
      <path d="M 382.632253 109.177566 
L 382.632253 34.023304 
" clip-path="url(#p65abca52d6)" style="fill: none; stroke: #b0b0b0; stroke-width: 0.8; stroke-linecap: square"/>
     </g>
     <g id="text_18">
      <!-- Jul '20 -->
      <g style="fill: #808080" transform="translate(365.476941 29.889375)scale(0.12 -0.12)">
       <use xlink:href="#ArialMT-4a"/>
       <use xlink:href="#ArialMT-75" x="50"/>
       <use xlink:href="#ArialMT-6c" x="105.615234"/>
       <use xlink:href="#ArialMT-20" x="127.832031"/>
       <use xlink:href="#ArialMT-27" x="155.615234"/>
       <use xlink:href="#ArialMT-32" x="174.707031"/>
       <use xlink:href="#ArialMT-30" x="230.322266"/>
      </g>
     </g>
    </g>
    <g id="xtick_14">
     <g id="line2d_21">
      <path d="M 382.632253 109.177566 
L 420.209384 44.092066 
" clip-path="url(#p65abca52d6)" style="fill: none; stroke: #b0b0b0; stroke-width: 0.8; stroke-linecap: square"/>
     </g>
     <g id="text_19">
      <!-- Oct '20 -->
      <g style="fill: #808080" transform="translate(423.827442 40.927593)scale(0.12 -0.12)">
       <use xlink:href="#ArialMT-4f"/>
       <use xlink:href="#ArialMT-63" x="77.783203"/>
       <use xlink:href="#ArialMT-74" x="127.783203"/>
       <use xlink:href="#ArialMT-20" x="155.566406"/>
       <use xlink:href="#ArialMT-27" x="183.349609"/>
       <use xlink:href="#ArialMT-32" x="202.441406"/>
       <use xlink:href="#ArialMT-30" x="258.056641"/>
      </g>
     </g>
    </g>
    <g id="xtick_15">
     <g id="line2d_22">
      <path d="M 382.632253 109.177566 
L 447.717753 71.600435 
" clip-path="url(#p65abca52d6)" style="fill: none; stroke: #b0b0b0; stroke-width: 0.8; stroke-linecap: square"/>
     </g>
     <g id="text_20">
      <!-- Jan '21 -->
      <g style="fill: #808080" transform="translate(453.984414 71.084564)scale(0.12 -0.12)">
       <use xlink:href="#ArialMT-4a"/>
       <use xlink:href="#ArialMT-61" x="50"/>
       <use xlink:href="#ArialMT-6e" x="105.615234"/>
       <use xlink:href="#ArialMT-20" x="161.230469"/>
       <use xlink:href="#ArialMT-27" x="189.013672"/>
       <use xlink:href="#ArialMT-32" x="208.105469"/>
       <use xlink:href="#ArialMT-31" x="263.720703"/>
      </g>
     </g>
    </g>
    <g id="xtick_16">
     <g id="line2d_23">
      <path d="M 382.632253 109.177566 
L 457.786515 109.177566 
" clip-path="url(#p65abca52d6)" style="fill: none; stroke: #b0b0b0; stroke-width: 0.8; stroke-linecap: square"/>
     </g>
     <g id="text_21">
      <!-- Apr '21 -->
      <g style="fill: #808080" transform="translate(465.022631 112.297566)scale(0.12 -0.12)">
       <use xlink:href="#ArialMT-41"/>
       <use xlink:href="#ArialMT-70" x="66.699219"/>
       <use xlink:href="#ArialMT-72" x="122.314453"/>
       <use xlink:href="#ArialMT-20" x="155.615234"/>
       <use xlink:href="#ArialMT-27" x="183.398438"/>
       <use xlink:href="#ArialMT-32" x="202.490234"/>
       <use xlink:href="#ArialMT-31" x="258.105469"/>
      </g>
     </g>
    </g>
    <g id="xtick_17">
     <g id="line2d_24">
      <path d="M 382.632253 109.177566 
L 447.717753 146.754696 
" clip-path="url(#p65abca52d6)" style="fill: none; stroke: #b0b0b0; stroke-width: 0.8; stroke-linecap: square"/>
     </g>
     <g id="text_22">
      <!-- Jul '21 -->
      <g style="fill: #808080" transform="translate(453.984414 153.474942)scale(0.12 -0.12)">
       <use xlink:href="#ArialMT-4a"/>
       <use xlink:href="#ArialMT-75" x="50"/>
       <use xlink:href="#ArialMT-6c" x="105.615234"/>
       <use xlink:href="#ArialMT-20" x="127.832031"/>
       <use xlink:href="#ArialMT-27" x="155.615234"/>
       <use xlink:href="#ArialMT-32" x="174.707031"/>
       <use xlink:href="#ArialMT-31" x="230.322266"/>
      </g>
     </g>
    </g>
    <g id="xtick_18">
     <g id="line2d_25">
      <path d="M 382.632253 109.177566 
L 420.209384 174.263065 
" clip-path="url(#p65abca52d6)" style="fill: none; stroke: #b0b0b0; stroke-width: 0.8; stroke-linecap: square"/>
     </g>
     <g id="text_23">
      <!-- Oct '21 -->
      <g style="fill: #808080" transform="translate(423.827442 183.631914)scale(0.12 -0.12)">
       <use xlink:href="#ArialMT-4f"/>
       <use xlink:href="#ArialMT-63" x="77.783203"/>
       <use xlink:href="#ArialMT-74" x="127.783203"/>
       <use xlink:href="#ArialMT-20" x="155.566406"/>
       <use xlink:href="#ArialMT-27" x="183.349609"/>
       <use xlink:href="#ArialMT-32" x="202.441406"/>
       <use xlink:href="#ArialMT-31" x="258.056641"/>
      </g>
     </g>
    </g>
    <g id="xtick_19">
     <g id="line2d_26">
      <path d="M 382.632253 109.177566 
L 382.632253 184.331827 
" clip-path="url(#p65abca52d6)" style="fill: none; stroke: #b0b0b0; stroke-width: 0.8; stroke-linecap: square"/>
     </g>
     <g id="text_24">
      <!-- Jan '22 -->
      <g style="fill: #808080" transform="translate(363.473503 194.670131)scale(0.12 -0.12)">
       <use xlink:href="#ArialMT-4a"/>
       <use xlink:href="#ArialMT-61" x="50"/>
       <use xlink:href="#ArialMT-6e" x="105.615234"/>
       <use xlink:href="#ArialMT-20" x="161.230469"/>
       <use xlink:href="#ArialMT-27" x="189.013672"/>
       <use xlink:href="#ArialMT-32" x="208.105469"/>
       <use xlink:href="#ArialMT-32" x="263.720703"/>
      </g>
     </g>
    </g>
    <g id="xtick_20">
     <g id="line2d_27">
      <path d="M 382.632253 109.177566 
L 345.055122 174.263065 
" clip-path="url(#p65abca52d6)" style="fill: none; stroke: #b0b0b0; stroke-width: 0.8; stroke-linecap: square"/>
     </g>
     <g id="text_25">
      <!-- Apr '22 -->
      <g style="fill: #808080" transform="translate(303.792689 183.649726)scale(0.12 -0.12)">
       <use xlink:href="#ArialMT-41"/>
       <use xlink:href="#ArialMT-70" x="66.699219"/>
       <use xlink:href="#ArialMT-72" x="122.314453"/>
       <use xlink:href="#ArialMT-20" x="155.615234"/>
       <use xlink:href="#ArialMT-27" x="183.398438"/>
       <use xlink:href="#ArialMT-32" x="202.490234"/>
       <use xlink:href="#ArialMT-32" x="258.105469"/>
      </g>
     </g>
    </g>
    <g id="xtick_21">
     <g id="line2d_28">
      <path d="M 382.632253 109.177566 
L 317.546753 146.754696 
" clip-path="url(#p65abca52d6)" style="fill: none; stroke: #b0b0b0; stroke-width: 0.8; stroke-linecap: square"/>
     </g>
     <g id="text_26">
      <!-- Jul '22 -->
      <g style="fill: #808080" transform="translate(276.969468 153.474942)scale(0.12 -0.12)">
       <use xlink:href="#ArialMT-4a"/>
       <use xlink:href="#ArialMT-75" x="50"/>
       <use xlink:href="#ArialMT-6c" x="105.615234"/>
       <use xlink:href="#ArialMT-20" x="127.832031"/>
       <use xlink:href="#ArialMT-27" x="155.615234"/>
       <use xlink:href="#ArialMT-32" x="174.707031"/>
       <use xlink:href="#ArialMT-32" x="230.322266"/>
      </g>
     </g>
    </g>
    <g id="xtick_22">
     <g id="line2d_29">
      <path d="M 382.632253 109.177566 
L 307.477991 109.177566 
" clip-path="url(#p65abca52d6)" style="fill: none; stroke: #b0b0b0; stroke-width: 0.8; stroke-linecap: square"/>
     </g>
     <g id="text_27">
      <!-- Aug '22 -->
      <g style="fill: #808080" transform="translate(259.92 112.227253)scale(0.12 -0.12)">
       <use xlink:href="#ArialMT-41"/>
       <use xlink:href="#ArialMT-75" x="66.699219"/>
       <use xlink:href="#ArialMT-67" x="122.314453"/>
       <use xlink:href="#ArialMT-20" x="177.929688"/>
       <use xlink:href="#ArialMT-27" x="205.712891"/>
       <use xlink:href="#ArialMT-32" x="224.804688"/>
       <use xlink:href="#ArialMT-32" x="280.419922"/>
      </g>
     </g>
    </g>
    <g id="xtick_23">
     <g id="line2d_30">
      <path d="M 382.632253 109.177566 
L 317.546753 71.600435 
" clip-path="url(#p65abca52d6)" style="fill: none; stroke: #b0b0b0; stroke-width: 0.8; stroke-linecap: square"/>
     </g>
     <g id="text_28">
      <!-- Sep '22 -->
      <g style="fill: #808080" transform="translate(270.958218 71.157689)scale(0.12 -0.12)">
       <use xlink:href="#ArialMT-53"/>
       <use xlink:href="#ArialMT-65" x="66.699219"/>
       <use xlink:href="#ArialMT-70" x="122.314453"/>
       <use xlink:href="#ArialMT-20" x="177.929688"/>
       <use xlink:href="#ArialMT-27" x="205.712891"/>
       <use xlink:href="#ArialMT-32" x="224.804688"/>
       <use xlink:href="#ArialMT-32" x="280.419922"/>
      </g>
     </g>
    </g>
    <g id="xtick_24">
     <g id="line2d_31">
      <path d="M 382.632253 109.177566 
L 345.055122 44.092066 
" clip-path="url(#p65abca52d6)" style="fill: none; stroke: #b0b0b0; stroke-width: 0.8; stroke-linecap: square"/>
     </g>
     <g id="text_29">
      <!-- Nov '22 -->
      <g style="fill: #808080" transform="translate(301.126439 40.927593)scale(0.12 -0.12)">
       <use xlink:href="#ArialMT-4e"/>
       <use xlink:href="#ArialMT-6f" x="72.216797"/>
       <use xlink:href="#ArialMT-76" x="127.832031"/>
       <use xlink:href="#ArialMT-20" x="177.832031"/>
       <use xlink:href="#ArialMT-27" x="205.615234"/>
       <use xlink:href="#ArialMT-32" x="224.707031"/>
       <use xlink:href="#ArialMT-32" x="280.322266"/>
      </g>
     </g>
    </g>
   </g>
   <g id="matplotlib.axis_4">
    <g id="ytick_5">
     <g id="line2d_32">
      <path d="M 382.632253 79.115861 
C 386.249109 79.115861 389.836454 79.768601 393.22149 81.042638 
C 396.606527 82.316676 399.734016 84.191221 402.453312 86.575979 
C 405.172608 88.960738 407.439336 91.816794 409.14431 95.006576 
C 410.849284 98.196358 411.964681 101.667813 412.436776 105.253726 
C 412.90887 108.839639 412.729957 112.481493 411.908655 116.003865 
C 411.087353 119.526237 409.637064 122.871649 407.627647 125.878954 
C 405.61823 128.886259 403.082475 131.506385 400.142526 133.613123 
C 397.202577 135.71986 393.906409 137.278832 390.412795 138.214943 
C 386.919181 139.151054 383.28513 139.449029 379.685691 139.094515 
C 376.086252 138.740001 372.58016 137.738783 369.336301 136.139089 
C 366.092442 134.539395 363.163749 132.367328 360.691295 129.727516 
C 358.21884 127.087703 356.24297 124.023221 354.858859 120.681682 
C 353.474749 117.340143 352.704984 113.776076 352.586644 110.161157 
C 352.468304 106.546238 353.003319 102.939457 354.165919 99.514547 
C 355.328519 96.089638 357.099732 92.902489 359.394241 90.106622 
C 361.68875 87.310755 364.469112 84.951793 367.601401 83.143366 
" clip-path="url(#p65abca52d6)" style="fill: none; stroke: #b0b0b0; stroke-width: 0.8; stroke-linecap: square"/>
     </g>
     <g id="text_30">
      <!-- 0 -->
      <g transform="translate(368.959128 82.218048)scale(0.12 -0.12)">
       <use xlink:href="#ArialMT-30"/>
      </g>
     </g>
    </g>
    <g id="ytick_6">
     <g id="line2d_33">
      <path d="M 382.632253 64.085009 
C 388.057536 64.085009 393.438554 65.064118 398.516109 66.975174 
C 403.593663 68.886231 408.284898 71.698049 412.363842 75.275186 
C 416.442786 78.852324 419.842877 83.136409 422.400338 87.921081 
C 424.957799 92.705754 426.630896 97.912937 427.339037 103.291806 
C 428.047179 108.670675 427.778809 114.133457 426.546856 119.417015 
C 425.314903 124.700573 423.13947 129.71869 420.125344 134.229648 
C 417.111218 138.740606 413.307585 142.670795 408.897662 145.830901 
C 404.487738 148.991008 399.543487 151.329464 394.303066 152.733631 
C 389.062645 154.137798 383.611569 154.58476 378.21241 154.05299 
C 372.813251 153.521219 367.554114 152.019392 362.688325 149.619851 
C 357.822537 147.220309 353.429498 143.96221 349.720816 140.002491 
C 346.012134 136.042771 343.048329 131.446048 340.972163 126.43374 
C 338.895997 121.421432 337.74135 116.075331 337.563839 110.652953 
C 337.386329 105.230574 338.188852 99.820402 339.932752 94.683038 
C 341.676652 89.545674 344.333472 84.764951 347.775235 80.57115 
C 351.216998 76.37735 355.387542 72.838907 360.085975 70.126266 
" clip-path="url(#p65abca52d6)" style="fill: none; stroke: #b0b0b0; stroke-width: 0.8; stroke-linecap: square"/>
     </g>
     <g id="text_31">
      <!-- 3 -->
      <g transform="translate(368.959128 67.187196)scale(0.12 -0.12)">
       <defs>
        <path id="ArialMT-33" d="M 269 1209 
L 831 1284 
Q 928 806 1161 595 
Q 1394 384 1728 384 
Q 2125 384 2398 659 
Q 2672 934 2672 1341 
Q 2672 1728 2419 1979 
Q 2166 2231 1775 2231 
Q 1616 2231 1378 2169 
L 1441 2663 
Q 1497 2656 1531 2656 
Q 1891 2656 2178 2843 
Q 2466 3031 2466 3422 
Q 2466 3731 2256 3934 
Q 2047 4138 1716 4138 
Q 1388 4138 1169 3931 
Q 950 3725 888 3313 
L 325 3413 
Q 428 3978 793 4289 
Q 1159 4600 1703 4600 
Q 2078 4600 2393 4439 
Q 2709 4278 2876 4000 
Q 3044 3722 3044 3409 
Q 3044 3113 2884 2869 
Q 2725 2625 2413 2481 
Q 2819 2388 3044 2092 
Q 3269 1797 3269 1353 
Q 3269 753 2831 336 
Q 2394 -81 1725 -81 
Q 1122 -81 723 278 
Q 325 638 269 1209 
z
" transform="scale(0.015625)"/>
       </defs>
       <use xlink:href="#ArialMT-33"/>
      </g>
     </g>
    </g>
    <g id="ytick_7">
     <g id="line2d_34">
      <path d="M 382.632253 49.054156 
C 389.865964 49.054156 397.040654 50.359635 403.810727 52.90771 
C 410.5808 55.455785 416.83578 59.204876 422.274371 63.974393 
C 427.712963 68.74391 432.246419 74.456023 435.656366 80.835587 
C 439.066314 87.21515 441.29711 94.15806 442.241298 101.329886 
C 443.185487 108.501711 442.827661 115.78542 441.185057 122.830165 
C 439.542453 129.874909 436.641875 136.565731 432.623041 142.580342 
C 428.604207 148.594953 423.532696 153.835204 417.652798 158.04868 
C 411.7729 162.262155 405.180565 165.380097 398.193337 167.25232 
C 391.206108 169.124542 383.938007 169.720492 376.739128 169.011464 
C 369.54025 168.302437 362.528067 166.300001 356.040349 163.100613 
C 349.552631 159.901224 343.695246 155.557091 338.750337 150.277465 
C 333.805428 144.99784 329.853687 138.868876 327.085466 132.185798 
C 324.317245 125.502721 322.777715 118.374586 322.541035 111.144748 
C 322.304354 103.914911 323.374385 96.701348 325.699585 89.851529 
C 328.024785 83.00171 331.567212 76.627413 336.156229 71.035679 
C 340.745247 65.443944 346.305971 60.726021 352.570548 57.109166 
" clip-path="url(#p65abca52d6)" style="fill: none; stroke: #b0b0b0; stroke-width: 0.8; stroke-linecap: square"/>
     </g>
     <g id="text_32">
      <!-- 6 -->
      <g transform="translate(368.959128 52.156344)scale(0.12 -0.12)">
       <defs>
        <path id="ArialMT-36" d="M 3184 3459 
L 2625 3416 
Q 2550 3747 2413 3897 
Q 2184 4138 1850 4138 
Q 1581 4138 1378 3988 
Q 1113 3794 959 3422 
Q 806 3050 800 2363 
Q 1003 2672 1297 2822 
Q 1591 2972 1913 2972 
Q 2475 2972 2870 2558 
Q 3266 2144 3266 1488 
Q 3266 1056 3080 686 
Q 2894 316 2569 119 
Q 2244 -78 1831 -78 
Q 1128 -78 684 439 
Q 241 956 241 2144 
Q 241 3472 731 4075 
Q 1159 4600 1884 4600 
Q 2425 4600 2770 4297 
Q 3116 3994 3184 3459 
z
M 888 1484 
Q 888 1194 1011 928 
Q 1134 663 1356 523 
Q 1578 384 1822 384 
Q 2178 384 2434 671 
Q 2691 959 2691 1453 
Q 2691 1928 2437 2201 
Q 2184 2475 1800 2475 
Q 1419 2475 1153 2201 
Q 888 1928 888 1484 
z
" transform="scale(0.015625)"/>
       </defs>
       <use xlink:href="#ArialMT-36"/>
      </g>
     </g>
    </g>
    <g id="ytick_8">
     <g id="line2d_35">
      <path d="M 382.632253 34.023304 
C 391.674392 34.023304 400.642754 35.655153 409.105345 38.840247 
C 417.567937 42.02534 425.386661 46.711704 432.184901 52.6736 
C 438.983141 58.635496 444.64996 65.775638 448.912395 73.750092 
C 453.174829 81.724546 455.963324 90.403184 457.14356 99.367966 
C 458.323796 108.332748 457.876514 117.437384 455.823259 126.243315 
C 453.770003 135.049245 450.144281 143.412773 445.120738 150.931036 
C 440.097195 158.4493 433.757807 164.999614 426.407934 170.266458 
C 419.058062 175.533302 410.817643 179.43073 402.083607 181.771008 
C 393.349572 184.111286 384.264446 184.856224 375.265847 183.969939 
C 366.267249 183.083654 357.502021 180.58061 349.392373 176.581374 
C 341.282726 172.582139 333.960994 167.151973 327.779858 160.55244 
C 321.598721 153.952908 316.659046 146.291703 313.198769 137.937856 
C 309.738492 129.58401 307.81408 120.673842 307.51823 111.636544 
C 307.222379 102.599247 308.559918 93.582293 311.466418 85.02002 
C 314.372919 76.457746 318.800951 68.489874 324.537223 61.500207 
C 330.273495 54.510539 337.224401 48.613135 345.055122 44.092066 
" clip-path="url(#p65abca52d6)" style="fill: none; stroke: #b0b0b0; stroke-width: 0.8; stroke-linecap: square"/>
     </g>
     <g id="text_33">
      <!-- 9 -->
      <g transform="translate(368.959128 37.125491)scale(0.12 -0.12)">
       <defs>
        <path id="ArialMT-39" d="M 350 1059 
L 891 1109 
Q 959 728 1153 556 
Q 1347 384 1650 384 
Q 1909 384 2104 503 
Q 2300 622 2425 820 
Q 2550 1019 2634 1356 
Q 2719 1694 2719 2044 
Q 2719 2081 2716 2156 
Q 2547 1888 2255 1720 
Q 1963 1553 1622 1553 
Q 1053 1553 659 1965 
Q 266 2378 266 3053 
Q 266 3750 677 4175 
Q 1088 4600 1706 4600 
Q 2153 4600 2523 4359 
Q 2894 4119 3086 3673 
Q 3278 3228 3278 2384 
Q 3278 1506 3087 986 
Q 2897 466 2520 194 
Q 2144 -78 1638 -78 
Q 1100 -78 759 220 
Q 419 519 350 1059 
z
M 2653 3081 
Q 2653 3566 2395 3850 
Q 2138 4134 1775 4134 
Q 1400 4134 1122 3828 
Q 844 3522 844 3034 
Q 844 2597 1108 2323 
Q 1372 2050 1759 2050 
Q 2150 2050 2401 2323 
Q 2653 2597 2653 3081 
z
" transform="scale(0.015625)"/>
       </defs>
       <use xlink:href="#ArialMT-39"/>
      </g>
     </g>
    </g>
   </g>
   <g id="patch_7">
    <path d="M 345.055122 44.092066 
C 337.224401 48.613135 330.273495 54.510539 324.537223 61.500207 
C 318.800951 68.489874 314.372919 76.457746 311.466418 85.02002 
C 308.559918 93.582293 307.222379 102.599247 307.51823 111.636544 
C 307.81408 120.673842 309.738492 129.58401 313.198769 137.937856 
C 316.659046 146.291703 321.598721 153.952908 327.779858 160.55244 
C 333.960994 167.151973 341.282726 172.582139 349.392373 176.581374 
C 357.502021 180.58061 366.267249 183.083654 375.265847 183.969939 
C 384.264446 184.856224 393.349572 184.111286 402.083607 181.771008 
C 410.817643 179.43073 419.058062 175.533302 426.407934 170.266458 
C 433.757807 164.999614 440.097195 158.4493 445.120738 150.931036 
C 450.144281 143.412773 453.770003 135.049245 455.823259 126.243315 
C 457.876514 117.437384 458.323796 108.332748 457.14356 99.367966 
C 455.963324 90.403184 453.174829 81.724546 448.912395 73.750092 
C 444.64996 65.775638 438.983141 58.635496 432.184901 52.6736 
C 425.386661 46.711704 417.567937 42.02534 409.105345 38.840247 
C 400.642754 35.655153 391.674392 34.023304 382.632253 34.023304 
" style="fill: none; stroke: #000000; stroke-width: 0.8; stroke-linejoin: miter; stroke-linecap: square"/>
   </g>
   <g id="patch_8">
    <path d="M 382.632253 109.177566 
L 382.632253 34.023304 
" style="fill: none; stroke: #000000; stroke-width: 0.8; stroke-linejoin: miter; stroke-linecap: square"/>
   </g>
   <g id="patch_9">
    <path d="M 382.632253 109.177566 
L 345.055122 44.092066 
" style="fill: none; stroke: #000000; stroke-width: 0.8; stroke-linejoin: miter; stroke-linecap: square"/>
   </g>
   <g id="text_34">
    <!-- b Methanol [USD kg$^\mathrm{-1}$ CO$_\mathrm{2}$-eq] -->
    <g transform="translate(317.028088 15.3)scale(0.09 -0.09)">
     <defs>
      <path id="Arial-BoldMT-62" d="M 422 0 
L 422 4581 
L 1300 4581 
L 1300 2931 
Q 1706 3394 2263 3394 
Q 2869 3394 3266 2955 
Q 3663 2516 3663 1694 
Q 3663 844 3258 384 
Q 2853 -75 2275 -75 
Q 1991 -75 1714 67 
Q 1438 209 1238 488 
L 1238 0 
L 422 0 
z
M 1294 1731 
Q 1294 1216 1456 969 
Q 1684 619 2063 619 
Q 2353 619 2558 867 
Q 2763 1116 2763 1650 
Q 2763 2219 2556 2470 
Q 2350 2722 2028 2722 
Q 1713 2722 1503 2476 
Q 1294 2231 1294 1731 
z
" transform="scale(0.015625)"/>
      <path id="Arial-BoldMT-4d" d="M 453 0 
L 453 4581 
L 1838 4581 
L 2669 1456 
L 3491 4581 
L 4878 4581 
L 4878 0 
L 4019 0 
L 4019 3606 
L 3109 0 
L 2219 0 
L 1313 3606 
L 1313 0 
L 453 0 
z
" transform="scale(0.015625)"/>
      <path id="Arial-BoldMT-74" d="M 1981 3319 
L 1981 2619 
L 1381 2619 
L 1381 1281 
Q 1381 875 1398 808 
Q 1416 741 1477 697 
Q 1538 653 1625 653 
Q 1747 653 1978 738 
L 2053 56 
Q 1747 -75 1359 -75 
Q 1122 -75 931 4 
Q 741 84 652 211 
Q 563 338 528 553 
Q 500 706 500 1172 
L 500 2619 
L 97 2619 
L 97 3319 
L 500 3319 
L 500 3978 
L 1381 4491 
L 1381 3319 
L 1981 3319 
z
" transform="scale(0.015625)"/>
      <path id="Arial-BoldMT-68" d="M 1334 4581 
L 1334 2897 
Q 1759 3394 2350 3394 
Q 2653 3394 2897 3281 
Q 3141 3169 3264 2994 
Q 3388 2819 3433 2606 
Q 3478 2394 3478 1947 
L 3478 0 
L 2600 0 
L 2600 1753 
Q 2600 2275 2550 2415 
Q 2500 2556 2373 2639 
Q 2247 2722 2056 2722 
Q 1838 2722 1666 2615 
Q 1494 2509 1414 2295 
Q 1334 2081 1334 1663 
L 1334 0 
L 456 0 
L 456 4581 
L 1334 4581 
z
" transform="scale(0.015625)"/>
      <path id="Arial-BoldMT-6c" d="M 459 0 
L 459 4581 
L 1338 4581 
L 1338 0 
L 459 0 
z
" transform="scale(0.015625)"/>
     </defs>
     <use xlink:href="#Arial-BoldMT-62" transform="translate(0 0.684375)"/>
     <use xlink:href="#Arial-BoldMT-20" transform="translate(61.083984 0.684375)"/>
     <use xlink:href="#Arial-BoldMT-4d" transform="translate(88.867188 0.684375)"/>
     <use xlink:href="#Arial-BoldMT-65" transform="translate(172.167969 0.684375)"/>
     <use xlink:href="#Arial-BoldMT-74" transform="translate(227.783203 0.684375)"/>
     <use xlink:href="#Arial-BoldMT-68" transform="translate(261.083984 0.684375)"/>
     <use xlink:href="#Arial-BoldMT-61" transform="translate(322.167969 0.684375)"/>
     <use xlink:href="#Arial-BoldMT-6e" transform="translate(377.783203 0.684375)"/>
     <use xlink:href="#Arial-BoldMT-6f" transform="translate(438.867188 0.684375)"/>
     <use xlink:href="#Arial-BoldMT-6c" transform="translate(499.951172 0.684375)"/>
     <use xlink:href="#Arial-BoldMT-20" transform="translate(527.734375 0.684375)"/>
     <use xlink:href="#Arial-BoldMT-5b" transform="translate(555.517578 0.684375)"/>
     <use xlink:href="#Arial-BoldMT-55" transform="translate(588.818359 0.684375)"/>
     <use xlink:href="#Arial-BoldMT-53" transform="translate(661.035156 0.684375)"/>
     <use xlink:href="#Arial-BoldMT-44" transform="translate(727.734375 0.684375)"/>
     <use xlink:href="#Arial-BoldMT-20" transform="translate(799.951172 0.684375)"/>
     <use xlink:href="#Arial-BoldMT-6b" transform="translate(827.734375 0.684375)"/>
     <use xlink:href="#Arial-BoldMT-67" transform="translate(883.349609 0.684375)"/>
     <use xlink:href="#DejaVuSans-2212" transform="translate(945.390625 38.965625)scale(0.7)"/>
     <use xlink:href="#DejaVuSans-31" transform="translate(1004.042969 38.965625)scale(0.7)"/>
     <use xlink:href="#Arial-BoldMT-20" transform="translate(1051.313477 0.684375)"/>
     <use xlink:href="#Arial-BoldMT-43" transform="translate(1079.09668 0.684375)"/>
     <use xlink:href="#Arial-BoldMT-4f" transform="translate(1151.313477 0.684375)"/>
     <use xlink:href="#DejaVuSans-32" transform="translate(1230.053711 -15.721875)scale(0.7)"/>
     <use xlink:href="#Arial-BoldMT-2d" transform="translate(1277.324219 0.684375)"/>
     <use xlink:href="#Arial-BoldMT-65" transform="translate(1310.625 0.684375)"/>
     <use xlink:href="#Arial-BoldMT-71" transform="translate(1366.240234 0.684375)"/>
     <use xlink:href="#Arial-BoldMT-5d" transform="translate(1427.324219 0.684375)"/>
    </g>
   </g>
   <g id="PolyCollection_2">
    <defs>
     <path id="mbc86bf506e" d="M 382.632253 -167.87181 
L 382.632253 -139.012573 
L 382.632253 -139.012573 
L 382.632253 -139.012573 
L 382.632253 -139.012573 
L 382.632253 -139.012573 
L 382.632253 -139.012573 
L 382.632253 -139.012573 
L 382.632253 -139.012573 
L 382.632253 -139.012573 
L 382.632253 -139.012573 
L 382.632253 -139.012573 
L 382.632253 -139.012573 
L 382.632253 -139.012573 
L 382.632253 -139.012573 
L 382.632253 -139.012573 
L 382.632253 -139.012573 
L 382.632253 -139.012573 
L 382.632253 -139.012573 
L 382.632253 -139.012573 
L 382.632253 -139.012573 
L 382.632253 -139.012573 
L 382.632253 -139.012573 
L 382.632253 -139.012573 
L 382.632253 -139.012573 
L 382.632253 -139.012573 
L 382.632253 -139.012573 
L 382.632253 -139.012573 
L 382.632253 -139.012573 
L 382.632253 -139.012573 
L 382.632253 -139.012573 
L 382.632253 -139.012573 
L 382.632253 -139.012573 
L 382.632253 -139.012573 
L 382.632253 -139.012573 
L 382.632253 -139.012573 
L 382.632253 -139.012573 
L 382.632253 -139.012573 
L 382.632253 -139.012573 
L 382.632253 -139.012573 
L 382.632253 -139.012573 
L 382.632253 -139.012573 
L 382.632253 -139.012573 
L 382.632253 -139.012573 
L 382.632253 -139.012573 
L 382.632253 -139.012573 
L 382.632253 -139.012573 
L 382.632253 -139.012573 
L 382.632253 -167.87181 
L 382.632253 -167.87181 
L 377.620899 -167.433373 
L 372.761813 -166.131385 
L 368.202635 -164.005405 
L 365.063863 -161.908145 
L 362.225691 -159.419135 
L 359.736681 -156.580963 
L 357.639421 -153.442191 
L 355.513442 -148.883013 
L 354.211453 -144.023927 
L 353.773017 -139.012573 
L 353.931111 -135.995961 
L 354.40366 -133.0124 
L 355.185488 -130.094579 
L 356.268029 -127.274464 
L 357.639421 -124.582955 
L 359.736681 -121.444183 
L 362.225691 -118.606011 
L 365.063863 -116.117001 
L 368.202635 -114.019741 
L 372.761813 -111.893762 
L 377.620899 -110.591773 
L 382.632253 -110.153337 
L 385.648865 -110.311431 
L 388.632426 -110.78398 
L 391.550248 -111.565808 
L 394.370362 -112.648349 
L 397.061871 -114.019741 
L 400.200643 -116.117001 
L 403.038815 -118.606011 
L 405.527825 -121.444183 
L 407.625085 -124.582955 
L 409.751065 -129.142133 
L 411.053053 -134.001219 
L 411.49149 -139.012573 
L 411.333396 -142.029185 
L 410.860846 -145.012746 
L 410.079018 -147.930568 
L 408.996478 -150.750682 
L 407.625085 -153.442191 
L 405.527825 -156.580963 
L 403.038815 -159.419135 
L 400.200643 -161.908145 
L 397.061871 -164.005405 
L 392.502693 -166.131385 
L 387.643607 -167.433373 
L 382.632253 -167.87181 
z
" style="stroke: #ffffff"/>
    </defs>
    <g>
     <use xlink:href="#mbc86bf506e" x="0" y="248.190139" style="fill: #ffffff; stroke: #ffffff"/>
    </g>
   </g>
   <g id="line2d_36">
    <path d="M 382.632253 65.988163 
L 404.734291 70.895713 
L 423.685358 85.475544 
L 430.003386 109.177566 
L 425.296176 133.809593 
L 410.419339 157.306209 
L 382.632253 166.308168 
L 353.441781 159.736947 
L 325.943075 141.907078 
L 310.198976 109.177566 
L 323.539864 75.060559 
L 352.847881 57.58952 
" clip-path="url(#p65abca52d6)" style="fill: none; stroke: #52318e; stroke-width: 1.5; stroke-linecap: square"/>
   </g>
   <g id="line2d_37">
    <path d="M 382.632253 39.910422 
L 416.578321 50.381252 
L 438.599816 76.864678 
L 447.316108 109.177566 
L 436.667438 140.374794 
L 409.784476 156.206595 
L 382.632253 170.68461 
L 352.77101 160.898756 
L 337.786215 135.069438 
L 338.575789 109.177566 
L 340.641033 84.933923 
L 353.542683 58.792952 
" clip-path="url(#p65abca52d6)" style="fill: none; stroke: #b71205; stroke-width: 1.5; stroke-linecap: square"/>
   </g>
   <g id="line2d_38">
    <path d="M 382.632253 71.74308 
L 401.154979 77.095264 
L 414.459949 90.801837 
L 419.400143 109.177566 
L 413.913217 127.237638 
L 399.547863 138.476261 
L 382.632253 144.568801 
L 365.18909 139.39001 
L 354.365012 125.497665 
L 352.178352 109.177566 
L 355.172732 93.323804 
L 365.407421 79.343282 
" clip-path="url(#p65abca52d6)" style="fill: none; stroke: #167f99; stroke-width: 1.5; stroke-linecap: square"/>
   </g>
   <g id="PathCollection_4">
    <defs>
     <path id="m9f3db7e664" d="M 0 3.162278 
L 1.897367 0 
L 0 -3.162278 
L -1.897367 0 
z
" style="stroke: #52318e"/>
    </defs>
    <g>
     <use xlink:href="#m9f3db7e664" x="382.632253" y="65.988163" style="fill: #a78dd8; stroke: #52318e"/>
     <use xlink:href="#m9f3db7e664" x="404.734291" y="70.895713" style="fill: #a78dd8; stroke: #52318e"/>
     <use xlink:href="#m9f3db7e664" x="423.685358" y="85.475544" style="fill: #a78dd8; stroke: #52318e"/>
     <use xlink:href="#m9f3db7e664" x="430.003386" y="109.177566" style="fill: #a78dd8; stroke: #52318e"/>
     <use xlink:href="#m9f3db7e664" x="425.296176" y="133.809593" style="fill: #a78dd8; stroke: #52318e"/>
     <use xlink:href="#m9f3db7e664" x="410.419339" y="157.306209" style="fill: #a78dd8; stroke: #52318e"/>
     <use xlink:href="#m9f3db7e664" x="382.632253" y="166.308168" style="fill: #a78dd8; stroke: #52318e"/>
     <use xlink:href="#m9f3db7e664" x="353.441781" y="159.736947" style="fill: #a78dd8; stroke: #52318e"/>
     <use xlink:href="#m9f3db7e664" x="325.943075" y="141.907078" style="fill: #a78dd8; stroke: #52318e"/>
     <use xlink:href="#m9f3db7e664" x="310.198976" y="109.177566" style="fill: #a78dd8; stroke: #52318e"/>
     <use xlink:href="#m9f3db7e664" x="323.539864" y="75.060559" style="fill: #a78dd8; stroke: #52318e"/>
     <use xlink:href="#m9f3db7e664" x="352.847881" y="57.58952" style="fill: #a78dd8; stroke: #52318e"/>
    </g>
   </g>
   <g id="PathCollection_5">
    <defs>
     <path id="m2423ea5a99" d="M 0 -2.236068 
L -1.936492 -1.118034 
L -1.936492 1.118034 
L -0 2.236068 
L 1.936492 1.118034 
L 1.936492 -1.118034 
z
" style="stroke: #b71205"/>
    </defs>
    <g>
     <use xlink:href="#m2423ea5a99" x="382.632253" y="39.910422" style="fill: #fb7b71; stroke: #b71205"/>
     <use xlink:href="#m2423ea5a99" x="416.578321" y="50.381252" style="fill: #fb7b71; stroke: #b71205"/>
     <use xlink:href="#m2423ea5a99" x="438.599816" y="76.864678" style="fill: #fb7b71; stroke: #b71205"/>
     <use xlink:href="#m2423ea5a99" x="447.316108" y="109.177566" style="fill: #fb7b71; stroke: #b71205"/>
     <use xlink:href="#m2423ea5a99" x="436.667438" y="140.374794" style="fill: #fb7b71; stroke: #b71205"/>
     <use xlink:href="#m2423ea5a99" x="409.784476" y="156.206595" style="fill: #fb7b71; stroke: #b71205"/>
     <use xlink:href="#m2423ea5a99" x="382.632253" y="170.68461" style="fill: #fb7b71; stroke: #b71205"/>
     <use xlink:href="#m2423ea5a99" x="352.77101" y="160.898756" style="fill: #fb7b71; stroke: #b71205"/>
     <use xlink:href="#m2423ea5a99" x="337.786215" y="135.069438" style="fill: #fb7b71; stroke: #b71205"/>
     <use xlink:href="#m2423ea5a99" x="338.575789" y="109.177566" style="fill: #fb7b71; stroke: #b71205"/>
     <use xlink:href="#m2423ea5a99" x="340.641033" y="84.933923" style="fill: #fb7b71; stroke: #b71205"/>
     <use xlink:href="#m2423ea5a99" x="353.542683" y="58.792952" style="fill: #fb7b71; stroke: #b71205"/>
    </g>
   </g>
   <g id="PathCollection_6">
    <defs>
     <path id="ma51a610fa9" d="M 0 -2.236068 
L -2.236068 2.236068 
L 2.236068 2.236068 
z
" style="stroke: #167f99"/>
    </defs>
    <g>
     <use xlink:href="#ma51a610fa9" x="382.632253" y="71.74308" style="fill: #6dd2ea; stroke: #167f99"/>
     <use xlink:href="#ma51a610fa9" x="401.154979" y="77.095264" style="fill: #6dd2ea; stroke: #167f99"/>
     <use xlink:href="#ma51a610fa9" x="414.459949" y="90.801837" style="fill: #6dd2ea; stroke: #167f99"/>
     <use xlink:href="#ma51a610fa9" x="419.400143" y="109.177566" style="fill: #6dd2ea; stroke: #167f99"/>
     <use xlink:href="#ma51a610fa9" x="413.913217" y="127.237638" style="fill: #6dd2ea; stroke: #167f99"/>
     <use xlink:href="#ma51a610fa9" x="399.547863" y="138.476261" style="fill: #6dd2ea; stroke: #167f99"/>
     <use xlink:href="#ma51a610fa9" x="382.632253" y="144.568801" style="fill: #6dd2ea; stroke: #167f99"/>
     <use xlink:href="#ma51a610fa9" x="365.18909" y="139.39001" style="fill: #6dd2ea; stroke: #167f99"/>
     <use xlink:href="#ma51a610fa9" x="354.365012" y="125.497665" style="fill: #6dd2ea; stroke: #167f99"/>
     <use xlink:href="#ma51a610fa9" x="352.178352" y="109.177566" style="fill: #6dd2ea; stroke: #167f99"/>
     <use xlink:href="#ma51a610fa9" x="355.172732" y="93.323804" style="fill: #6dd2ea; stroke: #167f99"/>
     <use xlink:href="#ma51a610fa9" x="365.407421" y="79.343282" style="fill: #6dd2ea; stroke: #167f99"/>
    </g>
   </g>
  </g>
  <g id="legend_1">
   <g id="line2d_39">
    <path d="M 118.944128 229.605139 
L 130.944128 229.605139 
L 142.944128 229.605139 
" style="fill: none; stroke: #000000; stroke-opacity: 0; stroke-width: 1.5; stroke-linecap: square"/>
    <defs>
     <path id="mbb53c71bf4" d="M 0 3.535534 
L 2.12132 0 
L 0 -3.535534 
L -2.12132 0 
z
" style="stroke: #52318e; stroke-linejoin: miter"/>
    </defs>
    <g>
     <use xlink:href="#mbb53c71bf4" x="130.944128" y="229.605139" style="fill: #a78dd8; stroke: #52318e; stroke-linejoin: miter"/>
    </g>
   </g>
   <g id="text_35">
    <!-- H$_\mathrm{2}$ SMR$_\mathrm{CCS}$ -->
    <g transform="translate(144.144128 233.805139)scale(0.12 -0.12)">
     <defs>
      <path id="ArialMT-48" d="M 513 0 
L 513 4581 
L 1119 4581 
L 1119 2700 
L 3500 2700 
L 3500 4581 
L 4106 4581 
L 4106 0 
L 3500 0 
L 3500 2159 
L 1119 2159 
L 1119 0 
L 513 0 
z
" transform="scale(0.015625)"/>
      <path id="ArialMT-4d" d="M 475 0 
L 475 4581 
L 1388 4581 
L 2472 1338 
Q 2622 884 2691 659 
Q 2769 909 2934 1394 
L 4031 4581 
L 4847 4581 
L 4847 0 
L 4263 0 
L 4263 3834 
L 2931 0 
L 2384 0 
L 1059 3900 
L 1059 0 
L 475 0 
z
" transform="scale(0.015625)"/>
      <path id="ArialMT-52" d="M 503 0 
L 503 4581 
L 2534 4581 
Q 3147 4581 3465 4457 
Q 3784 4334 3975 4021 
Q 4166 3709 4166 3331 
Q 4166 2844 3850 2509 
Q 3534 2175 2875 2084 
Q 3116 1969 3241 1856 
Q 3506 1613 3744 1247 
L 4541 0 
L 3778 0 
L 3172 953 
Q 2906 1366 2734 1584 
Q 2563 1803 2427 1890 
Q 2291 1978 2150 2013 
Q 2047 2034 1813 2034 
L 1109 2034 
L 1109 0 
L 503 0 
z
M 1109 2559 
L 2413 2559 
Q 2828 2559 3062 2645 
Q 3297 2731 3419 2920 
Q 3541 3109 3541 3331 
Q 3541 3656 3305 3865 
Q 3069 4075 2559 4075 
L 1109 4075 
L 1109 2559 
z
" transform="scale(0.015625)"/>
      <path id="DejaVuSans-43" d="M 4122 4306 
L 4122 3641 
Q 3803 3938 3442 4084 
Q 3081 4231 2675 4231 
Q 1875 4231 1450 3742 
Q 1025 3253 1025 2328 
Q 1025 1406 1450 917 
Q 1875 428 2675 428 
Q 3081 428 3442 575 
Q 3803 722 4122 1019 
L 4122 359 
Q 3791 134 3420 21 
Q 3050 -91 2638 -91 
Q 1578 -91 968 557 
Q 359 1206 359 2328 
Q 359 3453 968 4101 
Q 1578 4750 2638 4750 
Q 3056 4750 3426 4639 
Q 3797 4528 4122 4306 
z
" transform="scale(0.015625)"/>
      <path id="DejaVuSans-53" d="M 3425 4513 
L 3425 3897 
Q 3066 4069 2747 4153 
Q 2428 4238 2131 4238 
Q 1616 4238 1336 4038 
Q 1056 3838 1056 3469 
Q 1056 3159 1242 3001 
Q 1428 2844 1947 2747 
L 2328 2669 
Q 3034 2534 3370 2195 
Q 3706 1856 3706 1288 
Q 3706 609 3251 259 
Q 2797 -91 1919 -91 
Q 1588 -91 1214 -16 
Q 841 59 441 206 
L 441 856 
Q 825 641 1194 531 
Q 1563 422 1919 422 
Q 2459 422 2753 634 
Q 3047 847 3047 1241 
Q 3047 1584 2836 1778 
Q 2625 1972 2144 2069 
L 1759 2144 
Q 1053 2284 737 2584 
Q 422 2884 422 3419 
Q 422 4038 858 4394 
Q 1294 4750 2059 4750 
Q 2388 4750 2728 4690 
Q 3069 4631 3425 4513 
z
" transform="scale(0.015625)"/>
     </defs>
     <use xlink:href="#ArialMT-48" transform="translate(0 0.203125)"/>
     <use xlink:href="#DejaVuSans-32" transform="translate(73.173828 -16.203125)scale(0.7)"/>
     <use xlink:href="#ArialMT-20" transform="translate(120.444336 0.203125)"/>
     <use xlink:href="#ArialMT-53" transform="translate(148.227539 0.203125)"/>
     <use xlink:href="#ArialMT-4d" transform="translate(214.926758 0.203125)"/>
     <use xlink:href="#ArialMT-52" transform="translate(298.227539 0.203125)"/>
     <use xlink:href="#DejaVuSans-43" transform="translate(371.401367 -16.203125)scale(0.7)"/>
     <use xlink:href="#DejaVuSans-43" transform="translate(420.27832 -16.203125)scale(0.7)"/>
     <use xlink:href="#DejaVuSans-53" transform="translate(469.155273 -16.203125)scale(0.7)"/>
    </g>
   </g>
   <g id="line2d_40">
    <path d="M 230.184128 229.605139 
L 242.184128 229.605139 
L 254.184128 229.605139 
" style="fill: none; stroke: #000000; stroke-opacity: 0; stroke-width: 1.5; stroke-linecap: square"/>
    <defs>
     <path id="m2366d126d2" d="M 0 -2.5 
L -2.165064 -1.25 
L -2.165064 1.25 
L -0 2.5 
L 2.165064 1.25 
L 2.165064 -1.25 
z
" style="stroke: #b71205; stroke-linejoin: miter"/>
    </defs>
    <g>
     <use xlink:href="#m2366d126d2" x="242.184128" y="229.605139" style="fill: #fb7b71; stroke: #b71205; stroke-linejoin: miter"/>
    </g>
   </g>
   <g id="text_36">
    <!-- H$_\mathrm{2}$ solar -->
    <g transform="translate(255.384128 233.805139)scale(0.12 -0.12)">
     <defs>
      <path id="ArialMT-73" d="M 197 991 
L 753 1078 
Q 800 744 1014 566 
Q 1228 388 1613 388 
Q 2000 388 2187 545 
Q 2375 703 2375 916 
Q 2375 1106 2209 1216 
Q 2094 1291 1634 1406 
Q 1016 1563 777 1677 
Q 538 1791 414 1992 
Q 291 2194 291 2438 
Q 291 2659 392 2848 
Q 494 3038 669 3163 
Q 800 3259 1026 3326 
Q 1253 3394 1513 3394 
Q 1903 3394 2198 3281 
Q 2494 3169 2634 2976 
Q 2775 2784 2828 2463 
L 2278 2388 
Q 2241 2644 2061 2787 
Q 1881 2931 1553 2931 
Q 1166 2931 1000 2803 
Q 834 2675 834 2503 
Q 834 2394 903 2306 
Q 972 2216 1119 2156 
Q 1203 2125 1616 2013 
Q 2213 1853 2448 1751 
Q 2684 1650 2818 1456 
Q 2953 1263 2953 975 
Q 2953 694 2789 445 
Q 2625 197 2315 61 
Q 2006 -75 1616 -75 
Q 969 -75 630 194 
Q 291 463 197 991 
z
" transform="scale(0.015625)"/>
     </defs>
     <use xlink:href="#ArialMT-48" transform="translate(0 0.421875)"/>
     <use xlink:href="#DejaVuSans-32" transform="translate(73.173828 -15.984375)scale(0.7)"/>
     <use xlink:href="#ArialMT-20" transform="translate(120.444336 0.421875)"/>
     <use xlink:href="#ArialMT-73" transform="translate(148.227539 0.421875)"/>
     <use xlink:href="#ArialMT-6f" transform="translate(198.227539 0.421875)"/>
     <use xlink:href="#ArialMT-6c" transform="translate(253.842773 0.421875)"/>
     <use xlink:href="#ArialMT-61" transform="translate(276.05957 0.421875)"/>
     <use xlink:href="#ArialMT-72" transform="translate(331.674805 0.421875)"/>
    </g>
   </g>
   <g id="line2d_41">
    <path d="M 323.184128 229.605139 
L 335.184128 229.605139 
L 347.184128 229.605139 
" style="fill: none; stroke: #000000; stroke-opacity: 0; stroke-width: 1.5; stroke-linecap: square"/>
    <defs>
     <path id="m02391bb139" d="M 0 -2.5 
L -2.5 2.5 
L 2.5 2.5 
z
" style="stroke: #167f99; stroke-linejoin: miter"/>
    </defs>
    <g>
     <use xlink:href="#m02391bb139" x="335.184128" y="229.605139" style="fill: #6dd2ea; stroke: #167f99; stroke-linejoin: miter"/>
    </g>
   </g>
   <g id="text_37">
    <!-- H$_\mathrm{2}$ wind -->
    <g transform="translate(348.384128 233.805139)scale(0.12 -0.12)">
     <defs>
      <path id="ArialMT-77" d="M 1034 0 
L 19 3319 
L 600 3319 
L 1128 1403 
L 1325 691 
Q 1338 744 1497 1375 
L 2025 3319 
L 2603 3319 
L 3100 1394 
L 3266 759 
L 3456 1400 
L 4025 3319 
L 4572 3319 
L 3534 0 
L 2950 0 
L 2422 1988 
L 2294 2553 
L 1622 0 
L 1034 0 
z
" transform="scale(0.015625)"/>
      <path id="ArialMT-69" d="M 425 3934 
L 425 4581 
L 988 4581 
L 988 3934 
L 425 3934 
z
M 425 0 
L 425 3319 
L 988 3319 
L 988 0 
L 425 0 
z
" transform="scale(0.015625)"/>
      <path id="ArialMT-64" d="M 2575 0 
L 2575 419 
Q 2259 -75 1647 -75 
Q 1250 -75 917 144 
Q 584 363 401 755 
Q 219 1147 219 1656 
Q 219 2153 384 2558 
Q 550 2963 881 3178 
Q 1213 3394 1622 3394 
Q 1922 3394 2156 3267 
Q 2391 3141 2538 2938 
L 2538 4581 
L 3097 4581 
L 3097 0 
L 2575 0 
z
M 797 1656 
Q 797 1019 1065 703 
Q 1334 388 1700 388 
Q 2069 388 2326 689 
Q 2584 991 2584 1609 
Q 2584 2291 2321 2609 
Q 2059 2928 1675 2928 
Q 1300 2928 1048 2622 
Q 797 2316 797 1656 
z
" transform="scale(0.015625)"/>
     </defs>
     <use xlink:href="#ArialMT-48" transform="translate(0 0.421875)"/>
     <use xlink:href="#DejaVuSans-32" transform="translate(73.173828 -15.984375)scale(0.7)"/>
     <use xlink:href="#ArialMT-20" transform="translate(120.444336 0.421875)"/>
     <use xlink:href="#ArialMT-77" transform="translate(148.227539 0.421875)"/>
     <use xlink:href="#ArialMT-69" transform="translate(220.444336 0.421875)"/>
     <use xlink:href="#ArialMT-6e" transform="translate(242.661133 0.421875)"/>
     <use xlink:href="#ArialMT-64" transform="translate(298.276367 0.421875)"/>
    </g>
   </g>
  </g>
 </g>
 <defs>
  <clipPath id="pff018702dd">
   <path d="M 92.335122 44.092066 
C 84.504401 48.613135 77.553495 54.510539 71.817223 61.500207 
C 66.080951 68.489874 61.652919 76.457746 58.746418 85.02002 
C 55.839918 93.582293 54.502379 102.599247 54.79823 111.636544 
C 55.09408 120.673842 57.018492 129.58401 60.478769 137.937856 
C 63.939046 146.291703 68.878721 153.952908 75.059858 160.55244 
C 81.240994 167.151973 88.562726 172.582139 96.672373 176.581374 
C 104.782021 180.58061 113.547249 183.083654 122.545847 183.969939 
C 131.544446 184.856224 140.629572 184.111286 149.363607 181.771008 
C 158.097643 179.43073 166.338062 175.533302 173.687934 170.266458 
C 181.037807 164.999614 187.377195 158.4493 192.400738 150.931036 
C 197.424281 143.412773 201.050003 135.049245 203.103259 126.243315 
C 205.156514 117.437384 205.603796 108.332748 204.42356 99.367966 
C 203.243324 90.403184 200.454829 81.724546 196.192395 73.750092 
C 191.92996 65.775638 186.263141 58.635496 179.464901 52.6736 
C 172.666661 46.711704 164.847937 42.02534 156.385345 38.840247 
C 147.922754 35.655153 138.954392 34.023304 129.912253 34.023304 
L 129.912253 109.177566 
C 129.912253 109.177566 129.912253 109.177566 129.912253 109.177566 
C 129.912253 109.177566 129.912253 109.177566 129.912253 109.177566 
C 129.912253 109.177566 129.912253 109.177566 129.912253 109.177566 
C 129.912253 109.177566 129.912253 109.177566 129.912253 109.177566 
C 129.912253 109.177566 129.912253 109.177566 129.912253 109.177566 
C 129.912253 109.177566 129.912253 109.177566 129.912253 109.177566 
C 129.912253 109.177566 129.912253 109.177566 129.912253 109.177566 
C 129.912253 109.177566 129.912253 109.177566 129.912253 109.177566 
C 129.912253 109.177566 129.912253 109.177566 129.912253 109.177566 
C 129.912253 109.177566 129.912253 109.177566 129.912253 109.177566 
C 129.912253 109.177566 129.912253 109.177566 129.912253 109.177566 
C 129.912253 109.177566 129.912253 109.177566 129.912253 109.177566 
C 129.912253 109.177566 129.912253 109.177566 129.912253 109.177566 
C 129.912253 109.177566 129.912253 109.177566 129.912253 109.177566 
C 129.912253 109.177566 129.912253 109.177566 129.912253 109.177566 
C 129.912253 109.177566 129.912253 109.177566 129.912253 109.177566 
L 92.335122 44.092066 
z
"/>
  </clipPath>
  <clipPath id="p65abca52d6">
   <path d="M 345.055122 44.092066 
C 337.224401 48.613135 330.273495 54.510539 324.537223 61.500207 
C 318.800951 68.489874 314.372919 76.457746 311.466418 85.02002 
C 308.559918 93.582293 307.222379 102.599247 307.51823 111.636544 
C 307.81408 120.673842 309.738492 129.58401 313.198769 137.937856 
C 316.659046 146.291703 321.598721 153.952908 327.779858 160.55244 
C 333.960994 167.151973 341.282726 172.582139 349.392373 176.581374 
C 357.502021 180.58061 366.267249 183.083654 375.265847 183.969939 
C 384.264446 184.856224 393.349572 184.111286 402.083607 181.771008 
C 410.817643 179.43073 419.058062 175.533302 426.407934 170.266458 
C 433.757807 164.999614 440.097195 158.4493 445.120738 150.931036 
C 450.144281 143.412773 453.770003 135.049245 455.823259 126.243315 
C 457.876514 117.437384 458.323796 108.332748 457.14356 99.367966 
C 455.963324 90.403184 453.174829 81.724546 448.912395 73.750092 
C 444.64996 65.775638 438.983141 58.635496 432.184901 52.6736 
C 425.386661 46.711704 417.567937 42.02534 409.105345 38.840247 
C 400.642754 35.655153 391.674392 34.023304 382.632253 34.023304 
L 382.632253 109.177566 
C 382.632253 109.177566 382.632253 109.177566 382.632253 109.177566 
C 382.632253 109.177566 382.632253 109.177566 382.632253 109.177566 
C 382.632253 109.177566 382.632253 109.177566 382.632253 109.177566 
C 382.632253 109.177566 382.632253 109.177566 382.632253 109.177566 
C 382.632253 109.177566 382.632253 109.177566 382.632253 109.177566 
C 382.632253 109.177566 382.632253 109.177566 382.632253 109.177566 
C 382.632253 109.177566 382.632253 109.177566 382.632253 109.177566 
C 382.632253 109.177566 382.632253 109.177566 382.632253 109.177566 
C 382.632253 109.177566 382.632253 109.177566 382.632253 109.177566 
C 382.632253 109.177566 382.632253 109.177566 382.632253 109.177566 
C 382.632253 109.177566 382.632253 109.177566 382.632253 109.177566 
C 382.632253 109.177566 382.632253 109.177566 382.632253 109.177566 
C 382.632253 109.177566 382.632253 109.177566 382.632253 109.177566 
C 382.632253 109.177566 382.632253 109.177566 382.632253 109.177566 
C 382.632253 109.177566 382.632253 109.177566 382.632253 109.177566 
C 382.632253 109.177566 382.632253 109.177566 382.632253 109.177566 
L 345.055122 44.092066 
z
"/>
  </clipPath>
 </defs>
</svg>
